%TF.GenerationSoftware,KiCad,Pcbnew,6.0.2+dfsg-1*%
%TF.CreationDate,2022-09-12T11:49:20-07:00*%
%TF.ProjectId,ISA-Card,4953412d-4361-4726-942e-6b696361645f,alpha*%
%TF.SameCoordinates,Original*%
%TF.FileFunction,Legend,Top*%
%TF.FilePolarity,Positive*%
%FSLAX46Y46*%
G04 Gerber Fmt 4.6, Leading zero omitted, Abs format (unit mm)*
G04 Created by KiCad (PCBNEW 6.0.2+dfsg-1) date 2022-09-12 11:49:20*
%MOMM*%
%LPD*%
G01*
G04 APERTURE LIST*
%ADD10C,0.010000*%
%ADD11C,0.250000*%
%ADD12C,0.304800*%
%ADD13C,0.175000*%
%ADD14C,0.200000*%
G04 APERTURE END LIST*
D10*
X165608000Y-64008000D02*
X164647300Y-64008000D01*
X164647300Y-64008000D02*
X164647300Y-66890100D01*
X164647300Y-66890100D02*
X163686600Y-66890100D01*
X163686600Y-66890100D02*
X163686600Y-64008000D01*
X163686600Y-64008000D02*
X162725900Y-64008000D01*
X162725900Y-64008000D02*
X162725900Y-63047300D01*
X162725900Y-63047300D02*
X165608000Y-63047300D01*
X165608000Y-63047300D02*
X165608000Y-64008000D01*
G36*
X165608000Y-64008000D02*
G01*
X164647300Y-64008000D01*
X164647300Y-66890100D01*
X163686600Y-66890100D01*
X163686600Y-64008000D01*
X162725900Y-64008000D01*
X162725900Y-63047300D01*
X165608000Y-63047300D01*
X165608000Y-64008000D01*
G37*
X165608000Y-64008000D02*
X164647300Y-64008000D01*
X164647300Y-66890100D01*
X163686600Y-66890100D01*
X163686600Y-64008000D01*
X162725900Y-64008000D01*
X162725900Y-63047300D01*
X165608000Y-63047300D01*
X165608000Y-64008000D01*
X162638200Y-63077786D02*
X159756100Y-63077786D01*
X159756100Y-63077786D02*
X159756100Y-64038486D01*
X159756100Y-64038486D02*
X160716800Y-64038486D01*
X160716800Y-64038486D02*
X160716800Y-66920586D01*
X160716800Y-66920586D02*
X161677500Y-66920586D01*
X161677500Y-66920586D02*
X161677500Y-64038486D01*
X161677500Y-64038486D02*
X162638200Y-64038486D01*
X162638200Y-64038486D02*
X162638200Y-68834016D01*
X162638200Y-68834016D02*
X161865897Y-68755690D01*
X161865897Y-68755690D02*
X161146622Y-68532011D01*
X161146622Y-68532011D02*
X159928727Y-67710202D01*
X159928727Y-67710202D02*
X159107658Y-66491808D01*
X159107658Y-66491808D02*
X158884417Y-65772397D01*
X158884417Y-65772397D02*
X158806560Y-65000046D01*
X158806560Y-65000046D02*
X158884401Y-64227681D01*
X158884401Y-64227681D02*
X159107633Y-63508255D01*
X159107633Y-63508255D02*
X159928695Y-62289832D01*
X159928695Y-62289832D02*
X161146600Y-61468000D01*
X161146600Y-61468000D02*
X161865885Y-61244315D01*
X161865885Y-61244315D02*
X162638200Y-61165986D01*
X162638200Y-61165986D02*
X162638200Y-63077786D01*
G36*
X162638200Y-63077786D02*
G01*
X159756100Y-63077786D01*
X159756100Y-64038486D01*
X160716800Y-64038486D01*
X160716800Y-66920586D01*
X161677500Y-66920586D01*
X161677500Y-64038486D01*
X162638200Y-64038486D01*
X162638200Y-68834016D01*
X161865897Y-68755690D01*
X161146622Y-68532011D01*
X159928727Y-67710202D01*
X159107658Y-66491808D01*
X158884417Y-65772397D01*
X158806560Y-65000046D01*
X158884401Y-64227681D01*
X159107633Y-63508255D01*
X159928695Y-62289832D01*
X161146600Y-61468000D01*
X161865885Y-61244315D01*
X162638200Y-61165986D01*
X162638200Y-63077786D01*
G37*
X162638200Y-63077786D02*
X159756100Y-63077786D01*
X159756100Y-64038486D01*
X160716800Y-64038486D01*
X160716800Y-66920586D01*
X161677500Y-66920586D01*
X161677500Y-64038486D01*
X162638200Y-64038486D01*
X162638200Y-68834016D01*
X161865897Y-68755690D01*
X161146622Y-68532011D01*
X159928727Y-67710202D01*
X159107658Y-66491808D01*
X158884417Y-65772397D01*
X158806560Y-65000046D01*
X158884401Y-64227681D01*
X159107633Y-63508255D01*
X159928695Y-62289832D01*
X161146600Y-61468000D01*
X161865885Y-61244315D01*
X162638200Y-61165986D01*
X162638200Y-63077786D01*
D11*
X148494714Y-92671809D02*
X147923285Y-92671809D01*
X148209000Y-92671809D02*
X148209000Y-91071809D01*
X148113761Y-91300380D01*
X148018523Y-91452761D01*
X147923285Y-91528952D01*
X100136809Y-55918142D02*
X100136809Y-56984809D01*
X99874904Y-55308619D02*
X99613000Y-56451476D01*
X100293952Y-56451476D01*
X100713000Y-56832428D02*
X100765380Y-56908619D01*
X100713000Y-56984809D01*
X100660619Y-56908619D01*
X100713000Y-56832428D01*
X100713000Y-56984809D01*
X101289190Y-56984809D02*
X101498714Y-56984809D01*
X101603476Y-56908619D01*
X101655857Y-56832428D01*
X101760619Y-56603857D01*
X101813000Y-56299095D01*
X101813000Y-55689571D01*
X101760619Y-55537190D01*
X101708238Y-55461000D01*
X101603476Y-55384809D01*
X101393952Y-55384809D01*
X101289190Y-55461000D01*
X101236809Y-55537190D01*
X101184428Y-55689571D01*
X101184428Y-56070523D01*
X101236809Y-56222904D01*
X101289190Y-56299095D01*
X101393952Y-56375285D01*
X101603476Y-56375285D01*
X101708238Y-56299095D01*
X101760619Y-56222904D01*
X101813000Y-56070523D01*
X102860619Y-56984809D02*
X102232047Y-56984809D01*
X102546333Y-56984809D02*
X102546333Y-55384809D01*
X102441571Y-55613380D01*
X102336809Y-55765761D01*
X102232047Y-55841952D01*
X103803476Y-55918142D02*
X103803476Y-56984809D01*
X103541571Y-55308619D02*
X103279666Y-56451476D01*
X103960619Y-56451476D01*
X104327285Y-55537190D02*
X104379666Y-55461000D01*
X104484428Y-55384809D01*
X104746333Y-55384809D01*
X104851095Y-55461000D01*
X104903476Y-55537190D01*
X104955857Y-55689571D01*
X104955857Y-55841952D01*
X104903476Y-56070523D01*
X104274904Y-56984809D01*
X104955857Y-56984809D01*
X105427285Y-56984809D02*
X105427285Y-55384809D01*
X105793952Y-56527666D01*
X106160619Y-55384809D01*
X106160619Y-56984809D01*
X106684428Y-56984809D02*
X106684428Y-55384809D01*
X106684428Y-56146714D02*
X107313000Y-56146714D01*
X107313000Y-56984809D02*
X107313000Y-55384809D01*
X107732047Y-55384809D02*
X108465380Y-55384809D01*
X107732047Y-56984809D01*
X108465380Y-56984809D01*
X172658331Y-92648802D02*
X172086902Y-92648802D01*
X172372617Y-92648802D02*
X172372617Y-91048802D01*
X172277378Y-91277373D01*
X172182140Y-91429754D01*
X172086902Y-91505945D01*
X123221714Y-92671809D02*
X122650285Y-92671809D01*
X122936000Y-92671809D02*
X122936000Y-91071809D01*
X122840761Y-91300380D01*
X122745523Y-91452761D01*
X122650285Y-91528952D01*
D12*
X152291142Y-98733428D02*
X152654000Y-100257428D01*
X152944285Y-99168857D01*
X153234571Y-100257428D01*
X153597428Y-98733428D01*
X154178000Y-100257428D02*
X154178000Y-99241428D01*
X154178000Y-98733428D02*
X154105428Y-98806000D01*
X154178000Y-98878571D01*
X154250571Y-98806000D01*
X154178000Y-98733428D01*
X154178000Y-98878571D01*
X154758571Y-99241428D02*
X155556857Y-99241428D01*
X154758571Y-100257428D01*
X155556857Y-100257428D01*
X156790571Y-100257428D02*
X156790571Y-99459142D01*
X156718000Y-99314000D01*
X156572857Y-99241428D01*
X156282571Y-99241428D01*
X156137428Y-99314000D01*
X156790571Y-100184857D02*
X156645428Y-100257428D01*
X156282571Y-100257428D01*
X156137428Y-100184857D01*
X156064857Y-100039714D01*
X156064857Y-99894571D01*
X156137428Y-99749428D01*
X156282571Y-99676857D01*
X156645428Y-99676857D01*
X156790571Y-99604285D01*
X157516285Y-100257428D02*
X157516285Y-99241428D01*
X157516285Y-99531714D02*
X157588857Y-99386571D01*
X157661428Y-99314000D01*
X157806571Y-99241428D01*
X157951714Y-99241428D01*
X159112857Y-100257428D02*
X159112857Y-98733428D01*
X159112857Y-100184857D02*
X158967714Y-100257428D01*
X158677428Y-100257428D01*
X158532285Y-100184857D01*
X158459714Y-100112285D01*
X158387142Y-99967142D01*
X158387142Y-99531714D01*
X158459714Y-99386571D01*
X158532285Y-99314000D01*
X158677428Y-99241428D01*
X158967714Y-99241428D01*
X159112857Y-99314000D01*
X159620857Y-98733428D02*
X160491714Y-98733428D01*
X160056285Y-100257428D02*
X160056285Y-98733428D01*
X160999714Y-100257428D02*
X160999714Y-99241428D01*
X160999714Y-98733428D02*
X160927142Y-98806000D01*
X160999714Y-98878571D01*
X161072285Y-98806000D01*
X160999714Y-98733428D01*
X160999714Y-98878571D01*
X161725428Y-100257428D02*
X161725428Y-99241428D01*
X161725428Y-99386571D02*
X161798000Y-99314000D01*
X161943142Y-99241428D01*
X162160857Y-99241428D01*
X162306000Y-99314000D01*
X162378571Y-99459142D01*
X162378571Y-100257428D01*
X162378571Y-99459142D02*
X162451142Y-99314000D01*
X162596285Y-99241428D01*
X162814000Y-99241428D01*
X162959142Y-99314000D01*
X163031714Y-99459142D01*
X163031714Y-100257428D01*
D11*
X77303523Y-76644428D02*
X77255904Y-76720619D01*
X77113047Y-76796809D01*
X77017809Y-76796809D01*
X76874952Y-76720619D01*
X76779714Y-76568238D01*
X76732095Y-76415857D01*
X76684476Y-76111095D01*
X76684476Y-75882523D01*
X76732095Y-75577761D01*
X76779714Y-75425380D01*
X76874952Y-75273000D01*
X77017809Y-75196809D01*
X77113047Y-75196809D01*
X77255904Y-75273000D01*
X77303523Y-75349190D01*
X77732095Y-76796809D02*
X77732095Y-75196809D01*
X78065428Y-76339666D01*
X78398761Y-75196809D01*
X78398761Y-76796809D01*
X79398761Y-76796809D02*
X78827333Y-76796809D01*
X79113047Y-76796809D02*
X79113047Y-75196809D01*
X79017809Y-75425380D01*
X78922571Y-75577761D01*
X78827333Y-75653952D01*
X80303523Y-75196809D02*
X79827333Y-75196809D01*
X79779714Y-75958714D01*
X79827333Y-75882523D01*
X79922571Y-75806333D01*
X80160666Y-75806333D01*
X80255904Y-75882523D01*
X80303523Y-75958714D01*
X80351142Y-76111095D01*
X80351142Y-76492047D01*
X80303523Y-76644428D01*
X80255904Y-76720619D01*
X80160666Y-76796809D01*
X79922571Y-76796809D01*
X79827333Y-76720619D01*
X79779714Y-76644428D01*
X80684476Y-75196809D02*
X81303523Y-75196809D01*
X80970190Y-75806333D01*
X81113047Y-75806333D01*
X81208285Y-75882523D01*
X81255904Y-75958714D01*
X81303523Y-76111095D01*
X81303523Y-76492047D01*
X81255904Y-76644428D01*
X81208285Y-76720619D01*
X81113047Y-76796809D01*
X80827333Y-76796809D01*
X80732095Y-76720619D01*
X80684476Y-76644428D01*
D12*
X130790405Y-130708037D02*
X131008120Y-130780608D01*
X131370977Y-130780608D01*
X131516120Y-130708037D01*
X131588691Y-130635465D01*
X131661262Y-130490322D01*
X131661262Y-130345180D01*
X131588691Y-130200037D01*
X131516120Y-130127465D01*
X131370977Y-130054894D01*
X131080691Y-129982322D01*
X130935548Y-129909751D01*
X130862977Y-129837180D01*
X130790405Y-129692037D01*
X130790405Y-129546894D01*
X130862977Y-129401751D01*
X130935548Y-129329180D01*
X131080691Y-129256608D01*
X131443548Y-129256608D01*
X131661262Y-129329180D01*
X132314405Y-129764608D02*
X132314405Y-131288608D01*
X132314405Y-129837180D02*
X132459548Y-129764608D01*
X132749834Y-129764608D01*
X132894977Y-129837180D01*
X132967548Y-129909751D01*
X133040120Y-130054894D01*
X133040120Y-130490322D01*
X132967548Y-130635465D01*
X132894977Y-130708037D01*
X132749834Y-130780608D01*
X132459548Y-130780608D01*
X132314405Y-130708037D01*
X134273834Y-130708037D02*
X134128691Y-130780608D01*
X133838405Y-130780608D01*
X133693262Y-130708037D01*
X133620691Y-130562894D01*
X133620691Y-129982322D01*
X133693262Y-129837180D01*
X133838405Y-129764608D01*
X134128691Y-129764608D01*
X134273834Y-129837180D01*
X134346405Y-129982322D01*
X134346405Y-130127465D01*
X133620691Y-130272608D01*
X135652691Y-130708037D02*
X135507548Y-130780608D01*
X135217262Y-130780608D01*
X135072120Y-130708037D01*
X134999548Y-130635465D01*
X134926977Y-130490322D01*
X134926977Y-130054894D01*
X134999548Y-129909751D01*
X135072120Y-129837180D01*
X135217262Y-129764608D01*
X135507548Y-129764608D01*
X135652691Y-129837180D01*
X136305834Y-130780608D02*
X136305834Y-129764608D01*
X136305834Y-129256608D02*
X136233262Y-129329180D01*
X136305834Y-129401751D01*
X136378405Y-129329180D01*
X136305834Y-129256608D01*
X136305834Y-129401751D01*
X137684691Y-130780608D02*
X137684691Y-129982322D01*
X137612120Y-129837180D01*
X137466977Y-129764608D01*
X137176691Y-129764608D01*
X137031548Y-129837180D01*
X137684691Y-130708037D02*
X137539548Y-130780608D01*
X137176691Y-130780608D01*
X137031548Y-130708037D01*
X136958977Y-130562894D01*
X136958977Y-130417751D01*
X137031548Y-130272608D01*
X137176691Y-130200037D01*
X137539548Y-130200037D01*
X137684691Y-130127465D01*
X138628120Y-130780608D02*
X138482977Y-130708037D01*
X138410405Y-130562894D01*
X138410405Y-129256608D01*
X140152120Y-129764608D02*
X140732691Y-129764608D01*
X140369834Y-129256608D02*
X140369834Y-130562894D01*
X140442405Y-130708037D01*
X140587548Y-130780608D01*
X140732691Y-130780608D01*
X141240691Y-130780608D02*
X141240691Y-129256608D01*
X141893834Y-130780608D02*
X141893834Y-129982322D01*
X141821262Y-129837180D01*
X141676120Y-129764608D01*
X141458405Y-129764608D01*
X141313262Y-129837180D01*
X141240691Y-129909751D01*
X143272691Y-130780608D02*
X143272691Y-129982322D01*
X143200120Y-129837180D01*
X143054977Y-129764608D01*
X142764691Y-129764608D01*
X142619548Y-129837180D01*
X143272691Y-130708037D02*
X143127548Y-130780608D01*
X142764691Y-130780608D01*
X142619548Y-130708037D01*
X142546977Y-130562894D01*
X142546977Y-130417751D01*
X142619548Y-130272608D01*
X142764691Y-130200037D01*
X143127548Y-130200037D01*
X143272691Y-130127465D01*
X143998405Y-129764608D02*
X143998405Y-130780608D01*
X143998405Y-129909751D02*
X144070977Y-129837180D01*
X144216120Y-129764608D01*
X144433834Y-129764608D01*
X144578977Y-129837180D01*
X144651548Y-129982322D01*
X144651548Y-130780608D01*
X145377262Y-130780608D02*
X145377262Y-129256608D01*
X145522405Y-130200037D02*
X145957834Y-130780608D01*
X145957834Y-129764608D02*
X145377262Y-130345180D01*
X146538405Y-130708037D02*
X146683548Y-130780608D01*
X146973834Y-130780608D01*
X147118977Y-130708037D01*
X147191548Y-130562894D01*
X147191548Y-130490322D01*
X147118977Y-130345180D01*
X146973834Y-130272608D01*
X146756120Y-130272608D01*
X146610977Y-130200037D01*
X146538405Y-130054894D01*
X146538405Y-129982322D01*
X146610977Y-129837180D01*
X146756120Y-129764608D01*
X146973834Y-129764608D01*
X147118977Y-129837180D01*
X148788120Y-129764608D02*
X149368691Y-129764608D01*
X149005834Y-129256608D02*
X149005834Y-130562894D01*
X149078405Y-130708037D01*
X149223548Y-130780608D01*
X149368691Y-130780608D01*
X150094405Y-130780608D02*
X149949262Y-130708037D01*
X149876691Y-130635465D01*
X149804120Y-130490322D01*
X149804120Y-130054894D01*
X149876691Y-129909751D01*
X149949262Y-129837180D01*
X150094405Y-129764608D01*
X150312120Y-129764608D01*
X150457262Y-129837180D01*
X150529834Y-129909751D01*
X150602405Y-130054894D01*
X150602405Y-130490322D01*
X150529834Y-130635465D01*
X150457262Y-130708037D01*
X150312120Y-130780608D01*
X150094405Y-130780608D01*
X157278977Y-130780608D02*
X157133834Y-130708037D01*
X157061262Y-130635465D01*
X156988691Y-130490322D01*
X156988691Y-130054894D01*
X157061262Y-129909751D01*
X157133834Y-129837180D01*
X157278977Y-129764608D01*
X157496691Y-129764608D01*
X157641834Y-129837180D01*
X157714405Y-129909751D01*
X157786977Y-130054894D01*
X157786977Y-130490322D01*
X157714405Y-130635465D01*
X157641834Y-130708037D01*
X157496691Y-130780608D01*
X157278977Y-130780608D01*
X158440120Y-130780608D02*
X158440120Y-129764608D01*
X158440120Y-130054894D02*
X158512691Y-129909751D01*
X158585262Y-129837180D01*
X158730405Y-129764608D01*
X158875548Y-129764608D01*
X159383548Y-130780608D02*
X159383548Y-129764608D01*
X159383548Y-129256608D02*
X159310977Y-129329180D01*
X159383548Y-129401751D01*
X159456120Y-129329180D01*
X159383548Y-129256608D01*
X159383548Y-129401751D01*
X160762405Y-129764608D02*
X160762405Y-130998322D01*
X160689834Y-131143465D01*
X160617262Y-131216037D01*
X160472120Y-131288608D01*
X160254405Y-131288608D01*
X160109262Y-131216037D01*
X160762405Y-130708037D02*
X160617262Y-130780608D01*
X160326977Y-130780608D01*
X160181834Y-130708037D01*
X160109262Y-130635465D01*
X160036691Y-130490322D01*
X160036691Y-130054894D01*
X160109262Y-129909751D01*
X160181834Y-129837180D01*
X160326977Y-129764608D01*
X160617262Y-129764608D01*
X160762405Y-129837180D01*
X161488120Y-130780608D02*
X161488120Y-129764608D01*
X161488120Y-129256608D02*
X161415548Y-129329180D01*
X161488120Y-129401751D01*
X161560691Y-129329180D01*
X161488120Y-129256608D01*
X161488120Y-129401751D01*
X162213834Y-129764608D02*
X162213834Y-130780608D01*
X162213834Y-129909751D02*
X162286405Y-129837180D01*
X162431548Y-129764608D01*
X162649262Y-129764608D01*
X162794405Y-129837180D01*
X162866977Y-129982322D01*
X162866977Y-130780608D01*
X164245834Y-130780608D02*
X164245834Y-129982322D01*
X164173262Y-129837180D01*
X164028120Y-129764608D01*
X163737834Y-129764608D01*
X163592691Y-129837180D01*
X164245834Y-130708037D02*
X164100691Y-130780608D01*
X163737834Y-130780608D01*
X163592691Y-130708037D01*
X163520120Y-130562894D01*
X163520120Y-130417751D01*
X163592691Y-130272608D01*
X163737834Y-130200037D01*
X164100691Y-130200037D01*
X164245834Y-130127465D01*
X165189262Y-130780608D02*
X165044120Y-130708037D01*
X164971548Y-130562894D01*
X164971548Y-129256608D01*
X166930977Y-130780608D02*
X166930977Y-129764608D01*
X166930977Y-130054894D02*
X167003548Y-129909751D01*
X167076120Y-129837180D01*
X167221262Y-129764608D01*
X167366405Y-129764608D01*
X168454977Y-130708037D02*
X168309834Y-130780608D01*
X168019548Y-130780608D01*
X167874405Y-130708037D01*
X167801834Y-130562894D01*
X167801834Y-129982322D01*
X167874405Y-129837180D01*
X168019548Y-129764608D01*
X168309834Y-129764608D01*
X168454977Y-129837180D01*
X168527548Y-129982322D01*
X168527548Y-130127465D01*
X167801834Y-130272608D01*
X168962977Y-129764608D02*
X169543548Y-129764608D01*
X169180691Y-130780608D02*
X169180691Y-129474322D01*
X169253262Y-129329180D01*
X169398405Y-129256608D01*
X169543548Y-129256608D01*
X170632120Y-130708037D02*
X170486977Y-130780608D01*
X170196691Y-130780608D01*
X170051548Y-130708037D01*
X169978977Y-130562894D01*
X169978977Y-129982322D01*
X170051548Y-129837180D01*
X170196691Y-129764608D01*
X170486977Y-129764608D01*
X170632120Y-129837180D01*
X170704691Y-129982322D01*
X170704691Y-130127465D01*
X169978977Y-130272608D01*
X171357834Y-130780608D02*
X171357834Y-129764608D01*
X171357834Y-130054894D02*
X171430405Y-129909751D01*
X171502977Y-129837180D01*
X171648120Y-129764608D01*
X171793262Y-129764608D01*
X172881834Y-130708037D02*
X172736691Y-130780608D01*
X172446405Y-130780608D01*
X172301262Y-130708037D01*
X172228691Y-130562894D01*
X172228691Y-129982322D01*
X172301262Y-129837180D01*
X172446405Y-129764608D01*
X172736691Y-129764608D01*
X172881834Y-129837180D01*
X172954405Y-129982322D01*
X172954405Y-130127465D01*
X172228691Y-130272608D01*
X173607548Y-129764608D02*
X173607548Y-130780608D01*
X173607548Y-129909751D02*
X173680120Y-129837180D01*
X173825262Y-129764608D01*
X174042977Y-129764608D01*
X174188120Y-129837180D01*
X174260691Y-129982322D01*
X174260691Y-130780608D01*
X175639548Y-130708037D02*
X175494405Y-130780608D01*
X175204120Y-130780608D01*
X175058977Y-130708037D01*
X174986405Y-130635465D01*
X174913834Y-130490322D01*
X174913834Y-130054894D01*
X174986405Y-129909751D01*
X175058977Y-129837180D01*
X175204120Y-129764608D01*
X175494405Y-129764608D01*
X175639548Y-129837180D01*
X176873262Y-130708037D02*
X176728120Y-130780608D01*
X176437834Y-130780608D01*
X176292691Y-130708037D01*
X176220120Y-130562894D01*
X176220120Y-129982322D01*
X176292691Y-129837180D01*
X176437834Y-129764608D01*
X176728120Y-129764608D01*
X176873262Y-129837180D01*
X176945834Y-129982322D01*
X176945834Y-130127465D01*
X176220120Y-130272608D01*
X131733834Y-133234248D02*
X131225834Y-132508534D01*
X130862977Y-133234248D02*
X130862977Y-131710248D01*
X131443548Y-131710248D01*
X131588691Y-131782820D01*
X131661262Y-131855391D01*
X131733834Y-132000534D01*
X131733834Y-132218248D01*
X131661262Y-132363391D01*
X131588691Y-132435962D01*
X131443548Y-132508534D01*
X130862977Y-132508534D01*
X132604691Y-133234248D02*
X132459548Y-133161677D01*
X132386977Y-133089105D01*
X132314405Y-132943962D01*
X132314405Y-132508534D01*
X132386977Y-132363391D01*
X132459548Y-132290820D01*
X132604691Y-132218248D01*
X132822405Y-132218248D01*
X132967548Y-132290820D01*
X133040120Y-132363391D01*
X133112691Y-132508534D01*
X133112691Y-132943962D01*
X133040120Y-133089105D01*
X132967548Y-133161677D01*
X132822405Y-133234248D01*
X132604691Y-133234248D01*
X133983548Y-133234248D02*
X133838405Y-133161677D01*
X133765834Y-133016534D01*
X133765834Y-131710248D01*
X135217262Y-133234248D02*
X135217262Y-132435962D01*
X135144691Y-132290820D01*
X134999548Y-132218248D01*
X134709262Y-132218248D01*
X134564120Y-132290820D01*
X135217262Y-133161677D02*
X135072120Y-133234248D01*
X134709262Y-133234248D01*
X134564120Y-133161677D01*
X134491548Y-133016534D01*
X134491548Y-132871391D01*
X134564120Y-132726248D01*
X134709262Y-132653677D01*
X135072120Y-132653677D01*
X135217262Y-132581105D01*
X135942977Y-132218248D02*
X135942977Y-133234248D01*
X135942977Y-132363391D02*
X136015548Y-132290820D01*
X136160691Y-132218248D01*
X136378405Y-132218248D01*
X136523548Y-132290820D01*
X136596120Y-132435962D01*
X136596120Y-133234248D01*
X137974977Y-133234248D02*
X137974977Y-131710248D01*
X137974977Y-133161677D02*
X137829834Y-133234248D01*
X137539548Y-133234248D01*
X137394405Y-133161677D01*
X137321834Y-133089105D01*
X137249262Y-132943962D01*
X137249262Y-132508534D01*
X137321834Y-132363391D01*
X137394405Y-132290820D01*
X137539548Y-132218248D01*
X137829834Y-132218248D01*
X137974977Y-132290820D01*
X139644120Y-132218248D02*
X140224691Y-132218248D01*
X139861834Y-133234248D02*
X139861834Y-131927962D01*
X139934405Y-131782820D01*
X140079548Y-131710248D01*
X140224691Y-131710248D01*
X140950405Y-133234248D02*
X140805262Y-133161677D01*
X140732691Y-133089105D01*
X140660120Y-132943962D01*
X140660120Y-132508534D01*
X140732691Y-132363391D01*
X140805262Y-132290820D01*
X140950405Y-132218248D01*
X141168120Y-132218248D01*
X141313262Y-132290820D01*
X141385834Y-132363391D01*
X141458405Y-132508534D01*
X141458405Y-132943962D01*
X141385834Y-133089105D01*
X141313262Y-133161677D01*
X141168120Y-133234248D01*
X140950405Y-133234248D01*
X142111548Y-133234248D02*
X142111548Y-132218248D01*
X142111548Y-132508534D02*
X142184120Y-132363391D01*
X142256691Y-132290820D01*
X142401834Y-132218248D01*
X142546977Y-132218248D01*
X143998405Y-132218248D02*
X144578977Y-132218248D01*
X144216120Y-131710248D02*
X144216120Y-133016534D01*
X144288691Y-133161677D01*
X144433834Y-133234248D01*
X144578977Y-133234248D01*
X145086977Y-133234248D02*
X145086977Y-131710248D01*
X145740120Y-133234248D02*
X145740120Y-132435962D01*
X145667548Y-132290820D01*
X145522405Y-132218248D01*
X145304691Y-132218248D01*
X145159548Y-132290820D01*
X145086977Y-132363391D01*
X147046405Y-133161677D02*
X146901262Y-133234248D01*
X146610977Y-133234248D01*
X146465834Y-133161677D01*
X146393262Y-133016534D01*
X146393262Y-132435962D01*
X146465834Y-132290820D01*
X146610977Y-132218248D01*
X146901262Y-132218248D01*
X147046405Y-132290820D01*
X147118977Y-132435962D01*
X147118977Y-132581105D01*
X146393262Y-132726248D01*
X157061262Y-132218248D02*
X157061262Y-133742248D01*
X157061262Y-132290820D02*
X157206405Y-132218248D01*
X157496691Y-132218248D01*
X157641834Y-132290820D01*
X157714405Y-132363391D01*
X157786977Y-132508534D01*
X157786977Y-132943962D01*
X157714405Y-133089105D01*
X157641834Y-133161677D01*
X157496691Y-133234248D01*
X157206405Y-133234248D01*
X157061262Y-133161677D01*
X158440120Y-133234248D02*
X158440120Y-131710248D01*
X159093262Y-133234248D02*
X159093262Y-132435962D01*
X159020691Y-132290820D01*
X158875548Y-132218248D01*
X158657834Y-132218248D01*
X158512691Y-132290820D01*
X158440120Y-132363391D01*
X160036691Y-133234248D02*
X159891548Y-133161677D01*
X159818977Y-133089105D01*
X159746405Y-132943962D01*
X159746405Y-132508534D01*
X159818977Y-132363391D01*
X159891548Y-132290820D01*
X160036691Y-132218248D01*
X160254405Y-132218248D01*
X160399548Y-132290820D01*
X160472120Y-132363391D01*
X160544691Y-132508534D01*
X160544691Y-132943962D01*
X160472120Y-133089105D01*
X160399548Y-133161677D01*
X160254405Y-133234248D01*
X160036691Y-133234248D01*
X160980120Y-132218248D02*
X161560691Y-132218248D01*
X161197834Y-131710248D02*
X161197834Y-133016534D01*
X161270405Y-133161677D01*
X161415548Y-133234248D01*
X161560691Y-133234248D01*
X162286405Y-133234248D02*
X162141262Y-133161677D01*
X162068691Y-133089105D01*
X161996120Y-132943962D01*
X161996120Y-132508534D01*
X162068691Y-132363391D01*
X162141262Y-132290820D01*
X162286405Y-132218248D01*
X162504120Y-132218248D01*
X162649262Y-132290820D01*
X162721834Y-132363391D01*
X162794405Y-132508534D01*
X162794405Y-132943962D01*
X162721834Y-133089105D01*
X162649262Y-133161677D01*
X162504120Y-133234248D01*
X162286405Y-133234248D01*
X163374977Y-133161677D02*
X163520120Y-133234248D01*
X163810405Y-133234248D01*
X163955548Y-133161677D01*
X164028120Y-133016534D01*
X164028120Y-132943962D01*
X163955548Y-132798820D01*
X163810405Y-132726248D01*
X163592691Y-132726248D01*
X163447548Y-132653677D01*
X163374977Y-132508534D01*
X163374977Y-132435962D01*
X163447548Y-132290820D01*
X163592691Y-132218248D01*
X163810405Y-132218248D01*
X163955548Y-132290820D01*
D11*
X77374714Y-138391809D02*
X76803285Y-138391809D01*
X77089000Y-138391809D02*
X77089000Y-136791809D01*
X76993761Y-137020380D01*
X76898523Y-137172761D01*
X76803285Y-137248952D01*
X172526285Y-107866571D02*
X171897714Y-107866571D01*
X172212000Y-107866571D02*
X172212000Y-106366571D01*
X172107238Y-106580857D01*
X172002476Y-106723714D01*
X171897714Y-106795142D01*
X76739714Y-107784809D02*
X76168285Y-107784809D01*
X76454000Y-107784809D02*
X76454000Y-106184809D01*
X76358761Y-106413380D01*
X76263523Y-106565761D01*
X76168285Y-106641952D01*
X180570285Y-140204000D02*
X181094095Y-140204000D01*
X180465523Y-140632571D02*
X180832190Y-139132571D01*
X181198857Y-140632571D01*
X181513142Y-139275428D02*
X181565523Y-139204000D01*
X181670285Y-139132571D01*
X181932190Y-139132571D01*
X182036952Y-139204000D01*
X182089333Y-139275428D01*
X182141714Y-139418285D01*
X182141714Y-139561142D01*
X182089333Y-139775428D01*
X181460761Y-140632571D01*
X182141714Y-140632571D01*
X205740095Y-70547000D02*
X205644857Y-70480333D01*
X205502000Y-70480333D01*
X205359142Y-70547000D01*
X205263904Y-70680333D01*
X205216285Y-70813666D01*
X205168666Y-71080333D01*
X205168666Y-71280333D01*
X205216285Y-71547000D01*
X205263904Y-71680333D01*
X205359142Y-71813666D01*
X205502000Y-71880333D01*
X205597238Y-71880333D01*
X205740095Y-71813666D01*
X205787714Y-71747000D01*
X205787714Y-71280333D01*
X205597238Y-71280333D01*
X206216285Y-71880333D02*
X206216285Y-70480333D01*
X206787714Y-71880333D01*
X206787714Y-70480333D01*
X207263904Y-71880333D02*
X207263904Y-70480333D01*
X207502000Y-70480333D01*
X207644857Y-70547000D01*
X207740095Y-70680333D01*
X207787714Y-70813666D01*
X207835333Y-71080333D01*
X207835333Y-71280333D01*
X207787714Y-71547000D01*
X207740095Y-71680333D01*
X207644857Y-71813666D01*
X207502000Y-71880333D01*
X207263904Y-71880333D01*
X195611714Y-59016809D02*
X195040285Y-59016809D01*
X195326000Y-59016809D02*
X195326000Y-57416809D01*
X195230761Y-57645380D01*
X195135523Y-57797761D01*
X195040285Y-57873952D01*
X128301714Y-138264809D02*
X127730285Y-138264809D01*
X128016000Y-138264809D02*
X128016000Y-136664809D01*
X127920761Y-136893380D01*
X127825523Y-137045761D01*
X127730285Y-137121952D01*
D13*
X199635333Y-89928809D02*
X199868666Y-91528809D01*
X200102000Y-89928809D01*
X200668666Y-91528809D02*
X200335333Y-91528809D01*
X200335333Y-89928809D01*
D11*
X148650285Y-107866571D02*
X148021714Y-107866571D01*
X148336000Y-107866571D02*
X148336000Y-106366571D01*
X148231238Y-106580857D01*
X148126476Y-106723714D01*
X148021714Y-106795142D01*
X156270285Y-138346571D02*
X155641714Y-138346571D01*
X155956000Y-138346571D02*
X155956000Y-136846571D01*
X155851238Y-137060857D01*
X155746476Y-137203714D01*
X155641714Y-137275142D01*
D12*
X166676977Y-64232608D02*
X166676977Y-62708608D01*
X167257548Y-62708608D01*
X167402691Y-62781180D01*
X167475262Y-62853751D01*
X167547834Y-62998894D01*
X167547834Y-63216608D01*
X167475262Y-63361751D01*
X167402691Y-63434322D01*
X167257548Y-63506894D01*
X166676977Y-63506894D01*
X168200977Y-64232608D02*
X168200977Y-62708608D01*
X168854120Y-64232608D02*
X168854120Y-63434322D01*
X168781548Y-63289180D01*
X168636405Y-63216608D01*
X168418691Y-63216608D01*
X168273548Y-63289180D01*
X168200977Y-63361751D01*
X169579834Y-64232608D02*
X169579834Y-63216608D01*
X169579834Y-62708608D02*
X169507262Y-62781180D01*
X169579834Y-62853751D01*
X169652405Y-62781180D01*
X169579834Y-62708608D01*
X169579834Y-62853751D01*
X170523262Y-64232608D02*
X170378120Y-64160037D01*
X170305548Y-64014894D01*
X170305548Y-62708608D01*
X171103834Y-64232608D02*
X171103834Y-63216608D01*
X171103834Y-62708608D02*
X171031262Y-62781180D01*
X171103834Y-62853751D01*
X171176405Y-62781180D01*
X171103834Y-62708608D01*
X171103834Y-62853751D01*
X171829548Y-63216608D02*
X171829548Y-64740608D01*
X171829548Y-63289180D02*
X171974691Y-63216608D01*
X172264977Y-63216608D01*
X172410120Y-63289180D01*
X172482691Y-63361751D01*
X172555262Y-63506894D01*
X172555262Y-63942322D01*
X172482691Y-64087465D01*
X172410120Y-64160037D01*
X172264977Y-64232608D01*
X171974691Y-64232608D01*
X171829548Y-64160037D01*
X173135834Y-64160037D02*
X173280977Y-64232608D01*
X173571262Y-64232608D01*
X173716405Y-64160037D01*
X173788977Y-64014894D01*
X173788977Y-63942322D01*
X173716405Y-63797180D01*
X173571262Y-63724608D01*
X173353548Y-63724608D01*
X173208405Y-63652037D01*
X173135834Y-63506894D01*
X173135834Y-63434322D01*
X173208405Y-63289180D01*
X173353548Y-63216608D01*
X173571262Y-63216608D01*
X173716405Y-63289180D01*
X176474120Y-64087465D02*
X176401548Y-64160037D01*
X176183834Y-64232608D01*
X176038691Y-64232608D01*
X175820977Y-64160037D01*
X175675834Y-64014894D01*
X175603262Y-63869751D01*
X175530691Y-63579465D01*
X175530691Y-63361751D01*
X175603262Y-63071465D01*
X175675834Y-62926322D01*
X175820977Y-62781180D01*
X176038691Y-62708608D01*
X176183834Y-62708608D01*
X176401548Y-62781180D01*
X176474120Y-62853751D01*
X177127262Y-64232608D02*
X177127262Y-62708608D01*
X177635262Y-63797180D01*
X178143262Y-62708608D01*
X178143262Y-64232608D01*
X179667262Y-64232608D02*
X178796405Y-64232608D01*
X179231834Y-64232608D02*
X179231834Y-62708608D01*
X179086691Y-62926322D01*
X178941548Y-63071465D01*
X178796405Y-63144037D01*
X181046120Y-62708608D02*
X180320405Y-62708608D01*
X180247834Y-63434322D01*
X180320405Y-63361751D01*
X180465548Y-63289180D01*
X180828405Y-63289180D01*
X180973548Y-63361751D01*
X181046120Y-63434322D01*
X181118691Y-63579465D01*
X181118691Y-63942322D01*
X181046120Y-64087465D01*
X180973548Y-64160037D01*
X180828405Y-64232608D01*
X180465548Y-64232608D01*
X180320405Y-64160037D01*
X180247834Y-64087465D01*
X181626691Y-62708608D02*
X182570120Y-62708608D01*
X182062120Y-63289180D01*
X182279834Y-63289180D01*
X182424977Y-63361751D01*
X182497548Y-63434322D01*
X182570120Y-63579465D01*
X182570120Y-63942322D01*
X182497548Y-64087465D01*
X182424977Y-64160037D01*
X182279834Y-64232608D01*
X181844405Y-64232608D01*
X181699262Y-64160037D01*
X181626691Y-64087465D01*
X185255262Y-64087465D02*
X185182691Y-64160037D01*
X184964977Y-64232608D01*
X184819834Y-64232608D01*
X184602120Y-64160037D01*
X184456977Y-64014894D01*
X184384405Y-63869751D01*
X184311834Y-63579465D01*
X184311834Y-63361751D01*
X184384405Y-63071465D01*
X184456977Y-62926322D01*
X184602120Y-62781180D01*
X184819834Y-62708608D01*
X184964977Y-62708608D01*
X185182691Y-62781180D01*
X185255262Y-62853751D01*
X186126120Y-64232608D02*
X185980977Y-64160037D01*
X185908405Y-64014894D01*
X185908405Y-62708608D01*
X186924405Y-64232608D02*
X186779262Y-64160037D01*
X186706691Y-64087465D01*
X186634120Y-63942322D01*
X186634120Y-63506894D01*
X186706691Y-63361751D01*
X186779262Y-63289180D01*
X186924405Y-63216608D01*
X187142120Y-63216608D01*
X187287262Y-63289180D01*
X187359834Y-63361751D01*
X187432405Y-63506894D01*
X187432405Y-63942322D01*
X187359834Y-64087465D01*
X187287262Y-64160037D01*
X187142120Y-64232608D01*
X186924405Y-64232608D01*
X188085548Y-63216608D02*
X188085548Y-64232608D01*
X188085548Y-63361751D02*
X188158120Y-63289180D01*
X188303262Y-63216608D01*
X188520977Y-63216608D01*
X188666120Y-63289180D01*
X188738691Y-63434322D01*
X188738691Y-64232608D01*
X190044977Y-64160037D02*
X189899834Y-64232608D01*
X189609548Y-64232608D01*
X189464405Y-64160037D01*
X189391834Y-64014894D01*
X189391834Y-63434322D01*
X189464405Y-63289180D01*
X189609548Y-63216608D01*
X189899834Y-63216608D01*
X190044977Y-63289180D01*
X190117548Y-63434322D01*
X190117548Y-63579465D01*
X189391834Y-63724608D01*
X167184977Y-65887962D02*
X167402691Y-65960534D01*
X167475262Y-66033105D01*
X167547834Y-66178248D01*
X167547834Y-66395962D01*
X167475262Y-66541105D01*
X167402691Y-66613677D01*
X167257548Y-66686248D01*
X166676977Y-66686248D01*
X166676977Y-65162248D01*
X167184977Y-65162248D01*
X167330120Y-65234820D01*
X167402691Y-65307391D01*
X167475262Y-65452534D01*
X167475262Y-65597677D01*
X167402691Y-65742820D01*
X167330120Y-65815391D01*
X167184977Y-65887962D01*
X166676977Y-65887962D01*
X168055834Y-65670248D02*
X168418691Y-66686248D01*
X168781548Y-65670248D02*
X168418691Y-66686248D01*
X168273548Y-67049105D01*
X168200977Y-67121677D01*
X168055834Y-67194248D01*
X170450691Y-66613677D02*
X170668405Y-66686248D01*
X171031262Y-66686248D01*
X171176405Y-66613677D01*
X171248977Y-66541105D01*
X171321548Y-66395962D01*
X171321548Y-66250820D01*
X171248977Y-66105677D01*
X171176405Y-66033105D01*
X171031262Y-65960534D01*
X170740977Y-65887962D01*
X170595834Y-65815391D01*
X170523262Y-65742820D01*
X170450691Y-65597677D01*
X170450691Y-65452534D01*
X170523262Y-65307391D01*
X170595834Y-65234820D01*
X170740977Y-65162248D01*
X171103834Y-65162248D01*
X171321548Y-65234820D01*
X171974691Y-66686248D02*
X171974691Y-65162248D01*
X172627834Y-66686248D02*
X172627834Y-65887962D01*
X172555262Y-65742820D01*
X172410120Y-65670248D01*
X172192405Y-65670248D01*
X172047262Y-65742820D01*
X171974691Y-65815391D01*
X173934120Y-66613677D02*
X173788977Y-66686248D01*
X173498691Y-66686248D01*
X173353548Y-66613677D01*
X173280977Y-66468534D01*
X173280977Y-65887962D01*
X173353548Y-65742820D01*
X173498691Y-65670248D01*
X173788977Y-65670248D01*
X173934120Y-65742820D01*
X174006691Y-65887962D01*
X174006691Y-66033105D01*
X173280977Y-66178248D01*
X174877548Y-66686248D02*
X174732405Y-66613677D01*
X174659834Y-66468534D01*
X174659834Y-65162248D01*
X175458120Y-66686248D02*
X175458120Y-65162248D01*
X175458120Y-65742820D02*
X175603262Y-65670248D01*
X175893548Y-65670248D01*
X176038691Y-65742820D01*
X176111262Y-65815391D01*
X176183834Y-65960534D01*
X176183834Y-66395962D01*
X176111262Y-66541105D01*
X176038691Y-66613677D01*
X175893548Y-66686248D01*
X175603262Y-66686248D01*
X175458120Y-66613677D01*
X176691834Y-65670248D02*
X177054691Y-66686248D01*
X177417548Y-65670248D02*
X177054691Y-66686248D01*
X176909548Y-67049105D01*
X176836977Y-67121677D01*
X176691834Y-67194248D01*
X179594691Y-65162248D02*
X179594691Y-66250820D01*
X179522120Y-66468534D01*
X179376977Y-66613677D01*
X179159262Y-66686248D01*
X179014120Y-66686248D01*
X180973548Y-65670248D02*
X180973548Y-66686248D01*
X180320405Y-65670248D02*
X180320405Y-66468534D01*
X180392977Y-66613677D01*
X180538120Y-66686248D01*
X180755834Y-66686248D01*
X180900977Y-66613677D01*
X180973548Y-66541105D01*
X182279834Y-66613677D02*
X182134691Y-66686248D01*
X181844405Y-66686248D01*
X181699262Y-66613677D01*
X181626691Y-66468534D01*
X181626691Y-65887962D01*
X181699262Y-65742820D01*
X181844405Y-65670248D01*
X182134691Y-65670248D01*
X182279834Y-65742820D01*
X182352405Y-65887962D01*
X182352405Y-66033105D01*
X181626691Y-66178248D01*
X183658691Y-66686248D02*
X183658691Y-65162248D01*
X183658691Y-66613677D02*
X183513548Y-66686248D01*
X183223262Y-66686248D01*
X183078120Y-66613677D01*
X183005548Y-66541105D01*
X182932977Y-66395962D01*
X182932977Y-65960534D01*
X183005548Y-65815391D01*
X183078120Y-65742820D01*
X183223262Y-65670248D01*
X183513548Y-65670248D01*
X183658691Y-65742820D01*
X184964977Y-66613677D02*
X184819834Y-66686248D01*
X184529548Y-66686248D01*
X184384405Y-66613677D01*
X184311834Y-66468534D01*
X184311834Y-65887962D01*
X184384405Y-65742820D01*
X184529548Y-65670248D01*
X184819834Y-65670248D01*
X184964977Y-65742820D01*
X185037548Y-65887962D01*
X185037548Y-66033105D01*
X184311834Y-66178248D01*
X185690691Y-65670248D02*
X185690691Y-66686248D01*
X185690691Y-65815391D02*
X185763262Y-65742820D01*
X185908405Y-65670248D01*
X186126120Y-65670248D01*
X186271262Y-65742820D01*
X186343834Y-65887962D01*
X186343834Y-66686248D01*
X101491142Y-100257428D02*
X101491142Y-98733428D01*
X101491142Y-99459142D02*
X102362000Y-99459142D01*
X102362000Y-100257428D02*
X102362000Y-98733428D01*
X103668285Y-100184857D02*
X103523142Y-100257428D01*
X103232857Y-100257428D01*
X103087714Y-100184857D01*
X103015142Y-100039714D01*
X103015142Y-99459142D01*
X103087714Y-99314000D01*
X103232857Y-99241428D01*
X103523142Y-99241428D01*
X103668285Y-99314000D01*
X103740857Y-99459142D01*
X103740857Y-99604285D01*
X103015142Y-99749428D01*
X104611714Y-100257428D02*
X104466571Y-100184857D01*
X104394000Y-100039714D01*
X104394000Y-98733428D01*
X105772857Y-100184857D02*
X105627714Y-100257428D01*
X105337428Y-100257428D01*
X105192285Y-100184857D01*
X105119714Y-100039714D01*
X105119714Y-99459142D01*
X105192285Y-99314000D01*
X105337428Y-99241428D01*
X105627714Y-99241428D01*
X105772857Y-99314000D01*
X105845428Y-99459142D01*
X105845428Y-99604285D01*
X105119714Y-99749428D01*
X106498571Y-99241428D02*
X106498571Y-100257428D01*
X106498571Y-99386571D02*
X106571142Y-99314000D01*
X106716285Y-99241428D01*
X106934000Y-99241428D01*
X107079142Y-99314000D01*
X107151714Y-99459142D01*
X107151714Y-100257428D01*
X107514571Y-100402571D02*
X108675714Y-100402571D01*
X109909428Y-100112285D02*
X109836857Y-100184857D01*
X109619142Y-100257428D01*
X109474000Y-100257428D01*
X109256285Y-100184857D01*
X109111142Y-100039714D01*
X109038571Y-99894571D01*
X108966000Y-99604285D01*
X108966000Y-99386571D01*
X109038571Y-99096285D01*
X109111142Y-98951142D01*
X109256285Y-98806000D01*
X109474000Y-98733428D01*
X109619142Y-98733428D01*
X109836857Y-98806000D01*
X109909428Y-98878571D01*
X110562571Y-100257428D02*
X110562571Y-99241428D01*
X110562571Y-99531714D02*
X110635142Y-99386571D01*
X110707714Y-99314000D01*
X110852857Y-99241428D01*
X110998000Y-99241428D01*
X111723714Y-100257428D02*
X111578571Y-100184857D01*
X111506000Y-100112285D01*
X111433428Y-99967142D01*
X111433428Y-99531714D01*
X111506000Y-99386571D01*
X111578571Y-99314000D01*
X111723714Y-99241428D01*
X111941428Y-99241428D01*
X112086571Y-99314000D01*
X112159142Y-99386571D01*
X112231714Y-99531714D01*
X112231714Y-99967142D01*
X112159142Y-100112285D01*
X112086571Y-100184857D01*
X111941428Y-100257428D01*
X111723714Y-100257428D01*
X112667142Y-99241428D02*
X113247714Y-99241428D01*
X112884857Y-100257428D02*
X112884857Y-98951142D01*
X112957428Y-98806000D01*
X113102571Y-98733428D01*
X113247714Y-98733428D01*
X113538000Y-99241428D02*
X114118571Y-99241428D01*
X113755714Y-98733428D02*
X113755714Y-100039714D01*
X113828285Y-100184857D01*
X113973428Y-100257428D01*
X114118571Y-100257428D01*
D11*
X77247714Y-92671809D02*
X76676285Y-92671809D01*
X76962000Y-92671809D02*
X76962000Y-91071809D01*
X76866761Y-91300380D01*
X76771523Y-91452761D01*
X76676285Y-91528952D01*
X105368809Y-112285285D02*
X105368809Y-111604333D01*
X105978333Y-111971000D01*
X105978333Y-111813857D01*
X106054523Y-111709095D01*
X106130714Y-111656714D01*
X106283095Y-111604333D01*
X106664047Y-111604333D01*
X106816428Y-111656714D01*
X106892619Y-111709095D01*
X106968809Y-111813857D01*
X106968809Y-112128142D01*
X106892619Y-112232904D01*
X106816428Y-112285285D01*
X105368809Y-110923380D02*
X105368809Y-110818619D01*
X105445000Y-110713857D01*
X105521190Y-110661476D01*
X105673571Y-110609095D01*
X105978333Y-110556714D01*
X106359285Y-110556714D01*
X106664047Y-110609095D01*
X106816428Y-110661476D01*
X106892619Y-110713857D01*
X106968809Y-110818619D01*
X106968809Y-110923380D01*
X106892619Y-111028142D01*
X106816428Y-111080523D01*
X106664047Y-111132904D01*
X106359285Y-111185285D01*
X105978333Y-111185285D01*
X105673571Y-111132904D01*
X105521190Y-111080523D01*
X105445000Y-111028142D01*
X105368809Y-110923380D01*
X105368809Y-109875761D02*
X105368809Y-109771000D01*
X105445000Y-109666238D01*
X105521190Y-109613857D01*
X105673571Y-109561476D01*
X105978333Y-109509095D01*
X106359285Y-109509095D01*
X106664047Y-109561476D01*
X106816428Y-109613857D01*
X106892619Y-109666238D01*
X106968809Y-109771000D01*
X106968809Y-109875761D01*
X106892619Y-109980523D01*
X106816428Y-110032904D01*
X106664047Y-110085285D01*
X106359285Y-110137666D01*
X105978333Y-110137666D01*
X105673571Y-110085285D01*
X105521190Y-110032904D01*
X105445000Y-109980523D01*
X105368809Y-109875761D01*
X107944809Y-112285285D02*
X107944809Y-111604333D01*
X108554333Y-111971000D01*
X108554333Y-111813857D01*
X108630523Y-111709095D01*
X108706714Y-111656714D01*
X108859095Y-111604333D01*
X109240047Y-111604333D01*
X109392428Y-111656714D01*
X109468619Y-111709095D01*
X109544809Y-111813857D01*
X109544809Y-112128142D01*
X109468619Y-112232904D01*
X109392428Y-112285285D01*
X109544809Y-110556714D02*
X109544809Y-111185285D01*
X109544809Y-110871000D02*
X107944809Y-110871000D01*
X108173380Y-110975761D01*
X108325761Y-111080523D01*
X108401952Y-111185285D01*
X107944809Y-109875761D02*
X107944809Y-109771000D01*
X108021000Y-109666238D01*
X108097190Y-109613857D01*
X108249571Y-109561476D01*
X108554333Y-109509095D01*
X108935285Y-109509095D01*
X109240047Y-109561476D01*
X109392428Y-109613857D01*
X109468619Y-109666238D01*
X109544809Y-109771000D01*
X109544809Y-109875761D01*
X109468619Y-109980523D01*
X109392428Y-110032904D01*
X109240047Y-110085285D01*
X108935285Y-110137666D01*
X108554333Y-110137666D01*
X108249571Y-110085285D01*
X108097190Y-110032904D01*
X108021000Y-109980523D01*
X107944809Y-109875761D01*
X110520809Y-112285285D02*
X110520809Y-111604333D01*
X111130333Y-111971000D01*
X111130333Y-111813857D01*
X111206523Y-111709095D01*
X111282714Y-111656714D01*
X111435095Y-111604333D01*
X111816047Y-111604333D01*
X111968428Y-111656714D01*
X112044619Y-111709095D01*
X112120809Y-111813857D01*
X112120809Y-112128142D01*
X112044619Y-112232904D01*
X111968428Y-112285285D01*
X110520809Y-111237666D02*
X110520809Y-110556714D01*
X111130333Y-110923380D01*
X111130333Y-110766238D01*
X111206523Y-110661476D01*
X111282714Y-110609095D01*
X111435095Y-110556714D01*
X111816047Y-110556714D01*
X111968428Y-110609095D01*
X112044619Y-110661476D01*
X112120809Y-110766238D01*
X112120809Y-111080523D01*
X112044619Y-111185285D01*
X111968428Y-111237666D01*
X110520809Y-109875761D02*
X110520809Y-109771000D01*
X110597000Y-109666238D01*
X110673190Y-109613857D01*
X110825571Y-109561476D01*
X111130333Y-109509095D01*
X111511285Y-109509095D01*
X111816047Y-109561476D01*
X111968428Y-109613857D01*
X112044619Y-109666238D01*
X112120809Y-109771000D01*
X112120809Y-109875761D01*
X112044619Y-109980523D01*
X111968428Y-110032904D01*
X111816047Y-110085285D01*
X111511285Y-110137666D01*
X111130333Y-110137666D01*
X110825571Y-110085285D01*
X110673190Y-110032904D01*
X110597000Y-109980523D01*
X110520809Y-109875761D01*
X113096809Y-112285285D02*
X113096809Y-111604333D01*
X113706333Y-111971000D01*
X113706333Y-111813857D01*
X113782523Y-111709095D01*
X113858714Y-111656714D01*
X114011095Y-111604333D01*
X114392047Y-111604333D01*
X114544428Y-111656714D01*
X114620619Y-111709095D01*
X114696809Y-111813857D01*
X114696809Y-112128142D01*
X114620619Y-112232904D01*
X114544428Y-112285285D01*
X113630142Y-110661476D02*
X114696809Y-110661476D01*
X113020619Y-110923380D02*
X114163476Y-111185285D01*
X114163476Y-110504333D01*
X113096809Y-109875761D02*
X113096809Y-109771000D01*
X113173000Y-109666238D01*
X113249190Y-109613857D01*
X113401571Y-109561476D01*
X113706333Y-109509095D01*
X114087285Y-109509095D01*
X114392047Y-109561476D01*
X114544428Y-109613857D01*
X114620619Y-109666238D01*
X114696809Y-109771000D01*
X114696809Y-109875761D01*
X114620619Y-109980523D01*
X114544428Y-110032904D01*
X114392047Y-110085285D01*
X114087285Y-110137666D01*
X113706333Y-110137666D01*
X113401571Y-110085285D01*
X113249190Y-110032904D01*
X113173000Y-109980523D01*
X113096809Y-109875761D01*
X77374714Y-123024809D02*
X76803285Y-123024809D01*
X77089000Y-123024809D02*
X77089000Y-121424809D01*
X76993761Y-121653380D01*
X76898523Y-121805761D01*
X76803285Y-121881952D01*
X157948476Y-140204000D02*
X158472285Y-140204000D01*
X157843714Y-140632571D02*
X158210380Y-139132571D01*
X158577047Y-140632571D01*
X159519904Y-140632571D02*
X158891333Y-140632571D01*
X159205619Y-140632571D02*
X159205619Y-139132571D01*
X159100857Y-139346857D01*
X158996095Y-139489714D01*
X158891333Y-139561142D01*
X160567523Y-140632571D02*
X159938952Y-140632571D01*
X160253238Y-140632571D02*
X160253238Y-139132571D01*
X160148476Y-139346857D01*
X160043714Y-139489714D01*
X159938952Y-139561142D01*
X123221714Y-123024809D02*
X122650285Y-123024809D01*
X122936000Y-123024809D02*
X122936000Y-121424809D01*
X122840761Y-121653380D01*
X122745523Y-121805761D01*
X122650285Y-121881952D01*
X156768904Y-56172190D02*
X156821285Y-56096000D01*
X156926047Y-56019809D01*
X157187952Y-56019809D01*
X157292714Y-56096000D01*
X157345095Y-56172190D01*
X157397476Y-56324571D01*
X157397476Y-56476952D01*
X157345095Y-56705523D01*
X156716523Y-57619809D01*
X157397476Y-57619809D01*
X158026047Y-56705523D02*
X157921285Y-56629333D01*
X157868904Y-56553142D01*
X157816523Y-56400761D01*
X157816523Y-56324571D01*
X157868904Y-56172190D01*
X157921285Y-56096000D01*
X158026047Y-56019809D01*
X158235571Y-56019809D01*
X158340333Y-56096000D01*
X158392714Y-56172190D01*
X158445095Y-56324571D01*
X158445095Y-56400761D01*
X158392714Y-56553142D01*
X158340333Y-56629333D01*
X158235571Y-56705523D01*
X158026047Y-56705523D01*
X157921285Y-56781714D01*
X157868904Y-56857904D01*
X157816523Y-57010285D01*
X157816523Y-57315047D01*
X157868904Y-57467428D01*
X157921285Y-57543619D01*
X158026047Y-57619809D01*
X158235571Y-57619809D01*
X158340333Y-57543619D01*
X158392714Y-57467428D01*
X158445095Y-57315047D01*
X158445095Y-57010285D01*
X158392714Y-56857904D01*
X158340333Y-56781714D01*
X158235571Y-56705523D01*
X123864857Y-85779428D02*
X124174380Y-87303428D01*
X124422000Y-86214857D01*
X124669619Y-87303428D01*
X124979142Y-85779428D01*
X125474380Y-87303428D02*
X125474380Y-86287428D01*
X125474380Y-85779428D02*
X125412476Y-85852000D01*
X125474380Y-85924571D01*
X125536285Y-85852000D01*
X125474380Y-85779428D01*
X125474380Y-85924571D01*
X125907714Y-86287428D02*
X126402952Y-86287428D01*
X126093428Y-85779428D02*
X126093428Y-87085714D01*
X126155333Y-87230857D01*
X126279142Y-87303428D01*
X126402952Y-87303428D01*
X126836285Y-87303428D02*
X126836285Y-85779428D01*
X127393428Y-87303428D02*
X127393428Y-86505142D01*
X127331523Y-86360000D01*
X127207714Y-86287428D01*
X127022000Y-86287428D01*
X126898190Y-86360000D01*
X126836285Y-86432571D01*
X129002952Y-87303428D02*
X129002952Y-85779428D01*
X129002952Y-86505142D02*
X129745809Y-86505142D01*
X129745809Y-87303428D02*
X129745809Y-85779428D01*
X130860095Y-87230857D02*
X130736285Y-87303428D01*
X130488666Y-87303428D01*
X130364857Y-87230857D01*
X130302952Y-87085714D01*
X130302952Y-86505142D01*
X130364857Y-86360000D01*
X130488666Y-86287428D01*
X130736285Y-86287428D01*
X130860095Y-86360000D01*
X130922000Y-86505142D01*
X130922000Y-86650285D01*
X130302952Y-86795428D01*
X131664857Y-87303428D02*
X131541047Y-87230857D01*
X131479142Y-87085714D01*
X131479142Y-85779428D01*
X132160095Y-86287428D02*
X132160095Y-87811428D01*
X132160095Y-86360000D02*
X132283904Y-86287428D01*
X132531523Y-86287428D01*
X132655333Y-86360000D01*
X132717238Y-86432571D01*
X132779142Y-86577714D01*
X132779142Y-87013142D01*
X132717238Y-87158285D01*
X132655333Y-87230857D01*
X132531523Y-87303428D01*
X132283904Y-87303428D01*
X132160095Y-87230857D01*
X134760095Y-86505142D02*
X134326761Y-86505142D01*
X134326761Y-87303428D02*
X134326761Y-85779428D01*
X134945809Y-85779428D01*
X135441047Y-87303428D02*
X135441047Y-86287428D01*
X135441047Y-86577714D02*
X135502952Y-86432571D01*
X135564857Y-86360000D01*
X135688666Y-86287428D01*
X135812476Y-86287428D01*
X136431523Y-87303428D02*
X136307714Y-87230857D01*
X136245809Y-87158285D01*
X136183904Y-87013142D01*
X136183904Y-86577714D01*
X136245809Y-86432571D01*
X136307714Y-86360000D01*
X136431523Y-86287428D01*
X136617238Y-86287428D01*
X136741047Y-86360000D01*
X136802952Y-86432571D01*
X136864857Y-86577714D01*
X136864857Y-87013142D01*
X136802952Y-87158285D01*
X136741047Y-87230857D01*
X136617238Y-87303428D01*
X136431523Y-87303428D01*
X137422000Y-87303428D02*
X137422000Y-86287428D01*
X137422000Y-86432571D02*
X137483904Y-86360000D01*
X137607714Y-86287428D01*
X137793428Y-86287428D01*
X137917238Y-86360000D01*
X137979142Y-86505142D01*
X137979142Y-87303428D01*
X137979142Y-86505142D02*
X138041047Y-86360000D01*
X138164857Y-86287428D01*
X138350571Y-86287428D01*
X138474380Y-86360000D01*
X138536285Y-86505142D01*
X138536285Y-87303428D01*
X139155333Y-87158285D02*
X139217238Y-87230857D01*
X139155333Y-87303428D01*
X139093428Y-87230857D01*
X139155333Y-87158285D01*
X139155333Y-87303428D01*
X139155333Y-86360000D02*
X139217238Y-86432571D01*
X139155333Y-86505142D01*
X139093428Y-86432571D01*
X139155333Y-86360000D01*
X139155333Y-86505142D01*
D12*
X126346857Y-100257428D02*
X126346857Y-98733428D01*
X126854857Y-99822000D01*
X127362857Y-98733428D01*
X127362857Y-100257428D01*
X128741714Y-100257428D02*
X128741714Y-99459142D01*
X128669142Y-99314000D01*
X128524000Y-99241428D01*
X128233714Y-99241428D01*
X128088571Y-99314000D01*
X128741714Y-100184857D02*
X128596571Y-100257428D01*
X128233714Y-100257428D01*
X128088571Y-100184857D01*
X128016000Y-100039714D01*
X128016000Y-99894571D01*
X128088571Y-99749428D01*
X128233714Y-99676857D01*
X128596571Y-99676857D01*
X128741714Y-99604285D01*
X129467428Y-99241428D02*
X129467428Y-100547714D01*
X129394857Y-100692857D01*
X129249714Y-100765428D01*
X129177142Y-100765428D01*
X129467428Y-98733428D02*
X129394857Y-98806000D01*
X129467428Y-98878571D01*
X129540000Y-98806000D01*
X129467428Y-98733428D01*
X129467428Y-98878571D01*
X130773714Y-100184857D02*
X130628571Y-100257428D01*
X130338285Y-100257428D01*
X130193142Y-100184857D01*
X130120571Y-100039714D01*
X130120571Y-99459142D01*
X130193142Y-99314000D01*
X130338285Y-99241428D01*
X130628571Y-99241428D01*
X130773714Y-99314000D01*
X130846285Y-99459142D01*
X130846285Y-99604285D01*
X130120571Y-99749428D01*
X131499428Y-99241428D02*
X131499428Y-100257428D01*
X131499428Y-99386571D02*
X131572000Y-99314000D01*
X131717142Y-99241428D01*
X131934857Y-99241428D01*
X132080000Y-99314000D01*
X132152571Y-99459142D01*
X132152571Y-100257428D01*
X132878285Y-100257428D02*
X132878285Y-98733428D01*
X133023428Y-99676857D02*
X133458857Y-100257428D01*
X133458857Y-99241428D02*
X132878285Y-99822000D01*
X134329714Y-100257428D02*
X134184571Y-100184857D01*
X134112000Y-100112285D01*
X134039428Y-99967142D01*
X134039428Y-99531714D01*
X134112000Y-99386571D01*
X134184571Y-99314000D01*
X134329714Y-99241428D01*
X134547428Y-99241428D01*
X134692571Y-99314000D01*
X134765142Y-99386571D01*
X134837714Y-99531714D01*
X134837714Y-99967142D01*
X134765142Y-100112285D01*
X134692571Y-100184857D01*
X134547428Y-100257428D01*
X134329714Y-100257428D01*
D11*
X180914238Y-93936428D02*
X180966619Y-93865000D01*
X181071380Y-93793571D01*
X181333285Y-93793571D01*
X181438047Y-93865000D01*
X181490428Y-93936428D01*
X181542809Y-94079285D01*
X181542809Y-94222142D01*
X181490428Y-94436428D01*
X180861857Y-95293571D01*
X181542809Y-95293571D01*
X182485666Y-93793571D02*
X182276142Y-93793571D01*
X182171380Y-93865000D01*
X182119000Y-93936428D01*
X182014238Y-94150714D01*
X181961857Y-94436428D01*
X181961857Y-95007857D01*
X182014238Y-95150714D01*
X182066619Y-95222142D01*
X182171380Y-95293571D01*
X182380904Y-95293571D01*
X182485666Y-95222142D01*
X182538047Y-95150714D01*
X182590428Y-95007857D01*
X182590428Y-94650714D01*
X182538047Y-94507857D01*
X182485666Y-94436428D01*
X182380904Y-94365000D01*
X182171380Y-94365000D01*
X182066619Y-94436428D01*
X182014238Y-94507857D01*
X181961857Y-94650714D01*
X183585666Y-95293571D02*
X183061857Y-95293571D01*
X183061857Y-93793571D01*
X183899952Y-95222142D02*
X184057095Y-95293571D01*
X184319000Y-95293571D01*
X184423761Y-95222142D01*
X184476142Y-95150714D01*
X184528523Y-95007857D01*
X184528523Y-94865000D01*
X184476142Y-94722142D01*
X184423761Y-94650714D01*
X184319000Y-94579285D01*
X184109476Y-94507857D01*
X184004714Y-94436428D01*
X183952333Y-94365000D01*
X183899952Y-94222142D01*
X183899952Y-94079285D01*
X183952333Y-93936428D01*
X184004714Y-93865000D01*
X184109476Y-93793571D01*
X184371380Y-93793571D01*
X184528523Y-93865000D01*
X184895190Y-93793571D02*
X185576142Y-93793571D01*
X185209476Y-94365000D01*
X185366619Y-94365000D01*
X185471380Y-94436428D01*
X185523761Y-94507857D01*
X185576142Y-94650714D01*
X185576142Y-95007857D01*
X185523761Y-95150714D01*
X185471380Y-95222142D01*
X185366619Y-95293571D01*
X185052333Y-95293571D01*
X184947571Y-95222142D01*
X184895190Y-95150714D01*
X185995190Y-93936428D02*
X186047571Y-93865000D01*
X186152333Y-93793571D01*
X186414238Y-93793571D01*
X186519000Y-93865000D01*
X186571380Y-93936428D01*
X186623761Y-94079285D01*
X186623761Y-94222142D01*
X186571380Y-94436428D01*
X185942809Y-95293571D01*
X186623761Y-95293571D01*
X77247714Y-73367809D02*
X76676285Y-73367809D01*
X76962000Y-73367809D02*
X76962000Y-71767809D01*
X76866761Y-71996380D01*
X76771523Y-72148761D01*
X76676285Y-72224952D01*
X191052476Y-77431809D02*
X190423904Y-77431809D01*
X190738190Y-77431809D02*
X190738190Y-75831809D01*
X190633428Y-76060380D01*
X190528666Y-76212761D01*
X190423904Y-76288952D01*
X191995333Y-76365142D02*
X191995333Y-77431809D01*
X191733428Y-75755619D02*
X191471523Y-76898476D01*
X192152476Y-76898476D01*
X121443714Y-73621809D02*
X120872285Y-73621809D01*
X121158000Y-73621809D02*
X121158000Y-72021809D01*
X121062761Y-72250380D01*
X120967523Y-72402761D01*
X120872285Y-72478952D01*
X148650285Y-122852571D02*
X148021714Y-122852571D01*
X148336000Y-122852571D02*
X148336000Y-121352571D01*
X148231238Y-121566857D01*
X148126476Y-121709714D01*
X148021714Y-121781142D01*
X163044285Y-140204000D02*
X163568095Y-140204000D01*
X162939523Y-140632571D02*
X163306190Y-139132571D01*
X163672857Y-140632571D01*
X164091904Y-140632571D02*
X164301428Y-140632571D01*
X164406190Y-140561142D01*
X164458571Y-140489714D01*
X164563333Y-140275428D01*
X164615714Y-139989714D01*
X164615714Y-139418285D01*
X164563333Y-139275428D01*
X164510952Y-139204000D01*
X164406190Y-139132571D01*
X164196666Y-139132571D01*
X164091904Y-139204000D01*
X164039523Y-139275428D01*
X163987142Y-139418285D01*
X163987142Y-139775428D01*
X164039523Y-139918285D01*
X164091904Y-139989714D01*
X164196666Y-140061142D01*
X164406190Y-140061142D01*
X164510952Y-139989714D01*
X164563333Y-139918285D01*
X164615714Y-139775428D01*
X102774714Y-138264809D02*
X102203285Y-138264809D01*
X102489000Y-138264809D02*
X102489000Y-136664809D01*
X102393761Y-136893380D01*
X102298523Y-137045761D01*
X102203285Y-137121952D01*
X148361476Y-58407285D02*
X149580523Y-58407285D01*
X148971000Y-59016809D02*
X148971000Y-57797761D01*
X148361476Y-69322142D02*
X149580523Y-69322142D01*
X100361714Y-92671809D02*
X99790285Y-92671809D01*
X100076000Y-92671809D02*
X100076000Y-91071809D01*
X99980761Y-91300380D01*
X99885523Y-91452761D01*
X99790285Y-91528952D01*
X102830476Y-140204000D02*
X103354285Y-140204000D01*
X102725714Y-140632571D02*
X103092380Y-139132571D01*
X103459047Y-140632571D01*
X103720952Y-139132571D02*
X104401904Y-139132571D01*
X104035238Y-139704000D01*
X104192380Y-139704000D01*
X104297142Y-139775428D01*
X104349523Y-139846857D01*
X104401904Y-139989714D01*
X104401904Y-140346857D01*
X104349523Y-140489714D01*
X104297142Y-140561142D01*
X104192380Y-140632571D01*
X103878095Y-140632571D01*
X103773333Y-140561142D01*
X103720952Y-140489714D01*
X105449523Y-140632571D02*
X104820952Y-140632571D01*
X105135238Y-140632571D02*
X105135238Y-139132571D01*
X105030476Y-139346857D01*
X104925714Y-139489714D01*
X104820952Y-139561142D01*
X158019714Y-77558809D02*
X157448285Y-77558809D01*
X157734000Y-77558809D02*
X157734000Y-75958809D01*
X157638761Y-76187380D01*
X157543523Y-76339761D01*
X157448285Y-76415952D01*
X123094714Y-107784809D02*
X122523285Y-107784809D01*
X122809000Y-107784809D02*
X122809000Y-106184809D01*
X122713761Y-106413380D01*
X122618523Y-106565761D01*
X122523285Y-106641952D01*
X77365285Y-79819428D02*
X77312904Y-79895619D01*
X77155761Y-79971809D01*
X77051000Y-79971809D01*
X76893857Y-79895619D01*
X76789095Y-79743238D01*
X76736714Y-79590857D01*
X76684333Y-79286095D01*
X76684333Y-79057523D01*
X76736714Y-78752761D01*
X76789095Y-78600380D01*
X76893857Y-78448000D01*
X77051000Y-78371809D01*
X77155761Y-78371809D01*
X77312904Y-78448000D01*
X77365285Y-78524190D01*
X78046238Y-78371809D02*
X78255761Y-78371809D01*
X78360523Y-78448000D01*
X78465285Y-78600380D01*
X78517666Y-78905142D01*
X78517666Y-79438476D01*
X78465285Y-79743238D01*
X78360523Y-79895619D01*
X78255761Y-79971809D01*
X78046238Y-79971809D01*
X77941476Y-79895619D01*
X77836714Y-79743238D01*
X77784333Y-79438476D01*
X77784333Y-78905142D01*
X77836714Y-78600380D01*
X77941476Y-78448000D01*
X78046238Y-78371809D01*
X78989095Y-79971809D02*
X78989095Y-78371809D01*
X79617666Y-79971809D01*
X79617666Y-78371809D01*
X79984333Y-78371809D02*
X80612904Y-78371809D01*
X80298619Y-79971809D02*
X80298619Y-78371809D01*
X81608142Y-79971809D02*
X81241476Y-79209904D01*
X80979571Y-79971809D02*
X80979571Y-78371809D01*
X81398619Y-78371809D01*
X81503380Y-78448000D01*
X81555761Y-78524190D01*
X81608142Y-78676571D01*
X81608142Y-78905142D01*
X81555761Y-79057523D01*
X81503380Y-79133714D01*
X81398619Y-79209904D01*
X80979571Y-79209904D01*
X82289095Y-78371809D02*
X82498619Y-78371809D01*
X82603380Y-78448000D01*
X82708142Y-78600380D01*
X82760523Y-78905142D01*
X82760523Y-79438476D01*
X82708142Y-79743238D01*
X82603380Y-79895619D01*
X82498619Y-79971809D01*
X82289095Y-79971809D01*
X82184333Y-79895619D01*
X82079571Y-79743238D01*
X82027190Y-79438476D01*
X82027190Y-78905142D01*
X82079571Y-78600380D01*
X82184333Y-78448000D01*
X82289095Y-78371809D01*
X83755761Y-79971809D02*
X83231952Y-79971809D01*
X83231952Y-78371809D01*
X84646238Y-79971809D02*
X84122428Y-79971809D01*
X84122428Y-78371809D01*
X85012904Y-79133714D02*
X85379571Y-79133714D01*
X85536714Y-79971809D02*
X85012904Y-79971809D01*
X85012904Y-78371809D01*
X85536714Y-78371809D01*
X86636714Y-79971809D02*
X86270047Y-79209904D01*
X86008142Y-79971809D02*
X86008142Y-78371809D01*
X86427190Y-78371809D01*
X86531952Y-78448000D01*
X86584333Y-78524190D01*
X86636714Y-78676571D01*
X86636714Y-78905142D01*
X86584333Y-79057523D01*
X86531952Y-79133714D01*
X86427190Y-79209904D01*
X86008142Y-79209904D01*
X88574809Y-79819428D02*
X88522428Y-79895619D01*
X88365285Y-79971809D01*
X88260523Y-79971809D01*
X88103380Y-79895619D01*
X87998619Y-79743238D01*
X87946238Y-79590857D01*
X87893857Y-79286095D01*
X87893857Y-79057523D01*
X87946238Y-78752761D01*
X87998619Y-78600380D01*
X88103380Y-78448000D01*
X88260523Y-78371809D01*
X88365285Y-78371809D01*
X88522428Y-78448000D01*
X88574809Y-78524190D01*
X88993857Y-79514666D02*
X89517666Y-79514666D01*
X88889095Y-79971809D02*
X89255761Y-78371809D01*
X89622428Y-79971809D01*
X90617666Y-79971809D02*
X90251000Y-79209904D01*
X89989095Y-79971809D02*
X89989095Y-78371809D01*
X90408142Y-78371809D01*
X90512904Y-78448000D01*
X90565285Y-78524190D01*
X90617666Y-78676571D01*
X90617666Y-78905142D01*
X90565285Y-79057523D01*
X90512904Y-79133714D01*
X90408142Y-79209904D01*
X89989095Y-79209904D01*
X91089095Y-79971809D02*
X91089095Y-78371809D01*
X91351000Y-78371809D01*
X91508142Y-78448000D01*
X91612904Y-78600380D01*
X91665285Y-78752761D01*
X91717666Y-79057523D01*
X91717666Y-79286095D01*
X91665285Y-79590857D01*
X91612904Y-79743238D01*
X91508142Y-79895619D01*
X91351000Y-79971809D01*
X91089095Y-79971809D01*
X130262476Y-140204000D02*
X130786285Y-140204000D01*
X130157714Y-140632571D02*
X130524380Y-139132571D01*
X130891047Y-140632571D01*
X131205333Y-139275428D02*
X131257714Y-139204000D01*
X131362476Y-139132571D01*
X131624380Y-139132571D01*
X131729142Y-139204000D01*
X131781523Y-139275428D01*
X131833904Y-139418285D01*
X131833904Y-139561142D01*
X131781523Y-139775428D01*
X131152952Y-140632571D01*
X131833904Y-140632571D01*
X132252952Y-139275428D02*
X132305333Y-139204000D01*
X132410095Y-139132571D01*
X132672000Y-139132571D01*
X132776761Y-139204000D01*
X132829142Y-139275428D01*
X132881523Y-139418285D01*
X132881523Y-139561142D01*
X132829142Y-139775428D01*
X132200571Y-140632571D01*
X132881523Y-140632571D01*
X105381857Y-122694666D02*
X105905666Y-122694666D01*
X105277095Y-123151809D02*
X105643761Y-121551809D01*
X106010428Y-123151809D01*
X106377095Y-123151809D02*
X106377095Y-121551809D01*
X106639000Y-121551809D01*
X106796142Y-121628000D01*
X106900904Y-121780380D01*
X106953285Y-121932761D01*
X107005666Y-122237523D01*
X107005666Y-122466095D01*
X106953285Y-122770857D01*
X106900904Y-122923238D01*
X106796142Y-123075619D01*
X106639000Y-123151809D01*
X106377095Y-123151809D01*
X107477095Y-123151809D02*
X107477095Y-121551809D01*
X107739000Y-121551809D01*
X107896142Y-121628000D01*
X108000904Y-121780380D01*
X108053285Y-121932761D01*
X108105666Y-122237523D01*
X108105666Y-122466095D01*
X108053285Y-122770857D01*
X108000904Y-122923238D01*
X107896142Y-123075619D01*
X107739000Y-123151809D01*
X107477095Y-123151809D01*
X109205666Y-123151809D02*
X108839000Y-122389904D01*
X108577095Y-123151809D02*
X108577095Y-121551809D01*
X108996142Y-121551809D01*
X109100904Y-121628000D01*
X109153285Y-121704190D01*
X109205666Y-121856571D01*
X109205666Y-122085142D01*
X109153285Y-122237523D01*
X109100904Y-122313714D01*
X108996142Y-122389904D01*
X108577095Y-122389904D01*
X109677095Y-122313714D02*
X110043761Y-122313714D01*
X110200904Y-123151809D02*
X109677095Y-123151809D01*
X109677095Y-121551809D01*
X110200904Y-121551809D01*
X110619952Y-123075619D02*
X110777095Y-123151809D01*
X111039000Y-123151809D01*
X111143761Y-123075619D01*
X111196142Y-122999428D01*
X111248523Y-122847047D01*
X111248523Y-122694666D01*
X111196142Y-122542285D01*
X111143761Y-122466095D01*
X111039000Y-122389904D01*
X110829476Y-122313714D01*
X110724714Y-122237523D01*
X110672333Y-122161333D01*
X110619952Y-122008952D01*
X110619952Y-121856571D01*
X110672333Y-121704190D01*
X110724714Y-121628000D01*
X110829476Y-121551809D01*
X111091380Y-121551809D01*
X111248523Y-121628000D01*
X111667571Y-123075619D02*
X111824714Y-123151809D01*
X112086619Y-123151809D01*
X112191380Y-123075619D01*
X112243761Y-122999428D01*
X112296142Y-122847047D01*
X112296142Y-122694666D01*
X112243761Y-122542285D01*
X112191380Y-122466095D01*
X112086619Y-122389904D01*
X111877095Y-122313714D01*
X111772333Y-122237523D01*
X111719952Y-122161333D01*
X111667571Y-122008952D01*
X111667571Y-121856571D01*
X111719952Y-121704190D01*
X111772333Y-121628000D01*
X111877095Y-121551809D01*
X112139000Y-121551809D01*
X112296142Y-121628000D01*
X100234714Y-107784809D02*
X99663285Y-107784809D01*
X99949000Y-107784809D02*
X99949000Y-106184809D01*
X99853761Y-106413380D01*
X99758523Y-106565761D01*
X99663285Y-106641952D01*
D14*
X159348285Y-70347619D02*
X159348285Y-69247619D01*
X159734000Y-70347619D02*
X159734000Y-69771428D01*
X159691142Y-69666666D01*
X159605428Y-69614285D01*
X159476857Y-69614285D01*
X159391142Y-69666666D01*
X159348285Y-69719047D01*
X160034000Y-69614285D02*
X160376857Y-69614285D01*
X160162571Y-69247619D02*
X160162571Y-70190476D01*
X160205428Y-70295238D01*
X160291142Y-70347619D01*
X160376857Y-70347619D01*
X160548285Y-69614285D02*
X160891142Y-69614285D01*
X160676857Y-69247619D02*
X160676857Y-70190476D01*
X160719714Y-70295238D01*
X160805428Y-70347619D01*
X160891142Y-70347619D01*
X161191142Y-69614285D02*
X161191142Y-70714285D01*
X161191142Y-69666666D02*
X161276857Y-69614285D01*
X161448285Y-69614285D01*
X161534000Y-69666666D01*
X161576857Y-69719047D01*
X161619714Y-69823809D01*
X161619714Y-70138095D01*
X161576857Y-70242857D01*
X161534000Y-70295238D01*
X161448285Y-70347619D01*
X161276857Y-70347619D01*
X161191142Y-70295238D01*
X161962571Y-70295238D02*
X162048285Y-70347619D01*
X162219714Y-70347619D01*
X162305428Y-70295238D01*
X162348285Y-70190476D01*
X162348285Y-70138095D01*
X162305428Y-70033333D01*
X162219714Y-69980952D01*
X162091142Y-69980952D01*
X162005428Y-69928571D01*
X161962571Y-69823809D01*
X161962571Y-69771428D01*
X162005428Y-69666666D01*
X162091142Y-69614285D01*
X162219714Y-69614285D01*
X162305428Y-69666666D01*
X162734000Y-70242857D02*
X162776857Y-70295238D01*
X162734000Y-70347619D01*
X162691142Y-70295238D01*
X162734000Y-70242857D01*
X162734000Y-70347619D01*
X162734000Y-69666666D02*
X162776857Y-69719047D01*
X162734000Y-69771428D01*
X162691142Y-69719047D01*
X162734000Y-69666666D01*
X162734000Y-69771428D01*
X163805428Y-69195238D02*
X163034000Y-70609523D01*
X164748285Y-69195238D02*
X163976857Y-70609523D01*
X165434000Y-69614285D02*
X165434000Y-70504761D01*
X165391142Y-70609523D01*
X165348285Y-70661904D01*
X165262571Y-70714285D01*
X165134000Y-70714285D01*
X165048285Y-70661904D01*
X165434000Y-70295238D02*
X165348285Y-70347619D01*
X165176857Y-70347619D01*
X165091142Y-70295238D01*
X165048285Y-70242857D01*
X165005428Y-70138095D01*
X165005428Y-69823809D01*
X165048285Y-69719047D01*
X165091142Y-69666666D01*
X165176857Y-69614285D01*
X165348285Y-69614285D01*
X165434000Y-69666666D01*
X165862571Y-70347619D02*
X165862571Y-69614285D01*
X165862571Y-69247619D02*
X165819714Y-69300000D01*
X165862571Y-69352380D01*
X165905428Y-69300000D01*
X165862571Y-69247619D01*
X165862571Y-69352380D01*
X166162571Y-69614285D02*
X166505428Y-69614285D01*
X166291142Y-69247619D02*
X166291142Y-70190476D01*
X166334000Y-70295238D01*
X166419714Y-70347619D01*
X166505428Y-70347619D01*
X166805428Y-70347619D02*
X166805428Y-69247619D01*
X167191142Y-70347619D02*
X167191142Y-69771428D01*
X167148285Y-69666666D01*
X167062571Y-69614285D01*
X166934000Y-69614285D01*
X166848285Y-69666666D01*
X166805428Y-69719047D01*
X168005428Y-69614285D02*
X168005428Y-70347619D01*
X167619714Y-69614285D02*
X167619714Y-70190476D01*
X167662571Y-70295238D01*
X167748285Y-70347619D01*
X167876857Y-70347619D01*
X167962571Y-70295238D01*
X168005428Y-70242857D01*
X168434000Y-70347619D02*
X168434000Y-69247619D01*
X168434000Y-69666666D02*
X168519714Y-69614285D01*
X168691142Y-69614285D01*
X168776857Y-69666666D01*
X168819714Y-69719047D01*
X168862571Y-69823809D01*
X168862571Y-70138095D01*
X168819714Y-70242857D01*
X168776857Y-70295238D01*
X168691142Y-70347619D01*
X168519714Y-70347619D01*
X168434000Y-70295238D01*
X169248285Y-70242857D02*
X169291142Y-70295238D01*
X169248285Y-70347619D01*
X169205428Y-70295238D01*
X169248285Y-70242857D01*
X169248285Y-70347619D01*
X170062571Y-70295238D02*
X169976857Y-70347619D01*
X169805428Y-70347619D01*
X169719714Y-70295238D01*
X169676857Y-70242857D01*
X169634000Y-70138095D01*
X169634000Y-69823809D01*
X169676857Y-69719047D01*
X169719714Y-69666666D01*
X169805428Y-69614285D01*
X169976857Y-69614285D01*
X170062571Y-69666666D01*
X170576857Y-70347619D02*
X170491142Y-70295238D01*
X170448285Y-70242857D01*
X170405428Y-70138095D01*
X170405428Y-69823809D01*
X170448285Y-69719047D01*
X170491142Y-69666666D01*
X170576857Y-69614285D01*
X170705428Y-69614285D01*
X170791142Y-69666666D01*
X170834000Y-69719047D01*
X170876857Y-69823809D01*
X170876857Y-70138095D01*
X170834000Y-70242857D01*
X170791142Y-70295238D01*
X170705428Y-70347619D01*
X170576857Y-70347619D01*
X171262571Y-70347619D02*
X171262571Y-69614285D01*
X171262571Y-69719047D02*
X171305428Y-69666666D01*
X171391142Y-69614285D01*
X171519714Y-69614285D01*
X171605428Y-69666666D01*
X171648285Y-69771428D01*
X171648285Y-70347619D01*
X171648285Y-69771428D02*
X171691142Y-69666666D01*
X171776857Y-69614285D01*
X171905428Y-69614285D01*
X171991142Y-69666666D01*
X172034000Y-69771428D01*
X172034000Y-70347619D01*
X173105428Y-69195238D02*
X172334000Y-70609523D01*
X173362571Y-70033333D02*
X173791142Y-70033333D01*
X173276857Y-70347619D02*
X173576857Y-69247619D01*
X173876857Y-70347619D01*
X174176857Y-70347619D02*
X174176857Y-69247619D01*
X174262571Y-69928571D02*
X174519714Y-70347619D01*
X174519714Y-69614285D02*
X174176857Y-70033333D01*
X175205428Y-69771428D02*
X175334000Y-69823809D01*
X175376857Y-69876190D01*
X175419714Y-69980952D01*
X175419714Y-70138095D01*
X175376857Y-70242857D01*
X175334000Y-70295238D01*
X175248285Y-70347619D01*
X174905428Y-70347619D01*
X174905428Y-69247619D01*
X175205428Y-69247619D01*
X175291142Y-69300000D01*
X175334000Y-69352380D01*
X175376857Y-69457142D01*
X175376857Y-69561904D01*
X175334000Y-69666666D01*
X175291142Y-69719047D01*
X175205428Y-69771428D01*
X174905428Y-69771428D01*
X175805428Y-70347619D02*
X175805428Y-69247619D01*
X176319714Y-70347619D02*
X175934000Y-69719047D01*
X176319714Y-69247619D02*
X175805428Y-69876190D01*
X177091142Y-69614285D02*
X177091142Y-70347619D01*
X176705428Y-69614285D02*
X176705428Y-70190476D01*
X176748285Y-70295238D01*
X176834000Y-70347619D01*
X176962571Y-70347619D01*
X177048285Y-70295238D01*
X177091142Y-70242857D01*
X177519714Y-70347619D02*
X177519714Y-69247619D01*
X177605428Y-69928571D02*
X177862571Y-70347619D01*
X177862571Y-69614285D02*
X177519714Y-70033333D01*
X178248285Y-69247619D02*
X178248285Y-70138095D01*
X178291142Y-70242857D01*
X178334000Y-70295238D01*
X178419714Y-70347619D01*
X178591142Y-70347619D01*
X178676857Y-70295238D01*
X178719714Y-70242857D01*
X178762571Y-70138095D01*
X178762571Y-69247619D01*
X179834000Y-69195238D02*
X179062571Y-70609523D01*
X180648285Y-70242857D02*
X180605428Y-70295238D01*
X180476857Y-70347619D01*
X180391142Y-70347619D01*
X180262571Y-70295238D01*
X180176857Y-70190476D01*
X180134000Y-70085714D01*
X180091142Y-69876190D01*
X180091142Y-69719047D01*
X180134000Y-69509523D01*
X180176857Y-69404761D01*
X180262571Y-69300000D01*
X180391142Y-69247619D01*
X180476857Y-69247619D01*
X180605428Y-69300000D01*
X180648285Y-69352380D01*
X181034000Y-70347619D02*
X181034000Y-69247619D01*
X181334000Y-70033333D01*
X181634000Y-69247619D01*
X181634000Y-70347619D01*
X182534000Y-70347619D02*
X182019714Y-70347619D01*
X182276857Y-70347619D02*
X182276857Y-69247619D01*
X182191142Y-69404761D01*
X182105428Y-69509523D01*
X182019714Y-69561904D01*
X183348285Y-69247619D02*
X182919714Y-69247619D01*
X182876857Y-69771428D01*
X182919714Y-69719047D01*
X183005428Y-69666666D01*
X183219714Y-69666666D01*
X183305428Y-69719047D01*
X183348285Y-69771428D01*
X183391142Y-69876190D01*
X183391142Y-70138095D01*
X183348285Y-70242857D01*
X183305428Y-70295238D01*
X183219714Y-70347619D01*
X183005428Y-70347619D01*
X182919714Y-70295238D01*
X182876857Y-70242857D01*
X183691142Y-69247619D02*
X184248285Y-69247619D01*
X183948285Y-69666666D01*
X184076857Y-69666666D01*
X184162571Y-69719047D01*
X184205428Y-69771428D01*
X184248285Y-69876190D01*
X184248285Y-70138095D01*
X184205428Y-70242857D01*
X184162571Y-70295238D01*
X184076857Y-70347619D01*
X183819714Y-70347619D01*
X183734000Y-70295238D01*
X183691142Y-70242857D01*
X184634000Y-69928571D02*
X185319714Y-69928571D01*
X186262571Y-70347619D02*
X185962571Y-69823809D01*
X185748285Y-70347619D02*
X185748285Y-69247619D01*
X186091142Y-69247619D01*
X186176857Y-69300000D01*
X186219714Y-69352380D01*
X186262571Y-69457142D01*
X186262571Y-69614285D01*
X186219714Y-69719047D01*
X186176857Y-69771428D01*
X186091142Y-69823809D01*
X185748285Y-69823809D01*
X186991142Y-70295238D02*
X186905428Y-70347619D01*
X186734000Y-70347619D01*
X186648285Y-70295238D01*
X186605428Y-70190476D01*
X186605428Y-69771428D01*
X186648285Y-69666666D01*
X186734000Y-69614285D01*
X186905428Y-69614285D01*
X186991142Y-69666666D01*
X187034000Y-69771428D01*
X187034000Y-69876190D01*
X186605428Y-69980952D01*
X187419714Y-69614285D02*
X187419714Y-70714285D01*
X187419714Y-69666666D02*
X187505428Y-69614285D01*
X187676857Y-69614285D01*
X187762571Y-69666666D01*
X187805428Y-69719047D01*
X187848285Y-69823809D01*
X187848285Y-70138095D01*
X187805428Y-70242857D01*
X187762571Y-70295238D01*
X187676857Y-70347619D01*
X187505428Y-70347619D01*
X187419714Y-70295238D01*
X188234000Y-70347619D02*
X188234000Y-69614285D01*
X188234000Y-69823809D02*
X188276857Y-69719047D01*
X188319714Y-69666666D01*
X188405428Y-69614285D01*
X188491142Y-69614285D01*
X188919714Y-70347619D02*
X188834000Y-70295238D01*
X188791142Y-70242857D01*
X188748285Y-70138095D01*
X188748285Y-69823809D01*
X188791142Y-69719047D01*
X188834000Y-69666666D01*
X188919714Y-69614285D01*
X189048285Y-69614285D01*
X189134000Y-69666666D01*
X189176857Y-69719047D01*
X189219714Y-69823809D01*
X189219714Y-70138095D01*
X189176857Y-70242857D01*
X189134000Y-70295238D01*
X189048285Y-70347619D01*
X188919714Y-70347619D01*
D11*
%TO.C,X3*%
X198072476Y-99453809D02*
X198739142Y-101053809D01*
X198739142Y-99453809D02*
X198072476Y-101053809D01*
X199024857Y-99453809D02*
X199643904Y-99453809D01*
X199310571Y-100063333D01*
X199453428Y-100063333D01*
X199548666Y-100139523D01*
X199596285Y-100215714D01*
X199643904Y-100368095D01*
X199643904Y-100749047D01*
X199596285Y-100901428D01*
X199548666Y-100977619D01*
X199453428Y-101053809D01*
X199167714Y-101053809D01*
X199072476Y-100977619D01*
X199024857Y-100901428D01*
%TO.C,7102*%
X133951904Y-136664809D02*
X134685238Y-136664809D01*
X134213809Y-138264809D01*
X135680476Y-138264809D02*
X135051904Y-138264809D01*
X135366190Y-138264809D02*
X135366190Y-136664809D01*
X135261428Y-136893380D01*
X135156666Y-137045761D01*
X135051904Y-137121952D01*
X136361428Y-136664809D02*
X136466190Y-136664809D01*
X136570952Y-136741000D01*
X136623333Y-136817190D01*
X136675714Y-136969571D01*
X136728095Y-137274333D01*
X136728095Y-137655285D01*
X136675714Y-137960047D01*
X136623333Y-138112428D01*
X136570952Y-138188619D01*
X136466190Y-138264809D01*
X136361428Y-138264809D01*
X136256666Y-138188619D01*
X136204285Y-138112428D01*
X136151904Y-137960047D01*
X136099523Y-137655285D01*
X136099523Y-137274333D01*
X136151904Y-136969571D01*
X136204285Y-136817190D01*
X136256666Y-136741000D01*
X136361428Y-136664809D01*
X137147142Y-136817190D02*
X137199523Y-136741000D01*
X137304285Y-136664809D01*
X137566190Y-136664809D01*
X137670952Y-136741000D01*
X137723333Y-136817190D01*
X137775714Y-136969571D01*
X137775714Y-137121952D01*
X137723333Y-137350523D01*
X137094761Y-138264809D01*
X137775714Y-138264809D01*
%TO.C,7105*%
X79722904Y-136791809D02*
X80456238Y-136791809D01*
X79984809Y-138391809D01*
X81451476Y-138391809D02*
X80822904Y-138391809D01*
X81137190Y-138391809D02*
X81137190Y-136791809D01*
X81032428Y-137020380D01*
X80927666Y-137172761D01*
X80822904Y-137248952D01*
X82132428Y-136791809D02*
X82237190Y-136791809D01*
X82341952Y-136868000D01*
X82394333Y-136944190D01*
X82446714Y-137096571D01*
X82499095Y-137401333D01*
X82499095Y-137782285D01*
X82446714Y-138087047D01*
X82394333Y-138239428D01*
X82341952Y-138315619D01*
X82237190Y-138391809D01*
X82132428Y-138391809D01*
X82027666Y-138315619D01*
X81975285Y-138239428D01*
X81922904Y-138087047D01*
X81870523Y-137782285D01*
X81870523Y-137401333D01*
X81922904Y-137096571D01*
X81975285Y-136944190D01*
X82027666Y-136868000D01*
X82132428Y-136791809D01*
X83494333Y-136791809D02*
X82970523Y-136791809D01*
X82918142Y-137553714D01*
X82970523Y-137477523D01*
X83075285Y-137401333D01*
X83337190Y-137401333D01*
X83441952Y-137477523D01*
X83494333Y-137553714D01*
X83546714Y-137706095D01*
X83546714Y-138087047D01*
X83494333Y-138239428D01*
X83441952Y-138315619D01*
X83337190Y-138391809D01*
X83075285Y-138391809D01*
X82970523Y-138315619D01*
X82918142Y-138239428D01*
%TO.C,7104*%
X105376904Y-136791809D02*
X106110238Y-136791809D01*
X105638809Y-138391809D01*
X107105476Y-138391809D02*
X106476904Y-138391809D01*
X106791190Y-138391809D02*
X106791190Y-136791809D01*
X106686428Y-137020380D01*
X106581666Y-137172761D01*
X106476904Y-137248952D01*
X107786428Y-136791809D02*
X107891190Y-136791809D01*
X107995952Y-136868000D01*
X108048333Y-136944190D01*
X108100714Y-137096571D01*
X108153095Y-137401333D01*
X108153095Y-137782285D01*
X108100714Y-138087047D01*
X108048333Y-138239428D01*
X107995952Y-138315619D01*
X107891190Y-138391809D01*
X107786428Y-138391809D01*
X107681666Y-138315619D01*
X107629285Y-138239428D01*
X107576904Y-138087047D01*
X107524523Y-137782285D01*
X107524523Y-137401333D01*
X107576904Y-137096571D01*
X107629285Y-136944190D01*
X107681666Y-136868000D01*
X107786428Y-136791809D01*
X109095952Y-137325142D02*
X109095952Y-138391809D01*
X108834047Y-136715619D02*
X108572142Y-137858476D01*
X109253095Y-137858476D01*
%TO.C,7112*%
X81119904Y-91198809D02*
X81853238Y-91198809D01*
X81381809Y-92798809D01*
X82848476Y-92798809D02*
X82219904Y-92798809D01*
X82534190Y-92798809D02*
X82534190Y-91198809D01*
X82429428Y-91427380D01*
X82324666Y-91579761D01*
X82219904Y-91655952D01*
X83896095Y-92798809D02*
X83267523Y-92798809D01*
X83581809Y-92798809D02*
X83581809Y-91198809D01*
X83477047Y-91427380D01*
X83372285Y-91579761D01*
X83267523Y-91655952D01*
X84315142Y-91351190D02*
X84367523Y-91275000D01*
X84472285Y-91198809D01*
X84734190Y-91198809D01*
X84838952Y-91275000D01*
X84891333Y-91351190D01*
X84943714Y-91503571D01*
X84943714Y-91655952D01*
X84891333Y-91884523D01*
X84262761Y-92798809D01*
X84943714Y-92798809D01*
%TO.C,7113*%
X102709904Y-106184809D02*
X103443238Y-106184809D01*
X102971809Y-107784809D01*
X104438476Y-107784809D02*
X103809904Y-107784809D01*
X104124190Y-107784809D02*
X104124190Y-106184809D01*
X104019428Y-106413380D01*
X103914666Y-106565761D01*
X103809904Y-106641952D01*
X105486095Y-107784809D02*
X104857523Y-107784809D01*
X105171809Y-107784809D02*
X105171809Y-106184809D01*
X105067047Y-106413380D01*
X104962285Y-106565761D01*
X104857523Y-106641952D01*
X105852761Y-106184809D02*
X106533714Y-106184809D01*
X106167047Y-106794333D01*
X106324190Y-106794333D01*
X106428952Y-106870523D01*
X106481333Y-106946714D01*
X106533714Y-107099095D01*
X106533714Y-107480047D01*
X106481333Y-107632428D01*
X106428952Y-107708619D01*
X106324190Y-107784809D01*
X106009904Y-107784809D01*
X105905142Y-107708619D01*
X105852761Y-107632428D01*
%TO.C,7108*%
X79849904Y-106184809D02*
X80583238Y-106184809D01*
X80111809Y-107784809D01*
X81578476Y-107784809D02*
X80949904Y-107784809D01*
X81264190Y-107784809D02*
X81264190Y-106184809D01*
X81159428Y-106413380D01*
X81054666Y-106565761D01*
X80949904Y-106641952D01*
X82259428Y-106184809D02*
X82364190Y-106184809D01*
X82468952Y-106261000D01*
X82521333Y-106337190D01*
X82573714Y-106489571D01*
X82626095Y-106794333D01*
X82626095Y-107175285D01*
X82573714Y-107480047D01*
X82521333Y-107632428D01*
X82468952Y-107708619D01*
X82364190Y-107784809D01*
X82259428Y-107784809D01*
X82154666Y-107708619D01*
X82102285Y-107632428D01*
X82049904Y-107480047D01*
X81997523Y-107175285D01*
X81997523Y-106794333D01*
X82049904Y-106489571D01*
X82102285Y-106337190D01*
X82154666Y-106261000D01*
X82259428Y-106184809D01*
X83254666Y-106870523D02*
X83149904Y-106794333D01*
X83097523Y-106718142D01*
X83045142Y-106565761D01*
X83045142Y-106489571D01*
X83097523Y-106337190D01*
X83149904Y-106261000D01*
X83254666Y-106184809D01*
X83464190Y-106184809D01*
X83568952Y-106261000D01*
X83621333Y-106337190D01*
X83673714Y-106489571D01*
X83673714Y-106565761D01*
X83621333Y-106718142D01*
X83568952Y-106794333D01*
X83464190Y-106870523D01*
X83254666Y-106870523D01*
X83149904Y-106946714D01*
X83097523Y-107022904D01*
X83045142Y-107175285D01*
X83045142Y-107480047D01*
X83097523Y-107632428D01*
X83149904Y-107708619D01*
X83254666Y-107784809D01*
X83464190Y-107784809D01*
X83568952Y-107708619D01*
X83621333Y-107632428D01*
X83673714Y-107480047D01*
X83673714Y-107175285D01*
X83621333Y-107022904D01*
X83568952Y-106946714D01*
X83464190Y-106870523D01*
%TO.C,7116*%
X150842904Y-91071809D02*
X151576238Y-91071809D01*
X151104809Y-92671809D01*
X152571476Y-92671809D02*
X151942904Y-92671809D01*
X152257190Y-92671809D02*
X152257190Y-91071809D01*
X152152428Y-91300380D01*
X152047666Y-91452761D01*
X151942904Y-91528952D01*
X153619095Y-92671809D02*
X152990523Y-92671809D01*
X153304809Y-92671809D02*
X153304809Y-91071809D01*
X153200047Y-91300380D01*
X153095285Y-91452761D01*
X152990523Y-91528952D01*
X154561952Y-91071809D02*
X154352428Y-91071809D01*
X154247666Y-91148000D01*
X154195285Y-91224190D01*
X154090523Y-91452761D01*
X154038142Y-91757523D01*
X154038142Y-92367047D01*
X154090523Y-92519428D01*
X154142904Y-92595619D01*
X154247666Y-92671809D01*
X154457190Y-92671809D01*
X154561952Y-92595619D01*
X154614333Y-92519428D01*
X154666714Y-92367047D01*
X154666714Y-91986095D01*
X154614333Y-91833714D01*
X154561952Y-91757523D01*
X154457190Y-91681333D01*
X154247666Y-91681333D01*
X154142904Y-91757523D01*
X154090523Y-91833714D01*
X154038142Y-91986095D01*
%TO.C,7121*%
X175099904Y-106311809D02*
X175833238Y-106311809D01*
X175361809Y-107911809D01*
X176828476Y-107911809D02*
X176199904Y-107911809D01*
X176514190Y-107911809D02*
X176514190Y-106311809D01*
X176409428Y-106540380D01*
X176304666Y-106692761D01*
X176199904Y-106768952D01*
X177247523Y-106464190D02*
X177299904Y-106388000D01*
X177404666Y-106311809D01*
X177666571Y-106311809D01*
X177771333Y-106388000D01*
X177823714Y-106464190D01*
X177876095Y-106616571D01*
X177876095Y-106768952D01*
X177823714Y-106997523D01*
X177195142Y-107911809D01*
X177876095Y-107911809D01*
X178923714Y-107911809D02*
X178295142Y-107911809D01*
X178609428Y-107911809D02*
X178609428Y-106311809D01*
X178504666Y-106540380D01*
X178399904Y-106692761D01*
X178295142Y-106768952D01*
%TO.C,7111*%
X126839904Y-106311809D02*
X127573238Y-106311809D01*
X127101809Y-107911809D01*
X128568476Y-107911809D02*
X127939904Y-107911809D01*
X128254190Y-107911809D02*
X128254190Y-106311809D01*
X128149428Y-106540380D01*
X128044666Y-106692761D01*
X127939904Y-106768952D01*
X129616095Y-107911809D02*
X128987523Y-107911809D01*
X129301809Y-107911809D02*
X129301809Y-106311809D01*
X129197047Y-106540380D01*
X129092285Y-106692761D01*
X128987523Y-106768952D01*
X130663714Y-107911809D02*
X130035142Y-107911809D01*
X130349428Y-107911809D02*
X130349428Y-106311809D01*
X130244666Y-106540380D01*
X130139904Y-106692761D01*
X130035142Y-106768952D01*
%TO.C,7114*%
X123791904Y-72148809D02*
X124525238Y-72148809D01*
X124053809Y-73748809D01*
X125520476Y-73748809D02*
X124891904Y-73748809D01*
X125206190Y-73748809D02*
X125206190Y-72148809D01*
X125101428Y-72377380D01*
X124996666Y-72529761D01*
X124891904Y-72605952D01*
X126568095Y-73748809D02*
X125939523Y-73748809D01*
X126253809Y-73748809D02*
X126253809Y-72148809D01*
X126149047Y-72377380D01*
X126044285Y-72529761D01*
X125939523Y-72605952D01*
X127510952Y-72682142D02*
X127510952Y-73748809D01*
X127249047Y-72072619D02*
X126987142Y-73215476D01*
X127668095Y-73215476D01*
%TO.C,7101*%
X159097904Y-136664809D02*
X159831238Y-136664809D01*
X159359809Y-138264809D01*
X160826476Y-138264809D02*
X160197904Y-138264809D01*
X160512190Y-138264809D02*
X160512190Y-136664809D01*
X160407428Y-136893380D01*
X160302666Y-137045761D01*
X160197904Y-137121952D01*
X161507428Y-136664809D02*
X161612190Y-136664809D01*
X161716952Y-136741000D01*
X161769333Y-136817190D01*
X161821714Y-136969571D01*
X161874095Y-137274333D01*
X161874095Y-137655285D01*
X161821714Y-137960047D01*
X161769333Y-138112428D01*
X161716952Y-138188619D01*
X161612190Y-138264809D01*
X161507428Y-138264809D01*
X161402666Y-138188619D01*
X161350285Y-138112428D01*
X161297904Y-137960047D01*
X161245523Y-137655285D01*
X161245523Y-137274333D01*
X161297904Y-136969571D01*
X161350285Y-136817190D01*
X161402666Y-136741000D01*
X161507428Y-136664809D01*
X162921714Y-138264809D02*
X162293142Y-138264809D01*
X162607428Y-138264809D02*
X162607428Y-136664809D01*
X162502666Y-136893380D01*
X162397904Y-137045761D01*
X162293142Y-137121952D01*
%TO.C,7120*%
X174972904Y-91071809D02*
X175706238Y-91071809D01*
X175234809Y-92671809D01*
X176701476Y-92671809D02*
X176072904Y-92671809D01*
X176387190Y-92671809D02*
X176387190Y-91071809D01*
X176282428Y-91300380D01*
X176177666Y-91452761D01*
X176072904Y-91528952D01*
X177120523Y-91224190D02*
X177172904Y-91148000D01*
X177277666Y-91071809D01*
X177539571Y-91071809D01*
X177644333Y-91148000D01*
X177696714Y-91224190D01*
X177749095Y-91376571D01*
X177749095Y-91528952D01*
X177696714Y-91757523D01*
X177068142Y-92671809D01*
X177749095Y-92671809D01*
X178430047Y-91071809D02*
X178534809Y-91071809D01*
X178639571Y-91148000D01*
X178691952Y-91224190D01*
X178744333Y-91376571D01*
X178796714Y-91681333D01*
X178796714Y-92062285D01*
X178744333Y-92367047D01*
X178691952Y-92519428D01*
X178639571Y-92595619D01*
X178534809Y-92671809D01*
X178430047Y-92671809D01*
X178325285Y-92595619D01*
X178272904Y-92519428D01*
X178220523Y-92367047D01*
X178168142Y-92062285D01*
X178168142Y-91681333D01*
X178220523Y-91376571D01*
X178272904Y-91224190D01*
X178325285Y-91148000D01*
X178430047Y-91071809D01*
%TO.C,X2*%
X100282476Y-113931809D02*
X100949142Y-115531809D01*
X100949142Y-113931809D02*
X100282476Y-115531809D01*
X101282476Y-114084190D02*
X101330095Y-114008000D01*
X101425333Y-113931809D01*
X101663428Y-113931809D01*
X101758666Y-114008000D01*
X101806285Y-114084190D01*
X101853904Y-114236571D01*
X101853904Y-114388952D01*
X101806285Y-114617523D01*
X101234857Y-115531809D01*
X101853904Y-115531809D01*
%TO.C,7109*%
X136491904Y-91091809D02*
X137225238Y-91091809D01*
X136753809Y-92691809D01*
X138220476Y-92691809D02*
X137591904Y-92691809D01*
X137906190Y-92691809D02*
X137906190Y-91091809D01*
X137801428Y-91320380D01*
X137696666Y-91472761D01*
X137591904Y-91548952D01*
X138901428Y-91091809D02*
X139006190Y-91091809D01*
X139110952Y-91168000D01*
X139163333Y-91244190D01*
X139215714Y-91396571D01*
X139268095Y-91701333D01*
X139268095Y-92082285D01*
X139215714Y-92387047D01*
X139163333Y-92539428D01*
X139110952Y-92615619D01*
X139006190Y-92691809D01*
X138901428Y-92691809D01*
X138796666Y-92615619D01*
X138744285Y-92539428D01*
X138691904Y-92387047D01*
X138639523Y-92082285D01*
X138639523Y-91701333D01*
X138691904Y-91396571D01*
X138744285Y-91244190D01*
X138796666Y-91168000D01*
X138901428Y-91091809D01*
X139791904Y-92691809D02*
X140001428Y-92691809D01*
X140106190Y-92615619D01*
X140158571Y-92539428D01*
X140263333Y-92310857D01*
X140315714Y-92006095D01*
X140315714Y-91396571D01*
X140263333Y-91244190D01*
X140210952Y-91168000D01*
X140106190Y-91091809D01*
X139896666Y-91091809D01*
X139791904Y-91168000D01*
X139739523Y-91244190D01*
X139687142Y-91396571D01*
X139687142Y-91777523D01*
X139739523Y-91929904D01*
X139791904Y-92006095D01*
X139896666Y-92082285D01*
X140106190Y-92082285D01*
X140210952Y-92006095D01*
X140263333Y-91929904D01*
X140315714Y-91777523D01*
%TO.C,7115*%
X79849904Y-72021809D02*
X80583238Y-72021809D01*
X80111809Y-73621809D01*
X81578476Y-73621809D02*
X80949904Y-73621809D01*
X81264190Y-73621809D02*
X81264190Y-72021809D01*
X81159428Y-72250380D01*
X81054666Y-72402761D01*
X80949904Y-72478952D01*
X82626095Y-73621809D02*
X81997523Y-73621809D01*
X82311809Y-73621809D02*
X82311809Y-72021809D01*
X82207047Y-72250380D01*
X82102285Y-72402761D01*
X81997523Y-72478952D01*
X83621333Y-72021809D02*
X83097523Y-72021809D01*
X83045142Y-72783714D01*
X83097523Y-72707523D01*
X83202285Y-72631333D01*
X83464190Y-72631333D01*
X83568952Y-72707523D01*
X83621333Y-72783714D01*
X83673714Y-72936095D01*
X83673714Y-73317047D01*
X83621333Y-73469428D01*
X83568952Y-73545619D01*
X83464190Y-73621809D01*
X83202285Y-73621809D01*
X83097523Y-73545619D01*
X83045142Y-73469428D01*
%TO.C,X-TAL*%
X107307333Y-77101809D02*
X107974000Y-78701809D01*
X107974000Y-77101809D02*
X107307333Y-78701809D01*
X108354952Y-78092285D02*
X109116857Y-78092285D01*
X109450190Y-77101809D02*
X110021619Y-77101809D01*
X109735904Y-78701809D02*
X109735904Y-77101809D01*
X110307333Y-78244666D02*
X110783523Y-78244666D01*
X110212095Y-78701809D02*
X110545428Y-77101809D01*
X110878761Y-78701809D01*
X111688285Y-78701809D02*
X111212095Y-78701809D01*
X111212095Y-77101809D01*
%TO.C,7117*%
X150334904Y-106184809D02*
X151068238Y-106184809D01*
X150596809Y-107784809D01*
X152063476Y-107784809D02*
X151434904Y-107784809D01*
X151749190Y-107784809D02*
X151749190Y-106184809D01*
X151644428Y-106413380D01*
X151539666Y-106565761D01*
X151434904Y-106641952D01*
X153111095Y-107784809D02*
X152482523Y-107784809D01*
X152796809Y-107784809D02*
X152796809Y-106184809D01*
X152692047Y-106413380D01*
X152587285Y-106565761D01*
X152482523Y-106641952D01*
X153477761Y-106184809D02*
X154211095Y-106184809D01*
X153739666Y-107784809D01*
%TO.C,7118*%
X150969904Y-121424809D02*
X151703238Y-121424809D01*
X151231809Y-123024809D01*
X152698476Y-123024809D02*
X152069904Y-123024809D01*
X152384190Y-123024809D02*
X152384190Y-121424809D01*
X152279428Y-121653380D01*
X152174666Y-121805761D01*
X152069904Y-121881952D01*
X153746095Y-123024809D02*
X153117523Y-123024809D01*
X153431809Y-123024809D02*
X153431809Y-121424809D01*
X153327047Y-121653380D01*
X153222285Y-121805761D01*
X153117523Y-121881952D01*
X154374666Y-122110523D02*
X154269904Y-122034333D01*
X154217523Y-121958142D01*
X154165142Y-121805761D01*
X154165142Y-121729571D01*
X154217523Y-121577190D01*
X154269904Y-121501000D01*
X154374666Y-121424809D01*
X154584190Y-121424809D01*
X154688952Y-121501000D01*
X154741333Y-121577190D01*
X154793714Y-121729571D01*
X154793714Y-121805761D01*
X154741333Y-121958142D01*
X154688952Y-122034333D01*
X154584190Y-122110523D01*
X154374666Y-122110523D01*
X154269904Y-122186714D01*
X154217523Y-122262904D01*
X154165142Y-122415285D01*
X154165142Y-122720047D01*
X154217523Y-122872428D01*
X154269904Y-122948619D01*
X154374666Y-123024809D01*
X154584190Y-123024809D01*
X154688952Y-122948619D01*
X154741333Y-122872428D01*
X154793714Y-122720047D01*
X154793714Y-122415285D01*
X154741333Y-122262904D01*
X154688952Y-122186714D01*
X154584190Y-122110523D01*
%TO.C,X5*%
X198118523Y-79133809D02*
X198851857Y-80733809D01*
X198851857Y-79133809D02*
X198118523Y-80733809D01*
X199794714Y-79133809D02*
X199270904Y-79133809D01*
X199218523Y-79895714D01*
X199270904Y-79819523D01*
X199375666Y-79743333D01*
X199637571Y-79743333D01*
X199742333Y-79819523D01*
X199794714Y-79895714D01*
X199847095Y-80048095D01*
X199847095Y-80429047D01*
X199794714Y-80581428D01*
X199742333Y-80657619D01*
X199637571Y-80733809D01*
X199375666Y-80733809D01*
X199270904Y-80657619D01*
X199218523Y-80581428D01*
%TO.C,7106*%
X126839904Y-121551809D02*
X127573238Y-121551809D01*
X127101809Y-123151809D01*
X128568476Y-123151809D02*
X127939904Y-123151809D01*
X128254190Y-123151809D02*
X128254190Y-121551809D01*
X128149428Y-121780380D01*
X128044666Y-121932761D01*
X127939904Y-122008952D01*
X129249428Y-121551809D02*
X129354190Y-121551809D01*
X129458952Y-121628000D01*
X129511333Y-121704190D01*
X129563714Y-121856571D01*
X129616095Y-122161333D01*
X129616095Y-122542285D01*
X129563714Y-122847047D01*
X129511333Y-122999428D01*
X129458952Y-123075619D01*
X129354190Y-123151809D01*
X129249428Y-123151809D01*
X129144666Y-123075619D01*
X129092285Y-122999428D01*
X129039904Y-122847047D01*
X128987523Y-122542285D01*
X128987523Y-122161333D01*
X129039904Y-121856571D01*
X129092285Y-121704190D01*
X129144666Y-121628000D01*
X129249428Y-121551809D01*
X130558952Y-121551809D02*
X130349428Y-121551809D01*
X130244666Y-121628000D01*
X130192285Y-121704190D01*
X130087523Y-121932761D01*
X130035142Y-122237523D01*
X130035142Y-122847047D01*
X130087523Y-122999428D01*
X130139904Y-123075619D01*
X130244666Y-123151809D01*
X130454190Y-123151809D01*
X130558952Y-123075619D01*
X130611333Y-122999428D01*
X130663714Y-122847047D01*
X130663714Y-122466095D01*
X130611333Y-122313714D01*
X130558952Y-122237523D01*
X130454190Y-122161333D01*
X130244666Y-122161333D01*
X130139904Y-122237523D01*
X130087523Y-122313714D01*
X130035142Y-122466095D01*
%TO.C,7119*%
X161129904Y-75958809D02*
X161863238Y-75958809D01*
X161391809Y-77558809D01*
X162858476Y-77558809D02*
X162229904Y-77558809D01*
X162544190Y-77558809D02*
X162544190Y-75958809D01*
X162439428Y-76187380D01*
X162334666Y-76339761D01*
X162229904Y-76415952D01*
X163906095Y-77558809D02*
X163277523Y-77558809D01*
X163591809Y-77558809D02*
X163591809Y-75958809D01*
X163487047Y-76187380D01*
X163382285Y-76339761D01*
X163277523Y-76415952D01*
X164429904Y-77558809D02*
X164639428Y-77558809D01*
X164744190Y-77482619D01*
X164796571Y-77406428D01*
X164901333Y-77177857D01*
X164953714Y-76873095D01*
X164953714Y-76263571D01*
X164901333Y-76111190D01*
X164848952Y-76035000D01*
X164744190Y-75958809D01*
X164534666Y-75958809D01*
X164429904Y-76035000D01*
X164377523Y-76111190D01*
X164325142Y-76263571D01*
X164325142Y-76644523D01*
X164377523Y-76796904D01*
X164429904Y-76873095D01*
X164534666Y-76949285D01*
X164744190Y-76949285D01*
X164848952Y-76873095D01*
X164901333Y-76796904D01*
X164953714Y-76644523D01*
%TO.C,7110*%
X102709904Y-91071809D02*
X103443238Y-91071809D01*
X102971809Y-92671809D01*
X104438476Y-92671809D02*
X103809904Y-92671809D01*
X104124190Y-92671809D02*
X104124190Y-91071809D01*
X104019428Y-91300380D01*
X103914666Y-91452761D01*
X103809904Y-91528952D01*
X105486095Y-92671809D02*
X104857523Y-92671809D01*
X105171809Y-92671809D02*
X105171809Y-91071809D01*
X105067047Y-91300380D01*
X104962285Y-91452761D01*
X104857523Y-91528952D01*
X106167047Y-91071809D02*
X106271809Y-91071809D01*
X106376571Y-91148000D01*
X106428952Y-91224190D01*
X106481333Y-91376571D01*
X106533714Y-91681333D01*
X106533714Y-92062285D01*
X106481333Y-92367047D01*
X106428952Y-92519428D01*
X106376571Y-92595619D01*
X106271809Y-92671809D01*
X106167047Y-92671809D01*
X106062285Y-92595619D01*
X106009904Y-92519428D01*
X105957523Y-92367047D01*
X105905142Y-92062285D01*
X105905142Y-91681333D01*
X105957523Y-91376571D01*
X106009904Y-91224190D01*
X106062285Y-91148000D01*
X106167047Y-91071809D01*
%TO.C,7107*%
X79849904Y-121551809D02*
X80583238Y-121551809D01*
X80111809Y-123151809D01*
X81578476Y-123151809D02*
X80949904Y-123151809D01*
X81264190Y-123151809D02*
X81264190Y-121551809D01*
X81159428Y-121780380D01*
X81054666Y-121932761D01*
X80949904Y-122008952D01*
X82259428Y-121551809D02*
X82364190Y-121551809D01*
X82468952Y-121628000D01*
X82521333Y-121704190D01*
X82573714Y-121856571D01*
X82626095Y-122161333D01*
X82626095Y-122542285D01*
X82573714Y-122847047D01*
X82521333Y-122999428D01*
X82468952Y-123075619D01*
X82364190Y-123151809D01*
X82259428Y-123151809D01*
X82154666Y-123075619D01*
X82102285Y-122999428D01*
X82049904Y-122847047D01*
X81997523Y-122542285D01*
X81997523Y-122161333D01*
X82049904Y-121856571D01*
X82102285Y-121704190D01*
X82154666Y-121628000D01*
X82259428Y-121551809D01*
X82992761Y-121551809D02*
X83726095Y-121551809D01*
X83254666Y-123151809D01*
%TD*%
M02*
