%TF.GenerationSoftware,KiCad,Pcbnew,6.0.7-f9a2dced07~116~ubuntu20.04.1*%
%TF.CreationDate,2022-09-01T07:33:47-07:00*%
%TF.ProjectId,ISA-Card,4953412d-4361-4726-942e-6b696361645f,alpha*%
%TF.SameCoordinates,Original*%
%TF.FileFunction,Copper,L2,Bot*%
%TF.FilePolarity,Positive*%
%FSLAX46Y46*%
G04 Gerber Fmt 4.6, Leading zero omitted, Abs format (unit mm)*
G04 Created by KiCad (PCBNEW 6.0.7-f9a2dced07~116~ubuntu20.04.1) date 2022-09-01 07:33:47*
%MOMM*%
%LPD*%
G01*
G04 APERTURE LIST*
G04 Aperture macros list*
%AMRoundRect*
0 Rectangle with rounded corners*
0 $1 Rounding radius*
0 $2 $3 $4 $5 $6 $7 $8 $9 X,Y pos of 4 corners*
0 Add a 4 corners polygon primitive as box body*
4,1,4,$2,$3,$4,$5,$6,$7,$8,$9,$2,$3,0*
0 Add four circle primitives for the rounded corners*
1,1,$1+$1,$2,$3*
1,1,$1+$1,$4,$5*
1,1,$1+$1,$6,$7*
1,1,$1+$1,$8,$9*
0 Add four rect primitives between the rounded corners*
20,1,$1+$1,$2,$3,$4,$5,0*
20,1,$1+$1,$4,$5,$6,$7,0*
20,1,$1+$1,$6,$7,$8,$9,0*
20,1,$1+$1,$8,$9,$2,$3,0*%
%AMHorizOval*
0 Thick line with rounded ends*
0 $1 width*
0 $2 $3 position (X,Y) of the first rounded end (center of the circle)*
0 $4 $5 position (X,Y) of the second rounded end (center of the circle)*
0 Add line between two ends*
20,1,$1,$2,$3,$4,$5,0*
0 Add two circle primitives to create the rounded ends*
1,1,$1,$2,$3*
1,1,$1,$4,$5*%
G04 Aperture macros list end*
%TA.AperFunction,NonConductor*%
%ADD10C,0.190500*%
%TD*%
%TA.AperFunction,EtchedComponent*%
%ADD11C,0.025400*%
%TD*%
%TA.AperFunction,EtchedComponent*%
%ADD12C,0.508000*%
%TD*%
%TA.AperFunction,ConnectorPad*%
%ADD13RoundRect,0.444500X-0.444500X-3.619500X0.444500X-3.619500X0.444500X3.619500X-0.444500X3.619500X0*%
%TD*%
%TA.AperFunction,SMDPad,CuDef*%
%ADD14C,1.981200*%
%TD*%
%TA.AperFunction,SMDPad,CuDef*%
%ADD15HorizOval,0.635000X-0.224506X-0.224506X0.224506X0.224506X0*%
%TD*%
%TA.AperFunction,SMDPad,CuDef*%
%ADD16O,1.270000X0.635000*%
%TD*%
%TA.AperFunction,ComponentPad*%
%ADD17C,4.000000*%
%TD*%
%TA.AperFunction,ComponentPad*%
%ADD18R,1.600000X1.600000*%
%TD*%
%TA.AperFunction,ComponentPad*%
%ADD19C,1.600000*%
%TD*%
%TA.AperFunction,ComponentPad*%
%ADD20O,1.600000X1.600000*%
%TD*%
%TA.AperFunction,SMDPad,CuDef*%
%ADD21O,0.635000X1.270000*%
%TD*%
%TA.AperFunction,WasherPad*%
%ADD22C,3.759200*%
%TD*%
%TA.AperFunction,ComponentPad*%
%ADD23R,2.000000X2.000000*%
%TD*%
%TA.AperFunction,ComponentPad*%
%ADD24C,2.000000*%
%TD*%
%TA.AperFunction,ComponentPad*%
%ADD25R,1.700000X1.700000*%
%TD*%
%TA.AperFunction,ComponentPad*%
%ADD26O,1.700000X1.700000*%
%TD*%
%TA.AperFunction,ComponentPad*%
%ADD27C,1.500000*%
%TD*%
%TA.AperFunction,SMDPad,CuDef*%
%ADD28RoundRect,0.250000X0.312500X0.625000X-0.312500X0.625000X-0.312500X-0.625000X0.312500X-0.625000X0*%
%TD*%
%TA.AperFunction,SMDPad,CuDef*%
%ADD29RoundRect,0.250000X0.625000X-0.312500X0.625000X0.312500X-0.625000X0.312500X-0.625000X-0.312500X0*%
%TD*%
%TA.AperFunction,SMDPad,CuDef*%
%ADD30RoundRect,0.250000X0.650000X-0.325000X0.650000X0.325000X-0.650000X0.325000X-0.650000X-0.325000X0*%
%TD*%
%TA.AperFunction,SMDPad,CuDef*%
%ADD31RoundRect,0.250000X-0.325000X-0.650000X0.325000X-0.650000X0.325000X0.650000X-0.325000X0.650000X0*%
%TD*%
%TA.AperFunction,SMDPad,CuDef*%
%ADD32RoundRect,0.250000X-0.650000X0.325000X-0.650000X-0.325000X0.650000X-0.325000X0.650000X0.325000X0*%
%TD*%
%TA.AperFunction,SMDPad,CuDef*%
%ADD33RoundRect,0.250000X-0.312500X-0.625000X0.312500X-0.625000X0.312500X0.625000X-0.312500X0.625000X0*%
%TD*%
%TA.AperFunction,SMDPad,CuDef*%
%ADD34RoundRect,0.250000X-0.625000X0.312500X-0.625000X-0.312500X0.625000X-0.312500X0.625000X0.312500X0*%
%TD*%
%TA.AperFunction,ViaPad*%
%ADD35C,0.800000*%
%TD*%
%TA.AperFunction,ViaPad*%
%ADD36C,1.000000*%
%TD*%
%TA.AperFunction,Conductor*%
%ADD37C,0.400000*%
%TD*%
%TA.AperFunction,Conductor*%
%ADD38C,0.275000*%
%TD*%
%TA.AperFunction,Conductor*%
%ADD39C,1.000000*%
%TD*%
%TA.AperFunction,Conductor*%
%ADD40C,0.250000*%
%TD*%
G04 APERTURE END LIST*
D10*
G36*
X189230000Y-140208000D02*
G01*
X189484000Y-140970000D01*
X187198000Y-140970000D01*
X186944000Y-140462000D01*
X188722000Y-139446000D01*
X189230000Y-140208000D01*
G37*
X189230000Y-140208000D02*
X189484000Y-140970000D01*
X187198000Y-140970000D01*
X186944000Y-140462000D01*
X188722000Y-139446000D01*
X189230000Y-140208000D01*
D11*
%TO.C,REF\u002A\u002A*%
X203200000Y-64135000D02*
X209550000Y-64135000D01*
X209550000Y-64135000D02*
X209550000Y-69215000D01*
X209550000Y-69215000D02*
X203200000Y-69215000D01*
X203200000Y-69215000D02*
X203200000Y-64135000D01*
G36*
X203200000Y-64135000D02*
G01*
X209550000Y-64135000D01*
X209550000Y-69215000D01*
X203200000Y-69215000D01*
X203200000Y-64135000D01*
G37*
D12*
X78762013Y-55719999D02*
G75*
G03*
X77275035Y-57091292I381987J-1906071D01*
G01*
X77278944Y-58102319D02*
G75*
G03*
X78765921Y-59473611I1868964J534778D01*
G01*
X81773977Y-57091292D02*
G75*
G03*
X80287000Y-55720000I-1868964J-534778D01*
G01*
X80290908Y-59473611D02*
G75*
G03*
X81777886Y-58102319I-381988J1906071D01*
G01*
X199676047Y-83812877D02*
G75*
G03*
X198374504Y-85091587I476986J-1787250D01*
G01*
X201939213Y-85123131D02*
G75*
G03*
X200660503Y-83821588I-1787249J-476985D01*
G01*
X198365793Y-86076043D02*
G75*
G03*
X199644503Y-87377586I1787250J476986D01*
G01*
X200628959Y-87386297D02*
G75*
G03*
X201930502Y-86107587I-476985J1787249D01*
G01*
G36*
X202235303Y-85294787D02*
G01*
X202235303Y-85396387D01*
X201727303Y-85396387D01*
X201727303Y-85294787D01*
X201676503Y-85091587D01*
X202184503Y-85091587D01*
X202235303Y-85294787D01*
G37*
G36*
X200660503Y-83567587D02*
G01*
X200660503Y-84075587D01*
X200457303Y-84024787D01*
X200355703Y-84024787D01*
X200355703Y-83516787D01*
X200457303Y-83516787D01*
X200660503Y-83567587D01*
G37*
G36*
X199949303Y-84024787D02*
G01*
X199847703Y-84024787D01*
X199644503Y-84075587D01*
X199644503Y-83567587D01*
X199847703Y-83516787D01*
X199949303Y-83516787D01*
X199949303Y-84024787D01*
G37*
G36*
X198577703Y-85904387D02*
G01*
X198628503Y-86107587D01*
X198120503Y-86107587D01*
X198069703Y-85904387D01*
X198069703Y-85802787D01*
X198577703Y-85802787D01*
X198577703Y-85904387D01*
G37*
G36*
X200660503Y-87631587D02*
G01*
X200457303Y-87682387D01*
X200355703Y-87682387D01*
X200355703Y-87174387D01*
X200457303Y-87174387D01*
X200660503Y-87123587D01*
X200660503Y-87631587D01*
G37*
G36*
X202235303Y-85904387D02*
G01*
X202184503Y-86107587D01*
X201676503Y-86107587D01*
X201727303Y-85904387D01*
X201727303Y-85802787D01*
X202235303Y-85802787D01*
X202235303Y-85904387D01*
G37*
G36*
X198577703Y-85294787D02*
G01*
X198577703Y-85396387D01*
X198069703Y-85396387D01*
X198069703Y-85294787D01*
X198120503Y-85091587D01*
X198628503Y-85091587D01*
X198577703Y-85294787D01*
G37*
G36*
X199847703Y-87174387D02*
G01*
X199949303Y-87174387D01*
X199949303Y-87682387D01*
X199847703Y-87682387D01*
X199644503Y-87631587D01*
X199644503Y-87123587D01*
X199847703Y-87174387D01*
G37*
%TD*%
D13*
%TO.P,BUS1,1,GND*%
%TO.N,GND*%
X185420000Y-145732500D03*
%TO.P,BUS1,2,RESET*%
%TO.N,/RESETDRV*%
X182880000Y-145732500D03*
%TO.P,BUS1,3,VCC*%
%TO.N,VCC*%
X180340000Y-145732500D03*
%TO.P,BUS1,13,IOW*%
%TO.N,/~{IOW}*%
X154940000Y-145732500D03*
%TO.P,BUS1,14,IOR*%
%TO.N,/~{IOR}*%
X152400000Y-145732500D03*
%TO.P,BUS1,15,DACK3*%
%TO.N,/~{DACK3}*%
X149860000Y-145732500D03*
%TO.P,BUS1,16,DRQ3*%
%TO.N,/DRQ3*%
X147320000Y-145732500D03*
%TD*%
D14*
%TO.P,TP91,1,1*%
%TO.N,Net-(TP91-Pad1)*%
X117094000Y-84582000D03*
D15*
X117794460Y-83881540D03*
%TD*%
D16*
%TO.P,TP24,1,1*%
%TO.N,/A0*%
X124688600Y-137160000D03*
D14*
X123698000Y-137160000D03*
%TD*%
%TO.P,TP43,1,1*%
%TO.N,/DMA_ACK*%
X88900000Y-117348000D03*
D16*
X89890600Y-117348000D03*
%TD*%
D14*
%TO.P,TP75,1,1*%
%TO.N,/CLKp3*%
X133858000Y-68326000D03*
D15*
X134558460Y-67625540D03*
%TD*%
D16*
%TO.P,TP105,1,1*%
%TO.N,Net-(TP105-Pad1)*%
X81000600Y-67310000D03*
D14*
X80010000Y-67310000D03*
%TD*%
%TO.P,TP51,1,1*%
%TO.N,Net-(TP51-Pad1)*%
X97790000Y-99060000D03*
D16*
X98780600Y-99060000D03*
%TD*%
D14*
%TO.P,TP38,1,1*%
%TO.N,/A1*%
X75692000Y-137160000D03*
D16*
X76682600Y-137160000D03*
%TD*%
D17*
%TO.P,X3,0*%
%TO.N,N/C*%
X200175000Y-138105000D03*
X200175000Y-104805000D03*
D18*
%TO.P,X3,1,1*%
%TO.N,/Response+*%
X198755000Y-111760000D03*
D19*
%TO.P,X3,2,2*%
%TO.N,/Command+*%
X198755000Y-114530000D03*
%TO.P,X3,3,3*%
%TO.N,/Data+*%
X198755000Y-117300000D03*
%TO.P,X3,4,4*%
%TO.N,/Data Clock+*%
X198755000Y-120070000D03*
%TO.P,X3,5,5*%
%TO.N,/Attention+*%
X198755000Y-122840000D03*
%TO.P,X3,6,6*%
%TO.N,/M1*%
X198755000Y-125610000D03*
%TO.P,X3,7,7*%
%TO.N,/M3*%
X198755000Y-128380000D03*
%TO.P,X3,8,8*%
%TO.N,GND*%
X198755000Y-131150000D03*
%TO.P,X3,9,P9*%
%TO.N,/Response-*%
X201595000Y-113145000D03*
%TO.P,X3,10,P10*%
%TO.N,/Command-*%
X201595000Y-115915000D03*
%TO.P,X3,11,P111*%
%TO.N,/Data-*%
X201595000Y-118685000D03*
%TO.P,X3,12,P12*%
%TO.N,/Data Clock-*%
X201595000Y-121455000D03*
%TO.P,X3,13,P13*%
%TO.N,/Attention-*%
X201595000Y-124225000D03*
%TO.P,X3,14,P14*%
%TO.N,/M2*%
X201595000Y-126995000D03*
%TO.P,X3,15,P15*%
%TO.N,/M4*%
X201595000Y-129765000D03*
%TD*%
D18*
%TO.P,U7102,1,1OE*%
%TO.N,GND*%
X128270000Y-135255000D03*
D20*
%TO.P,U7102,2,1A0*%
%TO.N,/A0*%
X130810000Y-135255000D03*
%TO.P,U7102,3,2Y0*%
%TO.N,/A8b*%
X133350000Y-135255000D03*
%TO.P,U7102,4,1A1*%
%TO.N,/A9*%
X135890000Y-135255000D03*
%TO.P,U7102,5,2Y1*%
%TO.N,unconnected-(U7102-Pad5)*%
X138430000Y-135255000D03*
%TO.P,U7102,6,1A2*%
%TO.N,/~{DACK3}*%
X140970000Y-135255000D03*
%TO.P,U7102,7,2Y2*%
%TO.N,/~{RD}*%
X143510000Y-135255000D03*
%TO.P,U7102,8,1A3*%
%TO.N,/~{IOW}*%
X146050000Y-135255000D03*
%TO.P,U7102,9,2Y3*%
%TO.N,/AENb*%
X148590000Y-135255000D03*
%TO.P,U7102,10,GND*%
%TO.N,GND*%
X151130000Y-135255000D03*
%TO.P,U7102,11,2A3*%
%TO.N,/AEN*%
X151130000Y-127635000D03*
%TO.P,U7102,12,1Y3*%
%TO.N,/~{WR}*%
X148590000Y-127635000D03*
%TO.P,U7102,13,2A2*%
%TO.N,/~{IOR}*%
X146050000Y-127635000D03*
%TO.P,U7102,14,1Y2*%
%TO.N,/DMA_ACK*%
X143510000Y-127635000D03*
%TO.P,U7102,15,2A1*%
%TO.N,GND*%
X140970000Y-127635000D03*
%TO.P,U7102,16,1Y1*%
%TO.N,/A9b*%
X138430000Y-127635000D03*
%TO.P,U7102,17,2A0*%
%TO.N,/A8*%
X135890000Y-127635000D03*
%TO.P,U7102,18,1Y0*%
%TO.N,/A0b*%
X133350000Y-127635000D03*
%TO.P,U7102,19,2OE*%
%TO.N,GND*%
X130810000Y-127635000D03*
%TO.P,U7102,20,VCC*%
%TO.N,VCC*%
X128270000Y-127635000D03*
%TD*%
D14*
%TO.P,TP78,1,1*%
%TO.N,/A0b*%
X184658000Y-76962000D03*
D16*
X185648600Y-76962000D03*
%TD*%
%TO.P,TP54,1,1*%
%TO.N,Net-(TP54-Pad1)*%
X125450600Y-102362000D03*
D14*
X124460000Y-102362000D03*
%TD*%
%TO.P,TP17,1,1*%
%TO.N,/~{IOR}*%
X149098000Y-137414000D03*
D16*
X150088600Y-137414000D03*
%TD*%
%TO.P,TP68,1,1*%
%TO.N,/MDB5*%
X154203400Y-75692000D03*
D14*
X155194000Y-75692000D03*
%TD*%
D18*
%TO.P,U7105,1,A0*%
%TO.N,/A1*%
X77485000Y-135245000D03*
D20*
%TO.P,U7105,2,A1*%
%TO.N,/A2*%
X80025000Y-135245000D03*
%TO.P,U7105,3,A2*%
%TO.N,/A3*%
X82565000Y-135245000D03*
%TO.P,U7105,4,E1*%
%TO.N,/IOACT*%
X85105000Y-135245000D03*
%TO.P,U7105,5,E2*%
%TO.N,/IOSEL*%
X87645000Y-135245000D03*
%TO.P,U7105,6,E3*%
%TO.N,VCC*%
X90185000Y-135245000D03*
%TO.P,U7105,7,O7*%
%TO.N,unconnected-(U7105-Pad7)*%
X92725000Y-135245000D03*
%TO.P,U7105,8,GND*%
%TO.N,GND*%
X95265000Y-135245000D03*
%TO.P,U7105,9,O6*%
%TO.N,unconnected-(U7105-Pad9)*%
X95265000Y-127625000D03*
%TO.P,U7105,10,O5*%
%TO.N,unconnected-(U7105-Pad10)*%
X92725000Y-127625000D03*
%TO.P,U7105,11,O4*%
%TO.N,Net-(TP53-Pad1)*%
X90185000Y-127625000D03*
%TO.P,U7105,12,O3*%
%TO.N,Net-(TP50-Pad1)*%
X87645000Y-127625000D03*
%TO.P,U7105,13,O2*%
%TO.N,Net-(TP26-Pad1)*%
X85105000Y-127625000D03*
%TO.P,U7105,14,O1*%
%TO.N,/UART-~{CS}*%
X82565000Y-127625000D03*
%TO.P,U7105,15,O0*%
%TO.N,Net-(TP41-Pad1)*%
X80025000Y-127625000D03*
%TO.P,U7105,16,VCC*%
%TO.N,VCC*%
X77485000Y-127625000D03*
%TD*%
D14*
%TO.P,TP86,1,1*%
%TO.N,/~{RTS}*%
X150368000Y-56642000D03*
D16*
X151358600Y-56642000D03*
%TD*%
D21*
%TO.P,TP52,1,1*%
%TO.N,Net-(C4-Pad2)*%
X80010000Y-99593400D03*
D14*
X80010000Y-100584000D03*
%TD*%
%TO.P,TP65,1,1*%
%TO.N,/MDB8*%
X163068000Y-64008000D03*
D16*
X164058600Y-64008000D03*
%TD*%
D14*
%TO.P,TP5,1,1*%
%TO.N,/D0*%
X158750000Y-138938000D03*
D16*
X159740600Y-138938000D03*
%TD*%
%TO.P,TP27,1,1*%
%TO.N,/A7*%
X111988600Y-137414000D03*
D14*
X110998000Y-137414000D03*
%TD*%
D16*
%TO.P,TP49,1,1*%
%TO.N,/IOSEL*%
X107670600Y-111760000D03*
D14*
X106680000Y-111760000D03*
%TD*%
%TO.P,TP90,1,1*%
%TO.N,/RXD*%
X139700000Y-94488000D03*
D16*
X140690600Y-94488000D03*
%TD*%
D14*
%TO.P,TP2,1,1*%
%TO.N,/D7*%
X185928000Y-137668000D03*
D16*
X186918600Y-137668000D03*
%TD*%
D14*
%TO.P,TP12,1,1*%
%TO.N,/Data Clock+*%
X173736000Y-124968000D03*
D16*
X174726600Y-124968000D03*
%TD*%
D14*
%TO.P,TP77,1,1*%
%TO.N,/Attention*%
X171958000Y-61722000D03*
D16*
X172948600Y-61722000D03*
%TD*%
D14*
%TO.P,TP39,1,1*%
%TO.N,/A2*%
X80010000Y-138938000D03*
D16*
X81000600Y-138938000D03*
%TD*%
D14*
%TO.P,TP22,1,1*%
%TO.N,/A9*%
X133858000Y-139446000D03*
D16*
X134848600Y-139446000D03*
%TD*%
%TO.P,TP98,1,1*%
%TO.N,Net-(C5-Pad2)*%
X111480600Y-71882000D03*
D14*
X110490000Y-71882000D03*
%TD*%
D16*
%TO.P,TP36,1,1*%
%TO.N,Net-(TP36-Pad1)*%
X115290600Y-120650000D03*
D14*
X114300000Y-120650000D03*
%TD*%
D18*
%TO.P,U7104,1,A0*%
%TO.N,/A4*%
X102885000Y-135245000D03*
D20*
%TO.P,U7104,2,A1*%
%TO.N,/A5*%
X105425000Y-135245000D03*
%TO.P,U7104,3,A2*%
%TO.N,/A6*%
X107965000Y-135245000D03*
%TO.P,U7104,4,E1*%
%TO.N,/A7*%
X110505000Y-135245000D03*
%TO.P,U7104,5,E2*%
%TO.N,/AENb*%
X113045000Y-135245000D03*
%TO.P,U7104,6,E3*%
%TO.N,Net-(TP32-Pad1)*%
X115585000Y-135245000D03*
%TO.P,U7104,7,O7*%
%TO.N,unconnected-(U7104-Pad7)*%
X118125000Y-135245000D03*
%TO.P,U7104,8,GND*%
%TO.N,GND*%
X120665000Y-135245000D03*
%TO.P,U7104,9,O6*%
%TO.N,unconnected-(U7104-Pad9)*%
X120665000Y-127625000D03*
%TO.P,U7104,10,O5*%
%TO.N,unconnected-(U7104-Pad10)*%
X118125000Y-127625000D03*
%TO.P,U7104,11,O4*%
%TO.N,Net-(TP36-Pad1)*%
X115585000Y-127625000D03*
%TO.P,U7104,12,O3*%
%TO.N,Net-(TP35-Pad1)*%
X113045000Y-127625000D03*
%TO.P,U7104,13,O2*%
%TO.N,unconnected-(U7104-Pad13)*%
X110505000Y-127625000D03*
%TO.P,U7104,14,O1*%
%TO.N,Net-(TP34-Pad1)*%
X107965000Y-127625000D03*
%TO.P,U7104,15,O0*%
%TO.N,Net-(TP33-Pad1)*%
X105425000Y-127625000D03*
%TO.P,U7104,16,VCC*%
%TO.N,VCC*%
X102885000Y-127625000D03*
%TD*%
D14*
%TO.P,TP40,1,1*%
%TO.N,/IOACT*%
X83820000Y-130810000D03*
D16*
X84810600Y-130810000D03*
%TD*%
%TO.P,TP58,1,1*%
%TO.N,/Data*%
X182600600Y-102362000D03*
D14*
X181610000Y-102362000D03*
%TD*%
%TO.P,TP7,1,1*%
%TO.N,/D2*%
X163844000Y-138176000D03*
D16*
X164834600Y-138176000D03*
%TD*%
D22*
%TO.P,REF\u002A\u002A,*%
%TO.N,*%
X206375000Y-66675000D03*
%TD*%
D14*
%TO.P,TP60,1,1*%
%TO.N,/Data Clock-*%
X172212000Y-114300000D03*
D16*
X171221400Y-114300000D03*
%TD*%
%TO.P,TP63,1,1*%
%TO.N,/Data+*%
X187172600Y-106680000D03*
D14*
X186182000Y-106680000D03*
%TD*%
D16*
%TO.P,TP72,1,1*%
%TO.N,/MDB1*%
X151358600Y-72898000D03*
D14*
X150368000Y-72898000D03*
%TD*%
D18*
%TO.P,U7112,1,~{R}*%
%TO.N,Net-(TP41-Pad1)*%
X77465000Y-89525000D03*
D20*
%TO.P,U7112,2,D*%
%TO.N,Net-(TP47-Pad1)*%
X80005000Y-89525000D03*
%TO.P,U7112,3,C*%
%TO.N,Net-(TP93-Pad1)*%
X82545000Y-89525000D03*
%TO.P,U7112,4,~{S}*%
%TO.N,VCC*%
X85085000Y-89525000D03*
%TO.P,U7112,5,Q*%
%TO.N,Net-(TP94-Pad1)*%
X87625000Y-89525000D03*
%TO.P,U7112,6,~{Q}*%
%TO.N,Net-(TP47-Pad1)*%
X90165000Y-89525000D03*
%TO.P,U7112,7,GND*%
%TO.N,GND*%
X92705000Y-89525000D03*
%TO.P,U7112,8,~{Q}*%
%TO.N,unconnected-(U7112-Pad8)*%
X92705000Y-81905000D03*
%TO.P,U7112,9,Q*%
%TO.N,Net-(TP96-Pad1)*%
X90165000Y-81905000D03*
%TO.P,U7112,10,~{S}*%
%TO.N,VCC*%
X87625000Y-81905000D03*
%TO.P,U7112,11,C*%
%TO.N,Net-(TP91-Pad1)*%
X85085000Y-81905000D03*
%TO.P,U7112,12,D*%
%TO.N,VCC*%
X82545000Y-81905000D03*
%TO.P,U7112,13,~{R}*%
%TO.N,Net-(TP95-Pad1)*%
X80005000Y-81905000D03*
%TO.P,U7112,14,VCC*%
%TO.N,VCC*%
X77465000Y-81905000D03*
%TD*%
D16*
%TO.P,TP34,1,1*%
%TO.N,Net-(TP34-Pad1)*%
X110210600Y-120650000D03*
D14*
X109220000Y-120650000D03*
%TD*%
%TO.P,TP83,1,1*%
%TO.N,/Command-*%
X202692000Y-80010000D03*
D16*
X203682600Y-80010000D03*
%TD*%
D14*
%TO.P,TP107,1,1*%
%TO.N,Net-(TP107-Pad1)*%
X91694000Y-67310000D03*
D16*
X92684600Y-67310000D03*
%TD*%
D14*
%TO.P,TP4,1,1*%
%TO.N,GND*%
X193548000Y-137922000D03*
D16*
X192557400Y-137922000D03*
%TD*%
D23*
%TO.P,C9,1*%
%TO.N,VCC*%
X148590000Y-61767323D03*
D24*
%TO.P,C9,2*%
%TO.N,GND*%
X148590000Y-66767323D03*
%TD*%
D18*
%TO.P,U7113,1,~{R}*%
%TO.N,Net-(TP50-Pad1)*%
X100325000Y-104765000D03*
D20*
%TO.P,U7113,2,D*%
%TO.N,Net-(R1-Pad2)*%
X102865000Y-104765000D03*
%TO.P,U7113,3,C*%
%TO.N,Net-(R1-Pad1)*%
X105405000Y-104765000D03*
%TO.P,U7113,4,~{S}*%
%TO.N,Net-(TP45-Pad1)*%
X107945000Y-104765000D03*
%TO.P,U7113,5,Q*%
%TO.N,Net-(TP54-Pad1)*%
X110485000Y-104765000D03*
%TO.P,U7113,6,~{Q}*%
%TO.N,unconnected-(U7113-Pad6)*%
X113025000Y-104765000D03*
%TO.P,U7113,7,GND*%
%TO.N,GND*%
X115565000Y-104765000D03*
%TO.P,U7113,8,~{Q}*%
%TO.N,unconnected-(U7113-Pad8)*%
X115565000Y-97145000D03*
%TO.P,U7113,9,Q*%
%TO.N,Net-(TP51-Pad1)*%
X113025000Y-97145000D03*
%TO.P,U7113,10,~{S}*%
%TO.N,Net-(TP41-Pad1)*%
X110485000Y-97145000D03*
%TO.P,U7113,11,C*%
%TO.N,/Data Clock*%
X107945000Y-97145000D03*
%TO.P,U7113,12,D*%
%TO.N,GND*%
X105405000Y-97145000D03*
%TO.P,U7113,13,~{R}*%
%TO.N,VCC*%
X102865000Y-97145000D03*
%TO.P,U7113,14,VCC*%
X100325000Y-97145000D03*
%TD*%
D14*
%TO.P,TP13,1,1*%
%TO.N,/AEN*%
X157480000Y-132334000D03*
D16*
X158470600Y-132334000D03*
%TD*%
D14*
%TO.P,TP11,1,1*%
%TO.N,/D6*%
X173990000Y-132842000D03*
D16*
X174980600Y-132842000D03*
%TD*%
D14*
%TO.P,TP102,1,1*%
%TO.N,/U7116-~{OE}*%
X94234000Y-58166000D03*
D16*
X95224600Y-58166000D03*
%TD*%
D14*
%TO.P,TP26,1,1*%
%TO.N,Net-(TP26-Pad1)*%
X121158000Y-121920000D03*
D16*
X122148600Y-121920000D03*
%TD*%
%TO.P,TP18,1,1*%
%TO.N,/~{IOW}*%
X154660600Y-136398000D03*
D14*
X153670000Y-136398000D03*
%TD*%
%TO.P,TP84,1,1*%
%TO.N,/UART-~{CS}*%
X140208000Y-59436000D03*
D16*
X141198600Y-59436000D03*
%TD*%
D18*
%TO.P,U7108,1*%
%TO.N,/~{DTR}*%
X77465000Y-104765000D03*
D20*
%TO.P,U7108,2*%
%TO.N,Net-(C4-Pad2)*%
X80005000Y-104765000D03*
%TO.P,U7108,3*%
%TO.N,Net-(TP93-Pad1)*%
X82545000Y-104765000D03*
%TO.P,U7108,4*%
%TO.N,/~{RD}*%
X85085000Y-104765000D03*
%TO.P,U7108,5*%
%TO.N,/DMA_ACK*%
X87625000Y-104765000D03*
%TO.P,U7108,6*%
%TO.N,/DMA_READ*%
X90165000Y-104765000D03*
%TO.P,U7108,7,GND*%
%TO.N,GND*%
X92705000Y-104765000D03*
%TO.P,U7108,8*%
%TO.N,/U7116-~{OE}*%
X92705000Y-97145000D03*
%TO.P,U7108,9*%
%TO.N,Net-(TP47-Pad1)*%
X90165000Y-97145000D03*
%TO.P,U7108,10*%
%TO.N,Net-(TP93-Pad1)*%
X87625000Y-97145000D03*
%TO.P,U7108,11*%
%TO.N,/U7117-~{OE}*%
X85085000Y-97145000D03*
%TO.P,U7108,12*%
%TO.N,Net-(TP93-Pad1)*%
X82545000Y-97145000D03*
%TO.P,U7108,13*%
%TO.N,Net-(TP94-Pad1)*%
X80005000Y-97145000D03*
%TO.P,U7108,14,VCC*%
%TO.N,VCC*%
X77465000Y-97145000D03*
%TD*%
D14*
%TO.P,TP62,1,1*%
%TO.N,/Attention+*%
X179070000Y-107950000D03*
D16*
X180060600Y-107950000D03*
%TD*%
D18*
%TO.P,U7116,1,QB*%
%TO.N,/MDB2*%
X148605000Y-89535000D03*
D20*
%TO.P,U7116,2,QC*%
%TO.N,/MDB3*%
X151145000Y-89535000D03*
%TO.P,U7116,3,QD*%
%TO.N,/MDB4*%
X153685000Y-89535000D03*
%TO.P,U7116,4,QE*%
%TO.N,/MDB5*%
X156225000Y-89535000D03*
%TO.P,U7116,5,QF*%
%TO.N,/MDB6*%
X158765000Y-89535000D03*
%TO.P,U7116,6,QG*%
%TO.N,/MDB7*%
X161305000Y-89535000D03*
%TO.P,U7116,7,QH*%
%TO.N,/MDB8*%
X163845000Y-89535000D03*
%TO.P,U7116,8,GND*%
%TO.N,GND*%
X166385000Y-89535000D03*
%TO.P,U7116,9,QH'*%
%TO.N,Net-(TP74-Pad1)*%
X166385000Y-81915000D03*
%TO.P,U7116,10,~{SRCLR}*%
%TO.N,VCC*%
X163845000Y-81915000D03*
%TO.P,U7116,11,SRCLK*%
%TO.N,/Data Clock*%
X161305000Y-81915000D03*
%TO.P,U7116,12,RCLK*%
%TO.N,Net-(TP91-Pad1)*%
X158765000Y-81915000D03*
%TO.P,U7116,13,~{OE}*%
%TO.N,/U7116-~{OE}*%
X156225000Y-81915000D03*
%TO.P,U7116,14,SER*%
%TO.N,/Data*%
X153685000Y-81915000D03*
%TO.P,U7116,15,QA*%
%TO.N,/MDB1*%
X151145000Y-81915000D03*
%TO.P,U7116,16,VCC*%
%TO.N,VCC*%
X148605000Y-81915000D03*
%TD*%
D14*
%TO.P,TP20,1,1*%
%TO.N,/~{RD}*%
X144780000Y-125222000D03*
D16*
X145770600Y-125222000D03*
%TD*%
%TO.P,TP71,1,1*%
%TO.N,/MDB2*%
X148310600Y-77978000D03*
D14*
X147320000Y-77978000D03*
%TD*%
%TO.P,TP44,1,1*%
%TO.N,Net-(TP44-Pad1)*%
X83820000Y-114300000D03*
D16*
X84810600Y-114300000D03*
%TD*%
D21*
%TO.P,TP46,1,1*%
%TO.N,/DMA_READ*%
X89662000Y-108940600D03*
D14*
X89662000Y-107950000D03*
%TD*%
%TO.P,TP9,1,1*%
%TO.N,/D4*%
X167386000Y-138430000D03*
D16*
X168376600Y-138430000D03*
%TD*%
D14*
%TO.P,TP66,1,1*%
%TO.N,/MDB7*%
X159512000Y-68580000D03*
D16*
X160502600Y-68580000D03*
%TD*%
D14*
%TO.P,TP57,1,1*%
%TO.N,Net-(TP57-Pad1)*%
X143510000Y-106680000D03*
D16*
X144500600Y-106680000D03*
%TD*%
D18*
%TO.P,U7121,1*%
%TO.N,/Data Clock-*%
X172735000Y-104765000D03*
D20*
%TO.P,U7121,2*%
%TO.N,/Data Clock+*%
X175275000Y-104765000D03*
%TO.P,U7121,3*%
%TO.N,/Data Clock*%
X177815000Y-104765000D03*
%TO.P,U7121,4*%
%TO.N,GND*%
X180355000Y-104765000D03*
%TO.P,U7121,5*%
%TO.N,/Data*%
X182895000Y-104765000D03*
%TO.P,U7121,6*%
%TO.N,/Data+*%
X185435000Y-104765000D03*
%TO.P,U7121,7*%
%TO.N,/Data-*%
X187975000Y-104765000D03*
%TO.P,U7121,8,GND*%
%TO.N,GND*%
X190515000Y-104765000D03*
%TO.P,U7121,9*%
%TO.N,/Response-*%
X190515000Y-97145000D03*
%TO.P,U7121,10*%
%TO.N,/Response+*%
X187975000Y-97145000D03*
%TO.P,U7121,11*%
%TO.N,/RXD*%
X185435000Y-97145000D03*
%TO.P,U7121,12*%
%TO.N,/~{DTR}*%
X182895000Y-97145000D03*
%TO.P,U7121,13*%
%TO.N,/Attention*%
X180355000Y-97145000D03*
%TO.P,U7121,14*%
%TO.N,/Attention+*%
X177815000Y-97145000D03*
%TO.P,U7121,15*%
%TO.N,/Attention-*%
X175275000Y-97145000D03*
%TO.P,U7121,16,VCC*%
%TO.N,VCC*%
X172735000Y-97145000D03*
%TD*%
D14*
%TO.P,TP103,1,1*%
%TO.N,Net-(TP103-Pad1)*%
X82042000Y-73660000D03*
D16*
X83032600Y-73660000D03*
%TD*%
%TO.P,TP25,1,1*%
%TO.N,/A8b*%
X133070600Y-124968000D03*
D14*
X132080000Y-124968000D03*
%TD*%
D21*
%TO.P,TP89,1,1*%
%TO.N,Net-(TP89-Pad1)*%
X136398000Y-84861400D03*
D14*
X136398000Y-85852000D03*
%TD*%
D16*
%TO.P,TP92,1,1*%
%TO.N,Net-(R3-Pad2)*%
X114528600Y-84582000D03*
D14*
X113538000Y-84582000D03*
%TD*%
D18*
%TO.P,U7111,1*%
%TO.N,Net-(TP26-Pad1)*%
X123185000Y-104775000D03*
D20*
%TO.P,U7111,2*%
%TO.N,Net-(TP54-Pad1)*%
X125725000Y-104775000D03*
%TO.P,U7111,3*%
%TO.N,/MDB1*%
X128265000Y-104775000D03*
%TO.P,U7111,4*%
%TO.N,/~{DTR}*%
X130805000Y-104775000D03*
%TO.P,U7111,5*%
%TO.N,Net-(TP96-Pad1)*%
X133345000Y-104775000D03*
%TO.P,U7111,6*%
%TO.N,/DRQ3*%
X135885000Y-104775000D03*
%TO.P,U7111,7,GND*%
%TO.N,GND*%
X138425000Y-104775000D03*
%TO.P,U7111,8*%
%TO.N,/RXD*%
X138425000Y-97155000D03*
%TO.P,U7111,9*%
%TO.N,/Command*%
X135885000Y-97155000D03*
%TO.P,U7111,10*%
%TO.N,Net-(TP88-Pad1)*%
X133345000Y-97155000D03*
%TO.P,U7111,11*%
%TO.N,Net-(R1-Pad1)*%
X130805000Y-97155000D03*
%TO.P,U7111,12*%
%TO.N,Net-(TP57-Pad1)*%
X128265000Y-97155000D03*
%TO.P,U7111,13*%
%TO.N,Net-(TP97-Pad1)*%
X125725000Y-97155000D03*
%TO.P,U7111,14,VCC*%
%TO.N,VCC*%
X123185000Y-97155000D03*
%TD*%
D18*
%TO.P,U7114,1,~{CP}*%
%TO.N,Net-(C7-Pad1)*%
X121280000Y-70475000D03*
D20*
%TO.P,U7114,2,MR*%
%TO.N,GND*%
X123820000Y-70475000D03*
%TO.P,U7114,3,Q6*%
%TO.N,unconnected-(U7114-Pad3)*%
X126360000Y-70475000D03*
%TO.P,U7114,4,Q5*%
%TO.N,unconnected-(U7114-Pad4)*%
X128900000Y-70475000D03*
%TO.P,U7114,5,Q4*%
%TO.N,unconnected-(U7114-Pad5)*%
X131440000Y-70475000D03*
%TO.P,U7114,6,Q3*%
%TO.N,/CLKp3*%
X133980000Y-70475000D03*
%TO.P,U7114,7,GND*%
%TO.N,GND*%
X136520000Y-70475000D03*
%TO.P,U7114,8*%
%TO.N,unconnected-(U7114-Pad8)*%
X136520000Y-62855000D03*
%TO.P,U7114,9,Q2*%
%TO.N,unconnected-(U7114-Pad9)*%
X133980000Y-62855000D03*
%TO.P,U7114,10*%
%TO.N,unconnected-(U7114-Pad10)*%
X131440000Y-62855000D03*
%TO.P,U7114,11,Q1*%
%TO.N,unconnected-(U7114-Pad11)*%
X128900000Y-62855000D03*
%TO.P,U7114,12,Q0*%
%TO.N,/CLKp0*%
X126360000Y-62855000D03*
%TO.P,U7114,13*%
%TO.N,unconnected-(U7114-Pad13)*%
X123820000Y-62855000D03*
%TO.P,U7114,14,VCC*%
%TO.N,VCC*%
X121280000Y-62855000D03*
%TD*%
D16*
%TO.P,TP56,1,1*%
%TO.N,Net-(TP56-Pad1)*%
X124180600Y-117602000D03*
D14*
X123190000Y-117602000D03*
%TD*%
%TO.P,TP15,1,1*%
%TO.N,/DRQ3*%
X137160000Y-132588000D03*
D16*
X138150600Y-132588000D03*
%TD*%
%TO.P,TP50,1,1*%
%TO.N,Net-(TP50-Pad1)*%
X100050600Y-102870000D03*
D14*
X99060000Y-102870000D03*
%TD*%
%TO.P,TP53,1,1*%
%TO.N,Net-(TP53-Pad1)*%
X92964000Y-101600000D03*
D16*
X93954600Y-101600000D03*
%TD*%
D14*
%TO.P,TP101,1,1*%
%TO.N,Net-(TP101-Pad1)*%
X90932000Y-73660000D03*
D16*
X91922600Y-73660000D03*
%TD*%
D14*
%TO.P,TP81,1,1*%
%TO.N,/Command*%
X191008000Y-63500000D03*
D16*
X191998600Y-63500000D03*
%TD*%
D14*
%TO.P,TP29,1,1*%
%TO.N,/A5*%
X105410000Y-138176000D03*
D16*
X106400600Y-138176000D03*
%TD*%
D15*
%TO.P,TP93,1,1*%
%TO.N,Net-(TP93-Pad1)*%
X84012460Y-86421540D03*
D14*
X83312000Y-87122000D03*
%TD*%
%TO.P,TP55,1,1*%
%TO.N,/~{WR}*%
X145288000Y-115062000D03*
D21*
X145288000Y-114071400D03*
%TD*%
D16*
%TO.P,TP8,1,1*%
%TO.N,/D3*%
X167360600Y-132842000D03*
D14*
X166370000Y-132842000D03*
%TD*%
D16*
%TO.P,TP47,1,1*%
%TO.N,Net-(TP47-Pad1)*%
X110210600Y-109220000D03*
D14*
X109220000Y-109220000D03*
%TD*%
%TO.P,TP42,1,1*%
%TO.N,VCC*%
X75438000Y-131318000D03*
D16*
X76428600Y-131318000D03*
%TD*%
D14*
%TO.P,TP87,1,1*%
%TO.N,Net-(C7-Pad1)*%
X121158000Y-67564000D03*
D16*
X122148600Y-67564000D03*
%TD*%
%TO.P,TP85,1,1*%
%TO.N,/CLKp0*%
X127228600Y-59944000D03*
D14*
X126238000Y-59944000D03*
%TD*%
D16*
%TO.P,TP1,1,1*%
%TO.N,/Attention-*%
X191440600Y-132700000D03*
D14*
X190450000Y-132700000D03*
%TD*%
%TO.P,TP64,1,1*%
%TO.N,/Response+*%
X189230000Y-106680000D03*
D16*
X190220600Y-106680000D03*
%TD*%
D14*
%TO.P,TP3,1,1*%
%TO.N,VCC*%
X180848000Y-133350000D03*
D16*
X181838600Y-133350000D03*
%TD*%
D14*
%TO.P,TP33,1,1*%
%TO.N,Net-(TP33-Pad1)*%
X106680000Y-123190000D03*
D16*
X107670600Y-123190000D03*
%TD*%
%TO.P,TP19,1,1*%
%TO.N,/AENb*%
X150342600Y-129794000D03*
D14*
X149352000Y-129794000D03*
%TD*%
D16*
%TO.P,TP6,1,1*%
%TO.N,/D1*%
X162280600Y-132588000D03*
D14*
X161290000Y-132588000D03*
%TD*%
%TO.P,TP28,1,1*%
%TO.N,/A6*%
X105918000Y-132080000D03*
D16*
X106908600Y-132080000D03*
%TD*%
D14*
%TO.P,TP99,1,1*%
%TO.N,Net-(C6-Pad2)*%
X99822000Y-71882000D03*
D16*
X100812600Y-71882000D03*
%TD*%
D18*
%TO.P,U7101,1,A->B*%
%TO.N,/~{RD}*%
X156210000Y-135255000D03*
D20*
%TO.P,U7101,2,A0*%
%TO.N,/D0*%
X158750000Y-135255000D03*
%TO.P,U7101,3,A1*%
%TO.N,/D1*%
X161290000Y-135255000D03*
%TO.P,U7101,4,A2*%
%TO.N,/D2*%
X163830000Y-135255000D03*
%TO.P,U7101,5,A3*%
%TO.N,/D3*%
X166370000Y-135255000D03*
%TO.P,U7101,6,A4*%
%TO.N,/D4*%
X168910000Y-135255000D03*
%TO.P,U7101,7,A5*%
%TO.N,/D5*%
X171450000Y-135255000D03*
%TO.P,U7101,8,A6*%
%TO.N,/D6*%
X173990000Y-135255000D03*
%TO.P,U7101,9,A7*%
%TO.N,/D7*%
X176530000Y-135255000D03*
%TO.P,U7101,10,GND*%
%TO.N,GND*%
X179070000Y-135255000D03*
%TO.P,U7101,11,B7*%
%TO.N,/MDB1*%
X179070000Y-127635000D03*
%TO.P,U7101,12,B6*%
%TO.N,/MDB2*%
X176530000Y-127635000D03*
%TO.P,U7101,13,B5*%
%TO.N,/MDB3*%
X173990000Y-127635000D03*
%TO.P,U7101,14,B4*%
%TO.N,/MDB4*%
X171450000Y-127635000D03*
%TO.P,U7101,15,B3*%
%TO.N,/MDB5*%
X168910000Y-127635000D03*
%TO.P,U7101,16,B2*%
%TO.N,/MDB6*%
X166370000Y-127635000D03*
%TO.P,U7101,17,B1*%
%TO.N,/MDB7*%
X163830000Y-127635000D03*
%TO.P,U7101,18,B0*%
%TO.N,/MDB8*%
X161290000Y-127635000D03*
%TO.P,U7101,19,CE*%
%TO.N,Net-(TP14-Pad1)*%
X158750000Y-127635000D03*
%TO.P,U7101,20,VCC*%
%TO.N,VCC*%
X156210000Y-127635000D03*
%TD*%
D14*
%TO.P,TP37,1,1*%
%TO.N,/U7117-~{OE}*%
X97282000Y-120650000D03*
D16*
X98272600Y-120650000D03*
%TD*%
D14*
%TO.P,TP104,1,1*%
%TO.N,Net-(TP104-Pad1)*%
X85090000Y-74930000D03*
D15*
X85790460Y-74229540D03*
%TD*%
D16*
%TO.P,TP35,1,1*%
%TO.N,Net-(TP35-Pad1)*%
X112750600Y-123190000D03*
D14*
X111760000Y-123190000D03*
%TD*%
%TO.P,TP45,1,1*%
%TO.N,Net-(TP45-Pad1)*%
X93472000Y-115062000D03*
D21*
X93472000Y-114071400D03*
%TD*%
D16*
%TO.P,TP32,1,1*%
%TO.N,Net-(TP32-Pad1)*%
X117830600Y-123190000D03*
D14*
X116840000Y-123190000D03*
%TD*%
D16*
%TO.P,TP31,1,1*%
%TO.N,/A3*%
X98780600Y-137160000D03*
D14*
X97790000Y-137160000D03*
%TD*%
%TO.P,TP95,1,1*%
%TO.N,Net-(TP95-Pad1)*%
X78994000Y-84836000D03*
D16*
X79984600Y-84836000D03*
%TD*%
%TO.P,TP76,1,1*%
%TO.N,/~{DTR}*%
X169138600Y-61722000D03*
D14*
X168148000Y-61722000D03*
%TD*%
D18*
%TO.P,U7120,1*%
%TO.N,VCC*%
X172735000Y-89535000D03*
D20*
%TO.P,U7120,2*%
%TO.N,unconnected-(U7120-Pad2)*%
X175275000Y-89535000D03*
%TO.P,U7120,3*%
%TO.N,unconnected-(U7120-Pad3)*%
X177815000Y-89535000D03*
%TO.P,U7120,4*%
%TO.N,GND*%
X180355000Y-89535000D03*
%TO.P,U7120,5*%
%TO.N,unconnected-(U7120-Pad5)*%
X182895000Y-89535000D03*
%TO.P,U7120,6*%
%TO.N,unconnected-(U7120-Pad6)*%
X185435000Y-89535000D03*
%TO.P,U7120,7*%
%TO.N,VCC*%
X187975000Y-89535000D03*
%TO.P,U7120,8,GND*%
%TO.N,GND*%
X190515000Y-89535000D03*
%TO.P,U7120,9*%
%TO.N,/Command*%
X190515000Y-81915000D03*
%TO.P,U7120,10*%
%TO.N,/Command+*%
X187975000Y-81915000D03*
%TO.P,U7120,11*%
%TO.N,/Command-*%
X185435000Y-81915000D03*
%TO.P,U7120,12*%
%TO.N,GND*%
X182895000Y-81915000D03*
%TO.P,U7120,13*%
%TO.N,unconnected-(U7120-Pad13)*%
X180355000Y-81915000D03*
%TO.P,U7120,14*%
%TO.N,unconnected-(U7120-Pad14)*%
X177815000Y-81915000D03*
%TO.P,U7120,15*%
%TO.N,VCC*%
X175275000Y-81915000D03*
%TO.P,U7120,16,VCC*%
X172735000Y-81915000D03*
%TD*%
D14*
%TO.P,TP73,1,1*%
%TO.N,/Command+*%
X197104000Y-92964000D03*
D16*
X198094600Y-92964000D03*
%TD*%
D14*
%TO.P,TP69,1,1*%
%TO.N,/MDB4*%
X165862000Y-77978000D03*
D16*
X166852600Y-77978000D03*
%TD*%
D25*
%TO.P,X2,1,Pin_1*%
%TO.N,Net-(TP33-Pad1)*%
X106690000Y-117480000D03*
D26*
%TO.P,X2,2,Pin_2*%
%TO.N,/IOSEL*%
X106690000Y-114940000D03*
%TO.P,X2,3,Pin_3*%
%TO.N,Net-(TP34-Pad1)*%
X109230000Y-117480000D03*
%TO.P,X2,4,Pin_4*%
%TO.N,/IOSEL*%
X109230000Y-114940000D03*
%TO.P,X2,5,Pin_5*%
%TO.N,Net-(TP35-Pad1)*%
X111770000Y-117480000D03*
%TO.P,X2,6,Pin_6*%
%TO.N,/IOSEL*%
X111770000Y-114940000D03*
%TO.P,X2,7,Pin_7*%
%TO.N,Net-(TP36-Pad1)*%
X114310000Y-117480000D03*
%TO.P,X2,8,Pin_8*%
%TO.N,/IOSEL*%
X114310000Y-114940000D03*
%TD*%
D18*
%TO.P,U7109,1,OEa*%
%TO.N,Net-(TP88-Pad1)*%
X123205000Y-89545000D03*
D20*
%TO.P,U7109,2,I1*%
%TO.N,Net-(TP53-Pad1)*%
X125745000Y-89545000D03*
%TO.P,U7109,3,O1a*%
%TO.N,Net-(TP89-Pad1)*%
X128285000Y-89545000D03*
%TO.P,U7109,4,I2*%
%TO.N,Net-(TP108-Pad1)*%
X130825000Y-89545000D03*
%TO.P,U7109,5,O2a*%
%TO.N,/Data*%
X133365000Y-89545000D03*
%TO.P,U7109,6,I3*%
%TO.N,Net-(TP89-Pad1)*%
X135905000Y-89545000D03*
%TO.P,U7109,7,O3a*%
%TO.N,/Data Clock*%
X138445000Y-89545000D03*
%TO.P,U7109,8,GND*%
%TO.N,GND*%
X140985000Y-89545000D03*
%TO.P,U7109,9,O4a*%
%TO.N,/Attention*%
X140985000Y-81925000D03*
%TO.P,U7109,10,I4*%
%TO.N,Net-(TP103-Pad1)*%
X138445000Y-81925000D03*
%TO.P,U7109,11,O5b*%
%TO.N,Net-(TP101-Pad1)*%
X135905000Y-81925000D03*
%TO.P,U7109,12,I5*%
%TO.N,/Attention*%
X133365000Y-81925000D03*
%TO.P,U7109,13,O6b*%
%TO.N,Net-(TP105-Pad1)*%
X130825000Y-81925000D03*
%TO.P,U7109,14,I6*%
%TO.N,Net-(TP41-Pad1)*%
X128285000Y-81925000D03*
%TO.P,U7109,15,OEb*%
%TO.N,GND*%
X125745000Y-81925000D03*
%TO.P,U7109,16,VCC*%
%TO.N,VCC*%
X123205000Y-81925000D03*
%TD*%
D16*
%TO.P,TP61,1,1*%
%TO.N,/Data-*%
X185191400Y-101600000D03*
D14*
X186182000Y-101600000D03*
%TD*%
%TO.P,TP23,1,1*%
%TO.N,/A8*%
X134620000Y-130302000D03*
D16*
X135610600Y-130302000D03*
%TD*%
%TO.P,TP88,1,1*%
%TO.N,Net-(TP88-Pad1)*%
X118846600Y-90678000D03*
D14*
X117856000Y-90678000D03*
%TD*%
D16*
%TO.P,TP59,1,1*%
%TO.N,/Response-*%
X183362600Y-113792000D03*
D14*
X182372000Y-113792000D03*
%TD*%
D16*
%TO.P,TP16,1,1*%
%TO.N,/~{DACK3}*%
X141706600Y-137668000D03*
D14*
X140716000Y-137668000D03*
%TD*%
D16*
%TO.P,TP82,1,1*%
%TO.N,/Data Clock*%
X162788600Y-70612000D03*
D14*
X161798000Y-70612000D03*
%TD*%
%TO.P,TP79,1,1*%
%TO.N,GND*%
X193548000Y-66040000D03*
D16*
X194538600Y-66040000D03*
%TD*%
D14*
%TO.P,TP10,1,1*%
%TO.N,/D5*%
X173990000Y-130048000D03*
D16*
X174980600Y-130048000D03*
%TD*%
D18*
%TO.P,U7115,1,~{CP}*%
%TO.N,Net-(TP100-Pad1)*%
X77470000Y-70475000D03*
D20*
%TO.P,U7115,2,MR*%
%TO.N,Net-(TP105-Pad1)*%
X80010000Y-70475000D03*
%TO.P,U7115,3,Q6*%
%TO.N,Net-(TP103-Pad1)*%
X82550000Y-70475000D03*
%TO.P,U7115,4,Q5*%
%TO.N,Net-(TP104-Pad1)*%
X85090000Y-70475000D03*
%TO.P,U7115,5,Q4*%
%TO.N,unconnected-(U7115-Pad5)*%
X87630000Y-70475000D03*
%TO.P,U7115,6,Q3*%
%TO.N,Net-(TP107-Pad1)*%
X90170000Y-70475000D03*
%TO.P,U7115,7,GND*%
%TO.N,GND*%
X92710000Y-70475000D03*
%TO.P,U7115,8*%
%TO.N,unconnected-(U7115-Pad8)*%
X92710000Y-62855000D03*
%TO.P,U7115,9,Q2*%
%TO.N,Net-(TP106-Pad1)*%
X90170000Y-62855000D03*
%TO.P,U7115,10*%
%TO.N,unconnected-(U7115-Pad10)*%
X87630000Y-62855000D03*
%TO.P,U7115,11,Q1*%
%TO.N,unconnected-(U7115-Pad11)*%
X85090000Y-62855000D03*
%TO.P,U7115,12,Q0*%
%TO.N,Net-(TP108-Pad1)*%
X82550000Y-62855000D03*
%TO.P,U7115,13*%
%TO.N,unconnected-(U7115-Pad13)*%
X80010000Y-62855000D03*
%TO.P,U7115,14,VCC*%
%TO.N,VCC*%
X77470000Y-62855000D03*
%TD*%
D27*
%TO.P,X-TAL1,1,1*%
%TO.N,Net-(C5-Pad2)*%
X106680000Y-74295000D03*
%TO.P,X-TAL1,2,2*%
%TO.N,Net-(C6-Pad2)*%
X102880000Y-74295000D03*
%TD*%
D18*
%TO.P,U7117,1,QB*%
%TO.N,/MDB2*%
X148605000Y-104765000D03*
D20*
%TO.P,U7117,2,QC*%
%TO.N,/MDB3*%
X151145000Y-104765000D03*
%TO.P,U7117,3,QD*%
%TO.N,/MDB4*%
X153685000Y-104765000D03*
%TO.P,U7117,4,QE*%
%TO.N,/MDB5*%
X156225000Y-104765000D03*
%TO.P,U7117,5,QF*%
%TO.N,/MDB6*%
X158765000Y-104765000D03*
%TO.P,U7117,6,QG*%
%TO.N,/MDB7*%
X161305000Y-104765000D03*
%TO.P,U7117,7,QH*%
%TO.N,/MDB8*%
X163845000Y-104765000D03*
%TO.P,U7117,8,GND*%
%TO.N,GND*%
X166385000Y-104765000D03*
%TO.P,U7117,9,QH'*%
%TO.N,unconnected-(U7117-Pad9)*%
X166385000Y-97145000D03*
%TO.P,U7117,10,~{SRCLR}*%
%TO.N,VCC*%
X163845000Y-97145000D03*
%TO.P,U7117,11,SRCLK*%
%TO.N,/Data Clock*%
X161305000Y-97145000D03*
%TO.P,U7117,12,RCLK*%
%TO.N,Net-(TP91-Pad1)*%
X158765000Y-97145000D03*
%TO.P,U7117,13,~{OE}*%
%TO.N,/U7117-~{OE}*%
X156225000Y-97145000D03*
%TO.P,U7117,14,SER*%
%TO.N,Net-(TP74-Pad1)*%
X153685000Y-97145000D03*
%TO.P,U7117,15,QA*%
%TO.N,/MDB1*%
X151145000Y-97145000D03*
%TO.P,U7117,16,VCC*%
%TO.N,VCC*%
X148605000Y-97145000D03*
%TD*%
D14*
%TO.P,TP70,1,1*%
%TO.N,/MDB3*%
X171958000Y-71120000D03*
D16*
X172948600Y-71120000D03*
%TD*%
%TO.P,TP108,1,1*%
%TO.N,Net-(TP108-Pad1)*%
X86080600Y-58420000D03*
D14*
X85090000Y-58420000D03*
%TD*%
D18*
%TO.P,U7118,1,QB*%
%TO.N,/MDB2*%
X148605000Y-120005000D03*
D20*
%TO.P,U7118,2,QC*%
%TO.N,/MDB3*%
X151145000Y-120005000D03*
%TO.P,U7118,3,QD*%
%TO.N,/MDB4*%
X153685000Y-120005000D03*
%TO.P,U7118,4,QE*%
%TO.N,/MDB5*%
X156225000Y-120005000D03*
%TO.P,U7118,5,QF*%
%TO.N,/MDB6*%
X158765000Y-120005000D03*
%TO.P,U7118,6,QG*%
%TO.N,/MDB7*%
X161305000Y-120005000D03*
%TO.P,U7118,7,QH*%
%TO.N,/MDB8*%
X163845000Y-120005000D03*
%TO.P,U7118,8,GND*%
%TO.N,GND*%
X166385000Y-120005000D03*
%TO.P,U7118,9,QH'*%
%TO.N,unconnected-(U7118-Pad9)*%
X166385000Y-112385000D03*
%TO.P,U7118,10,~{SRCLR}*%
%TO.N,VCC*%
X163845000Y-112385000D03*
%TO.P,U7118,11,SRCLK*%
%TO.N,Net-(TP106-Pad1)*%
X161305000Y-112385000D03*
%TO.P,U7118,12,RCLK*%
%TO.N,Net-(TP57-Pad1)*%
X158765000Y-112385000D03*
%TO.P,U7118,13,~{OE}*%
%TO.N,Net-(TP50-Pad1)*%
X156225000Y-112385000D03*
%TO.P,U7118,14,SER*%
%TO.N,/Attention*%
X153685000Y-112385000D03*
%TO.P,U7118,15,QA*%
%TO.N,/MDB1*%
X151145000Y-112385000D03*
%TO.P,U7118,16,VCC*%
%TO.N,VCC*%
X148605000Y-112385000D03*
%TD*%
D25*
%TO.P,X5,1,Pin_1*%
%TO.N,/RXD*%
X198120000Y-59055000D03*
D26*
%TO.P,X5,2,Pin_2*%
%TO.N,GND*%
X200660000Y-59055000D03*
%TO.P,X5,3,Pin_3*%
%TO.N,/Command*%
X198120000Y-61595000D03*
%TO.P,X5,4,Pin_4*%
%TO.N,GND*%
X200660000Y-61595000D03*
%TO.P,X5,5,Pin_5*%
%TO.N,/Data*%
X198120000Y-64135000D03*
%TO.P,X5,6,Pin_6*%
%TO.N,unconnected-(X5-Pad6)*%
X200660000Y-64135000D03*
%TO.P,X5,7,Pin_7*%
%TO.N,/Data Clock*%
X198120000Y-66675000D03*
%TO.P,X5,8,Pin_8*%
%TO.N,unconnected-(X5-Pad8)*%
X200660000Y-66675000D03*
%TO.P,X5,9,Pin_9*%
%TO.N,/Attention*%
X198120000Y-69215000D03*
%TO.P,X5,10,Pin_10*%
%TO.N,unconnected-(X5-Pad10)*%
X200660000Y-69215000D03*
%TO.P,X5,11,Pin_11*%
%TO.N,unconnected-(X5-Pad11)*%
X198120000Y-71755000D03*
%TO.P,X5,12,Pin_12*%
%TO.N,unconnected-(X5-Pad12)*%
X200660000Y-71755000D03*
%TO.P,X5,13,Pin_13*%
%TO.N,unconnected-(X5-Pad13)*%
X198120000Y-74295000D03*
%TO.P,X5,14,Pin_14*%
%TO.N,unconnected-(X5-Pad14)*%
X200660000Y-74295000D03*
%TO.P,X5,15,Pin_15*%
%TO.N,GND*%
X198120000Y-76835000D03*
%TO.P,X5,16,Pin_16*%
X200660000Y-76835000D03*
%TD*%
D14*
%TO.P,TP41,1,1*%
%TO.N,Net-(TP41-Pad1)*%
X78740000Y-123952000D03*
D16*
X79730600Y-123952000D03*
%TD*%
%TO.P,TP80,1,1*%
%TO.N,/RESETDRV*%
X176758600Y-57150000D03*
D14*
X175768000Y-57150000D03*
%TD*%
%TO.P,TP94,1,1*%
%TO.N,Net-(TP94-Pad1)*%
X87122000Y-93980000D03*
D16*
X88112600Y-93980000D03*
%TD*%
%TO.P,TP30,1,1*%
%TO.N,/A4*%
X103098600Y-138938000D03*
D14*
X102108000Y-138938000D03*
%TD*%
%TO.P,TP21,1,1*%
%TO.N,/A9b*%
X142748000Y-120650000D03*
D16*
X143738600Y-120650000D03*
%TD*%
D18*
%TO.P,U7106,1*%
%TO.N,Net-(TP56-Pad1)*%
X123185000Y-120005000D03*
D20*
%TO.P,U7106,2*%
%TO.N,Net-(TP93-Pad1)*%
X125725000Y-120005000D03*
%TO.P,U7106,3*%
%TO.N,Net-(TP14-Pad1)*%
X128265000Y-120005000D03*
%TO.P,U7106,4*%
%TO.N,/~{RD}*%
X130805000Y-120005000D03*
%TO.P,U7106,5*%
%TO.N,/~{WR}*%
X133345000Y-120005000D03*
%TO.P,U7106,6*%
%TO.N,/IOACT*%
X135885000Y-120005000D03*
%TO.P,U7106,7,GND*%
%TO.N,GND*%
X138425000Y-120005000D03*
%TO.P,U7106,8*%
%TO.N,Net-(TP32-Pad1)*%
X138425000Y-112385000D03*
%TO.P,U7106,9*%
%TO.N,/A9b*%
X135885000Y-112385000D03*
%TO.P,U7106,10*%
%TO.N,/A8b*%
X133345000Y-112385000D03*
%TO.P,U7106,11*%
%TO.N,Net-(TP95-Pad1)*%
X130805000Y-112385000D03*
%TO.P,U7106,12*%
%TO.N,Net-(TP41-Pad1)*%
X128265000Y-112385000D03*
%TO.P,U7106,13*%
%TO.N,Net-(TP47-Pad1)*%
X125725000Y-112385000D03*
%TO.P,U7106,14,VCC*%
%TO.N,VCC*%
X123185000Y-112385000D03*
%TD*%
D14*
%TO.P,TP97,1,1*%
%TO.N,Net-(TP97-Pad1)*%
X108712000Y-86360000D03*
D16*
X109702600Y-86360000D03*
%TD*%
D18*
%TO.P,U7119,1,D2*%
%TO.N,/MDB6*%
X158100000Y-74300000D03*
D20*
%TO.P,U7119,2,D3*%
%TO.N,/MDB5*%
X160640000Y-74300000D03*
%TO.P,U7119,3,RXD*%
%TO.N,/RXD*%
X163180000Y-74300000D03*
%TO.P,U7119,4,GND*%
%TO.N,GND*%
X165720000Y-74300000D03*
%TO.P,U7119,5,D4*%
%TO.N,/MDB4*%
X168260000Y-74300000D03*
%TO.P,U7119,6,D5*%
%TO.N,/MDB3*%
X170800000Y-74300000D03*
%TO.P,U7119,7,D6*%
%TO.N,/MDB2*%
X173340000Y-74300000D03*
%TO.P,U7119,8,D7*%
%TO.N,/MDB1*%
X175880000Y-74300000D03*
%TO.P,U7119,9,~{TXC}*%
%TO.N,/CLKp3*%
X178420000Y-74300000D03*
%TO.P,U7119,10,~{WR}*%
%TO.N,/~{WR}*%
X180960000Y-74300000D03*
%TO.P,U7119,11,~{CS}*%
%TO.N,/UART-~{CS}*%
X183500000Y-74300000D03*
%TO.P,U7119,12,C/~{D}*%
%TO.N,/A0b*%
X186040000Y-74300000D03*
%TO.P,U7119,13,~{RD}*%
%TO.N,/~{RD}*%
X188580000Y-74300000D03*
%TO.P,U7119,14,RXRDY*%
%TO.N,unconnected-(U7119-Pad14)*%
X191120000Y-74300000D03*
%TO.P,U7119,15,TXRDY*%
%TO.N,unconnected-(U7119-Pad15)*%
X191120000Y-59060000D03*
%TO.P,U7119,16,SYNDET*%
%TO.N,unconnected-(U7119-Pad16)*%
X188580000Y-59060000D03*
%TO.P,U7119,17,~{CTS}*%
%TO.N,GND*%
X186040000Y-59060000D03*
%TO.P,U7119,18,TXE*%
%TO.N,unconnected-(U7119-Pad18)*%
X183500000Y-59060000D03*
%TO.P,U7119,19,TXD*%
%TO.N,/Command*%
X180960000Y-59060000D03*
%TO.P,U7119,20,CLK*%
%TO.N,/CLKp0*%
X178420000Y-59060000D03*
%TO.P,U7119,21,RESET*%
%TO.N,/RESETDRV*%
X175880000Y-59060000D03*
%TO.P,U7119,22,~{DSR}*%
%TO.N,/Attention*%
X173340000Y-59060000D03*
%TO.P,U7119,23,~{RTS}*%
%TO.N,/~{RTS}*%
X170800000Y-59060000D03*
%TO.P,U7119,24,~{DTR}*%
%TO.N,/~{DTR}*%
X168260000Y-59060000D03*
%TO.P,U7119,25,~{RXC}*%
%TO.N,/CLKp3*%
X165720000Y-59060000D03*
%TO.P,U7119,26,Vcc*%
%TO.N,VCC*%
X163180000Y-59060000D03*
%TO.P,U7119,27,D0*%
%TO.N,/MDB8*%
X160640000Y-59060000D03*
%TO.P,U7119,28,D1*%
%TO.N,/MDB7*%
X158100000Y-59060000D03*
%TD*%
D14*
%TO.P,TP14,1,1*%
%TO.N,Net-(TP14-Pad1)*%
X159258000Y-130048000D03*
D16*
X160248600Y-130048000D03*
%TD*%
D18*
%TO.P,U7110,1*%
%TO.N,Net-(TP107-Pad1)*%
X100325000Y-89525000D03*
D20*
%TO.P,U7110,2*%
%TO.N,Net-(TP91-Pad1)*%
X102865000Y-89525000D03*
%TO.P,U7110,3*%
%TO.N,/~{RTS}*%
X105405000Y-89525000D03*
%TO.P,U7110,4*%
%TO.N,Net-(TP97-Pad1)*%
X107945000Y-89525000D03*
%TO.P,U7110,5*%
%TO.N,/~{DTR}*%
X110485000Y-89525000D03*
%TO.P,U7110,6*%
%TO.N,Net-(TP88-Pad1)*%
X113025000Y-89525000D03*
%TO.P,U7110,7,GND*%
%TO.N,GND*%
X115565000Y-89525000D03*
%TO.P,U7110,8*%
%TO.N,Net-(R3-Pad2)*%
X115565000Y-81905000D03*
%TO.P,U7110,9*%
%TO.N,Net-(C6-Pad2)*%
X113025000Y-81905000D03*
%TO.P,U7110,10*%
X110485000Y-81905000D03*
%TO.P,U7110,11*%
%TO.N,Net-(C5-Pad2)*%
X107945000Y-81905000D03*
%TO.P,U7110,12*%
%TO.N,Net-(TP57-Pad1)*%
X105405000Y-81905000D03*
%TO.P,U7110,13*%
%TO.N,Net-(TP104-Pad1)*%
X102865000Y-81905000D03*
%TO.P,U7110,14,VCC*%
%TO.N,VCC*%
X100325000Y-81905000D03*
%TD*%
D14*
%TO.P,TP67,1,1*%
%TO.N,/MDB6*%
X156972000Y-92202000D03*
D16*
X157962600Y-92202000D03*
%TD*%
D18*
%TO.P,U7107,1*%
%TO.N,/Data Clock*%
X77465000Y-120005000D03*
D20*
%TO.P,U7107,2*%
%TO.N,Net-(TP51-Pad1)*%
X80005000Y-120005000D03*
%TO.P,U7107,3*%
%TO.N,Net-(TP100-Pad1)*%
X82545000Y-120005000D03*
%TO.P,U7107,4*%
%TO.N,/IOACT*%
X85085000Y-120005000D03*
%TO.P,U7107,5*%
%TO.N,/IOSEL*%
X87625000Y-120005000D03*
%TO.P,U7107,6*%
%TO.N,Net-(TP56-Pad1)*%
X90165000Y-120005000D03*
%TO.P,U7107,7,GND*%
%TO.N,GND*%
X92705000Y-120005000D03*
%TO.P,U7107,8*%
%TO.N,Net-(TP45-Pad1)*%
X92705000Y-112385000D03*
%TO.P,U7107,9*%
%TO.N,Net-(TP101-Pad1)*%
X90165000Y-112385000D03*
%TO.P,U7107,10*%
%TO.N,Net-(TP44-Pad1)*%
X87625000Y-112385000D03*
%TO.P,U7107,11*%
X85085000Y-112385000D03*
%TO.P,U7107,12*%
%TO.N,/~{RTS}*%
X82545000Y-112385000D03*
%TO.P,U7107,13*%
%TO.N,Net-(TP51-Pad1)*%
X80005000Y-112385000D03*
%TO.P,U7107,14,VCC*%
%TO.N,VCC*%
X77465000Y-112385000D03*
%TD*%
D16*
%TO.P,TP96,1,1*%
%TO.N,Net-(TP96-Pad1)*%
X91922600Y-85598000D03*
D14*
X90932000Y-85598000D03*
%TD*%
%TO.P,TP100,1,1*%
%TO.N,Net-(TP100-Pad1)*%
X77470000Y-73914000D03*
D16*
X78460600Y-73914000D03*
%TD*%
D14*
%TO.P,TP48,1,1*%
%TO.N,Net-(R1-Pad1)*%
X105410000Y-107442000D03*
D16*
X106400600Y-107442000D03*
%TD*%
%TO.P,TP106,1,1*%
%TO.N,Net-(TP106-Pad1)*%
X89890600Y-59690000D03*
D14*
X88900000Y-59690000D03*
%TD*%
D16*
%TO.P,TP74,1,1*%
%TO.N,Net-(TP74-Pad1)*%
X166179500Y-99110800D03*
D14*
X165188900Y-99110800D03*
%TD*%
D28*
%TO.P,R16,1*%
%TO.N,/Attention+*%
X181802500Y-119380000D03*
%TO.P,R16,2*%
%TO.N,GND*%
X178877500Y-119380000D03*
%TD*%
D29*
%TO.P,R1,1*%
%TO.N,Net-(R1-Pad1)*%
X105410000Y-102427500D03*
%TO.P,R1,2*%
%TO.N,Net-(R1-Pad2)*%
X105410000Y-99502500D03*
%TD*%
D30*
%TO.P,C6,1*%
%TO.N,GND*%
X100584000Y-66499000D03*
%TO.P,C6,2*%
%TO.N,Net-(C6-Pad2)*%
X100584000Y-63549000D03*
%TD*%
D31*
%TO.P,C4,1*%
%TO.N,GND*%
X76630000Y-102235000D03*
%TO.P,C4,2*%
%TO.N,Net-(C4-Pad2)*%
X79580000Y-102235000D03*
%TD*%
D28*
%TO.P,R14,1*%
%TO.N,/Data Clock+*%
X188976000Y-125730000D03*
%TO.P,R14,2*%
%TO.N,GND*%
X186051000Y-125730000D03*
%TD*%
%TO.P,R5,1*%
%TO.N,/Response-*%
X181802500Y-116205000D03*
%TO.P,R5,2*%
%TO.N,GND*%
X178877500Y-116205000D03*
%TD*%
D32*
%TO.P,C3,1*%
%TO.N,VCC*%
X140970000Y-99490000D03*
%TO.P,C3,2*%
%TO.N,GND*%
X140970000Y-102440000D03*
%TD*%
%TO.P,C1,1*%
%TO.N,VCC*%
X97790000Y-84250000D03*
%TO.P,C1,2*%
%TO.N,GND*%
X97790000Y-87200000D03*
%TD*%
D28*
%TO.P,R12,1*%
%TO.N,/Data+*%
X188787500Y-119380000D03*
%TO.P,R12,2*%
%TO.N,GND*%
X185862500Y-119380000D03*
%TD*%
%TO.P,R9,1*%
%TO.N,/Response+*%
X188787500Y-113030000D03*
%TO.P,R9,2*%
%TO.N,VCC*%
X185862500Y-113030000D03*
%TD*%
%TO.P,R15,1*%
%TO.N,/Attention+*%
X181802500Y-123190000D03*
%TO.P,R15,2*%
%TO.N,VCC*%
X178877500Y-123190000D03*
%TD*%
D33*
%TO.P,R4,1*%
%TO.N,Net-(C4-Pad2)*%
X86802500Y-102235000D03*
%TO.P,R4,2*%
%TO.N,/DMA_READ*%
X89727500Y-102235000D03*
%TD*%
D28*
%TO.P,R11,1*%
%TO.N,/Data+*%
X188787500Y-116205000D03*
%TO.P,R11,2*%
%TO.N,VCC*%
X185862500Y-116205000D03*
%TD*%
D32*
%TO.P,C2,1*%
%TO.N,VCC*%
X140970000Y-114730000D03*
%TO.P,C2,2*%
%TO.N,GND*%
X140970000Y-117680000D03*
%TD*%
D30*
%TO.P,C8,1*%
%TO.N,GND*%
X139065000Y-68150000D03*
%TO.P,C8,2*%
%TO.N,VCC*%
X139065000Y-65200000D03*
%TD*%
D32*
%TO.P,C7,1*%
%TO.N,Net-(C7-Pad1)*%
X118745000Y-70915000D03*
%TO.P,C7,2*%
%TO.N,GND*%
X118745000Y-73865000D03*
%TD*%
D28*
%TO.P,R10,1*%
%TO.N,/Response+*%
X188787500Y-109855000D03*
%TO.P,R10,2*%
%TO.N,GND*%
X185862500Y-109855000D03*
%TD*%
D33*
%TO.P,R2,1*%
%TO.N,Net-(C6-Pad2)*%
X104140000Y-70485000D03*
%TO.P,R2,2*%
%TO.N,Net-(C5-Pad2)*%
X107065000Y-70485000D03*
%TD*%
D34*
%TO.P,R3,1*%
%TO.N,Net-(C7-Pad1)*%
X115570000Y-70927500D03*
%TO.P,R3,2*%
%TO.N,Net-(R3-Pad2)*%
X115570000Y-73852500D03*
%TD*%
D30*
%TO.P,C5,1*%
%TO.N,GND*%
X110236000Y-66499000D03*
%TO.P,C5,2*%
%TO.N,Net-(C5-Pad2)*%
X110236000Y-63549000D03*
%TD*%
D28*
%TO.P,R7,1*%
%TO.N,/Data Clock-*%
X173547500Y-122555000D03*
%TO.P,R7,2*%
%TO.N,GND*%
X170622500Y-122555000D03*
%TD*%
%TO.P,R13,1*%
%TO.N,/Data Clock+*%
X188853000Y-122428000D03*
%TO.P,R13,2*%
%TO.N,VCC*%
X185928000Y-122428000D03*
%TD*%
%TO.P,R6,1*%
%TO.N,/Data-*%
X173547500Y-119380000D03*
%TO.P,R6,2*%
%TO.N,GND*%
X170622500Y-119380000D03*
%TD*%
%TO.P,R8,1*%
%TO.N,/Attention-*%
X188914500Y-129032000D03*
%TO.P,R8,2*%
%TO.N,GND*%
X185989500Y-129032000D03*
%TD*%
D35*
%TO.N,/A0*%
X106680000Y-140335000D03*
%TO.N,/A1*%
X109220000Y-132080000D03*
X109220000Y-139889500D03*
%TO.N,/A3*%
X119380000Y-126365000D03*
X114935000Y-139700000D03*
X101600000Y-126365000D03*
%TO.N,/A8*%
X131445000Y-137160000D03*
%TO.N,/AEN*%
X157480000Y-125730000D03*
X157480000Y-137160000D03*
%TO.N,/D7*%
X184150000Y-139065000D03*
%TO.N,/~{IOW}*%
X152400000Y-137795000D03*
X146050000Y-137795000D03*
%TO.N,GND*%
X193675000Y-102870000D03*
X170434000Y-118110000D03*
X125730000Y-87630000D03*
X138430000Y-118110000D03*
X106680000Y-87630000D03*
X110324166Y-68491834D03*
X100495834Y-68491834D03*
X136436834Y-68491834D03*
X184150000Y-102870000D03*
X185966834Y-68491834D03*
X182880000Y-87630000D03*
X193675000Y-87630000D03*
X165646834Y-68491834D03*
X193675000Y-76835000D03*
X185166000Y-118110000D03*
X193675000Y-118110000D03*
X99314000Y-87630000D03*
X178562000Y-118110000D03*
X185674000Y-133350000D03*
X193675000Y-68580000D03*
X119126000Y-87630000D03*
X138430000Y-102870000D03*
X76157265Y-103601396D03*
X193675000Y-133350000D03*
X130810000Y-133350000D03*
D36*
%TO.N,VCC*%
X180975000Y-129540000D03*
D35*
X73660000Y-99060000D03*
D36*
X85090000Y-83820000D03*
X172720000Y-83820000D03*
X187325000Y-130810000D03*
D35*
X73660000Y-64770000D03*
D36*
X187960000Y-83820000D03*
D35*
X73660000Y-114300000D03*
X73660000Y-129540000D03*
D36*
X185420000Y-114300000D03*
X90170000Y-129540000D03*
X163195000Y-61595000D03*
X100840989Y-83820000D03*
X139700000Y-99060000D03*
X177800000Y-129540000D03*
X139354500Y-114300000D03*
D35*
X73660000Y-83820000D03*
D36*
X137922000Y-64770000D03*
D35*
%TO.N,/RESETDRV*%
X179070000Y-94615000D03*
X182880000Y-137795000D03*
X169545000Y-97155000D03*
X179070000Y-137795000D03*
%TO.N,Net-(C4-Pad2)*%
X84836000Y-102616000D03*
%TO.N,Net-(C6-Pad2)*%
X102616000Y-79756000D03*
%TO.N,/Response-*%
X191770000Y-113665000D03*
X183515000Y-116205000D03*
%TO.N,/Data-*%
X174625000Y-120650000D03*
%TO.N,/Data Clock-*%
X174625000Y-121920000D03*
%TO.N,/Attention-*%
X195580000Y-99060000D03*
X190500000Y-128016000D03*
X196925000Y-124300000D03*
%TO.N,/Response+*%
X190500000Y-113665000D03*
%TO.N,/Data+*%
X190500000Y-116205000D03*
%TO.N,/Data Clock+*%
X190500000Y-125730000D03*
X175895000Y-125730000D03*
X190500000Y-121285000D03*
%TO.N,/Attention+*%
X182245000Y-123825000D03*
%TO.N,/MDB1*%
X151130000Y-74930000D03*
X151130000Y-100965000D03*
X151765000Y-131445000D03*
X179070000Y-131445000D03*
X128905000Y-100965000D03*
%TO.N,/MDB2*%
X147320000Y-76200000D03*
X176530000Y-111125000D03*
X160655000Y-110490000D03*
X160020000Y-106680000D03*
%TO.N,/MDB3*%
X171450000Y-94615000D03*
X151130000Y-124460000D03*
X149860000Y-95885000D03*
%TO.N,/MDB4*%
X168275000Y-97155000D03*
X152414999Y-96499782D03*
X154940000Y-132080000D03*
X171450000Y-132080000D03*
%TO.N,/MDB5*%
X154940000Y-73660000D03*
X167005000Y-121920000D03*
%TO.N,/MDB6*%
X159385000Y-123190000D03*
X165100000Y-123190000D03*
%TO.N,/MDB7*%
X161290000Y-125730000D03*
%TO.N,/MDB8*%
X169545000Y-91440000D03*
X169545000Y-63500000D03*
X160655000Y-63500000D03*
%TO.N,/AENb*%
X113665000Y-132080000D03*
X148590000Y-132080000D03*
%TO.N,/~{RD}*%
X144780000Y-121920000D03*
X176530000Y-109220000D03*
X176530000Y-76200000D03*
X132080000Y-109220000D03*
X85090000Y-109220000D03*
%TO.N,/A9b*%
X142875000Y-111760000D03*
%TO.N,/IOACT*%
X135890000Y-125095000D03*
X83820000Y-125095000D03*
%TO.N,/DMA_ACK*%
X88900000Y-130810000D03*
X143510000Y-130810000D03*
%TO.N,/~{WR}*%
X133350000Y-123190000D03*
X173355000Y-77470000D03*
X180975000Y-77470000D03*
X146685000Y-123190000D03*
X146685000Y-116205000D03*
X173990000Y-116205000D03*
%TO.N,Net-(TP74-Pad1)*%
X165100000Y-107950000D03*
X154940000Y-107950000D03*
%TO.N,/CLKp3*%
X178435000Y-60960000D03*
X178435000Y-65405000D03*
X133985000Y-66675000D03*
%TO.N,/~{DTR}*%
X187325000Y-65405000D03*
X132080000Y-74930000D03*
X168275000Y-64770000D03*
X77470000Y-107950000D03*
X111760000Y-107770980D03*
X153670000Y-64770000D03*
X153670000Y-72579500D03*
%TO.N,/A0b*%
X137160000Y-73660000D03*
%TO.N,/UART-~{CS}*%
X95250000Y-123190000D03*
X141605000Y-60960000D03*
X95250000Y-60960000D03*
X183515000Y-70485000D03*
X141605000Y-70485000D03*
%TO.N,/CLKp0*%
X126365000Y-57150000D03*
%TO.N,/~{RTS}*%
X83820000Y-93980000D03*
X104140000Y-94615000D03*
%TO.N,/Data*%
X133350000Y-85725000D03*
X181610000Y-85725000D03*
X182245000Y-64135000D03*
X153670000Y-85725000D03*
%TO.N,/Attention*%
X195580000Y-78740000D03*
X174625000Y-78740000D03*
X146050000Y-81915000D03*
X191770000Y-100330000D03*
X146050000Y-111760000D03*
X180340000Y-100330000D03*
X191770000Y-78740000D03*
%TO.N,Net-(TP88-Pad1)*%
X123190000Y-94615000D03*
%TO.N,/RXD*%
X163195000Y-80010000D03*
X142240000Y-80010000D03*
%TO.N,Net-(R1-Pad1)*%
X106680000Y-95885000D03*
%TO.N,Net-(TP91-Pad1)*%
X152400000Y-80645000D03*
X117348000Y-86360000D03*
X152400000Y-77470000D03*
X86360000Y-85725000D03*
X117475000Y-77470000D03*
X102870000Y-85725000D03*
%TO.N,Net-(TP93-Pad1)*%
X124460000Y-109665500D03*
X82550000Y-109855000D03*
%TO.N,Net-(TP94-Pad1)*%
X80010000Y-92075000D03*
X87630000Y-92075000D03*
%TO.N,Net-(TP95-Pad1)*%
X76200000Y-100330000D03*
%TO.N,/Command*%
X189230000Y-93345000D03*
X191135000Y-61595000D03*
X180975000Y-61595000D03*
%TO.N,Net-(TP96-Pad1)*%
X91440000Y-90805000D03*
X134620000Y-94615000D03*
%TO.N,Net-(TP97-Pad1)*%
X125095000Y-93980000D03*
X109220000Y-93980000D03*
%TO.N,Net-(TP101-Pad1)*%
X135890000Y-73025000D03*
X88900000Y-73025000D03*
%TO.N,/Command+*%
X197104000Y-81788000D03*
%TO.N,/Command-*%
X203200000Y-81788000D03*
%TO.N,/RXD*%
X180340000Y-80010000D03*
X179705000Y-60325000D03*
X184150000Y-80010000D03*
X179705000Y-72390000D03*
%TO.N,Net-(TP14-Pad1)*%
X157480000Y-123190000D03*
%TO.N,/U7116-~{OE}*%
X155575000Y-59690000D03*
X93980000Y-59690000D03*
%TO.N,Net-(TP103-Pad1)*%
X138430000Y-71755000D03*
%TO.N,Net-(TP104-Pad1)*%
X85090000Y-77470000D03*
X104140000Y-77470000D03*
%TO.N,Net-(TP26-Pad1)*%
X121285000Y-123825000D03*
X86360000Y-123190000D03*
%TO.N,Net-(TP32-Pad1)*%
X138430000Y-116205000D03*
X116840000Y-116205000D03*
%TO.N,/U7117-~{OE}*%
X157480000Y-107125500D03*
X96520000Y-92075000D03*
X99060000Y-123190000D03*
X98425000Y-105410000D03*
X85090000Y-93345000D03*
X132080000Y-106680000D03*
X95885000Y-105410000D03*
X125730000Y-123190000D03*
%TO.N,Net-(TP106-Pad1)*%
X144780000Y-93980000D03*
X169099500Y-93980000D03*
X144780000Y-58420000D03*
X170815000Y-111760000D03*
%TO.N,Net-(TP41-Pad1)*%
X110490000Y-94615000D03*
X110490000Y-101600000D03*
X127000000Y-100965000D03*
%TO.N,Net-(TP107-Pad1)*%
X97155000Y-66675000D03*
%TO.N,Net-(TP45-Pad1)*%
X92710000Y-106680000D03*
%TO.N,Net-(TP47-Pad1)*%
X108585000Y-101600000D03*
X125730000Y-106680000D03*
X109220000Y-106680000D03*
X90170000Y-100330000D03*
%TO.N,Net-(TP50-Pad1)*%
X100330000Y-126365000D03*
X100330000Y-110490000D03*
%TO.N,Net-(TP51-Pad1)*%
X113030000Y-100965000D03*
X80010000Y-116840000D03*
X97155000Y-100965000D03*
X97155000Y-116840000D03*
%TO.N,Net-(TP53-Pad1)*%
X91440000Y-93345000D03*
X125730000Y-92710000D03*
%TO.N,Net-(TP108-Pad1)*%
X134620000Y-73660000D03*
X130810000Y-92710000D03*
X87630000Y-75565000D03*
X134620000Y-92710000D03*
%TO.N,Net-(TP57-Pad1)*%
X105410000Y-78740000D03*
X143510000Y-109220000D03*
X143510000Y-76200000D03*
X104775000Y-85725000D03*
X127000000Y-85725000D03*
%TO.N,/Data Clock*%
X101600000Y-90805000D03*
X162560000Y-91440000D03*
X161925000Y-67056000D03*
X101600000Y-116840000D03*
X107950564Y-90949492D03*
X162560000Y-106680000D03*
%TD*%
D37*
%TO.N,/A0*%
X123825000Y-137160000D02*
X129540000Y-137160000D01*
X129540000Y-135890000D02*
X130175000Y-135255000D01*
X122916020Y-141243980D02*
X123825000Y-140335000D01*
X106680000Y-140335000D02*
X107588980Y-141243980D01*
X130175000Y-135255000D02*
X130810000Y-135255000D01*
X107588980Y-141243980D02*
X122916020Y-141243980D01*
X129540000Y-137160000D02*
X129540000Y-135890000D01*
X123825000Y-140335000D02*
X123825000Y-137160000D01*
%TO.N,/A1*%
X75692000Y-135382000D02*
X75829000Y-135245000D01*
X109220000Y-139889500D02*
X109220000Y-132080000D01*
X75692000Y-137160000D02*
X75692000Y-135382000D01*
X75829000Y-135245000D02*
X77485000Y-135245000D01*
%TO.N,/A2*%
X80010000Y-138938000D02*
X80010000Y-135260000D01*
X80010000Y-135260000D02*
X80025000Y-135245000D01*
%TO.N,/A3*%
X82550000Y-137160000D02*
X82565000Y-137145000D01*
X101600000Y-126365000D02*
X101600000Y-137160000D01*
X82565000Y-137145000D02*
X82565000Y-135245000D01*
X119380000Y-136525000D02*
X119380000Y-126365000D01*
X101600000Y-137160000D02*
X82550000Y-137160000D01*
X114935000Y-139700000D02*
X114935000Y-136525000D01*
X114935000Y-136525000D02*
X119380000Y-136525000D01*
%TO.N,/A4*%
X102108000Y-138938000D02*
X102885000Y-138161000D01*
X102885000Y-138161000D02*
X102885000Y-135245000D01*
%TO.N,/A5*%
X105410000Y-135260000D02*
X105425000Y-135245000D01*
X105410000Y-138176000D02*
X105410000Y-135260000D01*
%TO.N,/A6*%
X107965000Y-135245000D02*
X107965000Y-134127000D01*
X107965000Y-134127000D02*
X105918000Y-132080000D01*
%TO.N,/A7*%
X110236000Y-136652000D02*
X110998000Y-137414000D01*
X110236000Y-135890000D02*
X110236000Y-136652000D01*
X110505000Y-135621000D02*
X110236000Y-135890000D01*
X110505000Y-135245000D02*
X110505000Y-135621000D01*
%TO.N,/A8*%
X134620000Y-137160000D02*
X134620000Y-127635000D01*
X131445000Y-137160000D02*
X134620000Y-137160000D01*
X134620000Y-127635000D02*
X135890000Y-127635000D01*
%TO.N,/A9*%
X135890000Y-139446000D02*
X135890000Y-135255000D01*
X134848600Y-139446000D02*
X135890000Y-139446000D01*
D38*
%TO.N,/AEN*%
X157480000Y-137160000D02*
X157480000Y-125730000D01*
D37*
%TO.N,/D0*%
X158750000Y-138938000D02*
X158750000Y-135255000D01*
%TO.N,/D1*%
X161290000Y-132588000D02*
X161290000Y-135255000D01*
%TO.N,/D2*%
X163844000Y-135269000D02*
X163830000Y-135255000D01*
X163844000Y-138176000D02*
X163844000Y-135269000D01*
D38*
%TO.N,/D3*%
X166370000Y-135255000D02*
X166370000Y-132842000D01*
%TO.N,/D4*%
X168910000Y-138176000D02*
X169164000Y-138430000D01*
X168910000Y-135255000D02*
X168910000Y-138176000D01*
X169164000Y-138430000D02*
X168376600Y-138430000D01*
D37*
%TO.N,/D5*%
X174980600Y-130048000D02*
X176784000Y-130048000D01*
X177800000Y-136652000D02*
X177292000Y-137160000D01*
X171450000Y-137160000D02*
X171450000Y-135255000D01*
X177292000Y-137160000D02*
X171450000Y-137160000D01*
X177800000Y-131064000D02*
X177800000Y-136652000D01*
X176784000Y-130048000D02*
X177800000Y-131064000D01*
%TO.N,/D6*%
X173990000Y-132842000D02*
X173990000Y-135255000D01*
D38*
%TO.N,/D7*%
X185928000Y-138514665D02*
X185469167Y-138055832D01*
X184150000Y-139065000D02*
X185928000Y-139065000D01*
X185928000Y-139065000D02*
X185928000Y-138514665D01*
D37*
%TO.N,/DRQ3*%
X137795000Y-140970000D02*
X137160000Y-140335000D01*
X137160000Y-106045000D02*
X137155000Y-106045000D01*
X137160000Y-140335000D02*
X137160000Y-106045000D01*
X147320000Y-141605000D02*
X146685000Y-140970000D01*
X147320000Y-145732500D02*
X147320000Y-141605000D01*
X137155000Y-106045000D02*
X135885000Y-104775000D01*
X146685000Y-140970000D02*
X137795000Y-140970000D01*
%TO.N,/~{DACK3}*%
X140970000Y-139700000D02*
X140970000Y-135255000D01*
X149860000Y-140335000D02*
X149225000Y-139700000D01*
X149225000Y-139700000D02*
X140970000Y-139700000D01*
X149860000Y-145732500D02*
X149860000Y-140335000D01*
%TO.N,/~{IOR}*%
X149098000Y-137668000D02*
X148844000Y-137922000D01*
X151765000Y-139065000D02*
X147955000Y-139065000D01*
X148590000Y-137922000D02*
X148036511Y-137368511D01*
X152400000Y-139700000D02*
X151765000Y-139065000D01*
X146050000Y-129540000D02*
X146050000Y-127635000D01*
X147274511Y-137368511D02*
X147274511Y-130855489D01*
X147320000Y-130810000D02*
X146050000Y-129540000D01*
X147274511Y-138384511D02*
X147274511Y-137368511D01*
X152400000Y-145732500D02*
X152400000Y-139700000D01*
X147274511Y-130855489D02*
X147320000Y-130810000D01*
X148036511Y-137368511D02*
X147274511Y-137368511D01*
X148844000Y-137922000D02*
X148590000Y-137922000D01*
X147955000Y-139065000D02*
X147274511Y-138384511D01*
%TO.N,/~{IOW}*%
X153670000Y-137668000D02*
X153543000Y-137795000D01*
X153543000Y-137795000D02*
X152400000Y-137795000D01*
X154305000Y-137795000D02*
X153543000Y-137795000D01*
X153670000Y-136398000D02*
X153670000Y-137668000D01*
X154940000Y-138430000D02*
X154305000Y-137795000D01*
X154940000Y-145732500D02*
X154940000Y-138430000D01*
X146050000Y-137795000D02*
X146050000Y-135255000D01*
D38*
%TO.N,GND*%
X186051000Y-126369000D02*
X185420000Y-127000000D01*
D37*
X170622500Y-122555000D02*
X170307000Y-122555000D01*
X140970000Y-117680000D02*
X138860000Y-117680000D01*
D39*
X189230000Y-140970000D02*
X186690000Y-140970000D01*
X193675000Y-136879500D02*
X193548000Y-136879500D01*
X193675000Y-136398000D02*
X189230000Y-136398000D01*
D38*
X178877500Y-116205000D02*
X178877500Y-117794500D01*
D39*
X206375000Y-61595000D02*
X200660000Y-61595000D01*
D37*
X140970000Y-102440000D02*
X138860000Y-102440000D01*
X170622500Y-118298500D02*
X170434000Y-118110000D01*
X186040000Y-68418668D02*
X185966834Y-68491834D01*
X170622500Y-119380000D02*
X170622500Y-118298500D01*
X76630000Y-102235000D02*
X76630000Y-103128661D01*
X97790000Y-87630000D02*
X98044000Y-87884000D01*
D38*
X139065000Y-68150000D02*
X136778668Y-68150000D01*
D37*
X186040000Y-59060000D02*
X186040000Y-68418668D01*
X98044000Y-87884000D02*
X99060000Y-87884000D01*
D38*
X118745000Y-73865000D02*
X118745000Y-74041000D01*
D37*
X184150000Y-109474000D02*
X184150000Y-102870000D01*
D38*
X119380000Y-87376000D02*
X119126000Y-87630000D01*
D37*
X170180000Y-119822500D02*
X170622500Y-119380000D01*
D39*
X193675000Y-118745000D02*
X193675000Y-118110000D01*
X189230000Y-136398000D02*
X189230000Y-140970000D01*
D37*
X193548000Y-66040000D02*
X193548000Y-68453000D01*
D39*
X193675000Y-68580000D02*
X193675000Y-68491834D01*
D38*
X119380000Y-74676000D02*
X119380000Y-87376000D01*
D37*
X76630000Y-103128661D02*
X76157265Y-103601396D01*
D39*
X206375000Y-66675000D02*
X206375000Y-61595000D01*
D37*
X100584000Y-68403668D02*
X100495834Y-68491834D01*
X99060000Y-87884000D02*
X99314000Y-87630000D01*
D39*
X186690000Y-140970000D02*
X185420000Y-142240000D01*
D38*
X178877500Y-119380000D02*
X178877500Y-118425500D01*
X105405000Y-93985000D02*
X106680000Y-92710000D01*
D39*
X193675000Y-102870000D02*
X193675000Y-87630000D01*
D37*
X185989500Y-129032000D02*
X185989500Y-129478500D01*
X184531000Y-109855000D02*
X184150000Y-109474000D01*
D38*
X185420000Y-133096000D02*
X185674000Y-133350000D01*
D39*
X185420000Y-142240000D02*
X185420000Y-145732500D01*
D37*
X130810000Y-127635000D02*
X130810000Y-133350000D01*
D39*
X206375000Y-66675000D02*
X206375000Y-76835000D01*
D38*
X136778668Y-68150000D02*
X136436834Y-68491834D01*
X178877500Y-117794500D02*
X178562000Y-118110000D01*
D37*
X138860000Y-117680000D02*
X138430000Y-118110000D01*
D38*
X106680000Y-92710000D02*
X106680000Y-87630000D01*
D37*
X185420000Y-130048000D02*
X185420000Y-133096000D01*
D38*
X178877500Y-118425500D02*
X178562000Y-118110000D01*
D37*
X110236000Y-66499000D02*
X110236000Y-68403668D01*
X185862500Y-109855000D02*
X184531000Y-109855000D01*
X165720000Y-68565000D02*
X165646834Y-68491834D01*
D38*
X186051000Y-125730000D02*
X186051000Y-126369000D01*
D39*
X193675000Y-87630000D02*
X193675000Y-76835000D01*
X193675000Y-133350000D02*
X193675000Y-136398000D01*
D37*
X138860000Y-102440000D02*
X138430000Y-102870000D01*
X170307000Y-122555000D02*
X170180000Y-122428000D01*
X185989500Y-129478500D02*
X185420000Y-130048000D01*
D39*
X193675000Y-118110000D02*
X193675000Y-102870000D01*
D38*
X185862500Y-118806500D02*
X185166000Y-118110000D01*
X118745000Y-74041000D02*
X119380000Y-74676000D01*
X182895000Y-81915000D02*
X182895000Y-87615000D01*
X185862500Y-119380000D02*
X185862500Y-118806500D01*
X125745000Y-81925000D02*
X125745000Y-87615000D01*
D37*
X110236000Y-68403668D02*
X110324166Y-68491834D01*
X193548000Y-68453000D02*
X193675000Y-68580000D01*
D39*
X193675000Y-118745000D02*
X193675000Y-133350000D01*
D37*
X100584000Y-66499000D02*
X100584000Y-68403668D01*
D38*
X125745000Y-87615000D02*
X125730000Y-87630000D01*
X185420000Y-127000000D02*
X185420000Y-133096000D01*
D39*
X193675000Y-76835000D02*
X193675000Y-68580000D01*
D37*
X165720000Y-74300000D02*
X165720000Y-68565000D01*
D38*
X105405000Y-97145000D02*
X105405000Y-93985000D01*
D39*
X193675000Y-136398000D02*
X193675000Y-136879500D01*
D37*
X97790000Y-87200000D02*
X97790000Y-87630000D01*
D38*
X182895000Y-87615000D02*
X182880000Y-87630000D01*
D39*
X206375000Y-76835000D02*
X200660000Y-76835000D01*
D37*
X170180000Y-122428000D02*
X170180000Y-119822500D01*
D39*
%TO.N,VCC*%
X73660000Y-127508000D02*
X73660000Y-114300000D01*
D37*
X90185000Y-129555000D02*
X90170000Y-129540000D01*
D39*
X180340000Y-141605000D02*
X180975000Y-140970000D01*
X73660000Y-83820000D02*
X73660000Y-99060000D01*
D38*
X185862500Y-116205000D02*
X185862500Y-114742500D01*
D39*
X73660000Y-64770000D02*
X73660000Y-83820000D01*
D38*
X187452000Y-122428000D02*
X187452000Y-130683000D01*
D37*
X178308000Y-123444000D02*
X177800000Y-123444000D01*
X90185000Y-135245000D02*
X90185000Y-129555000D01*
X76200000Y-131064000D02*
X76200000Y-129540000D01*
D38*
X138352000Y-65200000D02*
X137922000Y-64770000D01*
D39*
X180340000Y-145732500D02*
X180340000Y-141605000D01*
D37*
X97790000Y-84250000D02*
X97790000Y-84074000D01*
D38*
X185862500Y-113030000D02*
X185862500Y-113857500D01*
X187975000Y-89535000D02*
X187975000Y-83835000D01*
X85085000Y-83825000D02*
X85090000Y-83820000D01*
X139065000Y-65200000D02*
X138352000Y-65200000D01*
D37*
X140970000Y-114730000D02*
X139784500Y-114730000D01*
D38*
X185862500Y-114742500D02*
X185420000Y-114300000D01*
D39*
X73660000Y-129540000D02*
X73660000Y-127508000D01*
X73660000Y-114300000D02*
X73660000Y-99060000D01*
X180975000Y-140970000D02*
X180975000Y-129540000D01*
D38*
X187975000Y-83835000D02*
X187960000Y-83820000D01*
D37*
X172735000Y-83835000D02*
X172720000Y-83820000D01*
X140970000Y-99490000D02*
X140130000Y-99490000D01*
D38*
X185862500Y-113857500D02*
X185420000Y-114300000D01*
D37*
X177800000Y-123444000D02*
X177800000Y-129540000D01*
X178562000Y-123190000D02*
X178308000Y-123444000D01*
X139784500Y-114730000D02*
X139354500Y-114300000D01*
X163180000Y-61580000D02*
X163195000Y-61595000D01*
X97790000Y-84074000D02*
X98044000Y-83820000D01*
D38*
X187452000Y-130683000D02*
X187325000Y-130810000D01*
D37*
X178877500Y-123190000D02*
X178562000Y-123190000D01*
X75946000Y-131318000D02*
X76200000Y-131064000D01*
X98044000Y-83820000D02*
X100840989Y-83820000D01*
X163180000Y-59060000D02*
X163180000Y-61580000D01*
X140130000Y-99490000D02*
X139700000Y-99060000D01*
X74168000Y-127508000D02*
X73660000Y-127508000D01*
X75438000Y-131318000D02*
X75946000Y-131318000D01*
D38*
X85085000Y-89525000D02*
X85085000Y-83825000D01*
X185928000Y-122428000D02*
X187452000Y-122428000D01*
D37*
X76200000Y-129540000D02*
X74168000Y-127508000D01*
X172735000Y-89535000D02*
X172735000Y-83835000D01*
%TO.N,/RESETDRV*%
X168275000Y-105410000D02*
X169545000Y-104140000D01*
X170180000Y-126365000D02*
X168275000Y-124460000D01*
X177800000Y-75565000D02*
X177165000Y-74930000D01*
X179070000Y-94615000D02*
X179070000Y-80645000D01*
X175880000Y-59060000D02*
X175880000Y-57262000D01*
X168275000Y-124460000D02*
X168275000Y-115570000D01*
X177165000Y-74930000D02*
X177165000Y-71755000D01*
X177800000Y-79375000D02*
X177800000Y-75565000D01*
X169545000Y-104140000D02*
X169545000Y-97155000D01*
X182880000Y-145732500D02*
X182880000Y-137795000D01*
X179070000Y-80645000D02*
X177800000Y-79375000D01*
X179070000Y-137795000D02*
X170180000Y-137795000D01*
X177165000Y-71755000D02*
X175880000Y-70470000D01*
X175880000Y-70470000D02*
X175880000Y-59060000D01*
X175880000Y-57262000D02*
X175768000Y-57150000D01*
X168275000Y-115570000D02*
X168275000Y-105410000D01*
X170180000Y-137795000D02*
X170180000Y-126365000D01*
%TO.N,Net-(C4-Pad2)*%
X86802500Y-102235000D02*
X85217000Y-102235000D01*
X85217000Y-102235000D02*
X84836000Y-102616000D01*
X80005000Y-102660000D02*
X79580000Y-102235000D01*
X80005000Y-104765000D02*
X80005000Y-102660000D01*
%TO.N,Net-(C5-Pad2)*%
X109679000Y-62992000D02*
X110236000Y-63549000D01*
D38*
X107945000Y-74417000D02*
X107696000Y-74168000D01*
D37*
X110490000Y-71882000D02*
X110490000Y-74168000D01*
D38*
X107696000Y-74168000D02*
X106807000Y-74168000D01*
D37*
X110490000Y-74168000D02*
X110363000Y-74295000D01*
D38*
X107188000Y-69088000D02*
X107188000Y-62992000D01*
D37*
X107065000Y-70485000D02*
X107065000Y-69211000D01*
D38*
X107696000Y-73660000D02*
X107065000Y-73029000D01*
X107188000Y-62992000D02*
X109679000Y-62992000D01*
X107945000Y-81905000D02*
X107945000Y-74417000D01*
X107696000Y-74168000D02*
X107696000Y-73660000D01*
X107065000Y-73029000D02*
X107065000Y-70485000D01*
D37*
X110363000Y-74295000D02*
X106680000Y-74295000D01*
X107065000Y-69211000D02*
X107188000Y-69088000D01*
D38*
X106807000Y-74168000D02*
X106680000Y-74295000D01*
%TO.N,Net-(C6-Pad2)*%
X102880000Y-79492000D02*
X102880000Y-74295000D01*
X104140000Y-70485000D02*
X104140000Y-70104000D01*
X103632000Y-62992000D02*
X101141000Y-62992000D01*
X101141000Y-62992000D02*
X100584000Y-63549000D01*
D37*
X100076000Y-74422000D02*
X100203000Y-74295000D01*
X99822000Y-71882000D02*
X99822000Y-74168000D01*
D38*
X102616000Y-79756000D02*
X102880000Y-79492000D01*
X103632000Y-69596000D02*
X103632000Y-62992000D01*
D37*
X100203000Y-74295000D02*
X102880000Y-74295000D01*
D38*
X103759000Y-70485000D02*
X104140000Y-70485000D01*
X104140000Y-70104000D02*
X103632000Y-69596000D01*
X102880000Y-71364000D02*
X103759000Y-70485000D01*
X102880000Y-74295000D02*
X102880000Y-71364000D01*
D37*
X99822000Y-74168000D02*
X100076000Y-74422000D01*
D38*
%TO.N,Net-(C7-Pad1)*%
X120909000Y-70104000D02*
X121280000Y-70475000D01*
X117934000Y-70104000D02*
X118745000Y-70915000D01*
D37*
X121158000Y-67564000D02*
X121158000Y-70353000D01*
X121158000Y-70353000D02*
X121280000Y-70475000D01*
D38*
X116393500Y-70104000D02*
X117934000Y-70104000D01*
X117934000Y-70104000D02*
X120909000Y-70104000D01*
X115570000Y-70927500D02*
X116393500Y-70104000D01*
D37*
%TO.N,Net-(R1-Pad2)*%
X102865000Y-99065000D02*
X102870000Y-99060000D01*
X102870000Y-99060000D02*
X105410000Y-99060000D01*
X102865000Y-104765000D02*
X102865000Y-99065000D01*
%TO.N,Net-(R3-Pad2)*%
X115565000Y-84079000D02*
X115062000Y-84582000D01*
X115565000Y-81905000D02*
X115565000Y-84079000D01*
X115570000Y-73852500D02*
X115565000Y-73857500D01*
X115062000Y-84582000D02*
X113538000Y-84582000D01*
X115565000Y-73857500D02*
X115565000Y-81905000D01*
%TO.N,/DMA_READ*%
X90165000Y-102672500D02*
X89727500Y-102235000D01*
X90165000Y-104765000D02*
X90165000Y-102672500D01*
X90165000Y-107447000D02*
X89662000Y-107950000D01*
X90165000Y-104765000D02*
X90165000Y-107447000D01*
%TO.N,/Response-*%
X190515000Y-100345000D02*
X191770000Y-101600000D01*
X190515000Y-97145000D02*
X190515000Y-100345000D01*
X191770000Y-101600000D02*
X191770000Y-113665000D01*
D40*
X182372000Y-113792000D02*
X182372000Y-115635500D01*
X182372000Y-115635500D02*
X181802500Y-116205000D01*
D37*
X183515000Y-116205000D02*
X182245000Y-116205000D01*
%TO.N,/Data-*%
X174625000Y-120650000D02*
X174625000Y-120457500D01*
X187706000Y-103124000D02*
X186182000Y-101600000D01*
X174625000Y-120457500D02*
X173547500Y-119380000D01*
X187975000Y-104765000D02*
X187975000Y-103139000D01*
X187975000Y-103139000D02*
X187960000Y-103124000D01*
X187960000Y-103124000D02*
X187706000Y-103124000D01*
%TO.N,/Data Clock-*%
X172085000Y-105410000D02*
X172730000Y-104765000D01*
X172085000Y-122555000D02*
X172085000Y-105410000D01*
X173990000Y-122555000D02*
X172085000Y-122555000D01*
X174625000Y-121920000D02*
X173990000Y-122555000D01*
X172730000Y-104765000D02*
X172735000Y-104765000D01*
%TO.N,/Attention-*%
X195950000Y-124300000D02*
X194945000Y-123295000D01*
X188914500Y-129032000D02*
X189484000Y-129032000D01*
X196925000Y-124300000D02*
X197000000Y-124225000D01*
X197000000Y-124225000D02*
X201595000Y-124225000D01*
X194945000Y-123295000D02*
X194945000Y-99695000D01*
X190500000Y-128016000D02*
X190500000Y-131957500D01*
X196925000Y-124300000D02*
X195950000Y-124300000D01*
X189484000Y-129032000D02*
X190500000Y-128016000D01*
X194945000Y-99695000D02*
X195580000Y-99060000D01*
X190500000Y-131957500D02*
X190450000Y-131957500D01*
D38*
%TO.N,/Response+*%
X189230000Y-102870000D02*
X189230000Y-113665000D01*
X187975000Y-101585000D02*
X187960000Y-101600000D01*
X187975000Y-97145000D02*
X187975000Y-101585000D01*
X189230000Y-113665000D02*
X190500000Y-113665000D01*
X187960000Y-101600000D02*
X189230000Y-102870000D01*
D37*
%TO.N,/Data+*%
X187325000Y-116205000D02*
X190500000Y-116205000D01*
D38*
X188976000Y-116393500D02*
X188787500Y-116205000D01*
D37*
X187325000Y-107950000D02*
X187325000Y-116205000D01*
X185435000Y-106060000D02*
X187325000Y-107950000D01*
X185435000Y-104765000D02*
X185435000Y-106060000D01*
D38*
X188976000Y-118872000D02*
X188976000Y-116393500D01*
X188787500Y-119060500D02*
X188976000Y-118872000D01*
X188787500Y-119380000D02*
X188787500Y-119060500D01*
D37*
%TO.N,/Data Clock+*%
X175895000Y-111760000D02*
X175895000Y-125730000D01*
X175275000Y-110475000D02*
X175260000Y-110490000D01*
D40*
X174726600Y-124968000D02*
X175133000Y-124968000D01*
X175133000Y-124968000D02*
X175895000Y-125730000D01*
D37*
X189230000Y-125730000D02*
X189230000Y-121285000D01*
X175275000Y-104765000D02*
X175275000Y-110475000D01*
X189230000Y-125730000D02*
X190500000Y-125730000D01*
X175260000Y-111125000D02*
X175895000Y-111760000D01*
X175260000Y-110490000D02*
X175260000Y-111125000D01*
X189230000Y-121285000D02*
X190500000Y-121285000D01*
%TO.N,/Attention+*%
X177800000Y-100330000D02*
X179070000Y-101600000D01*
X179070000Y-101600000D02*
X179070000Y-111125000D01*
X180340000Y-119380000D02*
X182245000Y-119380000D01*
X180340000Y-112395000D02*
X180340000Y-119380000D01*
X179070000Y-111125000D02*
X180340000Y-112395000D01*
X182245000Y-119380000D02*
X182245000Y-123825000D01*
X177815000Y-100315000D02*
X177800000Y-100330000D01*
X177815000Y-97145000D02*
X177815000Y-100315000D01*
%TO.N,/MDB1*%
X151130000Y-115570000D02*
X152400000Y-116840000D01*
X151130000Y-100965000D02*
X151145000Y-100950000D01*
X151130000Y-83185000D02*
X151145000Y-83170000D01*
X151145000Y-112385000D02*
X151145000Y-115555000D01*
X128265000Y-103510000D02*
X128270000Y-103505000D01*
X152400000Y-93345000D02*
X152400000Y-84455000D01*
X150368000Y-72898000D02*
X150368000Y-74930000D01*
X151130000Y-109855000D02*
X152400000Y-108585000D01*
X179070000Y-127635000D02*
X179070000Y-131445000D01*
X128270000Y-103505000D02*
X128905000Y-102870000D01*
X151145000Y-83170000D02*
X151145000Y-81915000D01*
X151145000Y-100950000D02*
X151145000Y-97145000D01*
X151145000Y-81915000D02*
X151145000Y-74945000D01*
X152400000Y-84455000D02*
X151130000Y-83185000D01*
X152400000Y-108585000D02*
X152400000Y-102235000D01*
X150368000Y-74930000D02*
X151130000Y-74930000D01*
X151145000Y-74945000D02*
X151130000Y-74930000D01*
X151145000Y-115555000D02*
X151130000Y-115570000D01*
X151765000Y-130175000D02*
X151765000Y-131445000D01*
X151145000Y-112385000D02*
X151145000Y-109870000D01*
X128265000Y-104775000D02*
X128265000Y-103510000D01*
X151145000Y-97145000D02*
X151145000Y-94630000D01*
X128905000Y-102870000D02*
X128905000Y-100965000D01*
X152400000Y-129540000D02*
X151765000Y-130175000D01*
X151145000Y-109870000D02*
X151130000Y-109855000D01*
X152400000Y-116840000D02*
X152400000Y-129540000D01*
X151145000Y-94630000D02*
X151130000Y-94615000D01*
X152400000Y-102235000D02*
X151130000Y-100965000D01*
X151130000Y-94615000D02*
X152400000Y-93345000D01*
%TO.N,/MDB2*%
X160020000Y-106680000D02*
X160020000Y-109855000D01*
X176530000Y-111125000D02*
X176530000Y-123825000D01*
X177165000Y-124460000D02*
X177165000Y-127000000D01*
X147320000Y-89535000D02*
X148605000Y-89535000D01*
X148605000Y-104765000D02*
X148605000Y-101615000D01*
X147320000Y-104775000D02*
X147330000Y-104765000D01*
X177165000Y-127000000D02*
X176530000Y-127635000D01*
X147330000Y-104765000D02*
X148605000Y-104765000D01*
X148605000Y-115585000D02*
X147320000Y-114300000D01*
X148605000Y-101615000D02*
X147320000Y-100330000D01*
X147320000Y-76200000D02*
X147320000Y-89535000D01*
X147320000Y-100330000D02*
X147320000Y-89535000D01*
X160020000Y-109855000D02*
X160655000Y-110490000D01*
X148605000Y-120005000D02*
X148605000Y-115585000D01*
X147320000Y-114300000D02*
X147320000Y-104775000D01*
X176530000Y-123825000D02*
X177165000Y-124460000D01*
%TO.N,/MDB3*%
X151145000Y-108570000D02*
X151145000Y-104765000D01*
X170800000Y-71008000D02*
X170800000Y-74300000D01*
X149860000Y-95885000D02*
X149860000Y-92710000D01*
X149860000Y-109855000D02*
X151145000Y-108570000D01*
X172212000Y-70866000D02*
X170942000Y-70866000D01*
X149860000Y-115570000D02*
X149860000Y-109855000D01*
X171450000Y-74950000D02*
X170800000Y-74300000D01*
X149860000Y-103505000D02*
X149860000Y-95885000D01*
X151145000Y-120005000D02*
X151145000Y-116855000D01*
X149885000Y-103505000D02*
X149860000Y-103505000D01*
X170942000Y-70866000D02*
X170800000Y-71008000D01*
X151145000Y-116855000D02*
X149860000Y-115570000D01*
X149860000Y-92710000D02*
X151145000Y-91425000D01*
X151145000Y-91425000D02*
X151145000Y-89535000D01*
X151145000Y-104765000D02*
X149885000Y-103505000D01*
X171450000Y-94615000D02*
X171450000Y-74950000D01*
X151145000Y-120005000D02*
X151145000Y-124445000D01*
X151145000Y-124445000D02*
X151130000Y-124460000D01*
%TO.N,/MDB4*%
X153685000Y-120005000D02*
X153685000Y-131430000D01*
X152369511Y-109885489D02*
X153685000Y-108570000D01*
X153685000Y-108570000D02*
X153685000Y-104765000D01*
X153685000Y-131430000D02*
X154925000Y-131430000D01*
X165862000Y-77978000D02*
X167386000Y-76454000D01*
X154925000Y-131430000D02*
X154940000Y-131445000D01*
X153685000Y-131430000D02*
X153670000Y-131445000D01*
X152400000Y-100965000D02*
X152400000Y-96514781D01*
X167386000Y-75174000D02*
X168260000Y-74300000D01*
X153685000Y-93330000D02*
X153685000Y-89535000D01*
X152400000Y-94615000D02*
X153685000Y-93330000D01*
X153685000Y-120005000D02*
X153685000Y-116855000D01*
X171450000Y-132080000D02*
X171450000Y-127635000D01*
X152414999Y-96499782D02*
X152414999Y-94629999D01*
X168275000Y-97155000D02*
X168275000Y-78105000D01*
X168275000Y-78105000D02*
X168260000Y-78090000D01*
X168260000Y-78090000D02*
X168260000Y-74300000D01*
X153685000Y-104765000D02*
X153685000Y-102250000D01*
X152400000Y-96514781D02*
X152414999Y-96499782D01*
X154940000Y-131445000D02*
X154940000Y-132080000D01*
X167386000Y-76454000D02*
X167386000Y-75174000D01*
X153685000Y-116855000D02*
X152369511Y-115539511D01*
X153670000Y-102235000D02*
X152400000Y-100965000D01*
X152369511Y-115539511D02*
X152369511Y-109885489D01*
X152414999Y-94629999D02*
X152400000Y-94615000D01*
X153685000Y-102250000D02*
X153670000Y-102235000D01*
%TO.N,/MDB5*%
X156225000Y-104765000D02*
X156225000Y-102250000D01*
X156225000Y-120005000D02*
X156225000Y-118125000D01*
X167005000Y-121920000D02*
X167005000Y-125095000D01*
X156225000Y-108570000D02*
X156225000Y-104765000D01*
X154940000Y-109855000D02*
X156225000Y-108570000D01*
X154940000Y-89535000D02*
X156225000Y-89535000D01*
X156225000Y-102250000D02*
X154940000Y-100965000D01*
X154940000Y-80010000D02*
X154940000Y-73660000D01*
X154940000Y-100965000D02*
X154940000Y-89535000D01*
X154940000Y-89535000D02*
X154940000Y-80010000D01*
X168910000Y-127000000D02*
X168910000Y-127635000D01*
X154940000Y-116840000D02*
X154940000Y-109855000D01*
X156225000Y-118125000D02*
X154940000Y-116840000D01*
X167005000Y-125095000D02*
X168910000Y-127000000D01*
%TO.N,/MDB6*%
X158750000Y-110490000D02*
X158765000Y-110475000D01*
X158765000Y-90439000D02*
X158765000Y-89535000D01*
X158765000Y-104765000D02*
X158765000Y-102250000D01*
X157226000Y-91948000D02*
X157226000Y-91694000D01*
X158765000Y-118125000D02*
X158750000Y-118110000D01*
X157449511Y-94645489D02*
X158765000Y-93330000D01*
X157480000Y-85725000D02*
X158765000Y-87010000D01*
X156972000Y-92202000D02*
X157226000Y-91948000D01*
X158765000Y-87010000D02*
X158765000Y-89535000D01*
X158750000Y-118110000D02*
X160020000Y-116840000D01*
X165100000Y-123190000D02*
X165100000Y-126365000D01*
X158765000Y-93330000D02*
X158765000Y-90439000D01*
X158115000Y-78105000D02*
X157480000Y-78740000D01*
X157449511Y-100934511D02*
X157449511Y-94645489D01*
X158765000Y-110475000D02*
X158765000Y-104765000D01*
X160020000Y-116840000D02*
X160020000Y-111760000D01*
X158765000Y-120005000D02*
X158765000Y-118125000D01*
X158765000Y-122570000D02*
X159385000Y-123190000D01*
X158100000Y-74300000D02*
X158100000Y-78090000D01*
X158481000Y-90439000D02*
X158765000Y-90439000D01*
X158100000Y-78090000D02*
X158115000Y-78105000D01*
X165100000Y-126365000D02*
X166370000Y-127635000D01*
X158765000Y-120005000D02*
X158765000Y-122570000D01*
X158765000Y-102250000D02*
X157449511Y-100934511D01*
X160020000Y-111760000D02*
X158750000Y-110490000D01*
X157226000Y-91694000D02*
X158481000Y-90439000D01*
X157480000Y-78740000D02*
X157480000Y-85725000D01*
%TO.N,/MDB7*%
X162620489Y-109915489D02*
X161290000Y-108585000D01*
X159380000Y-59060000D02*
X158100000Y-59060000D01*
X161305000Y-108570000D02*
X161305000Y-104765000D01*
X162620489Y-116779511D02*
X162620489Y-109915489D01*
X159385000Y-78740000D02*
X159385000Y-59055000D01*
X161305000Y-102250000D02*
X160020000Y-100965000D01*
X161305000Y-118125000D02*
X161290000Y-118110000D01*
X161290000Y-108585000D02*
X161305000Y-108570000D01*
X161305000Y-88280000D02*
X160655000Y-87630000D01*
X161305000Y-120005000D02*
X161305000Y-125715000D01*
X161305000Y-125715000D02*
X161290000Y-125730000D01*
X161305000Y-120005000D02*
X161305000Y-118125000D01*
X159385000Y-59055000D02*
X159380000Y-59060000D01*
X160020000Y-94615000D02*
X161305000Y-93330000D01*
X160020000Y-83185000D02*
X160020000Y-79375000D01*
X161290000Y-118110000D02*
X162620489Y-116779511D01*
X160020000Y-79375000D02*
X159385000Y-78740000D01*
X160020000Y-100965000D02*
X160020000Y-94615000D01*
X160655000Y-83820000D02*
X160020000Y-83185000D01*
X161305000Y-93330000D02*
X161305000Y-89535000D01*
X160655000Y-87630000D02*
X160655000Y-83820000D01*
X161305000Y-104765000D02*
X161305000Y-102250000D01*
X161305000Y-89535000D02*
X161305000Y-88280000D01*
%TO.N,/MDB8*%
X169545000Y-91440000D02*
X169484511Y-91379511D01*
X163845000Y-100345000D02*
X162560000Y-99060000D01*
X160655000Y-63500000D02*
X160640000Y-63485000D01*
X165100000Y-115570000D02*
X165100000Y-109855000D01*
X160528000Y-63627000D02*
X160655000Y-63500000D01*
X163845000Y-104765000D02*
X163845000Y-100345000D01*
X162560000Y-94615000D02*
X163845000Y-93330000D01*
X162570000Y-120005000D02*
X162560000Y-120015000D01*
X161290000Y-127635000D02*
X162560000Y-127635000D01*
X162560000Y-99060000D02*
X162560000Y-94615000D01*
X169484511Y-63560489D02*
X169545000Y-63500000D01*
X163068000Y-64008000D02*
X160528000Y-64008000D01*
X163845000Y-93330000D02*
X163845000Y-89535000D01*
X160640000Y-63485000D02*
X160640000Y-59060000D01*
X162560000Y-118110000D02*
X165100000Y-115570000D01*
X163845000Y-108570000D02*
X163845000Y-104765000D01*
X163830000Y-108585000D02*
X163845000Y-108570000D01*
X162560000Y-127635000D02*
X162560000Y-120015000D01*
X162560000Y-120015000D02*
X162560000Y-118110000D01*
X169484511Y-91379511D02*
X169484511Y-63560489D01*
X160528000Y-64008000D02*
X160528000Y-63627000D01*
X165100000Y-109855000D02*
X163830000Y-108585000D01*
X163845000Y-120005000D02*
X162570000Y-120005000D01*
%TO.N,/AENb*%
X148590000Y-130810000D02*
X149352000Y-130048000D01*
X113665000Y-132080000D02*
X113030000Y-132715000D01*
X113030000Y-132715000D02*
X113030000Y-135245000D01*
X148590000Y-135255000D02*
X148590000Y-132080000D01*
X148590000Y-132080000D02*
X148590000Y-130810000D01*
%TO.N,/~{RD}*%
X143510000Y-133985000D02*
X144780000Y-132715000D01*
X130805000Y-115575000D02*
X130810000Y-115570000D01*
D38*
X176530000Y-101600000D02*
X176530000Y-109220000D01*
D37*
X130805000Y-120005000D02*
X130805000Y-115575000D01*
X85090000Y-109220000D02*
X85085000Y-109215000D01*
D38*
X176530000Y-76200000D02*
X176530000Y-101600000D01*
D37*
X132080000Y-114300000D02*
X132080000Y-109220000D01*
X144780000Y-132715000D02*
X144780000Y-121920000D01*
X130810000Y-115570000D02*
X132080000Y-114300000D01*
X85085000Y-109215000D02*
X85085000Y-104765000D01*
X143510000Y-135255000D02*
X143510000Y-133985000D01*
%TO.N,/A9b*%
X142875000Y-125095000D02*
X142875000Y-111760000D01*
X138430000Y-125095000D02*
X142875000Y-125095000D01*
X138430000Y-127635000D02*
X138430000Y-125095000D01*
%TO.N,/A8b*%
X133350000Y-132080000D02*
X132080000Y-130810000D01*
X132080000Y-117475000D02*
X133350000Y-116205000D01*
X133350000Y-116205000D02*
X133345000Y-116200000D01*
X133345000Y-116200000D02*
X133345000Y-112385000D01*
X132080000Y-130810000D02*
X132080000Y-117475000D01*
X133350000Y-135255000D02*
X133350000Y-132080000D01*
%TO.N,/IOACT*%
X135885000Y-125090000D02*
X135885000Y-120005000D01*
X83820000Y-125095000D02*
X85090000Y-123825000D01*
X83820000Y-130810000D02*
X83820000Y-125095000D01*
X85090000Y-123825000D02*
X85085000Y-123820000D01*
X85105000Y-135245000D02*
X85105000Y-132095000D01*
X85090000Y-132080000D02*
X83820000Y-130810000D01*
X135890000Y-125095000D02*
X135885000Y-125090000D01*
X85085000Y-123820000D02*
X85085000Y-120005000D01*
X85105000Y-132095000D02*
X85090000Y-132080000D01*
%TO.N,/DMA_ACK*%
X88900000Y-116205000D02*
X86360000Y-113665000D01*
X88900000Y-130810000D02*
X88900000Y-116205000D01*
X86360000Y-113665000D02*
X86360000Y-106030000D01*
X86360000Y-106030000D02*
X87625000Y-104765000D01*
X143510000Y-127635000D02*
X143510000Y-130810000D01*
%TO.N,/IOSEL*%
X86360000Y-130810000D02*
X86360000Y-125095000D01*
X106680000Y-111760000D02*
X106680000Y-114930000D01*
X87645000Y-135245000D02*
X87645000Y-132095000D01*
X87625000Y-123820000D02*
X87625000Y-120005000D01*
X87645000Y-132095000D02*
X86360000Y-130810000D01*
X106680000Y-114930000D02*
X106690000Y-114940000D01*
X87630000Y-123825000D02*
X87625000Y-123820000D01*
X86360000Y-125095000D02*
X87630000Y-123825000D01*
D38*
%TO.N,/~{WR}*%
X173355000Y-77470000D02*
X173355000Y-80010000D01*
D37*
X148590000Y-123190000D02*
X146685000Y-123190000D01*
X173990000Y-116205000D02*
X173990000Y-92075000D01*
D38*
X180960000Y-77455000D02*
X180975000Y-77470000D01*
D37*
X133350000Y-123190000D02*
X133350000Y-120010000D01*
D38*
X173990000Y-80645000D02*
X173990000Y-92075000D01*
D37*
X145288000Y-116332000D02*
X146558000Y-116332000D01*
D38*
X173355000Y-80010000D02*
X173990000Y-80645000D01*
D37*
X133350000Y-120010000D02*
X133345000Y-120005000D01*
X146685000Y-123190000D02*
X146685000Y-116205000D01*
X146558000Y-116332000D02*
X146685000Y-116205000D01*
X148590000Y-127635000D02*
X148590000Y-123190000D01*
X145288000Y-115062000D02*
X145288000Y-116332000D01*
D38*
X180960000Y-74300000D02*
X180960000Y-77455000D01*
D37*
%TO.N,Net-(TP74-Pad1)*%
X154940000Y-102235000D02*
X154940000Y-107950000D01*
X165100000Y-81915000D02*
X166385000Y-81915000D01*
X153685000Y-97145000D02*
X153685000Y-100950000D01*
X153670000Y-100965000D02*
X154940000Y-102235000D01*
X165100000Y-107950000D02*
X165100000Y-81915000D01*
X153685000Y-100950000D02*
X153670000Y-100965000D01*
D38*
%TO.N,/CLKp3*%
X133980000Y-66680000D02*
X133985000Y-66675000D01*
%TO.N,/~{DTR}*%
X186055000Y-99695000D02*
X186690000Y-99060000D01*
X183515000Y-99695000D02*
X186055000Y-99695000D01*
X182895000Y-99045000D02*
X182880000Y-99060000D01*
%TO.N,/CLKp3*%
X178420000Y-65420000D02*
X178435000Y-65405000D01*
%TO.N,/~{DTR}*%
X186690000Y-78105000D02*
X187325000Y-77470000D01*
%TO.N,/CLKp3*%
X178420000Y-74300000D02*
X178420000Y-65420000D01*
%TO.N,/~{DTR}*%
X182880000Y-99060000D02*
X183515000Y-99695000D01*
%TO.N,/CLKp3*%
X178435000Y-65405000D02*
X178435000Y-60960000D01*
X133980000Y-70475000D02*
X133980000Y-66680000D01*
%TO.N,/~{DTR}*%
X187325000Y-77470000D02*
X187325000Y-65405000D01*
X186690000Y-99060000D02*
X186690000Y-78105000D01*
X182895000Y-97145000D02*
X182895000Y-99045000D01*
D37*
X168260000Y-64755000D02*
X168260000Y-59060000D01*
X111750000Y-89525000D02*
X110485000Y-89525000D01*
X111760000Y-89535000D02*
X111750000Y-89525000D01*
X130805000Y-104775000D02*
X132080000Y-104775000D01*
X132080000Y-104775000D02*
X132080000Y-93345000D01*
X77465000Y-104765000D02*
X77465000Y-107945000D01*
X111760000Y-107770980D02*
X111760000Y-89535000D01*
X168275000Y-64770000D02*
X168260000Y-64755000D01*
X153670000Y-72579500D02*
X153670000Y-64770000D01*
X132080000Y-93345000D02*
X132080000Y-74930000D01*
X77465000Y-107945000D02*
X77470000Y-107950000D01*
%TO.N,/A0b*%
X184658000Y-76962000D02*
X184658000Y-75682000D01*
X138430000Y-84455000D02*
X137160000Y-83185000D01*
X133350000Y-127635000D02*
X133350000Y-127000000D01*
X184658000Y-75682000D02*
X186040000Y-74300000D01*
X137160000Y-83185000D02*
X137160000Y-78740000D01*
X138430000Y-86360000D02*
X138430000Y-84455000D01*
X134620000Y-125730000D02*
X134620000Y-102870000D01*
X137200489Y-100289511D02*
X137200489Y-94020489D01*
X137160000Y-78740000D02*
X137160000Y-73660000D01*
X133350000Y-127000000D02*
X134620000Y-125730000D01*
X137160000Y-93980000D02*
X137160000Y-87630000D01*
X137160000Y-87630000D02*
X138430000Y-86360000D01*
X137200489Y-94020489D02*
X137160000Y-93980000D01*
X134620000Y-102870000D02*
X137200489Y-100289511D01*
%TO.N,/UART-~{CS}*%
X183515000Y-70485000D02*
X183515000Y-74285000D01*
X95250000Y-123190000D02*
X95250000Y-107315000D01*
X95250000Y-102870000D02*
X95250000Y-64770000D01*
X95250000Y-64770000D02*
X95250000Y-60960000D01*
X94615000Y-106680000D02*
X94615000Y-103505000D01*
X140208000Y-59436000D02*
X140208000Y-60960000D01*
X183515000Y-74285000D02*
X183500000Y-74300000D01*
X140208000Y-60960000D02*
X141605000Y-60960000D01*
X94615000Y-103505000D02*
X95250000Y-102870000D01*
X141605000Y-60960000D02*
X141605000Y-70485000D01*
X95250000Y-107315000D02*
X94615000Y-106680000D01*
D38*
%TO.N,/CLKp0*%
X126365000Y-57150000D02*
X126360000Y-57155000D01*
X126360000Y-57155000D02*
X126360000Y-62855000D01*
D37*
%TO.N,/~{RTS}*%
X83185000Y-99060000D02*
X83820000Y-98425000D01*
X83860489Y-104180489D02*
X83185000Y-103505000D01*
X106720489Y-77510489D02*
X105410000Y-76200000D01*
X105405000Y-90810000D02*
X105405000Y-89525000D01*
D38*
X170800000Y-59060000D02*
X170800000Y-57165000D01*
X151765000Y-57150000D02*
X150495000Y-55880000D01*
D37*
X105405000Y-87000000D02*
X106720489Y-85684511D01*
X83805000Y-111125000D02*
X83820000Y-111125000D01*
D38*
X150495000Y-55880000D02*
X121920000Y-55880000D01*
X105410000Y-59055000D02*
X105410000Y-66675000D01*
X121920000Y-55880000D02*
X118745000Y-59055000D01*
D37*
X105410000Y-76200000D02*
X105410000Y-66675000D01*
X105405000Y-89525000D02*
X105405000Y-87000000D01*
X104140000Y-94615000D02*
X104140000Y-92075000D01*
X106720489Y-85684511D02*
X106720489Y-77510489D01*
X104140000Y-92075000D02*
X105405000Y-90810000D01*
D38*
X118745000Y-59055000D02*
X105410000Y-59055000D01*
D37*
X83185000Y-103505000D02*
X83185000Y-99060000D01*
X83860489Y-111084511D02*
X83860489Y-104180489D01*
X83820000Y-111125000D02*
X83860489Y-111084511D01*
X82545000Y-112385000D02*
X83805000Y-111125000D01*
D38*
X170815000Y-57150000D02*
X151765000Y-57150000D01*
X170800000Y-57165000D02*
X170815000Y-57150000D01*
D37*
X83820000Y-98425000D02*
X83820000Y-93980000D01*
%TO.N,/Data*%
X181620000Y-104765000D02*
X182895000Y-104765000D01*
X182245000Y-80010000D02*
X182245000Y-64135000D01*
X153685000Y-81915000D02*
X153685000Y-85710000D01*
X181610000Y-85725000D02*
X181610000Y-80645000D01*
X181610000Y-80645000D02*
X182245000Y-80010000D01*
X181610000Y-104775000D02*
X181620000Y-104765000D01*
X133350000Y-89530000D02*
X133365000Y-89545000D01*
X153685000Y-85710000D02*
X153670000Y-85725000D01*
X133350000Y-85725000D02*
X133350000Y-89530000D01*
X181610000Y-85725000D02*
X181610000Y-104775000D01*
D38*
%TO.N,/Attention*%
X180355000Y-100315000D02*
X180355000Y-97145000D01*
X195580000Y-78740000D02*
X195580000Y-69215000D01*
D37*
X146050000Y-111760000D02*
X146050000Y-93345000D01*
D38*
X174625000Y-78740000D02*
X174625000Y-59055000D01*
X173340000Y-59060000D02*
X173340000Y-61326000D01*
X173228000Y-61722000D02*
X172948600Y-61722000D01*
X180340000Y-100330000D02*
X180355000Y-100315000D01*
X173340000Y-61326000D02*
X173482000Y-61468000D01*
X174620000Y-59060000D02*
X173340000Y-59060000D01*
X195580000Y-69215000D02*
X198120000Y-69215000D01*
X174625000Y-59055000D02*
X174620000Y-59060000D01*
X146050000Y-81915000D02*
X146050000Y-93345000D01*
X173482000Y-61468000D02*
X173228000Y-61722000D01*
X191770000Y-78740000D02*
X191770000Y-100330000D01*
%TO.N,Net-(TP88-Pad1)*%
X119390000Y-89545000D02*
X119380000Y-89535000D01*
X118110000Y-90805000D02*
X114300000Y-90805000D01*
D37*
X123190000Y-94615000D02*
X123205000Y-94600000D01*
D38*
X119380000Y-89535000D02*
X118110000Y-90805000D01*
X114300000Y-90805000D02*
X113025000Y-89530000D01*
D37*
X123205000Y-94600000D02*
X123205000Y-89545000D01*
D38*
X123205000Y-89545000D02*
X119390000Y-89545000D01*
X113025000Y-89530000D02*
X113025000Y-89525000D01*
%TO.N,Net-(TP89-Pad1)*%
X135905000Y-86345000D02*
X136398000Y-85852000D01*
X135905000Y-89545000D02*
X135905000Y-86345000D01*
%TO.N,/RXD*%
X138684000Y-94488000D02*
X139700000Y-94488000D01*
X138425000Y-97155000D02*
X142240000Y-97155000D01*
X138425000Y-97155000D02*
X138425000Y-94747000D01*
X142240000Y-97155000D02*
X142240000Y-80010000D01*
X163180000Y-79995000D02*
X163180000Y-74300000D01*
X163195000Y-80010000D02*
X163180000Y-79995000D01*
X138425000Y-94747000D02*
X138684000Y-94488000D01*
D37*
%TO.N,Net-(R1-Pad1)*%
X106680000Y-97790000D02*
X107315000Y-98425000D01*
X106680000Y-102870000D02*
X105410000Y-102870000D01*
X107315000Y-98425000D02*
X107315000Y-102235000D01*
X106680000Y-95885000D02*
X106680000Y-97790000D01*
X105410000Y-104770000D02*
X105405000Y-104765000D01*
X105410000Y-107442000D02*
X105410000Y-104770000D01*
X105410000Y-102870000D02*
X105405000Y-102875000D01*
X105405000Y-102875000D02*
X105405000Y-104765000D01*
X107315000Y-102235000D02*
X106680000Y-102870000D01*
%TO.N,Net-(TP91-Pad1)*%
X160020000Y-86995000D02*
X158750000Y-85725000D01*
D38*
X102865000Y-85730000D02*
X102865000Y-89525000D01*
D37*
X117348000Y-77597000D02*
X117348000Y-86360000D01*
X158765000Y-97145000D02*
X158765000Y-94630000D01*
X158750000Y-94615000D02*
X160020000Y-93345000D01*
X158750000Y-85725000D02*
X158765000Y-85710000D01*
X152400000Y-80645000D02*
X152400000Y-77470000D01*
X160020000Y-93345000D02*
X160020000Y-86995000D01*
D38*
X86350000Y-81905000D02*
X86360000Y-81915000D01*
X85085000Y-81905000D02*
X86350000Y-81905000D01*
X86360000Y-81915000D02*
X86360000Y-85725000D01*
X102870000Y-85725000D02*
X102865000Y-85730000D01*
D37*
X158765000Y-94630000D02*
X158750000Y-94615000D01*
X117475000Y-77470000D02*
X117348000Y-77597000D01*
X158765000Y-85710000D02*
X158765000Y-81915000D01*
%TO.N,Net-(TP93-Pad1)*%
X82545000Y-93350000D02*
X82550000Y-93345000D01*
X82545000Y-97145000D02*
X82545000Y-93350000D01*
X82545000Y-109850000D02*
X82550000Y-109855000D01*
X82545000Y-104765000D02*
X82545000Y-97145000D01*
X125730000Y-116205000D02*
X125725000Y-116210000D01*
X82545000Y-89525000D02*
X82545000Y-87889000D01*
X82545000Y-87889000D02*
X83312000Y-87122000D01*
X124460000Y-114935000D02*
X125730000Y-116205000D01*
X124460000Y-109665500D02*
X124460000Y-114935000D01*
X82545000Y-93350000D02*
X82545000Y-89525000D01*
X82545000Y-104765000D02*
X82545000Y-109850000D01*
X125725000Y-116210000D02*
X125725000Y-120005000D01*
%TO.N,Net-(TP94-Pad1)*%
X87630000Y-89530000D02*
X87625000Y-89525000D01*
X87630000Y-92075000D02*
X87630000Y-89530000D01*
X80005000Y-92080000D02*
X80010000Y-92075000D01*
X87884000Y-92964000D02*
X87884000Y-92329000D01*
X87122000Y-93980000D02*
X87122000Y-93726000D01*
X87884000Y-92329000D02*
X87630000Y-92075000D01*
X87122000Y-93726000D02*
X87884000Y-92964000D01*
X80005000Y-97145000D02*
X80005000Y-92080000D01*
%TO.N,Net-(TP95-Pad1)*%
X80010000Y-83820000D02*
X80005000Y-83815000D01*
X80005000Y-83815000D02*
X80005000Y-81905000D01*
X76200000Y-100330000D02*
X76200000Y-83820000D01*
X76200000Y-83820000D02*
X80010000Y-83820000D01*
D38*
%TO.N,/Command*%
X189230000Y-81915000D02*
X190515000Y-81915000D01*
X189865000Y-78105000D02*
X190515000Y-78755000D01*
X190515000Y-78755000D02*
X190515000Y-81915000D01*
X180960000Y-59060000D02*
X180960000Y-61580000D01*
X189865000Y-67945000D02*
X189865000Y-78105000D01*
X191135000Y-66675000D02*
X189865000Y-67945000D01*
X191135000Y-61595000D02*
X191135000Y-66675000D01*
X189230000Y-93345000D02*
X189230000Y-81915000D01*
X180960000Y-61580000D02*
X180975000Y-61595000D01*
%TO.N,Net-(TP96-Pad1)*%
X91440000Y-86360000D02*
X91440000Y-90805000D01*
X90165000Y-85085000D02*
X90170000Y-85090000D01*
D37*
X133345000Y-104775000D02*
X133345000Y-101605000D01*
X133350000Y-101600000D02*
X134620000Y-100330000D01*
D38*
X90170000Y-85090000D02*
X91440000Y-86360000D01*
D37*
X133345000Y-101605000D02*
X133350000Y-101600000D01*
D38*
X90165000Y-81905000D02*
X90165000Y-85085000D01*
D37*
X134620000Y-100330000D02*
X134620000Y-94615000D01*
D38*
%TO.N,Net-(TP97-Pad1)*%
X109220000Y-89535000D02*
X109220000Y-93980000D01*
X125725000Y-94610000D02*
X125725000Y-97155000D01*
X108712000Y-86614000D02*
X108712000Y-86360000D01*
X107945000Y-89525000D02*
X107945000Y-87381000D01*
X109210000Y-89525000D02*
X109220000Y-89535000D01*
X125095000Y-93980000D02*
X125725000Y-94610000D01*
X107945000Y-87381000D02*
X108712000Y-86614000D01*
X107945000Y-89525000D02*
X109210000Y-89525000D01*
D37*
%TO.N,Net-(TP100-Pad1)*%
X81280000Y-118110000D02*
X81280000Y-103505000D01*
X81915000Y-102870000D02*
X81915000Y-99695000D01*
X81280000Y-99060000D02*
X81280000Y-80010000D01*
X81915000Y-99695000D02*
X81280000Y-99060000D01*
X77470000Y-80010000D02*
X77470000Y-71115000D01*
X82545000Y-118115000D02*
X82550000Y-118110000D01*
X82545000Y-120005000D02*
X82545000Y-118115000D01*
X81280000Y-80010000D02*
X77470000Y-80010000D01*
X81280000Y-103505000D02*
X81915000Y-102870000D01*
X77470000Y-71115000D02*
X76830000Y-70475000D01*
X82550000Y-118110000D02*
X81280000Y-118110000D01*
%TO.N,Net-(TP101-Pad1)*%
X87630000Y-109855000D02*
X87630000Y-107315000D01*
X90932000Y-73660000D02*
X89154000Y-73660000D01*
X135905000Y-73040000D02*
X135905000Y-81925000D01*
X88900000Y-100330000D02*
X88900000Y-95885000D01*
X89535000Y-91440000D02*
X88900000Y-90805000D01*
X88900000Y-95885000D02*
X89535000Y-95250000D01*
X90165000Y-112385000D02*
X87635000Y-109855000D01*
X88900000Y-90805000D02*
X88900000Y-73406000D01*
X88265000Y-100965000D02*
X88900000Y-100330000D01*
X135890000Y-73025000D02*
X135905000Y-73040000D01*
X88900000Y-104140000D02*
X88265000Y-103505000D01*
X87635000Y-109855000D02*
X87630000Y-109855000D01*
X89535000Y-93980000D02*
X89535000Y-91440000D01*
X89535000Y-95250000D02*
X89535000Y-93980000D01*
X88900000Y-73406000D02*
X88900000Y-73025000D01*
X88265000Y-103505000D02*
X88265000Y-100965000D01*
X87630000Y-107315000D02*
X88900000Y-106045000D01*
X89154000Y-73660000D02*
X88900000Y-73406000D01*
X88900000Y-106045000D02*
X88900000Y-104140000D01*
%TO.N,/Command+*%
X197104000Y-100076000D02*
X196088000Y-101092000D01*
X197104000Y-81788000D02*
X197104000Y-100076000D01*
X195580000Y-113284000D02*
X196088000Y-113792000D01*
X196088000Y-101092000D02*
X195580000Y-101092000D01*
X195580000Y-101092000D02*
X195580000Y-113284000D01*
X196088000Y-113792000D02*
X198017000Y-113792000D01*
X198017000Y-113792000D02*
X198755000Y-114530000D01*
D40*
%TO.N,/Command-*%
X202692000Y-81280000D02*
X203200000Y-81788000D01*
D37*
X203708000Y-113802000D02*
X201595000Y-115915000D01*
X203708000Y-82296000D02*
X203708000Y-113802000D01*
D40*
X202692000Y-80010000D02*
X202692000Y-81280000D01*
D37*
X203200000Y-81788000D02*
X203708000Y-82296000D01*
D38*
%TO.N,/RXD*%
X180340000Y-80010000D02*
X179705000Y-79375000D01*
X185435000Y-97145000D02*
X185435000Y-95265000D01*
X179705000Y-72390000D02*
X179705000Y-60325000D01*
X185435000Y-95265000D02*
X185420000Y-95250000D01*
X185420000Y-95250000D02*
X184150000Y-95250000D01*
X184150000Y-95250000D02*
X184150000Y-80010000D01*
X179705000Y-79375000D02*
X179705000Y-72390000D01*
D37*
%TO.N,Net-(TP14-Pad1)*%
X158496000Y-128524000D02*
X158496000Y-129286000D01*
X157480000Y-124460000D02*
X157480000Y-123190000D01*
X158750000Y-124460000D02*
X157480000Y-124460000D01*
X158750000Y-128270000D02*
X158496000Y-128524000D01*
X158750000Y-127635000D02*
X158750000Y-128270000D01*
X158496000Y-129286000D02*
X159258000Y-130048000D01*
X158750000Y-127635000D02*
X158750000Y-124460000D01*
%TO.N,/U7116-~{OE}*%
X156225000Y-78755000D02*
X156210000Y-78740000D01*
D38*
X93980000Y-93345000D02*
X93980000Y-64770000D01*
D37*
X156225000Y-81915000D02*
X156225000Y-78755000D01*
D38*
X92705000Y-94620000D02*
X93980000Y-93345000D01*
D37*
X156845000Y-78105000D02*
X156845000Y-67310000D01*
D38*
X155575000Y-59690000D02*
X156845000Y-60960000D01*
X93980000Y-59690000D02*
X93980000Y-58420000D01*
X92705000Y-97145000D02*
X92705000Y-94620000D01*
X93980000Y-58420000D02*
X94234000Y-58166000D01*
X93980000Y-64770000D02*
X93980000Y-59690000D01*
X156845000Y-60960000D02*
X156845000Y-67310000D01*
D37*
X156210000Y-78740000D02*
X156845000Y-78105000D01*
D38*
%TO.N,Net-(TP103-Pad1)*%
X138445000Y-71770000D02*
X138445000Y-81925000D01*
X138430000Y-71755000D02*
X138445000Y-71770000D01*
X82550000Y-70475000D02*
X82550000Y-73152000D01*
X82550000Y-73152000D02*
X82042000Y-73660000D01*
%TO.N,Net-(TP104-Pad1)*%
X85090000Y-70475000D02*
X85090000Y-77470000D01*
X104140000Y-77470000D02*
X104140000Y-81280000D01*
X104140000Y-81280000D02*
X103515000Y-81905000D01*
X103515000Y-81905000D02*
X102865000Y-81905000D01*
%TO.N,Net-(TP105-Pad1)*%
X80010000Y-67564000D02*
X80264000Y-67310000D01*
X80010000Y-70475000D02*
X80010000Y-67564000D01*
D37*
%TO.N,Net-(TP26-Pad1)*%
X85090000Y-125095000D02*
X86360000Y-123825000D01*
X86360000Y-123825000D02*
X86360000Y-123190000D01*
X121285000Y-104775000D02*
X123185000Y-104775000D01*
X85105000Y-125110000D02*
X85090000Y-125095000D01*
X85105000Y-127625000D02*
X85105000Y-125110000D01*
X121285000Y-123825000D02*
X121285000Y-104775000D01*
%TO.N,Net-(TP32-Pad1)*%
X116840000Y-135255000D02*
X116840000Y-116205000D01*
X115585000Y-135245000D02*
X116830000Y-135245000D01*
X116830000Y-135245000D02*
X116840000Y-135255000D01*
X138430000Y-112390000D02*
X138425000Y-112385000D01*
X138430000Y-116205000D02*
X138430000Y-112390000D01*
%TO.N,Net-(TP33-Pad1)*%
X105425000Y-127625000D02*
X105425000Y-126380000D01*
X106690000Y-125085000D02*
X106690000Y-117480000D01*
X105410000Y-126365000D02*
X106690000Y-125085000D01*
X105425000Y-126380000D02*
X105410000Y-126365000D01*
%TO.N,Net-(TP34-Pad1)*%
X107965000Y-127625000D02*
X107965000Y-126380000D01*
X107950000Y-126365000D02*
X109230000Y-125085000D01*
X107965000Y-126380000D02*
X107950000Y-126365000D01*
X109230000Y-125085000D02*
X109230000Y-117480000D01*
%TO.N,Net-(TP35-Pad1)*%
X111760000Y-125095000D02*
X111770000Y-125085000D01*
X111770000Y-125085000D02*
X111770000Y-117480000D01*
X113045000Y-127625000D02*
X113045000Y-126380000D01*
X113045000Y-126380000D02*
X111760000Y-125095000D01*
%TO.N,Net-(TP36-Pad1)*%
X114310000Y-125085000D02*
X114310000Y-117480000D01*
X115585000Y-126380000D02*
X114300000Y-125095000D01*
X115585000Y-127625000D02*
X115585000Y-126380000D01*
X114300000Y-125095000D02*
X114310000Y-125085000D01*
%TO.N,/U7117-~{OE}*%
X85090000Y-97140000D02*
X85085000Y-97145000D01*
X98425000Y-116840000D02*
X98425000Y-105410000D01*
X99060000Y-117475000D02*
X98425000Y-116840000D01*
X156225000Y-100950000D02*
X156210000Y-100965000D01*
X95885000Y-92710000D02*
X96520000Y-92075000D01*
X95885000Y-105410000D02*
X95885000Y-92710000D01*
X157480000Y-102235000D02*
X157480000Y-107125500D01*
X130175000Y-106680000D02*
X129540000Y-107315000D01*
X99060000Y-123190000D02*
X97282000Y-123190000D01*
X129540000Y-114300000D02*
X127000000Y-116840000D01*
X127000000Y-122555000D02*
X126365000Y-123190000D01*
X85090000Y-93345000D02*
X85090000Y-97140000D01*
X97282000Y-123190000D02*
X97282000Y-120650000D01*
X129540000Y-107315000D02*
X129540000Y-114300000D01*
X156210000Y-100965000D02*
X157480000Y-102235000D01*
X127000000Y-116840000D02*
X127000000Y-122555000D01*
X156225000Y-97145000D02*
X156225000Y-100950000D01*
X99060000Y-123190000D02*
X99060000Y-117475000D01*
X126365000Y-123190000D02*
X125730000Y-123190000D01*
X132080000Y-106680000D02*
X130175000Y-106680000D01*
D38*
%TO.N,Net-(TP106-Pad1)*%
X144780000Y-58420000D02*
X144780000Y-93980000D01*
X169099500Y-93980000D02*
X169099500Y-94169500D01*
X90170000Y-62855000D02*
X90170000Y-60960000D01*
X170815000Y-95885000D02*
X170815000Y-100965000D01*
X169099500Y-94169500D02*
X170815000Y-95885000D01*
X170815000Y-100965000D02*
X170815000Y-111760000D01*
X90170000Y-60960000D02*
X88900000Y-59690000D01*
D37*
%TO.N,Net-(TP41-Pad1)*%
X110490000Y-101600000D02*
X110485000Y-101595000D01*
X80025000Y-125745000D02*
X80010000Y-125730000D01*
X77465000Y-92705000D02*
X77465000Y-89525000D01*
X80025000Y-127625000D02*
X80025000Y-125745000D01*
X78740000Y-95885000D02*
X77470000Y-94615000D01*
X78654022Y-103505000D02*
X78105000Y-103505000D01*
X78740000Y-125730000D02*
X78689511Y-125679511D01*
X110490000Y-97140000D02*
X110485000Y-97145000D01*
X128270000Y-106680000D02*
X127000000Y-106680000D01*
X129540000Y-81915000D02*
X129530000Y-81925000D01*
X78689511Y-125679511D02*
X78689511Y-103540489D01*
X78689511Y-103540489D02*
X78654022Y-103505000D01*
X78105000Y-103505000D02*
X78105000Y-99695000D01*
X127000000Y-106680000D02*
X127000000Y-100965000D01*
X77470000Y-94615000D02*
X77470000Y-92710000D01*
X110485000Y-101595000D02*
X110485000Y-97145000D01*
X128265000Y-106685000D02*
X128270000Y-106680000D01*
X129540000Y-99060000D02*
X129540000Y-81915000D01*
X127000000Y-100965000D02*
X127000000Y-99060000D01*
X127000000Y-99060000D02*
X129540000Y-99060000D01*
X78740000Y-99060000D02*
X78740000Y-95885000D01*
X128265000Y-112385000D02*
X128265000Y-106685000D01*
X110490000Y-94615000D02*
X110490000Y-97140000D01*
X129530000Y-81925000D02*
X128285000Y-81925000D01*
X77470000Y-92710000D02*
X77465000Y-92705000D01*
X80010000Y-125730000D02*
X78740000Y-125730000D01*
X78105000Y-99695000D02*
X78740000Y-99060000D01*
D38*
%TO.N,Net-(TP107-Pad1)*%
X100340000Y-89525000D02*
X101600000Y-88265000D01*
X101600000Y-79375000D02*
X97155000Y-74930000D01*
X101600000Y-88265000D02*
X101702989Y-88162011D01*
X100325000Y-89525000D02*
X100340000Y-89525000D01*
D37*
X91694000Y-67310000D02*
X90170000Y-68834000D01*
D38*
X101702989Y-88162011D02*
X101702989Y-79477989D01*
X101702989Y-79477989D02*
X101600000Y-79375000D01*
X97155000Y-74930000D02*
X97155000Y-66675000D01*
D37*
X90170000Y-68834000D02*
X90170000Y-70475000D01*
%TO.N,Net-(TP44-Pad1)*%
X85085000Y-114025600D02*
X84810600Y-114300000D01*
X85085000Y-112385000D02*
X85085000Y-114025600D01*
X84810600Y-114300000D02*
X83820000Y-114300000D01*
%TO.N,Net-(TP45-Pad1)*%
X92705000Y-106685000D02*
X92710000Y-106680000D01*
X92705000Y-114295000D02*
X93472000Y-115062000D01*
X92705000Y-112385000D02*
X92705000Y-106685000D01*
X92705000Y-112385000D02*
X92705000Y-114295000D01*
%TO.N,Net-(TP47-Pad1)*%
X109220000Y-109220000D02*
X109220000Y-106680000D01*
X109220000Y-102235000D02*
X108585000Y-101600000D01*
X109220000Y-106680000D02*
X109220000Y-102235000D01*
X125725000Y-112385000D02*
X125725000Y-106685000D01*
X90170000Y-97150000D02*
X90165000Y-97145000D01*
X125725000Y-106685000D02*
X125730000Y-106680000D01*
X90165000Y-97145000D02*
X90165000Y-89525000D01*
X90170000Y-100330000D02*
X90170000Y-97150000D01*
%TO.N,Net-(TP50-Pad1)*%
X100325000Y-103144400D02*
X100050600Y-102870000D01*
X100330000Y-126365000D02*
X100330000Y-110490000D01*
X100325000Y-110485000D02*
X100325000Y-104765000D01*
X100330000Y-110490000D02*
X100325000Y-110485000D01*
X100325000Y-104765000D02*
X100325000Y-103144400D01*
%TO.N,Net-(TP51-Pad1)*%
X80005000Y-120005000D02*
X80005000Y-116845000D01*
X97155000Y-100965000D02*
X97155000Y-99695000D01*
X113030000Y-100965000D02*
X113030000Y-97150000D01*
X113030000Y-97150000D02*
X113025000Y-97145000D01*
X97155000Y-116840000D02*
X97155000Y-100965000D01*
X80005000Y-116835000D02*
X80005000Y-112385000D01*
X80010000Y-116840000D02*
X80005000Y-116835000D01*
X97155000Y-99695000D02*
X97790000Y-99060000D01*
X80005000Y-116845000D02*
X80010000Y-116840000D01*
%TO.N,Net-(TP53-Pad1)*%
X125730000Y-89560000D02*
X125745000Y-89545000D01*
X91440000Y-100330000D02*
X91440000Y-93345000D01*
X91440000Y-104140000D02*
X92710000Y-102870000D01*
X125730000Y-92710000D02*
X125730000Y-89560000D01*
X92710000Y-101600000D02*
X91440000Y-100330000D01*
X91440000Y-110490000D02*
X91440000Y-104140000D01*
X91430000Y-127625000D02*
X91440000Y-127635000D01*
X91440000Y-127635000D02*
X91440000Y-110490000D01*
X90185000Y-127625000D02*
X91430000Y-127625000D01*
X92710000Y-102870000D02*
X92710000Y-101600000D01*
%TO.N,Net-(TP54-Pad1)*%
X125725000Y-104135000D02*
X125725000Y-104775000D01*
X124714000Y-103124000D02*
X125725000Y-104135000D01*
X124460000Y-102362000D02*
X124714000Y-102616000D01*
X124714000Y-102616000D02*
X124714000Y-103124000D01*
D38*
%TO.N,Net-(TP108-Pad1)*%
X130825000Y-92695000D02*
X130810000Y-92710000D01*
X86360000Y-71755000D02*
X86360000Y-66675000D01*
X83820000Y-66675000D02*
X82550000Y-65405000D01*
X82550000Y-65405000D02*
X82550000Y-62855000D01*
X87630000Y-73025000D02*
X86360000Y-71755000D01*
X134620000Y-92710000D02*
X134620000Y-73660000D01*
X130825000Y-89545000D02*
X130825000Y-92695000D01*
X86360000Y-66675000D02*
X83820000Y-66675000D01*
X87630000Y-75565000D02*
X87630000Y-73025000D01*
X82550000Y-60960000D02*
X85090000Y-58420000D01*
X82550000Y-62855000D02*
X82550000Y-60960000D01*
D37*
%TO.N,Net-(TP56-Pad1)*%
X123185000Y-117607000D02*
X123190000Y-117602000D01*
X123185000Y-120005000D02*
X123185000Y-117607000D01*
%TO.N,Net-(TP57-Pad1)*%
X128265000Y-97155000D02*
X127635000Y-97155000D01*
D38*
X105405000Y-81905000D02*
X105405000Y-83815000D01*
X105405000Y-78745000D02*
X105410000Y-78740000D01*
X105405000Y-83815000D02*
X105410000Y-83820000D01*
D37*
X143510000Y-109220000D02*
X143510000Y-94615000D01*
X127000000Y-96520000D02*
X127000000Y-93980000D01*
D38*
X105405000Y-81905000D02*
X105405000Y-78745000D01*
X127000000Y-85725000D02*
X127000000Y-96520000D01*
X105410000Y-83820000D02*
X104775000Y-84455000D01*
D37*
X127635000Y-97155000D02*
X127000000Y-96520000D01*
D38*
X143510000Y-76200000D02*
X143510000Y-94615000D01*
X104775000Y-84455000D02*
X104775000Y-85725000D01*
D37*
%TO.N,/Data Clock*%
X161290000Y-85725000D02*
X161305000Y-85710000D01*
X161305000Y-94630000D02*
X161290000Y-94615000D01*
X162560000Y-100330000D02*
X162560000Y-106680000D01*
X162560000Y-86995000D02*
X161290000Y-85725000D01*
X161305000Y-99075000D02*
X162560000Y-100330000D01*
X161305000Y-97145000D02*
X161305000Y-94630000D01*
X161305000Y-85710000D02*
X161305000Y-81915000D01*
D38*
X161305000Y-80660000D02*
X161305000Y-81915000D01*
D37*
X107945000Y-90955056D02*
X107945000Y-97145000D01*
X161290000Y-94615000D02*
X162560000Y-93345000D01*
X162560000Y-93345000D02*
X162560000Y-91440000D01*
D38*
X161925000Y-80010000D02*
X161290000Y-80645000D01*
D37*
X162560000Y-91440000D02*
X162560000Y-86995000D01*
X101600000Y-90805000D02*
X101600000Y-116840000D01*
X107950564Y-90949492D02*
X107945000Y-90955056D01*
D38*
X161290000Y-80645000D02*
X161305000Y-80660000D01*
X161925000Y-80010000D02*
X161925000Y-67056000D01*
D37*
X161305000Y-97145000D02*
X161305000Y-99075000D01*
%TD*%
M02*
