%TF.GenerationSoftware,KiCad,Pcbnew,6.0.2+dfsg-1*%
%TF.CreationDate,2022-08-28T14:07:19-07:00*%
%TF.ProjectId,ISA-Card,4953412d-4361-4726-942e-6b696361645f,1.0*%
%TF.SameCoordinates,Original*%
%TF.FileFunction,Legend,Top*%
%TF.FilePolarity,Positive*%
%FSLAX46Y46*%
G04 Gerber Fmt 4.6, Leading zero omitted, Abs format (unit mm)*
G04 Created by KiCad (PCBNEW 6.0.2+dfsg-1) date 2022-08-28 14:07:19*
%MOMM*%
%LPD*%
G01*
G04 APERTURE LIST*
%ADD10C,0.150000*%
%ADD11C,0.120000*%
G04 APERTURE END LIST*
D10*
%TO.C,R16*%
X222152380Y-113037857D02*
X221676190Y-113371190D01*
X222152380Y-113609285D02*
X221152380Y-113609285D01*
X221152380Y-113228333D01*
X221200000Y-113133095D01*
X221247619Y-113085476D01*
X221342857Y-113037857D01*
X221485714Y-113037857D01*
X221580952Y-113085476D01*
X221628571Y-113133095D01*
X221676190Y-113228333D01*
X221676190Y-113609285D01*
X222152380Y-112085476D02*
X222152380Y-112656904D01*
X222152380Y-112371190D02*
X221152380Y-112371190D01*
X221295238Y-112466428D01*
X221390476Y-112561666D01*
X221438095Y-112656904D01*
X221152380Y-111228333D02*
X221152380Y-111418809D01*
X221200000Y-111514047D01*
X221247619Y-111561666D01*
X221390476Y-111656904D01*
X221580952Y-111704523D01*
X221961904Y-111704523D01*
X222057142Y-111656904D01*
X222104761Y-111609285D01*
X222152380Y-111514047D01*
X222152380Y-111323571D01*
X222104761Y-111228333D01*
X222057142Y-111180714D01*
X221961904Y-111133095D01*
X221723809Y-111133095D01*
X221628571Y-111180714D01*
X221580952Y-111228333D01*
X221533333Y-111323571D01*
X221533333Y-111514047D01*
X221580952Y-111609285D01*
X221628571Y-111656904D01*
X221723809Y-111704523D01*
%TO.C,X3*%
X194962049Y-122114523D02*
X195962049Y-121447857D01*
X194962049Y-121447857D02*
X195962049Y-122114523D01*
X194962049Y-121162142D02*
X194962049Y-120543095D01*
X195343002Y-120876428D01*
X195343002Y-120733571D01*
X195390621Y-120638333D01*
X195438240Y-120590714D01*
X195533478Y-120543095D01*
X195771573Y-120543095D01*
X195866811Y-120590714D01*
X195914430Y-120638333D01*
X195962049Y-120733571D01*
X195962049Y-121019285D01*
X195914430Y-121114523D01*
X195866811Y-121162142D01*
%TO.C,U7102*%
X125392380Y-133635476D02*
X126201904Y-133635476D01*
X126297142Y-133587857D01*
X126344761Y-133540238D01*
X126392380Y-133445000D01*
X126392380Y-133254523D01*
X126344761Y-133159285D01*
X126297142Y-133111666D01*
X126201904Y-133064047D01*
X125392380Y-133064047D01*
X125392380Y-132683095D02*
X125392380Y-132016428D01*
X126392380Y-132445000D01*
X126392380Y-131111666D02*
X126392380Y-131683095D01*
X126392380Y-131397380D02*
X125392380Y-131397380D01*
X125535238Y-131492619D01*
X125630476Y-131587857D01*
X125678095Y-131683095D01*
X125392380Y-130492619D02*
X125392380Y-130397380D01*
X125440000Y-130302142D01*
X125487619Y-130254523D01*
X125582857Y-130206904D01*
X125773333Y-130159285D01*
X126011428Y-130159285D01*
X126201904Y-130206904D01*
X126297142Y-130254523D01*
X126344761Y-130302142D01*
X126392380Y-130397380D01*
X126392380Y-130492619D01*
X126344761Y-130587857D01*
X126297142Y-130635476D01*
X126201904Y-130683095D01*
X126011428Y-130730714D01*
X125773333Y-130730714D01*
X125582857Y-130683095D01*
X125487619Y-130635476D01*
X125440000Y-130587857D01*
X125392380Y-130492619D01*
X125487619Y-129778333D02*
X125440000Y-129730714D01*
X125392380Y-129635476D01*
X125392380Y-129397380D01*
X125440000Y-129302142D01*
X125487619Y-129254523D01*
X125582857Y-129206904D01*
X125678095Y-129206904D01*
X125820952Y-129254523D01*
X126392380Y-129825952D01*
X126392380Y-129206904D01*
%TO.C,R1*%
X222152380Y-124591666D02*
X221676190Y-124925000D01*
X222152380Y-125163095D02*
X221152380Y-125163095D01*
X221152380Y-124782142D01*
X221200000Y-124686904D01*
X221247619Y-124639285D01*
X221342857Y-124591666D01*
X221485714Y-124591666D01*
X221580952Y-124639285D01*
X221628571Y-124686904D01*
X221676190Y-124782142D01*
X221676190Y-125163095D01*
X222152380Y-123639285D02*
X222152380Y-124210714D01*
X222152380Y-123925000D02*
X221152380Y-123925000D01*
X221295238Y-124020238D01*
X221390476Y-124115476D01*
X221438095Y-124210714D01*
%TO.C,U7105*%
X74607380Y-133625476D02*
X75416904Y-133625476D01*
X75512142Y-133577857D01*
X75559761Y-133530238D01*
X75607380Y-133435000D01*
X75607380Y-133244523D01*
X75559761Y-133149285D01*
X75512142Y-133101666D01*
X75416904Y-133054047D01*
X74607380Y-133054047D01*
X74607380Y-132673095D02*
X74607380Y-132006428D01*
X75607380Y-132435000D01*
X75607380Y-131101666D02*
X75607380Y-131673095D01*
X75607380Y-131387380D02*
X74607380Y-131387380D01*
X74750238Y-131482619D01*
X74845476Y-131577857D01*
X74893095Y-131673095D01*
X74607380Y-130482619D02*
X74607380Y-130387380D01*
X74655000Y-130292142D01*
X74702619Y-130244523D01*
X74797857Y-130196904D01*
X74988333Y-130149285D01*
X75226428Y-130149285D01*
X75416904Y-130196904D01*
X75512142Y-130244523D01*
X75559761Y-130292142D01*
X75607380Y-130387380D01*
X75607380Y-130482619D01*
X75559761Y-130577857D01*
X75512142Y-130625476D01*
X75416904Y-130673095D01*
X75226428Y-130720714D01*
X74988333Y-130720714D01*
X74797857Y-130673095D01*
X74702619Y-130625476D01*
X74655000Y-130577857D01*
X74607380Y-130482619D01*
X74607380Y-129244523D02*
X74607380Y-129720714D01*
X75083571Y-129768333D01*
X75035952Y-129720714D01*
X74988333Y-129625476D01*
X74988333Y-129387380D01*
X75035952Y-129292142D01*
X75083571Y-129244523D01*
X75178809Y-129196904D01*
X75416904Y-129196904D01*
X75512142Y-129244523D01*
X75559761Y-129292142D01*
X75607380Y-129387380D01*
X75607380Y-129625476D01*
X75559761Y-129720714D01*
X75512142Y-129768333D01*
%TO.C,C6*%
X222027142Y-108551666D02*
X222074761Y-108599285D01*
X222122380Y-108742142D01*
X222122380Y-108837380D01*
X222074761Y-108980238D01*
X221979523Y-109075476D01*
X221884285Y-109123095D01*
X221693809Y-109170714D01*
X221550952Y-109170714D01*
X221360476Y-109123095D01*
X221265238Y-109075476D01*
X221170000Y-108980238D01*
X221122380Y-108837380D01*
X221122380Y-108742142D01*
X221170000Y-108599285D01*
X221217619Y-108551666D01*
X221122380Y-107694523D02*
X221122380Y-107885000D01*
X221170000Y-107980238D01*
X221217619Y-108027857D01*
X221360476Y-108123095D01*
X221550952Y-108170714D01*
X221931904Y-108170714D01*
X222027142Y-108123095D01*
X222074761Y-108075476D01*
X222122380Y-107980238D01*
X222122380Y-107789761D01*
X222074761Y-107694523D01*
X222027142Y-107646904D01*
X221931904Y-107599285D01*
X221693809Y-107599285D01*
X221598571Y-107646904D01*
X221550952Y-107694523D01*
X221503333Y-107789761D01*
X221503333Y-107980238D01*
X221550952Y-108075476D01*
X221598571Y-108123095D01*
X221693809Y-108170714D01*
%TO.C,U7104*%
X100007380Y-133625476D02*
X100816904Y-133625476D01*
X100912142Y-133577857D01*
X100959761Y-133530238D01*
X101007380Y-133435000D01*
X101007380Y-133244523D01*
X100959761Y-133149285D01*
X100912142Y-133101666D01*
X100816904Y-133054047D01*
X100007380Y-133054047D01*
X100007380Y-132673095D02*
X100007380Y-132006428D01*
X101007380Y-132435000D01*
X101007380Y-131101666D02*
X101007380Y-131673095D01*
X101007380Y-131387380D02*
X100007380Y-131387380D01*
X100150238Y-131482619D01*
X100245476Y-131577857D01*
X100293095Y-131673095D01*
X100007380Y-130482619D02*
X100007380Y-130387380D01*
X100055000Y-130292142D01*
X100102619Y-130244523D01*
X100197857Y-130196904D01*
X100388333Y-130149285D01*
X100626428Y-130149285D01*
X100816904Y-130196904D01*
X100912142Y-130244523D01*
X100959761Y-130292142D01*
X101007380Y-130387380D01*
X101007380Y-130482619D01*
X100959761Y-130577857D01*
X100912142Y-130625476D01*
X100816904Y-130673095D01*
X100626428Y-130720714D01*
X100388333Y-130720714D01*
X100197857Y-130673095D01*
X100102619Y-130625476D01*
X100055000Y-130577857D01*
X100007380Y-130482619D01*
X100340714Y-129292142D02*
X101007380Y-129292142D01*
X99959761Y-129530238D02*
X100674047Y-129768333D01*
X100674047Y-129149285D01*
%TO.C,C4*%
X64993333Y-88677142D02*
X64945714Y-88724761D01*
X64802857Y-88772380D01*
X64707619Y-88772380D01*
X64564761Y-88724761D01*
X64469523Y-88629523D01*
X64421904Y-88534285D01*
X64374285Y-88343809D01*
X64374285Y-88200952D01*
X64421904Y-88010476D01*
X64469523Y-87915238D01*
X64564761Y-87820000D01*
X64707619Y-87772380D01*
X64802857Y-87772380D01*
X64945714Y-87820000D01*
X64993333Y-87867619D01*
X65850476Y-88105714D02*
X65850476Y-88772380D01*
X65612380Y-87724761D02*
X65374285Y-88439047D01*
X65993333Y-88439047D01*
%TO.C,U7112*%
X74587380Y-87905476D02*
X75396904Y-87905476D01*
X75492142Y-87857857D01*
X75539761Y-87810238D01*
X75587380Y-87715000D01*
X75587380Y-87524523D01*
X75539761Y-87429285D01*
X75492142Y-87381666D01*
X75396904Y-87334047D01*
X74587380Y-87334047D01*
X74587380Y-86953095D02*
X74587380Y-86286428D01*
X75587380Y-86715000D01*
X75587380Y-85381666D02*
X75587380Y-85953095D01*
X75587380Y-85667380D02*
X74587380Y-85667380D01*
X74730238Y-85762619D01*
X74825476Y-85857857D01*
X74873095Y-85953095D01*
X75587380Y-84429285D02*
X75587380Y-85000714D01*
X75587380Y-84715000D02*
X74587380Y-84715000D01*
X74730238Y-84810238D01*
X74825476Y-84905476D01*
X74873095Y-85000714D01*
X74682619Y-84048333D02*
X74635000Y-84000714D01*
X74587380Y-83905476D01*
X74587380Y-83667380D01*
X74635000Y-83572142D01*
X74682619Y-83524523D01*
X74777857Y-83476904D01*
X74873095Y-83476904D01*
X75015952Y-83524523D01*
X75587380Y-84095952D01*
X75587380Y-83476904D01*
%TO.C,R14*%
X56497142Y-88802380D02*
X56163809Y-88326190D01*
X55925714Y-88802380D02*
X55925714Y-87802380D01*
X56306666Y-87802380D01*
X56401904Y-87850000D01*
X56449523Y-87897619D01*
X56497142Y-87992857D01*
X56497142Y-88135714D01*
X56449523Y-88230952D01*
X56401904Y-88278571D01*
X56306666Y-88326190D01*
X55925714Y-88326190D01*
X57449523Y-88802380D02*
X56878095Y-88802380D01*
X57163809Y-88802380D02*
X57163809Y-87802380D01*
X57068571Y-87945238D01*
X56973333Y-88040476D01*
X56878095Y-88088095D01*
X58306666Y-88135714D02*
X58306666Y-88802380D01*
X58068571Y-87754761D02*
X57830476Y-88469047D01*
X58449523Y-88469047D01*
%TO.C,C9*%
X155197142Y-64433989D02*
X155244761Y-64481608D01*
X155292380Y-64624465D01*
X155292380Y-64719703D01*
X155244761Y-64862561D01*
X155149523Y-64957799D01*
X155054285Y-65005418D01*
X154863809Y-65053037D01*
X154720952Y-65053037D01*
X154530476Y-65005418D01*
X154435238Y-64957799D01*
X154340000Y-64862561D01*
X154292380Y-64719703D01*
X154292380Y-64624465D01*
X154340000Y-64481608D01*
X154387619Y-64433989D01*
X155292380Y-63957799D02*
X155292380Y-63767323D01*
X155244761Y-63672084D01*
X155197142Y-63624465D01*
X155054285Y-63529227D01*
X154863809Y-63481608D01*
X154482857Y-63481608D01*
X154387619Y-63529227D01*
X154340000Y-63576846D01*
X154292380Y-63672084D01*
X154292380Y-63862561D01*
X154340000Y-63957799D01*
X154387619Y-64005418D01*
X154482857Y-64053037D01*
X154720952Y-64053037D01*
X154816190Y-64005418D01*
X154863809Y-63957799D01*
X154911428Y-63862561D01*
X154911428Y-63672084D01*
X154863809Y-63576846D01*
X154816190Y-63529227D01*
X154720952Y-63481608D01*
%TO.C,U7113*%
X97447380Y-103145476D02*
X98256904Y-103145476D01*
X98352142Y-103097857D01*
X98399761Y-103050238D01*
X98447380Y-102955000D01*
X98447380Y-102764523D01*
X98399761Y-102669285D01*
X98352142Y-102621666D01*
X98256904Y-102574047D01*
X97447380Y-102574047D01*
X97447380Y-102193095D02*
X97447380Y-101526428D01*
X98447380Y-101955000D01*
X98447380Y-100621666D02*
X98447380Y-101193095D01*
X98447380Y-100907380D02*
X97447380Y-100907380D01*
X97590238Y-101002619D01*
X97685476Y-101097857D01*
X97733095Y-101193095D01*
X98447380Y-99669285D02*
X98447380Y-100240714D01*
X98447380Y-99955000D02*
X97447380Y-99955000D01*
X97590238Y-100050238D01*
X97685476Y-100145476D01*
X97733095Y-100240714D01*
X97447380Y-99335952D02*
X97447380Y-98716904D01*
X97828333Y-99050238D01*
X97828333Y-98907380D01*
X97875952Y-98812142D01*
X97923571Y-98764523D01*
X98018809Y-98716904D01*
X98256904Y-98716904D01*
X98352142Y-98764523D01*
X98399761Y-98812142D01*
X98447380Y-98907380D01*
X98447380Y-99193095D01*
X98399761Y-99288333D01*
X98352142Y-99335952D01*
%TO.C,R5*%
X62698333Y-102137380D02*
X62365000Y-101661190D01*
X62126904Y-102137380D02*
X62126904Y-101137380D01*
X62507857Y-101137380D01*
X62603095Y-101185000D01*
X62650714Y-101232619D01*
X62698333Y-101327857D01*
X62698333Y-101470714D01*
X62650714Y-101565952D01*
X62603095Y-101613571D01*
X62507857Y-101661190D01*
X62126904Y-101661190D01*
X63603095Y-101137380D02*
X63126904Y-101137380D01*
X63079285Y-101613571D01*
X63126904Y-101565952D01*
X63222142Y-101518333D01*
X63460238Y-101518333D01*
X63555476Y-101565952D01*
X63603095Y-101613571D01*
X63650714Y-101708809D01*
X63650714Y-101946904D01*
X63603095Y-102042142D01*
X63555476Y-102089761D01*
X63460238Y-102137380D01*
X63222142Y-102137380D01*
X63126904Y-102089761D01*
X63079285Y-102042142D01*
%TO.C,U7108*%
X74587380Y-103145476D02*
X75396904Y-103145476D01*
X75492142Y-103097857D01*
X75539761Y-103050238D01*
X75587380Y-102955000D01*
X75587380Y-102764523D01*
X75539761Y-102669285D01*
X75492142Y-102621666D01*
X75396904Y-102574047D01*
X74587380Y-102574047D01*
X74587380Y-102193095D02*
X74587380Y-101526428D01*
X75587380Y-101955000D01*
X75587380Y-100621666D02*
X75587380Y-101193095D01*
X75587380Y-100907380D02*
X74587380Y-100907380D01*
X74730238Y-101002619D01*
X74825476Y-101097857D01*
X74873095Y-101193095D01*
X74587380Y-100002619D02*
X74587380Y-99907380D01*
X74635000Y-99812142D01*
X74682619Y-99764523D01*
X74777857Y-99716904D01*
X74968333Y-99669285D01*
X75206428Y-99669285D01*
X75396904Y-99716904D01*
X75492142Y-99764523D01*
X75539761Y-99812142D01*
X75587380Y-99907380D01*
X75587380Y-100002619D01*
X75539761Y-100097857D01*
X75492142Y-100145476D01*
X75396904Y-100193095D01*
X75206428Y-100240714D01*
X74968333Y-100240714D01*
X74777857Y-100193095D01*
X74682619Y-100145476D01*
X74635000Y-100097857D01*
X74587380Y-100002619D01*
X75015952Y-99097857D02*
X74968333Y-99193095D01*
X74920714Y-99240714D01*
X74825476Y-99288333D01*
X74777857Y-99288333D01*
X74682619Y-99240714D01*
X74635000Y-99193095D01*
X74587380Y-99097857D01*
X74587380Y-98907380D01*
X74635000Y-98812142D01*
X74682619Y-98764523D01*
X74777857Y-98716904D01*
X74825476Y-98716904D01*
X74920714Y-98764523D01*
X74968333Y-98812142D01*
X75015952Y-98907380D01*
X75015952Y-99097857D01*
X75063571Y-99193095D01*
X75111190Y-99240714D01*
X75206428Y-99288333D01*
X75396904Y-99288333D01*
X75492142Y-99240714D01*
X75539761Y-99193095D01*
X75587380Y-99097857D01*
X75587380Y-98907380D01*
X75539761Y-98812142D01*
X75492142Y-98764523D01*
X75396904Y-98716904D01*
X75206428Y-98716904D01*
X75111190Y-98764523D01*
X75063571Y-98812142D01*
X75015952Y-98907380D01*
%TO.C,C3*%
X215098333Y-86772142D02*
X215050714Y-86819761D01*
X214907857Y-86867380D01*
X214812619Y-86867380D01*
X214669761Y-86819761D01*
X214574523Y-86724523D01*
X214526904Y-86629285D01*
X214479285Y-86438809D01*
X214479285Y-86295952D01*
X214526904Y-86105476D01*
X214574523Y-86010238D01*
X214669761Y-85915000D01*
X214812619Y-85867380D01*
X214907857Y-85867380D01*
X215050714Y-85915000D01*
X215098333Y-85962619D01*
X215431666Y-85867380D02*
X216050714Y-85867380D01*
X215717380Y-86248333D01*
X215860238Y-86248333D01*
X215955476Y-86295952D01*
X216003095Y-86343571D01*
X216050714Y-86438809D01*
X216050714Y-86676904D01*
X216003095Y-86772142D01*
X215955476Y-86819761D01*
X215860238Y-86867380D01*
X215574523Y-86867380D01*
X215479285Y-86819761D01*
X215431666Y-86772142D01*
%TO.C,U7116*%
X145727380Y-87915476D02*
X146536904Y-87915476D01*
X146632142Y-87867857D01*
X146679761Y-87820238D01*
X146727380Y-87725000D01*
X146727380Y-87534523D01*
X146679761Y-87439285D01*
X146632142Y-87391666D01*
X146536904Y-87344047D01*
X145727380Y-87344047D01*
X145727380Y-86963095D02*
X145727380Y-86296428D01*
X146727380Y-86725000D01*
X146727380Y-85391666D02*
X146727380Y-85963095D01*
X146727380Y-85677380D02*
X145727380Y-85677380D01*
X145870238Y-85772619D01*
X145965476Y-85867857D01*
X146013095Y-85963095D01*
X146727380Y-84439285D02*
X146727380Y-85010714D01*
X146727380Y-84725000D02*
X145727380Y-84725000D01*
X145870238Y-84820238D01*
X145965476Y-84915476D01*
X146013095Y-85010714D01*
X145727380Y-83582142D02*
X145727380Y-83772619D01*
X145775000Y-83867857D01*
X145822619Y-83915476D01*
X145965476Y-84010714D01*
X146155952Y-84058333D01*
X146536904Y-84058333D01*
X146632142Y-84010714D01*
X146679761Y-83963095D01*
X146727380Y-83867857D01*
X146727380Y-83677380D01*
X146679761Y-83582142D01*
X146632142Y-83534523D01*
X146536904Y-83486904D01*
X146298809Y-83486904D01*
X146203571Y-83534523D01*
X146155952Y-83582142D01*
X146108333Y-83677380D01*
X146108333Y-83867857D01*
X146155952Y-83963095D01*
X146203571Y-84010714D01*
X146298809Y-84058333D01*
%TO.C,U7121*%
X169857380Y-103145476D02*
X170666904Y-103145476D01*
X170762142Y-103097857D01*
X170809761Y-103050238D01*
X170857380Y-102955000D01*
X170857380Y-102764523D01*
X170809761Y-102669285D01*
X170762142Y-102621666D01*
X170666904Y-102574047D01*
X169857380Y-102574047D01*
X169857380Y-102193095D02*
X169857380Y-101526428D01*
X170857380Y-101955000D01*
X170857380Y-100621666D02*
X170857380Y-101193095D01*
X170857380Y-100907380D02*
X169857380Y-100907380D01*
X170000238Y-101002619D01*
X170095476Y-101097857D01*
X170143095Y-101193095D01*
X169952619Y-100240714D02*
X169905000Y-100193095D01*
X169857380Y-100097857D01*
X169857380Y-99859761D01*
X169905000Y-99764523D01*
X169952619Y-99716904D01*
X170047857Y-99669285D01*
X170143095Y-99669285D01*
X170285952Y-99716904D01*
X170857380Y-100288333D01*
X170857380Y-99669285D01*
X170857380Y-98716904D02*
X170857380Y-99288333D01*
X170857380Y-99002619D02*
X169857380Y-99002619D01*
X170000238Y-99097857D01*
X170095476Y-99193095D01*
X170143095Y-99288333D01*
%TO.C,C1*%
X64993333Y-91187142D02*
X64945714Y-91234761D01*
X64802857Y-91282380D01*
X64707619Y-91282380D01*
X64564761Y-91234761D01*
X64469523Y-91139523D01*
X64421904Y-91044285D01*
X64374285Y-90853809D01*
X64374285Y-90710952D01*
X64421904Y-90520476D01*
X64469523Y-90425238D01*
X64564761Y-90330000D01*
X64707619Y-90282380D01*
X64802857Y-90282380D01*
X64945714Y-90330000D01*
X64993333Y-90377619D01*
X65945714Y-91282380D02*
X65374285Y-91282380D01*
X65660000Y-91282380D02*
X65660000Y-90282380D01*
X65564761Y-90425238D01*
X65469523Y-90520476D01*
X65374285Y-90568095D01*
%TO.C,R12*%
X219562380Y-107377857D02*
X219086190Y-107711190D01*
X219562380Y-107949285D02*
X218562380Y-107949285D01*
X218562380Y-107568333D01*
X218610000Y-107473095D01*
X218657619Y-107425476D01*
X218752857Y-107377857D01*
X218895714Y-107377857D01*
X218990952Y-107425476D01*
X219038571Y-107473095D01*
X219086190Y-107568333D01*
X219086190Y-107949285D01*
X219562380Y-106425476D02*
X219562380Y-106996904D01*
X219562380Y-106711190D02*
X218562380Y-106711190D01*
X218705238Y-106806428D01*
X218800476Y-106901666D01*
X218848095Y-106996904D01*
X218657619Y-106044523D02*
X218610000Y-105996904D01*
X218562380Y-105901666D01*
X218562380Y-105663571D01*
X218610000Y-105568333D01*
X218657619Y-105520714D01*
X218752857Y-105473095D01*
X218848095Y-105473095D01*
X218990952Y-105520714D01*
X219562380Y-106092142D01*
X219562380Y-105473095D01*
%TO.C,R9*%
X60983333Y-93822380D02*
X60650000Y-93346190D01*
X60411904Y-93822380D02*
X60411904Y-92822380D01*
X60792857Y-92822380D01*
X60888095Y-92870000D01*
X60935714Y-92917619D01*
X60983333Y-93012857D01*
X60983333Y-93155714D01*
X60935714Y-93250952D01*
X60888095Y-93298571D01*
X60792857Y-93346190D01*
X60411904Y-93346190D01*
X61459523Y-93822380D02*
X61650000Y-93822380D01*
X61745238Y-93774761D01*
X61792857Y-93727142D01*
X61888095Y-93584285D01*
X61935714Y-93393809D01*
X61935714Y-93012857D01*
X61888095Y-92917619D01*
X61840476Y-92870000D01*
X61745238Y-92822380D01*
X61554761Y-92822380D01*
X61459523Y-92870000D01*
X61411904Y-92917619D01*
X61364285Y-93012857D01*
X61364285Y-93250952D01*
X61411904Y-93346190D01*
X61459523Y-93393809D01*
X61554761Y-93441428D01*
X61745238Y-93441428D01*
X61840476Y-93393809D01*
X61888095Y-93346190D01*
X61935714Y-93250952D01*
%TO.C,R15*%
X222152380Y-117047857D02*
X221676190Y-117381190D01*
X222152380Y-117619285D02*
X221152380Y-117619285D01*
X221152380Y-117238333D01*
X221200000Y-117143095D01*
X221247619Y-117095476D01*
X221342857Y-117047857D01*
X221485714Y-117047857D01*
X221580952Y-117095476D01*
X221628571Y-117143095D01*
X221676190Y-117238333D01*
X221676190Y-117619285D01*
X222152380Y-116095476D02*
X222152380Y-116666904D01*
X222152380Y-116381190D02*
X221152380Y-116381190D01*
X221295238Y-116476428D01*
X221390476Y-116571666D01*
X221438095Y-116666904D01*
X221152380Y-115190714D02*
X221152380Y-115666904D01*
X221628571Y-115714523D01*
X221580952Y-115666904D01*
X221533333Y-115571666D01*
X221533333Y-115333571D01*
X221580952Y-115238333D01*
X221628571Y-115190714D01*
X221723809Y-115143095D01*
X221961904Y-115143095D01*
X222057142Y-115190714D01*
X222104761Y-115238333D01*
X222152380Y-115333571D01*
X222152380Y-115571666D01*
X222104761Y-115666904D01*
X222057142Y-115714523D01*
%TO.C,U7111*%
X120307380Y-103155476D02*
X121116904Y-103155476D01*
X121212142Y-103107857D01*
X121259761Y-103060238D01*
X121307380Y-102965000D01*
X121307380Y-102774523D01*
X121259761Y-102679285D01*
X121212142Y-102631666D01*
X121116904Y-102584047D01*
X120307380Y-102584047D01*
X120307380Y-102203095D02*
X120307380Y-101536428D01*
X121307380Y-101965000D01*
X121307380Y-100631666D02*
X121307380Y-101203095D01*
X121307380Y-100917380D02*
X120307380Y-100917380D01*
X120450238Y-101012619D01*
X120545476Y-101107857D01*
X120593095Y-101203095D01*
X121307380Y-99679285D02*
X121307380Y-100250714D01*
X121307380Y-99965000D02*
X120307380Y-99965000D01*
X120450238Y-100060238D01*
X120545476Y-100155476D01*
X120593095Y-100250714D01*
X121307380Y-98726904D02*
X121307380Y-99298333D01*
X121307380Y-99012619D02*
X120307380Y-99012619D01*
X120450238Y-99107857D01*
X120545476Y-99203095D01*
X120593095Y-99298333D01*
%TO.C,U7114*%
X118402380Y-68855476D02*
X119211904Y-68855476D01*
X119307142Y-68807857D01*
X119354761Y-68760238D01*
X119402380Y-68665000D01*
X119402380Y-68474523D01*
X119354761Y-68379285D01*
X119307142Y-68331666D01*
X119211904Y-68284047D01*
X118402380Y-68284047D01*
X118402380Y-67903095D02*
X118402380Y-67236428D01*
X119402380Y-67665000D01*
X119402380Y-66331666D02*
X119402380Y-66903095D01*
X119402380Y-66617380D02*
X118402380Y-66617380D01*
X118545238Y-66712619D01*
X118640476Y-66807857D01*
X118688095Y-66903095D01*
X119402380Y-65379285D02*
X119402380Y-65950714D01*
X119402380Y-65665000D02*
X118402380Y-65665000D01*
X118545238Y-65760238D01*
X118640476Y-65855476D01*
X118688095Y-65950714D01*
X118735714Y-64522142D02*
X119402380Y-64522142D01*
X118354761Y-64760238D02*
X119069047Y-64998333D01*
X119069047Y-64379285D01*
%TO.C,R4*%
X217052380Y-102891666D02*
X216576190Y-103225000D01*
X217052380Y-103463095D02*
X216052380Y-103463095D01*
X216052380Y-103082142D01*
X216100000Y-102986904D01*
X216147619Y-102939285D01*
X216242857Y-102891666D01*
X216385714Y-102891666D01*
X216480952Y-102939285D01*
X216528571Y-102986904D01*
X216576190Y-103082142D01*
X216576190Y-103463095D01*
X216385714Y-102034523D02*
X217052380Y-102034523D01*
X216004761Y-102272619D02*
X216719047Y-102510714D01*
X216719047Y-101891666D01*
%TO.C,R11*%
X232209642Y-90537380D02*
X231876309Y-90061190D01*
X231638214Y-90537380D02*
X231638214Y-89537380D01*
X232019166Y-89537380D01*
X232114404Y-89585000D01*
X232162023Y-89632619D01*
X232209642Y-89727857D01*
X232209642Y-89870714D01*
X232162023Y-89965952D01*
X232114404Y-90013571D01*
X232019166Y-90061190D01*
X231638214Y-90061190D01*
X233162023Y-90537380D02*
X232590595Y-90537380D01*
X232876309Y-90537380D02*
X232876309Y-89537380D01*
X232781071Y-89680238D01*
X232685833Y-89775476D01*
X232590595Y-89823095D01*
X234114404Y-90537380D02*
X233542976Y-90537380D01*
X233828690Y-90537380D02*
X233828690Y-89537380D01*
X233733452Y-89680238D01*
X233638214Y-89775476D01*
X233542976Y-89823095D01*
%TO.C,C2*%
X56973333Y-91187142D02*
X56925714Y-91234761D01*
X56782857Y-91282380D01*
X56687619Y-91282380D01*
X56544761Y-91234761D01*
X56449523Y-91139523D01*
X56401904Y-91044285D01*
X56354285Y-90853809D01*
X56354285Y-90710952D01*
X56401904Y-90520476D01*
X56449523Y-90425238D01*
X56544761Y-90330000D01*
X56687619Y-90282380D01*
X56782857Y-90282380D01*
X56925714Y-90330000D01*
X56973333Y-90377619D01*
X57354285Y-90377619D02*
X57401904Y-90330000D01*
X57497142Y-90282380D01*
X57735238Y-90282380D01*
X57830476Y-90330000D01*
X57878095Y-90377619D01*
X57925714Y-90472857D01*
X57925714Y-90568095D01*
X57878095Y-90710952D01*
X57306666Y-91282380D01*
X57925714Y-91282380D01*
%TO.C,C8*%
X56973333Y-96207142D02*
X56925714Y-96254761D01*
X56782857Y-96302380D01*
X56687619Y-96302380D01*
X56544761Y-96254761D01*
X56449523Y-96159523D01*
X56401904Y-96064285D01*
X56354285Y-95873809D01*
X56354285Y-95730952D01*
X56401904Y-95540476D01*
X56449523Y-95445238D01*
X56544761Y-95350000D01*
X56687619Y-95302380D01*
X56782857Y-95302380D01*
X56925714Y-95350000D01*
X56973333Y-95397619D01*
X57544761Y-95730952D02*
X57449523Y-95683333D01*
X57401904Y-95635714D01*
X57354285Y-95540476D01*
X57354285Y-95492857D01*
X57401904Y-95397619D01*
X57449523Y-95350000D01*
X57544761Y-95302380D01*
X57735238Y-95302380D01*
X57830476Y-95350000D01*
X57878095Y-95397619D01*
X57925714Y-95492857D01*
X57925714Y-95540476D01*
X57878095Y-95635714D01*
X57830476Y-95683333D01*
X57735238Y-95730952D01*
X57544761Y-95730952D01*
X57449523Y-95778571D01*
X57401904Y-95826190D01*
X57354285Y-95921428D01*
X57354285Y-96111904D01*
X57401904Y-96207142D01*
X57449523Y-96254761D01*
X57544761Y-96302380D01*
X57735238Y-96302380D01*
X57830476Y-96254761D01*
X57878095Y-96207142D01*
X57925714Y-96111904D01*
X57925714Y-95921428D01*
X57878095Y-95826190D01*
X57830476Y-95778571D01*
X57735238Y-95730952D01*
%TO.C,U7101*%
X153332380Y-133635476D02*
X154141904Y-133635476D01*
X154237142Y-133587857D01*
X154284761Y-133540238D01*
X154332380Y-133445000D01*
X154332380Y-133254523D01*
X154284761Y-133159285D01*
X154237142Y-133111666D01*
X154141904Y-133064047D01*
X153332380Y-133064047D01*
X153332380Y-132683095D02*
X153332380Y-132016428D01*
X154332380Y-132445000D01*
X154332380Y-131111666D02*
X154332380Y-131683095D01*
X154332380Y-131397380D02*
X153332380Y-131397380D01*
X153475238Y-131492619D01*
X153570476Y-131587857D01*
X153618095Y-131683095D01*
X153332380Y-130492619D02*
X153332380Y-130397380D01*
X153380000Y-130302142D01*
X153427619Y-130254523D01*
X153522857Y-130206904D01*
X153713333Y-130159285D01*
X153951428Y-130159285D01*
X154141904Y-130206904D01*
X154237142Y-130254523D01*
X154284761Y-130302142D01*
X154332380Y-130397380D01*
X154332380Y-130492619D01*
X154284761Y-130587857D01*
X154237142Y-130635476D01*
X154141904Y-130683095D01*
X153951428Y-130730714D01*
X153713333Y-130730714D01*
X153522857Y-130683095D01*
X153427619Y-130635476D01*
X153380000Y-130587857D01*
X153332380Y-130492619D01*
X154332380Y-129206904D02*
X154332380Y-129778333D01*
X154332380Y-129492619D02*
X153332380Y-129492619D01*
X153475238Y-129587857D01*
X153570476Y-129683095D01*
X153618095Y-129778333D01*
%TO.C,C7*%
X222027142Y-120581666D02*
X222074761Y-120629285D01*
X222122380Y-120772142D01*
X222122380Y-120867380D01*
X222074761Y-121010238D01*
X221979523Y-121105476D01*
X221884285Y-121153095D01*
X221693809Y-121200714D01*
X221550952Y-121200714D01*
X221360476Y-121153095D01*
X221265238Y-121105476D01*
X221170000Y-121010238D01*
X221122380Y-120867380D01*
X221122380Y-120772142D01*
X221170000Y-120629285D01*
X221217619Y-120581666D01*
X221122380Y-120248333D02*
X221122380Y-119581666D01*
X222122380Y-120010238D01*
%TO.C,R10*%
X222152380Y-129077857D02*
X221676190Y-129411190D01*
X222152380Y-129649285D02*
X221152380Y-129649285D01*
X221152380Y-129268333D01*
X221200000Y-129173095D01*
X221247619Y-129125476D01*
X221342857Y-129077857D01*
X221485714Y-129077857D01*
X221580952Y-129125476D01*
X221628571Y-129173095D01*
X221676190Y-129268333D01*
X221676190Y-129649285D01*
X222152380Y-128125476D02*
X222152380Y-128696904D01*
X222152380Y-128411190D02*
X221152380Y-128411190D01*
X221295238Y-128506428D01*
X221390476Y-128601666D01*
X221438095Y-128696904D01*
X221152380Y-127506428D02*
X221152380Y-127411190D01*
X221200000Y-127315952D01*
X221247619Y-127268333D01*
X221342857Y-127220714D01*
X221533333Y-127173095D01*
X221771428Y-127173095D01*
X221961904Y-127220714D01*
X222057142Y-127268333D01*
X222104761Y-127315952D01*
X222152380Y-127411190D01*
X222152380Y-127506428D01*
X222104761Y-127601666D01*
X222057142Y-127649285D01*
X221961904Y-127696904D01*
X221771428Y-127744523D01*
X221533333Y-127744523D01*
X221342857Y-127696904D01*
X221247619Y-127649285D01*
X221200000Y-127601666D01*
X221152380Y-127506428D01*
%TO.C,R2*%
X60983333Y-91312380D02*
X60650000Y-90836190D01*
X60411904Y-91312380D02*
X60411904Y-90312380D01*
X60792857Y-90312380D01*
X60888095Y-90360000D01*
X60935714Y-90407619D01*
X60983333Y-90502857D01*
X60983333Y-90645714D01*
X60935714Y-90740952D01*
X60888095Y-90788571D01*
X60792857Y-90836190D01*
X60411904Y-90836190D01*
X61364285Y-90407619D02*
X61411904Y-90360000D01*
X61507142Y-90312380D01*
X61745238Y-90312380D01*
X61840476Y-90360000D01*
X61888095Y-90407619D01*
X61935714Y-90502857D01*
X61935714Y-90598095D01*
X61888095Y-90740952D01*
X61316666Y-91312380D01*
X61935714Y-91312380D01*
%TO.C,U7120*%
X169857380Y-87915476D02*
X170666904Y-87915476D01*
X170762142Y-87867857D01*
X170809761Y-87820238D01*
X170857380Y-87725000D01*
X170857380Y-87534523D01*
X170809761Y-87439285D01*
X170762142Y-87391666D01*
X170666904Y-87344047D01*
X169857380Y-87344047D01*
X169857380Y-86963095D02*
X169857380Y-86296428D01*
X170857380Y-86725000D01*
X170857380Y-85391666D02*
X170857380Y-85963095D01*
X170857380Y-85677380D02*
X169857380Y-85677380D01*
X170000238Y-85772619D01*
X170095476Y-85867857D01*
X170143095Y-85963095D01*
X169952619Y-85010714D02*
X169905000Y-84963095D01*
X169857380Y-84867857D01*
X169857380Y-84629761D01*
X169905000Y-84534523D01*
X169952619Y-84486904D01*
X170047857Y-84439285D01*
X170143095Y-84439285D01*
X170285952Y-84486904D01*
X170857380Y-85058333D01*
X170857380Y-84439285D01*
X169857380Y-83820238D02*
X169857380Y-83725000D01*
X169905000Y-83629761D01*
X169952619Y-83582142D01*
X170047857Y-83534523D01*
X170238333Y-83486904D01*
X170476428Y-83486904D01*
X170666904Y-83534523D01*
X170762142Y-83582142D01*
X170809761Y-83629761D01*
X170857380Y-83725000D01*
X170857380Y-83820238D01*
X170809761Y-83915476D01*
X170762142Y-83963095D01*
X170666904Y-84010714D01*
X170476428Y-84058333D01*
X170238333Y-84058333D01*
X170047857Y-84010714D01*
X169952619Y-83963095D01*
X169905000Y-83915476D01*
X169857380Y-83820238D01*
%TO.C,R3*%
X215098333Y-84387380D02*
X214765000Y-83911190D01*
X214526904Y-84387380D02*
X214526904Y-83387380D01*
X214907857Y-83387380D01*
X215003095Y-83435000D01*
X215050714Y-83482619D01*
X215098333Y-83577857D01*
X215098333Y-83720714D01*
X215050714Y-83815952D01*
X215003095Y-83863571D01*
X214907857Y-83911190D01*
X214526904Y-83911190D01*
X215431666Y-83387380D02*
X216050714Y-83387380D01*
X215717380Y-83768333D01*
X215860238Y-83768333D01*
X215955476Y-83815952D01*
X216003095Y-83863571D01*
X216050714Y-83958809D01*
X216050714Y-84196904D01*
X216003095Y-84292142D01*
X215955476Y-84339761D01*
X215860238Y-84387380D01*
X215574523Y-84387380D01*
X215479285Y-84339761D01*
X215431666Y-84292142D01*
%TO.C,X2*%
X103812380Y-117019523D02*
X104812380Y-116352857D01*
X103812380Y-116352857D02*
X104812380Y-117019523D01*
X103907619Y-116019523D02*
X103860000Y-115971904D01*
X103812380Y-115876666D01*
X103812380Y-115638571D01*
X103860000Y-115543333D01*
X103907619Y-115495714D01*
X104002857Y-115448095D01*
X104098095Y-115448095D01*
X104240952Y-115495714D01*
X104812380Y-116067142D01*
X104812380Y-115448095D01*
%TO.C,U7109*%
X120327380Y-87925476D02*
X121136904Y-87925476D01*
X121232142Y-87877857D01*
X121279761Y-87830238D01*
X121327380Y-87735000D01*
X121327380Y-87544523D01*
X121279761Y-87449285D01*
X121232142Y-87401666D01*
X121136904Y-87354047D01*
X120327380Y-87354047D01*
X120327380Y-86973095D02*
X120327380Y-86306428D01*
X121327380Y-86735000D01*
X121327380Y-85401666D02*
X121327380Y-85973095D01*
X121327380Y-85687380D02*
X120327380Y-85687380D01*
X120470238Y-85782619D01*
X120565476Y-85877857D01*
X120613095Y-85973095D01*
X120327380Y-84782619D02*
X120327380Y-84687380D01*
X120375000Y-84592142D01*
X120422619Y-84544523D01*
X120517857Y-84496904D01*
X120708333Y-84449285D01*
X120946428Y-84449285D01*
X121136904Y-84496904D01*
X121232142Y-84544523D01*
X121279761Y-84592142D01*
X121327380Y-84687380D01*
X121327380Y-84782619D01*
X121279761Y-84877857D01*
X121232142Y-84925476D01*
X121136904Y-84973095D01*
X120946428Y-85020714D01*
X120708333Y-85020714D01*
X120517857Y-84973095D01*
X120422619Y-84925476D01*
X120375000Y-84877857D01*
X120327380Y-84782619D01*
X121327380Y-83973095D02*
X121327380Y-83782619D01*
X121279761Y-83687380D01*
X121232142Y-83639761D01*
X121089285Y-83544523D01*
X120898809Y-83496904D01*
X120517857Y-83496904D01*
X120422619Y-83544523D01*
X120375000Y-83592142D01*
X120327380Y-83687380D01*
X120327380Y-83877857D01*
X120375000Y-83973095D01*
X120422619Y-84020714D01*
X120517857Y-84068333D01*
X120755952Y-84068333D01*
X120851190Y-84020714D01*
X120898809Y-83973095D01*
X120946428Y-83877857D01*
X120946428Y-83687380D01*
X120898809Y-83592142D01*
X120851190Y-83544523D01*
X120755952Y-83496904D01*
%TO.C,C5*%
X216927142Y-106901666D02*
X216974761Y-106949285D01*
X217022380Y-107092142D01*
X217022380Y-107187380D01*
X216974761Y-107330238D01*
X216879523Y-107425476D01*
X216784285Y-107473095D01*
X216593809Y-107520714D01*
X216450952Y-107520714D01*
X216260476Y-107473095D01*
X216165238Y-107425476D01*
X216070000Y-107330238D01*
X216022380Y-107187380D01*
X216022380Y-107092142D01*
X216070000Y-106949285D01*
X216117619Y-106901666D01*
X216022380Y-105996904D02*
X216022380Y-106473095D01*
X216498571Y-106520714D01*
X216450952Y-106473095D01*
X216403333Y-106377857D01*
X216403333Y-106139761D01*
X216450952Y-106044523D01*
X216498571Y-105996904D01*
X216593809Y-105949285D01*
X216831904Y-105949285D01*
X216927142Y-105996904D01*
X216974761Y-106044523D01*
X217022380Y-106139761D01*
X217022380Y-106377857D01*
X216974761Y-106473095D01*
X216927142Y-106520714D01*
%TO.C,U7115*%
X74592380Y-68855476D02*
X75401904Y-68855476D01*
X75497142Y-68807857D01*
X75544761Y-68760238D01*
X75592380Y-68665000D01*
X75592380Y-68474523D01*
X75544761Y-68379285D01*
X75497142Y-68331666D01*
X75401904Y-68284047D01*
X74592380Y-68284047D01*
X74592380Y-67903095D02*
X74592380Y-67236428D01*
X75592380Y-67665000D01*
X75592380Y-66331666D02*
X75592380Y-66903095D01*
X75592380Y-66617380D02*
X74592380Y-66617380D01*
X74735238Y-66712619D01*
X74830476Y-66807857D01*
X74878095Y-66903095D01*
X75592380Y-65379285D02*
X75592380Y-65950714D01*
X75592380Y-65665000D02*
X74592380Y-65665000D01*
X74735238Y-65760238D01*
X74830476Y-65855476D01*
X74878095Y-65950714D01*
X74592380Y-64474523D02*
X74592380Y-64950714D01*
X75068571Y-64998333D01*
X75020952Y-64950714D01*
X74973333Y-64855476D01*
X74973333Y-64617380D01*
X75020952Y-64522142D01*
X75068571Y-64474523D01*
X75163809Y-64426904D01*
X75401904Y-64426904D01*
X75497142Y-64474523D01*
X75544761Y-64522142D01*
X75592380Y-64617380D01*
X75592380Y-64855476D01*
X75544761Y-64950714D01*
X75497142Y-64998333D01*
%TO.C,X-TAL1*%
X109607380Y-74875357D02*
X110607380Y-74208690D01*
X109607380Y-74208690D02*
X110607380Y-74875357D01*
X110226428Y-73827738D02*
X110226428Y-73065833D01*
X109607380Y-72732500D02*
X109607380Y-72161071D01*
X110607380Y-72446785D02*
X109607380Y-72446785D01*
X110321666Y-71875357D02*
X110321666Y-71399166D01*
X110607380Y-71970595D02*
X109607380Y-71637261D01*
X110607380Y-71303928D01*
X110607380Y-70494404D02*
X110607380Y-70970595D01*
X109607380Y-70970595D01*
X110607380Y-69637261D02*
X110607380Y-70208690D01*
X110607380Y-69922976D02*
X109607380Y-69922976D01*
X109750238Y-70018214D01*
X109845476Y-70113452D01*
X109893095Y-70208690D01*
%TO.C,R7*%
X60983333Y-88802380D02*
X60650000Y-88326190D01*
X60411904Y-88802380D02*
X60411904Y-87802380D01*
X60792857Y-87802380D01*
X60888095Y-87850000D01*
X60935714Y-87897619D01*
X60983333Y-87992857D01*
X60983333Y-88135714D01*
X60935714Y-88230952D01*
X60888095Y-88278571D01*
X60792857Y-88326190D01*
X60411904Y-88326190D01*
X61316666Y-87802380D02*
X61983333Y-87802380D01*
X61554761Y-88802380D01*
%TO.C,U7117*%
X145727380Y-103145476D02*
X146536904Y-103145476D01*
X146632142Y-103097857D01*
X146679761Y-103050238D01*
X146727380Y-102955000D01*
X146727380Y-102764523D01*
X146679761Y-102669285D01*
X146632142Y-102621666D01*
X146536904Y-102574047D01*
X145727380Y-102574047D01*
X145727380Y-102193095D02*
X145727380Y-101526428D01*
X146727380Y-101955000D01*
X146727380Y-100621666D02*
X146727380Y-101193095D01*
X146727380Y-100907380D02*
X145727380Y-100907380D01*
X145870238Y-101002619D01*
X145965476Y-101097857D01*
X146013095Y-101193095D01*
X146727380Y-99669285D02*
X146727380Y-100240714D01*
X146727380Y-99955000D02*
X145727380Y-99955000D01*
X145870238Y-100050238D01*
X145965476Y-100145476D01*
X146013095Y-100240714D01*
X145727380Y-99335952D02*
X145727380Y-98669285D01*
X146727380Y-99097857D01*
%TO.C,U7118*%
X145727380Y-118385476D02*
X146536904Y-118385476D01*
X146632142Y-118337857D01*
X146679761Y-118290238D01*
X146727380Y-118195000D01*
X146727380Y-118004523D01*
X146679761Y-117909285D01*
X146632142Y-117861666D01*
X146536904Y-117814047D01*
X145727380Y-117814047D01*
X145727380Y-117433095D02*
X145727380Y-116766428D01*
X146727380Y-117195000D01*
X146727380Y-115861666D02*
X146727380Y-116433095D01*
X146727380Y-116147380D02*
X145727380Y-116147380D01*
X145870238Y-116242619D01*
X145965476Y-116337857D01*
X146013095Y-116433095D01*
X146727380Y-114909285D02*
X146727380Y-115480714D01*
X146727380Y-115195000D02*
X145727380Y-115195000D01*
X145870238Y-115290238D01*
X145965476Y-115385476D01*
X146013095Y-115480714D01*
X146155952Y-114337857D02*
X146108333Y-114433095D01*
X146060714Y-114480714D01*
X145965476Y-114528333D01*
X145917857Y-114528333D01*
X145822619Y-114480714D01*
X145775000Y-114433095D01*
X145727380Y-114337857D01*
X145727380Y-114147380D01*
X145775000Y-114052142D01*
X145822619Y-114004523D01*
X145917857Y-113956904D01*
X145965476Y-113956904D01*
X146060714Y-114004523D01*
X146108333Y-114052142D01*
X146155952Y-114147380D01*
X146155952Y-114337857D01*
X146203571Y-114433095D01*
X146251190Y-114480714D01*
X146346428Y-114528333D01*
X146536904Y-114528333D01*
X146632142Y-114480714D01*
X146679761Y-114433095D01*
X146727380Y-114337857D01*
X146727380Y-114147380D01*
X146679761Y-114052142D01*
X146632142Y-114004523D01*
X146536904Y-113956904D01*
X146346428Y-113956904D01*
X146251190Y-114004523D01*
X146203571Y-114052142D01*
X146155952Y-114147380D01*
%TO.C,R13*%
X56497142Y-98842380D02*
X56163809Y-98366190D01*
X55925714Y-98842380D02*
X55925714Y-97842380D01*
X56306666Y-97842380D01*
X56401904Y-97890000D01*
X56449523Y-97937619D01*
X56497142Y-98032857D01*
X56497142Y-98175714D01*
X56449523Y-98270952D01*
X56401904Y-98318571D01*
X56306666Y-98366190D01*
X55925714Y-98366190D01*
X57449523Y-98842380D02*
X56878095Y-98842380D01*
X57163809Y-98842380D02*
X57163809Y-97842380D01*
X57068571Y-97985238D01*
X56973333Y-98080476D01*
X56878095Y-98128095D01*
X57782857Y-97842380D02*
X58401904Y-97842380D01*
X58068571Y-98223333D01*
X58211428Y-98223333D01*
X58306666Y-98270952D01*
X58354285Y-98318571D01*
X58401904Y-98413809D01*
X58401904Y-98651904D01*
X58354285Y-98747142D01*
X58306666Y-98794761D01*
X58211428Y-98842380D01*
X57925714Y-98842380D01*
X57830476Y-98794761D01*
X57782857Y-98747142D01*
%TO.C,X5*%
X198580476Y-56177380D02*
X199247142Y-57177380D01*
X199247142Y-56177380D02*
X198580476Y-57177380D01*
X200104285Y-56177380D02*
X199628095Y-56177380D01*
X199580476Y-56653571D01*
X199628095Y-56605952D01*
X199723333Y-56558333D01*
X199961428Y-56558333D01*
X200056666Y-56605952D01*
X200104285Y-56653571D01*
X200151904Y-56748809D01*
X200151904Y-56986904D01*
X200104285Y-57082142D01*
X200056666Y-57129761D01*
X199961428Y-57177380D01*
X199723333Y-57177380D01*
X199628095Y-57129761D01*
X199580476Y-57082142D01*
%TO.C,R6*%
X56973333Y-93822380D02*
X56640000Y-93346190D01*
X56401904Y-93822380D02*
X56401904Y-92822380D01*
X56782857Y-92822380D01*
X56878095Y-92870000D01*
X56925714Y-92917619D01*
X56973333Y-93012857D01*
X56973333Y-93155714D01*
X56925714Y-93250952D01*
X56878095Y-93298571D01*
X56782857Y-93346190D01*
X56401904Y-93346190D01*
X57830476Y-92822380D02*
X57640000Y-92822380D01*
X57544761Y-92870000D01*
X57497142Y-92917619D01*
X57401904Y-93060476D01*
X57354285Y-93250952D01*
X57354285Y-93631904D01*
X57401904Y-93727142D01*
X57449523Y-93774761D01*
X57544761Y-93822380D01*
X57735238Y-93822380D01*
X57830476Y-93774761D01*
X57878095Y-93727142D01*
X57925714Y-93631904D01*
X57925714Y-93393809D01*
X57878095Y-93298571D01*
X57830476Y-93250952D01*
X57735238Y-93203333D01*
X57544761Y-93203333D01*
X57449523Y-93250952D01*
X57401904Y-93298571D01*
X57354285Y-93393809D01*
%TO.C,R8*%
X214552380Y-96051666D02*
X214076190Y-96385000D01*
X214552380Y-96623095D02*
X213552380Y-96623095D01*
X213552380Y-96242142D01*
X213600000Y-96146904D01*
X213647619Y-96099285D01*
X213742857Y-96051666D01*
X213885714Y-96051666D01*
X213980952Y-96099285D01*
X214028571Y-96146904D01*
X214076190Y-96242142D01*
X214076190Y-96623095D01*
X213980952Y-95480238D02*
X213933333Y-95575476D01*
X213885714Y-95623095D01*
X213790476Y-95670714D01*
X213742857Y-95670714D01*
X213647619Y-95623095D01*
X213600000Y-95575476D01*
X213552380Y-95480238D01*
X213552380Y-95289761D01*
X213600000Y-95194523D01*
X213647619Y-95146904D01*
X213742857Y-95099285D01*
X213790476Y-95099285D01*
X213885714Y-95146904D01*
X213933333Y-95194523D01*
X213980952Y-95289761D01*
X213980952Y-95480238D01*
X214028571Y-95575476D01*
X214076190Y-95623095D01*
X214171428Y-95670714D01*
X214361904Y-95670714D01*
X214457142Y-95623095D01*
X214504761Y-95575476D01*
X214552380Y-95480238D01*
X214552380Y-95289761D01*
X214504761Y-95194523D01*
X214457142Y-95146904D01*
X214361904Y-95099285D01*
X214171428Y-95099285D01*
X214076190Y-95146904D01*
X214028571Y-95194523D01*
X213980952Y-95289761D01*
%TO.C,U7106*%
X120307380Y-118385476D02*
X121116904Y-118385476D01*
X121212142Y-118337857D01*
X121259761Y-118290238D01*
X121307380Y-118195000D01*
X121307380Y-118004523D01*
X121259761Y-117909285D01*
X121212142Y-117861666D01*
X121116904Y-117814047D01*
X120307380Y-117814047D01*
X120307380Y-117433095D02*
X120307380Y-116766428D01*
X121307380Y-117195000D01*
X121307380Y-115861666D02*
X121307380Y-116433095D01*
X121307380Y-116147380D02*
X120307380Y-116147380D01*
X120450238Y-116242619D01*
X120545476Y-116337857D01*
X120593095Y-116433095D01*
X120307380Y-115242619D02*
X120307380Y-115147380D01*
X120355000Y-115052142D01*
X120402619Y-115004523D01*
X120497857Y-114956904D01*
X120688333Y-114909285D01*
X120926428Y-114909285D01*
X121116904Y-114956904D01*
X121212142Y-115004523D01*
X121259761Y-115052142D01*
X121307380Y-115147380D01*
X121307380Y-115242619D01*
X121259761Y-115337857D01*
X121212142Y-115385476D01*
X121116904Y-115433095D01*
X120926428Y-115480714D01*
X120688333Y-115480714D01*
X120497857Y-115433095D01*
X120402619Y-115385476D01*
X120355000Y-115337857D01*
X120307380Y-115242619D01*
X120307380Y-114052142D02*
X120307380Y-114242619D01*
X120355000Y-114337857D01*
X120402619Y-114385476D01*
X120545476Y-114480714D01*
X120735952Y-114528333D01*
X121116904Y-114528333D01*
X121212142Y-114480714D01*
X121259761Y-114433095D01*
X121307380Y-114337857D01*
X121307380Y-114147380D01*
X121259761Y-114052142D01*
X121212142Y-114004523D01*
X121116904Y-113956904D01*
X120878809Y-113956904D01*
X120783571Y-114004523D01*
X120735952Y-114052142D01*
X120688333Y-114147380D01*
X120688333Y-114337857D01*
X120735952Y-114433095D01*
X120783571Y-114480714D01*
X120878809Y-114528333D01*
%TO.C,U7119*%
X155222380Y-68870476D02*
X156031904Y-68870476D01*
X156127142Y-68822857D01*
X156174761Y-68775238D01*
X156222380Y-68680000D01*
X156222380Y-68489523D01*
X156174761Y-68394285D01*
X156127142Y-68346666D01*
X156031904Y-68299047D01*
X155222380Y-68299047D01*
X155222380Y-67918095D02*
X155222380Y-67251428D01*
X156222380Y-67680000D01*
X156222380Y-66346666D02*
X156222380Y-66918095D01*
X156222380Y-66632380D02*
X155222380Y-66632380D01*
X155365238Y-66727619D01*
X155460476Y-66822857D01*
X155508095Y-66918095D01*
X156222380Y-65394285D02*
X156222380Y-65965714D01*
X156222380Y-65680000D02*
X155222380Y-65680000D01*
X155365238Y-65775238D01*
X155460476Y-65870476D01*
X155508095Y-65965714D01*
X156222380Y-64918095D02*
X156222380Y-64727619D01*
X156174761Y-64632380D01*
X156127142Y-64584761D01*
X155984285Y-64489523D01*
X155793809Y-64441904D01*
X155412857Y-64441904D01*
X155317619Y-64489523D01*
X155270000Y-64537142D01*
X155222380Y-64632380D01*
X155222380Y-64822857D01*
X155270000Y-64918095D01*
X155317619Y-64965714D01*
X155412857Y-65013333D01*
X155650952Y-65013333D01*
X155746190Y-64965714D01*
X155793809Y-64918095D01*
X155841428Y-64822857D01*
X155841428Y-64632380D01*
X155793809Y-64537142D01*
X155746190Y-64489523D01*
X155650952Y-64441904D01*
%TO.C,U7110*%
X97447380Y-87905476D02*
X98256904Y-87905476D01*
X98352142Y-87857857D01*
X98399761Y-87810238D01*
X98447380Y-87715000D01*
X98447380Y-87524523D01*
X98399761Y-87429285D01*
X98352142Y-87381666D01*
X98256904Y-87334047D01*
X97447380Y-87334047D01*
X97447380Y-86953095D02*
X97447380Y-86286428D01*
X98447380Y-86715000D01*
X98447380Y-85381666D02*
X98447380Y-85953095D01*
X98447380Y-85667380D02*
X97447380Y-85667380D01*
X97590238Y-85762619D01*
X97685476Y-85857857D01*
X97733095Y-85953095D01*
X98447380Y-84429285D02*
X98447380Y-85000714D01*
X98447380Y-84715000D02*
X97447380Y-84715000D01*
X97590238Y-84810238D01*
X97685476Y-84905476D01*
X97733095Y-85000714D01*
X97447380Y-83810238D02*
X97447380Y-83715000D01*
X97495000Y-83619761D01*
X97542619Y-83572142D01*
X97637857Y-83524523D01*
X97828333Y-83476904D01*
X98066428Y-83476904D01*
X98256904Y-83524523D01*
X98352142Y-83572142D01*
X98399761Y-83619761D01*
X98447380Y-83715000D01*
X98447380Y-83810238D01*
X98399761Y-83905476D01*
X98352142Y-83953095D01*
X98256904Y-84000714D01*
X98066428Y-84048333D01*
X97828333Y-84048333D01*
X97637857Y-84000714D01*
X97542619Y-83953095D01*
X97495000Y-83905476D01*
X97447380Y-83810238D01*
%TO.C,U7107*%
X74587380Y-118385476D02*
X75396904Y-118385476D01*
X75492142Y-118337857D01*
X75539761Y-118290238D01*
X75587380Y-118195000D01*
X75587380Y-118004523D01*
X75539761Y-117909285D01*
X75492142Y-117861666D01*
X75396904Y-117814047D01*
X74587380Y-117814047D01*
X74587380Y-117433095D02*
X74587380Y-116766428D01*
X75587380Y-117195000D01*
X75587380Y-115861666D02*
X75587380Y-116433095D01*
X75587380Y-116147380D02*
X74587380Y-116147380D01*
X74730238Y-116242619D01*
X74825476Y-116337857D01*
X74873095Y-116433095D01*
X74587380Y-115242619D02*
X74587380Y-115147380D01*
X74635000Y-115052142D01*
X74682619Y-115004523D01*
X74777857Y-114956904D01*
X74968333Y-114909285D01*
X75206428Y-114909285D01*
X75396904Y-114956904D01*
X75492142Y-115004523D01*
X75539761Y-115052142D01*
X75587380Y-115147380D01*
X75587380Y-115242619D01*
X75539761Y-115337857D01*
X75492142Y-115385476D01*
X75396904Y-115433095D01*
X75206428Y-115480714D01*
X74968333Y-115480714D01*
X74777857Y-115433095D01*
X74682619Y-115385476D01*
X74635000Y-115337857D01*
X74587380Y-115242619D01*
X74587380Y-114575952D02*
X74587380Y-113909285D01*
X75587380Y-114337857D01*
D11*
%TO.C,R16*%
X222610000Y-113122064D02*
X222610000Y-111667936D01*
X224430000Y-113122064D02*
X224430000Y-111667936D01*
%TO.C,X3*%
X195555331Y-111860000D02*
X195555331Y-111360000D01*
X196449669Y-101645000D02*
X208789669Y-101645000D01*
X196449669Y-140965000D02*
X196449669Y-101645000D01*
X195555331Y-111360000D02*
X195988344Y-111610000D01*
X208789669Y-140965000D02*
X196449669Y-140965000D01*
X195988344Y-111610000D02*
X195555331Y-111860000D01*
%TO.C,U7102*%
X126940000Y-128795000D02*
X126940000Y-130445000D01*
X152460000Y-128795000D02*
X126940000Y-128795000D01*
X152460000Y-134095000D02*
X152460000Y-128795000D01*
X126940000Y-132445000D02*
X126940000Y-134095000D01*
X126940000Y-134095000D02*
X152460000Y-134095000D01*
X126940000Y-132445000D02*
G75*
G03*
X126940000Y-130445000I0J1000000D01*
G01*
%TO.C,R1*%
X222610000Y-125152064D02*
X222610000Y-123697936D01*
X224430000Y-125152064D02*
X224430000Y-123697936D01*
%TO.C,U7105*%
X76155000Y-132435000D02*
X76155000Y-134085000D01*
X76155000Y-134085000D02*
X96595000Y-134085000D01*
X96595000Y-128785000D02*
X76155000Y-128785000D01*
X96595000Y-134085000D02*
X96595000Y-128785000D01*
X76155000Y-128785000D02*
X76155000Y-130435000D01*
X76155000Y-132435000D02*
G75*
G03*
X76155000Y-130435000I0J1000000D01*
G01*
%TO.C,C6*%
X222610000Y-109096252D02*
X222610000Y-107673748D01*
X224430000Y-109096252D02*
X224430000Y-107673748D01*
%TO.C,U7104*%
X121995000Y-128785000D02*
X101555000Y-128785000D01*
X121995000Y-134085000D02*
X121995000Y-128785000D01*
X101555000Y-132435000D02*
X101555000Y-134085000D01*
X101555000Y-128785000D02*
X101555000Y-130435000D01*
X101555000Y-134085000D02*
X121995000Y-134085000D01*
X101555000Y-132435000D02*
G75*
G03*
X101555000Y-130435000I0J1000000D01*
G01*
%TO.C,C4*%
X64448748Y-89260000D02*
X65871252Y-89260000D01*
X64448748Y-91080000D02*
X65871252Y-91080000D01*
%TO.C,U7112*%
X76135000Y-88365000D02*
X94035000Y-88365000D01*
X94035000Y-83065000D02*
X76135000Y-83065000D01*
X76135000Y-83065000D02*
X76135000Y-84715000D01*
X76135000Y-86715000D02*
X76135000Y-88365000D01*
X94035000Y-88365000D02*
X94035000Y-83065000D01*
X76135000Y-86715000D02*
G75*
G03*
X76135000Y-84715000I0J1000000D01*
G01*
%TO.C,R14*%
X56412936Y-89260000D02*
X57867064Y-89260000D01*
X56412936Y-91080000D02*
X57867064Y-91080000D01*
%TO.C,C9*%
X153247000Y-66308323D02*
X149831000Y-66308323D01*
X147349000Y-67548323D02*
X144698000Y-67548323D01*
X152811000Y-67108323D02*
X149831000Y-67108323D01*
X152269000Y-67788323D02*
X149831000Y-67788323D01*
X153174000Y-66468323D02*
X149831000Y-66468323D01*
X153614000Y-65028323D02*
X143566000Y-65028323D01*
X152379000Y-67668323D02*
X149831000Y-67668323D01*
X153655000Y-64667323D02*
X143525000Y-64667323D01*
X153508000Y-65548323D02*
X149831000Y-65548323D01*
X147349000Y-67788323D02*
X144911000Y-67788323D01*
X150332000Y-69068323D02*
X146848000Y-69068323D01*
X152515000Y-67508323D02*
X149831000Y-67508323D01*
X147349000Y-65828323D02*
X143753000Y-65828323D01*
X147349000Y-66108323D02*
X143852000Y-66108323D01*
X147349000Y-67588323D02*
X144732000Y-67588323D01*
X147349000Y-66428323D02*
X143987000Y-66428323D01*
X153401000Y-65908323D02*
X149831000Y-65908323D01*
X151420000Y-68508323D02*
X145760000Y-68508323D01*
X147349000Y-66508323D02*
X144026000Y-66508323D01*
X153640000Y-64827323D02*
X143540000Y-64827323D01*
X147349000Y-67628323D02*
X144766000Y-67628323D01*
X152610000Y-67388323D02*
X149831000Y-67388323D01*
X147349000Y-67508323D02*
X144665000Y-67508323D01*
X151965000Y-59287677D02*
X150965000Y-59287677D01*
X150100000Y-69148323D02*
X147080000Y-69148323D01*
X151590000Y-68388323D02*
X145590000Y-68388323D01*
X153667000Y-64467323D02*
X143513000Y-64467323D01*
X152700000Y-67268323D02*
X149831000Y-67268323D01*
X152306000Y-67748323D02*
X149831000Y-67748323D01*
X153668000Y-64427323D02*
X143512000Y-64427323D01*
X150879000Y-68828323D02*
X146301000Y-68828323D01*
X153373000Y-65988323D02*
X149831000Y-65988323D01*
X147349000Y-65548323D02*
X143672000Y-65548323D01*
X153670000Y-64347323D02*
X143510000Y-64347323D01*
X152985000Y-66828323D02*
X149831000Y-66828323D01*
X147349000Y-66268323D02*
X143916000Y-66268323D01*
X153427000Y-65828323D02*
X149831000Y-65828323D01*
X147349000Y-67988323D02*
X145112000Y-67988323D01*
X153344000Y-66068323D02*
X149831000Y-66068323D01*
X147349000Y-66228323D02*
X143900000Y-66228323D01*
X153440000Y-65788323D02*
X149831000Y-65788323D01*
X150799000Y-68868323D02*
X146381000Y-68868323D01*
X147349000Y-67748323D02*
X144874000Y-67748323D01*
X151535000Y-68428323D02*
X145645000Y-68428323D01*
X152191000Y-67868323D02*
X149831000Y-67868323D01*
X151169000Y-68668323D02*
X146011000Y-68668323D01*
X150715000Y-68908323D02*
X146465000Y-68908323D01*
X152151000Y-67908323D02*
X149831000Y-67908323D01*
X147349000Y-67028323D02*
X144317000Y-67028323D01*
X147349000Y-66188323D02*
X143883000Y-66188323D01*
X153280000Y-66228323D02*
X149831000Y-66228323D01*
X153546000Y-65388323D02*
X143634000Y-65388323D01*
X150436000Y-69028323D02*
X146744000Y-69028323D01*
X153580000Y-65228323D02*
X143600000Y-65228323D01*
X153052000Y-66708323D02*
X149831000Y-66708323D01*
X153620000Y-64988323D02*
X143560000Y-64988323D01*
X147349000Y-67708323D02*
X144837000Y-67708323D01*
X151235000Y-68628323D02*
X145945000Y-68628323D01*
X147349000Y-65948323D02*
X143793000Y-65948323D01*
X152728000Y-67228323D02*
X149831000Y-67228323D01*
X153030000Y-66748323D02*
X149831000Y-66748323D01*
X151696000Y-68308323D02*
X145484000Y-68308323D01*
X153211000Y-66388323D02*
X149831000Y-66388323D01*
X152547000Y-67468323D02*
X149831000Y-67468323D01*
X152026000Y-68028323D02*
X145154000Y-68028323D01*
X151844000Y-68188323D02*
X145336000Y-68188323D01*
X147349000Y-66668323D02*
X144107000Y-66668323D01*
X147349000Y-66828323D02*
X144195000Y-66828323D01*
X147349000Y-67188323D02*
X144424000Y-67188323D01*
X150955000Y-68788323D02*
X146225000Y-68788323D01*
X153608000Y-65068323D02*
X143572000Y-65068323D01*
X147349000Y-67228323D02*
X144452000Y-67228323D01*
X153387000Y-65948323D02*
X149831000Y-65948323D01*
X147349000Y-66348323D02*
X143951000Y-66348323D01*
X153648000Y-64747323D02*
X143532000Y-64747323D01*
X153464000Y-65708323D02*
X149831000Y-65708323D01*
X147349000Y-66948323D02*
X144267000Y-66948323D01*
X147349000Y-66028323D02*
X143822000Y-66028323D01*
X147349000Y-66708323D02*
X144128000Y-66708323D01*
X149189000Y-69348323D02*
X147991000Y-69348323D01*
X152756000Y-67188323D02*
X149831000Y-67188323D01*
X147349000Y-65708323D02*
X143716000Y-65708323D01*
X150220000Y-69108323D02*
X146960000Y-69108323D01*
X151299000Y-68588323D02*
X145881000Y-68588323D01*
X151796000Y-68228323D02*
X145384000Y-68228323D01*
X147349000Y-65868323D02*
X143766000Y-65868323D01*
X152448000Y-67588323D02*
X149831000Y-67588323D01*
X147349000Y-65628323D02*
X143693000Y-65628323D01*
X149820000Y-69228323D02*
X147360000Y-69228323D01*
X153297000Y-66188323D02*
X149831000Y-66188323D01*
X152784000Y-67148323D02*
X149831000Y-67148323D01*
X149968000Y-69188323D02*
X147212000Y-69188323D01*
X153414000Y-65868323D02*
X149831000Y-65868323D01*
X150534000Y-68988323D02*
X146646000Y-68988323D01*
X152961000Y-66868323D02*
X149831000Y-66868323D01*
X153487000Y-65628323D02*
X149831000Y-65628323D01*
X152068000Y-67988323D02*
X149831000Y-67988323D01*
X152414000Y-67628323D02*
X149831000Y-67628323D01*
X153518000Y-65508323D02*
X143662000Y-65508323D01*
X147349000Y-67908323D02*
X145029000Y-67908323D01*
X153669000Y-64387323D02*
X143511000Y-64387323D01*
X153537000Y-65428323D02*
X143643000Y-65428323D01*
X153154000Y-66508323D02*
X149831000Y-66508323D01*
X153229000Y-66348323D02*
X149831000Y-66348323D01*
X147349000Y-66628323D02*
X144086000Y-66628323D01*
X153313000Y-66148323D02*
X149831000Y-66148323D01*
X147349000Y-65788323D02*
X143740000Y-65788323D01*
X152579000Y-67428323D02*
X149831000Y-67428323D01*
X152670000Y-67308323D02*
X149831000Y-67308323D01*
X153670000Y-64267323D02*
X143510000Y-64267323D01*
X153358000Y-66028323D02*
X149831000Y-66028323D01*
X147349000Y-66388323D02*
X143969000Y-66388323D01*
X152230000Y-67828323D02*
X149831000Y-67828323D01*
X147349000Y-65908323D02*
X143779000Y-65908323D01*
X147349000Y-67428323D02*
X144601000Y-67428323D01*
X147349000Y-67348323D02*
X144540000Y-67348323D01*
X151029000Y-68748323D02*
X146151000Y-68748323D01*
X147349000Y-66588323D02*
X144065000Y-66588323D01*
X153665000Y-64507323D02*
X143515000Y-64507323D01*
X152913000Y-66948323D02*
X149831000Y-66948323D01*
X147349000Y-67068323D02*
X144343000Y-67068323D01*
X147349000Y-66788323D02*
X144173000Y-66788323D01*
X151891000Y-68148323D02*
X145289000Y-68148323D01*
X147349000Y-67868323D02*
X144989000Y-67868323D01*
X151479000Y-68468323D02*
X145701000Y-68468323D01*
X153670000Y-64307323D02*
X143510000Y-64307323D01*
X153135000Y-66548323D02*
X149831000Y-66548323D01*
X153572000Y-65268323D02*
X143608000Y-65268323D01*
X152888000Y-66988323D02*
X149831000Y-66988323D01*
X153497000Y-65588323D02*
X149831000Y-65588323D01*
X147349000Y-67268323D02*
X144480000Y-67268323D01*
X147349000Y-66068323D02*
X143836000Y-66068323D01*
X147349000Y-65748323D02*
X143728000Y-65748323D01*
X153528000Y-65468323D02*
X143652000Y-65468323D01*
X152937000Y-66908323D02*
X149831000Y-66908323D01*
X147349000Y-67468323D02*
X144633000Y-67468323D01*
X147349000Y-67108323D02*
X144369000Y-67108323D01*
X153452000Y-65748323D02*
X149831000Y-65748323D01*
X147349000Y-66148323D02*
X143867000Y-66148323D01*
X153094000Y-66628323D02*
X149831000Y-66628323D01*
X151982000Y-68068323D02*
X145198000Y-68068323D01*
X151360000Y-68548323D02*
X145820000Y-68548323D01*
X153635000Y-64867323D02*
X143545000Y-64867323D01*
X153663000Y-64547323D02*
X143517000Y-64547323D01*
X147349000Y-67308323D02*
X144510000Y-67308323D01*
X147349000Y-66908323D02*
X144243000Y-66908323D01*
X152110000Y-67948323D02*
X149831000Y-67948323D01*
X147349000Y-66988323D02*
X144292000Y-66988323D01*
X147349000Y-66308323D02*
X143933000Y-66308323D01*
X149652000Y-69268323D02*
X147528000Y-69268323D01*
X149452000Y-69308323D02*
X147728000Y-69308323D01*
X152343000Y-67708323D02*
X149831000Y-67708323D01*
X153652000Y-64707323D02*
X143528000Y-64707323D01*
X153193000Y-66428323D02*
X149831000Y-66428323D01*
X153555000Y-65348323D02*
X143625000Y-65348323D01*
X153073000Y-66668323D02*
X149831000Y-66668323D01*
X151465000Y-58787677D02*
X151465000Y-59787677D01*
X151937000Y-68108323D02*
X145243000Y-68108323D01*
X152837000Y-67068323D02*
X149831000Y-67068323D01*
X147349000Y-66748323D02*
X144150000Y-66748323D01*
X147349000Y-67388323D02*
X144570000Y-67388323D01*
X147349000Y-67148323D02*
X144396000Y-67148323D01*
X147349000Y-65588323D02*
X143683000Y-65588323D01*
X147349000Y-67668323D02*
X144801000Y-67668323D01*
X147349000Y-67828323D02*
X144950000Y-67828323D01*
X153660000Y-64587323D02*
X143520000Y-64587323D01*
X153264000Y-66268323D02*
X149831000Y-66268323D01*
X153475000Y-65668323D02*
X149831000Y-65668323D01*
X147349000Y-66468323D02*
X144006000Y-66468323D01*
X152863000Y-67028323D02*
X149831000Y-67028323D01*
X153601000Y-65108323D02*
X143579000Y-65108323D01*
X151644000Y-68348323D02*
X145536000Y-68348323D01*
X151100000Y-68708323D02*
X146080000Y-68708323D01*
X153115000Y-66588323D02*
X149831000Y-66588323D01*
X153658000Y-64627323D02*
X143522000Y-64627323D01*
X147349000Y-67948323D02*
X145070000Y-67948323D01*
X147349000Y-66868323D02*
X144219000Y-66868323D01*
X153007000Y-66788323D02*
X149831000Y-66788323D01*
X152482000Y-67548323D02*
X149831000Y-67548323D01*
X153328000Y-66108323D02*
X149831000Y-66108323D01*
X153564000Y-65308323D02*
X143616000Y-65308323D01*
X150627000Y-68948323D02*
X146553000Y-68948323D01*
X152640000Y-67348323D02*
X149831000Y-67348323D01*
X153587000Y-65188323D02*
X143593000Y-65188323D01*
X147349000Y-65988323D02*
X143807000Y-65988323D01*
X151746000Y-68268323D02*
X145434000Y-68268323D01*
X153625000Y-64947323D02*
X143555000Y-64947323D01*
X153594000Y-65148323D02*
X143586000Y-65148323D01*
X153630000Y-64907323D02*
X143550000Y-64907323D01*
X147349000Y-65668323D02*
X143705000Y-65668323D01*
X153644000Y-64787323D02*
X143536000Y-64787323D01*
X147349000Y-66548323D02*
X144045000Y-66548323D01*
X153710000Y-64267323D02*
G75*
G03*
X153710000Y-64267323I-5120000J0D01*
G01*
%TO.C,U7113*%
X98995000Y-98305000D02*
X98995000Y-99955000D01*
X116895000Y-98305000D02*
X98995000Y-98305000D01*
X98995000Y-103605000D02*
X116895000Y-103605000D01*
X98995000Y-101955000D02*
X98995000Y-103605000D01*
X116895000Y-103605000D02*
X116895000Y-98305000D01*
X98995000Y-101955000D02*
G75*
G03*
X98995000Y-99955000I0J1000000D01*
G01*
%TO.C,R5*%
X62137936Y-104415000D02*
X63592064Y-104415000D01*
X62137936Y-102595000D02*
X63592064Y-102595000D01*
%TO.C,U7108*%
X94035000Y-98305000D02*
X76135000Y-98305000D01*
X94035000Y-103605000D02*
X94035000Y-98305000D01*
X76135000Y-103605000D02*
X94035000Y-103605000D01*
X76135000Y-98305000D02*
X76135000Y-99955000D01*
X76135000Y-101955000D02*
X76135000Y-103605000D01*
X76135000Y-101955000D02*
G75*
G03*
X76135000Y-99955000I0J1000000D01*
G01*
%TO.C,C3*%
X214553748Y-89175000D02*
X215976252Y-89175000D01*
X214553748Y-87355000D02*
X215976252Y-87355000D01*
%TO.C,U7116*%
X147275000Y-86725000D02*
X147275000Y-88375000D01*
X147275000Y-88375000D02*
X167715000Y-88375000D01*
X167715000Y-88375000D02*
X167715000Y-83075000D01*
X147275000Y-83075000D02*
X147275000Y-84725000D01*
X167715000Y-83075000D02*
X147275000Y-83075000D01*
X147275000Y-86725000D02*
G75*
G03*
X147275000Y-84725000I0J1000000D01*
G01*
%TO.C,U7121*%
X191845000Y-103605000D02*
X191845000Y-98305000D01*
X171405000Y-103605000D02*
X191845000Y-103605000D01*
X191845000Y-98305000D02*
X171405000Y-98305000D01*
X171405000Y-98305000D02*
X171405000Y-99955000D01*
X171405000Y-101955000D02*
X171405000Y-103605000D01*
X171405000Y-101955000D02*
G75*
G03*
X171405000Y-99955000I0J1000000D01*
G01*
%TO.C,C1*%
X64448748Y-91770000D02*
X65871252Y-91770000D01*
X64448748Y-93590000D02*
X65871252Y-93590000D01*
%TO.C,R12*%
X220020000Y-107462064D02*
X220020000Y-106007936D01*
X221840000Y-107462064D02*
X221840000Y-106007936D01*
%TO.C,R9*%
X60422936Y-94280000D02*
X61877064Y-94280000D01*
X60422936Y-96100000D02*
X61877064Y-96100000D01*
%TO.C,R15*%
X224430000Y-117132064D02*
X224430000Y-115677936D01*
X222610000Y-117132064D02*
X222610000Y-115677936D01*
%TO.C,U7111*%
X139755000Y-98315000D02*
X121855000Y-98315000D01*
X139755000Y-103615000D02*
X139755000Y-98315000D01*
X121855000Y-101965000D02*
X121855000Y-103615000D01*
X121855000Y-98315000D02*
X121855000Y-99965000D01*
X121855000Y-103615000D02*
X139755000Y-103615000D01*
X121855000Y-101965000D02*
G75*
G03*
X121855000Y-99965000I0J1000000D01*
G01*
%TO.C,U7114*%
X119950000Y-69315000D02*
X137850000Y-69315000D01*
X137850000Y-69315000D02*
X137850000Y-64015000D01*
X137850000Y-64015000D02*
X119950000Y-64015000D01*
X119950000Y-64015000D02*
X119950000Y-65665000D01*
X119950000Y-67665000D02*
X119950000Y-69315000D01*
X119950000Y-67665000D02*
G75*
G03*
X119950000Y-65665000I0J1000000D01*
G01*
%TO.C,R4*%
X217510000Y-103452064D02*
X217510000Y-101997936D01*
X219330000Y-103452064D02*
X219330000Y-101997936D01*
%TO.C,R11*%
X233579564Y-87355000D02*
X232125436Y-87355000D01*
X233579564Y-89175000D02*
X232125436Y-89175000D01*
%TO.C,C2*%
X56428748Y-91770000D02*
X57851252Y-91770000D01*
X56428748Y-93590000D02*
X57851252Y-93590000D01*
%TO.C,C8*%
X56428748Y-98610000D02*
X57851252Y-98610000D01*
X56428748Y-96790000D02*
X57851252Y-96790000D01*
%TO.C,U7101*%
X154880000Y-134095000D02*
X180400000Y-134095000D01*
X154880000Y-132445000D02*
X154880000Y-134095000D01*
X180400000Y-128795000D02*
X154880000Y-128795000D01*
X180400000Y-134095000D02*
X180400000Y-128795000D01*
X154880000Y-128795000D02*
X154880000Y-130445000D01*
X154880000Y-132445000D02*
G75*
G03*
X154880000Y-130445000I0J1000000D01*
G01*
%TO.C,C7*%
X222610000Y-121126252D02*
X222610000Y-119703748D01*
X224430000Y-121126252D02*
X224430000Y-119703748D01*
%TO.C,R10*%
X222610000Y-129162064D02*
X222610000Y-127707936D01*
X224430000Y-129162064D02*
X224430000Y-127707936D01*
%TO.C,R2*%
X60422936Y-93590000D02*
X61877064Y-93590000D01*
X60422936Y-91770000D02*
X61877064Y-91770000D01*
%TO.C,U7120*%
X171405000Y-88375000D02*
X191845000Y-88375000D01*
X171405000Y-86725000D02*
X171405000Y-88375000D01*
X171405000Y-83075000D02*
X171405000Y-84725000D01*
X191845000Y-83075000D02*
X171405000Y-83075000D01*
X191845000Y-88375000D02*
X191845000Y-83075000D01*
X171405000Y-86725000D02*
G75*
G03*
X171405000Y-84725000I0J1000000D01*
G01*
%TO.C,R3*%
X214537936Y-86665000D02*
X215992064Y-86665000D01*
X214537936Y-84845000D02*
X215992064Y-84845000D01*
%TO.C,X2*%
X105360000Y-116210000D02*
X105360000Y-113610000D01*
X106690000Y-118810000D02*
X105360000Y-118810000D01*
X115640000Y-118810000D02*
X115640000Y-113610000D01*
X105360000Y-118810000D02*
X105360000Y-117480000D01*
X107960000Y-116210000D02*
X105360000Y-116210000D01*
X107960000Y-118810000D02*
X115640000Y-118810000D01*
X107960000Y-118810000D02*
X107960000Y-116210000D01*
X105360000Y-113610000D02*
X115640000Y-113610000D01*
%TO.C,U7109*%
X121875000Y-83085000D02*
X121875000Y-84735000D01*
X142315000Y-83085000D02*
X121875000Y-83085000D01*
X121875000Y-88385000D02*
X142315000Y-88385000D01*
X121875000Y-86735000D02*
X121875000Y-88385000D01*
X142315000Y-88385000D02*
X142315000Y-83085000D01*
X121875000Y-86735000D02*
G75*
G03*
X121875000Y-84735000I0J1000000D01*
G01*
%TO.C,C5*%
X219330000Y-107446252D02*
X219330000Y-106023748D01*
X217510000Y-107446252D02*
X217510000Y-106023748D01*
%TO.C,U7115*%
X76140000Y-69315000D02*
X94040000Y-69315000D01*
X94040000Y-64015000D02*
X76140000Y-64015000D01*
X76140000Y-67665000D02*
X76140000Y-69315000D01*
X94040000Y-69315000D02*
X94040000Y-64015000D01*
X76140000Y-64015000D02*
X76140000Y-65665000D01*
X76140000Y-67665000D02*
G75*
G03*
X76140000Y-65665000I0J1000000D01*
G01*
%TO.C,X-TAL1*%
X102880000Y-72995000D02*
X102880000Y-73345000D01*
X102880000Y-73345000D02*
X102880000Y-73345000D01*
X109330000Y-73115000D02*
X100230000Y-73115000D01*
X109330000Y-72995000D02*
X109330000Y-73115000D01*
X108980000Y-72995000D02*
X108980000Y-63795000D01*
X100230000Y-73115000D02*
X100230000Y-72995000D01*
X100580000Y-63795000D02*
X100580000Y-72995000D01*
X100230000Y-72995000D02*
X109330000Y-72995000D01*
X106680000Y-72995000D02*
X106680000Y-73345000D01*
X108980000Y-63795000D02*
X100580000Y-63795000D01*
X106680000Y-73345000D02*
X106680000Y-73345000D01*
X100580000Y-72995000D02*
X108980000Y-72995000D01*
%TO.C,R7*%
X60422936Y-91080000D02*
X61877064Y-91080000D01*
X60422936Y-89260000D02*
X61877064Y-89260000D01*
%TO.C,U7117*%
X147275000Y-101955000D02*
X147275000Y-103605000D01*
X167715000Y-98305000D02*
X147275000Y-98305000D01*
X167715000Y-103605000D02*
X167715000Y-98305000D01*
X147275000Y-98305000D02*
X147275000Y-99955000D01*
X147275000Y-103605000D02*
X167715000Y-103605000D01*
X147275000Y-101955000D02*
G75*
G03*
X147275000Y-99955000I0J1000000D01*
G01*
%TO.C,U7118*%
X147275000Y-113545000D02*
X147275000Y-115195000D01*
X147275000Y-117195000D02*
X147275000Y-118845000D01*
X167715000Y-118845000D02*
X167715000Y-113545000D01*
X147275000Y-118845000D02*
X167715000Y-118845000D01*
X167715000Y-113545000D02*
X147275000Y-113545000D01*
X147275000Y-117195000D02*
G75*
G03*
X147275000Y-115195000I0J1000000D01*
G01*
%TO.C,R13*%
X56412936Y-99300000D02*
X57867064Y-99300000D01*
X56412936Y-101120000D02*
X57867064Y-101120000D01*
%TO.C,X5*%
X196790000Y-57725000D02*
X198120000Y-57725000D01*
X196790000Y-60325000D02*
X199390000Y-60325000D01*
X196790000Y-78165000D02*
X201990000Y-78165000D01*
X201990000Y-57725000D02*
X201990000Y-78165000D01*
X196790000Y-60325000D02*
X196790000Y-78165000D01*
X199390000Y-57725000D02*
X201990000Y-57725000D01*
X199390000Y-60325000D02*
X199390000Y-57725000D01*
X196790000Y-59055000D02*
X196790000Y-57725000D01*
%TO.C,R6*%
X56412936Y-96100000D02*
X57867064Y-96100000D01*
X56412936Y-94280000D02*
X57867064Y-94280000D01*
%TO.C,R8*%
X215010000Y-96612064D02*
X215010000Y-95157936D01*
X216830000Y-96612064D02*
X216830000Y-95157936D01*
%TO.C,U7106*%
X121855000Y-118845000D02*
X139755000Y-118845000D01*
X139755000Y-118845000D02*
X139755000Y-113545000D01*
X121855000Y-113545000D02*
X121855000Y-115195000D01*
X121855000Y-117195000D02*
X121855000Y-118845000D01*
X139755000Y-113545000D02*
X121855000Y-113545000D01*
X121855000Y-117195000D02*
G75*
G03*
X121855000Y-115195000I0J1000000D01*
G01*
%TO.C,U7119*%
X192450000Y-60220000D02*
X156770000Y-60220000D01*
X156710000Y-75630000D02*
X192510000Y-75630000D01*
X192510000Y-57730000D02*
X156710000Y-57730000D01*
X156770000Y-60220000D02*
X156770000Y-65680000D01*
X156770000Y-73140000D02*
X192450000Y-73140000D01*
X156770000Y-67680000D02*
X156770000Y-73140000D01*
X156710000Y-57730000D02*
X156710000Y-75630000D01*
X192450000Y-73140000D02*
X192450000Y-60220000D01*
X192510000Y-75630000D02*
X192510000Y-57730000D01*
X156770000Y-67680000D02*
G75*
G03*
X156770000Y-65680000I0J1000000D01*
G01*
%TO.C,U7110*%
X98995000Y-83065000D02*
X98995000Y-84715000D01*
X116895000Y-83065000D02*
X98995000Y-83065000D01*
X98995000Y-88365000D02*
X116895000Y-88365000D01*
X98995000Y-86715000D02*
X98995000Y-88365000D01*
X116895000Y-88365000D02*
X116895000Y-83065000D01*
X98995000Y-86715000D02*
G75*
G03*
X98995000Y-84715000I0J1000000D01*
G01*
%TO.C,U7107*%
X76135000Y-113545000D02*
X76135000Y-115195000D01*
X94035000Y-118845000D02*
X94035000Y-113545000D01*
X76135000Y-118845000D02*
X94035000Y-118845000D01*
X94035000Y-113545000D02*
X76135000Y-113545000D01*
X76135000Y-117195000D02*
X76135000Y-118845000D01*
X76135000Y-117195000D02*
G75*
G03*
X76135000Y-115195000I0J1000000D01*
G01*
%TD*%
M02*
