%TF.GenerationSoftware,KiCad,Pcbnew,6.0.2+dfsg-1*%
%TF.CreationDate,2022-08-28T18:24:52-07:00*%
%TF.ProjectId,ISA-Card,4953412d-4361-4726-942e-6b696361645f,1.0*%
%TF.SameCoordinates,Original*%
%TF.FileFunction,Soldermask,Bot*%
%TF.FilePolarity,Negative*%
%FSLAX46Y46*%
G04 Gerber Fmt 4.6, Leading zero omitted, Abs format (unit mm)*
G04 Created by KiCad (PCBNEW 6.0.2+dfsg-1) date 2022-08-28 18:24:52*
%MOMM*%
%LPD*%
G01*
G04 APERTURE LIST*
G04 Aperture macros list*
%AMRoundRect*
0 Rectangle with rounded corners*
0 $1 Rounding radius*
0 $2 $3 $4 $5 $6 $7 $8 $9 X,Y pos of 4 corners*
0 Add a 4 corners polygon primitive as box body*
4,1,4,$2,$3,$4,$5,$6,$7,$8,$9,$2,$3,0*
0 Add four circle primitives for the rounded corners*
1,1,$1+$1,$2,$3*
1,1,$1+$1,$4,$5*
1,1,$1+$1,$6,$7*
1,1,$1+$1,$8,$9*
0 Add four rect primitives between the rounded corners*
20,1,$1+$1,$2,$3,$4,$5,0*
20,1,$1+$1,$4,$5,$6,$7,0*
20,1,$1+$1,$6,$7,$8,$9,0*
20,1,$1+$1,$8,$9,$2,$3,0*%
G04 Aperture macros list end*
%ADD10RoundRect,0.444500X-0.444500X-3.619500X0.444500X-3.619500X0.444500X3.619500X-0.444500X3.619500X0*%
%ADD11C,0.800000*%
%ADD12C,6.400000*%
%ADD13RoundRect,0.250000X0.312500X0.625000X-0.312500X0.625000X-0.312500X-0.625000X0.312500X-0.625000X0*%
%ADD14C,4.000000*%
%ADD15R,1.600000X1.600000*%
%ADD16C,1.600000*%
%ADD17O,1.600000X1.600000*%
%ADD18RoundRect,0.250000X0.625000X-0.312500X0.625000X0.312500X-0.625000X0.312500X-0.625000X-0.312500X0*%
%ADD19RoundRect,0.250000X0.650000X-0.325000X0.650000X0.325000X-0.650000X0.325000X-0.650000X-0.325000X0*%
%ADD20RoundRect,0.250000X-0.325000X-0.650000X0.325000X-0.650000X0.325000X0.650000X-0.325000X0.650000X0*%
%ADD21R,2.000000X2.000000*%
%ADD22C,2.000000*%
%ADD23RoundRect,0.250000X-0.650000X0.325000X-0.650000X-0.325000X0.650000X-0.325000X0.650000X0.325000X0*%
%ADD24RoundRect,0.250000X-0.312500X-0.625000X0.312500X-0.625000X0.312500X0.625000X-0.312500X0.625000X0*%
%ADD25RoundRect,0.250000X-0.625000X0.312500X-0.625000X-0.312500X0.625000X-0.312500X0.625000X0.312500X0*%
%ADD26R,1.700000X1.700000*%
%ADD27O,1.700000X1.700000*%
%ADD28C,1.500000*%
G04 APERTURE END LIST*
D10*
%TO.C,BUS1*%
X175260000Y-145732500D03*
X139700000Y-145732500D03*
X137160000Y-145732500D03*
X111760000Y-145732500D03*
X167640000Y-145732500D03*
X116840000Y-145732500D03*
X185420000Y-145732500D03*
X182880000Y-145732500D03*
X180340000Y-145732500D03*
X177800000Y-145732500D03*
X172720000Y-145732500D03*
X170180000Y-145732500D03*
X165100000Y-145732500D03*
X162560000Y-145732500D03*
X160020000Y-145732500D03*
X157480000Y-145732500D03*
X154940000Y-145732500D03*
X152400000Y-145732500D03*
X149860000Y-145732500D03*
X147320000Y-145732500D03*
X144780000Y-145732500D03*
X142240000Y-145732500D03*
X134620000Y-145732500D03*
X132080000Y-145732500D03*
X129540000Y-145732500D03*
X127000000Y-145732500D03*
X124460000Y-145732500D03*
X121920000Y-145732500D03*
X119380000Y-145732500D03*
X114300000Y-145732500D03*
X109220000Y-145732500D03*
%TD*%
D11*
%TO.C,HOLE2*%
X204677944Y-64977944D03*
D12*
X206375000Y-66675000D03*
D11*
X208775000Y-66675000D03*
X208072056Y-64977944D03*
X203975000Y-66675000D03*
X204677944Y-68372056D03*
X206375000Y-69075000D03*
X208072056Y-68372056D03*
X206375000Y-64275000D03*
%TD*%
D13*
%TO.C,R16*%
X181802500Y-119380000D03*
X178877500Y-119380000D03*
%TD*%
D14*
%TO.C,X3*%
X200175000Y-138105000D03*
X200175000Y-104805000D03*
D15*
X198755000Y-111760000D03*
D16*
X198755000Y-114530000D03*
X198755000Y-117300000D03*
X198755000Y-120070000D03*
X198755000Y-122840000D03*
X198755000Y-125610000D03*
X198755000Y-128380000D03*
X198755000Y-131150000D03*
X201595000Y-113145000D03*
X201595000Y-115915000D03*
X201595000Y-118685000D03*
X201595000Y-121455000D03*
X201595000Y-124225000D03*
X201595000Y-126995000D03*
X201595000Y-129765000D03*
%TD*%
D15*
%TO.C,U7102*%
X128270000Y-135255000D03*
D17*
X130810000Y-135255000D03*
X133350000Y-135255000D03*
X135890000Y-135255000D03*
X138430000Y-135255000D03*
X140970000Y-135255000D03*
X143510000Y-135255000D03*
X146050000Y-135255000D03*
X148590000Y-135255000D03*
X151130000Y-135255000D03*
X151130000Y-127635000D03*
X148590000Y-127635000D03*
X146050000Y-127635000D03*
X143510000Y-127635000D03*
X140970000Y-127635000D03*
X138430000Y-127635000D03*
X135890000Y-127635000D03*
X133350000Y-127635000D03*
X130810000Y-127635000D03*
X128270000Y-127635000D03*
%TD*%
D18*
%TO.C,R1*%
X105410000Y-102427500D03*
X105410000Y-99502500D03*
%TD*%
D15*
%TO.C,U7105*%
X77485000Y-135245000D03*
D17*
X80025000Y-135245000D03*
X82565000Y-135245000D03*
X85105000Y-135245000D03*
X87645000Y-135245000D03*
X90185000Y-135245000D03*
X92725000Y-135245000D03*
X95265000Y-135245000D03*
X95265000Y-127625000D03*
X92725000Y-127625000D03*
X90185000Y-127625000D03*
X87645000Y-127625000D03*
X85105000Y-127625000D03*
X82565000Y-127625000D03*
X80025000Y-127625000D03*
X77485000Y-127625000D03*
%TD*%
D11*
%TO.C,HOLE2*%
X215392000Y-86220000D03*
X212992000Y-83820000D03*
X213694944Y-85517056D03*
X217089056Y-85517056D03*
X217792000Y-83820000D03*
X217089056Y-82122944D03*
X215392000Y-81420000D03*
D12*
X215392000Y-83820000D03*
D11*
X213694944Y-82122944D03*
%TD*%
D19*
%TO.C,C6*%
X100584000Y-66499000D03*
X100584000Y-63549000D03*
%TD*%
D15*
%TO.C,U7104*%
X102885000Y-135245000D03*
D17*
X105425000Y-135245000D03*
X107965000Y-135245000D03*
X110505000Y-135245000D03*
X113045000Y-135245000D03*
X115585000Y-135245000D03*
X118125000Y-135245000D03*
X120665000Y-135245000D03*
X120665000Y-127625000D03*
X118125000Y-127625000D03*
X115585000Y-127625000D03*
X113045000Y-127625000D03*
X110505000Y-127625000D03*
X107965000Y-127625000D03*
X105425000Y-127625000D03*
X102885000Y-127625000D03*
%TD*%
D20*
%TO.C,C4*%
X76630000Y-102235000D03*
X79580000Y-102235000D03*
%TD*%
D15*
%TO.C,U7112*%
X77465000Y-89525000D03*
D17*
X80005000Y-89525000D03*
X82545000Y-89525000D03*
X85085000Y-89525000D03*
X87625000Y-89525000D03*
X90165000Y-89525000D03*
X92705000Y-89525000D03*
X92705000Y-81905000D03*
X90165000Y-81905000D03*
X87625000Y-81905000D03*
X85085000Y-81905000D03*
X82545000Y-81905000D03*
X80005000Y-81905000D03*
X77465000Y-81905000D03*
%TD*%
D13*
%TO.C,R14*%
X188976000Y-125730000D03*
X186051000Y-125730000D03*
%TD*%
D21*
%TO.C,C9*%
X148590000Y-61767323D03*
D22*
X148590000Y-66767323D03*
%TD*%
D15*
%TO.C,U7113*%
X100325000Y-104765000D03*
D17*
X102865000Y-104765000D03*
X105405000Y-104765000D03*
X107945000Y-104765000D03*
X110485000Y-104765000D03*
X113025000Y-104765000D03*
X115565000Y-104765000D03*
X115565000Y-97145000D03*
X113025000Y-97145000D03*
X110485000Y-97145000D03*
X107945000Y-97145000D03*
X105405000Y-97145000D03*
X102865000Y-97145000D03*
X100325000Y-97145000D03*
%TD*%
D13*
%TO.C,R5*%
X181802500Y-116205000D03*
X178877500Y-116205000D03*
%TD*%
D15*
%TO.C,U7108*%
X77465000Y-104765000D03*
D17*
X80005000Y-104765000D03*
X82545000Y-104765000D03*
X85085000Y-104765000D03*
X87625000Y-104765000D03*
X90165000Y-104765000D03*
X92705000Y-104765000D03*
X92705000Y-97145000D03*
X90165000Y-97145000D03*
X87625000Y-97145000D03*
X85085000Y-97145000D03*
X82545000Y-97145000D03*
X80005000Y-97145000D03*
X77465000Y-97145000D03*
%TD*%
D23*
%TO.C,C3*%
X140970000Y-102440000D03*
X140970000Y-99490000D03*
%TD*%
D15*
%TO.C,U7116*%
X148605000Y-89535000D03*
D17*
X151145000Y-89535000D03*
X153685000Y-89535000D03*
X156225000Y-89535000D03*
X158765000Y-89535000D03*
X161305000Y-89535000D03*
X163845000Y-89535000D03*
X166385000Y-89535000D03*
X166385000Y-81915000D03*
X163845000Y-81915000D03*
X161305000Y-81915000D03*
X158765000Y-81915000D03*
X156225000Y-81915000D03*
X153685000Y-81915000D03*
X151145000Y-81915000D03*
X148605000Y-81915000D03*
%TD*%
D15*
%TO.C,U7121*%
X172735000Y-104765000D03*
D17*
X175275000Y-104765000D03*
X177815000Y-104765000D03*
X180355000Y-104765000D03*
X182895000Y-104765000D03*
X185435000Y-104765000D03*
X187975000Y-104765000D03*
X190515000Y-104765000D03*
X190515000Y-97145000D03*
X187975000Y-97145000D03*
X185435000Y-97145000D03*
X182895000Y-97145000D03*
X180355000Y-97145000D03*
X177815000Y-97145000D03*
X175275000Y-97145000D03*
X172735000Y-97145000D03*
%TD*%
D23*
%TO.C,C1*%
X97790000Y-84250000D03*
X97790000Y-87200000D03*
%TD*%
D13*
%TO.C,R12*%
X188787500Y-119380000D03*
X185862500Y-119380000D03*
%TD*%
%TO.C,R9*%
X188787500Y-113030000D03*
X185862500Y-113030000D03*
%TD*%
%TO.C,R15*%
X181802500Y-123190000D03*
X178877500Y-123190000D03*
%TD*%
D15*
%TO.C,U7111*%
X123185000Y-104775000D03*
D17*
X125725000Y-104775000D03*
X128265000Y-104775000D03*
X130805000Y-104775000D03*
X133345000Y-104775000D03*
X135885000Y-104775000D03*
X138425000Y-104775000D03*
X138425000Y-97155000D03*
X135885000Y-97155000D03*
X133345000Y-97155000D03*
X130805000Y-97155000D03*
X128265000Y-97155000D03*
X125725000Y-97155000D03*
X123185000Y-97155000D03*
%TD*%
D15*
%TO.C,U7114*%
X121280000Y-70475000D03*
D17*
X123820000Y-70475000D03*
X126360000Y-70475000D03*
X128900000Y-70475000D03*
X131440000Y-70475000D03*
X133980000Y-70475000D03*
X136520000Y-70475000D03*
X136520000Y-62855000D03*
X133980000Y-62855000D03*
X131440000Y-62855000D03*
X128900000Y-62855000D03*
X126360000Y-62855000D03*
X123820000Y-62855000D03*
X121280000Y-62855000D03*
%TD*%
D24*
%TO.C,R4*%
X86802500Y-102235000D03*
X89727500Y-102235000D03*
%TD*%
D13*
%TO.C,R11*%
X188787500Y-116205000D03*
X185862500Y-116205000D03*
%TD*%
D23*
%TO.C,C2*%
X140970000Y-114730000D03*
X140970000Y-117680000D03*
%TD*%
D19*
%TO.C,C8*%
X139065000Y-68150000D03*
X139065000Y-65200000D03*
%TD*%
D15*
%TO.C,U7101*%
X156210000Y-135255000D03*
D17*
X158750000Y-135255000D03*
X161290000Y-135255000D03*
X163830000Y-135255000D03*
X166370000Y-135255000D03*
X168910000Y-135255000D03*
X171450000Y-135255000D03*
X173990000Y-135255000D03*
X176530000Y-135255000D03*
X179070000Y-135255000D03*
X179070000Y-127635000D03*
X176530000Y-127635000D03*
X173990000Y-127635000D03*
X171450000Y-127635000D03*
X168910000Y-127635000D03*
X166370000Y-127635000D03*
X163830000Y-127635000D03*
X161290000Y-127635000D03*
X158750000Y-127635000D03*
X156210000Y-127635000D03*
%TD*%
D23*
%TO.C,C7*%
X118745000Y-70915000D03*
X118745000Y-73865000D03*
%TD*%
D13*
%TO.C,R10*%
X188787500Y-109855000D03*
X185862500Y-109855000D03*
%TD*%
D24*
%TO.C,R2*%
X104140000Y-70485000D03*
X107065000Y-70485000D03*
%TD*%
D15*
%TO.C,U7120*%
X172735000Y-89535000D03*
D17*
X175275000Y-89535000D03*
X177815000Y-89535000D03*
X180355000Y-89535000D03*
X182895000Y-89535000D03*
X185435000Y-89535000D03*
X187975000Y-89535000D03*
X190515000Y-89535000D03*
X190515000Y-81915000D03*
X187975000Y-81915000D03*
X185435000Y-81915000D03*
X182895000Y-81915000D03*
X180355000Y-81915000D03*
X177815000Y-81915000D03*
X175275000Y-81915000D03*
X172735000Y-81915000D03*
%TD*%
D25*
%TO.C,R3*%
X115570000Y-73852500D03*
X115570000Y-70927500D03*
%TD*%
D26*
%TO.C,X2*%
X106690000Y-117480000D03*
D27*
X106690000Y-114940000D03*
X109230000Y-117480000D03*
X109230000Y-114940000D03*
X111770000Y-117480000D03*
X111770000Y-114940000D03*
X114310000Y-117480000D03*
X114310000Y-114940000D03*
%TD*%
D15*
%TO.C,U7109*%
X123205000Y-89545000D03*
D17*
X125745000Y-89545000D03*
X128285000Y-89545000D03*
X130825000Y-89545000D03*
X133365000Y-89545000D03*
X135905000Y-89545000D03*
X138445000Y-89545000D03*
X140985000Y-89545000D03*
X140985000Y-81925000D03*
X138445000Y-81925000D03*
X135905000Y-81925000D03*
X133365000Y-81925000D03*
X130825000Y-81925000D03*
X128285000Y-81925000D03*
X125745000Y-81925000D03*
X123205000Y-81925000D03*
%TD*%
D19*
%TO.C,C5*%
X110236000Y-66499000D03*
X110236000Y-63549000D03*
%TD*%
D15*
%TO.C,U7115*%
X77470000Y-70475000D03*
D17*
X80010000Y-70475000D03*
X82550000Y-70475000D03*
X85090000Y-70475000D03*
X87630000Y-70475000D03*
X90170000Y-70475000D03*
X92710000Y-70475000D03*
X92710000Y-62855000D03*
X90170000Y-62855000D03*
X87630000Y-62855000D03*
X85090000Y-62855000D03*
X82550000Y-62855000D03*
X80010000Y-62855000D03*
X77470000Y-62855000D03*
%TD*%
D28*
%TO.C,X-TAL1*%
X106680000Y-74295000D03*
X102880000Y-74295000D03*
%TD*%
D13*
%TO.C,R7*%
X173547500Y-122555000D03*
X170622500Y-122555000D03*
%TD*%
D15*
%TO.C,U7117*%
X148605000Y-104765000D03*
D17*
X151145000Y-104765000D03*
X153685000Y-104765000D03*
X156225000Y-104765000D03*
X158765000Y-104765000D03*
X161305000Y-104765000D03*
X163845000Y-104765000D03*
X166385000Y-104765000D03*
X166385000Y-97145000D03*
X163845000Y-97145000D03*
X161305000Y-97145000D03*
X158765000Y-97145000D03*
X156225000Y-97145000D03*
X153685000Y-97145000D03*
X151145000Y-97145000D03*
X148605000Y-97145000D03*
%TD*%
D15*
%TO.C,U7118*%
X148605000Y-120005000D03*
D17*
X151145000Y-120005000D03*
X153685000Y-120005000D03*
X156225000Y-120005000D03*
X158765000Y-120005000D03*
X161305000Y-120005000D03*
X163845000Y-120005000D03*
X166385000Y-120005000D03*
X166385000Y-112385000D03*
X163845000Y-112385000D03*
X161305000Y-112385000D03*
X158765000Y-112385000D03*
X156225000Y-112385000D03*
X153685000Y-112385000D03*
X151145000Y-112385000D03*
X148605000Y-112385000D03*
%TD*%
D13*
%TO.C,R13*%
X188853000Y-122428000D03*
X185928000Y-122428000D03*
%TD*%
D26*
%TO.C,X5*%
X198120000Y-59055000D03*
D27*
X200660000Y-59055000D03*
X198120000Y-61595000D03*
X200660000Y-61595000D03*
X198120000Y-64135000D03*
X200660000Y-64135000D03*
X198120000Y-66675000D03*
X200660000Y-66675000D03*
X198120000Y-69215000D03*
X200660000Y-69215000D03*
X198120000Y-71755000D03*
X200660000Y-71755000D03*
X198120000Y-74295000D03*
X200660000Y-74295000D03*
X198120000Y-76835000D03*
X200660000Y-76835000D03*
%TD*%
D11*
%TO.C,HOLE2*%
X79802056Y-58847056D03*
X75705000Y-57150000D03*
X78105000Y-59550000D03*
X76407944Y-58847056D03*
D12*
X78105000Y-57150000D03*
D11*
X79802056Y-55452944D03*
X80505000Y-57150000D03*
X78105000Y-54750000D03*
X76407944Y-55452944D03*
%TD*%
D13*
%TO.C,R6*%
X173547500Y-119380000D03*
X170622500Y-119380000D03*
%TD*%
%TO.C,R8*%
X185989500Y-129032000D03*
X188914500Y-129032000D03*
%TD*%
D15*
%TO.C,U7106*%
X123185000Y-120005000D03*
D17*
X125725000Y-120005000D03*
X128265000Y-120005000D03*
X130805000Y-120005000D03*
X133345000Y-120005000D03*
X135885000Y-120005000D03*
X138425000Y-120005000D03*
X138425000Y-112385000D03*
X135885000Y-112385000D03*
X133345000Y-112385000D03*
X130805000Y-112385000D03*
X128265000Y-112385000D03*
X125725000Y-112385000D03*
X123185000Y-112385000D03*
%TD*%
D15*
%TO.C,U7119*%
X158100000Y-74300000D03*
D17*
X160640000Y-74300000D03*
X163180000Y-74300000D03*
X165720000Y-74300000D03*
X168260000Y-74300000D03*
X170800000Y-74300000D03*
X173340000Y-74300000D03*
X175880000Y-74300000D03*
X178420000Y-74300000D03*
X180960000Y-74300000D03*
X183500000Y-74300000D03*
X186040000Y-74300000D03*
X188580000Y-74300000D03*
X191120000Y-74300000D03*
X191120000Y-59060000D03*
X188580000Y-59060000D03*
X186040000Y-59060000D03*
X183500000Y-59060000D03*
X180960000Y-59060000D03*
X178420000Y-59060000D03*
X175880000Y-59060000D03*
X173340000Y-59060000D03*
X170800000Y-59060000D03*
X168260000Y-59060000D03*
X165720000Y-59060000D03*
X163180000Y-59060000D03*
X160640000Y-59060000D03*
X158100000Y-59060000D03*
%TD*%
D15*
%TO.C,U7110*%
X100325000Y-89525000D03*
D17*
X102865000Y-89525000D03*
X105405000Y-89525000D03*
X107945000Y-89525000D03*
X110485000Y-89525000D03*
X113025000Y-89525000D03*
X115565000Y-89525000D03*
X115565000Y-81905000D03*
X113025000Y-81905000D03*
X110485000Y-81905000D03*
X107945000Y-81905000D03*
X105405000Y-81905000D03*
X102865000Y-81905000D03*
X100325000Y-81905000D03*
%TD*%
D15*
%TO.C,U7107*%
X77465000Y-120005000D03*
D17*
X80005000Y-120005000D03*
X82545000Y-120005000D03*
X85085000Y-120005000D03*
X87625000Y-120005000D03*
X90165000Y-120005000D03*
X92705000Y-120005000D03*
X92705000Y-112385000D03*
X90165000Y-112385000D03*
X87625000Y-112385000D03*
X85085000Y-112385000D03*
X82545000Y-112385000D03*
X80005000Y-112385000D03*
X77465000Y-112385000D03*
%TD*%
G36*
X187902121Y-141625002D02*
G01*
X187948614Y-141678658D01*
X187960000Y-141731000D01*
X187960000Y-149216742D01*
X187958922Y-149233188D01*
X187940528Y-149372903D01*
X187932015Y-149404675D01*
X187881275Y-149527173D01*
X187864828Y-149555659D01*
X187784110Y-149660852D01*
X187760852Y-149684110D01*
X187655659Y-149764828D01*
X187627173Y-149781275D01*
X187504675Y-149832015D01*
X187472903Y-149840528D01*
X187333188Y-149858922D01*
X187316742Y-149860000D01*
X107323258Y-149860000D01*
X107306812Y-149858922D01*
X107167097Y-149840528D01*
X107135325Y-149832015D01*
X107012827Y-149781275D01*
X106984341Y-149764828D01*
X106879148Y-149684110D01*
X106855890Y-149660852D01*
X106775172Y-149555659D01*
X106758725Y-149527173D01*
X106707985Y-149404675D01*
X106699472Y-149372903D01*
X106681078Y-149233188D01*
X106680000Y-149216742D01*
X106680000Y-141731000D01*
X106700002Y-141662879D01*
X106753658Y-141616386D01*
X106806000Y-141605000D01*
X187834000Y-141605000D01*
X187902121Y-141625002D01*
G37*
M02*
