%TF.GenerationSoftware,KiCad,Pcbnew,6.0.2+dfsg-1*%
%TF.CreationDate,2022-08-28T14:07:19-07:00*%
%TF.ProjectId,ISA-Card,4953412d-4361-4726-942e-6b696361645f,1.0*%
%TF.SameCoordinates,Original*%
%TF.FileFunction,Copper,L2,Bot*%
%TF.FilePolarity,Positive*%
%FSLAX46Y46*%
G04 Gerber Fmt 4.6, Leading zero omitted, Abs format (unit mm)*
G04 Created by KiCad (PCBNEW 6.0.2+dfsg-1) date 2022-08-28 14:07:19*
%MOMM*%
%LPD*%
G01*
G04 APERTURE LIST*
G04 Aperture macros list*
%AMRoundRect*
0 Rectangle with rounded corners*
0 $1 Rounding radius*
0 $2 $3 $4 $5 $6 $7 $8 $9 X,Y pos of 4 corners*
0 Add a 4 corners polygon primitive as box body*
4,1,4,$2,$3,$4,$5,$6,$7,$8,$9,$2,$3,0*
0 Add four circle primitives for the rounded corners*
1,1,$1+$1,$2,$3*
1,1,$1+$1,$4,$5*
1,1,$1+$1,$6,$7*
1,1,$1+$1,$8,$9*
0 Add four rect primitives between the rounded corners*
20,1,$1+$1,$2,$3,$4,$5,0*
20,1,$1+$1,$4,$5,$6,$7,0*
20,1,$1+$1,$6,$7,$8,$9,0*
20,1,$1+$1,$8,$9,$2,$3,0*%
G04 Aperture macros list end*
%TA.AperFunction,ConnectorPad*%
%ADD10RoundRect,0.444500X-0.444500X-3.619500X0.444500X-3.619500X0.444500X3.619500X-0.444500X3.619500X0*%
%TD*%
%TA.AperFunction,ComponentPad*%
%ADD11C,0.800000*%
%TD*%
%TA.AperFunction,ComponentPad*%
%ADD12C,6.400000*%
%TD*%
%TA.AperFunction,ComponentPad*%
%ADD13C,4.000000*%
%TD*%
%TA.AperFunction,ComponentPad*%
%ADD14R,1.600000X1.600000*%
%TD*%
%TA.AperFunction,ComponentPad*%
%ADD15C,1.600000*%
%TD*%
%TA.AperFunction,ComponentPad*%
%ADD16O,1.600000X1.600000*%
%TD*%
%TA.AperFunction,ComponentPad*%
%ADD17R,2.000000X2.000000*%
%TD*%
%TA.AperFunction,ComponentPad*%
%ADD18C,2.000000*%
%TD*%
%TA.AperFunction,ComponentPad*%
%ADD19R,1.700000X1.700000*%
%TD*%
%TA.AperFunction,ComponentPad*%
%ADD20O,1.700000X1.700000*%
%TD*%
%TA.AperFunction,ComponentPad*%
%ADD21C,1.500000*%
%TD*%
%TA.AperFunction,ViaPad*%
%ADD22C,0.800000*%
%TD*%
%TA.AperFunction,ViaPad*%
%ADD23C,1.000000*%
%TD*%
%TA.AperFunction,Conductor*%
%ADD24C,0.400000*%
%TD*%
%TA.AperFunction,Conductor*%
%ADD25C,0.275000*%
%TD*%
%TA.AperFunction,Conductor*%
%ADD26C,1.000000*%
%TD*%
%TA.AperFunction,Conductor*%
%ADD27C,1.200000*%
%TD*%
G04 APERTURE END LIST*
D10*
%TO.P,BUS1,1,GND*%
%TO.N,GND*%
X185420000Y-145732500D03*
%TO.P,BUS1,2,RESET*%
%TO.N,/RESETDRV*%
X182880000Y-145732500D03*
%TO.P,BUS1,3,VCC*%
%TO.N,VCC*%
X180340000Y-145732500D03*
%TO.P,BUS1,4,IRQ2*%
%TO.N,unconnected-(BUS1-Pad4)*%
X177800000Y-145732500D03*
%TO.P,BUS1,6,DRQ2*%
%TO.N,unconnected-(BUS1-Pad6)*%
X172720000Y-145732500D03*
%TO.P,BUS1,7,-12V*%
%TO.N,unconnected-(BUS1-Pad7)*%
X170180000Y-145732500D03*
%TO.P,BUS1,9,+12V*%
%TO.N,unconnected-(BUS1-Pad9)*%
X165100000Y-145732500D03*
%TO.P,BUS1,10,GND*%
%TO.N,unconnected-(BUS1-Pad10)*%
X162560000Y-145732500D03*
%TO.P,BUS1,11,MEMW*%
%TO.N,unconnected-(BUS1-Pad11)*%
X160020000Y-145732500D03*
%TO.P,BUS1,12,MEMR*%
%TO.N,unconnected-(BUS1-Pad12)*%
X157480000Y-145732500D03*
%TO.P,BUS1,13,IOW*%
%TO.N,/~{IOW}*%
X154940000Y-145732500D03*
%TO.P,BUS1,14,IOR*%
%TO.N,/~{IOR}*%
X152400000Y-145732500D03*
%TO.P,BUS1,15,DACK3*%
%TO.N,/~{DACK3}*%
X149860000Y-145732500D03*
%TO.P,BUS1,16,DRQ3*%
%TO.N,/DRQ3*%
X147320000Y-145732500D03*
%TO.P,BUS1,17,DACK1*%
%TO.N,unconnected-(BUS1-Pad17)*%
X144780000Y-145732500D03*
%TO.P,BUS1,18,DRQ1*%
%TO.N,unconnected-(BUS1-Pad18)*%
X142240000Y-145732500D03*
%TO.P,BUS1,21,IRQ7*%
%TO.N,unconnected-(BUS1-Pad21)*%
X134620000Y-145732500D03*
%TO.P,BUS1,22,IRQ6*%
%TO.N,unconnected-(BUS1-Pad22)*%
X132080000Y-145732500D03*
%TO.P,BUS1,23,IRQ5*%
%TO.N,unconnected-(BUS1-Pad23)*%
X129540000Y-145732500D03*
%TO.P,BUS1,24,IRQ4*%
%TO.N,unconnected-(BUS1-Pad24)*%
X127000000Y-145732500D03*
%TO.P,BUS1,25,IRQ3*%
%TO.N,unconnected-(BUS1-Pad25)*%
X124460000Y-145732500D03*
%TO.P,BUS1,26,DACK2*%
%TO.N,unconnected-(BUS1-Pad26)*%
X121920000Y-145732500D03*
%TO.P,BUS1,27,TC*%
%TO.N,unconnected-(BUS1-Pad27)*%
X119380000Y-145732500D03*
%TO.P,BUS1,29,VCC*%
%TO.N,unconnected-(BUS1-Pad29)*%
X114300000Y-145732500D03*
%TO.P,BUS1,31,GND*%
%TO.N,unconnected-(BUS1-Pad31)*%
X109220000Y-145732500D03*
%TD*%
D11*
%TO.P,HOLE2,1*%
%TO.N,GND*%
X204677944Y-64977944D03*
D12*
X206375000Y-66675000D03*
D11*
X208775000Y-66675000D03*
X208072056Y-64977944D03*
X203975000Y-66675000D03*
X204677944Y-68372056D03*
X206375000Y-69075000D03*
X208072056Y-68372056D03*
X206375000Y-64275000D03*
%TD*%
D13*
%TO.P,X3,0*%
%TO.N,N/C*%
X199729669Y-137955000D03*
X199729669Y-104655000D03*
D14*
%TO.P,X3,1,1*%
%TO.N,/Response+*%
X198309669Y-111610000D03*
D15*
%TO.P,X3,2,2*%
%TO.N,/Command+*%
X198309669Y-114380000D03*
%TO.P,X3,3,3*%
%TO.N,/Data+*%
X198309669Y-117150000D03*
%TO.P,X3,4,4*%
%TO.N,/Data Clock+*%
X198309669Y-119920000D03*
%TO.P,X3,5,5*%
%TO.N,/Attention+*%
X198309669Y-122690000D03*
%TO.P,X3,6,6*%
%TO.N,/M1*%
X198309669Y-125460000D03*
%TO.P,X3,7,7*%
%TO.N,/M3*%
X198309669Y-128230000D03*
%TO.P,X3,8,8*%
%TO.N,GND*%
X198309669Y-131000000D03*
%TO.P,X3,9,P9*%
%TO.N,/Response-*%
X201149669Y-112995000D03*
%TO.P,X3,10,P10*%
%TO.N,/Command-*%
X201149669Y-115765000D03*
%TO.P,X3,11,P111*%
%TO.N,/Data-*%
X201149669Y-118535000D03*
%TO.P,X3,12,P12*%
%TO.N,/Data Clock-*%
X201149669Y-121305000D03*
%TO.P,X3,13,P13*%
%TO.N,/Attention-*%
X201149669Y-124075000D03*
%TO.P,X3,14,P14*%
%TO.N,/M2*%
X201149669Y-126845000D03*
%TO.P,X3,15,P15*%
%TO.N,/M4*%
X201149669Y-129615000D03*
%TD*%
D14*
%TO.P,U7102,1,1OE*%
%TO.N,GND*%
X128270000Y-135255000D03*
D16*
%TO.P,U7102,2,1A0*%
%TO.N,/A0*%
X130810000Y-135255000D03*
%TO.P,U7102,3,2Y0*%
%TO.N,Net-(U7102-Pad3)*%
X133350000Y-135255000D03*
%TO.P,U7102,4,1A1*%
%TO.N,/A9*%
X135890000Y-135255000D03*
%TO.P,U7102,5,2Y1*%
%TO.N,unconnected-(U7102-Pad5)*%
X138430000Y-135255000D03*
%TO.P,U7102,6,1A2*%
%TO.N,/~{DACK3}*%
X140970000Y-135255000D03*
%TO.P,U7102,7,2Y2*%
%TO.N,Net-(U7101-Pad1)*%
X143510000Y-135255000D03*
%TO.P,U7102,8,1A3*%
%TO.N,/~{IOW}*%
X146050000Y-135255000D03*
%TO.P,U7102,9,2Y3*%
%TO.N,Net-(U7102-Pad9)*%
X148590000Y-135255000D03*
%TO.P,U7102,10,GND*%
%TO.N,GND*%
X151130000Y-135255000D03*
%TO.P,U7102,11,2A3*%
%TO.N,/AEN*%
X151130000Y-127635000D03*
%TO.P,U7102,12,1Y3*%
%TO.N,Net-(U7102-Pad12)*%
X148590000Y-127635000D03*
%TO.P,U7102,13,2A2*%
%TO.N,/~{IOR}*%
X146050000Y-127635000D03*
%TO.P,U7102,14,1Y2*%
%TO.N,Net-(U7102-Pad14)*%
X143510000Y-127635000D03*
%TO.P,U7102,15,2A1*%
%TO.N,GND*%
X140970000Y-127635000D03*
%TO.P,U7102,16,1Y1*%
%TO.N,Net-(U7102-Pad16)*%
X138430000Y-127635000D03*
%TO.P,U7102,17,2A0*%
%TO.N,/A8*%
X135890000Y-127635000D03*
%TO.P,U7102,18,1Y0*%
%TO.N,Net-(U7102-Pad18)*%
X133350000Y-127635000D03*
%TO.P,U7102,19,2OE*%
%TO.N,GND*%
X130810000Y-127635000D03*
%TO.P,U7102,20,VCC*%
%TO.N,VCC*%
X128270000Y-127635000D03*
%TD*%
D14*
%TO.P,U7105,1,A0*%
%TO.N,/A1*%
X77485000Y-135245000D03*
D16*
%TO.P,U7105,2,A1*%
%TO.N,/A2*%
X80025000Y-135245000D03*
%TO.P,U7105,3,A2*%
%TO.N,/A3*%
X82565000Y-135245000D03*
%TO.P,U7105,4,E1*%
%TO.N,Net-(U7105-Pad4)*%
X85105000Y-135245000D03*
%TO.P,U7105,5,E2*%
%TO.N,/Port Selection*%
X87645000Y-135245000D03*
%TO.P,U7105,6,E3*%
%TO.N,VCC*%
X90185000Y-135245000D03*
%TO.P,U7105,7,O7*%
%TO.N,unconnected-(U7105-Pad7)*%
X92725000Y-135245000D03*
%TO.P,U7105,8,GND*%
%TO.N,GND*%
X95265000Y-135245000D03*
%TO.P,U7105,9,O6*%
%TO.N,unconnected-(U7105-Pad9)*%
X95265000Y-127625000D03*
%TO.P,U7105,10,O5*%
%TO.N,unconnected-(U7105-Pad10)*%
X92725000Y-127625000D03*
%TO.P,U7105,11,O4*%
%TO.N,Net-(U7105-Pad11)*%
X90185000Y-127625000D03*
%TO.P,U7105,12,O3*%
%TO.N,Net-(U7105-Pad12)*%
X87645000Y-127625000D03*
%TO.P,U7105,13,O2*%
%TO.N,Net-(U7105-Pad13)*%
X85105000Y-127625000D03*
%TO.P,U7105,14,O1*%
%TO.N,Net-(U7105-Pad14)*%
X82565000Y-127625000D03*
%TO.P,U7105,15,O0*%
%TO.N,Net-(U7105-Pad15)*%
X80025000Y-127625000D03*
%TO.P,U7105,16,VCC*%
%TO.N,VCC*%
X77485000Y-127625000D03*
%TD*%
D11*
%TO.P,HOLE2,1*%
%TO.N,GND*%
X198327944Y-83392944D03*
D12*
X200025000Y-85090000D03*
D11*
X202425000Y-85090000D03*
X201722056Y-83392944D03*
X197625000Y-85090000D03*
X198327944Y-86787056D03*
X200025000Y-87490000D03*
X201722056Y-86787056D03*
X200025000Y-82690000D03*
%TD*%
D14*
%TO.P,U7104,1,A0*%
%TO.N,/A4*%
X102885000Y-135245000D03*
D16*
%TO.P,U7104,2,A1*%
%TO.N,/A5*%
X105425000Y-135245000D03*
%TO.P,U7104,3,A2*%
%TO.N,/A6*%
X107965000Y-135245000D03*
%TO.P,U7104,4,E1*%
%TO.N,/A7*%
X110505000Y-135245000D03*
%TO.P,U7104,5,E2*%
%TO.N,Net-(U7102-Pad9)*%
X113045000Y-135245000D03*
%TO.P,U7104,6,E3*%
%TO.N,Net-(U7104-Pad6)*%
X115585000Y-135245000D03*
%TO.P,U7104,7,O7*%
%TO.N,unconnected-(U7104-Pad7)*%
X118125000Y-135245000D03*
%TO.P,U7104,8,GND*%
%TO.N,GND*%
X120665000Y-135245000D03*
%TO.P,U7104,9,O6*%
%TO.N,unconnected-(U7104-Pad9)*%
X120665000Y-127625000D03*
%TO.P,U7104,10,O5*%
%TO.N,unconnected-(U7104-Pad10)*%
X118125000Y-127625000D03*
%TO.P,U7104,11,O4*%
%TO.N,Net-(U7104-Pad11)*%
X115585000Y-127625000D03*
%TO.P,U7104,12,O3*%
%TO.N,Net-(U7104-Pad12)*%
X113045000Y-127625000D03*
%TO.P,U7104,13,O2*%
%TO.N,unconnected-(U7104-Pad13)*%
X110505000Y-127625000D03*
%TO.P,U7104,14,O1*%
%TO.N,Net-(U7104-Pad14)*%
X107965000Y-127625000D03*
%TO.P,U7104,15,O0*%
%TO.N,Net-(U7104-Pad15)*%
X105425000Y-127625000D03*
%TO.P,U7104,16,VCC*%
%TO.N,VCC*%
X102885000Y-127625000D03*
%TD*%
D14*
%TO.P,U7112,1,~{R}*%
%TO.N,Net-(U7105-Pad15)*%
X77465000Y-89525000D03*
D16*
%TO.P,U7112,2,D*%
%TO.N,Net-(U7106-Pad13)*%
X80005000Y-89525000D03*
%TO.P,U7112,3,C*%
%TO.N,Net-(U7106-Pad2)*%
X82545000Y-89525000D03*
%TO.P,U7112,4,~{S}*%
%TO.N,VCC*%
X85085000Y-89525000D03*
%TO.P,U7112,5,Q*%
%TO.N,Net-(U7108-Pad13)*%
X87625000Y-89525000D03*
%TO.P,U7112,6,~{Q}*%
%TO.N,Net-(U7106-Pad13)*%
X90165000Y-89525000D03*
%TO.P,U7112,7,GND*%
%TO.N,GND*%
X92705000Y-89525000D03*
%TO.P,U7112,8,~{Q}*%
%TO.N,unconnected-(U7112-Pad8)*%
X92705000Y-81905000D03*
%TO.P,U7112,9,Q*%
%TO.N,Net-(U7111-Pad5)*%
X90165000Y-81905000D03*
%TO.P,U7112,10,~{S}*%
%TO.N,VCC*%
X87625000Y-81905000D03*
%TO.P,U7112,11,C*%
%TO.N,Net-(U7110-Pad2)*%
X85085000Y-81905000D03*
%TO.P,U7112,12,D*%
%TO.N,VCC*%
X82545000Y-81905000D03*
%TO.P,U7112,13,~{R}*%
%TO.N,Net-(U7106-Pad11)*%
X80005000Y-81905000D03*
%TO.P,U7112,14,VCC*%
%TO.N,VCC*%
X77465000Y-81905000D03*
%TD*%
D17*
%TO.P,C9,1*%
%TO.N,VCC*%
X148590000Y-61767323D03*
D18*
%TO.P,C9,2*%
%TO.N,GND*%
X148590000Y-66767323D03*
%TD*%
D14*
%TO.P,U7113,1,~{R}*%
%TO.N,Net-(U7105-Pad12)*%
X100325000Y-104765000D03*
D16*
%TO.P,U7113,2,D*%
%TO.N,Net-(R1-Pad2)*%
X102865000Y-104765000D03*
%TO.P,U7113,3,C*%
%TO.N,Net-(U7111-Pad11)*%
X105405000Y-104765000D03*
%TO.P,U7113,4,~{S}*%
%TO.N,Net-(U7107-Pad8)*%
X107945000Y-104765000D03*
%TO.P,U7113,5,Q*%
%TO.N,Net-(U7111-Pad2)*%
X110485000Y-104765000D03*
%TO.P,U7113,6,~{Q}*%
%TO.N,unconnected-(U7113-Pad6)*%
X113025000Y-104765000D03*
%TO.P,U7113,7,GND*%
%TO.N,GND*%
X115565000Y-104765000D03*
%TO.P,U7113,8,~{Q}*%
%TO.N,unconnected-(U7113-Pad8)*%
X115565000Y-97145000D03*
%TO.P,U7113,9,Q*%
%TO.N,Net-(U7107-Pad13)*%
X113025000Y-97145000D03*
%TO.P,U7113,10,~{S}*%
%TO.N,Net-(U7105-Pad15)*%
X110485000Y-97145000D03*
%TO.P,U7113,11,C*%
%TO.N,/Data Clock HV*%
X107945000Y-97145000D03*
%TO.P,U7113,12,D*%
%TO.N,GND*%
X105405000Y-97145000D03*
%TO.P,U7113,13,~{R}*%
%TO.N,unconnected-(U7113-Pad13)*%
X102865000Y-97145000D03*
%TO.P,U7113,14,VCC*%
%TO.N,VCC*%
X100325000Y-97145000D03*
%TD*%
D14*
%TO.P,U7108,1*%
%TO.N,Net-(U7108-Pad1)*%
X77465000Y-104765000D03*
D16*
%TO.P,U7108,2*%
%TO.N,Net-(C4-Pad2)*%
X80005000Y-104765000D03*
%TO.P,U7108,3*%
%TO.N,Net-(U7106-Pad2)*%
X82545000Y-104765000D03*
%TO.P,U7108,4*%
%TO.N,Net-(U7101-Pad1)*%
X85085000Y-104765000D03*
%TO.P,U7108,5*%
%TO.N,Net-(U7102-Pad14)*%
X87625000Y-104765000D03*
%TO.P,U7108,6*%
%TO.N,Net-(R4-Pad2)*%
X90165000Y-104765000D03*
%TO.P,U7108,7,GND*%
%TO.N,GND*%
X92705000Y-104765000D03*
%TO.P,U7108,8*%
%TO.N,Net-(U7108-Pad8)*%
X92705000Y-97145000D03*
%TO.P,U7108,9*%
%TO.N,Net-(U7106-Pad13)*%
X90165000Y-97145000D03*
%TO.P,U7108,10*%
%TO.N,Net-(U7106-Pad2)*%
X87625000Y-97145000D03*
%TO.P,U7108,11*%
%TO.N,Net-(U7108-Pad11)*%
X85085000Y-97145000D03*
%TO.P,U7108,12*%
%TO.N,Net-(U7106-Pad2)*%
X82545000Y-97145000D03*
%TO.P,U7108,13*%
%TO.N,Net-(U7108-Pad13)*%
X80005000Y-97145000D03*
%TO.P,U7108,14,VCC*%
%TO.N,VCC*%
X77465000Y-97145000D03*
%TD*%
D14*
%TO.P,U7116,1,QB*%
%TO.N,/MDB2*%
X148605000Y-89535000D03*
D16*
%TO.P,U7116,2,QC*%
%TO.N,/MDB3*%
X151145000Y-89535000D03*
%TO.P,U7116,3,QD*%
%TO.N,/MDB4*%
X153685000Y-89535000D03*
%TO.P,U7116,4,QE*%
%TO.N,/MDB5*%
X156225000Y-89535000D03*
%TO.P,U7116,5,QF*%
%TO.N,/MDB6*%
X158765000Y-89535000D03*
%TO.P,U7116,6,QG*%
%TO.N,/MDB7*%
X161305000Y-89535000D03*
%TO.P,U7116,7,QH*%
%TO.N,/MDB8*%
X163845000Y-89535000D03*
%TO.P,U7116,8,GND*%
%TO.N,GND*%
X166385000Y-89535000D03*
%TO.P,U7116,9,QH'*%
%TO.N,Net-(U7116-Pad9)*%
X166385000Y-81915000D03*
%TO.P,U7116,10,~{SRCLR}*%
%TO.N,VCC*%
X163845000Y-81915000D03*
%TO.P,U7116,11,SRCLK*%
%TO.N,/Data Clock HV*%
X161305000Y-81915000D03*
%TO.P,U7116,12,RCLK*%
%TO.N,Net-(U7110-Pad12)*%
X158765000Y-81915000D03*
%TO.P,U7116,13,~{OE}*%
%TO.N,Net-(U7108-Pad8)*%
X156225000Y-81915000D03*
%TO.P,U7116,14,SER*%
%TO.N,/Data*%
X153685000Y-81915000D03*
%TO.P,U7116,15,QA*%
%TO.N,/MDB1*%
X151145000Y-81915000D03*
%TO.P,U7116,16,VCC*%
%TO.N,VCC*%
X148605000Y-81915000D03*
%TD*%
D14*
%TO.P,U7121,1*%
%TO.N,/Data Clock-*%
X172735000Y-104765000D03*
D16*
%TO.P,U7121,2*%
%TO.N,/Data Clock+*%
X175275000Y-104765000D03*
%TO.P,U7121,3*%
%TO.N,/Data Clock HV*%
X177815000Y-104765000D03*
%TO.P,U7121,4*%
%TO.N,GND*%
X180355000Y-104765000D03*
%TO.P,U7121,5*%
%TO.N,/Data*%
X182895000Y-104765000D03*
%TO.P,U7121,6*%
%TO.N,/Data+*%
X185435000Y-104765000D03*
%TO.P,U7121,7*%
%TO.N,/Data-*%
X187975000Y-104765000D03*
%TO.P,U7121,8,GND*%
%TO.N,GND*%
X190515000Y-104765000D03*
%TO.P,U7121,9*%
%TO.N,/Response-*%
X190515000Y-97145000D03*
%TO.P,U7121,10*%
%TO.N,/Response+*%
X187975000Y-97145000D03*
%TO.P,U7121,11*%
%TO.N,/Response*%
X185435000Y-97145000D03*
%TO.P,U7121,12*%
%TO.N,/Data Clock LV*%
X182895000Y-97145000D03*
%TO.P,U7121,13*%
%TO.N,/Attention*%
X180355000Y-97145000D03*
%TO.P,U7121,14*%
%TO.N,/Attention+*%
X177815000Y-97145000D03*
%TO.P,U7121,15*%
%TO.N,/Attention-*%
X175275000Y-97145000D03*
%TO.P,U7121,16,VCC*%
%TO.N,VCC*%
X172735000Y-97145000D03*
%TD*%
D14*
%TO.P,U7111,1*%
%TO.N,Net-(U7105-Pad13)*%
X123185000Y-104775000D03*
D16*
%TO.P,U7111,2*%
%TO.N,Net-(U7111-Pad2)*%
X125725000Y-104775000D03*
%TO.P,U7111,3*%
%TO.N,/MDB1*%
X128265000Y-104775000D03*
%TO.P,U7111,4*%
%TO.N,Net-(U7108-Pad1)*%
X130805000Y-104775000D03*
%TO.P,U7111,5*%
%TO.N,Net-(U7111-Pad5)*%
X133345000Y-104775000D03*
%TO.P,U7111,6*%
%TO.N,/DRQ3*%
X135885000Y-104775000D03*
%TO.P,U7111,7,GND*%
%TO.N,GND*%
X138425000Y-104775000D03*
%TO.P,U7111,8*%
%TO.N,Net-(U7111-Pad8)*%
X138425000Y-97155000D03*
%TO.P,U7111,9*%
%TO.N,/Command*%
X135885000Y-97155000D03*
%TO.P,U7111,10*%
%TO.N,Net-(U7109-Pad1)*%
X133345000Y-97155000D03*
%TO.P,U7111,11*%
%TO.N,Net-(U7111-Pad11)*%
X130805000Y-97155000D03*
%TO.P,U7111,12*%
%TO.N,Net-(U7110-Pad12)*%
X128265000Y-97155000D03*
%TO.P,U7111,13*%
%TO.N,Net-(U7110-Pad4)*%
X125725000Y-97155000D03*
%TO.P,U7111,14,VCC*%
%TO.N,VCC*%
X123185000Y-97155000D03*
%TD*%
D14*
%TO.P,U7114,1,~{CP}*%
%TO.N,Net-(C7-Pad1)*%
X121280000Y-70475000D03*
D16*
%TO.P,U7114,2,MR*%
%TO.N,GND*%
X123820000Y-70475000D03*
%TO.P,U7114,3,Q6*%
%TO.N,unconnected-(U7114-Pad3)*%
X126360000Y-70475000D03*
%TO.P,U7114,4,Q5*%
%TO.N,unconnected-(U7114-Pad4)*%
X128900000Y-70475000D03*
%TO.P,U7114,5,Q4*%
%TO.N,unconnected-(U7114-Pad5)*%
X131440000Y-70475000D03*
%TO.P,U7114,6,Q3*%
%TO.N,/Data Clock HV*%
X133980000Y-70475000D03*
%TO.P,U7114,7,GND*%
%TO.N,GND*%
X136520000Y-70475000D03*
%TO.P,U7114,8*%
%TO.N,unconnected-(U7114-Pad8)*%
X136520000Y-62855000D03*
%TO.P,U7114,9,Q2*%
%TO.N,unconnected-(U7114-Pad9)*%
X133980000Y-62855000D03*
%TO.P,U7114,10*%
%TO.N,unconnected-(U7114-Pad10)*%
X131440000Y-62855000D03*
%TO.P,U7114,11,Q1*%
%TO.N,unconnected-(U7114-Pad11)*%
X128900000Y-62855000D03*
%TO.P,U7114,12,Q0*%
%TO.N,Net-(U7114-Pad12)*%
X126360000Y-62855000D03*
%TO.P,U7114,13*%
%TO.N,unconnected-(U7114-Pad13)*%
X123820000Y-62855000D03*
%TO.P,U7114,14,VCC*%
%TO.N,VCC*%
X121280000Y-62855000D03*
%TD*%
D14*
%TO.P,U7101,1,A->B*%
%TO.N,Net-(U7101-Pad1)*%
X156210000Y-135255000D03*
D16*
%TO.P,U7101,2,A0*%
%TO.N,/D0*%
X158750000Y-135255000D03*
%TO.P,U7101,3,A1*%
%TO.N,/D1*%
X161290000Y-135255000D03*
%TO.P,U7101,4,A2*%
%TO.N,/D2*%
X163830000Y-135255000D03*
%TO.P,U7101,5,A3*%
%TO.N,/D3*%
X166370000Y-135255000D03*
%TO.P,U7101,6,A4*%
%TO.N,/D4*%
X168910000Y-135255000D03*
%TO.P,U7101,7,A5*%
%TO.N,/D5*%
X171450000Y-135255000D03*
%TO.P,U7101,8,A6*%
%TO.N,/D6*%
X173990000Y-135255000D03*
%TO.P,U7101,9,A7*%
%TO.N,/D7*%
X176530000Y-135255000D03*
%TO.P,U7101,10,GND*%
%TO.N,GND*%
X179070000Y-135255000D03*
%TO.P,U7101,11,B7*%
%TO.N,/MDB1*%
X179070000Y-127635000D03*
%TO.P,U7101,12,B6*%
%TO.N,/MDB2*%
X176530000Y-127635000D03*
%TO.P,U7101,13,B5*%
%TO.N,/MDB3*%
X173990000Y-127635000D03*
%TO.P,U7101,14,B4*%
%TO.N,/MDB4*%
X171450000Y-127635000D03*
%TO.P,U7101,15,B3*%
%TO.N,/MDB5*%
X168910000Y-127635000D03*
%TO.P,U7101,16,B2*%
%TO.N,/MDB6*%
X166370000Y-127635000D03*
%TO.P,U7101,17,B1*%
%TO.N,/MDB7*%
X163830000Y-127635000D03*
%TO.P,U7101,18,B0*%
%TO.N,/MDB8*%
X161290000Y-127635000D03*
%TO.P,U7101,19,CE*%
%TO.N,Net-(U7101-Pad19)*%
X158750000Y-127635000D03*
%TO.P,U7101,20,VCC*%
%TO.N,VCC*%
X156210000Y-127635000D03*
%TD*%
D14*
%TO.P,U7120,1*%
%TO.N,VCC*%
X172735000Y-89535000D03*
D16*
%TO.P,U7120,2*%
%TO.N,unconnected-(U7120-Pad2)*%
X175275000Y-89535000D03*
%TO.P,U7120,3*%
%TO.N,unconnected-(U7120-Pad3)*%
X177815000Y-89535000D03*
%TO.P,U7120,4*%
%TO.N,GND*%
X180355000Y-89535000D03*
%TO.P,U7120,5*%
%TO.N,unconnected-(U7120-Pad5)*%
X182895000Y-89535000D03*
%TO.P,U7120,6*%
%TO.N,unconnected-(U7120-Pad6)*%
X185435000Y-89535000D03*
%TO.P,U7120,7*%
%TO.N,VCC*%
X187975000Y-89535000D03*
%TO.P,U7120,8,GND*%
%TO.N,GND*%
X190515000Y-89535000D03*
%TO.P,U7120,9*%
%TO.N,/Command*%
X190515000Y-81915000D03*
%TO.P,U7120,10*%
%TO.N,/Command+*%
X187975000Y-81915000D03*
%TO.P,U7120,11*%
%TO.N,/Command-*%
X185435000Y-81915000D03*
%TO.P,U7120,12*%
%TO.N,GND*%
X182895000Y-81915000D03*
%TO.P,U7120,13*%
%TO.N,unconnected-(U7120-Pad13)*%
X180355000Y-81915000D03*
%TO.P,U7120,14*%
%TO.N,unconnected-(U7120-Pad14)*%
X177815000Y-81915000D03*
%TO.P,U7120,15*%
%TO.N,VCC*%
X175275000Y-81915000D03*
%TO.P,U7120,16,VCC*%
X172735000Y-81915000D03*
%TD*%
D19*
%TO.P,X2,1,Pin_1*%
%TO.N,Net-(U7104-Pad15)*%
X106690000Y-117480000D03*
D20*
%TO.P,X2,2,Pin_2*%
%TO.N,/Port Selection*%
X106690000Y-114940000D03*
%TO.P,X2,3,Pin_3*%
%TO.N,Net-(U7104-Pad14)*%
X109230000Y-117480000D03*
%TO.P,X2,4,Pin_4*%
%TO.N,/Port Selection*%
X109230000Y-114940000D03*
%TO.P,X2,5,Pin_5*%
%TO.N,Net-(U7104-Pad12)*%
X111770000Y-117480000D03*
%TO.P,X2,6,Pin_6*%
%TO.N,/Port Selection*%
X111770000Y-114940000D03*
%TO.P,X2,7,Pin_7*%
%TO.N,Net-(U7104-Pad11)*%
X114310000Y-117480000D03*
%TO.P,X2,8,Pin_8*%
%TO.N,/Port Selection*%
X114310000Y-114940000D03*
%TD*%
D14*
%TO.P,U7109,1,OEa*%
%TO.N,Net-(U7109-Pad1)*%
X123205000Y-89545000D03*
D16*
%TO.P,U7109,2,I1*%
%TO.N,Net-(U7105-Pad11)*%
X125745000Y-89545000D03*
%TO.P,U7109,3,O1a*%
%TO.N,Net-(U7109-Pad3)*%
X128285000Y-89545000D03*
%TO.P,U7109,4,I2*%
%TO.N,Net-(U7109-Pad4)*%
X130825000Y-89545000D03*
%TO.P,U7109,5,O2a*%
%TO.N,/Data*%
X133365000Y-89545000D03*
%TO.P,U7109,6,I3*%
%TO.N,Net-(U7109-Pad3)*%
X135905000Y-89545000D03*
%TO.P,U7109,7,O3a*%
%TO.N,/Data Clock HV*%
X138445000Y-89545000D03*
%TO.P,U7109,8,GND*%
%TO.N,GND*%
X140985000Y-89545000D03*
%TO.P,U7109,9,O4a*%
%TO.N,/Attention*%
X140985000Y-81925000D03*
%TO.P,U7109,10,I4*%
%TO.N,Net-(U7109-Pad10)*%
X138445000Y-81925000D03*
%TO.P,U7109,11,O5b*%
%TO.N,Net-(U7107-Pad9)*%
X135905000Y-81925000D03*
%TO.P,U7109,12,I5*%
%TO.N,/Attention*%
X133365000Y-81925000D03*
%TO.P,U7109,13,O6b*%
%TO.N,Net-(U7109-Pad13)*%
X130825000Y-81925000D03*
%TO.P,U7109,14,I6*%
%TO.N,Net-(U7105-Pad15)*%
X128285000Y-81925000D03*
%TO.P,U7109,15,OEb*%
%TO.N,GND*%
X125745000Y-81925000D03*
%TO.P,U7109,16,VCC*%
%TO.N,VCC*%
X123205000Y-81925000D03*
%TD*%
D14*
%TO.P,U7115,1,~{CP}*%
%TO.N,Net-(U7107-Pad3)*%
X77470000Y-70475000D03*
D16*
%TO.P,U7115,2,MR*%
%TO.N,Net-(U7109-Pad13)*%
X80010000Y-70475000D03*
%TO.P,U7115,3,Q6*%
%TO.N,Net-(U7109-Pad10)*%
X82550000Y-70475000D03*
%TO.P,U7115,4,Q5*%
%TO.N,Net-(U7110-Pad13)*%
X85090000Y-70475000D03*
%TO.P,U7115,5,Q4*%
%TO.N,unconnected-(U7115-Pad5)*%
X87630000Y-70475000D03*
%TO.P,U7115,6,Q3*%
%TO.N,Net-(U7110-Pad1)*%
X90170000Y-70475000D03*
%TO.P,U7115,7,GND*%
%TO.N,GND*%
X92710000Y-70475000D03*
%TO.P,U7115,8*%
%TO.N,unconnected-(U7115-Pad8)*%
X92710000Y-62855000D03*
%TO.P,U7115,9,Q2*%
%TO.N,Net-(U7115-Pad9)*%
X90170000Y-62855000D03*
%TO.P,U7115,10*%
%TO.N,unconnected-(U7115-Pad10)*%
X87630000Y-62855000D03*
%TO.P,U7115,11,Q1*%
%TO.N,unconnected-(U7115-Pad11)*%
X85090000Y-62855000D03*
%TO.P,U7115,12,Q0*%
%TO.N,Net-(U7109-Pad4)*%
X82550000Y-62855000D03*
%TO.P,U7115,13*%
%TO.N,unconnected-(U7115-Pad13)*%
X80010000Y-62855000D03*
%TO.P,U7115,14,VCC*%
%TO.N,VCC*%
X77470000Y-62855000D03*
%TD*%
D21*
%TO.P,X-TAL1,1,1*%
%TO.N,Net-(C6-Pad2)*%
X106680000Y-74295000D03*
%TO.P,X-TAL1,2,2*%
%TO.N,Net-(C5-Pad2)*%
X102880000Y-74295000D03*
%TD*%
D14*
%TO.P,U7117,1,QB*%
%TO.N,/MDB2*%
X148605000Y-104765000D03*
D16*
%TO.P,U7117,2,QC*%
%TO.N,/MDB3*%
X151145000Y-104765000D03*
%TO.P,U7117,3,QD*%
%TO.N,/MDB4*%
X153685000Y-104765000D03*
%TO.P,U7117,4,QE*%
%TO.N,/MDB5*%
X156225000Y-104765000D03*
%TO.P,U7117,5,QF*%
%TO.N,/MDB6*%
X158765000Y-104765000D03*
%TO.P,U7117,6,QG*%
%TO.N,/MDB7*%
X161305000Y-104765000D03*
%TO.P,U7117,7,QH*%
%TO.N,/MDB8*%
X163845000Y-104765000D03*
%TO.P,U7117,8,GND*%
%TO.N,GND*%
X166385000Y-104765000D03*
%TO.P,U7117,9,QH'*%
%TO.N,unconnected-(U7117-Pad9)*%
X166385000Y-97145000D03*
%TO.P,U7117,10,~{SRCLR}*%
%TO.N,VCC*%
X163845000Y-97145000D03*
%TO.P,U7117,11,SRCLK*%
%TO.N,/Data Clock HV*%
X161305000Y-97145000D03*
%TO.P,U7117,12,RCLK*%
%TO.N,Net-(U7110-Pad12)*%
X158765000Y-97145000D03*
%TO.P,U7117,13,~{OE}*%
%TO.N,Net-(U7108-Pad11)*%
X156225000Y-97145000D03*
%TO.P,U7117,14,SER*%
%TO.N,Net-(U7116-Pad9)*%
X153685000Y-97145000D03*
%TO.P,U7117,15,QA*%
%TO.N,/MDB1*%
X151145000Y-97145000D03*
%TO.P,U7117,16,VCC*%
%TO.N,VCC*%
X148605000Y-97145000D03*
%TD*%
D14*
%TO.P,U7118,1,QB*%
%TO.N,/MDB2*%
X148605000Y-120005000D03*
D16*
%TO.P,U7118,2,QC*%
%TO.N,/MDB3*%
X151145000Y-120005000D03*
%TO.P,U7118,3,QD*%
%TO.N,/MDB4*%
X153685000Y-120005000D03*
%TO.P,U7118,4,QE*%
%TO.N,/MDB5*%
X156225000Y-120005000D03*
%TO.P,U7118,5,QF*%
%TO.N,/MDB6*%
X158765000Y-120005000D03*
%TO.P,U7118,6,QG*%
%TO.N,/MDB7*%
X161305000Y-120005000D03*
%TO.P,U7118,7,QH*%
%TO.N,/MDB8*%
X163845000Y-120005000D03*
%TO.P,U7118,8,GND*%
%TO.N,GND*%
X166385000Y-120005000D03*
%TO.P,U7118,9,QH'*%
%TO.N,unconnected-(U7118-Pad9)*%
X166385000Y-112385000D03*
%TO.P,U7118,10,~{SRCLR}*%
%TO.N,VCC*%
X163845000Y-112385000D03*
%TO.P,U7118,11,SRCLK*%
%TO.N,Net-(U7115-Pad9)*%
X161305000Y-112385000D03*
%TO.P,U7118,12,RCLK*%
%TO.N,Net-(U7110-Pad12)*%
X158765000Y-112385000D03*
%TO.P,U7118,13,~{OE}*%
%TO.N,Net-(U7105-Pad12)*%
X156225000Y-112385000D03*
%TO.P,U7118,14,SER*%
%TO.N,/Attention*%
X153685000Y-112385000D03*
%TO.P,U7118,15,QA*%
%TO.N,/MDB1*%
X151145000Y-112385000D03*
%TO.P,U7118,16,VCC*%
%TO.N,VCC*%
X148605000Y-112385000D03*
%TD*%
D19*
%TO.P,X5,1,Pin_1*%
%TO.N,/Response*%
X198120000Y-59055000D03*
D20*
%TO.P,X5,2,Pin_2*%
%TO.N,GND*%
X200660000Y-59055000D03*
%TO.P,X5,3,Pin_3*%
%TO.N,/Command*%
X198120000Y-61595000D03*
%TO.P,X5,4,Pin_4*%
%TO.N,GND*%
X200660000Y-61595000D03*
%TO.P,X5,5,Pin_5*%
%TO.N,/Data*%
X198120000Y-64135000D03*
%TO.P,X5,6,Pin_6*%
%TO.N,unconnected-(X5-Pad6)*%
X200660000Y-64135000D03*
%TO.P,X5,7,Pin_7*%
%TO.N,/Data Clock LV*%
X198120000Y-66675000D03*
%TO.P,X5,8,Pin_8*%
%TO.N,unconnected-(X5-Pad8)*%
X200660000Y-66675000D03*
%TO.P,X5,9,Pin_9*%
%TO.N,/Attention*%
X198120000Y-69215000D03*
%TO.P,X5,10,Pin_10*%
%TO.N,unconnected-(X5-Pad10)*%
X200660000Y-69215000D03*
%TO.P,X5,11,Pin_11*%
%TO.N,unconnected-(X5-Pad11)*%
X198120000Y-71755000D03*
%TO.P,X5,12,Pin_12*%
%TO.N,unconnected-(X5-Pad12)*%
X200660000Y-71755000D03*
%TO.P,X5,13,Pin_13*%
%TO.N,unconnected-(X5-Pad13)*%
X198120000Y-74295000D03*
%TO.P,X5,14,Pin_14*%
%TO.N,unconnected-(X5-Pad14)*%
X200660000Y-74295000D03*
%TO.P,X5,15,Pin_15*%
%TO.N,GND*%
X198120000Y-76835000D03*
%TO.P,X5,16,Pin_16*%
X200660000Y-76835000D03*
%TD*%
D11*
%TO.P,HOLE2,1*%
%TO.N,GND*%
X76407944Y-55452944D03*
D12*
X78105000Y-57150000D03*
D11*
X80505000Y-57150000D03*
X79802056Y-55452944D03*
X75705000Y-57150000D03*
X76407944Y-58847056D03*
X78105000Y-59550000D03*
X79802056Y-58847056D03*
X78105000Y-54750000D03*
%TD*%
D14*
%TO.P,U7106,1*%
%TO.N,Net-(U7106-Pad1)*%
X123185000Y-120005000D03*
D16*
%TO.P,U7106,2*%
%TO.N,Net-(U7106-Pad2)*%
X125725000Y-120005000D03*
%TO.P,U7106,3*%
%TO.N,Net-(U7101-Pad19)*%
X128265000Y-120005000D03*
%TO.P,U7106,4*%
%TO.N,Net-(U7101-Pad1)*%
X130805000Y-120005000D03*
%TO.P,U7106,5*%
%TO.N,Net-(U7102-Pad12)*%
X133345000Y-120005000D03*
%TO.P,U7106,6*%
%TO.N,Net-(U7105-Pad4)*%
X135885000Y-120005000D03*
%TO.P,U7106,7,GND*%
%TO.N,GND*%
X138425000Y-120005000D03*
%TO.P,U7106,8*%
%TO.N,Net-(U7104-Pad6)*%
X138425000Y-112385000D03*
%TO.P,U7106,9*%
%TO.N,Net-(U7102-Pad16)*%
X135885000Y-112385000D03*
%TO.P,U7106,10*%
%TO.N,Net-(U7102-Pad3)*%
X133345000Y-112385000D03*
%TO.P,U7106,11*%
%TO.N,Net-(U7106-Pad11)*%
X130805000Y-112385000D03*
%TO.P,U7106,12*%
%TO.N,Net-(U7105-Pad15)*%
X128265000Y-112385000D03*
%TO.P,U7106,13*%
%TO.N,Net-(U7106-Pad13)*%
X125725000Y-112385000D03*
%TO.P,U7106,14,VCC*%
%TO.N,VCC*%
X123185000Y-112385000D03*
%TD*%
D14*
%TO.P,U7119,1,D2*%
%TO.N,/MDB6*%
X158100000Y-74300000D03*
D16*
%TO.P,U7119,2,D3*%
%TO.N,/MDB5*%
X160640000Y-74300000D03*
%TO.P,U7119,3,RXD*%
%TO.N,Net-(U7111-Pad8)*%
X163180000Y-74300000D03*
%TO.P,U7119,4,GND*%
%TO.N,GND*%
X165720000Y-74300000D03*
%TO.P,U7119,5,D4*%
%TO.N,/MDB4*%
X168260000Y-74300000D03*
%TO.P,U7119,6,D5*%
%TO.N,/MDB3*%
X170800000Y-74300000D03*
%TO.P,U7119,7,D6*%
%TO.N,/MDB2*%
X173340000Y-74300000D03*
%TO.P,U7119,8,D7*%
%TO.N,/MDB1*%
X175880000Y-74300000D03*
%TO.P,U7119,9,~{TXC}*%
%TO.N,/Data Clock LV*%
X178420000Y-74300000D03*
%TO.P,U7119,10,~{WR}*%
%TO.N,Net-(U7102-Pad12)*%
X180960000Y-74300000D03*
%TO.P,U7119,11,~{CS}*%
%TO.N,Net-(U7105-Pad14)*%
X183500000Y-74300000D03*
%TO.P,U7119,12,C/~{D}*%
%TO.N,Net-(U7102-Pad18)*%
X186040000Y-74300000D03*
%TO.P,U7119,13,~{RD}*%
%TO.N,Net-(U7101-Pad1)*%
X188580000Y-74300000D03*
%TO.P,U7119,14,RXRDY*%
%TO.N,unconnected-(U7119-Pad14)*%
X191120000Y-74300000D03*
%TO.P,U7119,15,TXRDY*%
%TO.N,unconnected-(U7119-Pad15)*%
X191120000Y-59060000D03*
%TO.P,U7119,16,SYNDET*%
%TO.N,unconnected-(U7119-Pad16)*%
X188580000Y-59060000D03*
%TO.P,U7119,17,~{CTS}*%
%TO.N,GND*%
X186040000Y-59060000D03*
%TO.P,U7119,18,TXE*%
%TO.N,unconnected-(U7119-Pad18)*%
X183500000Y-59060000D03*
%TO.P,U7119,19,TXD*%
%TO.N,/Command*%
X180960000Y-59060000D03*
%TO.P,U7119,20,CLK*%
%TO.N,Net-(U7114-Pad12)*%
X178420000Y-59060000D03*
%TO.P,U7119,21,RESET*%
%TO.N,/RESETDRV*%
X175880000Y-59060000D03*
%TO.P,U7119,22,~{DSR}*%
%TO.N,/Attention*%
X173340000Y-59060000D03*
%TO.P,U7119,23,~{RTS}*%
%TO.N,Net-(U7107-Pad12)*%
X170800000Y-59060000D03*
%TO.P,U7119,24,~{DTR}*%
%TO.N,Net-(U7108-Pad1)*%
X168260000Y-59060000D03*
%TO.P,U7119,25,~{RXC}*%
%TO.N,/Data Clock LV*%
X165720000Y-59060000D03*
%TO.P,U7119,26,Vcc*%
%TO.N,VCC*%
X163180000Y-59060000D03*
%TO.P,U7119,27,D0*%
%TO.N,/MDB8*%
X160640000Y-59060000D03*
%TO.P,U7119,28,D1*%
%TO.N,/MDB7*%
X158100000Y-59060000D03*
%TD*%
D14*
%TO.P,U7110,1*%
%TO.N,Net-(U7110-Pad1)*%
X100325000Y-89525000D03*
D16*
%TO.P,U7110,2*%
%TO.N,Net-(U7110-Pad2)*%
X102865000Y-89525000D03*
%TO.P,U7110,3*%
%TO.N,Net-(U7107-Pad12)*%
X105405000Y-89525000D03*
%TO.P,U7110,4*%
%TO.N,Net-(U7110-Pad4)*%
X107945000Y-89525000D03*
%TO.P,U7110,5*%
%TO.N,Net-(U7108-Pad1)*%
X110485000Y-89525000D03*
%TO.P,U7110,6*%
%TO.N,Net-(U7109-Pad1)*%
X113025000Y-89525000D03*
%TO.P,U7110,7,GND*%
%TO.N,GND*%
X115565000Y-89525000D03*
%TO.P,U7110,8*%
%TO.N,Net-(R3-Pad2)*%
X115565000Y-81905000D03*
%TO.P,U7110,9*%
%TO.N,Net-(C6-Pad2)*%
X113025000Y-81905000D03*
%TO.P,U7110,10*%
X110485000Y-81905000D03*
%TO.P,U7110,11*%
%TO.N,Net-(C5-Pad2)*%
X107945000Y-81905000D03*
%TO.P,U7110,12*%
%TO.N,Net-(U7110-Pad12)*%
X105405000Y-81905000D03*
%TO.P,U7110,13*%
%TO.N,Net-(U7110-Pad13)*%
X102865000Y-81905000D03*
%TO.P,U7110,14,VCC*%
%TO.N,VCC*%
X100325000Y-81905000D03*
%TD*%
D14*
%TO.P,U7107,1*%
%TO.N,/Data Clock HV*%
X77465000Y-120005000D03*
D16*
%TO.P,U7107,2*%
%TO.N,Net-(U7107-Pad13)*%
X80005000Y-120005000D03*
%TO.P,U7107,3*%
%TO.N,Net-(U7107-Pad3)*%
X82545000Y-120005000D03*
%TO.P,U7107,4*%
%TO.N,Net-(U7105-Pad4)*%
X85085000Y-120005000D03*
%TO.P,U7107,5*%
%TO.N,/Port Selection*%
X87625000Y-120005000D03*
%TO.P,U7107,6*%
%TO.N,Net-(U7106-Pad1)*%
X90165000Y-120005000D03*
%TO.P,U7107,7,GND*%
%TO.N,GND*%
X92705000Y-120005000D03*
%TO.P,U7107,8*%
%TO.N,Net-(U7107-Pad8)*%
X92705000Y-112385000D03*
%TO.P,U7107,9*%
%TO.N,Net-(U7107-Pad9)*%
X90165000Y-112385000D03*
%TO.P,U7107,10*%
%TO.N,Net-(U7107-Pad10)*%
X87625000Y-112385000D03*
%TO.P,U7107,11*%
X85085000Y-112385000D03*
%TO.P,U7107,12*%
%TO.N,Net-(U7107-Pad12)*%
X82545000Y-112385000D03*
%TO.P,U7107,13*%
%TO.N,Net-(U7107-Pad13)*%
X80005000Y-112385000D03*
%TO.P,U7107,14,VCC*%
%TO.N,VCC*%
X77465000Y-112385000D03*
%TD*%
D22*
%TO.N,/A0*%
X106680000Y-140335000D03*
%TO.N,/A1*%
X109220000Y-132080000D03*
X109220000Y-139889500D03*
%TO.N,/A3*%
X119380000Y-126365000D03*
X114935000Y-139700000D03*
X101600000Y-126365000D03*
%TO.N,/A8*%
X131445000Y-137160000D03*
%TO.N,/AEN*%
X157480000Y-125730000D03*
X157480000Y-137160000D03*
%TO.N,/~{IOW}*%
X152400000Y-137795000D03*
X146050000Y-137795000D03*
%TO.N,GND*%
X193675000Y-102870000D03*
X125730000Y-87630000D03*
X106680000Y-87630000D03*
X185966834Y-68491834D03*
X193675000Y-87630000D03*
X165646834Y-68491834D03*
X193675000Y-76835000D03*
X193675000Y-118110000D03*
X193675000Y-68580000D03*
X193675000Y-133350000D03*
X130810000Y-133350000D03*
D23*
%TO.N,VCC*%
X180975000Y-129540000D03*
D22*
X73660000Y-99060000D03*
D23*
X85090000Y-83820000D03*
D22*
X73660000Y-64770000D03*
X73660000Y-114300000D03*
X73660000Y-129540000D03*
D23*
X90170000Y-129540000D03*
X163195000Y-61595000D03*
D22*
X73660000Y-83820000D03*
%TO.N,/RESETDRV*%
X179070000Y-94615000D03*
X182880000Y-137795000D03*
X169545000Y-97155000D03*
X179070000Y-137795000D03*
%TO.N,Net-(U7101-Pad1)*%
X144780000Y-121920000D03*
X132080000Y-109220000D03*
X85090000Y-109220000D03*
%TO.N,/MDB1*%
X151130000Y-74930000D03*
X151130000Y-100965000D03*
X151765000Y-131445000D03*
X179070000Y-131445000D03*
X128905000Y-100965000D03*
%TO.N,/MDB2*%
X147320000Y-76200000D03*
X176530000Y-111125000D03*
X160655000Y-110490000D03*
X160020000Y-106680000D03*
%TO.N,/MDB3*%
X171450000Y-94615000D03*
X151130000Y-124460000D03*
X149860000Y-95885000D03*
%TO.N,/MDB4*%
X168275000Y-97155000D03*
X152414999Y-96499782D03*
X154940000Y-132080000D03*
X171450000Y-132080000D03*
%TO.N,/MDB5*%
X154940000Y-73660000D03*
X167005000Y-121920000D03*
%TO.N,/MDB6*%
X159385000Y-123190000D03*
X165100000Y-123190000D03*
%TO.N,/MDB7*%
X161290000Y-125730000D03*
%TO.N,/MDB8*%
X169545000Y-91440000D03*
X169545000Y-63500000D03*
X160655000Y-63500000D03*
%TO.N,Net-(U7101-Pad19)*%
X157480000Y-123190000D03*
%TO.N,Net-(U7102-Pad9)*%
X113665000Y-132080000D03*
X148590000Y-132080000D03*
%TO.N,Net-(U7102-Pad12)*%
X133350000Y-123190000D03*
X146685000Y-123190000D03*
X146685000Y-116205000D03*
X173990000Y-116205000D03*
%TO.N,Net-(U7102-Pad14)*%
X88900000Y-130810000D03*
X143510000Y-130810000D03*
%TO.N,Net-(U7102-Pad16)*%
X142875000Y-111760000D03*
%TO.N,Net-(U7102-Pad18)*%
X137160000Y-73660000D03*
%TO.N,Net-(U7104-Pad6)*%
X138430000Y-116205000D03*
X116840000Y-116205000D03*
%TO.N,Net-(U7105-Pad4)*%
X135890000Y-125095000D03*
X83820000Y-125095000D03*
%TO.N,Net-(U7105-Pad11)*%
X91440000Y-93345000D03*
X125730000Y-92710000D03*
%TO.N,Net-(U7105-Pad12)*%
X100330000Y-126365000D03*
X100330000Y-110490000D03*
%TO.N,Net-(U7105-Pad13)*%
X121285000Y-123825000D03*
X86360000Y-123190000D03*
%TO.N,Net-(U7105-Pad14)*%
X95250000Y-123190000D03*
%TO.N,Net-(U7105-Pad15)*%
X110490000Y-94615000D03*
X110490000Y-101600000D03*
X127000000Y-100965000D03*
%TO.N,Net-(U7106-Pad2)*%
X124460000Y-109665500D03*
X82550000Y-109855000D03*
%TO.N,Net-(U7106-Pad11)*%
X76200000Y-100330000D03*
%TO.N,Net-(U7106-Pad13)*%
X108585000Y-101600000D03*
X125730000Y-106680000D03*
X109220000Y-106680000D03*
X90170000Y-100330000D03*
%TO.N,/Data Clock HV*%
X101600000Y-90805000D03*
X162560000Y-91440000D03*
X101600000Y-116840000D03*
X107950564Y-90949492D03*
X162560000Y-106680000D03*
%TO.N,Net-(U7107-Pad13)*%
X113030000Y-100965000D03*
X80010000Y-116840000D03*
X97155000Y-100965000D03*
X97155000Y-116840000D03*
%TO.N,Net-(U7107-Pad8)*%
X92710000Y-106680000D03*
%TO.N,Net-(U7107-Pad9)*%
X135890000Y-73025000D03*
X88900000Y-73025000D03*
%TO.N,Net-(U7107-Pad12)*%
X83820000Y-93980000D03*
X104140000Y-94615000D03*
%TO.N,Net-(U7108-Pad1)*%
X132080000Y-74930000D03*
X77470000Y-107950000D03*
X111760000Y-107770980D03*
X153670000Y-64770000D03*
X153670000Y-72579500D03*
%TO.N,Net-(U7108-Pad11)*%
X157480000Y-107125500D03*
X96520000Y-92075000D03*
X99060000Y-123190000D03*
X98425000Y-105410000D03*
X85090000Y-93345000D03*
X132080000Y-106680000D03*
X95885000Y-105410000D03*
X125730000Y-123190000D03*
%TO.N,Net-(U7108-Pad13)*%
X80010000Y-92075000D03*
X87630000Y-92075000D03*
%TO.N,Net-(U7109-Pad1)*%
X123190000Y-94615000D03*
%TO.N,Net-(U7109-Pad4)*%
X134620000Y-73660000D03*
X130810000Y-92710000D03*
X87630000Y-75565000D03*
X134620000Y-92710000D03*
%TO.N,/Data*%
X133350000Y-85725000D03*
X181610000Y-85725000D03*
X182245000Y-64135000D03*
X153670000Y-85725000D03*
%TO.N,/Attention*%
X146050000Y-111760000D03*
%TO.N,Net-(U7109-Pad10)*%
X138430000Y-71755000D03*
%TO.N,Net-(U7110-Pad1)*%
X97155000Y-66675000D03*
%TO.N,Net-(U7110-Pad2)*%
X86360000Y-85725000D03*
X102870000Y-85725000D03*
%TO.N,Net-(U7110-Pad4)*%
X125095000Y-93980000D03*
X109220000Y-93980000D03*
%TO.N,Net-(U7110-Pad12)*%
X152400000Y-80645000D03*
X152400000Y-77470000D03*
X105410000Y-78740000D03*
X143510000Y-109220000D03*
X143510000Y-76200000D03*
X117475000Y-77470000D03*
X104775000Y-85725000D03*
X127000000Y-85725000D03*
%TO.N,Net-(U7110-Pad13)*%
X85090000Y-77470000D03*
X104140000Y-77470000D03*
%TO.N,Net-(U7111-Pad5)*%
X91440000Y-90805000D03*
X134620000Y-94615000D03*
%TO.N,Net-(U7111-Pad8)*%
X142240000Y-80010000D03*
%TO.N,Net-(U7111-Pad11)*%
X106680000Y-95885000D03*
%TO.N,Net-(U7116-Pad9)*%
X165100000Y-107950000D03*
X154940000Y-107950000D03*
%TD*%
D24*
%TO.N,/A0*%
X123825000Y-137160000D02*
X129540000Y-137160000D01*
X129540000Y-135890000D02*
X130175000Y-135255000D01*
X122916020Y-141243980D02*
X123825000Y-140335000D01*
X106680000Y-140335000D02*
X107588980Y-141243980D01*
X130175000Y-135255000D02*
X130810000Y-135255000D01*
X107588980Y-141243980D02*
X122916020Y-141243980D01*
X129540000Y-137160000D02*
X129540000Y-135890000D01*
X123825000Y-140335000D02*
X123825000Y-137160000D01*
%TO.N,/A1*%
X109220000Y-139889500D02*
X109220000Y-132080000D01*
%TO.N,/A3*%
X82550000Y-137160000D02*
X82565000Y-137145000D01*
X101600000Y-126365000D02*
X101600000Y-137160000D01*
X82565000Y-137145000D02*
X82565000Y-135245000D01*
X119380000Y-136525000D02*
X119380000Y-126365000D01*
X101600000Y-137160000D02*
X82550000Y-137160000D01*
X114935000Y-139700000D02*
X114935000Y-136525000D01*
X114935000Y-136525000D02*
X119380000Y-136525000D01*
%TO.N,/A8*%
X134620000Y-137160000D02*
X134620000Y-127635000D01*
X131445000Y-137160000D02*
X134620000Y-137160000D01*
X134620000Y-127635000D02*
X135890000Y-127635000D01*
D25*
%TO.N,/AEN*%
X157480000Y-137160000D02*
X157480000Y-125730000D01*
D24*
%TO.N,/DRQ3*%
X137795000Y-140970000D02*
X137160000Y-140335000D01*
X135890000Y-104775000D02*
X135250000Y-104775000D01*
X137160000Y-106045000D02*
X137155000Y-106045000D01*
X137160000Y-140335000D02*
X137160000Y-106045000D01*
X147320000Y-141605000D02*
X146685000Y-140970000D01*
X147320000Y-145732500D02*
X147320000Y-141605000D01*
X137155000Y-106045000D02*
X135885000Y-104775000D01*
X146685000Y-140970000D02*
X137795000Y-140970000D01*
%TO.N,/~{DACK3}*%
X140970000Y-139700000D02*
X140970000Y-135255000D01*
X149860000Y-140335000D02*
X149225000Y-139700000D01*
X149225000Y-139700000D02*
X140970000Y-139700000D01*
X149860000Y-145732500D02*
X149860000Y-140335000D01*
%TO.N,/~{IOR}*%
X151765000Y-139065000D02*
X147955000Y-139065000D01*
X152400000Y-139700000D02*
X151765000Y-139065000D01*
X146050000Y-129540000D02*
X146050000Y-127635000D01*
X147274511Y-138384511D02*
X147274511Y-130855489D01*
X147320000Y-130810000D02*
X146050000Y-129540000D01*
X152400000Y-145732500D02*
X152400000Y-139700000D01*
X147274511Y-130855489D02*
X147320000Y-130810000D01*
X147955000Y-139065000D02*
X147274511Y-138384511D01*
%TO.N,/~{IOW}*%
X154305000Y-137795000D02*
X152400000Y-137795000D01*
X154940000Y-138430000D02*
X154305000Y-137795000D01*
X154940000Y-145732500D02*
X154940000Y-138430000D01*
X146050000Y-137795000D02*
X146050000Y-135255000D01*
D26*
%TO.N,GND*%
X206375000Y-61595000D02*
X200660000Y-61595000D01*
X185420000Y-142240000D02*
X185420000Y-145732500D01*
D24*
X186040000Y-68418668D02*
X185966834Y-68491834D01*
D26*
X189865000Y-140970000D02*
X186690000Y-140970000D01*
D24*
X186040000Y-59060000D02*
X186040000Y-68418668D01*
D26*
X193675000Y-118745000D02*
X193675000Y-118110000D01*
X193675000Y-68580000D02*
X193675000Y-68491834D01*
X206375000Y-66675000D02*
X206375000Y-61595000D01*
D25*
X105405000Y-93985000D02*
X106680000Y-92710000D01*
D26*
X193675000Y-135890000D02*
X189865000Y-135890000D01*
X193675000Y-102870000D02*
X193675000Y-87630000D01*
D24*
X130810000Y-127635000D02*
X130810000Y-133350000D01*
D26*
X206375000Y-66675000D02*
X206375000Y-76835000D01*
D25*
X106680000Y-92710000D02*
X106680000Y-87630000D01*
D26*
X189865000Y-135890000D02*
X189865000Y-140970000D01*
X186690000Y-140970000D02*
X185420000Y-142240000D01*
D24*
X165720000Y-68565000D02*
X165646834Y-68491834D01*
D26*
X193675000Y-87630000D02*
X193675000Y-76835000D01*
X193675000Y-118110000D02*
X193675000Y-102870000D01*
X193675000Y-133350000D02*
X193675000Y-135890000D01*
D25*
X125745000Y-81925000D02*
X125745000Y-87615000D01*
D26*
X193675000Y-118745000D02*
X193675000Y-133350000D01*
D25*
X125745000Y-87615000D02*
X125730000Y-87630000D01*
D26*
X193675000Y-76835000D02*
X193675000Y-68580000D01*
D24*
X165720000Y-74300000D02*
X165720000Y-68565000D01*
D25*
X105405000Y-97145000D02*
X105405000Y-93985000D01*
D26*
X206375000Y-76835000D02*
X200660000Y-76835000D01*
D24*
%TO.N,VCC*%
X90185000Y-129555000D02*
X90170000Y-129540000D01*
D26*
X180340000Y-141605000D02*
X180975000Y-140970000D01*
X73660000Y-83820000D02*
X73660000Y-99060000D01*
X73660000Y-64770000D02*
X73660000Y-83820000D01*
D24*
X90185000Y-135245000D02*
X90185000Y-129555000D01*
D26*
X180340000Y-145732500D02*
X180340000Y-141605000D01*
X73660000Y-129540000D02*
X73660000Y-114300000D01*
D25*
X85085000Y-83825000D02*
X85090000Y-83820000D01*
D26*
X73660000Y-114300000D02*
X73660000Y-99060000D01*
X180975000Y-140970000D02*
X180975000Y-129540000D01*
D24*
X163180000Y-61580000D02*
X163195000Y-61595000D01*
X163180000Y-59060000D02*
X163180000Y-61580000D01*
D25*
X85085000Y-89525000D02*
X85085000Y-83825000D01*
D24*
%TO.N,/RESETDRV*%
X168275000Y-105410000D02*
X169545000Y-104140000D01*
X170180000Y-126365000D02*
X168275000Y-124460000D01*
X177800000Y-75565000D02*
X177165000Y-74930000D01*
X179070000Y-94615000D02*
X179070000Y-80645000D01*
X168275000Y-124460000D02*
X168275000Y-115570000D01*
X177165000Y-74930000D02*
X177165000Y-71755000D01*
X177800000Y-79375000D02*
X177800000Y-75565000D01*
X169545000Y-104140000D02*
X169545000Y-97155000D01*
X182880000Y-145732500D02*
X182880000Y-137795000D01*
X179070000Y-80645000D02*
X177800000Y-79375000D01*
X179070000Y-137795000D02*
X170180000Y-137795000D01*
X177165000Y-71755000D02*
X175880000Y-70470000D01*
X175880000Y-70470000D02*
X175880000Y-59060000D01*
X168275000Y-115570000D02*
X168275000Y-105410000D01*
X170180000Y-137795000D02*
X170180000Y-126365000D01*
D27*
%TO.N,unconnected-(BUS1-Pad9)*%
X165100000Y-142875000D02*
X165100000Y-145732500D01*
D24*
%TO.N,Net-(R1-Pad2)*%
X102865000Y-99065000D02*
X102870000Y-99060000D01*
X102870000Y-99060000D02*
X105410000Y-99060000D01*
X102865000Y-104765000D02*
X102865000Y-99065000D01*
%TO.N,Net-(U7101-Pad1)*%
X143510000Y-133985000D02*
X144780000Y-132715000D01*
X130805000Y-115575000D02*
X130810000Y-115570000D01*
X130805000Y-120005000D02*
X130805000Y-115575000D01*
X85090000Y-109220000D02*
X85085000Y-109215000D01*
X132080000Y-114300000D02*
X132080000Y-109220000D01*
X144780000Y-132715000D02*
X144780000Y-121920000D01*
X130810000Y-115570000D02*
X132080000Y-114300000D01*
X85085000Y-109215000D02*
X85085000Y-104765000D01*
X143510000Y-135255000D02*
X143510000Y-133985000D01*
%TO.N,/MDB1*%
X151130000Y-115570000D02*
X152400000Y-116840000D01*
X151130000Y-100965000D02*
X151145000Y-100950000D01*
X151130000Y-83185000D02*
X151145000Y-83170000D01*
X151145000Y-112385000D02*
X151145000Y-115555000D01*
X128265000Y-103510000D02*
X128270000Y-103505000D01*
X152400000Y-93345000D02*
X152400000Y-84455000D01*
X151130000Y-109855000D02*
X152400000Y-108585000D01*
X179070000Y-127635000D02*
X179070000Y-131445000D01*
X128270000Y-103505000D02*
X128905000Y-102870000D01*
X151145000Y-83170000D02*
X151145000Y-81915000D01*
X151145000Y-100950000D02*
X151145000Y-97145000D01*
X151145000Y-81915000D02*
X151145000Y-74945000D01*
X152400000Y-84455000D02*
X151130000Y-83185000D01*
X152400000Y-108585000D02*
X152400000Y-102235000D01*
X151145000Y-74945000D02*
X151130000Y-74930000D01*
X151145000Y-115555000D02*
X151130000Y-115570000D01*
X151765000Y-130175000D02*
X151765000Y-131445000D01*
X151145000Y-112385000D02*
X151145000Y-109870000D01*
X128265000Y-104775000D02*
X128265000Y-103510000D01*
X151145000Y-97145000D02*
X151145000Y-94630000D01*
X128905000Y-102870000D02*
X128905000Y-100965000D01*
X152400000Y-129540000D02*
X151765000Y-130175000D01*
X151145000Y-109870000D02*
X151130000Y-109855000D01*
X152400000Y-116840000D02*
X152400000Y-129540000D01*
X151145000Y-94630000D02*
X151130000Y-94615000D01*
X152400000Y-102235000D02*
X151130000Y-100965000D01*
X151130000Y-94615000D02*
X152400000Y-93345000D01*
%TO.N,/MDB2*%
X160020000Y-106680000D02*
X160020000Y-109855000D01*
X176530000Y-111125000D02*
X176530000Y-123825000D01*
X177165000Y-124460000D02*
X177165000Y-127000000D01*
X147320000Y-89535000D02*
X148605000Y-89535000D01*
X148605000Y-104765000D02*
X148605000Y-101615000D01*
X147320000Y-104775000D02*
X147330000Y-104765000D01*
X177165000Y-127000000D02*
X176530000Y-127635000D01*
X147330000Y-104765000D02*
X148605000Y-104765000D01*
X148605000Y-115585000D02*
X147320000Y-114300000D01*
X148605000Y-101615000D02*
X147320000Y-100330000D01*
X147320000Y-76200000D02*
X147320000Y-89535000D01*
X147320000Y-100330000D02*
X147320000Y-89535000D01*
X160020000Y-109855000D02*
X160655000Y-110490000D01*
X148605000Y-120005000D02*
X148605000Y-115585000D01*
X147320000Y-114300000D02*
X147320000Y-104775000D01*
X176530000Y-123825000D02*
X177165000Y-124460000D01*
%TO.N,/MDB3*%
X151145000Y-108570000D02*
X151145000Y-104765000D01*
X149860000Y-95885000D02*
X149860000Y-92710000D01*
X149860000Y-109855000D02*
X151145000Y-108570000D01*
X149860000Y-115570000D02*
X149860000Y-109855000D01*
X171450000Y-74950000D02*
X170800000Y-74300000D01*
X149860000Y-103505000D02*
X149860000Y-95885000D01*
X151145000Y-120005000D02*
X151145000Y-116855000D01*
X149885000Y-103505000D02*
X149860000Y-103505000D01*
X151145000Y-116855000D02*
X149860000Y-115570000D01*
X149860000Y-92710000D02*
X151145000Y-91425000D01*
X151145000Y-91425000D02*
X151145000Y-89535000D01*
X151145000Y-104765000D02*
X149885000Y-103505000D01*
X171450000Y-94615000D02*
X171450000Y-74950000D01*
X151145000Y-120005000D02*
X151145000Y-124445000D01*
X151145000Y-124445000D02*
X151130000Y-124460000D01*
%TO.N,/MDB4*%
X153685000Y-120005000D02*
X153685000Y-131430000D01*
X152369511Y-109885489D02*
X153685000Y-108570000D01*
X153685000Y-108570000D02*
X153685000Y-104765000D01*
X153685000Y-131430000D02*
X154925000Y-131430000D01*
X154925000Y-131430000D02*
X154940000Y-131445000D01*
X153685000Y-131430000D02*
X153670000Y-131445000D01*
X152400000Y-100965000D02*
X152400000Y-96514781D01*
X153685000Y-93330000D02*
X153685000Y-89535000D01*
X152400000Y-94615000D02*
X153685000Y-93330000D01*
X153685000Y-120005000D02*
X153685000Y-116855000D01*
X171450000Y-132080000D02*
X171450000Y-127635000D01*
X152414999Y-96499782D02*
X152414999Y-94629999D01*
X168275000Y-97155000D02*
X168275000Y-78105000D01*
X153685000Y-104765000D02*
X153685000Y-102250000D01*
X152400000Y-96514781D02*
X152414999Y-96499782D01*
X154940000Y-131445000D02*
X154940000Y-132080000D01*
X153685000Y-116855000D02*
X152369511Y-115539511D01*
X153670000Y-102235000D02*
X152400000Y-100965000D01*
X152369511Y-115539511D02*
X152369511Y-109885489D01*
X152414999Y-94629999D02*
X152400000Y-94615000D01*
X153685000Y-102250000D02*
X153670000Y-102235000D01*
%TO.N,/MDB5*%
X156225000Y-104765000D02*
X156225000Y-102250000D01*
X156225000Y-120005000D02*
X156225000Y-118125000D01*
X167005000Y-121920000D02*
X167005000Y-125095000D01*
X156225000Y-108570000D02*
X156225000Y-104765000D01*
X154940000Y-109855000D02*
X156225000Y-108570000D01*
X154940000Y-89535000D02*
X156225000Y-89535000D01*
X156225000Y-102250000D02*
X154940000Y-100965000D01*
X154940000Y-80010000D02*
X154940000Y-73660000D01*
X154940000Y-100965000D02*
X154940000Y-89535000D01*
X154940000Y-89535000D02*
X154940000Y-80010000D01*
X168910000Y-127000000D02*
X168910000Y-127635000D01*
X154940000Y-116840000D02*
X154940000Y-109855000D01*
X156225000Y-118125000D02*
X154940000Y-116840000D01*
X167005000Y-125095000D02*
X168910000Y-127000000D01*
%TO.N,/MDB6*%
X158750000Y-110490000D02*
X158765000Y-110475000D01*
X158765000Y-93330000D02*
X158765000Y-89535000D01*
X158765000Y-104765000D02*
X158765000Y-102250000D01*
X158765000Y-118125000D02*
X158750000Y-118110000D01*
X157449511Y-94645489D02*
X158765000Y-93330000D01*
X157480000Y-85725000D02*
X158765000Y-87010000D01*
X158765000Y-87010000D02*
X158765000Y-89535000D01*
X158750000Y-118110000D02*
X160020000Y-116840000D01*
X165100000Y-123190000D02*
X165100000Y-126365000D01*
X158115000Y-78105000D02*
X157480000Y-78740000D01*
X157449511Y-100934511D02*
X157449511Y-94645489D01*
X158765000Y-110475000D02*
X158765000Y-104765000D01*
X160020000Y-116840000D02*
X160020000Y-111760000D01*
X158765000Y-120005000D02*
X158765000Y-118125000D01*
X158765000Y-122570000D02*
X159385000Y-123190000D01*
X158100000Y-74300000D02*
X158100000Y-78090000D01*
X158100000Y-78090000D02*
X158115000Y-78105000D01*
X165100000Y-126365000D02*
X166370000Y-127635000D01*
X158765000Y-120005000D02*
X158765000Y-122570000D01*
X158765000Y-102250000D02*
X157449511Y-100934511D01*
X160020000Y-111760000D02*
X158750000Y-110490000D01*
X157480000Y-78740000D02*
X157480000Y-85725000D01*
%TO.N,/MDB7*%
X162620489Y-109915489D02*
X161290000Y-108585000D01*
X159380000Y-59060000D02*
X158100000Y-59060000D01*
X161305000Y-108570000D02*
X161305000Y-104765000D01*
X162620489Y-116779511D02*
X162620489Y-109915489D01*
X159385000Y-78740000D02*
X159385000Y-59055000D01*
X161305000Y-102250000D02*
X160020000Y-100965000D01*
X161305000Y-118125000D02*
X161290000Y-118110000D01*
X161290000Y-108585000D02*
X161305000Y-108570000D01*
X161305000Y-88280000D02*
X160655000Y-87630000D01*
X161305000Y-120005000D02*
X161305000Y-125715000D01*
X161305000Y-125715000D02*
X161290000Y-125730000D01*
X161305000Y-120005000D02*
X161305000Y-118125000D01*
X159385000Y-59055000D02*
X159380000Y-59060000D01*
X160020000Y-94615000D02*
X161305000Y-93330000D01*
X160020000Y-83185000D02*
X160020000Y-79375000D01*
X161290000Y-118110000D02*
X162620489Y-116779511D01*
X160020000Y-79375000D02*
X159385000Y-78740000D01*
X160020000Y-100965000D02*
X160020000Y-94615000D01*
X160655000Y-83820000D02*
X160020000Y-83185000D01*
X161305000Y-93330000D02*
X161305000Y-89535000D01*
X160655000Y-87630000D02*
X160655000Y-83820000D01*
X161305000Y-104765000D02*
X161305000Y-102250000D01*
X161305000Y-89535000D02*
X161305000Y-88280000D01*
%TO.N,/MDB8*%
X169545000Y-91440000D02*
X169484511Y-91379511D01*
X163845000Y-100345000D02*
X162560000Y-99060000D01*
X160655000Y-63500000D02*
X160640000Y-63485000D01*
X165100000Y-115570000D02*
X165100000Y-109855000D01*
X163845000Y-104765000D02*
X163845000Y-100345000D01*
X162560000Y-94615000D02*
X163845000Y-93330000D01*
X162570000Y-120005000D02*
X162560000Y-120015000D01*
X161290000Y-127635000D02*
X162560000Y-127635000D01*
X162560000Y-99060000D02*
X162560000Y-94615000D01*
X169484511Y-63560489D02*
X169545000Y-63500000D01*
X163845000Y-93330000D02*
X163845000Y-89535000D01*
X160640000Y-63485000D02*
X160640000Y-59060000D01*
X162560000Y-118110000D02*
X165100000Y-115570000D01*
X163845000Y-108570000D02*
X163845000Y-104765000D01*
X163830000Y-108585000D02*
X163845000Y-108570000D01*
X162560000Y-127635000D02*
X162560000Y-120015000D01*
X162560000Y-120015000D02*
X162560000Y-118110000D01*
X169484511Y-91379511D02*
X169484511Y-63560489D01*
X165100000Y-109855000D02*
X163830000Y-108585000D01*
X163845000Y-120005000D02*
X162570000Y-120005000D01*
%TO.N,Net-(U7101-Pad19)*%
X157480000Y-124460000D02*
X157480000Y-123190000D01*
X158750000Y-124460000D02*
X157480000Y-124460000D01*
X158750000Y-127635000D02*
X158750000Y-124460000D01*
%TO.N,Net-(U7102-Pad3)*%
X133350000Y-132080000D02*
X132080000Y-130810000D01*
X132080000Y-117475000D02*
X133350000Y-116205000D01*
X133350000Y-116205000D02*
X133345000Y-116200000D01*
X133345000Y-116200000D02*
X133345000Y-112385000D01*
X132080000Y-130810000D02*
X132080000Y-117475000D01*
X133350000Y-135255000D02*
X133350000Y-132080000D01*
%TO.N,Net-(U7102-Pad9)*%
X113665000Y-132080000D02*
X113030000Y-132715000D01*
X113030000Y-132715000D02*
X113030000Y-135245000D01*
X148590000Y-135255000D02*
X148590000Y-132080000D01*
%TO.N,Net-(U7102-Pad12)*%
X148590000Y-123190000D02*
X146685000Y-123190000D01*
X173990000Y-116205000D02*
X173990000Y-92075000D01*
X133350000Y-123190000D02*
X133350000Y-120010000D01*
X133350000Y-120010000D02*
X133345000Y-120005000D01*
X146685000Y-123190000D02*
X146685000Y-116205000D01*
X148590000Y-127635000D02*
X148590000Y-123190000D01*
%TO.N,Net-(U7102-Pad14)*%
X88900000Y-116205000D02*
X86360000Y-113665000D01*
X88900000Y-130810000D02*
X88900000Y-116205000D01*
X86360000Y-113665000D02*
X86360000Y-106030000D01*
X86360000Y-106030000D02*
X87625000Y-104765000D01*
X143510000Y-127635000D02*
X143510000Y-130810000D01*
%TO.N,Net-(U7102-Pad16)*%
X142875000Y-125095000D02*
X142875000Y-111760000D01*
X138430000Y-125095000D02*
X142875000Y-125095000D01*
X138430000Y-127635000D02*
X138430000Y-125095000D01*
%TO.N,Net-(U7102-Pad18)*%
X138430000Y-84455000D02*
X137160000Y-83185000D01*
X133350000Y-127635000D02*
X133350000Y-127000000D01*
X137160000Y-83185000D02*
X137160000Y-78740000D01*
X138430000Y-86360000D02*
X138430000Y-84455000D01*
X134620000Y-125730000D02*
X134620000Y-102870000D01*
X137200489Y-100289511D02*
X137200489Y-94020489D01*
X137160000Y-78740000D02*
X137160000Y-73660000D01*
X133350000Y-127000000D02*
X134620000Y-125730000D01*
X137160000Y-93980000D02*
X137160000Y-87630000D01*
X137160000Y-87630000D02*
X138430000Y-86360000D01*
X137200489Y-94020489D02*
X137160000Y-93980000D01*
X134620000Y-102870000D02*
X137200489Y-100289511D01*
%TO.N,Net-(U7104-Pad6)*%
X116840000Y-135255000D02*
X116840000Y-116205000D01*
X115585000Y-135245000D02*
X116830000Y-135245000D01*
X116830000Y-135245000D02*
X116840000Y-135255000D01*
X138430000Y-112390000D02*
X138425000Y-112385000D01*
X138430000Y-116205000D02*
X138430000Y-112390000D01*
%TO.N,Net-(U7104-Pad11)*%
X114310000Y-125085000D02*
X114310000Y-117480000D01*
X115585000Y-126380000D02*
X114300000Y-125095000D01*
X115585000Y-127625000D02*
X115585000Y-126380000D01*
X114300000Y-125095000D02*
X114310000Y-125085000D01*
%TO.N,Net-(U7104-Pad12)*%
X111760000Y-125095000D02*
X111770000Y-125085000D01*
X111770000Y-125085000D02*
X111770000Y-117480000D01*
X113045000Y-127625000D02*
X113045000Y-126380000D01*
X113045000Y-126380000D02*
X111760000Y-125095000D01*
%TO.N,Net-(U7104-Pad14)*%
X107965000Y-127625000D02*
X107965000Y-126380000D01*
X107950000Y-126365000D02*
X109230000Y-125085000D01*
X107965000Y-126380000D02*
X107950000Y-126365000D01*
X109230000Y-125085000D02*
X109230000Y-117480000D01*
%TO.N,Net-(U7104-Pad15)*%
X105425000Y-127625000D02*
X105425000Y-126380000D01*
X106690000Y-125085000D02*
X106690000Y-117480000D01*
X105410000Y-126365000D02*
X106690000Y-125085000D01*
X105425000Y-126380000D02*
X105410000Y-126365000D01*
%TO.N,Net-(U7105-Pad4)*%
X135885000Y-125090000D02*
X135885000Y-120005000D01*
X83820000Y-125095000D02*
X85090000Y-123825000D01*
X83820000Y-130810000D02*
X83820000Y-125095000D01*
X85090000Y-123825000D02*
X85085000Y-123820000D01*
X85105000Y-135245000D02*
X85105000Y-132095000D01*
X85090000Y-132080000D02*
X83820000Y-130810000D01*
X135890000Y-125095000D02*
X135885000Y-125090000D01*
X85085000Y-123820000D02*
X85085000Y-120005000D01*
X85105000Y-132095000D02*
X85090000Y-132080000D01*
%TO.N,/Port Selection*%
X86360000Y-130810000D02*
X86360000Y-125095000D01*
X87645000Y-135245000D02*
X87645000Y-132095000D01*
X87625000Y-123820000D02*
X87625000Y-120005000D01*
X87645000Y-132095000D02*
X86360000Y-130810000D01*
X87630000Y-123825000D02*
X87625000Y-123820000D01*
X86360000Y-125095000D02*
X87630000Y-123825000D01*
%TO.N,Net-(U7105-Pad11)*%
X125730000Y-89560000D02*
X125745000Y-89545000D01*
X91440000Y-100330000D02*
X91440000Y-93345000D01*
X91440000Y-104140000D02*
X92710000Y-102870000D01*
X125730000Y-92710000D02*
X125730000Y-89560000D01*
X92710000Y-101600000D02*
X91440000Y-100330000D01*
X91440000Y-110490000D02*
X91440000Y-104140000D01*
X91430000Y-127625000D02*
X91440000Y-127635000D01*
X91440000Y-127635000D02*
X91440000Y-110490000D01*
X90185000Y-127625000D02*
X91430000Y-127625000D01*
X92710000Y-102870000D02*
X92710000Y-101600000D01*
%TO.N,Net-(U7105-Pad12)*%
X100330000Y-126365000D02*
X100330000Y-110490000D01*
X100325000Y-110485000D02*
X100325000Y-104765000D01*
X100330000Y-110490000D02*
X100325000Y-110485000D01*
%TO.N,Net-(U7105-Pad13)*%
X85090000Y-125095000D02*
X86360000Y-123825000D01*
X86360000Y-123825000D02*
X86360000Y-123190000D01*
X121285000Y-104775000D02*
X123185000Y-104775000D01*
X85105000Y-125110000D02*
X85090000Y-125095000D01*
X85105000Y-127625000D02*
X85105000Y-125110000D01*
X121285000Y-123825000D02*
X121285000Y-104775000D01*
%TO.N,Net-(U7105-Pad14)*%
X95250000Y-123190000D02*
X95250000Y-107315000D01*
X95250000Y-102870000D02*
X95250000Y-64770000D01*
X94615000Y-106680000D02*
X94615000Y-103505000D01*
X94615000Y-103505000D02*
X95250000Y-102870000D01*
X95250000Y-107315000D02*
X94615000Y-106680000D01*
%TO.N,Net-(U7105-Pad15)*%
X110490000Y-101600000D02*
X110485000Y-101595000D01*
X80025000Y-125745000D02*
X80010000Y-125730000D01*
X77465000Y-92705000D02*
X77465000Y-89525000D01*
X80025000Y-127625000D02*
X80025000Y-125745000D01*
X78740000Y-95885000D02*
X77470000Y-94615000D01*
X78654022Y-103505000D02*
X78105000Y-103505000D01*
X78740000Y-125730000D02*
X78689511Y-125679511D01*
X110490000Y-97140000D02*
X110485000Y-97145000D01*
X128270000Y-106680000D02*
X127000000Y-106680000D01*
X129540000Y-81915000D02*
X129530000Y-81925000D01*
X78689511Y-125679511D02*
X78689511Y-103540489D01*
X78689511Y-103540489D02*
X78654022Y-103505000D01*
X78105000Y-103505000D02*
X78105000Y-99695000D01*
X127000000Y-106680000D02*
X127000000Y-100965000D01*
X77470000Y-94615000D02*
X77470000Y-92710000D01*
X110485000Y-101595000D02*
X110485000Y-97145000D01*
X128265000Y-106685000D02*
X128270000Y-106680000D01*
X129540000Y-99060000D02*
X129540000Y-81915000D01*
X127000000Y-100965000D02*
X127000000Y-99060000D01*
X127000000Y-99060000D02*
X129540000Y-99060000D01*
X78740000Y-99060000D02*
X78740000Y-95885000D01*
X128265000Y-112385000D02*
X128265000Y-106685000D01*
X110490000Y-94615000D02*
X110490000Y-97140000D01*
X129530000Y-81925000D02*
X128285000Y-81925000D01*
X77470000Y-92710000D02*
X77465000Y-92705000D01*
X80010000Y-125730000D02*
X78740000Y-125730000D01*
X78105000Y-99695000D02*
X78740000Y-99060000D01*
%TO.N,Net-(U7106-Pad2)*%
X82545000Y-93350000D02*
X82550000Y-93345000D01*
X82545000Y-97145000D02*
X82545000Y-93350000D01*
X82545000Y-109850000D02*
X82550000Y-109855000D01*
X82545000Y-104765000D02*
X82545000Y-97145000D01*
X125730000Y-116205000D02*
X125725000Y-116210000D01*
X124460000Y-114935000D02*
X125730000Y-116205000D01*
X124460000Y-109665500D02*
X124460000Y-114935000D01*
X82545000Y-93350000D02*
X82545000Y-89525000D01*
X82545000Y-104765000D02*
X82545000Y-109850000D01*
X125725000Y-116210000D02*
X125725000Y-120005000D01*
%TO.N,Net-(U7106-Pad11)*%
X80010000Y-83820000D02*
X80005000Y-83815000D01*
X80005000Y-83815000D02*
X80005000Y-81905000D01*
X76200000Y-100330000D02*
X76200000Y-83820000D01*
X76200000Y-83820000D02*
X80010000Y-83820000D01*
%TO.N,Net-(U7106-Pad13)*%
X109220000Y-102235000D02*
X108585000Y-101600000D01*
X109220000Y-106680000D02*
X109220000Y-102235000D01*
X125725000Y-112385000D02*
X125725000Y-106685000D01*
X90170000Y-97150000D02*
X90165000Y-97145000D01*
X125725000Y-106685000D02*
X125730000Y-106680000D01*
X90165000Y-97145000D02*
X90165000Y-89525000D01*
X90170000Y-100330000D02*
X90170000Y-97150000D01*
%TO.N,/Data Clock HV*%
X161290000Y-85725000D02*
X161305000Y-85710000D01*
X161305000Y-94630000D02*
X161290000Y-94615000D01*
X162560000Y-100330000D02*
X162560000Y-106680000D01*
X162560000Y-86995000D02*
X161290000Y-85725000D01*
X161305000Y-99075000D02*
X162560000Y-100330000D01*
X161305000Y-97145000D02*
X161305000Y-94630000D01*
X161305000Y-85710000D02*
X161305000Y-81915000D01*
X107945000Y-90955056D02*
X107945000Y-97145000D01*
X161290000Y-94615000D02*
X162560000Y-93345000D01*
X162560000Y-93345000D02*
X162560000Y-91440000D01*
X162560000Y-91440000D02*
X162560000Y-86995000D01*
X101600000Y-90805000D02*
X101600000Y-116840000D01*
X107950564Y-90949492D02*
X107945000Y-90955056D01*
X161305000Y-97145000D02*
X161305000Y-99075000D01*
%TO.N,Net-(U7107-Pad13)*%
X80005000Y-120005000D02*
X80005000Y-116845000D01*
X113030000Y-100965000D02*
X113030000Y-97150000D01*
X113030000Y-97150000D02*
X113025000Y-97145000D01*
X97155000Y-116840000D02*
X97155000Y-100965000D01*
X80005000Y-116835000D02*
X80005000Y-112385000D01*
X80010000Y-116840000D02*
X80005000Y-116835000D01*
X80005000Y-116845000D02*
X80010000Y-116840000D01*
%TO.N,Net-(U7107-Pad3)*%
X81280000Y-118110000D02*
X81280000Y-103505000D01*
X81915000Y-102870000D02*
X81915000Y-99695000D01*
X81280000Y-99060000D02*
X81280000Y-80010000D01*
X81915000Y-99695000D02*
X81280000Y-99060000D01*
X77470000Y-80010000D02*
X77470000Y-71115000D01*
X82545000Y-118115000D02*
X82550000Y-118110000D01*
X82545000Y-120005000D02*
X82545000Y-118115000D01*
X81280000Y-80010000D02*
X77470000Y-80010000D01*
X81280000Y-103505000D02*
X81915000Y-102870000D01*
X77470000Y-71115000D02*
X76830000Y-70475000D01*
X82550000Y-118110000D02*
X81280000Y-118110000D01*
%TO.N,Net-(U7107-Pad8)*%
X92705000Y-106685000D02*
X92710000Y-106680000D01*
X92705000Y-112385000D02*
X92705000Y-106685000D01*
%TO.N,Net-(U7107-Pad9)*%
X87630000Y-109855000D02*
X87630000Y-107315000D01*
X135905000Y-73040000D02*
X135905000Y-81925000D01*
X88900000Y-100330000D02*
X88900000Y-95885000D01*
X89535000Y-91440000D02*
X88900000Y-90805000D01*
X88900000Y-95885000D02*
X89535000Y-95250000D01*
X90165000Y-112385000D02*
X87635000Y-109855000D01*
X88265000Y-100965000D02*
X88900000Y-100330000D01*
X135890000Y-73025000D02*
X135905000Y-73040000D01*
X88900000Y-104140000D02*
X88265000Y-103505000D01*
X87635000Y-109855000D02*
X87630000Y-109855000D01*
X89535000Y-93980000D02*
X89535000Y-91440000D01*
X88900000Y-90805000D02*
X88900000Y-73025000D01*
X89535000Y-95250000D02*
X89535000Y-93980000D01*
X88265000Y-103505000D02*
X88265000Y-100965000D01*
X87630000Y-107315000D02*
X88900000Y-106045000D01*
X88900000Y-106045000D02*
X88900000Y-104140000D01*
%TO.N,Net-(U7107-Pad12)*%
X83185000Y-99060000D02*
X83820000Y-98425000D01*
X83860489Y-104180489D02*
X83185000Y-103505000D01*
X106720489Y-77510489D02*
X105410000Y-76200000D01*
X105405000Y-90810000D02*
X105405000Y-89525000D01*
X105405000Y-87000000D02*
X106720489Y-85684511D01*
X83805000Y-111125000D02*
X83820000Y-111125000D01*
X105410000Y-76200000D02*
X105410000Y-66675000D01*
X105405000Y-89525000D02*
X105405000Y-87000000D01*
X104140000Y-94615000D02*
X104140000Y-92075000D01*
X106720489Y-85684511D02*
X106720489Y-77510489D01*
X104140000Y-92075000D02*
X105405000Y-90810000D01*
X83185000Y-103505000D02*
X83185000Y-99060000D01*
X83860489Y-111084511D02*
X83860489Y-104180489D01*
X83820000Y-111125000D02*
X83860489Y-111084511D01*
X82545000Y-112385000D02*
X83805000Y-111125000D01*
X83820000Y-98425000D02*
X83820000Y-93980000D01*
%TO.N,Net-(U7108-Pad1)*%
X111750000Y-89525000D02*
X110485000Y-89525000D01*
X111760000Y-89535000D02*
X111750000Y-89525000D01*
X130805000Y-104775000D02*
X132080000Y-104775000D01*
X132080000Y-104775000D02*
X132080000Y-93345000D01*
X77465000Y-104765000D02*
X77465000Y-107945000D01*
X111760000Y-107770980D02*
X111760000Y-89535000D01*
X153670000Y-72579500D02*
X153670000Y-64770000D01*
X132080000Y-93345000D02*
X132080000Y-74930000D01*
X77465000Y-107945000D02*
X77470000Y-107950000D01*
%TO.N,Net-(U7108-Pad8)*%
X156225000Y-78755000D02*
X156210000Y-78740000D01*
D25*
X93980000Y-93345000D02*
X93980000Y-64770000D01*
D24*
X156225000Y-81915000D02*
X156225000Y-78755000D01*
D25*
X92705000Y-94620000D02*
X93980000Y-93345000D01*
D24*
X156845000Y-78105000D02*
X156845000Y-67310000D01*
D25*
X92705000Y-97145000D02*
X92705000Y-94620000D01*
D24*
X156210000Y-78740000D02*
X156845000Y-78105000D01*
%TO.N,Net-(U7108-Pad11)*%
X85090000Y-97140000D02*
X85085000Y-97145000D01*
X98425000Y-116840000D02*
X98425000Y-105410000D01*
X99060000Y-117475000D02*
X98425000Y-116840000D01*
X156225000Y-100950000D02*
X156210000Y-100965000D01*
X95885000Y-92710000D02*
X96520000Y-92075000D01*
X95885000Y-105410000D02*
X95885000Y-92710000D01*
X157480000Y-102235000D02*
X157480000Y-107125500D01*
X130175000Y-106680000D02*
X129540000Y-107315000D01*
X129540000Y-114300000D02*
X127000000Y-116840000D01*
X127000000Y-122555000D02*
X126365000Y-123190000D01*
X85090000Y-93345000D02*
X85090000Y-97140000D01*
X129540000Y-107315000D02*
X129540000Y-114300000D01*
X156210000Y-100965000D02*
X157480000Y-102235000D01*
X127000000Y-116840000D02*
X127000000Y-122555000D01*
X156225000Y-97145000D02*
X156225000Y-100950000D01*
X99060000Y-123190000D02*
X99060000Y-117475000D01*
X126365000Y-123190000D02*
X125730000Y-123190000D01*
X132080000Y-106680000D02*
X130175000Y-106680000D01*
%TO.N,Net-(U7108-Pad13)*%
X87630000Y-89530000D02*
X87625000Y-89525000D01*
X87630000Y-92075000D02*
X87630000Y-89530000D01*
X80005000Y-92080000D02*
X80010000Y-92075000D01*
X80005000Y-97145000D02*
X80005000Y-92080000D01*
D25*
%TO.N,Net-(U7109-Pad1)*%
X119390000Y-89545000D02*
X119380000Y-89535000D01*
X118110000Y-90805000D02*
X114300000Y-90805000D01*
D24*
X123190000Y-94615000D02*
X123205000Y-94600000D01*
D25*
X119380000Y-89535000D02*
X118110000Y-90805000D01*
X114300000Y-90805000D02*
X113025000Y-89530000D01*
D24*
X123205000Y-94600000D02*
X123205000Y-89545000D01*
D25*
X123205000Y-89545000D02*
X119390000Y-89545000D01*
X113025000Y-89530000D02*
X113025000Y-89525000D01*
%TO.N,Net-(U7109-Pad4)*%
X130825000Y-92695000D02*
X130810000Y-92710000D01*
X86360000Y-71755000D02*
X86360000Y-66675000D01*
X83820000Y-66675000D02*
X82550000Y-65405000D01*
X82550000Y-65405000D02*
X82550000Y-62855000D01*
X87630000Y-73025000D02*
X86360000Y-71755000D01*
X134620000Y-92710000D02*
X134620000Y-73660000D01*
X130825000Y-89545000D02*
X130825000Y-92695000D01*
X86360000Y-66675000D02*
X83820000Y-66675000D01*
X87630000Y-75565000D02*
X87630000Y-73025000D01*
D24*
%TO.N,/Data*%
X181620000Y-104765000D02*
X182895000Y-104765000D01*
X182245000Y-80010000D02*
X182245000Y-64135000D01*
X153685000Y-81915000D02*
X153685000Y-85710000D01*
X181610000Y-85725000D02*
X181610000Y-80645000D01*
X181610000Y-80645000D02*
X182245000Y-80010000D01*
X181610000Y-104775000D02*
X181620000Y-104765000D01*
X133350000Y-89530000D02*
X133365000Y-89545000D01*
X153685000Y-85710000D02*
X153670000Y-85725000D01*
X133350000Y-85725000D02*
X133350000Y-89530000D01*
X181610000Y-85725000D02*
X181610000Y-104775000D01*
%TO.N,/Attention*%
X146050000Y-111760000D02*
X146050000Y-93345000D01*
D25*
%TO.N,Net-(U7109-Pad10)*%
X138445000Y-71770000D02*
X138445000Y-81925000D01*
X138430000Y-71755000D02*
X138445000Y-71770000D01*
%TO.N,Net-(U7110-Pad1)*%
X100340000Y-89525000D02*
X101600000Y-88265000D01*
X101600000Y-79375000D02*
X97155000Y-74930000D01*
X101600000Y-88265000D02*
X101702989Y-88162011D01*
X100325000Y-89525000D02*
X100340000Y-89525000D01*
X101702989Y-88162011D02*
X101702989Y-79477989D01*
X101702989Y-79477989D02*
X101600000Y-79375000D01*
X97155000Y-74930000D02*
X97155000Y-66675000D01*
%TO.N,Net-(U7110-Pad2)*%
X102865000Y-85730000D02*
X102865000Y-89525000D01*
X86350000Y-81905000D02*
X86360000Y-81915000D01*
X85085000Y-81905000D02*
X86350000Y-81905000D01*
X86360000Y-81915000D02*
X86360000Y-85725000D01*
X102870000Y-85725000D02*
X102865000Y-85730000D01*
%TO.N,Net-(U7110-Pad4)*%
X109220000Y-89535000D02*
X109220000Y-93980000D01*
X125725000Y-94610000D02*
X125725000Y-97155000D01*
X109210000Y-89525000D02*
X109220000Y-89535000D01*
X125095000Y-93980000D02*
X125725000Y-94610000D01*
X107945000Y-89525000D02*
X109210000Y-89525000D01*
D24*
%TO.N,Net-(U7110-Pad12)*%
X128265000Y-97155000D02*
X127635000Y-97155000D01*
X160020000Y-86995000D02*
X158750000Y-85725000D01*
D25*
X105405000Y-81905000D02*
X105405000Y-83815000D01*
X105405000Y-78745000D02*
X105410000Y-78740000D01*
X105405000Y-83815000D02*
X105410000Y-83820000D01*
D24*
X143510000Y-109220000D02*
X143510000Y-94615000D01*
X127000000Y-96520000D02*
X127000000Y-93980000D01*
X158765000Y-97145000D02*
X158765000Y-94630000D01*
X158750000Y-94615000D02*
X160020000Y-93345000D01*
X158750000Y-85725000D02*
X158765000Y-85710000D01*
X152400000Y-80645000D02*
X152400000Y-77470000D01*
X160020000Y-93345000D02*
X160020000Y-86995000D01*
D25*
X105405000Y-81905000D02*
X105405000Y-78745000D01*
X127000000Y-85725000D02*
X127000000Y-96520000D01*
X105410000Y-83820000D02*
X104775000Y-84455000D01*
D24*
X127635000Y-97155000D02*
X127000000Y-96520000D01*
D25*
X143510000Y-76200000D02*
X143510000Y-94615000D01*
D24*
X158765000Y-94630000D02*
X158750000Y-94615000D01*
D25*
X104775000Y-84455000D02*
X104775000Y-85725000D01*
D24*
X158765000Y-85710000D02*
X158765000Y-81915000D01*
D25*
%TO.N,Net-(U7110-Pad13)*%
X85090000Y-70475000D02*
X85090000Y-77470000D01*
X104140000Y-77470000D02*
X104140000Y-81280000D01*
X104140000Y-81280000D02*
X103515000Y-81905000D01*
X103515000Y-81905000D02*
X102865000Y-81905000D01*
%TO.N,Net-(U7111-Pad5)*%
X91440000Y-86360000D02*
X91440000Y-90805000D01*
X90165000Y-85085000D02*
X90170000Y-85090000D01*
D24*
X133345000Y-104775000D02*
X133345000Y-101605000D01*
X133350000Y-101600000D02*
X134620000Y-100330000D01*
D25*
X90170000Y-85090000D02*
X91440000Y-86360000D01*
D24*
X133345000Y-101605000D02*
X133350000Y-101600000D01*
D25*
X90165000Y-81905000D02*
X90165000Y-85085000D01*
D24*
X134620000Y-100330000D02*
X134620000Y-94615000D01*
D25*
%TO.N,Net-(U7111-Pad8)*%
X138425000Y-97155000D02*
X142240000Y-97155000D01*
X142240000Y-97155000D02*
X142240000Y-80010000D01*
D24*
%TO.N,Net-(U7111-Pad11)*%
X106680000Y-97790000D02*
X107315000Y-98425000D01*
X106680000Y-102870000D02*
X105410000Y-102870000D01*
X107315000Y-98425000D02*
X107315000Y-102235000D01*
X106680000Y-95885000D02*
X106680000Y-97790000D01*
X105410000Y-102870000D02*
X105405000Y-102875000D01*
X105405000Y-102875000D02*
X105405000Y-104765000D01*
X107315000Y-102235000D02*
X106680000Y-102870000D01*
%TO.N,Net-(U7116-Pad9)*%
X154940000Y-102235000D02*
X154940000Y-107950000D01*
X165100000Y-81915000D02*
X166385000Y-81915000D01*
X153685000Y-97145000D02*
X153685000Y-100950000D01*
X153670000Y-100965000D02*
X154940000Y-102235000D01*
X165100000Y-107950000D02*
X165100000Y-81915000D01*
X153685000Y-100950000D02*
X153670000Y-100965000D01*
%TD*%
M02*
