%TF.GenerationSoftware,KiCad,Pcbnew,6.0.7-f9a2dced07~116~ubuntu20.04.1*%
%TF.CreationDate,2022-09-01T06:51:31-07:00*%
%TF.ProjectId,ISA-Card,4953412d-4361-4726-942e-6b696361645f,alpha*%
%TF.SameCoordinates,Original*%
%TF.FileFunction,Copper,L1,Top*%
%TF.FilePolarity,Positive*%
%FSLAX46Y46*%
G04 Gerber Fmt 4.6, Leading zero omitted, Abs format (unit mm)*
G04 Created by KiCad (PCBNEW 6.0.7-f9a2dced07~116~ubuntu20.04.1) date 2022-09-01 06:51:31*
%MOMM*%
%LPD*%
G01*
G04 APERTURE LIST*
G04 Aperture macros list*
%AMRoundRect*
0 Rectangle with rounded corners*
0 $1 Rounding radius*
0 $2 $3 $4 $5 $6 $7 $8 $9 X,Y pos of 4 corners*
0 Add a 4 corners polygon primitive as box body*
4,1,4,$2,$3,$4,$5,$6,$7,$8,$9,$2,$3,0*
0 Add four circle primitives for the rounded corners*
1,1,$1+$1,$2,$3*
1,1,$1+$1,$4,$5*
1,1,$1+$1,$6,$7*
1,1,$1+$1,$8,$9*
0 Add four rect primitives between the rounded corners*
20,1,$1+$1,$2,$3,$4,$5,0*
20,1,$1+$1,$4,$5,$6,$7,0*
20,1,$1+$1,$6,$7,$8,$9,0*
20,1,$1+$1,$8,$9,$2,$3,0*%
G04 Aperture macros list end*
%TA.AperFunction,ConnectorPad*%
%ADD10RoundRect,0.444500X-0.444500X-3.619500X0.444500X-3.619500X0.444500X3.619500X-0.444500X3.619500X0*%
%TD*%
%TA.AperFunction,ComponentPad*%
%ADD11C,4.000000*%
%TD*%
%TA.AperFunction,ComponentPad*%
%ADD12R,1.600000X1.600000*%
%TD*%
%TA.AperFunction,ComponentPad*%
%ADD13C,1.600000*%
%TD*%
%TA.AperFunction,ComponentPad*%
%ADD14O,1.600000X1.600000*%
%TD*%
%TA.AperFunction,WasherPad*%
%ADD15C,3.759200*%
%TD*%
%TA.AperFunction,ComponentPad*%
%ADD16R,2.000000X2.000000*%
%TD*%
%TA.AperFunction,ComponentPad*%
%ADD17C,2.000000*%
%TD*%
%TA.AperFunction,ComponentPad*%
%ADD18R,1.700000X1.700000*%
%TD*%
%TA.AperFunction,ComponentPad*%
%ADD19O,1.700000X1.700000*%
%TD*%
%TA.AperFunction,ComponentPad*%
%ADD20C,1.500000*%
%TD*%
%TA.AperFunction,ViaPad*%
%ADD21C,0.800000*%
%TD*%
%TA.AperFunction,ViaPad*%
%ADD22C,1.000000*%
%TD*%
%TA.AperFunction,Conductor*%
%ADD23C,0.400000*%
%TD*%
%TA.AperFunction,Conductor*%
%ADD24C,0.275000*%
%TD*%
%TA.AperFunction,Conductor*%
%ADD25C,1.000000*%
%TD*%
G04 APERTURE END LIST*
D10*
%TO.P,BUS1,33,SD7*%
%TO.N,/D7*%
X182880000Y-145732500D03*
%TO.P,BUS1,34,SD6*%
%TO.N,/D6*%
X180340000Y-145732500D03*
%TO.P,BUS1,35,SD5*%
%TO.N,/D5*%
X177800000Y-145732500D03*
%TO.P,BUS1,36,SD4*%
%TO.N,/D4*%
X175260000Y-145732500D03*
%TO.P,BUS1,37,SD3*%
%TO.N,/D3*%
X172720000Y-145732500D03*
%TO.P,BUS1,38,SD2*%
%TO.N,/D2*%
X170180000Y-145732500D03*
%TO.P,BUS1,39,SD1*%
%TO.N,/D1*%
X167640000Y-145732500D03*
%TO.P,BUS1,40,SD0*%
%TO.N,/D0*%
X165100000Y-145732500D03*
%TO.P,BUS1,42,AEN*%
%TO.N,/AEN*%
X160020000Y-145732500D03*
%TO.P,BUS1,53,SA9*%
%TO.N,/A9*%
X132080000Y-145732500D03*
%TO.P,BUS1,54,SA8*%
%TO.N,/A8*%
X129540000Y-145732500D03*
%TO.P,BUS1,55,SA7*%
%TO.N,/A7*%
X127000000Y-145732500D03*
%TO.P,BUS1,56,SA6*%
%TO.N,/A6*%
X124460000Y-145732500D03*
%TO.P,BUS1,57,SA5*%
%TO.N,/A5*%
X121920000Y-145732500D03*
%TO.P,BUS1,58,SA4*%
%TO.N,/A4*%
X119380000Y-145732500D03*
%TO.P,BUS1,59,SA3*%
%TO.N,/A3*%
X116840000Y-145732500D03*
%TO.P,BUS1,60,SA2*%
%TO.N,/A2*%
X114300000Y-145732500D03*
%TO.P,BUS1,61,SA1*%
%TO.N,/A1*%
X111760000Y-145732500D03*
%TO.P,BUS1,62,SA0*%
%TO.N,/A0*%
X109220000Y-145732500D03*
%TD*%
D11*
%TO.P,X3,0*%
%TO.N,N/C*%
X200175000Y-138105000D03*
X200175000Y-104805000D03*
D12*
%TO.P,X3,1,1*%
%TO.N,/Response+*%
X198755000Y-111760000D03*
D13*
%TO.P,X3,2,2*%
%TO.N,/Command+*%
X198755000Y-114530000D03*
%TO.P,X3,3,3*%
%TO.N,/Data+*%
X198755000Y-117300000D03*
%TO.P,X3,4,4*%
%TO.N,/Data Clock+*%
X198755000Y-120070000D03*
%TO.P,X3,5,5*%
%TO.N,/Attention+*%
X198755000Y-122840000D03*
%TO.P,X3,6,6*%
%TO.N,/M1*%
X198755000Y-125610000D03*
%TO.P,X3,7,7*%
%TO.N,/M3*%
X198755000Y-128380000D03*
%TO.P,X3,8,8*%
%TO.N,GND*%
X198755000Y-131150000D03*
%TO.P,X3,9,P9*%
%TO.N,/Response-*%
X201595000Y-113145000D03*
%TO.P,X3,10,P10*%
%TO.N,/Command-*%
X201595000Y-115915000D03*
%TO.P,X3,11,P111*%
%TO.N,/Data-*%
X201595000Y-118685000D03*
%TO.P,X3,12,P12*%
%TO.N,/Data Clock-*%
X201595000Y-121455000D03*
%TO.P,X3,13,P13*%
%TO.N,/Attention-*%
X201595000Y-124225000D03*
%TO.P,X3,14,P14*%
%TO.N,/M2*%
X201595000Y-126995000D03*
%TO.P,X3,15,P15*%
%TO.N,/M4*%
X201595000Y-129765000D03*
%TD*%
D12*
%TO.P,U7102,1,1OE*%
%TO.N,GND*%
X128270000Y-135255000D03*
D14*
%TO.P,U7102,2,1A0*%
%TO.N,/A0*%
X130810000Y-135255000D03*
%TO.P,U7102,3,2Y0*%
%TO.N,/A8b*%
X133350000Y-135255000D03*
%TO.P,U7102,4,1A1*%
%TO.N,/A9*%
X135890000Y-135255000D03*
%TO.P,U7102,5,2Y1*%
%TO.N,unconnected-(U7102-Pad5)*%
X138430000Y-135255000D03*
%TO.P,U7102,6,1A2*%
%TO.N,/~{DACK3}*%
X140970000Y-135255000D03*
%TO.P,U7102,7,2Y2*%
%TO.N,/~{RD}*%
X143510000Y-135255000D03*
%TO.P,U7102,8,1A3*%
%TO.N,/~{IOW}*%
X146050000Y-135255000D03*
%TO.P,U7102,9,2Y3*%
%TO.N,/AENb*%
X148590000Y-135255000D03*
%TO.P,U7102,10,GND*%
%TO.N,GND*%
X151130000Y-135255000D03*
%TO.P,U7102,11,2A3*%
%TO.N,/AEN*%
X151130000Y-127635000D03*
%TO.P,U7102,12,1Y3*%
%TO.N,/~{WR}*%
X148590000Y-127635000D03*
%TO.P,U7102,13,2A2*%
%TO.N,/~{IOR}*%
X146050000Y-127635000D03*
%TO.P,U7102,14,1Y2*%
%TO.N,/DMA_ACK*%
X143510000Y-127635000D03*
%TO.P,U7102,15,2A1*%
%TO.N,GND*%
X140970000Y-127635000D03*
%TO.P,U7102,16,1Y1*%
%TO.N,/A9b*%
X138430000Y-127635000D03*
%TO.P,U7102,17,2A0*%
%TO.N,/A8*%
X135890000Y-127635000D03*
%TO.P,U7102,18,1Y0*%
%TO.N,/A0b*%
X133350000Y-127635000D03*
%TO.P,U7102,19,2OE*%
%TO.N,GND*%
X130810000Y-127635000D03*
%TO.P,U7102,20,VCC*%
%TO.N,VCC*%
X128270000Y-127635000D03*
%TD*%
D12*
%TO.P,U7105,1,A0*%
%TO.N,/A1*%
X77485000Y-135245000D03*
D14*
%TO.P,U7105,2,A1*%
%TO.N,/A2*%
X80025000Y-135245000D03*
%TO.P,U7105,3,A2*%
%TO.N,/A3*%
X82565000Y-135245000D03*
%TO.P,U7105,4,E1*%
%TO.N,/IOACT*%
X85105000Y-135245000D03*
%TO.P,U7105,5,E2*%
%TO.N,/IOSEL*%
X87645000Y-135245000D03*
%TO.P,U7105,6,E3*%
%TO.N,VCC*%
X90185000Y-135245000D03*
%TO.P,U7105,7,O7*%
%TO.N,unconnected-(U7105-Pad7)*%
X92725000Y-135245000D03*
%TO.P,U7105,8,GND*%
%TO.N,GND*%
X95265000Y-135245000D03*
%TO.P,U7105,9,O6*%
%TO.N,unconnected-(U7105-Pad9)*%
X95265000Y-127625000D03*
%TO.P,U7105,10,O5*%
%TO.N,unconnected-(U7105-Pad10)*%
X92725000Y-127625000D03*
%TO.P,U7105,11,O4*%
%TO.N,Net-(TP53-Pad1)*%
X90185000Y-127625000D03*
%TO.P,U7105,12,O3*%
%TO.N,Net-(TP50-Pad1)*%
X87645000Y-127625000D03*
%TO.P,U7105,13,O2*%
%TO.N,Net-(TP26-Pad1)*%
X85105000Y-127625000D03*
%TO.P,U7105,14,O1*%
%TO.N,/UART-~{CS}*%
X82565000Y-127625000D03*
%TO.P,U7105,15,O0*%
%TO.N,Net-(TP41-Pad1)*%
X80025000Y-127625000D03*
%TO.P,U7105,16,VCC*%
%TO.N,VCC*%
X77485000Y-127625000D03*
%TD*%
D12*
%TO.P,U7104,1,A0*%
%TO.N,/A4*%
X102885000Y-135245000D03*
D14*
%TO.P,U7104,2,A1*%
%TO.N,/A5*%
X105425000Y-135245000D03*
%TO.P,U7104,3,A2*%
%TO.N,/A6*%
X107965000Y-135245000D03*
%TO.P,U7104,4,E1*%
%TO.N,/A7*%
X110505000Y-135245000D03*
%TO.P,U7104,5,E2*%
%TO.N,/AENb*%
X113045000Y-135245000D03*
%TO.P,U7104,6,E3*%
%TO.N,Net-(TP32-Pad1)*%
X115585000Y-135245000D03*
%TO.P,U7104,7,O7*%
%TO.N,unconnected-(U7104-Pad7)*%
X118125000Y-135245000D03*
%TO.P,U7104,8,GND*%
%TO.N,GND*%
X120665000Y-135245000D03*
%TO.P,U7104,9,O6*%
%TO.N,unconnected-(U7104-Pad9)*%
X120665000Y-127625000D03*
%TO.P,U7104,10,O5*%
%TO.N,unconnected-(U7104-Pad10)*%
X118125000Y-127625000D03*
%TO.P,U7104,11,O4*%
%TO.N,Net-(TP36-Pad1)*%
X115585000Y-127625000D03*
%TO.P,U7104,12,O3*%
%TO.N,Net-(TP35-Pad1)*%
X113045000Y-127625000D03*
%TO.P,U7104,13,O2*%
%TO.N,unconnected-(U7104-Pad13)*%
X110505000Y-127625000D03*
%TO.P,U7104,14,O1*%
%TO.N,Net-(TP34-Pad1)*%
X107965000Y-127625000D03*
%TO.P,U7104,15,O0*%
%TO.N,Net-(TP33-Pad1)*%
X105425000Y-127625000D03*
%TO.P,U7104,16,VCC*%
%TO.N,VCC*%
X102885000Y-127625000D03*
%TD*%
D15*
%TO.P,REF\u002A\u002A,*%
%TO.N,*%
X206375000Y-66675000D03*
%TD*%
D12*
%TO.P,U7112,1,~{R}*%
%TO.N,Net-(TP41-Pad1)*%
X77465000Y-89525000D03*
D14*
%TO.P,U7112,2,D*%
%TO.N,Net-(TP47-Pad1)*%
X80005000Y-89525000D03*
%TO.P,U7112,3,C*%
%TO.N,Net-(TP93-Pad1)*%
X82545000Y-89525000D03*
%TO.P,U7112,4,~{S}*%
%TO.N,VCC*%
X85085000Y-89525000D03*
%TO.P,U7112,5,Q*%
%TO.N,Net-(TP94-Pad1)*%
X87625000Y-89525000D03*
%TO.P,U7112,6,~{Q}*%
%TO.N,Net-(TP47-Pad1)*%
X90165000Y-89525000D03*
%TO.P,U7112,7,GND*%
%TO.N,GND*%
X92705000Y-89525000D03*
%TO.P,U7112,8,~{Q}*%
%TO.N,unconnected-(U7112-Pad8)*%
X92705000Y-81905000D03*
%TO.P,U7112,9,Q*%
%TO.N,Net-(TP96-Pad1)*%
X90165000Y-81905000D03*
%TO.P,U7112,10,~{S}*%
%TO.N,VCC*%
X87625000Y-81905000D03*
%TO.P,U7112,11,C*%
%TO.N,Net-(TP91-Pad1)*%
X85085000Y-81905000D03*
%TO.P,U7112,12,D*%
%TO.N,VCC*%
X82545000Y-81905000D03*
%TO.P,U7112,13,~{R}*%
%TO.N,Net-(TP95-Pad1)*%
X80005000Y-81905000D03*
%TO.P,U7112,14,VCC*%
%TO.N,VCC*%
X77465000Y-81905000D03*
%TD*%
D16*
%TO.P,C9,1*%
%TO.N,VCC*%
X148590000Y-61767323D03*
D17*
%TO.P,C9,2*%
%TO.N,GND*%
X148590000Y-66767323D03*
%TD*%
D12*
%TO.P,U7113,1,~{R}*%
%TO.N,Net-(TP50-Pad1)*%
X100325000Y-104765000D03*
D14*
%TO.P,U7113,2,D*%
%TO.N,Net-(R1-Pad2)*%
X102865000Y-104765000D03*
%TO.P,U7113,3,C*%
%TO.N,Net-(R1-Pad1)*%
X105405000Y-104765000D03*
%TO.P,U7113,4,~{S}*%
%TO.N,Net-(TP45-Pad1)*%
X107945000Y-104765000D03*
%TO.P,U7113,5,Q*%
%TO.N,Net-(TP54-Pad1)*%
X110485000Y-104765000D03*
%TO.P,U7113,6,~{Q}*%
%TO.N,unconnected-(U7113-Pad6)*%
X113025000Y-104765000D03*
%TO.P,U7113,7,GND*%
%TO.N,GND*%
X115565000Y-104765000D03*
%TO.P,U7113,8,~{Q}*%
%TO.N,unconnected-(U7113-Pad8)*%
X115565000Y-97145000D03*
%TO.P,U7113,9,Q*%
%TO.N,Net-(TP51-Pad1)*%
X113025000Y-97145000D03*
%TO.P,U7113,10,~{S}*%
%TO.N,Net-(TP41-Pad1)*%
X110485000Y-97145000D03*
%TO.P,U7113,11,C*%
%TO.N,/Data Clock*%
X107945000Y-97145000D03*
%TO.P,U7113,12,D*%
%TO.N,GND*%
X105405000Y-97145000D03*
%TO.P,U7113,13,~{R}*%
%TO.N,VCC*%
X102865000Y-97145000D03*
%TO.P,U7113,14,VCC*%
X100325000Y-97145000D03*
%TD*%
D12*
%TO.P,U7108,1*%
%TO.N,/~{DTR}*%
X77465000Y-104765000D03*
D14*
%TO.P,U7108,2*%
%TO.N,Net-(C4-Pad2)*%
X80005000Y-104765000D03*
%TO.P,U7108,3*%
%TO.N,Net-(TP93-Pad1)*%
X82545000Y-104765000D03*
%TO.P,U7108,4*%
%TO.N,/~{RD}*%
X85085000Y-104765000D03*
%TO.P,U7108,5*%
%TO.N,/DMA_ACK*%
X87625000Y-104765000D03*
%TO.P,U7108,6*%
%TO.N,/DMA_READ*%
X90165000Y-104765000D03*
%TO.P,U7108,7,GND*%
%TO.N,GND*%
X92705000Y-104765000D03*
%TO.P,U7108,8*%
%TO.N,/U7116-~{OE}*%
X92705000Y-97145000D03*
%TO.P,U7108,9*%
%TO.N,Net-(TP47-Pad1)*%
X90165000Y-97145000D03*
%TO.P,U7108,10*%
%TO.N,Net-(TP93-Pad1)*%
X87625000Y-97145000D03*
%TO.P,U7108,11*%
%TO.N,/U7117-~{OE}*%
X85085000Y-97145000D03*
%TO.P,U7108,12*%
%TO.N,Net-(TP93-Pad1)*%
X82545000Y-97145000D03*
%TO.P,U7108,13*%
%TO.N,Net-(TP94-Pad1)*%
X80005000Y-97145000D03*
%TO.P,U7108,14,VCC*%
%TO.N,VCC*%
X77465000Y-97145000D03*
%TD*%
D12*
%TO.P,U7116,1,QB*%
%TO.N,/MDB2*%
X148605000Y-89535000D03*
D14*
%TO.P,U7116,2,QC*%
%TO.N,/MDB3*%
X151145000Y-89535000D03*
%TO.P,U7116,3,QD*%
%TO.N,/MDB4*%
X153685000Y-89535000D03*
%TO.P,U7116,4,QE*%
%TO.N,/MDB5*%
X156225000Y-89535000D03*
%TO.P,U7116,5,QF*%
%TO.N,/MDB6*%
X158765000Y-89535000D03*
%TO.P,U7116,6,QG*%
%TO.N,/MDB7*%
X161305000Y-89535000D03*
%TO.P,U7116,7,QH*%
%TO.N,/MDB8*%
X163845000Y-89535000D03*
%TO.P,U7116,8,GND*%
%TO.N,GND*%
X166385000Y-89535000D03*
%TO.P,U7116,9,QH'*%
%TO.N,Net-(TP74-Pad1)*%
X166385000Y-81915000D03*
%TO.P,U7116,10,~{SRCLR}*%
%TO.N,VCC*%
X163845000Y-81915000D03*
%TO.P,U7116,11,SRCLK*%
%TO.N,/Data Clock*%
X161305000Y-81915000D03*
%TO.P,U7116,12,RCLK*%
%TO.N,Net-(TP91-Pad1)*%
X158765000Y-81915000D03*
%TO.P,U7116,13,~{OE}*%
%TO.N,/U7116-~{OE}*%
X156225000Y-81915000D03*
%TO.P,U7116,14,SER*%
%TO.N,/Data*%
X153685000Y-81915000D03*
%TO.P,U7116,15,QA*%
%TO.N,/MDB1*%
X151145000Y-81915000D03*
%TO.P,U7116,16,VCC*%
%TO.N,VCC*%
X148605000Y-81915000D03*
%TD*%
D12*
%TO.P,U7121,1*%
%TO.N,/Data Clock-*%
X172735000Y-104765000D03*
D14*
%TO.P,U7121,2*%
%TO.N,/Data Clock+*%
X175275000Y-104765000D03*
%TO.P,U7121,3*%
%TO.N,/Data Clock*%
X177815000Y-104765000D03*
%TO.P,U7121,4*%
%TO.N,GND*%
X180355000Y-104765000D03*
%TO.P,U7121,5*%
%TO.N,/Data*%
X182895000Y-104765000D03*
%TO.P,U7121,6*%
%TO.N,/Data+*%
X185435000Y-104765000D03*
%TO.P,U7121,7*%
%TO.N,/Data-*%
X187975000Y-104765000D03*
%TO.P,U7121,8,GND*%
%TO.N,GND*%
X190515000Y-104765000D03*
%TO.P,U7121,9*%
%TO.N,/Response-*%
X190515000Y-97145000D03*
%TO.P,U7121,10*%
%TO.N,/Response+*%
X187975000Y-97145000D03*
%TO.P,U7121,11*%
%TO.N,/Response*%
X185435000Y-97145000D03*
%TO.P,U7121,12*%
%TO.N,/CLKp3*%
X182895000Y-97145000D03*
%TO.P,U7121,13*%
%TO.N,/Attention*%
X180355000Y-97145000D03*
%TO.P,U7121,14*%
%TO.N,/Attention+*%
X177815000Y-97145000D03*
%TO.P,U7121,15*%
%TO.N,/Attention-*%
X175275000Y-97145000D03*
%TO.P,U7121,16,VCC*%
%TO.N,VCC*%
X172735000Y-97145000D03*
%TD*%
D12*
%TO.P,U7111,1*%
%TO.N,Net-(TP26-Pad1)*%
X123185000Y-104775000D03*
D14*
%TO.P,U7111,2*%
%TO.N,Net-(TP54-Pad1)*%
X125725000Y-104775000D03*
%TO.P,U7111,3*%
%TO.N,/MDB1*%
X128265000Y-104775000D03*
%TO.P,U7111,4*%
%TO.N,/~{DTR}*%
X130805000Y-104775000D03*
%TO.P,U7111,5*%
%TO.N,Net-(TP96-Pad1)*%
X133345000Y-104775000D03*
%TO.P,U7111,6*%
%TO.N,/DRQ3*%
X135885000Y-104775000D03*
%TO.P,U7111,7,GND*%
%TO.N,GND*%
X138425000Y-104775000D03*
%TO.P,U7111,8*%
%TO.N,/RXD*%
X138425000Y-97155000D03*
%TO.P,U7111,9*%
%TO.N,/Command*%
X135885000Y-97155000D03*
%TO.P,U7111,10*%
%TO.N,Net-(TP88-Pad1)*%
X133345000Y-97155000D03*
%TO.P,U7111,11*%
%TO.N,Net-(R1-Pad1)*%
X130805000Y-97155000D03*
%TO.P,U7111,12*%
%TO.N,Net-(TP57-Pad1)*%
X128265000Y-97155000D03*
%TO.P,U7111,13*%
%TO.N,Net-(TP97-Pad1)*%
X125725000Y-97155000D03*
%TO.P,U7111,14,VCC*%
%TO.N,VCC*%
X123185000Y-97155000D03*
%TD*%
D12*
%TO.P,U7114,1,~{CP}*%
%TO.N,Net-(C7-Pad1)*%
X121280000Y-70475000D03*
D14*
%TO.P,U7114,2,MR*%
%TO.N,GND*%
X123820000Y-70475000D03*
%TO.P,U7114,3,Q6*%
%TO.N,unconnected-(U7114-Pad3)*%
X126360000Y-70475000D03*
%TO.P,U7114,4,Q5*%
%TO.N,unconnected-(U7114-Pad4)*%
X128900000Y-70475000D03*
%TO.P,U7114,5,Q4*%
%TO.N,unconnected-(U7114-Pad5)*%
X131440000Y-70475000D03*
%TO.P,U7114,6,Q3*%
%TO.N,/CLKp3*%
X133980000Y-70475000D03*
%TO.P,U7114,7,GND*%
%TO.N,GND*%
X136520000Y-70475000D03*
%TO.P,U7114,8*%
%TO.N,unconnected-(U7114-Pad8)*%
X136520000Y-62855000D03*
%TO.P,U7114,9,Q2*%
%TO.N,unconnected-(U7114-Pad9)*%
X133980000Y-62855000D03*
%TO.P,U7114,10*%
%TO.N,unconnected-(U7114-Pad10)*%
X131440000Y-62855000D03*
%TO.P,U7114,11,Q1*%
%TO.N,unconnected-(U7114-Pad11)*%
X128900000Y-62855000D03*
%TO.P,U7114,12,Q0*%
%TO.N,/CLKp0*%
X126360000Y-62855000D03*
%TO.P,U7114,13*%
%TO.N,unconnected-(U7114-Pad13)*%
X123820000Y-62855000D03*
%TO.P,U7114,14,VCC*%
%TO.N,VCC*%
X121280000Y-62855000D03*
%TD*%
D12*
%TO.P,U7101,1,A->B*%
%TO.N,/~{RD}*%
X156210000Y-135255000D03*
D14*
%TO.P,U7101,2,A0*%
%TO.N,/D0*%
X158750000Y-135255000D03*
%TO.P,U7101,3,A1*%
%TO.N,/D1*%
X161290000Y-135255000D03*
%TO.P,U7101,4,A2*%
%TO.N,/D2*%
X163830000Y-135255000D03*
%TO.P,U7101,5,A3*%
%TO.N,/D3*%
X166370000Y-135255000D03*
%TO.P,U7101,6,A4*%
%TO.N,/D4*%
X168910000Y-135255000D03*
%TO.P,U7101,7,A5*%
%TO.N,/D5*%
X171450000Y-135255000D03*
%TO.P,U7101,8,A6*%
%TO.N,/D6*%
X173990000Y-135255000D03*
%TO.P,U7101,9,A7*%
%TO.N,/D7*%
X176530000Y-135255000D03*
%TO.P,U7101,10,GND*%
%TO.N,GND*%
X179070000Y-135255000D03*
%TO.P,U7101,11,B7*%
%TO.N,/MDB1*%
X179070000Y-127635000D03*
%TO.P,U7101,12,B6*%
%TO.N,/MDB2*%
X176530000Y-127635000D03*
%TO.P,U7101,13,B5*%
%TO.N,/MDB3*%
X173990000Y-127635000D03*
%TO.P,U7101,14,B4*%
%TO.N,/MDB4*%
X171450000Y-127635000D03*
%TO.P,U7101,15,B3*%
%TO.N,/MDB5*%
X168910000Y-127635000D03*
%TO.P,U7101,16,B2*%
%TO.N,/MDB6*%
X166370000Y-127635000D03*
%TO.P,U7101,17,B1*%
%TO.N,/MDB7*%
X163830000Y-127635000D03*
%TO.P,U7101,18,B0*%
%TO.N,/MDB8*%
X161290000Y-127635000D03*
%TO.P,U7101,19,CE*%
%TO.N,Net-(TP14-Pad1)*%
X158750000Y-127635000D03*
%TO.P,U7101,20,VCC*%
%TO.N,VCC*%
X156210000Y-127635000D03*
%TD*%
D12*
%TO.P,U7120,1*%
%TO.N,VCC*%
X172735000Y-89535000D03*
D14*
%TO.P,U7120,2*%
%TO.N,unconnected-(U7120-Pad2)*%
X175275000Y-89535000D03*
%TO.P,U7120,3*%
%TO.N,unconnected-(U7120-Pad3)*%
X177815000Y-89535000D03*
%TO.P,U7120,4*%
%TO.N,GND*%
X180355000Y-89535000D03*
%TO.P,U7120,5*%
%TO.N,unconnected-(U7120-Pad5)*%
X182895000Y-89535000D03*
%TO.P,U7120,6*%
%TO.N,unconnected-(U7120-Pad6)*%
X185435000Y-89535000D03*
%TO.P,U7120,7*%
%TO.N,VCC*%
X187975000Y-89535000D03*
%TO.P,U7120,8,GND*%
%TO.N,GND*%
X190515000Y-89535000D03*
%TO.P,U7120,9*%
%TO.N,/Command*%
X190515000Y-81915000D03*
%TO.P,U7120,10*%
%TO.N,/Command+*%
X187975000Y-81915000D03*
%TO.P,U7120,11*%
%TO.N,/Command-*%
X185435000Y-81915000D03*
%TO.P,U7120,12*%
%TO.N,GND*%
X182895000Y-81915000D03*
%TO.P,U7120,13*%
%TO.N,unconnected-(U7120-Pad13)*%
X180355000Y-81915000D03*
%TO.P,U7120,14*%
%TO.N,unconnected-(U7120-Pad14)*%
X177815000Y-81915000D03*
%TO.P,U7120,15*%
%TO.N,VCC*%
X175275000Y-81915000D03*
%TO.P,U7120,16,VCC*%
X172735000Y-81915000D03*
%TD*%
D18*
%TO.P,X2,1,Pin_1*%
%TO.N,Net-(TP33-Pad1)*%
X106690000Y-117480000D03*
D19*
%TO.P,X2,2,Pin_2*%
%TO.N,/IOSEL*%
X106690000Y-114940000D03*
%TO.P,X2,3,Pin_3*%
%TO.N,Net-(TP34-Pad1)*%
X109230000Y-117480000D03*
%TO.P,X2,4,Pin_4*%
%TO.N,/IOSEL*%
X109230000Y-114940000D03*
%TO.P,X2,5,Pin_5*%
%TO.N,Net-(TP35-Pad1)*%
X111770000Y-117480000D03*
%TO.P,X2,6,Pin_6*%
%TO.N,/IOSEL*%
X111770000Y-114940000D03*
%TO.P,X2,7,Pin_7*%
%TO.N,Net-(TP36-Pad1)*%
X114310000Y-117480000D03*
%TO.P,X2,8,Pin_8*%
%TO.N,/IOSEL*%
X114310000Y-114940000D03*
%TD*%
D12*
%TO.P,U7109,1,OEa*%
%TO.N,Net-(TP88-Pad1)*%
X123205000Y-89545000D03*
D14*
%TO.P,U7109,2,I1*%
%TO.N,Net-(TP53-Pad1)*%
X125745000Y-89545000D03*
%TO.P,U7109,3,O1a*%
%TO.N,Net-(TP89-Pad1)*%
X128285000Y-89545000D03*
%TO.P,U7109,4,I2*%
%TO.N,Net-(TP108-Pad1)*%
X130825000Y-89545000D03*
%TO.P,U7109,5,O2a*%
%TO.N,/Data*%
X133365000Y-89545000D03*
%TO.P,U7109,6,I3*%
%TO.N,Net-(TP89-Pad1)*%
X135905000Y-89545000D03*
%TO.P,U7109,7,O3a*%
%TO.N,/Data Clock*%
X138445000Y-89545000D03*
%TO.P,U7109,8,GND*%
%TO.N,GND*%
X140985000Y-89545000D03*
%TO.P,U7109,9,O4a*%
%TO.N,/Attention*%
X140985000Y-81925000D03*
%TO.P,U7109,10,I4*%
%TO.N,Net-(TP103-Pad1)*%
X138445000Y-81925000D03*
%TO.P,U7109,11,O5b*%
%TO.N,Net-(TP101-Pad1)*%
X135905000Y-81925000D03*
%TO.P,U7109,12,I5*%
%TO.N,/Attention*%
X133365000Y-81925000D03*
%TO.P,U7109,13,O6b*%
%TO.N,Net-(TP105-Pad1)*%
X130825000Y-81925000D03*
%TO.P,U7109,14,I6*%
%TO.N,Net-(TP41-Pad1)*%
X128285000Y-81925000D03*
%TO.P,U7109,15,OEb*%
%TO.N,GND*%
X125745000Y-81925000D03*
%TO.P,U7109,16,VCC*%
%TO.N,VCC*%
X123205000Y-81925000D03*
%TD*%
D12*
%TO.P,U7115,1,~{CP}*%
%TO.N,Net-(TP100-Pad1)*%
X77470000Y-70475000D03*
D14*
%TO.P,U7115,2,MR*%
%TO.N,Net-(TP105-Pad1)*%
X80010000Y-70475000D03*
%TO.P,U7115,3,Q6*%
%TO.N,Net-(TP103-Pad1)*%
X82550000Y-70475000D03*
%TO.P,U7115,4,Q5*%
%TO.N,Net-(TP104-Pad1)*%
X85090000Y-70475000D03*
%TO.P,U7115,5,Q4*%
%TO.N,unconnected-(U7115-Pad5)*%
X87630000Y-70475000D03*
%TO.P,U7115,6,Q3*%
%TO.N,Net-(TP107-Pad1)*%
X90170000Y-70475000D03*
%TO.P,U7115,7,GND*%
%TO.N,GND*%
X92710000Y-70475000D03*
%TO.P,U7115,8*%
%TO.N,unconnected-(U7115-Pad8)*%
X92710000Y-62855000D03*
%TO.P,U7115,9,Q2*%
%TO.N,Net-(TP106-Pad1)*%
X90170000Y-62855000D03*
%TO.P,U7115,10*%
%TO.N,unconnected-(U7115-Pad10)*%
X87630000Y-62855000D03*
%TO.P,U7115,11,Q1*%
%TO.N,unconnected-(U7115-Pad11)*%
X85090000Y-62855000D03*
%TO.P,U7115,12,Q0*%
%TO.N,Net-(TP108-Pad1)*%
X82550000Y-62855000D03*
%TO.P,U7115,13*%
%TO.N,unconnected-(U7115-Pad13)*%
X80010000Y-62855000D03*
%TO.P,U7115,14,VCC*%
%TO.N,VCC*%
X77470000Y-62855000D03*
%TD*%
D20*
%TO.P,X-TAL1,1,1*%
%TO.N,Net-(C5-Pad2)*%
X106680000Y-74295000D03*
%TO.P,X-TAL1,2,2*%
%TO.N,Net-(C6-Pad2)*%
X102880000Y-74295000D03*
%TD*%
D12*
%TO.P,U7117,1,QB*%
%TO.N,/MDB2*%
X148605000Y-104765000D03*
D14*
%TO.P,U7117,2,QC*%
%TO.N,/MDB3*%
X151145000Y-104765000D03*
%TO.P,U7117,3,QD*%
%TO.N,/MDB4*%
X153685000Y-104765000D03*
%TO.P,U7117,4,QE*%
%TO.N,/MDB5*%
X156225000Y-104765000D03*
%TO.P,U7117,5,QF*%
%TO.N,/MDB6*%
X158765000Y-104765000D03*
%TO.P,U7117,6,QG*%
%TO.N,/MDB7*%
X161305000Y-104765000D03*
%TO.P,U7117,7,QH*%
%TO.N,/MDB8*%
X163845000Y-104765000D03*
%TO.P,U7117,8,GND*%
%TO.N,GND*%
X166385000Y-104765000D03*
%TO.P,U7117,9,QH'*%
%TO.N,unconnected-(U7117-Pad9)*%
X166385000Y-97145000D03*
%TO.P,U7117,10,~{SRCLR}*%
%TO.N,VCC*%
X163845000Y-97145000D03*
%TO.P,U7117,11,SRCLK*%
%TO.N,/Data Clock*%
X161305000Y-97145000D03*
%TO.P,U7117,12,RCLK*%
%TO.N,Net-(TP91-Pad1)*%
X158765000Y-97145000D03*
%TO.P,U7117,13,~{OE}*%
%TO.N,/U7117-~{OE}*%
X156225000Y-97145000D03*
%TO.P,U7117,14,SER*%
%TO.N,Net-(TP74-Pad1)*%
X153685000Y-97145000D03*
%TO.P,U7117,15,QA*%
%TO.N,/MDB1*%
X151145000Y-97145000D03*
%TO.P,U7117,16,VCC*%
%TO.N,VCC*%
X148605000Y-97145000D03*
%TD*%
D12*
%TO.P,U7118,1,QB*%
%TO.N,/MDB2*%
X148605000Y-120005000D03*
D14*
%TO.P,U7118,2,QC*%
%TO.N,/MDB3*%
X151145000Y-120005000D03*
%TO.P,U7118,3,QD*%
%TO.N,/MDB4*%
X153685000Y-120005000D03*
%TO.P,U7118,4,QE*%
%TO.N,/MDB5*%
X156225000Y-120005000D03*
%TO.P,U7118,5,QF*%
%TO.N,/MDB6*%
X158765000Y-120005000D03*
%TO.P,U7118,6,QG*%
%TO.N,/MDB7*%
X161305000Y-120005000D03*
%TO.P,U7118,7,QH*%
%TO.N,/MDB8*%
X163845000Y-120005000D03*
%TO.P,U7118,8,GND*%
%TO.N,GND*%
X166385000Y-120005000D03*
%TO.P,U7118,9,QH'*%
%TO.N,unconnected-(U7118-Pad9)*%
X166385000Y-112385000D03*
%TO.P,U7118,10,~{SRCLR}*%
%TO.N,VCC*%
X163845000Y-112385000D03*
%TO.P,U7118,11,SRCLK*%
%TO.N,Net-(TP106-Pad1)*%
X161305000Y-112385000D03*
%TO.P,U7118,12,RCLK*%
%TO.N,Net-(TP57-Pad1)*%
X158765000Y-112385000D03*
%TO.P,U7118,13,~{OE}*%
%TO.N,Net-(TP50-Pad1)*%
X156225000Y-112385000D03*
%TO.P,U7118,14,SER*%
%TO.N,/Attention*%
X153685000Y-112385000D03*
%TO.P,U7118,15,QA*%
%TO.N,/MDB1*%
X151145000Y-112385000D03*
%TO.P,U7118,16,VCC*%
%TO.N,VCC*%
X148605000Y-112385000D03*
%TD*%
D18*
%TO.P,X5,1,Pin_1*%
%TO.N,/Response*%
X198120000Y-59055000D03*
D19*
%TO.P,X5,2,Pin_2*%
%TO.N,GND*%
X200660000Y-59055000D03*
%TO.P,X5,3,Pin_3*%
%TO.N,/Command*%
X198120000Y-61595000D03*
%TO.P,X5,4,Pin_4*%
%TO.N,GND*%
X200660000Y-61595000D03*
%TO.P,X5,5,Pin_5*%
%TO.N,/Data*%
X198120000Y-64135000D03*
%TO.P,X5,6,Pin_6*%
%TO.N,unconnected-(X5-Pad6)*%
X200660000Y-64135000D03*
%TO.P,X5,7,Pin_7*%
%TO.N,/Data Clock*%
X198120000Y-66675000D03*
%TO.P,X5,8,Pin_8*%
%TO.N,unconnected-(X5-Pad8)*%
X200660000Y-66675000D03*
%TO.P,X5,9,Pin_9*%
%TO.N,/Attention*%
X198120000Y-69215000D03*
%TO.P,X5,10,Pin_10*%
%TO.N,unconnected-(X5-Pad10)*%
X200660000Y-69215000D03*
%TO.P,X5,11,Pin_11*%
%TO.N,unconnected-(X5-Pad11)*%
X198120000Y-71755000D03*
%TO.P,X5,12,Pin_12*%
%TO.N,unconnected-(X5-Pad12)*%
X200660000Y-71755000D03*
%TO.P,X5,13,Pin_13*%
%TO.N,unconnected-(X5-Pad13)*%
X198120000Y-74295000D03*
%TO.P,X5,14,Pin_14*%
%TO.N,unconnected-(X5-Pad14)*%
X200660000Y-74295000D03*
%TO.P,X5,15,Pin_15*%
%TO.N,GND*%
X198120000Y-76835000D03*
%TO.P,X5,16,Pin_16*%
X200660000Y-76835000D03*
%TD*%
D12*
%TO.P,U7106,1*%
%TO.N,Net-(TP56-Pad1)*%
X123185000Y-120005000D03*
D14*
%TO.P,U7106,2*%
%TO.N,Net-(TP93-Pad1)*%
X125725000Y-120005000D03*
%TO.P,U7106,3*%
%TO.N,Net-(TP14-Pad1)*%
X128265000Y-120005000D03*
%TO.P,U7106,4*%
%TO.N,/~{RD}*%
X130805000Y-120005000D03*
%TO.P,U7106,5*%
%TO.N,/~{WR}*%
X133345000Y-120005000D03*
%TO.P,U7106,6*%
%TO.N,/IOACT*%
X135885000Y-120005000D03*
%TO.P,U7106,7,GND*%
%TO.N,GND*%
X138425000Y-120005000D03*
%TO.P,U7106,8*%
%TO.N,Net-(TP32-Pad1)*%
X138425000Y-112385000D03*
%TO.P,U7106,9*%
%TO.N,/A9b*%
X135885000Y-112385000D03*
%TO.P,U7106,10*%
%TO.N,/A8b*%
X133345000Y-112385000D03*
%TO.P,U7106,11*%
%TO.N,Net-(TP95-Pad1)*%
X130805000Y-112385000D03*
%TO.P,U7106,12*%
%TO.N,Net-(TP41-Pad1)*%
X128265000Y-112385000D03*
%TO.P,U7106,13*%
%TO.N,Net-(TP47-Pad1)*%
X125725000Y-112385000D03*
%TO.P,U7106,14,VCC*%
%TO.N,VCC*%
X123185000Y-112385000D03*
%TD*%
D12*
%TO.P,U7119,1,D2*%
%TO.N,/MDB6*%
X158100000Y-74300000D03*
D14*
%TO.P,U7119,2,D3*%
%TO.N,/MDB5*%
X160640000Y-74300000D03*
%TO.P,U7119,3,RXD*%
%TO.N,/RXD*%
X163180000Y-74300000D03*
%TO.P,U7119,4,GND*%
%TO.N,GND*%
X165720000Y-74300000D03*
%TO.P,U7119,5,D4*%
%TO.N,/MDB4*%
X168260000Y-74300000D03*
%TO.P,U7119,6,D5*%
%TO.N,/MDB3*%
X170800000Y-74300000D03*
%TO.P,U7119,7,D6*%
%TO.N,/MDB2*%
X173340000Y-74300000D03*
%TO.P,U7119,8,D7*%
%TO.N,/MDB1*%
X175880000Y-74300000D03*
%TO.P,U7119,9,~{TXC}*%
%TO.N,/CLKp3*%
X178420000Y-74300000D03*
%TO.P,U7119,10,~{WR}*%
%TO.N,/~{WR}*%
X180960000Y-74300000D03*
%TO.P,U7119,11,~{CS}*%
%TO.N,/UART-~{CS}*%
X183500000Y-74300000D03*
%TO.P,U7119,12,C/~{D}*%
%TO.N,/A0b*%
X186040000Y-74300000D03*
%TO.P,U7119,13,~{RD}*%
%TO.N,/~{RD}*%
X188580000Y-74300000D03*
%TO.P,U7119,14,RXRDY*%
%TO.N,unconnected-(U7119-Pad14)*%
X191120000Y-74300000D03*
%TO.P,U7119,15,TXRDY*%
%TO.N,unconnected-(U7119-Pad15)*%
X191120000Y-59060000D03*
%TO.P,U7119,16,SYNDET*%
%TO.N,unconnected-(U7119-Pad16)*%
X188580000Y-59060000D03*
%TO.P,U7119,17,~{CTS}*%
%TO.N,GND*%
X186040000Y-59060000D03*
%TO.P,U7119,18,TXE*%
%TO.N,unconnected-(U7119-Pad18)*%
X183500000Y-59060000D03*
%TO.P,U7119,19,TXD*%
%TO.N,/Command*%
X180960000Y-59060000D03*
%TO.P,U7119,20,CLK*%
%TO.N,/CLKp0*%
X178420000Y-59060000D03*
%TO.P,U7119,21,RESET*%
%TO.N,/RESETDRV*%
X175880000Y-59060000D03*
%TO.P,U7119,22,~{DSR}*%
%TO.N,/Attention*%
X173340000Y-59060000D03*
%TO.P,U7119,23,~{RTS}*%
%TO.N,/~{RTS}*%
X170800000Y-59060000D03*
%TO.P,U7119,24,~{DTR}*%
%TO.N,/~{DTR}*%
X168260000Y-59060000D03*
%TO.P,U7119,25,~{RXC}*%
%TO.N,/CLKp3*%
X165720000Y-59060000D03*
%TO.P,U7119,26,Vcc*%
%TO.N,VCC*%
X163180000Y-59060000D03*
%TO.P,U7119,27,D0*%
%TO.N,/MDB8*%
X160640000Y-59060000D03*
%TO.P,U7119,28,D1*%
%TO.N,/MDB7*%
X158100000Y-59060000D03*
%TD*%
D12*
%TO.P,U7110,1*%
%TO.N,Net-(TP107-Pad1)*%
X100325000Y-89525000D03*
D14*
%TO.P,U7110,2*%
%TO.N,Net-(TP91-Pad1)*%
X102865000Y-89525000D03*
%TO.P,U7110,3*%
%TO.N,/~{RTS}*%
X105405000Y-89525000D03*
%TO.P,U7110,4*%
%TO.N,Net-(TP97-Pad1)*%
X107945000Y-89525000D03*
%TO.P,U7110,5*%
%TO.N,/~{DTR}*%
X110485000Y-89525000D03*
%TO.P,U7110,6*%
%TO.N,Net-(TP88-Pad1)*%
X113025000Y-89525000D03*
%TO.P,U7110,7,GND*%
%TO.N,GND*%
X115565000Y-89525000D03*
%TO.P,U7110,8*%
%TO.N,Net-(R3-Pad2)*%
X115565000Y-81905000D03*
%TO.P,U7110,9*%
%TO.N,Net-(C6-Pad2)*%
X113025000Y-81905000D03*
%TO.P,U7110,10*%
X110485000Y-81905000D03*
%TO.P,U7110,11*%
%TO.N,Net-(C5-Pad2)*%
X107945000Y-81905000D03*
%TO.P,U7110,12*%
%TO.N,Net-(TP57-Pad1)*%
X105405000Y-81905000D03*
%TO.P,U7110,13*%
%TO.N,Net-(TP104-Pad1)*%
X102865000Y-81905000D03*
%TO.P,U7110,14,VCC*%
%TO.N,VCC*%
X100325000Y-81905000D03*
%TD*%
D12*
%TO.P,U7107,1*%
%TO.N,/Data Clock*%
X77465000Y-120005000D03*
D14*
%TO.P,U7107,2*%
%TO.N,Net-(TP51-Pad1)*%
X80005000Y-120005000D03*
%TO.P,U7107,3*%
%TO.N,Net-(TP100-Pad1)*%
X82545000Y-120005000D03*
%TO.P,U7107,4*%
%TO.N,/IOACT*%
X85085000Y-120005000D03*
%TO.P,U7107,5*%
%TO.N,/IOSEL*%
X87625000Y-120005000D03*
%TO.P,U7107,6*%
%TO.N,Net-(TP56-Pad1)*%
X90165000Y-120005000D03*
%TO.P,U7107,7,GND*%
%TO.N,GND*%
X92705000Y-120005000D03*
%TO.P,U7107,8*%
%TO.N,Net-(TP45-Pad1)*%
X92705000Y-112385000D03*
%TO.P,U7107,9*%
%TO.N,Net-(TP101-Pad1)*%
X90165000Y-112385000D03*
%TO.P,U7107,10*%
%TO.N,Net-(TP44-Pad1)*%
X87625000Y-112385000D03*
%TO.P,U7107,11*%
X85085000Y-112385000D03*
%TO.P,U7107,12*%
%TO.N,/~{RTS}*%
X82545000Y-112385000D03*
%TO.P,U7107,13*%
%TO.N,Net-(TP51-Pad1)*%
X80005000Y-112385000D03*
%TO.P,U7107,14,VCC*%
%TO.N,VCC*%
X77465000Y-112385000D03*
%TD*%
D21*
%TO.N,/A0*%
X106680000Y-140335000D03*
%TO.N,/A1*%
X109220000Y-132080000D03*
X109220000Y-139889500D03*
%TO.N,/A3*%
X119380000Y-126365000D03*
X114935000Y-139700000D03*
X101600000Y-126365000D03*
%TO.N,/A8*%
X131445000Y-137160000D03*
%TO.N,/AEN*%
X157480000Y-125730000D03*
X157480000Y-137160000D03*
%TO.N,/D7*%
X184150000Y-139065000D03*
%TO.N,/~{IOW}*%
X152400000Y-137795000D03*
X146050000Y-137795000D03*
%TO.N,GND*%
X193675000Y-102870000D03*
X170434000Y-118110000D03*
X125730000Y-87630000D03*
X138430000Y-118110000D03*
X106680000Y-87630000D03*
X110324166Y-68491834D03*
X100495834Y-68491834D03*
X136436834Y-68491834D03*
X184150000Y-102870000D03*
X185966834Y-68491834D03*
X182880000Y-87630000D03*
X193675000Y-87630000D03*
X165646834Y-68491834D03*
X193675000Y-76835000D03*
X185166000Y-118110000D03*
X193675000Y-118110000D03*
X99314000Y-87630000D03*
X178562000Y-118110000D03*
X185674000Y-133350000D03*
X193675000Y-68580000D03*
X119126000Y-87630000D03*
X138430000Y-102870000D03*
X76157265Y-103601396D03*
X193675000Y-133350000D03*
X130810000Y-133350000D03*
D22*
%TO.N,VCC*%
X180975000Y-129540000D03*
D21*
X73660000Y-99060000D03*
D22*
X85090000Y-83820000D03*
X172720000Y-83820000D03*
X187325000Y-130810000D03*
D21*
X73660000Y-64770000D03*
D22*
X187960000Y-83820000D03*
D21*
X73660000Y-114300000D03*
X73660000Y-129540000D03*
D22*
X185420000Y-114300000D03*
X90170000Y-129540000D03*
X163195000Y-61595000D03*
X100840989Y-83820000D03*
X139700000Y-99060000D03*
X177800000Y-129540000D03*
X139354500Y-114300000D03*
D21*
X73660000Y-83820000D03*
D22*
X137922000Y-64770000D03*
D21*
%TO.N,/RESETDRV*%
X179070000Y-94615000D03*
X182880000Y-137795000D03*
X169545000Y-97155000D03*
X179070000Y-137795000D03*
%TO.N,Net-(C4-Pad2)*%
X84836000Y-102616000D03*
%TO.N,Net-(C6-Pad2)*%
X102616000Y-79756000D03*
%TO.N,/Response-*%
X191770000Y-113665000D03*
X183515000Y-116205000D03*
%TO.N,/Data-*%
X174625000Y-120650000D03*
%TO.N,/Data Clock-*%
X174625000Y-121920000D03*
%TO.N,/Attention-*%
X195580000Y-99060000D03*
X190500000Y-128016000D03*
X196925000Y-124300000D03*
%TO.N,/Response+*%
X190500000Y-113665000D03*
%TO.N,/Data+*%
X190500000Y-116205000D03*
%TO.N,/Data Clock+*%
X190500000Y-125730000D03*
X175895000Y-125730000D03*
X190500000Y-121285000D03*
%TO.N,/Attention+*%
X182245000Y-123825000D03*
%TO.N,/MDB1*%
X151130000Y-74930000D03*
X151130000Y-100965000D03*
X151765000Y-131445000D03*
X179070000Y-131445000D03*
X128905000Y-100965000D03*
%TO.N,/MDB2*%
X147320000Y-76200000D03*
X176530000Y-111125000D03*
X160655000Y-110490000D03*
X160020000Y-106680000D03*
%TO.N,/MDB3*%
X171450000Y-94615000D03*
X151130000Y-124460000D03*
X149860000Y-95885000D03*
%TO.N,/MDB4*%
X168275000Y-97155000D03*
X152414999Y-96499782D03*
X154940000Y-132080000D03*
X171450000Y-132080000D03*
%TO.N,/MDB5*%
X154940000Y-73660000D03*
X167005000Y-121920000D03*
%TO.N,/MDB6*%
X159385000Y-123190000D03*
X165100000Y-123190000D03*
%TO.N,/MDB7*%
X161290000Y-125730000D03*
%TO.N,/MDB8*%
X169545000Y-91440000D03*
X169545000Y-63500000D03*
X160655000Y-63500000D03*
%TO.N,/AENb*%
X113665000Y-132080000D03*
X148590000Y-132080000D03*
%TO.N,/~{RD}*%
X144780000Y-121920000D03*
X176530000Y-109220000D03*
X176530000Y-76200000D03*
X132080000Y-109220000D03*
X85090000Y-109220000D03*
%TO.N,/A9b*%
X142875000Y-111760000D03*
%TO.N,/IOACT*%
X135890000Y-125095000D03*
X83820000Y-125095000D03*
%TO.N,/DMA_ACK*%
X88900000Y-130810000D03*
X143510000Y-130810000D03*
%TO.N,/~{WR}*%
X133350000Y-123190000D03*
X173355000Y-77470000D03*
X180975000Y-77470000D03*
X146685000Y-123190000D03*
X146685000Y-116205000D03*
X173990000Y-116205000D03*
%TO.N,Net-(TP74-Pad1)*%
X165100000Y-107950000D03*
X154940000Y-107950000D03*
%TO.N,/CLKp3*%
X178435000Y-60960000D03*
X178435000Y-65405000D03*
X133985000Y-66675000D03*
X187325000Y-65405000D03*
%TO.N,/~{DTR}*%
X132080000Y-74930000D03*
X168275000Y-64770000D03*
X77470000Y-107950000D03*
X111760000Y-107770980D03*
X153670000Y-64770000D03*
X153670000Y-72579500D03*
%TO.N,/A0b*%
X137160000Y-73660000D03*
%TO.N,/UART-~{CS}*%
X95250000Y-123190000D03*
X141605000Y-60960000D03*
X95250000Y-60960000D03*
X183515000Y-70485000D03*
X141605000Y-70485000D03*
%TO.N,/CLKp0*%
X126365000Y-57150000D03*
%TO.N,/~{RTS}*%
X83820000Y-93980000D03*
X104140000Y-94615000D03*
%TO.N,/Data*%
X133350000Y-85725000D03*
X181610000Y-85725000D03*
X182245000Y-64135000D03*
X153670000Y-85725000D03*
%TO.N,/Attention*%
X195580000Y-78740000D03*
X174625000Y-78740000D03*
X146050000Y-81915000D03*
X191770000Y-100330000D03*
X146050000Y-111760000D03*
X180340000Y-100330000D03*
X191770000Y-78740000D03*
%TO.N,Net-(TP88-Pad1)*%
X123190000Y-94615000D03*
%TO.N,/RXD*%
X163195000Y-80010000D03*
X142240000Y-80010000D03*
%TO.N,Net-(R1-Pad1)*%
X106680000Y-95885000D03*
%TO.N,Net-(TP91-Pad1)*%
X152400000Y-80645000D03*
X117348000Y-86360000D03*
X152400000Y-77470000D03*
X86360000Y-85725000D03*
X117475000Y-77470000D03*
X102870000Y-85725000D03*
%TO.N,Net-(TP93-Pad1)*%
X124460000Y-109665500D03*
X82550000Y-109855000D03*
%TO.N,Net-(TP94-Pad1)*%
X80010000Y-92075000D03*
X87630000Y-92075000D03*
%TO.N,Net-(TP95-Pad1)*%
X76200000Y-100330000D03*
%TO.N,/Command*%
X189230000Y-93345000D03*
X191135000Y-61595000D03*
X180975000Y-61595000D03*
%TO.N,Net-(TP96-Pad1)*%
X91440000Y-90805000D03*
X134620000Y-94615000D03*
%TO.N,Net-(TP97-Pad1)*%
X125095000Y-93980000D03*
X109220000Y-93980000D03*
%TO.N,Net-(TP101-Pad1)*%
X135890000Y-73025000D03*
X88900000Y-73025000D03*
%TO.N,/Command+*%
X197104000Y-81788000D03*
%TO.N,/Command-*%
X203200000Y-81788000D03*
%TO.N,/Response*%
X180340000Y-80010000D03*
X179705000Y-60325000D03*
X184150000Y-80010000D03*
X179705000Y-72390000D03*
%TO.N,Net-(TP14-Pad1)*%
X157480000Y-123190000D03*
%TO.N,/U7116-~{OE}*%
X155575000Y-59690000D03*
X93980000Y-59690000D03*
%TO.N,Net-(TP103-Pad1)*%
X138430000Y-71755000D03*
%TO.N,Net-(TP104-Pad1)*%
X85090000Y-77470000D03*
X104140000Y-77470000D03*
%TO.N,Net-(TP26-Pad1)*%
X121285000Y-123825000D03*
X86360000Y-123190000D03*
%TO.N,Net-(TP32-Pad1)*%
X138430000Y-116205000D03*
X116840000Y-116205000D03*
%TO.N,/U7117-~{OE}*%
X157480000Y-107125500D03*
X96520000Y-92075000D03*
X99060000Y-123190000D03*
X98425000Y-105410000D03*
X85090000Y-93345000D03*
X132080000Y-106680000D03*
X95885000Y-105410000D03*
X125730000Y-123190000D03*
%TO.N,Net-(TP106-Pad1)*%
X144780000Y-93980000D03*
X169099500Y-93980000D03*
X144780000Y-58420000D03*
X170815000Y-111760000D03*
%TO.N,Net-(TP41-Pad1)*%
X110490000Y-94615000D03*
X110490000Y-101600000D03*
X127000000Y-100965000D03*
%TO.N,Net-(TP107-Pad1)*%
X97155000Y-66675000D03*
%TO.N,Net-(TP45-Pad1)*%
X92710000Y-106680000D03*
%TO.N,Net-(TP47-Pad1)*%
X108585000Y-101600000D03*
X125730000Y-106680000D03*
X109220000Y-106680000D03*
X90170000Y-100330000D03*
%TO.N,Net-(TP50-Pad1)*%
X100330000Y-126365000D03*
X100330000Y-110490000D03*
%TO.N,Net-(TP51-Pad1)*%
X113030000Y-100965000D03*
X80010000Y-116840000D03*
X97155000Y-100965000D03*
X97155000Y-116840000D03*
%TO.N,Net-(TP53-Pad1)*%
X91440000Y-93345000D03*
X125730000Y-92710000D03*
%TO.N,Net-(TP108-Pad1)*%
X134620000Y-73660000D03*
X130810000Y-92710000D03*
X87630000Y-75565000D03*
X134620000Y-92710000D03*
%TO.N,Net-(TP57-Pad1)*%
X105410000Y-78740000D03*
X143510000Y-109220000D03*
X143510000Y-76200000D03*
X104775000Y-85725000D03*
X127000000Y-85725000D03*
%TO.N,/Data Clock*%
X101600000Y-90805000D03*
X162560000Y-91440000D03*
X161925000Y-67056000D03*
X101600000Y-116840000D03*
X107950564Y-90949492D03*
X162560000Y-106680000D03*
%TD*%
D23*
%TO.N,/A0*%
X107950000Y-141605000D02*
X106680000Y-140335000D01*
X109220000Y-141605000D02*
X107950000Y-141605000D01*
X109220000Y-145732500D02*
X109220000Y-141605000D01*
%TO.N,/A1*%
X112395000Y-140335000D02*
X111760000Y-139700000D01*
X77485000Y-134610000D02*
X77485000Y-135245000D01*
X111760000Y-139700000D02*
X111125000Y-139700000D01*
X112395000Y-141605000D02*
X112395000Y-140335000D01*
X109220000Y-132080000D02*
X80015000Y-132080000D01*
X109409500Y-139700000D02*
X109220000Y-139889500D01*
X80015000Y-132080000D02*
X77485000Y-134610000D01*
X111125000Y-139700000D02*
X109409500Y-139700000D01*
X111760000Y-142240000D02*
X112395000Y-141605000D01*
X111760000Y-145732500D02*
X111760000Y-142240000D01*
%TO.N,/A2*%
X112395000Y-139065000D02*
X80010000Y-139065000D01*
X80010000Y-139065000D02*
X80025000Y-139050000D01*
X114300000Y-145732500D02*
X114300000Y-140970000D01*
X114300000Y-140970000D02*
X112395000Y-139065000D01*
X80025000Y-139050000D02*
X80025000Y-135245000D01*
X80010000Y-135865000D02*
X79390000Y-135245000D01*
%TO.N,/A3*%
X119380000Y-126365000D02*
X101600000Y-126365000D01*
X116205000Y-139700000D02*
X114935000Y-139700000D01*
X116840000Y-140335000D02*
X116205000Y-139700000D01*
X116840000Y-145732500D02*
X116840000Y-140335000D01*
%TO.N,/A4*%
X106045000Y-138430000D02*
X102870000Y-135255000D01*
X118745000Y-138430000D02*
X106045000Y-138430000D01*
X102870000Y-135255000D02*
X102870000Y-135245000D01*
X119380000Y-145732500D02*
X119380000Y-139065000D01*
X119380000Y-139065000D02*
X118745000Y-138430000D01*
%TO.N,/A5*%
X121285000Y-137795000D02*
X107950000Y-137795000D01*
X121920000Y-138430000D02*
X121285000Y-137795000D01*
X107950000Y-137795000D02*
X107950000Y-137785000D01*
X107950000Y-137785000D02*
X105410000Y-135245000D01*
X121920000Y-145732500D02*
X121920000Y-138430000D01*
%TO.N,/A6*%
X109855000Y-137160000D02*
X109855000Y-137150000D01*
X124460000Y-137795000D02*
X123825000Y-137160000D01*
X124460000Y-145732500D02*
X124460000Y-137795000D01*
X109855000Y-137150000D02*
X107950000Y-135245000D01*
X123825000Y-137160000D02*
X109855000Y-137160000D01*
%TO.N,/A7*%
X127000000Y-137160000D02*
X126365000Y-136525000D01*
X111760000Y-136515000D02*
X110490000Y-135245000D01*
X111760000Y-136525000D02*
X111760000Y-136515000D01*
X126365000Y-136525000D02*
X111760000Y-136525000D01*
X127000000Y-145732500D02*
X127000000Y-137160000D01*
%TO.N,/A8*%
X129540000Y-145732500D02*
X129540000Y-137795000D01*
X129540000Y-137795000D02*
X130175000Y-137160000D01*
X130175000Y-137160000D02*
X131445000Y-137160000D01*
%TO.N,/A9*%
X132715000Y-140970000D02*
X135255000Y-140970000D01*
X132080000Y-141605000D02*
X132715000Y-140970000D01*
X135890000Y-140335000D02*
X135890000Y-135255000D01*
X132080000Y-145732500D02*
X132080000Y-141605000D01*
X135255000Y-140970000D02*
X135890000Y-140335000D01*
D24*
%TO.N,/AEN*%
X157480000Y-125730000D02*
X151130000Y-125730000D01*
X157480000Y-140335000D02*
X157480000Y-137160000D01*
X160020000Y-140970000D02*
X158115000Y-140970000D01*
X158115000Y-140970000D02*
X157480000Y-140335000D01*
X160020000Y-145732500D02*
X160020000Y-140970000D01*
X151130000Y-125730000D02*
X151130000Y-127635000D01*
%TO.N,/D0*%
X165100000Y-145732500D02*
X165100000Y-141605000D01*
X165100000Y-141605000D02*
X158750000Y-135255000D01*
%TO.N,/D1*%
X167005000Y-139700000D02*
X165735000Y-139700000D01*
X167640000Y-145732500D02*
X167640000Y-140335000D01*
X167640000Y-140335000D02*
X167005000Y-139700000D01*
X165735000Y-139700000D02*
X161290000Y-135255000D01*
%TO.N,/D2*%
X169545000Y-139700000D02*
X168275000Y-139700000D01*
X168275000Y-139700000D02*
X163830000Y-135255000D01*
X170180000Y-140335000D02*
X169545000Y-139700000D01*
X170180000Y-145732500D02*
X170180000Y-140335000D01*
%TO.N,/D3*%
X172085000Y-139700000D02*
X170815000Y-139700000D01*
X170815000Y-139700000D02*
X166370000Y-135255000D01*
X172720000Y-145732500D02*
X172720000Y-140335000D01*
X172720000Y-140335000D02*
X172085000Y-139700000D01*
%TO.N,/D4*%
X174625000Y-139700000D02*
X173355000Y-139700000D01*
X175260000Y-145732500D02*
X175260000Y-140335000D01*
X173355000Y-139700000D02*
X168910000Y-135255000D01*
X175260000Y-140335000D02*
X174625000Y-139700000D01*
%TO.N,/D5*%
X177800000Y-145732500D02*
X177800000Y-140335000D01*
X177165000Y-139700000D02*
X175895000Y-139700000D01*
X175895000Y-139700000D02*
X171450000Y-135255000D01*
X177800000Y-140335000D02*
X177165000Y-139700000D01*
%TO.N,/D6*%
X179705000Y-139700000D02*
X178435000Y-139700000D01*
X180340000Y-140335000D02*
X179705000Y-139700000D01*
X178435000Y-139700000D02*
X173990000Y-135255000D01*
X180340000Y-145732500D02*
X180340000Y-140335000D01*
%TO.N,/D7*%
X183515000Y-139700000D02*
X183515000Y-145097500D01*
X176530000Y-135255000D02*
X177800000Y-136525000D01*
X184150000Y-137160000D02*
X184150000Y-139065000D01*
X177800000Y-136525000D02*
X183515000Y-136525000D01*
X183515000Y-136525000D02*
X184150000Y-137160000D01*
X183515000Y-145097500D02*
X182880000Y-145732500D01*
X184150000Y-139065000D02*
X183515000Y-139700000D01*
D23*
%TO.N,/~{IOW}*%
X152400000Y-137795000D02*
X146050000Y-137795000D01*
%TO.N,GND*%
X114930000Y-102875000D02*
X114935000Y-102870000D01*
D24*
X180355000Y-89535000D02*
X180355000Y-87645000D01*
D23*
X166385000Y-102885000D02*
X166370000Y-102870000D01*
X75692000Y-104066661D02*
X75692000Y-106172000D01*
D25*
X190500000Y-102870000D02*
X193675000Y-102870000D01*
D23*
X166385000Y-104765000D02*
X166385000Y-102885000D01*
X120650000Y-135245000D02*
X120650000Y-133350000D01*
X140970000Y-127635000D02*
X140970000Y-126365000D01*
X137790000Y-104775000D02*
X137790000Y-102875000D01*
D25*
X118110000Y-118110000D02*
X138430000Y-118110000D01*
X193675000Y-68491834D02*
X185966834Y-68491834D01*
D23*
X76157265Y-103601396D02*
X75692000Y-104066661D01*
X75692000Y-106172000D02*
X76200000Y-106680000D01*
D25*
X185674000Y-133350000D02*
X179070000Y-133350000D01*
D23*
X94605000Y-120005000D02*
X92070000Y-120005000D01*
X92070000Y-68585000D02*
X92163166Y-68491834D01*
D25*
X180340000Y-87630000D02*
X166370000Y-87630000D01*
D23*
X92070000Y-102875000D02*
X92075000Y-102870000D01*
X136520000Y-68575000D02*
X136436834Y-68491834D01*
X196850000Y-133350000D02*
X193675000Y-133350000D01*
D25*
X166370000Y-118110000D02*
X138430000Y-118110000D01*
D23*
X179070000Y-135255000D02*
X179070000Y-133350000D01*
X92070000Y-104765000D02*
X92070000Y-102875000D01*
D25*
X120650000Y-133350000D02*
X94615000Y-133350000D01*
X123913166Y-68491834D02*
X110324166Y-68491834D01*
X114935000Y-87630000D02*
X106680000Y-87630000D01*
D23*
X137790000Y-102875000D02*
X137795000Y-102870000D01*
X114930000Y-89525000D02*
X114930000Y-87635000D01*
D25*
X130810000Y-133350000D02*
X128778000Y-133350000D01*
D23*
X92070000Y-87635000D02*
X92075000Y-87630000D01*
D25*
X140970000Y-87630000D02*
X125730000Y-87630000D01*
X114935000Y-102870000D02*
X137795000Y-102870000D01*
X100495834Y-68491834D02*
X92163166Y-68491834D01*
X166370000Y-102870000D02*
X180594000Y-102870000D01*
D23*
X94615000Y-120015000D02*
X94605000Y-120005000D01*
X197612000Y-132293000D02*
X197612000Y-132588000D01*
X190515000Y-87645000D02*
X190500000Y-87630000D01*
D24*
X198120000Y-76835000D02*
X193675000Y-76835000D01*
D25*
X125730000Y-87630000D02*
X119126000Y-87630000D01*
X193675000Y-118110000D02*
X185166000Y-118110000D01*
D24*
X180355000Y-87645000D02*
X180340000Y-87630000D01*
D25*
X165646834Y-68491834D02*
X148501834Y-68491834D01*
D23*
X114930000Y-87635000D02*
X114935000Y-87630000D01*
D24*
X128270000Y-133858000D02*
X128778000Y-133350000D01*
D23*
X92070000Y-89525000D02*
X92070000Y-87635000D01*
D25*
X179070000Y-133350000D02*
X151130000Y-133350000D01*
X137795000Y-102870000D02*
X138430000Y-102870000D01*
D23*
X90932000Y-106538000D02*
X92705000Y-104765000D01*
X166385000Y-118125000D02*
X166370000Y-118110000D01*
X94630000Y-135245000D02*
X94630000Y-133365000D01*
X140985000Y-89545000D02*
X140985000Y-87645000D01*
D25*
X185166000Y-118110000D02*
X178562000Y-118110000D01*
D24*
X123820000Y-68585000D02*
X123913166Y-68491834D01*
D25*
X94615000Y-120015000D02*
X116205000Y-120015000D01*
X128778000Y-133350000D02*
X120650000Y-133350000D01*
X138430000Y-102870000D02*
X166370000Y-102870000D01*
X180594000Y-102870000D02*
X184150000Y-102870000D01*
D23*
X151130000Y-135255000D02*
X151130000Y-133350000D01*
X138425000Y-120005000D02*
X138425000Y-118115000D01*
X148590000Y-66767323D02*
X148590000Y-68403668D01*
D25*
X110324166Y-68491834D02*
X100495834Y-68491834D01*
X184150000Y-102870000D02*
X190500000Y-102870000D01*
D23*
X166385000Y-89535000D02*
X166385000Y-87645000D01*
D25*
X119126000Y-87630000D02*
X114935000Y-87630000D01*
D23*
X136520000Y-70475000D02*
X136520000Y-68575000D01*
X114930000Y-104775000D02*
X114930000Y-102875000D01*
X140970000Y-126365000D02*
X130810000Y-126365000D01*
X92070000Y-70475000D02*
X92070000Y-68585000D01*
D24*
X128270000Y-135255000D02*
X128270000Y-133858000D01*
D23*
X166385000Y-87645000D02*
X166370000Y-87630000D01*
X190515000Y-89535000D02*
X190515000Y-87645000D01*
D25*
X193675000Y-87630000D02*
X190500000Y-87630000D01*
D23*
X148590000Y-68403668D02*
X148501834Y-68491834D01*
D25*
X182880000Y-87630000D02*
X180340000Y-87630000D01*
X151130000Y-133350000D02*
X130810000Y-133350000D01*
X148501834Y-68491834D02*
X136436834Y-68491834D01*
D23*
X76200000Y-106680000D02*
X90932000Y-106680000D01*
D25*
X193675000Y-133350000D02*
X185674000Y-133350000D01*
D23*
X138425000Y-118115000D02*
X138430000Y-118110000D01*
D25*
X170434000Y-118110000D02*
X166370000Y-118110000D01*
X92075000Y-102870000D02*
X114935000Y-102870000D01*
X190500000Y-87630000D02*
X182880000Y-87630000D01*
D24*
X198120000Y-76835000D02*
X200660000Y-76835000D01*
D23*
X198755000Y-131150000D02*
X197612000Y-132293000D01*
D25*
X166370000Y-87630000D02*
X140970000Y-87630000D01*
D23*
X140985000Y-87645000D02*
X140970000Y-87630000D01*
X130810000Y-126365000D02*
X130810000Y-127635000D01*
X197612000Y-132588000D02*
X196850000Y-133350000D01*
X190515000Y-102885000D02*
X190500000Y-102870000D01*
D24*
X180355000Y-104765000D02*
X180355000Y-103109000D01*
D25*
X185966834Y-68491834D02*
X165646834Y-68491834D01*
X200660000Y-61595000D02*
X200660000Y-59055000D01*
X116205000Y-120015000D02*
X118110000Y-118110000D01*
D23*
X166385000Y-120005000D02*
X166385000Y-118125000D01*
D25*
X106680000Y-87630000D02*
X99314000Y-87630000D01*
D23*
X90932000Y-106680000D02*
X90932000Y-106538000D01*
X94630000Y-133365000D02*
X94615000Y-133350000D01*
D24*
X180355000Y-103109000D02*
X180594000Y-102870000D01*
D25*
X136436834Y-68491834D02*
X123913166Y-68491834D01*
D23*
X190515000Y-104765000D02*
X190515000Y-102885000D01*
D25*
X99314000Y-87630000D02*
X92075000Y-87630000D01*
X178562000Y-118110000D02*
X170434000Y-118110000D01*
D24*
X123820000Y-70475000D02*
X123820000Y-68585000D01*
D25*
%TO.N,VCC*%
X139700000Y-99060000D02*
X148590000Y-99060000D01*
X121285000Y-64770000D02*
X76835000Y-64770000D01*
X85090000Y-83820000D02*
X87630000Y-83820000D01*
X148590000Y-61767323D02*
X145242677Y-61767323D01*
D23*
X123190000Y-98425000D02*
X123190000Y-99060000D01*
D25*
X187325000Y-130810000D02*
X187325000Y-129540000D01*
D23*
X123205000Y-83805000D02*
X123190000Y-83820000D01*
D25*
X102870000Y-129540000D02*
X90170000Y-129540000D01*
D23*
X172735000Y-81915000D02*
X172735000Y-83805000D01*
X123205000Y-81925000D02*
X123205000Y-83805000D01*
X163845000Y-83551000D02*
X163576000Y-83820000D01*
D25*
X115570000Y-112395000D02*
X102870000Y-112395000D01*
X148590000Y-83820000D02*
X163576000Y-83820000D01*
D24*
X87625000Y-83815000D02*
X87630000Y-83820000D01*
D25*
X145242677Y-61767323D02*
X142240000Y-64770000D01*
X177800000Y-129540000D02*
X156210000Y-129540000D01*
D23*
X148605000Y-114285000D02*
X148590000Y-114300000D01*
X76850000Y-129525000D02*
X76835000Y-129540000D01*
D24*
X82545000Y-83815000D02*
X82550000Y-83820000D01*
D25*
X142240000Y-64770000D02*
X137922000Y-64770000D01*
D23*
X100325000Y-99055000D02*
X100330000Y-99060000D01*
X121280000Y-62855000D02*
X121280000Y-64765000D01*
D25*
X123190000Y-114300000D02*
X117475000Y-114300000D01*
D23*
X121280000Y-64765000D02*
X121285000Y-64770000D01*
X163845000Y-114285000D02*
X163830000Y-114300000D01*
X163845000Y-97145000D02*
X163845000Y-99045000D01*
X128270000Y-127635000D02*
X128270000Y-129540000D01*
X123185000Y-97155000D02*
X123185000Y-98420000D01*
D25*
X76835000Y-64770000D02*
X73660000Y-64770000D01*
D23*
X100325000Y-97145000D02*
X100325000Y-99055000D01*
D25*
X163830000Y-99060000D02*
X172329511Y-99060000D01*
X102870000Y-112395000D02*
X100965000Y-114300000D01*
X76835000Y-99060000D02*
X99695000Y-99060000D01*
X156210000Y-129540000D02*
X128270000Y-129540000D01*
D23*
X76850000Y-127625000D02*
X76850000Y-129525000D01*
D25*
X163830000Y-114300000D02*
X148590000Y-114300000D01*
X185420000Y-114300000D02*
X163830000Y-114300000D01*
D24*
X87625000Y-81905000D02*
X87625000Y-83815000D01*
X82545000Y-81905000D02*
X82545000Y-83815000D01*
D25*
X76835000Y-129540000D02*
X73660000Y-129540000D01*
D23*
X76830000Y-112385000D02*
X76830000Y-114295000D01*
X163845000Y-112385000D02*
X163845000Y-114285000D01*
D25*
X148590000Y-99060000D02*
X163830000Y-99060000D01*
D23*
X123185000Y-98420000D02*
X123190000Y-98425000D01*
X172735000Y-97145000D02*
X172735000Y-98654511D01*
D25*
X76835000Y-83820000D02*
X82550000Y-83820000D01*
D23*
X76830000Y-114295000D02*
X76835000Y-114300000D01*
X148605000Y-83805000D02*
X148590000Y-83820000D01*
D25*
X82550000Y-83820000D02*
X85090000Y-83820000D01*
X123190000Y-83820000D02*
X148590000Y-83820000D01*
X137922000Y-64770000D02*
X121285000Y-64770000D01*
D23*
X148605000Y-81915000D02*
X148605000Y-83805000D01*
X99690000Y-81905000D02*
X99690000Y-83815000D01*
D25*
X87630000Y-83820000D02*
X99695000Y-83820000D01*
D23*
X76830000Y-99055000D02*
X76835000Y-99060000D01*
D25*
X123190000Y-99060000D02*
X139700000Y-99060000D01*
D23*
X123185000Y-114295000D02*
X123190000Y-114300000D01*
D25*
X163576000Y-83820000D02*
X170815000Y-83820000D01*
X73660000Y-83820000D02*
X76835000Y-83820000D01*
D23*
X163845000Y-99045000D02*
X163830000Y-99060000D01*
D25*
X100965000Y-114300000D02*
X76835000Y-114300000D01*
D23*
X99690000Y-99055000D02*
X99695000Y-99060000D01*
X156210000Y-127635000D02*
X156210000Y-129540000D01*
D25*
X73660000Y-99060000D02*
X76835000Y-99060000D01*
D23*
X123185000Y-112385000D02*
X123185000Y-114295000D01*
X76830000Y-97145000D02*
X76830000Y-99055000D01*
D25*
X99695000Y-83820000D02*
X123190000Y-83820000D01*
D23*
X76830000Y-64765000D02*
X76835000Y-64770000D01*
X172735000Y-83805000D02*
X172720000Y-83820000D01*
X148605000Y-112385000D02*
X148605000Y-114285000D01*
D25*
X148590000Y-114300000D02*
X123190000Y-114300000D01*
D23*
X99690000Y-83815000D02*
X99695000Y-83820000D01*
D25*
X122555000Y-99060000D02*
X123190000Y-99060000D01*
D23*
X148605000Y-99045000D02*
X148590000Y-99060000D01*
D25*
X100330000Y-99060000D02*
X122555000Y-99060000D01*
D23*
X76830000Y-81905000D02*
X76830000Y-83815000D01*
D25*
X117475000Y-114300000D02*
X115570000Y-112395000D01*
X187325000Y-129540000D02*
X180975000Y-129540000D01*
X170815000Y-83820000D02*
X172720000Y-83820000D01*
D23*
X102870000Y-127625000D02*
X102870000Y-129540000D01*
D25*
X180975000Y-129540000D02*
X177800000Y-129540000D01*
X76835000Y-114300000D02*
X73660000Y-114300000D01*
X151765000Y-61595000D02*
X163195000Y-61595000D01*
D23*
X172735000Y-98654511D02*
X172329511Y-99060000D01*
D25*
X90170000Y-129540000D02*
X76835000Y-129540000D01*
D24*
X160472677Y-61767323D02*
X148590000Y-61767323D01*
D25*
X99695000Y-99060000D02*
X100330000Y-99060000D01*
D23*
X163845000Y-81915000D02*
X163845000Y-83551000D01*
X102865000Y-97145000D02*
X100325000Y-97145000D01*
X172735000Y-81915000D02*
X175275000Y-81915000D01*
X148605000Y-97145000D02*
X148605000Y-99045000D01*
D25*
X170815000Y-83820000D02*
X187960000Y-83820000D01*
D23*
X76830000Y-83815000D02*
X76835000Y-83820000D01*
D25*
X128270000Y-129540000D02*
X102870000Y-129540000D01*
D23*
X76830000Y-62855000D02*
X76830000Y-64765000D01*
%TO.N,/RESETDRV*%
X169545000Y-97155000D02*
X170815000Y-95885000D01*
X170815000Y-95885000D02*
X179070000Y-95885000D01*
X182880000Y-137795000D02*
X179070000Y-137795000D01*
X179070000Y-95885000D02*
X179070000Y-94615000D01*
%TO.N,Net-(C4-Pad2)*%
X84836000Y-102616000D02*
X80772000Y-102616000D01*
X80005000Y-103383000D02*
X80005000Y-104765000D01*
X80772000Y-102616000D02*
X80005000Y-103383000D01*
D24*
%TO.N,Net-(C6-Pad2)*%
X109973520Y-80509520D02*
X104648000Y-80509520D01*
X103369520Y-80509520D02*
X102616000Y-79756000D01*
X110485000Y-81021000D02*
X110236000Y-80772000D01*
X104648000Y-80509520D02*
X103369520Y-80509520D01*
X110236000Y-80772000D02*
X109973520Y-80509520D01*
X110485000Y-81905000D02*
X113025000Y-81905000D01*
X110485000Y-81905000D02*
X110485000Y-81021000D01*
D23*
%TO.N,/Response-*%
X197485000Y-113665000D02*
X198005000Y-113145000D01*
X187325000Y-114935000D02*
X186055000Y-116205000D01*
X191770000Y-113665000D02*
X197485000Y-113665000D01*
X191770000Y-113665000D02*
X191770000Y-114935000D01*
X186055000Y-116205000D02*
X183515000Y-116205000D01*
X191770000Y-114935000D02*
X187325000Y-114935000D01*
X198005000Y-113145000D02*
X201595000Y-113145000D01*
%TO.N,/Data-*%
X203200000Y-113018279D02*
X203200000Y-117080000D01*
X195580000Y-118745000D02*
X194945000Y-119380000D01*
X203200000Y-117080000D02*
X201595000Y-118685000D01*
X175895000Y-119380000D02*
X174625000Y-120650000D01*
X187975000Y-109840000D02*
X187960000Y-109855000D01*
X194945000Y-119380000D02*
X175895000Y-119380000D01*
X200036721Y-109855000D02*
X203200000Y-113018279D01*
X187960000Y-109855000D02*
X200036721Y-109855000D01*
X195640000Y-118685000D02*
X195580000Y-118745000D01*
X201595000Y-118685000D02*
X195640000Y-118685000D01*
X187975000Y-104765000D02*
X187975000Y-109840000D01*
%TO.N,/Data Clock-*%
X185420000Y-122555000D02*
X184785000Y-121920000D01*
X184785000Y-121920000D02*
X174625000Y-121920000D01*
X192235000Y-121455000D02*
X191135000Y-122555000D01*
X201595000Y-121455000D02*
X192235000Y-121455000D01*
X191135000Y-122555000D02*
X185420000Y-122555000D01*
%TO.N,/Attention-*%
X175260000Y-99060000D02*
X195580000Y-99060000D01*
X175275000Y-99045000D02*
X175260000Y-99060000D01*
X196088000Y-128016000D02*
X190500000Y-128016000D01*
X196900000Y-127204000D02*
X196088000Y-128016000D01*
X196900000Y-124325000D02*
X196900000Y-127204000D01*
X196925000Y-124300000D02*
X196900000Y-124325000D01*
X175275000Y-97145000D02*
X175275000Y-99045000D01*
D24*
%TO.N,/Response+*%
X190500000Y-111760000D02*
X198755000Y-111760000D01*
X190500000Y-113665000D02*
X190500000Y-111760000D01*
D23*
%TO.N,/Data+*%
X190500000Y-116205000D02*
X197660000Y-116205000D01*
X197660000Y-116205000D02*
X198755000Y-117300000D01*
%TO.N,/Data Clock+*%
X190500000Y-125730000D02*
X189230000Y-125730000D01*
X191135000Y-120650000D02*
X198175000Y-120650000D01*
X190500000Y-121285000D02*
X191135000Y-120650000D01*
X175895000Y-125730000D02*
X190500000Y-125730000D01*
X198175000Y-120650000D02*
X198755000Y-120070000D01*
%TO.N,/Attention+*%
X198405000Y-123190000D02*
X198755000Y-122840000D01*
X192405000Y-123190000D02*
X198405000Y-123190000D01*
X191770000Y-123825000D02*
X192405000Y-123190000D01*
X182245000Y-123825000D02*
X191770000Y-123825000D01*
%TO.N,/MDB1*%
X172720000Y-73025000D02*
X174605000Y-73025000D01*
X174605000Y-73025000D02*
X175880000Y-74300000D01*
X151765000Y-75565000D02*
X172085000Y-75565000D01*
X172085000Y-75565000D02*
X172085000Y-73660000D01*
X151130000Y-74930000D02*
X151765000Y-75565000D01*
X151954511Y-131255489D02*
X151765000Y-131445000D01*
X178880489Y-131255489D02*
X151954511Y-131255489D01*
X172085000Y-73660000D02*
X172720000Y-73025000D01*
X128905000Y-100965000D02*
X151130000Y-100965000D01*
X179070000Y-131445000D02*
X178880489Y-131255489D01*
%TO.N,/MDB2*%
X160020000Y-106045000D02*
X160020000Y-106680000D01*
X173355000Y-76200000D02*
X147320000Y-76200000D01*
X173340000Y-76185000D02*
X173355000Y-76200000D01*
X148605000Y-106030000D02*
X148590000Y-106045000D01*
X160655000Y-110490000D02*
X176530000Y-110490000D01*
X173340000Y-74300000D02*
X173340000Y-76185000D01*
X148590000Y-106045000D02*
X160020000Y-106045000D01*
X148605000Y-104765000D02*
X148605000Y-106030000D01*
X176530000Y-110490000D02*
X176530000Y-111125000D01*
%TO.N,/MDB3*%
X150495000Y-95250000D02*
X167005000Y-95250000D01*
X149860000Y-95885000D02*
X150495000Y-95250000D01*
X170055898Y-95760898D02*
X171201796Y-94615000D01*
X169931796Y-95885000D02*
X170055898Y-95760898D01*
X171201796Y-94615000D02*
X171450000Y-94615000D01*
X151130000Y-124460000D02*
X173990000Y-124460000D01*
X167640000Y-95250000D02*
X168275000Y-95885000D01*
X167005000Y-95250000D02*
X167640000Y-95250000D01*
X173990000Y-124460000D02*
X173990000Y-127635000D01*
X168275000Y-95885000D02*
X169931796Y-95885000D01*
%TO.N,/MDB4*%
X152414999Y-96499782D02*
X152994292Y-95920489D01*
X152994292Y-95920489D02*
X167040489Y-95920489D01*
X167040489Y-95920489D02*
X168275000Y-97155000D01*
X154940000Y-132080000D02*
X171450000Y-132080000D01*
%TO.N,/MDB5*%
X156210000Y-121920000D02*
X167005000Y-121920000D01*
X158730000Y-72390000D02*
X160640000Y-74300000D01*
X156225000Y-120005000D02*
X156225000Y-121905000D01*
X154940000Y-72390000D02*
X158730000Y-72390000D01*
X154940000Y-73660000D02*
X154940000Y-72390000D01*
X156225000Y-121905000D02*
X156210000Y-121920000D01*
%TO.N,/MDB6*%
X159385000Y-123190000D02*
X165100000Y-123190000D01*
%TO.N,/MDB7*%
X161290000Y-125730000D02*
X163830000Y-125730000D01*
X163830000Y-125730000D02*
X163830000Y-127635000D01*
%TO.N,/MDB8*%
X163830000Y-91440000D02*
X169545000Y-91440000D01*
X169545000Y-63500000D02*
X160655000Y-63500000D01*
X163845000Y-89535000D02*
X163845000Y-91425000D01*
X163845000Y-91425000D02*
X163830000Y-91440000D01*
%TO.N,/AENb*%
X148590000Y-132080000D02*
X113665000Y-132080000D01*
%TO.N,/~{RD}*%
X144145000Y-136525000D02*
X143510000Y-135890000D01*
X144780000Y-121920000D02*
X130810000Y-121920000D01*
X130810000Y-121920000D02*
X130805000Y-121915000D01*
D24*
X176530000Y-109220000D02*
X156845000Y-109220000D01*
D23*
X132080000Y-107950000D02*
X152400000Y-107950000D01*
X156210000Y-135890000D02*
X155575000Y-136525000D01*
X155575000Y-136525000D02*
X144145000Y-136525000D01*
X130805000Y-121915000D02*
X130805000Y-120005000D01*
X130820480Y-108595480D02*
X85714520Y-108595480D01*
X153670000Y-109220000D02*
X156845000Y-109220000D01*
X143510000Y-135890000D02*
X143510000Y-135255000D01*
X131445000Y-109220000D02*
X130820480Y-108595480D01*
X132080000Y-109220000D02*
X132080000Y-107950000D01*
X152400000Y-107950000D02*
X153670000Y-109220000D01*
X132080000Y-109220000D02*
X131445000Y-109220000D01*
D24*
X188595000Y-76200000D02*
X176530000Y-76200000D01*
D23*
X85714520Y-108595480D02*
X85090000Y-109220000D01*
X156210000Y-135255000D02*
X156210000Y-135890000D01*
D24*
X188580000Y-76185000D02*
X188595000Y-76200000D01*
X188580000Y-74300000D02*
X188580000Y-76185000D01*
D23*
%TO.N,/A9b*%
X140335000Y-111760000D02*
X139700000Y-111125000D01*
X135890000Y-111125000D02*
X135885000Y-111130000D01*
X142875000Y-111760000D02*
X140335000Y-111760000D01*
X139700000Y-111125000D02*
X135890000Y-111125000D01*
X135885000Y-111130000D02*
X135885000Y-112385000D01*
%TO.N,/IOACT*%
X83820000Y-125095000D02*
X135065489Y-125095000D01*
X135065489Y-125095000D02*
X135890000Y-125095000D01*
%TO.N,/DMA_ACK*%
X143510000Y-130810000D02*
X123825000Y-130810000D01*
X123825000Y-130810000D02*
X88900000Y-130810000D01*
%TO.N,/IOSEL*%
X88265000Y-118745000D02*
X87625000Y-119385000D01*
X109230000Y-114940000D02*
X106690000Y-114940000D01*
X105410000Y-114935000D02*
X104140000Y-116205000D01*
X87625000Y-119385000D02*
X87625000Y-120005000D01*
X114310000Y-114940000D02*
X111770000Y-114940000D01*
X106690000Y-114940000D02*
X105415000Y-114940000D01*
X111770000Y-114940000D02*
X109230000Y-114940000D01*
X104140000Y-118745000D02*
X88265000Y-118745000D01*
X105415000Y-114940000D02*
X105410000Y-114935000D01*
X104140000Y-116205000D02*
X104140000Y-118745000D01*
D24*
%TO.N,/~{WR}*%
X180975000Y-77470000D02*
X173355000Y-77470000D01*
D23*
X146685000Y-123190000D02*
X133350000Y-123190000D01*
X146685000Y-116205000D02*
X173990000Y-116205000D01*
%TO.N,Net-(TP74-Pad1)*%
X154940000Y-107950000D02*
X165100000Y-107950000D01*
D24*
%TO.N,/CLKp3*%
X142875000Y-66675000D02*
X144780000Y-64770000D01*
X144780000Y-64770000D02*
X152400000Y-64770000D01*
X166370000Y-60960000D02*
X165720000Y-60310000D01*
X178435000Y-60960000D02*
X166370000Y-60960000D01*
X165720000Y-60310000D02*
X165720000Y-59060000D01*
X177800000Y-66040000D02*
X178435000Y-65405000D01*
X152400000Y-64770000D02*
X152400000Y-66040000D01*
X133985000Y-66675000D02*
X142875000Y-66675000D01*
X187325000Y-65405000D02*
X178435000Y-65405000D01*
X152400000Y-66040000D02*
X177800000Y-66040000D01*
D23*
%TO.N,/~{DTR}*%
X156210000Y-64770000D02*
X168275000Y-64770000D01*
X153670000Y-64770000D02*
X156210000Y-64770000D01*
X77470000Y-107950000D02*
X111580980Y-107950000D01*
X111760000Y-107770980D02*
X112215980Y-107770980D01*
X130810000Y-107950000D02*
X130805000Y-107945000D01*
X112215980Y-107770980D02*
X112395000Y-107950000D01*
X111580980Y-107950000D02*
X111760000Y-107770980D01*
X145415000Y-72390000D02*
X153480500Y-72390000D01*
X112395000Y-107950000D02*
X130810000Y-107950000D01*
X130805000Y-107945000D02*
X130805000Y-104775000D01*
X132080000Y-74930000D02*
X145415000Y-74930000D01*
X153480500Y-72390000D02*
X153670000Y-72579500D01*
X145415000Y-74930000D02*
X145415000Y-72390000D01*
%TO.N,/A0b*%
X144145000Y-73660000D02*
X144145000Y-71120000D01*
X144145000Y-71120000D02*
X182860000Y-71120000D01*
X137160000Y-73660000D02*
X144145000Y-73660000D01*
X182860000Y-71120000D02*
X186040000Y-74300000D01*
%TO.N,/UART-~{CS}*%
X95250000Y-60960000D02*
X141605000Y-60960000D01*
X82565000Y-127625000D02*
X82565000Y-126380000D01*
X141605000Y-70485000D02*
X177800000Y-70485000D01*
X82550000Y-121920000D02*
X89535000Y-121920000D01*
X90805000Y-123190000D02*
X95250000Y-123190000D01*
X82565000Y-126380000D02*
X82550000Y-126365000D01*
X82550000Y-126365000D02*
X82550000Y-121920000D01*
X177800000Y-70485000D02*
X183515000Y-70485000D01*
X89535000Y-121920000D02*
X90805000Y-123190000D01*
D24*
%TO.N,/CLKp0*%
X178420000Y-59060000D02*
X178420000Y-57165000D01*
X178435000Y-57150000D02*
X126365000Y-57150000D01*
X178420000Y-57165000D02*
X178435000Y-57150000D01*
D23*
%TO.N,/~{RTS}*%
X85090000Y-94615000D02*
X104140000Y-94615000D01*
X83820000Y-93980000D02*
X84455000Y-93980000D01*
X84455000Y-93980000D02*
X85090000Y-94615000D01*
%TO.N,/Data*%
X153670000Y-85725000D02*
X144145000Y-85725000D01*
X153670000Y-85725000D02*
X181610000Y-85725000D01*
X144145000Y-85725000D02*
X133350000Y-85725000D01*
X182245000Y-64135000D02*
X198120000Y-64135000D01*
D24*
%TO.N,/Attention*%
X139705000Y-80645000D02*
X134620000Y-80645000D01*
X134620000Y-80645000D02*
X134620000Y-80670000D01*
X140985000Y-81925000D02*
X139705000Y-80645000D01*
D23*
X147320000Y-111125000D02*
X146685000Y-111760000D01*
X153685000Y-112385000D02*
X153685000Y-111140000D01*
D24*
X174625000Y-78740000D02*
X191770000Y-78740000D01*
D23*
X153685000Y-111140000D02*
X153670000Y-111125000D01*
D24*
X140985000Y-81925000D02*
X140985000Y-78755000D01*
X134620000Y-80670000D02*
X133365000Y-81925000D01*
X146040000Y-81925000D02*
X146050000Y-81915000D01*
X140970000Y-78740000D02*
X174625000Y-78740000D01*
X191770000Y-78740000D02*
X195580000Y-78740000D01*
D23*
X147335000Y-111140000D02*
X147320000Y-111125000D01*
X146685000Y-111760000D02*
X146050000Y-111760000D01*
X153685000Y-111140000D02*
X147335000Y-111140000D01*
D24*
X140985000Y-78755000D02*
X140970000Y-78740000D01*
X140985000Y-81925000D02*
X146040000Y-81925000D01*
X191770000Y-100330000D02*
X180340000Y-100330000D01*
D23*
%TO.N,Net-(TP88-Pad1)*%
X133345000Y-97155000D02*
X133345000Y-95255000D01*
X133350000Y-95250000D02*
X124460000Y-95250000D01*
X133345000Y-95255000D02*
X133350000Y-95250000D01*
X124460000Y-95250000D02*
X123825000Y-95250000D01*
X123825000Y-95250000D02*
X123190000Y-94615000D01*
D24*
%TO.N,Net-(TP89-Pad1)*%
X128285000Y-89545000D02*
X129617980Y-90877980D01*
X129617980Y-90877980D02*
X134620000Y-90877980D01*
X134620000Y-90877980D02*
X134620000Y-90830000D01*
X134620000Y-90830000D02*
X135905000Y-89545000D01*
%TO.N,/RXD*%
X142240000Y-80010000D02*
X145732500Y-80010000D01*
X145732500Y-80010000D02*
X146367500Y-79375000D01*
X146367500Y-79375000D02*
X162560000Y-79375000D01*
X162560000Y-79375000D02*
X163195000Y-80010000D01*
D23*
%TO.N,Net-(R1-Pad1)*%
X130810000Y-95885000D02*
X106680000Y-95885000D01*
X130805000Y-97155000D02*
X130805000Y-95890000D01*
X130805000Y-95890000D02*
X130810000Y-95885000D01*
%TO.N,Net-(TP91-Pad1)*%
X152400000Y-77470000D02*
X140335000Y-77470000D01*
D24*
X86360000Y-85725000D02*
X102870000Y-85725000D01*
D23*
X103694511Y-86549511D02*
X102870000Y-85725000D01*
X117158489Y-86549511D02*
X103694511Y-86549511D01*
X158750000Y-80645000D02*
X152400000Y-80645000D01*
X140335000Y-77470000D02*
X117475000Y-77470000D01*
X117348000Y-86360000D02*
X117158489Y-86549511D01*
X158765000Y-81915000D02*
X158765000Y-80660000D01*
X158765000Y-80660000D02*
X158750000Y-80645000D01*
%TO.N,Net-(TP93-Pad1)*%
X87625000Y-96515000D02*
X87625000Y-97145000D01*
X83185000Y-110490000D02*
X86995000Y-110490000D01*
X86995000Y-110490000D02*
X88265000Y-109220000D01*
X82545000Y-97145000D02*
X82545000Y-96525000D01*
X124014500Y-109220000D02*
X124460000Y-109665500D01*
X82550000Y-109855000D02*
X83185000Y-110490000D01*
X86995000Y-95885000D02*
X87625000Y-96515000D01*
X82545000Y-96525000D02*
X83185000Y-95885000D01*
X83185000Y-95885000D02*
X86995000Y-95885000D01*
X88265000Y-109220000D02*
X124014500Y-109220000D01*
%TO.N,Net-(TP94-Pad1)*%
X80010000Y-92075000D02*
X87630000Y-92075000D01*
%TO.N,Net-(TP95-Pad1)*%
X99060000Y-111760000D02*
X98425000Y-111125000D01*
X130805000Y-111130000D02*
X130810000Y-111125000D01*
X98425000Y-111125000D02*
X74930000Y-111125000D01*
X130805000Y-112385000D02*
X130805000Y-111130000D01*
X101600000Y-111760000D02*
X99060000Y-111760000D01*
X130810000Y-111125000D02*
X102235000Y-111125000D01*
X74930000Y-101600000D02*
X76200000Y-100330000D01*
X74930000Y-111125000D02*
X74295000Y-110490000D01*
X102235000Y-111125000D02*
X101600000Y-111760000D01*
X74295000Y-110490000D02*
X74295000Y-102235000D01*
X74295000Y-102235000D02*
X74930000Y-101600000D01*
D24*
%TO.N,/Command*%
X188595000Y-92710000D02*
X189230000Y-93345000D01*
X135890000Y-92710000D02*
X188595000Y-92710000D01*
X191135000Y-61595000D02*
X198120000Y-61595000D01*
X180975000Y-61595000D02*
X191135000Y-61595000D01*
X135885000Y-97155000D02*
X135885000Y-92715000D01*
X135885000Y-92715000D02*
X135890000Y-92710000D01*
%TO.N,Net-(TP96-Pad1)*%
X97790000Y-90805000D02*
X99132980Y-92147980D01*
X127635000Y-91440000D02*
X127635000Y-93345000D01*
X91440000Y-90805000D02*
X97790000Y-90805000D01*
X99132980Y-92147980D02*
X121212020Y-92147980D01*
D23*
X134620000Y-94615000D02*
X127635000Y-94615000D01*
D24*
X121920000Y-91440000D02*
X127635000Y-91440000D01*
D23*
X127635000Y-94615000D02*
X127635000Y-93345000D01*
D24*
X121212020Y-92147980D02*
X121920000Y-91440000D01*
%TO.N,Net-(TP97-Pad1)*%
X109220000Y-93980000D02*
X109855000Y-93345000D01*
X109855000Y-93345000D02*
X124460000Y-93345000D01*
X124460000Y-93345000D02*
X125095000Y-93980000D01*
D23*
%TO.N,Net-(TP101-Pad1)*%
X89535000Y-72390000D02*
X135255000Y-72390000D01*
X135255000Y-72390000D02*
X135890000Y-73025000D01*
X88900000Y-73025000D02*
X89535000Y-72390000D01*
%TO.N,/Command+*%
X187975000Y-81265000D02*
X188351480Y-80888520D01*
X188549511Y-80690489D02*
X197022489Y-80690489D01*
X188351480Y-80888520D02*
X188468000Y-80888520D01*
X197022489Y-80690489D02*
X197104000Y-80772000D01*
X188351480Y-80888520D02*
X188549511Y-80690489D01*
X197104000Y-80772000D02*
X197104000Y-81788000D01*
X187975000Y-81915000D02*
X187975000Y-81265000D01*
%TO.N,/Command-*%
X185618031Y-80065969D02*
X203200000Y-80065969D01*
X185435000Y-81915000D02*
X185435000Y-81265000D01*
X185435000Y-81915000D02*
X185420000Y-81900000D01*
X203200000Y-80065969D02*
X203200000Y-81788000D01*
X185420000Y-81900000D02*
X185420000Y-80264000D01*
X185420000Y-80264000D02*
X185618031Y-80065969D01*
D24*
%TO.N,/Response*%
X179705000Y-60325000D02*
X194945000Y-60325000D01*
X194945000Y-59055000D02*
X198120000Y-59055000D01*
X194945000Y-60325000D02*
X194945000Y-59055000D01*
X184150000Y-80010000D02*
X180340000Y-80010000D01*
D23*
%TO.N,Net-(TP14-Pad1)*%
X128265000Y-123820000D02*
X128265000Y-120005000D01*
X149860000Y-124460000D02*
X137160000Y-124460000D01*
X136525000Y-123825000D02*
X134620000Y-123825000D01*
X134620000Y-123825000D02*
X134620000Y-124460000D01*
X128270000Y-123825000D02*
X128265000Y-123820000D01*
X134620000Y-124460000D02*
X132080000Y-124460000D01*
X131445000Y-123825000D02*
X128270000Y-123825000D01*
X132080000Y-124460000D02*
X131445000Y-123825000D01*
X149860000Y-123190000D02*
X149860000Y-124460000D01*
X137160000Y-124460000D02*
X136525000Y-123825000D01*
X157480000Y-123190000D02*
X149860000Y-123190000D01*
D24*
%TO.N,/U7116-~{OE}*%
X93980000Y-59690000D02*
X155575000Y-59690000D01*
%TO.N,Net-(TP103-Pad1)*%
X82550000Y-70475000D02*
X82550000Y-71755000D01*
X82550000Y-71755000D02*
X138430000Y-71755000D01*
%TO.N,Net-(TP104-Pad1)*%
X85090000Y-77470000D02*
X104140000Y-77470000D01*
%TO.N,Net-(TP105-Pad1)*%
X104140000Y-80010000D02*
X130810000Y-80010000D01*
X80010000Y-70475000D02*
X80010000Y-78740000D01*
X130810000Y-80010000D02*
X130825000Y-80025000D01*
X130825000Y-80025000D02*
X130825000Y-81925000D01*
X104140000Y-78740000D02*
X104140000Y-80010000D01*
X80010000Y-78740000D02*
X104140000Y-78740000D01*
D23*
%TO.N,Net-(TP26-Pad1)*%
X120650000Y-124460000D02*
X121285000Y-123825000D01*
X86360000Y-123190000D02*
X87630000Y-124460000D01*
X87630000Y-124460000D02*
X120650000Y-124460000D01*
%TO.N,Net-(TP32-Pad1)*%
X116840000Y-116205000D02*
X138430000Y-116205000D01*
%TO.N,/U7117-~{OE}*%
X88900000Y-93345000D02*
X85090000Y-93345000D01*
X119380000Y-123190000D02*
X99060000Y-123190000D01*
X125095000Y-122555000D02*
X120015000Y-122555000D01*
X157480000Y-107125500D02*
X157290500Y-107125500D01*
X90170000Y-92075000D02*
X88900000Y-93345000D01*
X138430000Y-106680000D02*
X132080000Y-106680000D01*
X156845000Y-106680000D02*
X138430000Y-106680000D01*
X96520000Y-92075000D02*
X90170000Y-92075000D01*
X157290500Y-107125500D02*
X156845000Y-106680000D01*
X120015000Y-122555000D02*
X119380000Y-123190000D01*
X125730000Y-123190000D02*
X125095000Y-122555000D01*
X98425000Y-105410000D02*
X95885000Y-105410000D01*
D24*
%TO.N,Net-(TP106-Pad1)*%
X162565000Y-111125000D02*
X161305000Y-112385000D01*
X90170000Y-62230000D02*
X90805000Y-61595000D01*
X170180000Y-111125000D02*
X162565000Y-111125000D01*
X90170000Y-62855000D02*
X90170000Y-62230000D01*
X90805000Y-58420000D02*
X144780000Y-58420000D01*
X90805000Y-61595000D02*
X90805000Y-58420000D01*
X144780000Y-93980000D02*
X169099500Y-93980000D01*
X170815000Y-111760000D02*
X170180000Y-111125000D01*
D23*
%TO.N,Net-(TP41-Pad1)*%
X77470000Y-95250000D02*
X77480480Y-95239520D01*
X106680000Y-94615000D02*
X107950000Y-94615000D01*
X77465000Y-95245000D02*
X77470000Y-95250000D01*
X118745000Y-101945480D02*
X110835480Y-101945480D01*
X89535000Y-95874520D02*
X89535000Y-95885000D01*
X89535000Y-95885000D02*
X104775000Y-95885000D01*
X126019520Y-101945480D02*
X118745000Y-101945480D01*
X88900000Y-95239520D02*
X89535000Y-95874520D01*
X110835480Y-101945480D02*
X110490000Y-101600000D01*
X104775000Y-95885000D02*
X105410000Y-95885000D01*
X109855000Y-95250000D02*
X110490000Y-94615000D01*
X127000000Y-100965000D02*
X126019520Y-101945480D01*
X107950000Y-94615000D02*
X108585000Y-95250000D01*
X77480480Y-95239520D02*
X88900000Y-95239520D01*
X108585000Y-95250000D02*
X109855000Y-95250000D01*
X77465000Y-89525000D02*
X77465000Y-95245000D01*
X105410000Y-95885000D02*
X106680000Y-94615000D01*
D24*
%TO.N,Net-(TP107-Pad1)*%
X97155000Y-66675000D02*
X92329000Y-66675000D01*
X92329000Y-66675000D02*
X90170000Y-68834000D01*
X90170000Y-68834000D02*
X90170000Y-70475000D01*
D23*
%TO.N,Net-(TP44-Pad1)*%
X87625000Y-112385000D02*
X85085000Y-112385000D01*
%TO.N,Net-(TP45-Pad1)*%
X92710000Y-106680000D02*
X107950000Y-106680000D01*
X107950000Y-106680000D02*
X107945000Y-106675000D01*
X107945000Y-106675000D02*
X107945000Y-104765000D01*
%TO.N,Net-(TP47-Pad1)*%
X108395489Y-101789511D02*
X91629511Y-101789511D01*
D24*
X81280000Y-90800000D02*
X81280000Y-90805000D01*
D23*
X125730000Y-106680000D02*
X109220000Y-106680000D01*
D24*
X80005000Y-89525000D02*
X81280000Y-90800000D01*
D23*
X91629511Y-101789511D02*
X90170000Y-100330000D01*
D24*
X81280000Y-90805000D02*
X88885000Y-90805000D01*
D23*
X108585000Y-101600000D02*
X108395489Y-101789511D01*
D24*
X88885000Y-90805000D02*
X90165000Y-89525000D01*
D23*
%TO.N,Net-(TP50-Pad1)*%
X100330000Y-110490000D02*
X154940000Y-110490000D01*
X87645000Y-126985000D02*
X88265000Y-126365000D01*
X154940000Y-110490000D02*
X156225000Y-111775000D01*
X88265000Y-126365000D02*
X100330000Y-126365000D01*
X156225000Y-111775000D02*
X156225000Y-112385000D01*
X87645000Y-127625000D02*
X87645000Y-126985000D01*
%TO.N,Net-(TP51-Pad1)*%
X98425000Y-99984520D02*
X111760000Y-99984520D01*
X98135480Y-99984520D02*
X98425000Y-99984520D01*
X111760000Y-99984520D02*
X112049520Y-99984520D01*
X80645000Y-117475000D02*
X96520000Y-117475000D01*
X97155000Y-100965000D02*
X98135480Y-99984520D01*
X96520000Y-117475000D02*
X97155000Y-116840000D01*
X112049520Y-99984520D02*
X113030000Y-100965000D01*
X80010000Y-116840000D02*
X80645000Y-117475000D01*
%TO.N,Net-(TP53-Pad1)*%
X91440000Y-93345000D02*
X107950000Y-93345000D01*
X108585000Y-92710000D02*
X125730000Y-92710000D01*
X107950000Y-93345000D02*
X108585000Y-92710000D01*
%TO.N,Net-(TP54-Pad1)*%
X124460000Y-106040000D02*
X124460000Y-106045000D01*
X111760000Y-106040000D02*
X110485000Y-104765000D01*
X111760000Y-106045000D02*
X111760000Y-106040000D01*
X124460000Y-106045000D02*
X111760000Y-106045000D01*
X125725000Y-104775000D02*
X124460000Y-106040000D01*
D24*
%TO.N,Net-(TP108-Pad1)*%
X113030000Y-75565000D02*
X87630000Y-75565000D01*
X134620000Y-73660000D02*
X113030000Y-73660000D01*
X130810000Y-92710000D02*
X134620000Y-92710000D01*
X113030000Y-73660000D02*
X113030000Y-75565000D01*
D23*
%TO.N,Net-(TP56-Pad1)*%
X118755000Y-120005000D02*
X123185000Y-120005000D01*
X116840000Y-121920000D02*
X118755000Y-120005000D01*
X90165000Y-120645000D02*
X91440000Y-121920000D01*
X91440000Y-121920000D02*
X116840000Y-121920000D01*
X90165000Y-120005000D02*
X90165000Y-120645000D01*
%TO.N,Net-(TP57-Pad1)*%
X158765000Y-111140000D02*
X157480000Y-109855000D01*
X158765000Y-112385000D02*
X158765000Y-111140000D01*
X152400000Y-109855000D02*
X151765000Y-109220000D01*
D24*
X104775000Y-85725000D02*
X127000000Y-85725000D01*
D23*
X157480000Y-109855000D02*
X152400000Y-109855000D01*
D24*
X110490000Y-76200000D02*
X143510000Y-76200000D01*
X110490000Y-78740000D02*
X110490000Y-76200000D01*
D23*
X151765000Y-109220000D02*
X143510000Y-109220000D01*
D24*
X105410000Y-78740000D02*
X110490000Y-78740000D01*
D23*
%TO.N,/Data Clock*%
X132715000Y-91440000D02*
X128905000Y-91440000D01*
X138430000Y-91440000D02*
X132715000Y-91440000D01*
X77465000Y-118218964D02*
X77573964Y-118110000D01*
X108094492Y-90949492D02*
X107950564Y-90949492D01*
X108585000Y-91440000D02*
X108094492Y-90949492D01*
X77465000Y-120005000D02*
X77465000Y-118218964D01*
X177800000Y-106680000D02*
X177815000Y-106665000D01*
X138445000Y-91425000D02*
X138445000Y-89545000D01*
X120015000Y-91440000D02*
X108585000Y-91440000D01*
X77573964Y-118110000D02*
X100965000Y-118110000D01*
X162560000Y-91440000D02*
X138430000Y-91440000D01*
X120650000Y-90805000D02*
X120015000Y-91440000D01*
X101600000Y-117475000D02*
X101600000Y-116840000D01*
D24*
X162306000Y-66675000D02*
X161925000Y-67056000D01*
D23*
X162560000Y-106680000D02*
X177800000Y-106680000D01*
X128270000Y-90805000D02*
X120650000Y-90805000D01*
X107805508Y-90949492D02*
X107315000Y-91440000D01*
X102235000Y-91440000D02*
X101600000Y-90805000D01*
X107315000Y-91440000D02*
X102235000Y-91440000D01*
X138430000Y-91440000D02*
X138445000Y-91425000D01*
X128905000Y-91440000D02*
X128270000Y-90805000D01*
X177815000Y-106665000D02*
X177815000Y-104765000D01*
X100965000Y-118110000D02*
X101600000Y-117475000D01*
X107950564Y-90949492D02*
X107805508Y-90949492D01*
D24*
X198120000Y-66675000D02*
X162306000Y-66675000D01*
%TD*%
M02*
