%TF.GenerationSoftware,KiCad,Pcbnew,6.0.2+dfsg-1*%
%TF.CreationDate,2022-09-03T17:00:35-07:00*%
%TF.ProjectId,ISA-Card,4953412d-4361-4726-942e-6b696361645f,alpha*%
%TF.SameCoordinates,Original*%
%TF.FileFunction,Soldermask,Top*%
%TF.FilePolarity,Negative*%
%FSLAX46Y46*%
G04 Gerber Fmt 4.6, Leading zero omitted, Abs format (unit mm)*
G04 Created by KiCad (PCBNEW 6.0.2+dfsg-1) date 2022-09-03 17:00:35*
%MOMM*%
%LPD*%
G01*
G04 APERTURE LIST*
%ADD10C,0.120000*%
%ADD11C,4.000000*%
%ADD12C,1.600000*%
%ADD13O,1.600000X1.600000*%
%ADD14C,3.733800*%
%ADD15C,2.000000*%
%ADD16O,3.810000X3.048000*%
%ADD17C,3.048000*%
%ADD18C,1.700000*%
%ADD19O,1.700000X1.700000*%
%ADD20C,1.500000*%
G04 APERTURE END LIST*
D10*
%TO.C,BUS1*%
X188468000Y-142303500D02*
X106172000Y-142303500D01*
X106172000Y-142303500D02*
X106172000Y-150304500D01*
X106172000Y-150304500D02*
X188468000Y-150304500D01*
X188468000Y-150304500D02*
X188468000Y-142303500D01*
G36*
X188468000Y-142303500D02*
G01*
X106172000Y-142303500D01*
X106172000Y-150304500D01*
X188468000Y-150304500D01*
X188468000Y-142303500D01*
G37*
%TD*%
D11*
%TO.C,X3*%
X200175000Y-138105000D03*
X200175000Y-104805000D03*
D12*
X198755000Y-111760000D03*
X198755000Y-114530000D03*
X198755000Y-117300000D03*
X198755000Y-120070000D03*
X198755000Y-122840000D03*
X198755000Y-125610000D03*
X198755000Y-128380000D03*
X198755000Y-131150000D03*
X201595000Y-113145000D03*
X201595000Y-115915000D03*
X201595000Y-118685000D03*
X201595000Y-121455000D03*
X201595000Y-124225000D03*
X201595000Y-126995000D03*
X201595000Y-129765000D03*
%TD*%
%TO.C,U7102*%
X128270000Y-135255000D03*
D13*
X130810000Y-135255000D03*
X133350000Y-135255000D03*
X135890000Y-135255000D03*
X138430000Y-135255000D03*
X140970000Y-135255000D03*
X143510000Y-135255000D03*
X146050000Y-135255000D03*
X148590000Y-135255000D03*
X151130000Y-135255000D03*
X151130000Y-127635000D03*
X148590000Y-127635000D03*
X146050000Y-127635000D03*
X143510000Y-127635000D03*
X140970000Y-127635000D03*
X138430000Y-127635000D03*
X135890000Y-127635000D03*
X133350000Y-127635000D03*
X130810000Y-127635000D03*
X128270000Y-127635000D03*
%TD*%
D12*
%TO.C,U7105*%
X77485000Y-135245000D03*
D13*
X80025000Y-135245000D03*
X82565000Y-135245000D03*
X85105000Y-135245000D03*
X87645000Y-135245000D03*
X90185000Y-135245000D03*
X92725000Y-135245000D03*
X95265000Y-135245000D03*
X95265000Y-127625000D03*
X92725000Y-127625000D03*
X90185000Y-127625000D03*
X87645000Y-127625000D03*
X85105000Y-127625000D03*
X82565000Y-127625000D03*
X80025000Y-127625000D03*
X77485000Y-127625000D03*
%TD*%
D12*
%TO.C,U7104*%
X102885000Y-135245000D03*
D13*
X105425000Y-135245000D03*
X107965000Y-135245000D03*
X110505000Y-135245000D03*
X113045000Y-135245000D03*
X115585000Y-135245000D03*
X118125000Y-135245000D03*
X120665000Y-135245000D03*
X120665000Y-127625000D03*
X118125000Y-127625000D03*
X115585000Y-127625000D03*
X113045000Y-127625000D03*
X110505000Y-127625000D03*
X107965000Y-127625000D03*
X105425000Y-127625000D03*
X102885000Y-127625000D03*
%TD*%
D14*
%TO.C,REF\u002A\u002A*%
X206375000Y-66675000D03*
%TD*%
D12*
%TO.C,U7112*%
X77465000Y-89525000D03*
D13*
X80005000Y-89525000D03*
X82545000Y-89525000D03*
X85085000Y-89525000D03*
X87625000Y-89525000D03*
X90165000Y-89525000D03*
X92705000Y-89525000D03*
X92705000Y-81905000D03*
X90165000Y-81905000D03*
X87625000Y-81905000D03*
X85085000Y-81905000D03*
X82545000Y-81905000D03*
X80005000Y-81905000D03*
X77465000Y-81905000D03*
%TD*%
D15*
%TO.C,C9*%
X148590000Y-61767323D03*
X148590000Y-66767323D03*
%TD*%
D12*
%TO.C,U7113*%
X100325000Y-104765000D03*
D13*
X102865000Y-104765000D03*
X105405000Y-104765000D03*
X107945000Y-104765000D03*
X110485000Y-104765000D03*
X113025000Y-104765000D03*
X115565000Y-104765000D03*
X115565000Y-97145000D03*
X113025000Y-97145000D03*
X110485000Y-97145000D03*
X107945000Y-97145000D03*
X105405000Y-97145000D03*
X102865000Y-97145000D03*
X100325000Y-97145000D03*
%TD*%
D16*
%TO.C,REF\u002A\u002A*%
X79525000Y-57625000D03*
%TD*%
D12*
%TO.C,U7108*%
X77465000Y-104765000D03*
D13*
X80005000Y-104765000D03*
X82545000Y-104765000D03*
X85085000Y-104765000D03*
X87625000Y-104765000D03*
X90165000Y-104765000D03*
X92705000Y-104765000D03*
X92705000Y-97145000D03*
X90165000Y-97145000D03*
X87625000Y-97145000D03*
X85085000Y-97145000D03*
X82545000Y-97145000D03*
X80005000Y-97145000D03*
X77465000Y-97145000D03*
%TD*%
D12*
%TO.C,U7116*%
X148605000Y-89535000D03*
D13*
X151145000Y-89535000D03*
X153685000Y-89535000D03*
X156225000Y-89535000D03*
X158765000Y-89535000D03*
X161305000Y-89535000D03*
X163845000Y-89535000D03*
X166385000Y-89535000D03*
X166385000Y-81915000D03*
X163845000Y-81915000D03*
X161305000Y-81915000D03*
X158765000Y-81915000D03*
X156225000Y-81915000D03*
X153685000Y-81915000D03*
X151145000Y-81915000D03*
X148605000Y-81915000D03*
%TD*%
D17*
%TO.C,REF\u002A\u002A*%
X200152503Y-85599587D03*
%TD*%
D12*
%TO.C,U7121*%
X172735000Y-104765000D03*
D13*
X175275000Y-104765000D03*
X177815000Y-104765000D03*
X180355000Y-104765000D03*
X182895000Y-104765000D03*
X185435000Y-104765000D03*
X187975000Y-104765000D03*
X190515000Y-104765000D03*
X190515000Y-97145000D03*
X187975000Y-97145000D03*
X185435000Y-97145000D03*
X182895000Y-97145000D03*
X180355000Y-97145000D03*
X177815000Y-97145000D03*
X175275000Y-97145000D03*
X172735000Y-97145000D03*
%TD*%
D12*
%TO.C,U7111*%
X123185000Y-104775000D03*
D13*
X125725000Y-104775000D03*
X128265000Y-104775000D03*
X130805000Y-104775000D03*
X133345000Y-104775000D03*
X135885000Y-104775000D03*
X138425000Y-104775000D03*
X138425000Y-97155000D03*
X135885000Y-97155000D03*
X133345000Y-97155000D03*
X130805000Y-97155000D03*
X128265000Y-97155000D03*
X125725000Y-97155000D03*
X123185000Y-97155000D03*
%TD*%
D12*
%TO.C,U7114*%
X121280000Y-70475000D03*
D13*
X123820000Y-70475000D03*
X126360000Y-70475000D03*
X128900000Y-70475000D03*
X131440000Y-70475000D03*
X133980000Y-70475000D03*
X136520000Y-70475000D03*
X136520000Y-62855000D03*
X133980000Y-62855000D03*
X131440000Y-62855000D03*
X128900000Y-62855000D03*
X126360000Y-62855000D03*
X123820000Y-62855000D03*
X121280000Y-62855000D03*
%TD*%
D12*
%TO.C,U7101*%
X156210000Y-135255000D03*
D13*
X158750000Y-135255000D03*
X161290000Y-135255000D03*
X163830000Y-135255000D03*
X166370000Y-135255000D03*
X168910000Y-135255000D03*
X171450000Y-135255000D03*
X173990000Y-135255000D03*
X176530000Y-135255000D03*
X179070000Y-135255000D03*
X179070000Y-127635000D03*
X176530000Y-127635000D03*
X173990000Y-127635000D03*
X171450000Y-127635000D03*
X168910000Y-127635000D03*
X166370000Y-127635000D03*
X163830000Y-127635000D03*
X161290000Y-127635000D03*
X158750000Y-127635000D03*
X156210000Y-127635000D03*
%TD*%
D12*
%TO.C,U7120*%
X172735000Y-89535000D03*
D13*
X175275000Y-89535000D03*
X177815000Y-89535000D03*
X180355000Y-89535000D03*
X182895000Y-89535000D03*
X185435000Y-89535000D03*
X187975000Y-89535000D03*
X190515000Y-89535000D03*
X190515000Y-81915000D03*
X187975000Y-81915000D03*
X185435000Y-81915000D03*
X182895000Y-81915000D03*
X180355000Y-81915000D03*
X177815000Y-81915000D03*
X175275000Y-81915000D03*
X172735000Y-81915000D03*
%TD*%
D18*
%TO.C,X2*%
X106690000Y-117480000D03*
D19*
X106690000Y-114940000D03*
X109230000Y-117480000D03*
X109230000Y-114940000D03*
X111770000Y-117480000D03*
X111770000Y-114940000D03*
X114310000Y-117480000D03*
X114310000Y-114940000D03*
%TD*%
D12*
%TO.C,U7109*%
X123205000Y-89545000D03*
D13*
X125745000Y-89545000D03*
X128285000Y-89545000D03*
X130825000Y-89545000D03*
X133365000Y-89545000D03*
X135905000Y-89545000D03*
X138445000Y-89545000D03*
X140985000Y-89545000D03*
X140985000Y-81925000D03*
X138445000Y-81925000D03*
X135905000Y-81925000D03*
X133365000Y-81925000D03*
X130825000Y-81925000D03*
X128285000Y-81925000D03*
X125745000Y-81925000D03*
X123205000Y-81925000D03*
%TD*%
D12*
%TO.C,U7115*%
X77470000Y-70475000D03*
D13*
X80010000Y-70475000D03*
X82550000Y-70475000D03*
X85090000Y-70475000D03*
X87630000Y-70475000D03*
X90170000Y-70475000D03*
X92710000Y-70475000D03*
X92710000Y-62855000D03*
X90170000Y-62855000D03*
X87630000Y-62855000D03*
X85090000Y-62855000D03*
X82550000Y-62855000D03*
X80010000Y-62855000D03*
X77470000Y-62855000D03*
%TD*%
D20*
%TO.C,X-TAL1*%
X107950000Y-74295000D03*
X103050000Y-74295000D03*
%TD*%
D12*
%TO.C,U7117*%
X148605000Y-104765000D03*
D13*
X151145000Y-104765000D03*
X153685000Y-104765000D03*
X156225000Y-104765000D03*
X158765000Y-104765000D03*
X161305000Y-104765000D03*
X163845000Y-104765000D03*
X166385000Y-104765000D03*
X166385000Y-97145000D03*
X163845000Y-97145000D03*
X161305000Y-97145000D03*
X158765000Y-97145000D03*
X156225000Y-97145000D03*
X153685000Y-97145000D03*
X151145000Y-97145000D03*
X148605000Y-97145000D03*
%TD*%
D12*
%TO.C,U7118*%
X148605000Y-120005000D03*
D13*
X151145000Y-120005000D03*
X153685000Y-120005000D03*
X156225000Y-120005000D03*
X158765000Y-120005000D03*
X161305000Y-120005000D03*
X163845000Y-120005000D03*
X166385000Y-120005000D03*
X166385000Y-112385000D03*
X163845000Y-112385000D03*
X161305000Y-112385000D03*
X158765000Y-112385000D03*
X156225000Y-112385000D03*
X153685000Y-112385000D03*
X151145000Y-112385000D03*
X148605000Y-112385000D03*
%TD*%
D18*
%TO.C,X5*%
X198120000Y-59055000D03*
D19*
X200660000Y-59055000D03*
X198120000Y-61595000D03*
X200660000Y-61595000D03*
X198120000Y-64135000D03*
X200660000Y-64135000D03*
X198120000Y-66675000D03*
X200660000Y-66675000D03*
X198120000Y-69215000D03*
X200660000Y-69215000D03*
X198120000Y-71755000D03*
X200660000Y-71755000D03*
X198120000Y-74295000D03*
X200660000Y-74295000D03*
X198120000Y-76835000D03*
X200660000Y-76835000D03*
%TD*%
D12*
%TO.C,U7106*%
X123185000Y-120005000D03*
D13*
X125725000Y-120005000D03*
X128265000Y-120005000D03*
X130805000Y-120005000D03*
X133345000Y-120005000D03*
X135885000Y-120005000D03*
X138425000Y-120005000D03*
X138425000Y-112385000D03*
X135885000Y-112385000D03*
X133345000Y-112385000D03*
X130805000Y-112385000D03*
X128265000Y-112385000D03*
X125725000Y-112385000D03*
X123185000Y-112385000D03*
%TD*%
D12*
%TO.C,U7119*%
X158100000Y-74300000D03*
D13*
X160640000Y-74300000D03*
X163180000Y-74300000D03*
X165720000Y-74300000D03*
X168260000Y-74300000D03*
X170800000Y-74300000D03*
X173340000Y-74300000D03*
X175880000Y-74300000D03*
X178420000Y-74300000D03*
X180960000Y-74300000D03*
X183500000Y-74300000D03*
X186040000Y-74300000D03*
X188580000Y-74300000D03*
X191120000Y-74300000D03*
X191120000Y-59060000D03*
X188580000Y-59060000D03*
X186040000Y-59060000D03*
X183500000Y-59060000D03*
X180960000Y-59060000D03*
X178420000Y-59060000D03*
X175880000Y-59060000D03*
X173340000Y-59060000D03*
X170800000Y-59060000D03*
X168260000Y-59060000D03*
X165720000Y-59060000D03*
X163180000Y-59060000D03*
X160640000Y-59060000D03*
X158100000Y-59060000D03*
%TD*%
D12*
%TO.C,U7110*%
X100325000Y-89525000D03*
D13*
X102865000Y-89525000D03*
X105405000Y-89525000D03*
X107945000Y-89525000D03*
X110485000Y-89525000D03*
X113025000Y-89525000D03*
X115565000Y-89525000D03*
X115565000Y-81905000D03*
X113025000Y-81905000D03*
X110485000Y-81905000D03*
X107945000Y-81905000D03*
X105405000Y-81905000D03*
X102865000Y-81905000D03*
X100325000Y-81905000D03*
%TD*%
D12*
%TO.C,U7107*%
X77465000Y-120005000D03*
D13*
X80005000Y-120005000D03*
X82545000Y-120005000D03*
X85085000Y-120005000D03*
X87625000Y-120005000D03*
X90165000Y-120005000D03*
X92705000Y-120005000D03*
X92705000Y-112385000D03*
X90165000Y-112385000D03*
X87625000Y-112385000D03*
X85085000Y-112385000D03*
X82545000Y-112385000D03*
X80005000Y-112385000D03*
X77465000Y-112385000D03*
%TD*%
M02*
