%TF.GenerationSoftware,KiCad,Pcbnew,6.0.7-f9a2dced07~116~ubuntu20.04.1*%
%TF.CreationDate,2022-08-31T13:30:29-07:00*%
%TF.ProjectId,ISA-Card,4953412d-4361-4726-942e-6b696361645f,alpha*%
%TF.SameCoordinates,Original*%
%TF.FileFunction,Legend,Top*%
%TF.FilePolarity,Positive*%
%FSLAX46Y46*%
G04 Gerber Fmt 4.6, Leading zero omitted, Abs format (unit mm)*
G04 Created by KiCad (PCBNEW 6.0.7-f9a2dced07~116~ubuntu20.04.1) date 2022-08-31 13:30:29*
%MOMM*%
%LPD*%
G01*
G04 APERTURE LIST*
%ADD10C,0.150000*%
%ADD11C,0.120000*%
G04 APERTURE END LIST*
D10*
%TO.C,TP91*%
X111885653Y-81831691D02*
X112289714Y-81427630D01*
X112794791Y-82336768D02*
X112087684Y-81629661D01*
X113232523Y-81899035D02*
X112525417Y-81191928D01*
X112794791Y-80922554D01*
X112895806Y-80888882D01*
X112963149Y-80888882D01*
X113064165Y-80922554D01*
X113165180Y-81023569D01*
X113198852Y-81124585D01*
X113198852Y-81191928D01*
X113165180Y-81292943D01*
X112895806Y-81562317D01*
X113973302Y-81158256D02*
X114107989Y-81023569D01*
X114141661Y-80922554D01*
X114141661Y-80855210D01*
X114107989Y-80686852D01*
X114006974Y-80518493D01*
X113737600Y-80249119D01*
X113636585Y-80215447D01*
X113569241Y-80215447D01*
X113468226Y-80249119D01*
X113333539Y-80383806D01*
X113299867Y-80484821D01*
X113299867Y-80552165D01*
X113333539Y-80653180D01*
X113501898Y-80821539D01*
X113602913Y-80855210D01*
X113670256Y-80855210D01*
X113771272Y-80821539D01*
X113905959Y-80686852D01*
X113939630Y-80585836D01*
X113939630Y-80518493D01*
X113905959Y-80417478D01*
X114983455Y-80148104D02*
X114579394Y-80552165D01*
X114781424Y-80350134D02*
X114074317Y-79643027D01*
X114107989Y-79811386D01*
X114107989Y-79946073D01*
X114074317Y-80047088D01*
%TO.C,TP24*%
X121959904Y-131532380D02*
X122531333Y-131532380D01*
X122245619Y-132532380D02*
X122245619Y-131532380D01*
X122864666Y-132532380D02*
X122864666Y-131532380D01*
X123245619Y-131532380D01*
X123340857Y-131580000D01*
X123388476Y-131627619D01*
X123436095Y-131722857D01*
X123436095Y-131865714D01*
X123388476Y-131960952D01*
X123340857Y-132008571D01*
X123245619Y-132056190D01*
X122864666Y-132056190D01*
X123817047Y-131627619D02*
X123864666Y-131580000D01*
X123959904Y-131532380D01*
X124198000Y-131532380D01*
X124293238Y-131580000D01*
X124340857Y-131627619D01*
X124388476Y-131722857D01*
X124388476Y-131818095D01*
X124340857Y-131960952D01*
X123769428Y-132532380D01*
X124388476Y-132532380D01*
X125245619Y-131865714D02*
X125245619Y-132532380D01*
X125007523Y-131484761D02*
X124769428Y-132199047D01*
X125388476Y-132199047D01*
%TO.C,TP43*%
X87161904Y-111720380D02*
X87733333Y-111720380D01*
X87447619Y-112720380D02*
X87447619Y-111720380D01*
X88066666Y-112720380D02*
X88066666Y-111720380D01*
X88447619Y-111720380D01*
X88542857Y-111768000D01*
X88590476Y-111815619D01*
X88638095Y-111910857D01*
X88638095Y-112053714D01*
X88590476Y-112148952D01*
X88542857Y-112196571D01*
X88447619Y-112244190D01*
X88066666Y-112244190D01*
X89495238Y-112053714D02*
X89495238Y-112720380D01*
X89257142Y-111672761D02*
X89019047Y-112387047D01*
X89638095Y-112387047D01*
X89923809Y-111720380D02*
X90542857Y-111720380D01*
X90209523Y-112101333D01*
X90352380Y-112101333D01*
X90447619Y-112148952D01*
X90495238Y-112196571D01*
X90542857Y-112291809D01*
X90542857Y-112529904D01*
X90495238Y-112625142D01*
X90447619Y-112672761D01*
X90352380Y-112720380D01*
X90066666Y-112720380D01*
X89971428Y-112672761D01*
X89923809Y-112625142D01*
%TO.C,TP75*%
X128649653Y-65575691D02*
X129053714Y-65171630D01*
X129558791Y-66080768D02*
X128851684Y-65373661D01*
X129996523Y-65643035D02*
X129289417Y-64935928D01*
X129558791Y-64666554D01*
X129659806Y-64632882D01*
X129727149Y-64632882D01*
X129828165Y-64666554D01*
X129929180Y-64767569D01*
X129962852Y-64868585D01*
X129962852Y-64935928D01*
X129929180Y-65036943D01*
X129659806Y-65306317D01*
X129929180Y-64296165D02*
X130400585Y-63824760D01*
X130804646Y-64834913D01*
X131006676Y-63218669D02*
X130669959Y-63555386D01*
X130973004Y-63925775D01*
X130973004Y-63858432D01*
X131006676Y-63757417D01*
X131175035Y-63589058D01*
X131276050Y-63555386D01*
X131343394Y-63555386D01*
X131444409Y-63589058D01*
X131612768Y-63757417D01*
X131646439Y-63858432D01*
X131646439Y-63925775D01*
X131612768Y-64026791D01*
X131444409Y-64195149D01*
X131343394Y-64228821D01*
X131276050Y-64228821D01*
%TO.C,TP105*%
X77795714Y-61682380D02*
X78367142Y-61682380D01*
X78081428Y-62682380D02*
X78081428Y-61682380D01*
X78700476Y-62682380D02*
X78700476Y-61682380D01*
X79081428Y-61682380D01*
X79176666Y-61730000D01*
X79224285Y-61777619D01*
X79271904Y-61872857D01*
X79271904Y-62015714D01*
X79224285Y-62110952D01*
X79176666Y-62158571D01*
X79081428Y-62206190D01*
X78700476Y-62206190D01*
X80224285Y-62682380D02*
X79652857Y-62682380D01*
X79938571Y-62682380D02*
X79938571Y-61682380D01*
X79843333Y-61825238D01*
X79748095Y-61920476D01*
X79652857Y-61968095D01*
X80843333Y-61682380D02*
X80938571Y-61682380D01*
X81033809Y-61730000D01*
X81081428Y-61777619D01*
X81129047Y-61872857D01*
X81176666Y-62063333D01*
X81176666Y-62301428D01*
X81129047Y-62491904D01*
X81081428Y-62587142D01*
X81033809Y-62634761D01*
X80938571Y-62682380D01*
X80843333Y-62682380D01*
X80748095Y-62634761D01*
X80700476Y-62587142D01*
X80652857Y-62491904D01*
X80605238Y-62301428D01*
X80605238Y-62063333D01*
X80652857Y-61872857D01*
X80700476Y-61777619D01*
X80748095Y-61730000D01*
X80843333Y-61682380D01*
X82081428Y-61682380D02*
X81605238Y-61682380D01*
X81557619Y-62158571D01*
X81605238Y-62110952D01*
X81700476Y-62063333D01*
X81938571Y-62063333D01*
X82033809Y-62110952D01*
X82081428Y-62158571D01*
X82129047Y-62253809D01*
X82129047Y-62491904D01*
X82081428Y-62587142D01*
X82033809Y-62634761D01*
X81938571Y-62682380D01*
X81700476Y-62682380D01*
X81605238Y-62634761D01*
X81557619Y-62587142D01*
%TO.C,TP51*%
X96051904Y-93432380D02*
X96623333Y-93432380D01*
X96337619Y-94432380D02*
X96337619Y-93432380D01*
X96956666Y-94432380D02*
X96956666Y-93432380D01*
X97337619Y-93432380D01*
X97432857Y-93480000D01*
X97480476Y-93527619D01*
X97528095Y-93622857D01*
X97528095Y-93765714D01*
X97480476Y-93860952D01*
X97432857Y-93908571D01*
X97337619Y-93956190D01*
X96956666Y-93956190D01*
X98432857Y-93432380D02*
X97956666Y-93432380D01*
X97909047Y-93908571D01*
X97956666Y-93860952D01*
X98051904Y-93813333D01*
X98290000Y-93813333D01*
X98385238Y-93860952D01*
X98432857Y-93908571D01*
X98480476Y-94003809D01*
X98480476Y-94241904D01*
X98432857Y-94337142D01*
X98385238Y-94384761D01*
X98290000Y-94432380D01*
X98051904Y-94432380D01*
X97956666Y-94384761D01*
X97909047Y-94337142D01*
X99432857Y-94432380D02*
X98861428Y-94432380D01*
X99147142Y-94432380D02*
X99147142Y-93432380D01*
X99051904Y-93575238D01*
X98956666Y-93670476D01*
X98861428Y-93718095D01*
%TO.C,TP38*%
X73953904Y-131532380D02*
X74525333Y-131532380D01*
X74239619Y-132532380D02*
X74239619Y-131532380D01*
X74858666Y-132532380D02*
X74858666Y-131532380D01*
X75239619Y-131532380D01*
X75334857Y-131580000D01*
X75382476Y-131627619D01*
X75430095Y-131722857D01*
X75430095Y-131865714D01*
X75382476Y-131960952D01*
X75334857Y-132008571D01*
X75239619Y-132056190D01*
X74858666Y-132056190D01*
X75763428Y-131532380D02*
X76382476Y-131532380D01*
X76049142Y-131913333D01*
X76192000Y-131913333D01*
X76287238Y-131960952D01*
X76334857Y-132008571D01*
X76382476Y-132103809D01*
X76382476Y-132341904D01*
X76334857Y-132437142D01*
X76287238Y-132484761D01*
X76192000Y-132532380D01*
X75906285Y-132532380D01*
X75811047Y-132484761D01*
X75763428Y-132437142D01*
X76953904Y-131960952D02*
X76858666Y-131913333D01*
X76811047Y-131865714D01*
X76763428Y-131770476D01*
X76763428Y-131722857D01*
X76811047Y-131627619D01*
X76858666Y-131580000D01*
X76953904Y-131532380D01*
X77144380Y-131532380D01*
X77239619Y-131580000D01*
X77287238Y-131627619D01*
X77334857Y-131722857D01*
X77334857Y-131770476D01*
X77287238Y-131865714D01*
X77239619Y-131913333D01*
X77144380Y-131960952D01*
X76953904Y-131960952D01*
X76858666Y-132008571D01*
X76811047Y-132056190D01*
X76763428Y-132151428D01*
X76763428Y-132341904D01*
X76811047Y-132437142D01*
X76858666Y-132484761D01*
X76953904Y-132532380D01*
X77144380Y-132532380D01*
X77239619Y-132484761D01*
X77287238Y-132437142D01*
X77334857Y-132341904D01*
X77334857Y-132151428D01*
X77287238Y-132056190D01*
X77239619Y-132008571D01*
X77144380Y-131960952D01*
%TO.C,X3*%
X195407380Y-122264523D02*
X196407380Y-121597857D01*
X195407380Y-121597857D02*
X196407380Y-122264523D01*
X195407380Y-121312142D02*
X195407380Y-120693095D01*
X195788333Y-121026428D01*
X195788333Y-120883571D01*
X195835952Y-120788333D01*
X195883571Y-120740714D01*
X195978809Y-120693095D01*
X196216904Y-120693095D01*
X196312142Y-120740714D01*
X196359761Y-120788333D01*
X196407380Y-120883571D01*
X196407380Y-121169285D01*
X196359761Y-121264523D01*
X196312142Y-121312142D01*
%TO.C,U7102*%
X125392380Y-133635476D02*
X126201904Y-133635476D01*
X126297142Y-133587857D01*
X126344761Y-133540238D01*
X126392380Y-133445000D01*
X126392380Y-133254523D01*
X126344761Y-133159285D01*
X126297142Y-133111666D01*
X126201904Y-133064047D01*
X125392380Y-133064047D01*
X125392380Y-132683095D02*
X125392380Y-132016428D01*
X126392380Y-132445000D01*
X126392380Y-131111666D02*
X126392380Y-131683095D01*
X126392380Y-131397380D02*
X125392380Y-131397380D01*
X125535238Y-131492619D01*
X125630476Y-131587857D01*
X125678095Y-131683095D01*
X125392380Y-130492619D02*
X125392380Y-130397380D01*
X125440000Y-130302142D01*
X125487619Y-130254523D01*
X125582857Y-130206904D01*
X125773333Y-130159285D01*
X126011428Y-130159285D01*
X126201904Y-130206904D01*
X126297142Y-130254523D01*
X126344761Y-130302142D01*
X126392380Y-130397380D01*
X126392380Y-130492619D01*
X126344761Y-130587857D01*
X126297142Y-130635476D01*
X126201904Y-130683095D01*
X126011428Y-130730714D01*
X125773333Y-130730714D01*
X125582857Y-130683095D01*
X125487619Y-130635476D01*
X125440000Y-130587857D01*
X125392380Y-130492619D01*
X125487619Y-129778333D02*
X125440000Y-129730714D01*
X125392380Y-129635476D01*
X125392380Y-129397380D01*
X125440000Y-129302142D01*
X125487619Y-129254523D01*
X125582857Y-129206904D01*
X125678095Y-129206904D01*
X125820952Y-129254523D01*
X126392380Y-129825952D01*
X126392380Y-129206904D01*
%TO.C,TP78*%
X182919904Y-71334380D02*
X183491333Y-71334380D01*
X183205619Y-72334380D02*
X183205619Y-71334380D01*
X183824666Y-72334380D02*
X183824666Y-71334380D01*
X184205619Y-71334380D01*
X184300857Y-71382000D01*
X184348476Y-71429619D01*
X184396095Y-71524857D01*
X184396095Y-71667714D01*
X184348476Y-71762952D01*
X184300857Y-71810571D01*
X184205619Y-71858190D01*
X183824666Y-71858190D01*
X184729428Y-71334380D02*
X185396095Y-71334380D01*
X184967523Y-72334380D01*
X185919904Y-71762952D02*
X185824666Y-71715333D01*
X185777047Y-71667714D01*
X185729428Y-71572476D01*
X185729428Y-71524857D01*
X185777047Y-71429619D01*
X185824666Y-71382000D01*
X185919904Y-71334380D01*
X186110380Y-71334380D01*
X186205619Y-71382000D01*
X186253238Y-71429619D01*
X186300857Y-71524857D01*
X186300857Y-71572476D01*
X186253238Y-71667714D01*
X186205619Y-71715333D01*
X186110380Y-71762952D01*
X185919904Y-71762952D01*
X185824666Y-71810571D01*
X185777047Y-71858190D01*
X185729428Y-71953428D01*
X185729428Y-72143904D01*
X185777047Y-72239142D01*
X185824666Y-72286761D01*
X185919904Y-72334380D01*
X186110380Y-72334380D01*
X186205619Y-72286761D01*
X186253238Y-72239142D01*
X186300857Y-72143904D01*
X186300857Y-71953428D01*
X186253238Y-71858190D01*
X186205619Y-71810571D01*
X186110380Y-71762952D01*
%TO.C,TP54*%
X122721904Y-96734380D02*
X123293333Y-96734380D01*
X123007619Y-97734380D02*
X123007619Y-96734380D01*
X123626666Y-97734380D02*
X123626666Y-96734380D01*
X124007619Y-96734380D01*
X124102857Y-96782000D01*
X124150476Y-96829619D01*
X124198095Y-96924857D01*
X124198095Y-97067714D01*
X124150476Y-97162952D01*
X124102857Y-97210571D01*
X124007619Y-97258190D01*
X123626666Y-97258190D01*
X125102857Y-96734380D02*
X124626666Y-96734380D01*
X124579047Y-97210571D01*
X124626666Y-97162952D01*
X124721904Y-97115333D01*
X124960000Y-97115333D01*
X125055238Y-97162952D01*
X125102857Y-97210571D01*
X125150476Y-97305809D01*
X125150476Y-97543904D01*
X125102857Y-97639142D01*
X125055238Y-97686761D01*
X124960000Y-97734380D01*
X124721904Y-97734380D01*
X124626666Y-97686761D01*
X124579047Y-97639142D01*
X126007619Y-97067714D02*
X126007619Y-97734380D01*
X125769523Y-96686761D02*
X125531428Y-97401047D01*
X126150476Y-97401047D01*
%TO.C,TP17*%
X147359904Y-131786380D02*
X147931333Y-131786380D01*
X147645619Y-132786380D02*
X147645619Y-131786380D01*
X148264666Y-132786380D02*
X148264666Y-131786380D01*
X148645619Y-131786380D01*
X148740857Y-131834000D01*
X148788476Y-131881619D01*
X148836095Y-131976857D01*
X148836095Y-132119714D01*
X148788476Y-132214952D01*
X148740857Y-132262571D01*
X148645619Y-132310190D01*
X148264666Y-132310190D01*
X149788476Y-132786380D02*
X149217047Y-132786380D01*
X149502761Y-132786380D02*
X149502761Y-131786380D01*
X149407523Y-131929238D01*
X149312285Y-132024476D01*
X149217047Y-132072095D01*
X150121809Y-131786380D02*
X150788476Y-131786380D01*
X150359904Y-132786380D01*
%TO.C,TP68*%
X156932095Y-81319619D02*
X156360666Y-81319619D01*
X156646380Y-80319619D02*
X156646380Y-81319619D01*
X156027333Y-80319619D02*
X156027333Y-81319619D01*
X155646380Y-81319619D01*
X155551142Y-81272000D01*
X155503523Y-81224380D01*
X155455904Y-81129142D01*
X155455904Y-80986285D01*
X155503523Y-80891047D01*
X155551142Y-80843428D01*
X155646380Y-80795809D01*
X156027333Y-80795809D01*
X154598761Y-81319619D02*
X154789238Y-81319619D01*
X154884476Y-81272000D01*
X154932095Y-81224380D01*
X155027333Y-81081523D01*
X155074952Y-80891047D01*
X155074952Y-80510095D01*
X155027333Y-80414857D01*
X154979714Y-80367238D01*
X154884476Y-80319619D01*
X154694000Y-80319619D01*
X154598761Y-80367238D01*
X154551142Y-80414857D01*
X154503523Y-80510095D01*
X154503523Y-80748190D01*
X154551142Y-80843428D01*
X154598761Y-80891047D01*
X154694000Y-80938666D01*
X154884476Y-80938666D01*
X154979714Y-80891047D01*
X155027333Y-80843428D01*
X155074952Y-80748190D01*
X153932095Y-80891047D02*
X154027333Y-80938666D01*
X154074952Y-80986285D01*
X154122571Y-81081523D01*
X154122571Y-81129142D01*
X154074952Y-81224380D01*
X154027333Y-81272000D01*
X153932095Y-81319619D01*
X153741619Y-81319619D01*
X153646380Y-81272000D01*
X153598761Y-81224380D01*
X153551142Y-81129142D01*
X153551142Y-81081523D01*
X153598761Y-80986285D01*
X153646380Y-80938666D01*
X153741619Y-80891047D01*
X153932095Y-80891047D01*
X154027333Y-80843428D01*
X154074952Y-80795809D01*
X154122571Y-80700571D01*
X154122571Y-80510095D01*
X154074952Y-80414857D01*
X154027333Y-80367238D01*
X153932095Y-80319619D01*
X153741619Y-80319619D01*
X153646380Y-80367238D01*
X153598761Y-80414857D01*
X153551142Y-80510095D01*
X153551142Y-80700571D01*
X153598761Y-80795809D01*
X153646380Y-80843428D01*
X153741619Y-80891047D01*
%TO.C,U7105*%
X74607380Y-133625476D02*
X75416904Y-133625476D01*
X75512142Y-133577857D01*
X75559761Y-133530238D01*
X75607380Y-133435000D01*
X75607380Y-133244523D01*
X75559761Y-133149285D01*
X75512142Y-133101666D01*
X75416904Y-133054047D01*
X74607380Y-133054047D01*
X74607380Y-132673095D02*
X74607380Y-132006428D01*
X75607380Y-132435000D01*
X75607380Y-131101666D02*
X75607380Y-131673095D01*
X75607380Y-131387380D02*
X74607380Y-131387380D01*
X74750238Y-131482619D01*
X74845476Y-131577857D01*
X74893095Y-131673095D01*
X74607380Y-130482619D02*
X74607380Y-130387380D01*
X74655000Y-130292142D01*
X74702619Y-130244523D01*
X74797857Y-130196904D01*
X74988333Y-130149285D01*
X75226428Y-130149285D01*
X75416904Y-130196904D01*
X75512142Y-130244523D01*
X75559761Y-130292142D01*
X75607380Y-130387380D01*
X75607380Y-130482619D01*
X75559761Y-130577857D01*
X75512142Y-130625476D01*
X75416904Y-130673095D01*
X75226428Y-130720714D01*
X74988333Y-130720714D01*
X74797857Y-130673095D01*
X74702619Y-130625476D01*
X74655000Y-130577857D01*
X74607380Y-130482619D01*
X74607380Y-129244523D02*
X74607380Y-129720714D01*
X75083571Y-129768333D01*
X75035952Y-129720714D01*
X74988333Y-129625476D01*
X74988333Y-129387380D01*
X75035952Y-129292142D01*
X75083571Y-129244523D01*
X75178809Y-129196904D01*
X75416904Y-129196904D01*
X75512142Y-129244523D01*
X75559761Y-129292142D01*
X75607380Y-129387380D01*
X75607380Y-129625476D01*
X75559761Y-129720714D01*
X75512142Y-129768333D01*
%TO.C,TP86*%
X148629904Y-51014380D02*
X149201333Y-51014380D01*
X148915619Y-52014380D02*
X148915619Y-51014380D01*
X149534666Y-52014380D02*
X149534666Y-51014380D01*
X149915619Y-51014380D01*
X150010857Y-51062000D01*
X150058476Y-51109619D01*
X150106095Y-51204857D01*
X150106095Y-51347714D01*
X150058476Y-51442952D01*
X150010857Y-51490571D01*
X149915619Y-51538190D01*
X149534666Y-51538190D01*
X150677523Y-51442952D02*
X150582285Y-51395333D01*
X150534666Y-51347714D01*
X150487047Y-51252476D01*
X150487047Y-51204857D01*
X150534666Y-51109619D01*
X150582285Y-51062000D01*
X150677523Y-51014380D01*
X150868000Y-51014380D01*
X150963238Y-51062000D01*
X151010857Y-51109619D01*
X151058476Y-51204857D01*
X151058476Y-51252476D01*
X151010857Y-51347714D01*
X150963238Y-51395333D01*
X150868000Y-51442952D01*
X150677523Y-51442952D01*
X150582285Y-51490571D01*
X150534666Y-51538190D01*
X150487047Y-51633428D01*
X150487047Y-51823904D01*
X150534666Y-51919142D01*
X150582285Y-51966761D01*
X150677523Y-52014380D01*
X150868000Y-52014380D01*
X150963238Y-51966761D01*
X151010857Y-51919142D01*
X151058476Y-51823904D01*
X151058476Y-51633428D01*
X151010857Y-51538190D01*
X150963238Y-51490571D01*
X150868000Y-51442952D01*
X151915619Y-51014380D02*
X151725142Y-51014380D01*
X151629904Y-51062000D01*
X151582285Y-51109619D01*
X151487047Y-51252476D01*
X151439428Y-51442952D01*
X151439428Y-51823904D01*
X151487047Y-51919142D01*
X151534666Y-51966761D01*
X151629904Y-52014380D01*
X151820380Y-52014380D01*
X151915619Y-51966761D01*
X151963238Y-51919142D01*
X152010857Y-51823904D01*
X152010857Y-51585809D01*
X151963238Y-51490571D01*
X151915619Y-51442952D01*
X151820380Y-51395333D01*
X151629904Y-51395333D01*
X151534666Y-51442952D01*
X151487047Y-51490571D01*
X151439428Y-51585809D01*
%TO.C,TP52*%
X74382380Y-102322095D02*
X74382380Y-101750666D01*
X75382380Y-102036380D02*
X74382380Y-102036380D01*
X75382380Y-101417333D02*
X74382380Y-101417333D01*
X74382380Y-101036380D01*
X74430000Y-100941142D01*
X74477619Y-100893523D01*
X74572857Y-100845904D01*
X74715714Y-100845904D01*
X74810952Y-100893523D01*
X74858571Y-100941142D01*
X74906190Y-101036380D01*
X74906190Y-101417333D01*
X74382380Y-99941142D02*
X74382380Y-100417333D01*
X74858571Y-100464952D01*
X74810952Y-100417333D01*
X74763333Y-100322095D01*
X74763333Y-100084000D01*
X74810952Y-99988761D01*
X74858571Y-99941142D01*
X74953809Y-99893523D01*
X75191904Y-99893523D01*
X75287142Y-99941142D01*
X75334761Y-99988761D01*
X75382380Y-100084000D01*
X75382380Y-100322095D01*
X75334761Y-100417333D01*
X75287142Y-100464952D01*
X74477619Y-99512571D02*
X74430000Y-99464952D01*
X74382380Y-99369714D01*
X74382380Y-99131619D01*
X74430000Y-99036380D01*
X74477619Y-98988761D01*
X74572857Y-98941142D01*
X74668095Y-98941142D01*
X74810952Y-98988761D01*
X75382380Y-99560190D01*
X75382380Y-98941142D01*
%TO.C,TP65*%
X161329904Y-58380380D02*
X161901333Y-58380380D01*
X161615619Y-59380380D02*
X161615619Y-58380380D01*
X162234666Y-59380380D02*
X162234666Y-58380380D01*
X162615619Y-58380380D01*
X162710857Y-58428000D01*
X162758476Y-58475619D01*
X162806095Y-58570857D01*
X162806095Y-58713714D01*
X162758476Y-58808952D01*
X162710857Y-58856571D01*
X162615619Y-58904190D01*
X162234666Y-58904190D01*
X163663238Y-58380380D02*
X163472761Y-58380380D01*
X163377523Y-58428000D01*
X163329904Y-58475619D01*
X163234666Y-58618476D01*
X163187047Y-58808952D01*
X163187047Y-59189904D01*
X163234666Y-59285142D01*
X163282285Y-59332761D01*
X163377523Y-59380380D01*
X163568000Y-59380380D01*
X163663238Y-59332761D01*
X163710857Y-59285142D01*
X163758476Y-59189904D01*
X163758476Y-58951809D01*
X163710857Y-58856571D01*
X163663238Y-58808952D01*
X163568000Y-58761333D01*
X163377523Y-58761333D01*
X163282285Y-58808952D01*
X163234666Y-58856571D01*
X163187047Y-58951809D01*
X164663238Y-58380380D02*
X164187047Y-58380380D01*
X164139428Y-58856571D01*
X164187047Y-58808952D01*
X164282285Y-58761333D01*
X164520380Y-58761333D01*
X164615619Y-58808952D01*
X164663238Y-58856571D01*
X164710857Y-58951809D01*
X164710857Y-59189904D01*
X164663238Y-59285142D01*
X164615619Y-59332761D01*
X164520380Y-59380380D01*
X164282285Y-59380380D01*
X164187047Y-59332761D01*
X164139428Y-59285142D01*
%TO.C,TP5*%
X157488095Y-133310380D02*
X158059523Y-133310380D01*
X157773809Y-134310380D02*
X157773809Y-133310380D01*
X158392857Y-134310380D02*
X158392857Y-133310380D01*
X158773809Y-133310380D01*
X158869047Y-133358000D01*
X158916666Y-133405619D01*
X158964285Y-133500857D01*
X158964285Y-133643714D01*
X158916666Y-133738952D01*
X158869047Y-133786571D01*
X158773809Y-133834190D01*
X158392857Y-133834190D01*
X159869047Y-133310380D02*
X159392857Y-133310380D01*
X159345238Y-133786571D01*
X159392857Y-133738952D01*
X159488095Y-133691333D01*
X159726190Y-133691333D01*
X159821428Y-133738952D01*
X159869047Y-133786571D01*
X159916666Y-133881809D01*
X159916666Y-134119904D01*
X159869047Y-134215142D01*
X159821428Y-134262761D01*
X159726190Y-134310380D01*
X159488095Y-134310380D01*
X159392857Y-134262761D01*
X159345238Y-134215142D01*
%TO.C,TP27*%
X109259904Y-131786380D02*
X109831333Y-131786380D01*
X109545619Y-132786380D02*
X109545619Y-131786380D01*
X110164666Y-132786380D02*
X110164666Y-131786380D01*
X110545619Y-131786380D01*
X110640857Y-131834000D01*
X110688476Y-131881619D01*
X110736095Y-131976857D01*
X110736095Y-132119714D01*
X110688476Y-132214952D01*
X110640857Y-132262571D01*
X110545619Y-132310190D01*
X110164666Y-132310190D01*
X111117047Y-131881619D02*
X111164666Y-131834000D01*
X111259904Y-131786380D01*
X111498000Y-131786380D01*
X111593238Y-131834000D01*
X111640857Y-131881619D01*
X111688476Y-131976857D01*
X111688476Y-132072095D01*
X111640857Y-132214952D01*
X111069428Y-132786380D01*
X111688476Y-132786380D01*
X112021809Y-131786380D02*
X112688476Y-131786380D01*
X112259904Y-132786380D01*
%TO.C,TP49*%
X104941904Y-106132380D02*
X105513333Y-106132380D01*
X105227619Y-107132380D02*
X105227619Y-106132380D01*
X105846666Y-107132380D02*
X105846666Y-106132380D01*
X106227619Y-106132380D01*
X106322857Y-106180000D01*
X106370476Y-106227619D01*
X106418095Y-106322857D01*
X106418095Y-106465714D01*
X106370476Y-106560952D01*
X106322857Y-106608571D01*
X106227619Y-106656190D01*
X105846666Y-106656190D01*
X107275238Y-106465714D02*
X107275238Y-107132380D01*
X107037142Y-106084761D02*
X106799047Y-106799047D01*
X107418095Y-106799047D01*
X107846666Y-107132380D02*
X108037142Y-107132380D01*
X108132380Y-107084761D01*
X108180000Y-107037142D01*
X108275238Y-106894285D01*
X108322857Y-106703809D01*
X108322857Y-106322857D01*
X108275238Y-106227619D01*
X108227619Y-106180000D01*
X108132380Y-106132380D01*
X107941904Y-106132380D01*
X107846666Y-106180000D01*
X107799047Y-106227619D01*
X107751428Y-106322857D01*
X107751428Y-106560952D01*
X107799047Y-106656190D01*
X107846666Y-106703809D01*
X107941904Y-106751428D01*
X108132380Y-106751428D01*
X108227619Y-106703809D01*
X108275238Y-106656190D01*
X108322857Y-106560952D01*
%TO.C,TP90*%
X137961904Y-88860380D02*
X138533333Y-88860380D01*
X138247619Y-89860380D02*
X138247619Y-88860380D01*
X138866666Y-89860380D02*
X138866666Y-88860380D01*
X139247619Y-88860380D01*
X139342857Y-88908000D01*
X139390476Y-88955619D01*
X139438095Y-89050857D01*
X139438095Y-89193714D01*
X139390476Y-89288952D01*
X139342857Y-89336571D01*
X139247619Y-89384190D01*
X138866666Y-89384190D01*
X139914285Y-89860380D02*
X140104761Y-89860380D01*
X140200000Y-89812761D01*
X140247619Y-89765142D01*
X140342857Y-89622285D01*
X140390476Y-89431809D01*
X140390476Y-89050857D01*
X140342857Y-88955619D01*
X140295238Y-88908000D01*
X140200000Y-88860380D01*
X140009523Y-88860380D01*
X139914285Y-88908000D01*
X139866666Y-88955619D01*
X139819047Y-89050857D01*
X139819047Y-89288952D01*
X139866666Y-89384190D01*
X139914285Y-89431809D01*
X140009523Y-89479428D01*
X140200000Y-89479428D01*
X140295238Y-89431809D01*
X140342857Y-89384190D01*
X140390476Y-89288952D01*
X141009523Y-88860380D02*
X141104761Y-88860380D01*
X141200000Y-88908000D01*
X141247619Y-88955619D01*
X141295238Y-89050857D01*
X141342857Y-89241333D01*
X141342857Y-89479428D01*
X141295238Y-89669904D01*
X141247619Y-89765142D01*
X141200000Y-89812761D01*
X141104761Y-89860380D01*
X141009523Y-89860380D01*
X140914285Y-89812761D01*
X140866666Y-89765142D01*
X140819047Y-89669904D01*
X140771428Y-89479428D01*
X140771428Y-89241333D01*
X140819047Y-89050857D01*
X140866666Y-88955619D01*
X140914285Y-88908000D01*
X141009523Y-88860380D01*
%TO.C,TP12*%
X171997904Y-119340380D02*
X172569333Y-119340380D01*
X172283619Y-120340380D02*
X172283619Y-119340380D01*
X172902666Y-120340380D02*
X172902666Y-119340380D01*
X173283619Y-119340380D01*
X173378857Y-119388000D01*
X173426476Y-119435619D01*
X173474095Y-119530857D01*
X173474095Y-119673714D01*
X173426476Y-119768952D01*
X173378857Y-119816571D01*
X173283619Y-119864190D01*
X172902666Y-119864190D01*
X174426476Y-120340380D02*
X173855047Y-120340380D01*
X174140761Y-120340380D02*
X174140761Y-119340380D01*
X174045523Y-119483238D01*
X173950285Y-119578476D01*
X173855047Y-119626095D01*
X174807428Y-119435619D02*
X174855047Y-119388000D01*
X174950285Y-119340380D01*
X175188380Y-119340380D01*
X175283619Y-119388000D01*
X175331238Y-119435619D01*
X175378857Y-119530857D01*
X175378857Y-119626095D01*
X175331238Y-119768952D01*
X174759809Y-120340380D01*
X175378857Y-120340380D01*
%TO.C,TP77*%
X170219904Y-56094380D02*
X170791333Y-56094380D01*
X170505619Y-57094380D02*
X170505619Y-56094380D01*
X171124666Y-57094380D02*
X171124666Y-56094380D01*
X171505619Y-56094380D01*
X171600857Y-56142000D01*
X171648476Y-56189619D01*
X171696095Y-56284857D01*
X171696095Y-56427714D01*
X171648476Y-56522952D01*
X171600857Y-56570571D01*
X171505619Y-56618190D01*
X171124666Y-56618190D01*
X172029428Y-56094380D02*
X172696095Y-56094380D01*
X172267523Y-57094380D01*
X172981809Y-56094380D02*
X173648476Y-56094380D01*
X173219904Y-57094380D01*
%TO.C,TP39*%
X78271904Y-133310380D02*
X78843333Y-133310380D01*
X78557619Y-134310380D02*
X78557619Y-133310380D01*
X79176666Y-134310380D02*
X79176666Y-133310380D01*
X79557619Y-133310380D01*
X79652857Y-133358000D01*
X79700476Y-133405619D01*
X79748095Y-133500857D01*
X79748095Y-133643714D01*
X79700476Y-133738952D01*
X79652857Y-133786571D01*
X79557619Y-133834190D01*
X79176666Y-133834190D01*
X80081428Y-133310380D02*
X80700476Y-133310380D01*
X80367142Y-133691333D01*
X80510000Y-133691333D01*
X80605238Y-133738952D01*
X80652857Y-133786571D01*
X80700476Y-133881809D01*
X80700476Y-134119904D01*
X80652857Y-134215142D01*
X80605238Y-134262761D01*
X80510000Y-134310380D01*
X80224285Y-134310380D01*
X80129047Y-134262761D01*
X80081428Y-134215142D01*
X81176666Y-134310380D02*
X81367142Y-134310380D01*
X81462380Y-134262761D01*
X81510000Y-134215142D01*
X81605238Y-134072285D01*
X81652857Y-133881809D01*
X81652857Y-133500857D01*
X81605238Y-133405619D01*
X81557619Y-133358000D01*
X81462380Y-133310380D01*
X81271904Y-133310380D01*
X81176666Y-133358000D01*
X81129047Y-133405619D01*
X81081428Y-133500857D01*
X81081428Y-133738952D01*
X81129047Y-133834190D01*
X81176666Y-133881809D01*
X81271904Y-133929428D01*
X81462380Y-133929428D01*
X81557619Y-133881809D01*
X81605238Y-133834190D01*
X81652857Y-133738952D01*
%TO.C,TP22*%
X132119904Y-133818380D02*
X132691333Y-133818380D01*
X132405619Y-134818380D02*
X132405619Y-133818380D01*
X133024666Y-134818380D02*
X133024666Y-133818380D01*
X133405619Y-133818380D01*
X133500857Y-133866000D01*
X133548476Y-133913619D01*
X133596095Y-134008857D01*
X133596095Y-134151714D01*
X133548476Y-134246952D01*
X133500857Y-134294571D01*
X133405619Y-134342190D01*
X133024666Y-134342190D01*
X133977047Y-133913619D02*
X134024666Y-133866000D01*
X134119904Y-133818380D01*
X134358000Y-133818380D01*
X134453238Y-133866000D01*
X134500857Y-133913619D01*
X134548476Y-134008857D01*
X134548476Y-134104095D01*
X134500857Y-134246952D01*
X133929428Y-134818380D01*
X134548476Y-134818380D01*
X134929428Y-133913619D02*
X134977047Y-133866000D01*
X135072285Y-133818380D01*
X135310380Y-133818380D01*
X135405619Y-133866000D01*
X135453238Y-133913619D01*
X135500857Y-134008857D01*
X135500857Y-134104095D01*
X135453238Y-134246952D01*
X134881809Y-134818380D01*
X135500857Y-134818380D01*
%TO.C,TP98*%
X108751904Y-66254380D02*
X109323333Y-66254380D01*
X109037619Y-67254380D02*
X109037619Y-66254380D01*
X109656666Y-67254380D02*
X109656666Y-66254380D01*
X110037619Y-66254380D01*
X110132857Y-66302000D01*
X110180476Y-66349619D01*
X110228095Y-66444857D01*
X110228095Y-66587714D01*
X110180476Y-66682952D01*
X110132857Y-66730571D01*
X110037619Y-66778190D01*
X109656666Y-66778190D01*
X110704285Y-67254380D02*
X110894761Y-67254380D01*
X110990000Y-67206761D01*
X111037619Y-67159142D01*
X111132857Y-67016285D01*
X111180476Y-66825809D01*
X111180476Y-66444857D01*
X111132857Y-66349619D01*
X111085238Y-66302000D01*
X110990000Y-66254380D01*
X110799523Y-66254380D01*
X110704285Y-66302000D01*
X110656666Y-66349619D01*
X110609047Y-66444857D01*
X110609047Y-66682952D01*
X110656666Y-66778190D01*
X110704285Y-66825809D01*
X110799523Y-66873428D01*
X110990000Y-66873428D01*
X111085238Y-66825809D01*
X111132857Y-66778190D01*
X111180476Y-66682952D01*
X111751904Y-66682952D02*
X111656666Y-66635333D01*
X111609047Y-66587714D01*
X111561428Y-66492476D01*
X111561428Y-66444857D01*
X111609047Y-66349619D01*
X111656666Y-66302000D01*
X111751904Y-66254380D01*
X111942380Y-66254380D01*
X112037619Y-66302000D01*
X112085238Y-66349619D01*
X112132857Y-66444857D01*
X112132857Y-66492476D01*
X112085238Y-66587714D01*
X112037619Y-66635333D01*
X111942380Y-66682952D01*
X111751904Y-66682952D01*
X111656666Y-66730571D01*
X111609047Y-66778190D01*
X111561428Y-66873428D01*
X111561428Y-67063904D01*
X111609047Y-67159142D01*
X111656666Y-67206761D01*
X111751904Y-67254380D01*
X111942380Y-67254380D01*
X112037619Y-67206761D01*
X112085238Y-67159142D01*
X112132857Y-67063904D01*
X112132857Y-66873428D01*
X112085238Y-66778190D01*
X112037619Y-66730571D01*
X111942380Y-66682952D01*
%TO.C,TP36*%
X112561904Y-115022380D02*
X113133333Y-115022380D01*
X112847619Y-116022380D02*
X112847619Y-115022380D01*
X113466666Y-116022380D02*
X113466666Y-115022380D01*
X113847619Y-115022380D01*
X113942857Y-115070000D01*
X113990476Y-115117619D01*
X114038095Y-115212857D01*
X114038095Y-115355714D01*
X113990476Y-115450952D01*
X113942857Y-115498571D01*
X113847619Y-115546190D01*
X113466666Y-115546190D01*
X114371428Y-115022380D02*
X114990476Y-115022380D01*
X114657142Y-115403333D01*
X114800000Y-115403333D01*
X114895238Y-115450952D01*
X114942857Y-115498571D01*
X114990476Y-115593809D01*
X114990476Y-115831904D01*
X114942857Y-115927142D01*
X114895238Y-115974761D01*
X114800000Y-116022380D01*
X114514285Y-116022380D01*
X114419047Y-115974761D01*
X114371428Y-115927142D01*
X115847619Y-115022380D02*
X115657142Y-115022380D01*
X115561904Y-115070000D01*
X115514285Y-115117619D01*
X115419047Y-115260476D01*
X115371428Y-115450952D01*
X115371428Y-115831904D01*
X115419047Y-115927142D01*
X115466666Y-115974761D01*
X115561904Y-116022380D01*
X115752380Y-116022380D01*
X115847619Y-115974761D01*
X115895238Y-115927142D01*
X115942857Y-115831904D01*
X115942857Y-115593809D01*
X115895238Y-115498571D01*
X115847619Y-115450952D01*
X115752380Y-115403333D01*
X115561904Y-115403333D01*
X115466666Y-115450952D01*
X115419047Y-115498571D01*
X115371428Y-115593809D01*
%TO.C,U7104*%
X100007380Y-133625476D02*
X100816904Y-133625476D01*
X100912142Y-133577857D01*
X100959761Y-133530238D01*
X101007380Y-133435000D01*
X101007380Y-133244523D01*
X100959761Y-133149285D01*
X100912142Y-133101666D01*
X100816904Y-133054047D01*
X100007380Y-133054047D01*
X100007380Y-132673095D02*
X100007380Y-132006428D01*
X101007380Y-132435000D01*
X101007380Y-131101666D02*
X101007380Y-131673095D01*
X101007380Y-131387380D02*
X100007380Y-131387380D01*
X100150238Y-131482619D01*
X100245476Y-131577857D01*
X100293095Y-131673095D01*
X100007380Y-130482619D02*
X100007380Y-130387380D01*
X100055000Y-130292142D01*
X100102619Y-130244523D01*
X100197857Y-130196904D01*
X100388333Y-130149285D01*
X100626428Y-130149285D01*
X100816904Y-130196904D01*
X100912142Y-130244523D01*
X100959761Y-130292142D01*
X101007380Y-130387380D01*
X101007380Y-130482619D01*
X100959761Y-130577857D01*
X100912142Y-130625476D01*
X100816904Y-130673095D01*
X100626428Y-130720714D01*
X100388333Y-130720714D01*
X100197857Y-130673095D01*
X100102619Y-130625476D01*
X100055000Y-130577857D01*
X100007380Y-130482619D01*
X100340714Y-129292142D02*
X101007380Y-129292142D01*
X99959761Y-129530238D02*
X100674047Y-129768333D01*
X100674047Y-129149285D01*
%TO.C,TP40*%
X82081904Y-125182380D02*
X82653333Y-125182380D01*
X82367619Y-126182380D02*
X82367619Y-125182380D01*
X82986666Y-126182380D02*
X82986666Y-125182380D01*
X83367619Y-125182380D01*
X83462857Y-125230000D01*
X83510476Y-125277619D01*
X83558095Y-125372857D01*
X83558095Y-125515714D01*
X83510476Y-125610952D01*
X83462857Y-125658571D01*
X83367619Y-125706190D01*
X82986666Y-125706190D01*
X84415238Y-125515714D02*
X84415238Y-126182380D01*
X84177142Y-125134761D02*
X83939047Y-125849047D01*
X84558095Y-125849047D01*
X85129523Y-125182380D02*
X85224761Y-125182380D01*
X85320000Y-125230000D01*
X85367619Y-125277619D01*
X85415238Y-125372857D01*
X85462857Y-125563333D01*
X85462857Y-125801428D01*
X85415238Y-125991904D01*
X85367619Y-126087142D01*
X85320000Y-126134761D01*
X85224761Y-126182380D01*
X85129523Y-126182380D01*
X85034285Y-126134761D01*
X84986666Y-126087142D01*
X84939047Y-125991904D01*
X84891428Y-125801428D01*
X84891428Y-125563333D01*
X84939047Y-125372857D01*
X84986666Y-125277619D01*
X85034285Y-125230000D01*
X85129523Y-125182380D01*
%TO.C,TP58*%
X179871904Y-96734380D02*
X180443333Y-96734380D01*
X180157619Y-97734380D02*
X180157619Y-96734380D01*
X180776666Y-97734380D02*
X180776666Y-96734380D01*
X181157619Y-96734380D01*
X181252857Y-96782000D01*
X181300476Y-96829619D01*
X181348095Y-96924857D01*
X181348095Y-97067714D01*
X181300476Y-97162952D01*
X181252857Y-97210571D01*
X181157619Y-97258190D01*
X180776666Y-97258190D01*
X182252857Y-96734380D02*
X181776666Y-96734380D01*
X181729047Y-97210571D01*
X181776666Y-97162952D01*
X181871904Y-97115333D01*
X182110000Y-97115333D01*
X182205238Y-97162952D01*
X182252857Y-97210571D01*
X182300476Y-97305809D01*
X182300476Y-97543904D01*
X182252857Y-97639142D01*
X182205238Y-97686761D01*
X182110000Y-97734380D01*
X181871904Y-97734380D01*
X181776666Y-97686761D01*
X181729047Y-97639142D01*
X182871904Y-97162952D02*
X182776666Y-97115333D01*
X182729047Y-97067714D01*
X182681428Y-96972476D01*
X182681428Y-96924857D01*
X182729047Y-96829619D01*
X182776666Y-96782000D01*
X182871904Y-96734380D01*
X183062380Y-96734380D01*
X183157619Y-96782000D01*
X183205238Y-96829619D01*
X183252857Y-96924857D01*
X183252857Y-96972476D01*
X183205238Y-97067714D01*
X183157619Y-97115333D01*
X183062380Y-97162952D01*
X182871904Y-97162952D01*
X182776666Y-97210571D01*
X182729047Y-97258190D01*
X182681428Y-97353428D01*
X182681428Y-97543904D01*
X182729047Y-97639142D01*
X182776666Y-97686761D01*
X182871904Y-97734380D01*
X183062380Y-97734380D01*
X183157619Y-97686761D01*
X183205238Y-97639142D01*
X183252857Y-97543904D01*
X183252857Y-97353428D01*
X183205238Y-97258190D01*
X183157619Y-97210571D01*
X183062380Y-97162952D01*
%TO.C,TP7*%
X162582095Y-132548380D02*
X163153523Y-132548380D01*
X162867809Y-133548380D02*
X162867809Y-132548380D01*
X163486857Y-133548380D02*
X163486857Y-132548380D01*
X163867809Y-132548380D01*
X163963047Y-132596000D01*
X164010666Y-132643619D01*
X164058285Y-132738857D01*
X164058285Y-132881714D01*
X164010666Y-132976952D01*
X163963047Y-133024571D01*
X163867809Y-133072190D01*
X163486857Y-133072190D01*
X164391619Y-132548380D02*
X165058285Y-132548380D01*
X164629714Y-133548380D01*
%TO.C,REF\u002A\u002A*%
X205041666Y-59507380D02*
X204708333Y-59031190D01*
X204470238Y-59507380D02*
X204470238Y-58507380D01*
X204851190Y-58507380D01*
X204946428Y-58555000D01*
X204994047Y-58602619D01*
X205041666Y-58697857D01*
X205041666Y-58840714D01*
X204994047Y-58935952D01*
X204946428Y-58983571D01*
X204851190Y-59031190D01*
X204470238Y-59031190D01*
X205470238Y-58983571D02*
X205803571Y-58983571D01*
X205946428Y-59507380D02*
X205470238Y-59507380D01*
X205470238Y-58507380D01*
X205946428Y-58507380D01*
X206708333Y-58983571D02*
X206375000Y-58983571D01*
X206375000Y-59507380D02*
X206375000Y-58507380D01*
X206851190Y-58507380D01*
X207375000Y-58507380D02*
X207375000Y-58745476D01*
X207136904Y-58650238D02*
X207375000Y-58745476D01*
X207613095Y-58650238D01*
X207232142Y-58935952D02*
X207375000Y-58745476D01*
X207517857Y-58935952D01*
X208136904Y-58507380D02*
X208136904Y-58745476D01*
X207898809Y-58650238D02*
X208136904Y-58745476D01*
X208375000Y-58650238D01*
X207994047Y-58935952D02*
X208136904Y-58745476D01*
X208279761Y-58935952D01*
%TO.C,TP60*%
X173950095Y-119927619D02*
X173378666Y-119927619D01*
X173664380Y-118927619D02*
X173664380Y-119927619D01*
X173045333Y-118927619D02*
X173045333Y-119927619D01*
X172664380Y-119927619D01*
X172569142Y-119880000D01*
X172521523Y-119832380D01*
X172473904Y-119737142D01*
X172473904Y-119594285D01*
X172521523Y-119499047D01*
X172569142Y-119451428D01*
X172664380Y-119403809D01*
X173045333Y-119403809D01*
X171616761Y-119927619D02*
X171807238Y-119927619D01*
X171902476Y-119880000D01*
X171950095Y-119832380D01*
X172045333Y-119689523D01*
X172092952Y-119499047D01*
X172092952Y-119118095D01*
X172045333Y-119022857D01*
X171997714Y-118975238D01*
X171902476Y-118927619D01*
X171712000Y-118927619D01*
X171616761Y-118975238D01*
X171569142Y-119022857D01*
X171521523Y-119118095D01*
X171521523Y-119356190D01*
X171569142Y-119451428D01*
X171616761Y-119499047D01*
X171712000Y-119546666D01*
X171902476Y-119546666D01*
X171997714Y-119499047D01*
X172045333Y-119451428D01*
X172092952Y-119356190D01*
X170902476Y-119927619D02*
X170807238Y-119927619D01*
X170712000Y-119880000D01*
X170664380Y-119832380D01*
X170616761Y-119737142D01*
X170569142Y-119546666D01*
X170569142Y-119308571D01*
X170616761Y-119118095D01*
X170664380Y-119022857D01*
X170712000Y-118975238D01*
X170807238Y-118927619D01*
X170902476Y-118927619D01*
X170997714Y-118975238D01*
X171045333Y-119022857D01*
X171092952Y-119118095D01*
X171140571Y-119308571D01*
X171140571Y-119546666D01*
X171092952Y-119737142D01*
X171045333Y-119832380D01*
X170997714Y-119880000D01*
X170902476Y-119927619D01*
%TO.C,TP63*%
X184443904Y-101052380D02*
X185015333Y-101052380D01*
X184729619Y-102052380D02*
X184729619Y-101052380D01*
X185348666Y-102052380D02*
X185348666Y-101052380D01*
X185729619Y-101052380D01*
X185824857Y-101100000D01*
X185872476Y-101147619D01*
X185920095Y-101242857D01*
X185920095Y-101385714D01*
X185872476Y-101480952D01*
X185824857Y-101528571D01*
X185729619Y-101576190D01*
X185348666Y-101576190D01*
X186777238Y-101052380D02*
X186586761Y-101052380D01*
X186491523Y-101100000D01*
X186443904Y-101147619D01*
X186348666Y-101290476D01*
X186301047Y-101480952D01*
X186301047Y-101861904D01*
X186348666Y-101957142D01*
X186396285Y-102004761D01*
X186491523Y-102052380D01*
X186682000Y-102052380D01*
X186777238Y-102004761D01*
X186824857Y-101957142D01*
X186872476Y-101861904D01*
X186872476Y-101623809D01*
X186824857Y-101528571D01*
X186777238Y-101480952D01*
X186682000Y-101433333D01*
X186491523Y-101433333D01*
X186396285Y-101480952D01*
X186348666Y-101528571D01*
X186301047Y-101623809D01*
X187205809Y-101052380D02*
X187824857Y-101052380D01*
X187491523Y-101433333D01*
X187634380Y-101433333D01*
X187729619Y-101480952D01*
X187777238Y-101528571D01*
X187824857Y-101623809D01*
X187824857Y-101861904D01*
X187777238Y-101957142D01*
X187729619Y-102004761D01*
X187634380Y-102052380D01*
X187348666Y-102052380D01*
X187253428Y-102004761D01*
X187205809Y-101957142D01*
%TO.C,TP72*%
X148629904Y-67270380D02*
X149201333Y-67270380D01*
X148915619Y-68270380D02*
X148915619Y-67270380D01*
X149534666Y-68270380D02*
X149534666Y-67270380D01*
X149915619Y-67270380D01*
X150010857Y-67318000D01*
X150058476Y-67365619D01*
X150106095Y-67460857D01*
X150106095Y-67603714D01*
X150058476Y-67698952D01*
X150010857Y-67746571D01*
X149915619Y-67794190D01*
X149534666Y-67794190D01*
X150439428Y-67270380D02*
X151106095Y-67270380D01*
X150677523Y-68270380D01*
X151439428Y-67365619D02*
X151487047Y-67318000D01*
X151582285Y-67270380D01*
X151820380Y-67270380D01*
X151915619Y-67318000D01*
X151963238Y-67365619D01*
X152010857Y-67460857D01*
X152010857Y-67556095D01*
X151963238Y-67698952D01*
X151391809Y-68270380D01*
X152010857Y-68270380D01*
%TO.C,U7112*%
X74587380Y-87905476D02*
X75396904Y-87905476D01*
X75492142Y-87857857D01*
X75539761Y-87810238D01*
X75587380Y-87715000D01*
X75587380Y-87524523D01*
X75539761Y-87429285D01*
X75492142Y-87381666D01*
X75396904Y-87334047D01*
X74587380Y-87334047D01*
X74587380Y-86953095D02*
X74587380Y-86286428D01*
X75587380Y-86715000D01*
X75587380Y-85381666D02*
X75587380Y-85953095D01*
X75587380Y-85667380D02*
X74587380Y-85667380D01*
X74730238Y-85762619D01*
X74825476Y-85857857D01*
X74873095Y-85953095D01*
X75587380Y-84429285D02*
X75587380Y-85000714D01*
X75587380Y-84715000D02*
X74587380Y-84715000D01*
X74730238Y-84810238D01*
X74825476Y-84905476D01*
X74873095Y-85000714D01*
X74682619Y-84048333D02*
X74635000Y-84000714D01*
X74587380Y-83905476D01*
X74587380Y-83667380D01*
X74635000Y-83572142D01*
X74682619Y-83524523D01*
X74777857Y-83476904D01*
X74873095Y-83476904D01*
X75015952Y-83524523D01*
X75587380Y-84095952D01*
X75587380Y-83476904D01*
%TO.C,TP34*%
X107481904Y-115022380D02*
X108053333Y-115022380D01*
X107767619Y-116022380D02*
X107767619Y-115022380D01*
X108386666Y-116022380D02*
X108386666Y-115022380D01*
X108767619Y-115022380D01*
X108862857Y-115070000D01*
X108910476Y-115117619D01*
X108958095Y-115212857D01*
X108958095Y-115355714D01*
X108910476Y-115450952D01*
X108862857Y-115498571D01*
X108767619Y-115546190D01*
X108386666Y-115546190D01*
X109291428Y-115022380D02*
X109910476Y-115022380D01*
X109577142Y-115403333D01*
X109720000Y-115403333D01*
X109815238Y-115450952D01*
X109862857Y-115498571D01*
X109910476Y-115593809D01*
X109910476Y-115831904D01*
X109862857Y-115927142D01*
X109815238Y-115974761D01*
X109720000Y-116022380D01*
X109434285Y-116022380D01*
X109339047Y-115974761D01*
X109291428Y-115927142D01*
X110767619Y-115355714D02*
X110767619Y-116022380D01*
X110529523Y-114974761D02*
X110291428Y-115689047D01*
X110910476Y-115689047D01*
%TO.C,TP83*%
X200953904Y-74382380D02*
X201525333Y-74382380D01*
X201239619Y-75382380D02*
X201239619Y-74382380D01*
X201858666Y-75382380D02*
X201858666Y-74382380D01*
X202239619Y-74382380D01*
X202334857Y-74430000D01*
X202382476Y-74477619D01*
X202430095Y-74572857D01*
X202430095Y-74715714D01*
X202382476Y-74810952D01*
X202334857Y-74858571D01*
X202239619Y-74906190D01*
X201858666Y-74906190D01*
X203001523Y-74810952D02*
X202906285Y-74763333D01*
X202858666Y-74715714D01*
X202811047Y-74620476D01*
X202811047Y-74572857D01*
X202858666Y-74477619D01*
X202906285Y-74430000D01*
X203001523Y-74382380D01*
X203192000Y-74382380D01*
X203287238Y-74430000D01*
X203334857Y-74477619D01*
X203382476Y-74572857D01*
X203382476Y-74620476D01*
X203334857Y-74715714D01*
X203287238Y-74763333D01*
X203192000Y-74810952D01*
X203001523Y-74810952D01*
X202906285Y-74858571D01*
X202858666Y-74906190D01*
X202811047Y-75001428D01*
X202811047Y-75191904D01*
X202858666Y-75287142D01*
X202906285Y-75334761D01*
X203001523Y-75382380D01*
X203192000Y-75382380D01*
X203287238Y-75334761D01*
X203334857Y-75287142D01*
X203382476Y-75191904D01*
X203382476Y-75001428D01*
X203334857Y-74906190D01*
X203287238Y-74858571D01*
X203192000Y-74810952D01*
X203715809Y-74382380D02*
X204334857Y-74382380D01*
X204001523Y-74763333D01*
X204144380Y-74763333D01*
X204239619Y-74810952D01*
X204287238Y-74858571D01*
X204334857Y-74953809D01*
X204334857Y-75191904D01*
X204287238Y-75287142D01*
X204239619Y-75334761D01*
X204144380Y-75382380D01*
X203858666Y-75382380D01*
X203763428Y-75334761D01*
X203715809Y-75287142D01*
%TO.C,TP107*%
X89479714Y-61682380D02*
X90051142Y-61682380D01*
X89765428Y-62682380D02*
X89765428Y-61682380D01*
X90384476Y-62682380D02*
X90384476Y-61682380D01*
X90765428Y-61682380D01*
X90860666Y-61730000D01*
X90908285Y-61777619D01*
X90955904Y-61872857D01*
X90955904Y-62015714D01*
X90908285Y-62110952D01*
X90860666Y-62158571D01*
X90765428Y-62206190D01*
X90384476Y-62206190D01*
X91908285Y-62682380D02*
X91336857Y-62682380D01*
X91622571Y-62682380D02*
X91622571Y-61682380D01*
X91527333Y-61825238D01*
X91432095Y-61920476D01*
X91336857Y-61968095D01*
X92527333Y-61682380D02*
X92622571Y-61682380D01*
X92717809Y-61730000D01*
X92765428Y-61777619D01*
X92813047Y-61872857D01*
X92860666Y-62063333D01*
X92860666Y-62301428D01*
X92813047Y-62491904D01*
X92765428Y-62587142D01*
X92717809Y-62634761D01*
X92622571Y-62682380D01*
X92527333Y-62682380D01*
X92432095Y-62634761D01*
X92384476Y-62587142D01*
X92336857Y-62491904D01*
X92289238Y-62301428D01*
X92289238Y-62063333D01*
X92336857Y-61872857D01*
X92384476Y-61777619D01*
X92432095Y-61730000D01*
X92527333Y-61682380D01*
X93194000Y-61682380D02*
X93860666Y-61682380D01*
X93432095Y-62682380D01*
%TO.C,TP4*%
X194809904Y-143549619D02*
X194238476Y-143549619D01*
X194524190Y-142549619D02*
X194524190Y-143549619D01*
X193905142Y-142549619D02*
X193905142Y-143549619D01*
X193524190Y-143549619D01*
X193428952Y-143502000D01*
X193381333Y-143454380D01*
X193333714Y-143359142D01*
X193333714Y-143216285D01*
X193381333Y-143121047D01*
X193428952Y-143073428D01*
X193524190Y-143025809D01*
X193905142Y-143025809D01*
X192476571Y-143216285D02*
X192476571Y-142549619D01*
X192714666Y-143597238D02*
X192952761Y-142882952D01*
X192333714Y-142882952D01*
%TO.C,C9*%
X155197142Y-64433989D02*
X155244761Y-64481608D01*
X155292380Y-64624465D01*
X155292380Y-64719703D01*
X155244761Y-64862561D01*
X155149523Y-64957799D01*
X155054285Y-65005418D01*
X154863809Y-65053037D01*
X154720952Y-65053037D01*
X154530476Y-65005418D01*
X154435238Y-64957799D01*
X154340000Y-64862561D01*
X154292380Y-64719703D01*
X154292380Y-64624465D01*
X154340000Y-64481608D01*
X154387619Y-64433989D01*
X155292380Y-63957799D02*
X155292380Y-63767323D01*
X155244761Y-63672084D01*
X155197142Y-63624465D01*
X155054285Y-63529227D01*
X154863809Y-63481608D01*
X154482857Y-63481608D01*
X154387619Y-63529227D01*
X154340000Y-63576846D01*
X154292380Y-63672084D01*
X154292380Y-63862561D01*
X154340000Y-63957799D01*
X154387619Y-64005418D01*
X154482857Y-64053037D01*
X154720952Y-64053037D01*
X154816190Y-64005418D01*
X154863809Y-63957799D01*
X154911428Y-63862561D01*
X154911428Y-63672084D01*
X154863809Y-63576846D01*
X154816190Y-63529227D01*
X154720952Y-63481608D01*
%TO.C,U7113*%
X97447380Y-103145476D02*
X98256904Y-103145476D01*
X98352142Y-103097857D01*
X98399761Y-103050238D01*
X98447380Y-102955000D01*
X98447380Y-102764523D01*
X98399761Y-102669285D01*
X98352142Y-102621666D01*
X98256904Y-102574047D01*
X97447380Y-102574047D01*
X97447380Y-102193095D02*
X97447380Y-101526428D01*
X98447380Y-101955000D01*
X98447380Y-100621666D02*
X98447380Y-101193095D01*
X98447380Y-100907380D02*
X97447380Y-100907380D01*
X97590238Y-101002619D01*
X97685476Y-101097857D01*
X97733095Y-101193095D01*
X98447380Y-99669285D02*
X98447380Y-100240714D01*
X98447380Y-99955000D02*
X97447380Y-99955000D01*
X97590238Y-100050238D01*
X97685476Y-100145476D01*
X97733095Y-100240714D01*
X97447380Y-99335952D02*
X97447380Y-98716904D01*
X97828333Y-99050238D01*
X97828333Y-98907380D01*
X97875952Y-98812142D01*
X97923571Y-98764523D01*
X98018809Y-98716904D01*
X98256904Y-98716904D01*
X98352142Y-98764523D01*
X98399761Y-98812142D01*
X98447380Y-98907380D01*
X98447380Y-99193095D01*
X98399761Y-99288333D01*
X98352142Y-99335952D01*
%TO.C,TP13*%
X155741904Y-126706380D02*
X156313333Y-126706380D01*
X156027619Y-127706380D02*
X156027619Y-126706380D01*
X156646666Y-127706380D02*
X156646666Y-126706380D01*
X157027619Y-126706380D01*
X157122857Y-126754000D01*
X157170476Y-126801619D01*
X157218095Y-126896857D01*
X157218095Y-127039714D01*
X157170476Y-127134952D01*
X157122857Y-127182571D01*
X157027619Y-127230190D01*
X156646666Y-127230190D01*
X158170476Y-127706380D02*
X157599047Y-127706380D01*
X157884761Y-127706380D02*
X157884761Y-126706380D01*
X157789523Y-126849238D01*
X157694285Y-126944476D01*
X157599047Y-126992095D01*
X158503809Y-126706380D02*
X159122857Y-126706380D01*
X158789523Y-127087333D01*
X158932380Y-127087333D01*
X159027619Y-127134952D01*
X159075238Y-127182571D01*
X159122857Y-127277809D01*
X159122857Y-127515904D01*
X159075238Y-127611142D01*
X159027619Y-127658761D01*
X158932380Y-127706380D01*
X158646666Y-127706380D01*
X158551428Y-127658761D01*
X158503809Y-127611142D01*
%TO.C,TP11*%
X172251904Y-127214380D02*
X172823333Y-127214380D01*
X172537619Y-128214380D02*
X172537619Y-127214380D01*
X173156666Y-128214380D02*
X173156666Y-127214380D01*
X173537619Y-127214380D01*
X173632857Y-127262000D01*
X173680476Y-127309619D01*
X173728095Y-127404857D01*
X173728095Y-127547714D01*
X173680476Y-127642952D01*
X173632857Y-127690571D01*
X173537619Y-127738190D01*
X173156666Y-127738190D01*
X174680476Y-128214380D02*
X174109047Y-128214380D01*
X174394761Y-128214380D02*
X174394761Y-127214380D01*
X174299523Y-127357238D01*
X174204285Y-127452476D01*
X174109047Y-127500095D01*
X175632857Y-128214380D02*
X175061428Y-128214380D01*
X175347142Y-128214380D02*
X175347142Y-127214380D01*
X175251904Y-127357238D01*
X175156666Y-127452476D01*
X175061428Y-127500095D01*
%TO.C,TP102*%
X92019714Y-52538380D02*
X92591142Y-52538380D01*
X92305428Y-53538380D02*
X92305428Y-52538380D01*
X92924476Y-53538380D02*
X92924476Y-52538380D01*
X93305428Y-52538380D01*
X93400666Y-52586000D01*
X93448285Y-52633619D01*
X93495904Y-52728857D01*
X93495904Y-52871714D01*
X93448285Y-52966952D01*
X93400666Y-53014571D01*
X93305428Y-53062190D01*
X92924476Y-53062190D01*
X94448285Y-53538380D02*
X93876857Y-53538380D01*
X94162571Y-53538380D02*
X94162571Y-52538380D01*
X94067333Y-52681238D01*
X93972095Y-52776476D01*
X93876857Y-52824095D01*
X95067333Y-52538380D02*
X95162571Y-52538380D01*
X95257809Y-52586000D01*
X95305428Y-52633619D01*
X95353047Y-52728857D01*
X95400666Y-52919333D01*
X95400666Y-53157428D01*
X95353047Y-53347904D01*
X95305428Y-53443142D01*
X95257809Y-53490761D01*
X95162571Y-53538380D01*
X95067333Y-53538380D01*
X94972095Y-53490761D01*
X94924476Y-53443142D01*
X94876857Y-53347904D01*
X94829238Y-53157428D01*
X94829238Y-52919333D01*
X94876857Y-52728857D01*
X94924476Y-52633619D01*
X94972095Y-52586000D01*
X95067333Y-52538380D01*
X95781619Y-52633619D02*
X95829238Y-52586000D01*
X95924476Y-52538380D01*
X96162571Y-52538380D01*
X96257809Y-52586000D01*
X96305428Y-52633619D01*
X96353047Y-52728857D01*
X96353047Y-52824095D01*
X96305428Y-52966952D01*
X95734000Y-53538380D01*
X96353047Y-53538380D01*
%TO.C,TP26*%
X119419904Y-116292380D02*
X119991333Y-116292380D01*
X119705619Y-117292380D02*
X119705619Y-116292380D01*
X120324666Y-117292380D02*
X120324666Y-116292380D01*
X120705619Y-116292380D01*
X120800857Y-116340000D01*
X120848476Y-116387619D01*
X120896095Y-116482857D01*
X120896095Y-116625714D01*
X120848476Y-116720952D01*
X120800857Y-116768571D01*
X120705619Y-116816190D01*
X120324666Y-116816190D01*
X121277047Y-116387619D02*
X121324666Y-116340000D01*
X121419904Y-116292380D01*
X121658000Y-116292380D01*
X121753238Y-116340000D01*
X121800857Y-116387619D01*
X121848476Y-116482857D01*
X121848476Y-116578095D01*
X121800857Y-116720952D01*
X121229428Y-117292380D01*
X121848476Y-117292380D01*
X122705619Y-116292380D02*
X122515142Y-116292380D01*
X122419904Y-116340000D01*
X122372285Y-116387619D01*
X122277047Y-116530476D01*
X122229428Y-116720952D01*
X122229428Y-117101904D01*
X122277047Y-117197142D01*
X122324666Y-117244761D01*
X122419904Y-117292380D01*
X122610380Y-117292380D01*
X122705619Y-117244761D01*
X122753238Y-117197142D01*
X122800857Y-117101904D01*
X122800857Y-116863809D01*
X122753238Y-116768571D01*
X122705619Y-116720952D01*
X122610380Y-116673333D01*
X122419904Y-116673333D01*
X122324666Y-116720952D01*
X122277047Y-116768571D01*
X122229428Y-116863809D01*
%TO.C,REF\u002A\u002A*%
X78191666Y-52997380D02*
X77858333Y-52521190D01*
X77620238Y-52997380D02*
X77620238Y-51997380D01*
X78001190Y-51997380D01*
X78096428Y-52045000D01*
X78144047Y-52092619D01*
X78191666Y-52187857D01*
X78191666Y-52330714D01*
X78144047Y-52425952D01*
X78096428Y-52473571D01*
X78001190Y-52521190D01*
X77620238Y-52521190D01*
X78620238Y-52473571D02*
X78953571Y-52473571D01*
X79096428Y-52997380D02*
X78620238Y-52997380D01*
X78620238Y-51997380D01*
X79096428Y-51997380D01*
X79858333Y-52473571D02*
X79525000Y-52473571D01*
X79525000Y-52997380D02*
X79525000Y-51997380D01*
X80001190Y-51997380D01*
X80525000Y-51997380D02*
X80525000Y-52235476D01*
X80286904Y-52140238D02*
X80525000Y-52235476D01*
X80763095Y-52140238D01*
X80382142Y-52425952D02*
X80525000Y-52235476D01*
X80667857Y-52425952D01*
X81286904Y-51997380D02*
X81286904Y-52235476D01*
X81048809Y-52140238D02*
X81286904Y-52235476D01*
X81525000Y-52140238D01*
X81144047Y-52425952D02*
X81286904Y-52235476D01*
X81429761Y-52425952D01*
%TO.C,TP18*%
X151931904Y-130770380D02*
X152503333Y-130770380D01*
X152217619Y-131770380D02*
X152217619Y-130770380D01*
X152836666Y-131770380D02*
X152836666Y-130770380D01*
X153217619Y-130770380D01*
X153312857Y-130818000D01*
X153360476Y-130865619D01*
X153408095Y-130960857D01*
X153408095Y-131103714D01*
X153360476Y-131198952D01*
X153312857Y-131246571D01*
X153217619Y-131294190D01*
X152836666Y-131294190D01*
X154360476Y-131770380D02*
X153789047Y-131770380D01*
X154074761Y-131770380D02*
X154074761Y-130770380D01*
X153979523Y-130913238D01*
X153884285Y-131008476D01*
X153789047Y-131056095D01*
X154931904Y-131198952D02*
X154836666Y-131151333D01*
X154789047Y-131103714D01*
X154741428Y-131008476D01*
X154741428Y-130960857D01*
X154789047Y-130865619D01*
X154836666Y-130818000D01*
X154931904Y-130770380D01*
X155122380Y-130770380D01*
X155217619Y-130818000D01*
X155265238Y-130865619D01*
X155312857Y-130960857D01*
X155312857Y-131008476D01*
X155265238Y-131103714D01*
X155217619Y-131151333D01*
X155122380Y-131198952D01*
X154931904Y-131198952D01*
X154836666Y-131246571D01*
X154789047Y-131294190D01*
X154741428Y-131389428D01*
X154741428Y-131579904D01*
X154789047Y-131675142D01*
X154836666Y-131722761D01*
X154931904Y-131770380D01*
X155122380Y-131770380D01*
X155217619Y-131722761D01*
X155265238Y-131675142D01*
X155312857Y-131579904D01*
X155312857Y-131389428D01*
X155265238Y-131294190D01*
X155217619Y-131246571D01*
X155122380Y-131198952D01*
%TO.C,TP84*%
X138469904Y-53808380D02*
X139041333Y-53808380D01*
X138755619Y-54808380D02*
X138755619Y-53808380D01*
X139374666Y-54808380D02*
X139374666Y-53808380D01*
X139755619Y-53808380D01*
X139850857Y-53856000D01*
X139898476Y-53903619D01*
X139946095Y-53998857D01*
X139946095Y-54141714D01*
X139898476Y-54236952D01*
X139850857Y-54284571D01*
X139755619Y-54332190D01*
X139374666Y-54332190D01*
X140517523Y-54236952D02*
X140422285Y-54189333D01*
X140374666Y-54141714D01*
X140327047Y-54046476D01*
X140327047Y-53998857D01*
X140374666Y-53903619D01*
X140422285Y-53856000D01*
X140517523Y-53808380D01*
X140708000Y-53808380D01*
X140803238Y-53856000D01*
X140850857Y-53903619D01*
X140898476Y-53998857D01*
X140898476Y-54046476D01*
X140850857Y-54141714D01*
X140803238Y-54189333D01*
X140708000Y-54236952D01*
X140517523Y-54236952D01*
X140422285Y-54284571D01*
X140374666Y-54332190D01*
X140327047Y-54427428D01*
X140327047Y-54617904D01*
X140374666Y-54713142D01*
X140422285Y-54760761D01*
X140517523Y-54808380D01*
X140708000Y-54808380D01*
X140803238Y-54760761D01*
X140850857Y-54713142D01*
X140898476Y-54617904D01*
X140898476Y-54427428D01*
X140850857Y-54332190D01*
X140803238Y-54284571D01*
X140708000Y-54236952D01*
X141755619Y-54141714D02*
X141755619Y-54808380D01*
X141517523Y-53760761D02*
X141279428Y-54475047D01*
X141898476Y-54475047D01*
%TO.C,U7108*%
X74587380Y-103145476D02*
X75396904Y-103145476D01*
X75492142Y-103097857D01*
X75539761Y-103050238D01*
X75587380Y-102955000D01*
X75587380Y-102764523D01*
X75539761Y-102669285D01*
X75492142Y-102621666D01*
X75396904Y-102574047D01*
X74587380Y-102574047D01*
X74587380Y-102193095D02*
X74587380Y-101526428D01*
X75587380Y-101955000D01*
X75587380Y-100621666D02*
X75587380Y-101193095D01*
X75587380Y-100907380D02*
X74587380Y-100907380D01*
X74730238Y-101002619D01*
X74825476Y-101097857D01*
X74873095Y-101193095D01*
X74587380Y-100002619D02*
X74587380Y-99907380D01*
X74635000Y-99812142D01*
X74682619Y-99764523D01*
X74777857Y-99716904D01*
X74968333Y-99669285D01*
X75206428Y-99669285D01*
X75396904Y-99716904D01*
X75492142Y-99764523D01*
X75539761Y-99812142D01*
X75587380Y-99907380D01*
X75587380Y-100002619D01*
X75539761Y-100097857D01*
X75492142Y-100145476D01*
X75396904Y-100193095D01*
X75206428Y-100240714D01*
X74968333Y-100240714D01*
X74777857Y-100193095D01*
X74682619Y-100145476D01*
X74635000Y-100097857D01*
X74587380Y-100002619D01*
X75015952Y-99097857D02*
X74968333Y-99193095D01*
X74920714Y-99240714D01*
X74825476Y-99288333D01*
X74777857Y-99288333D01*
X74682619Y-99240714D01*
X74635000Y-99193095D01*
X74587380Y-99097857D01*
X74587380Y-98907380D01*
X74635000Y-98812142D01*
X74682619Y-98764523D01*
X74777857Y-98716904D01*
X74825476Y-98716904D01*
X74920714Y-98764523D01*
X74968333Y-98812142D01*
X75015952Y-98907380D01*
X75015952Y-99097857D01*
X75063571Y-99193095D01*
X75111190Y-99240714D01*
X75206428Y-99288333D01*
X75396904Y-99288333D01*
X75492142Y-99240714D01*
X75539761Y-99193095D01*
X75587380Y-99097857D01*
X75587380Y-98907380D01*
X75539761Y-98812142D01*
X75492142Y-98764523D01*
X75396904Y-98716904D01*
X75206428Y-98716904D01*
X75111190Y-98764523D01*
X75063571Y-98812142D01*
X75015952Y-98907380D01*
%TO.C,TP62*%
X177331904Y-102322380D02*
X177903333Y-102322380D01*
X177617619Y-103322380D02*
X177617619Y-102322380D01*
X178236666Y-103322380D02*
X178236666Y-102322380D01*
X178617619Y-102322380D01*
X178712857Y-102370000D01*
X178760476Y-102417619D01*
X178808095Y-102512857D01*
X178808095Y-102655714D01*
X178760476Y-102750952D01*
X178712857Y-102798571D01*
X178617619Y-102846190D01*
X178236666Y-102846190D01*
X179665238Y-102322380D02*
X179474761Y-102322380D01*
X179379523Y-102370000D01*
X179331904Y-102417619D01*
X179236666Y-102560476D01*
X179189047Y-102750952D01*
X179189047Y-103131904D01*
X179236666Y-103227142D01*
X179284285Y-103274761D01*
X179379523Y-103322380D01*
X179570000Y-103322380D01*
X179665238Y-103274761D01*
X179712857Y-103227142D01*
X179760476Y-103131904D01*
X179760476Y-102893809D01*
X179712857Y-102798571D01*
X179665238Y-102750952D01*
X179570000Y-102703333D01*
X179379523Y-102703333D01*
X179284285Y-102750952D01*
X179236666Y-102798571D01*
X179189047Y-102893809D01*
X180141428Y-102417619D02*
X180189047Y-102370000D01*
X180284285Y-102322380D01*
X180522380Y-102322380D01*
X180617619Y-102370000D01*
X180665238Y-102417619D01*
X180712857Y-102512857D01*
X180712857Y-102608095D01*
X180665238Y-102750952D01*
X180093809Y-103322380D01*
X180712857Y-103322380D01*
%TO.C,U7116*%
X145727380Y-87915476D02*
X146536904Y-87915476D01*
X146632142Y-87867857D01*
X146679761Y-87820238D01*
X146727380Y-87725000D01*
X146727380Y-87534523D01*
X146679761Y-87439285D01*
X146632142Y-87391666D01*
X146536904Y-87344047D01*
X145727380Y-87344047D01*
X145727380Y-86963095D02*
X145727380Y-86296428D01*
X146727380Y-86725000D01*
X146727380Y-85391666D02*
X146727380Y-85963095D01*
X146727380Y-85677380D02*
X145727380Y-85677380D01*
X145870238Y-85772619D01*
X145965476Y-85867857D01*
X146013095Y-85963095D01*
X146727380Y-84439285D02*
X146727380Y-85010714D01*
X146727380Y-84725000D02*
X145727380Y-84725000D01*
X145870238Y-84820238D01*
X145965476Y-84915476D01*
X146013095Y-85010714D01*
X145727380Y-83582142D02*
X145727380Y-83772619D01*
X145775000Y-83867857D01*
X145822619Y-83915476D01*
X145965476Y-84010714D01*
X146155952Y-84058333D01*
X146536904Y-84058333D01*
X146632142Y-84010714D01*
X146679761Y-83963095D01*
X146727380Y-83867857D01*
X146727380Y-83677380D01*
X146679761Y-83582142D01*
X146632142Y-83534523D01*
X146536904Y-83486904D01*
X146298809Y-83486904D01*
X146203571Y-83534523D01*
X146155952Y-83582142D01*
X146108333Y-83677380D01*
X146108333Y-83867857D01*
X146155952Y-83963095D01*
X146203571Y-84010714D01*
X146298809Y-84058333D01*
%TO.C,REF\u002A\u002A*%
X198819169Y-79955967D02*
X198485836Y-79479777D01*
X198247741Y-79955967D02*
X198247741Y-78955967D01*
X198628693Y-78955967D01*
X198723931Y-79003587D01*
X198771550Y-79051206D01*
X198819169Y-79146444D01*
X198819169Y-79289301D01*
X198771550Y-79384539D01*
X198723931Y-79432158D01*
X198628693Y-79479777D01*
X198247741Y-79479777D01*
X199247741Y-79432158D02*
X199581074Y-79432158D01*
X199723931Y-79955967D02*
X199247741Y-79955967D01*
X199247741Y-78955967D01*
X199723931Y-78955967D01*
X200485836Y-79432158D02*
X200152503Y-79432158D01*
X200152503Y-79955967D02*
X200152503Y-78955967D01*
X200628693Y-78955967D01*
X201152503Y-78955967D02*
X201152503Y-79194063D01*
X200914407Y-79098825D02*
X201152503Y-79194063D01*
X201390598Y-79098825D01*
X201009645Y-79384539D02*
X201152503Y-79194063D01*
X201295360Y-79384539D01*
X201914407Y-78955967D02*
X201914407Y-79194063D01*
X201676312Y-79098825D02*
X201914407Y-79194063D01*
X202152503Y-79098825D01*
X201771550Y-79384539D02*
X201914407Y-79194063D01*
X202057264Y-79384539D01*
%TO.C,TP20*%
X143041904Y-119594380D02*
X143613333Y-119594380D01*
X143327619Y-120594380D02*
X143327619Y-119594380D01*
X143946666Y-120594380D02*
X143946666Y-119594380D01*
X144327619Y-119594380D01*
X144422857Y-119642000D01*
X144470476Y-119689619D01*
X144518095Y-119784857D01*
X144518095Y-119927714D01*
X144470476Y-120022952D01*
X144422857Y-120070571D01*
X144327619Y-120118190D01*
X143946666Y-120118190D01*
X144899047Y-119689619D02*
X144946666Y-119642000D01*
X145041904Y-119594380D01*
X145280000Y-119594380D01*
X145375238Y-119642000D01*
X145422857Y-119689619D01*
X145470476Y-119784857D01*
X145470476Y-119880095D01*
X145422857Y-120022952D01*
X144851428Y-120594380D01*
X145470476Y-120594380D01*
X146089523Y-119594380D02*
X146184761Y-119594380D01*
X146280000Y-119642000D01*
X146327619Y-119689619D01*
X146375238Y-119784857D01*
X146422857Y-119975333D01*
X146422857Y-120213428D01*
X146375238Y-120403904D01*
X146327619Y-120499142D01*
X146280000Y-120546761D01*
X146184761Y-120594380D01*
X146089523Y-120594380D01*
X145994285Y-120546761D01*
X145946666Y-120499142D01*
X145899047Y-120403904D01*
X145851428Y-120213428D01*
X145851428Y-119975333D01*
X145899047Y-119784857D01*
X145946666Y-119689619D01*
X145994285Y-119642000D01*
X146089523Y-119594380D01*
%TO.C,TP76*%
X166346404Y-56094380D02*
X166917833Y-56094380D01*
X166632119Y-57094380D02*
X166632119Y-56094380D01*
X167251166Y-57094380D02*
X167251166Y-56094380D01*
X167632119Y-56094380D01*
X167727357Y-56142000D01*
X167774976Y-56189619D01*
X167822595Y-56284857D01*
X167822595Y-56427714D01*
X167774976Y-56522952D01*
X167727357Y-56570571D01*
X167632119Y-56618190D01*
X167251166Y-56618190D01*
X168155928Y-56094380D02*
X168822595Y-56094380D01*
X168394023Y-57094380D01*
X169632119Y-56094380D02*
X169441642Y-56094380D01*
X169346404Y-56142000D01*
X169298785Y-56189619D01*
X169203547Y-56332476D01*
X169155928Y-56522952D01*
X169155928Y-56903904D01*
X169203547Y-56999142D01*
X169251166Y-57046761D01*
X169346404Y-57094380D01*
X169536880Y-57094380D01*
X169632119Y-57046761D01*
X169679738Y-56999142D01*
X169727357Y-56903904D01*
X169727357Y-56665809D01*
X169679738Y-56570571D01*
X169632119Y-56522952D01*
X169536880Y-56475333D01*
X169346404Y-56475333D01*
X169251166Y-56522952D01*
X169203547Y-56570571D01*
X169155928Y-56665809D01*
%TO.C,TP71*%
X145581904Y-72350380D02*
X146153333Y-72350380D01*
X145867619Y-73350380D02*
X145867619Y-72350380D01*
X146486666Y-73350380D02*
X146486666Y-72350380D01*
X146867619Y-72350380D01*
X146962857Y-72398000D01*
X147010476Y-72445619D01*
X147058095Y-72540857D01*
X147058095Y-72683714D01*
X147010476Y-72778952D01*
X146962857Y-72826571D01*
X146867619Y-72874190D01*
X146486666Y-72874190D01*
X147391428Y-72350380D02*
X148058095Y-72350380D01*
X147629523Y-73350380D01*
X148962857Y-73350380D02*
X148391428Y-73350380D01*
X148677142Y-73350380D02*
X148677142Y-72350380D01*
X148581904Y-72493238D01*
X148486666Y-72588476D01*
X148391428Y-72636095D01*
%TO.C,TP44*%
X82081904Y-108672380D02*
X82653333Y-108672380D01*
X82367619Y-109672380D02*
X82367619Y-108672380D01*
X82986666Y-109672380D02*
X82986666Y-108672380D01*
X83367619Y-108672380D01*
X83462857Y-108720000D01*
X83510476Y-108767619D01*
X83558095Y-108862857D01*
X83558095Y-109005714D01*
X83510476Y-109100952D01*
X83462857Y-109148571D01*
X83367619Y-109196190D01*
X82986666Y-109196190D01*
X84415238Y-109005714D02*
X84415238Y-109672380D01*
X84177142Y-108624761D02*
X83939047Y-109339047D01*
X84558095Y-109339047D01*
X85367619Y-109005714D02*
X85367619Y-109672380D01*
X85129523Y-108624761D02*
X84891428Y-109339047D01*
X85510476Y-109339047D01*
%TO.C,TP46*%
X95289619Y-106211904D02*
X95289619Y-106783333D01*
X94289619Y-106497619D02*
X95289619Y-106497619D01*
X94289619Y-107116666D02*
X95289619Y-107116666D01*
X95289619Y-107497619D01*
X95242000Y-107592857D01*
X95194380Y-107640476D01*
X95099142Y-107688095D01*
X94956285Y-107688095D01*
X94861047Y-107640476D01*
X94813428Y-107592857D01*
X94765809Y-107497619D01*
X94765809Y-107116666D01*
X94956285Y-108545238D02*
X94289619Y-108545238D01*
X95337238Y-108307142D02*
X94622952Y-108069047D01*
X94622952Y-108688095D01*
X95289619Y-109497619D02*
X95289619Y-109307142D01*
X95242000Y-109211904D01*
X95194380Y-109164285D01*
X95051523Y-109069047D01*
X94861047Y-109021428D01*
X94480095Y-109021428D01*
X94384857Y-109069047D01*
X94337238Y-109116666D01*
X94289619Y-109211904D01*
X94289619Y-109402380D01*
X94337238Y-109497619D01*
X94384857Y-109545238D01*
X94480095Y-109592857D01*
X94718190Y-109592857D01*
X94813428Y-109545238D01*
X94861047Y-109497619D01*
X94908666Y-109402380D01*
X94908666Y-109211904D01*
X94861047Y-109116666D01*
X94813428Y-109069047D01*
X94718190Y-109021428D01*
%TO.C,TP9*%
X166124095Y-132802380D02*
X166695523Y-132802380D01*
X166409809Y-133802380D02*
X166409809Y-132802380D01*
X167028857Y-133802380D02*
X167028857Y-132802380D01*
X167409809Y-132802380D01*
X167505047Y-132850000D01*
X167552666Y-132897619D01*
X167600285Y-132992857D01*
X167600285Y-133135714D01*
X167552666Y-133230952D01*
X167505047Y-133278571D01*
X167409809Y-133326190D01*
X167028857Y-133326190D01*
X168076476Y-133802380D02*
X168266952Y-133802380D01*
X168362190Y-133754761D01*
X168409809Y-133707142D01*
X168505047Y-133564285D01*
X168552666Y-133373809D01*
X168552666Y-132992857D01*
X168505047Y-132897619D01*
X168457428Y-132850000D01*
X168362190Y-132802380D01*
X168171714Y-132802380D01*
X168076476Y-132850000D01*
X168028857Y-132897619D01*
X167981238Y-132992857D01*
X167981238Y-133230952D01*
X168028857Y-133326190D01*
X168076476Y-133373809D01*
X168171714Y-133421428D01*
X168362190Y-133421428D01*
X168457428Y-133373809D01*
X168505047Y-133326190D01*
X168552666Y-133230952D01*
%TO.C,TP66*%
X157773904Y-62952380D02*
X158345333Y-62952380D01*
X158059619Y-63952380D02*
X158059619Y-62952380D01*
X158678666Y-63952380D02*
X158678666Y-62952380D01*
X159059619Y-62952380D01*
X159154857Y-63000000D01*
X159202476Y-63047619D01*
X159250095Y-63142857D01*
X159250095Y-63285714D01*
X159202476Y-63380952D01*
X159154857Y-63428571D01*
X159059619Y-63476190D01*
X158678666Y-63476190D01*
X160107238Y-62952380D02*
X159916761Y-62952380D01*
X159821523Y-63000000D01*
X159773904Y-63047619D01*
X159678666Y-63190476D01*
X159631047Y-63380952D01*
X159631047Y-63761904D01*
X159678666Y-63857142D01*
X159726285Y-63904761D01*
X159821523Y-63952380D01*
X160012000Y-63952380D01*
X160107238Y-63904761D01*
X160154857Y-63857142D01*
X160202476Y-63761904D01*
X160202476Y-63523809D01*
X160154857Y-63428571D01*
X160107238Y-63380952D01*
X160012000Y-63333333D01*
X159821523Y-63333333D01*
X159726285Y-63380952D01*
X159678666Y-63428571D01*
X159631047Y-63523809D01*
X161059619Y-62952380D02*
X160869142Y-62952380D01*
X160773904Y-63000000D01*
X160726285Y-63047619D01*
X160631047Y-63190476D01*
X160583428Y-63380952D01*
X160583428Y-63761904D01*
X160631047Y-63857142D01*
X160678666Y-63904761D01*
X160773904Y-63952380D01*
X160964380Y-63952380D01*
X161059619Y-63904761D01*
X161107238Y-63857142D01*
X161154857Y-63761904D01*
X161154857Y-63523809D01*
X161107238Y-63428571D01*
X161059619Y-63380952D01*
X160964380Y-63333333D01*
X160773904Y-63333333D01*
X160678666Y-63380952D01*
X160631047Y-63428571D01*
X160583428Y-63523809D01*
%TO.C,TP57*%
X141771904Y-101052380D02*
X142343333Y-101052380D01*
X142057619Y-102052380D02*
X142057619Y-101052380D01*
X142676666Y-102052380D02*
X142676666Y-101052380D01*
X143057619Y-101052380D01*
X143152857Y-101100000D01*
X143200476Y-101147619D01*
X143248095Y-101242857D01*
X143248095Y-101385714D01*
X143200476Y-101480952D01*
X143152857Y-101528571D01*
X143057619Y-101576190D01*
X142676666Y-101576190D01*
X144152857Y-101052380D02*
X143676666Y-101052380D01*
X143629047Y-101528571D01*
X143676666Y-101480952D01*
X143771904Y-101433333D01*
X144010000Y-101433333D01*
X144105238Y-101480952D01*
X144152857Y-101528571D01*
X144200476Y-101623809D01*
X144200476Y-101861904D01*
X144152857Y-101957142D01*
X144105238Y-102004761D01*
X144010000Y-102052380D01*
X143771904Y-102052380D01*
X143676666Y-102004761D01*
X143629047Y-101957142D01*
X144533809Y-101052380D02*
X145200476Y-101052380D01*
X144771904Y-102052380D01*
%TO.C,U7121*%
X169857380Y-103145476D02*
X170666904Y-103145476D01*
X170762142Y-103097857D01*
X170809761Y-103050238D01*
X170857380Y-102955000D01*
X170857380Y-102764523D01*
X170809761Y-102669285D01*
X170762142Y-102621666D01*
X170666904Y-102574047D01*
X169857380Y-102574047D01*
X169857380Y-102193095D02*
X169857380Y-101526428D01*
X170857380Y-101955000D01*
X170857380Y-100621666D02*
X170857380Y-101193095D01*
X170857380Y-100907380D02*
X169857380Y-100907380D01*
X170000238Y-101002619D01*
X170095476Y-101097857D01*
X170143095Y-101193095D01*
X169952619Y-100240714D02*
X169905000Y-100193095D01*
X169857380Y-100097857D01*
X169857380Y-99859761D01*
X169905000Y-99764523D01*
X169952619Y-99716904D01*
X170047857Y-99669285D01*
X170143095Y-99669285D01*
X170285952Y-99716904D01*
X170857380Y-100288333D01*
X170857380Y-99669285D01*
X170857380Y-98716904D02*
X170857380Y-99288333D01*
X170857380Y-99002619D02*
X169857380Y-99002619D01*
X170000238Y-99097857D01*
X170095476Y-99193095D01*
X170143095Y-99288333D01*
%TO.C,TP103*%
X79827714Y-68032380D02*
X80399142Y-68032380D01*
X80113428Y-69032380D02*
X80113428Y-68032380D01*
X80732476Y-69032380D02*
X80732476Y-68032380D01*
X81113428Y-68032380D01*
X81208666Y-68080000D01*
X81256285Y-68127619D01*
X81303904Y-68222857D01*
X81303904Y-68365714D01*
X81256285Y-68460952D01*
X81208666Y-68508571D01*
X81113428Y-68556190D01*
X80732476Y-68556190D01*
X82256285Y-69032380D02*
X81684857Y-69032380D01*
X81970571Y-69032380D02*
X81970571Y-68032380D01*
X81875333Y-68175238D01*
X81780095Y-68270476D01*
X81684857Y-68318095D01*
X82875333Y-68032380D02*
X82970571Y-68032380D01*
X83065809Y-68080000D01*
X83113428Y-68127619D01*
X83161047Y-68222857D01*
X83208666Y-68413333D01*
X83208666Y-68651428D01*
X83161047Y-68841904D01*
X83113428Y-68937142D01*
X83065809Y-68984761D01*
X82970571Y-69032380D01*
X82875333Y-69032380D01*
X82780095Y-68984761D01*
X82732476Y-68937142D01*
X82684857Y-68841904D01*
X82637238Y-68651428D01*
X82637238Y-68413333D01*
X82684857Y-68222857D01*
X82732476Y-68127619D01*
X82780095Y-68080000D01*
X82875333Y-68032380D01*
X83542000Y-68032380D02*
X84161047Y-68032380D01*
X83827714Y-68413333D01*
X83970571Y-68413333D01*
X84065809Y-68460952D01*
X84113428Y-68508571D01*
X84161047Y-68603809D01*
X84161047Y-68841904D01*
X84113428Y-68937142D01*
X84065809Y-68984761D01*
X83970571Y-69032380D01*
X83684857Y-69032380D01*
X83589619Y-68984761D01*
X83542000Y-68937142D01*
%TO.C,TP25*%
X130341904Y-119340380D02*
X130913333Y-119340380D01*
X130627619Y-120340380D02*
X130627619Y-119340380D01*
X131246666Y-120340380D02*
X131246666Y-119340380D01*
X131627619Y-119340380D01*
X131722857Y-119388000D01*
X131770476Y-119435619D01*
X131818095Y-119530857D01*
X131818095Y-119673714D01*
X131770476Y-119768952D01*
X131722857Y-119816571D01*
X131627619Y-119864190D01*
X131246666Y-119864190D01*
X132199047Y-119435619D02*
X132246666Y-119388000D01*
X132341904Y-119340380D01*
X132580000Y-119340380D01*
X132675238Y-119388000D01*
X132722857Y-119435619D01*
X132770476Y-119530857D01*
X132770476Y-119626095D01*
X132722857Y-119768952D01*
X132151428Y-120340380D01*
X132770476Y-120340380D01*
X133675238Y-119340380D02*
X133199047Y-119340380D01*
X133151428Y-119816571D01*
X133199047Y-119768952D01*
X133294285Y-119721333D01*
X133532380Y-119721333D01*
X133627619Y-119768952D01*
X133675238Y-119816571D01*
X133722857Y-119911809D01*
X133722857Y-120149904D01*
X133675238Y-120245142D01*
X133627619Y-120292761D01*
X133532380Y-120340380D01*
X133294285Y-120340380D01*
X133199047Y-120292761D01*
X133151428Y-120245142D01*
%TO.C,TP89*%
X130770380Y-87590095D02*
X130770380Y-87018666D01*
X131770380Y-87304380D02*
X130770380Y-87304380D01*
X131770380Y-86685333D02*
X130770380Y-86685333D01*
X130770380Y-86304380D01*
X130818000Y-86209142D01*
X130865619Y-86161523D01*
X130960857Y-86113904D01*
X131103714Y-86113904D01*
X131198952Y-86161523D01*
X131246571Y-86209142D01*
X131294190Y-86304380D01*
X131294190Y-86685333D01*
X131198952Y-85542476D02*
X131151333Y-85637714D01*
X131103714Y-85685333D01*
X131008476Y-85732952D01*
X130960857Y-85732952D01*
X130865619Y-85685333D01*
X130818000Y-85637714D01*
X130770380Y-85542476D01*
X130770380Y-85352000D01*
X130818000Y-85256761D01*
X130865619Y-85209142D01*
X130960857Y-85161523D01*
X131008476Y-85161523D01*
X131103714Y-85209142D01*
X131151333Y-85256761D01*
X131198952Y-85352000D01*
X131198952Y-85542476D01*
X131246571Y-85637714D01*
X131294190Y-85685333D01*
X131389428Y-85732952D01*
X131579904Y-85732952D01*
X131675142Y-85685333D01*
X131722761Y-85637714D01*
X131770380Y-85542476D01*
X131770380Y-85352000D01*
X131722761Y-85256761D01*
X131675142Y-85209142D01*
X131579904Y-85161523D01*
X131389428Y-85161523D01*
X131294190Y-85209142D01*
X131246571Y-85256761D01*
X131198952Y-85352000D01*
X131770380Y-84685333D02*
X131770380Y-84494857D01*
X131722761Y-84399619D01*
X131675142Y-84352000D01*
X131532285Y-84256761D01*
X131341809Y-84209142D01*
X130960857Y-84209142D01*
X130865619Y-84256761D01*
X130818000Y-84304380D01*
X130770380Y-84399619D01*
X130770380Y-84590095D01*
X130818000Y-84685333D01*
X130865619Y-84732952D01*
X130960857Y-84780571D01*
X131198952Y-84780571D01*
X131294190Y-84732952D01*
X131341809Y-84685333D01*
X131389428Y-84590095D01*
X131389428Y-84399619D01*
X131341809Y-84304380D01*
X131294190Y-84256761D01*
X131198952Y-84209142D01*
%TO.C,TP92*%
X111799904Y-78954380D02*
X112371333Y-78954380D01*
X112085619Y-79954380D02*
X112085619Y-78954380D01*
X112704666Y-79954380D02*
X112704666Y-78954380D01*
X113085619Y-78954380D01*
X113180857Y-79002000D01*
X113228476Y-79049619D01*
X113276095Y-79144857D01*
X113276095Y-79287714D01*
X113228476Y-79382952D01*
X113180857Y-79430571D01*
X113085619Y-79478190D01*
X112704666Y-79478190D01*
X113752285Y-79954380D02*
X113942761Y-79954380D01*
X114038000Y-79906761D01*
X114085619Y-79859142D01*
X114180857Y-79716285D01*
X114228476Y-79525809D01*
X114228476Y-79144857D01*
X114180857Y-79049619D01*
X114133238Y-79002000D01*
X114038000Y-78954380D01*
X113847523Y-78954380D01*
X113752285Y-79002000D01*
X113704666Y-79049619D01*
X113657047Y-79144857D01*
X113657047Y-79382952D01*
X113704666Y-79478190D01*
X113752285Y-79525809D01*
X113847523Y-79573428D01*
X114038000Y-79573428D01*
X114133238Y-79525809D01*
X114180857Y-79478190D01*
X114228476Y-79382952D01*
X114609428Y-79049619D02*
X114657047Y-79002000D01*
X114752285Y-78954380D01*
X114990380Y-78954380D01*
X115085619Y-79002000D01*
X115133238Y-79049619D01*
X115180857Y-79144857D01*
X115180857Y-79240095D01*
X115133238Y-79382952D01*
X114561809Y-79954380D01*
X115180857Y-79954380D01*
%TO.C,U7111*%
X120307380Y-103155476D02*
X121116904Y-103155476D01*
X121212142Y-103107857D01*
X121259761Y-103060238D01*
X121307380Y-102965000D01*
X121307380Y-102774523D01*
X121259761Y-102679285D01*
X121212142Y-102631666D01*
X121116904Y-102584047D01*
X120307380Y-102584047D01*
X120307380Y-102203095D02*
X120307380Y-101536428D01*
X121307380Y-101965000D01*
X121307380Y-100631666D02*
X121307380Y-101203095D01*
X121307380Y-100917380D02*
X120307380Y-100917380D01*
X120450238Y-101012619D01*
X120545476Y-101107857D01*
X120593095Y-101203095D01*
X121307380Y-99679285D02*
X121307380Y-100250714D01*
X121307380Y-99965000D02*
X120307380Y-99965000D01*
X120450238Y-100060238D01*
X120545476Y-100155476D01*
X120593095Y-100250714D01*
X121307380Y-98726904D02*
X121307380Y-99298333D01*
X121307380Y-99012619D02*
X120307380Y-99012619D01*
X120450238Y-99107857D01*
X120545476Y-99203095D01*
X120593095Y-99298333D01*
%TO.C,U7114*%
X118402380Y-68855476D02*
X119211904Y-68855476D01*
X119307142Y-68807857D01*
X119354761Y-68760238D01*
X119402380Y-68665000D01*
X119402380Y-68474523D01*
X119354761Y-68379285D01*
X119307142Y-68331666D01*
X119211904Y-68284047D01*
X118402380Y-68284047D01*
X118402380Y-67903095D02*
X118402380Y-67236428D01*
X119402380Y-67665000D01*
X119402380Y-66331666D02*
X119402380Y-66903095D01*
X119402380Y-66617380D02*
X118402380Y-66617380D01*
X118545238Y-66712619D01*
X118640476Y-66807857D01*
X118688095Y-66903095D01*
X119402380Y-65379285D02*
X119402380Y-65950714D01*
X119402380Y-65665000D02*
X118402380Y-65665000D01*
X118545238Y-65760238D01*
X118640476Y-65855476D01*
X118688095Y-65950714D01*
X118735714Y-64522142D02*
X119402380Y-64522142D01*
X118354761Y-64760238D02*
X119069047Y-64998333D01*
X119069047Y-64379285D01*
%TO.C,TP56*%
X121451904Y-111974380D02*
X122023333Y-111974380D01*
X121737619Y-112974380D02*
X121737619Y-111974380D01*
X122356666Y-112974380D02*
X122356666Y-111974380D01*
X122737619Y-111974380D01*
X122832857Y-112022000D01*
X122880476Y-112069619D01*
X122928095Y-112164857D01*
X122928095Y-112307714D01*
X122880476Y-112402952D01*
X122832857Y-112450571D01*
X122737619Y-112498190D01*
X122356666Y-112498190D01*
X123832857Y-111974380D02*
X123356666Y-111974380D01*
X123309047Y-112450571D01*
X123356666Y-112402952D01*
X123451904Y-112355333D01*
X123690000Y-112355333D01*
X123785238Y-112402952D01*
X123832857Y-112450571D01*
X123880476Y-112545809D01*
X123880476Y-112783904D01*
X123832857Y-112879142D01*
X123785238Y-112926761D01*
X123690000Y-112974380D01*
X123451904Y-112974380D01*
X123356666Y-112926761D01*
X123309047Y-112879142D01*
X124737619Y-111974380D02*
X124547142Y-111974380D01*
X124451904Y-112022000D01*
X124404285Y-112069619D01*
X124309047Y-112212476D01*
X124261428Y-112402952D01*
X124261428Y-112783904D01*
X124309047Y-112879142D01*
X124356666Y-112926761D01*
X124451904Y-112974380D01*
X124642380Y-112974380D01*
X124737619Y-112926761D01*
X124785238Y-112879142D01*
X124832857Y-112783904D01*
X124832857Y-112545809D01*
X124785238Y-112450571D01*
X124737619Y-112402952D01*
X124642380Y-112355333D01*
X124451904Y-112355333D01*
X124356666Y-112402952D01*
X124309047Y-112450571D01*
X124261428Y-112545809D01*
%TO.C,TP15*%
X135421904Y-126960380D02*
X135993333Y-126960380D01*
X135707619Y-127960380D02*
X135707619Y-126960380D01*
X136326666Y-127960380D02*
X136326666Y-126960380D01*
X136707619Y-126960380D01*
X136802857Y-127008000D01*
X136850476Y-127055619D01*
X136898095Y-127150857D01*
X136898095Y-127293714D01*
X136850476Y-127388952D01*
X136802857Y-127436571D01*
X136707619Y-127484190D01*
X136326666Y-127484190D01*
X137850476Y-127960380D02*
X137279047Y-127960380D01*
X137564761Y-127960380D02*
X137564761Y-126960380D01*
X137469523Y-127103238D01*
X137374285Y-127198476D01*
X137279047Y-127246095D01*
X138755238Y-126960380D02*
X138279047Y-126960380D01*
X138231428Y-127436571D01*
X138279047Y-127388952D01*
X138374285Y-127341333D01*
X138612380Y-127341333D01*
X138707619Y-127388952D01*
X138755238Y-127436571D01*
X138802857Y-127531809D01*
X138802857Y-127769904D01*
X138755238Y-127865142D01*
X138707619Y-127912761D01*
X138612380Y-127960380D01*
X138374285Y-127960380D01*
X138279047Y-127912761D01*
X138231428Y-127865142D01*
%TO.C,TP50*%
X97321904Y-97242380D02*
X97893333Y-97242380D01*
X97607619Y-98242380D02*
X97607619Y-97242380D01*
X98226666Y-98242380D02*
X98226666Y-97242380D01*
X98607619Y-97242380D01*
X98702857Y-97290000D01*
X98750476Y-97337619D01*
X98798095Y-97432857D01*
X98798095Y-97575714D01*
X98750476Y-97670952D01*
X98702857Y-97718571D01*
X98607619Y-97766190D01*
X98226666Y-97766190D01*
X99702857Y-97242380D02*
X99226666Y-97242380D01*
X99179047Y-97718571D01*
X99226666Y-97670952D01*
X99321904Y-97623333D01*
X99560000Y-97623333D01*
X99655238Y-97670952D01*
X99702857Y-97718571D01*
X99750476Y-97813809D01*
X99750476Y-98051904D01*
X99702857Y-98147142D01*
X99655238Y-98194761D01*
X99560000Y-98242380D01*
X99321904Y-98242380D01*
X99226666Y-98194761D01*
X99179047Y-98147142D01*
X100369523Y-97242380D02*
X100464761Y-97242380D01*
X100560000Y-97290000D01*
X100607619Y-97337619D01*
X100655238Y-97432857D01*
X100702857Y-97623333D01*
X100702857Y-97861428D01*
X100655238Y-98051904D01*
X100607619Y-98147142D01*
X100560000Y-98194761D01*
X100464761Y-98242380D01*
X100369523Y-98242380D01*
X100274285Y-98194761D01*
X100226666Y-98147142D01*
X100179047Y-98051904D01*
X100131428Y-97861428D01*
X100131428Y-97623333D01*
X100179047Y-97432857D01*
X100226666Y-97337619D01*
X100274285Y-97290000D01*
X100369523Y-97242380D01*
%TO.C,TP53*%
X91225904Y-95972380D02*
X91797333Y-95972380D01*
X91511619Y-96972380D02*
X91511619Y-95972380D01*
X92130666Y-96972380D02*
X92130666Y-95972380D01*
X92511619Y-95972380D01*
X92606857Y-96020000D01*
X92654476Y-96067619D01*
X92702095Y-96162857D01*
X92702095Y-96305714D01*
X92654476Y-96400952D01*
X92606857Y-96448571D01*
X92511619Y-96496190D01*
X92130666Y-96496190D01*
X93606857Y-95972380D02*
X93130666Y-95972380D01*
X93083047Y-96448571D01*
X93130666Y-96400952D01*
X93225904Y-96353333D01*
X93464000Y-96353333D01*
X93559238Y-96400952D01*
X93606857Y-96448571D01*
X93654476Y-96543809D01*
X93654476Y-96781904D01*
X93606857Y-96877142D01*
X93559238Y-96924761D01*
X93464000Y-96972380D01*
X93225904Y-96972380D01*
X93130666Y-96924761D01*
X93083047Y-96877142D01*
X93987809Y-95972380D02*
X94606857Y-95972380D01*
X94273523Y-96353333D01*
X94416380Y-96353333D01*
X94511619Y-96400952D01*
X94559238Y-96448571D01*
X94606857Y-96543809D01*
X94606857Y-96781904D01*
X94559238Y-96877142D01*
X94511619Y-96924761D01*
X94416380Y-96972380D01*
X94130666Y-96972380D01*
X94035428Y-96924761D01*
X93987809Y-96877142D01*
%TO.C,TP101*%
X88717714Y-68032380D02*
X89289142Y-68032380D01*
X89003428Y-69032380D02*
X89003428Y-68032380D01*
X89622476Y-69032380D02*
X89622476Y-68032380D01*
X90003428Y-68032380D01*
X90098666Y-68080000D01*
X90146285Y-68127619D01*
X90193904Y-68222857D01*
X90193904Y-68365714D01*
X90146285Y-68460952D01*
X90098666Y-68508571D01*
X90003428Y-68556190D01*
X89622476Y-68556190D01*
X91146285Y-69032380D02*
X90574857Y-69032380D01*
X90860571Y-69032380D02*
X90860571Y-68032380D01*
X90765333Y-68175238D01*
X90670095Y-68270476D01*
X90574857Y-68318095D01*
X91765333Y-68032380D02*
X91860571Y-68032380D01*
X91955809Y-68080000D01*
X92003428Y-68127619D01*
X92051047Y-68222857D01*
X92098666Y-68413333D01*
X92098666Y-68651428D01*
X92051047Y-68841904D01*
X92003428Y-68937142D01*
X91955809Y-68984761D01*
X91860571Y-69032380D01*
X91765333Y-69032380D01*
X91670095Y-68984761D01*
X91622476Y-68937142D01*
X91574857Y-68841904D01*
X91527238Y-68651428D01*
X91527238Y-68413333D01*
X91574857Y-68222857D01*
X91622476Y-68127619D01*
X91670095Y-68080000D01*
X91765333Y-68032380D01*
X93051047Y-69032380D02*
X92479619Y-69032380D01*
X92765333Y-69032380D02*
X92765333Y-68032380D01*
X92670095Y-68175238D01*
X92574857Y-68270476D01*
X92479619Y-68318095D01*
%TO.C,TP81*%
X189269904Y-57872380D02*
X189841333Y-57872380D01*
X189555619Y-58872380D02*
X189555619Y-57872380D01*
X190174666Y-58872380D02*
X190174666Y-57872380D01*
X190555619Y-57872380D01*
X190650857Y-57920000D01*
X190698476Y-57967619D01*
X190746095Y-58062857D01*
X190746095Y-58205714D01*
X190698476Y-58300952D01*
X190650857Y-58348571D01*
X190555619Y-58396190D01*
X190174666Y-58396190D01*
X191317523Y-58300952D02*
X191222285Y-58253333D01*
X191174666Y-58205714D01*
X191127047Y-58110476D01*
X191127047Y-58062857D01*
X191174666Y-57967619D01*
X191222285Y-57920000D01*
X191317523Y-57872380D01*
X191508000Y-57872380D01*
X191603238Y-57920000D01*
X191650857Y-57967619D01*
X191698476Y-58062857D01*
X191698476Y-58110476D01*
X191650857Y-58205714D01*
X191603238Y-58253333D01*
X191508000Y-58300952D01*
X191317523Y-58300952D01*
X191222285Y-58348571D01*
X191174666Y-58396190D01*
X191127047Y-58491428D01*
X191127047Y-58681904D01*
X191174666Y-58777142D01*
X191222285Y-58824761D01*
X191317523Y-58872380D01*
X191508000Y-58872380D01*
X191603238Y-58824761D01*
X191650857Y-58777142D01*
X191698476Y-58681904D01*
X191698476Y-58491428D01*
X191650857Y-58396190D01*
X191603238Y-58348571D01*
X191508000Y-58300952D01*
X192650857Y-58872380D02*
X192079428Y-58872380D01*
X192365142Y-58872380D02*
X192365142Y-57872380D01*
X192269904Y-58015238D01*
X192174666Y-58110476D01*
X192079428Y-58158095D01*
%TO.C,TP29*%
X103671904Y-132548380D02*
X104243333Y-132548380D01*
X103957619Y-133548380D02*
X103957619Y-132548380D01*
X104576666Y-133548380D02*
X104576666Y-132548380D01*
X104957619Y-132548380D01*
X105052857Y-132596000D01*
X105100476Y-132643619D01*
X105148095Y-132738857D01*
X105148095Y-132881714D01*
X105100476Y-132976952D01*
X105052857Y-133024571D01*
X104957619Y-133072190D01*
X104576666Y-133072190D01*
X105529047Y-132643619D02*
X105576666Y-132596000D01*
X105671904Y-132548380D01*
X105910000Y-132548380D01*
X106005238Y-132596000D01*
X106052857Y-132643619D01*
X106100476Y-132738857D01*
X106100476Y-132834095D01*
X106052857Y-132976952D01*
X105481428Y-133548380D01*
X106100476Y-133548380D01*
X106576666Y-133548380D02*
X106767142Y-133548380D01*
X106862380Y-133500761D01*
X106910000Y-133453142D01*
X107005238Y-133310285D01*
X107052857Y-133119809D01*
X107052857Y-132738857D01*
X107005238Y-132643619D01*
X106957619Y-132596000D01*
X106862380Y-132548380D01*
X106671904Y-132548380D01*
X106576666Y-132596000D01*
X106529047Y-132643619D01*
X106481428Y-132738857D01*
X106481428Y-132976952D01*
X106529047Y-133072190D01*
X106576666Y-133119809D01*
X106671904Y-133167428D01*
X106862380Y-133167428D01*
X106957619Y-133119809D01*
X107005238Y-133072190D01*
X107052857Y-132976952D01*
%TO.C,TP93*%
X78103653Y-84371691D02*
X78507714Y-83967630D01*
X79012791Y-84876768D02*
X78305684Y-84169661D01*
X79450523Y-84439035D02*
X78743417Y-83731928D01*
X79012791Y-83462554D01*
X79113806Y-83428882D01*
X79181149Y-83428882D01*
X79282165Y-83462554D01*
X79383180Y-83563569D01*
X79416852Y-83664585D01*
X79416852Y-83731928D01*
X79383180Y-83832943D01*
X79113806Y-84102317D01*
X80191302Y-83698256D02*
X80325989Y-83563569D01*
X80359661Y-83462554D01*
X80359661Y-83395210D01*
X80325989Y-83226852D01*
X80224974Y-83058493D01*
X79955600Y-82789119D01*
X79854585Y-82755447D01*
X79787241Y-82755447D01*
X79686226Y-82789119D01*
X79551539Y-82923806D01*
X79517867Y-83024821D01*
X79517867Y-83092165D01*
X79551539Y-83193180D01*
X79719898Y-83361539D01*
X79820913Y-83395210D01*
X79888256Y-83395210D01*
X79989272Y-83361539D01*
X80123959Y-83226852D01*
X80157630Y-83125836D01*
X80157630Y-83058493D01*
X80123959Y-82957478D01*
X80056615Y-82418730D02*
X80494348Y-81980997D01*
X80528020Y-82486073D01*
X80629035Y-82385058D01*
X80730050Y-82351386D01*
X80797394Y-82351386D01*
X80898409Y-82385058D01*
X81066768Y-82553417D01*
X81100439Y-82654432D01*
X81100439Y-82721775D01*
X81066768Y-82822791D01*
X80864737Y-83024821D01*
X80763722Y-83058493D01*
X80696378Y-83058493D01*
%TO.C,TP55*%
X139660380Y-116800095D02*
X139660380Y-116228666D01*
X140660380Y-116514380D02*
X139660380Y-116514380D01*
X140660380Y-115895333D02*
X139660380Y-115895333D01*
X139660380Y-115514380D01*
X139708000Y-115419142D01*
X139755619Y-115371523D01*
X139850857Y-115323904D01*
X139993714Y-115323904D01*
X140088952Y-115371523D01*
X140136571Y-115419142D01*
X140184190Y-115514380D01*
X140184190Y-115895333D01*
X139660380Y-114419142D02*
X139660380Y-114895333D01*
X140136571Y-114942952D01*
X140088952Y-114895333D01*
X140041333Y-114800095D01*
X140041333Y-114562000D01*
X140088952Y-114466761D01*
X140136571Y-114419142D01*
X140231809Y-114371523D01*
X140469904Y-114371523D01*
X140565142Y-114419142D01*
X140612761Y-114466761D01*
X140660380Y-114562000D01*
X140660380Y-114800095D01*
X140612761Y-114895333D01*
X140565142Y-114942952D01*
X139660380Y-113466761D02*
X139660380Y-113942952D01*
X140136571Y-113990571D01*
X140088952Y-113942952D01*
X140041333Y-113847714D01*
X140041333Y-113609619D01*
X140088952Y-113514380D01*
X140136571Y-113466761D01*
X140231809Y-113419142D01*
X140469904Y-113419142D01*
X140565142Y-113466761D01*
X140612761Y-113514380D01*
X140660380Y-113609619D01*
X140660380Y-113847714D01*
X140612761Y-113942952D01*
X140565142Y-113990571D01*
%TO.C,TP8*%
X165108095Y-127214380D02*
X165679523Y-127214380D01*
X165393809Y-128214380D02*
X165393809Y-127214380D01*
X166012857Y-128214380D02*
X166012857Y-127214380D01*
X166393809Y-127214380D01*
X166489047Y-127262000D01*
X166536666Y-127309619D01*
X166584285Y-127404857D01*
X166584285Y-127547714D01*
X166536666Y-127642952D01*
X166489047Y-127690571D01*
X166393809Y-127738190D01*
X166012857Y-127738190D01*
X167155714Y-127642952D02*
X167060476Y-127595333D01*
X167012857Y-127547714D01*
X166965238Y-127452476D01*
X166965238Y-127404857D01*
X167012857Y-127309619D01*
X167060476Y-127262000D01*
X167155714Y-127214380D01*
X167346190Y-127214380D01*
X167441428Y-127262000D01*
X167489047Y-127309619D01*
X167536666Y-127404857D01*
X167536666Y-127452476D01*
X167489047Y-127547714D01*
X167441428Y-127595333D01*
X167346190Y-127642952D01*
X167155714Y-127642952D01*
X167060476Y-127690571D01*
X167012857Y-127738190D01*
X166965238Y-127833428D01*
X166965238Y-128023904D01*
X167012857Y-128119142D01*
X167060476Y-128166761D01*
X167155714Y-128214380D01*
X167346190Y-128214380D01*
X167441428Y-128166761D01*
X167489047Y-128119142D01*
X167536666Y-128023904D01*
X167536666Y-127833428D01*
X167489047Y-127738190D01*
X167441428Y-127690571D01*
X167346190Y-127642952D01*
%TO.C,TP47*%
X107481904Y-103592380D02*
X108053333Y-103592380D01*
X107767619Y-104592380D02*
X107767619Y-103592380D01*
X108386666Y-104592380D02*
X108386666Y-103592380D01*
X108767619Y-103592380D01*
X108862857Y-103640000D01*
X108910476Y-103687619D01*
X108958095Y-103782857D01*
X108958095Y-103925714D01*
X108910476Y-104020952D01*
X108862857Y-104068571D01*
X108767619Y-104116190D01*
X108386666Y-104116190D01*
X109815238Y-103925714D02*
X109815238Y-104592380D01*
X109577142Y-103544761D02*
X109339047Y-104259047D01*
X109958095Y-104259047D01*
X110243809Y-103592380D02*
X110910476Y-103592380D01*
X110481904Y-104592380D01*
%TO.C,TP42*%
X73699904Y-125690380D02*
X74271333Y-125690380D01*
X73985619Y-126690380D02*
X73985619Y-125690380D01*
X74604666Y-126690380D02*
X74604666Y-125690380D01*
X74985619Y-125690380D01*
X75080857Y-125738000D01*
X75128476Y-125785619D01*
X75176095Y-125880857D01*
X75176095Y-126023714D01*
X75128476Y-126118952D01*
X75080857Y-126166571D01*
X74985619Y-126214190D01*
X74604666Y-126214190D01*
X76033238Y-126023714D02*
X76033238Y-126690380D01*
X75795142Y-125642761D02*
X75557047Y-126357047D01*
X76176095Y-126357047D01*
X76509428Y-125785619D02*
X76557047Y-125738000D01*
X76652285Y-125690380D01*
X76890380Y-125690380D01*
X76985619Y-125738000D01*
X77033238Y-125785619D01*
X77080857Y-125880857D01*
X77080857Y-125976095D01*
X77033238Y-126118952D01*
X76461809Y-126690380D01*
X77080857Y-126690380D01*
%TO.C,TP87*%
X119419904Y-61936380D02*
X119991333Y-61936380D01*
X119705619Y-62936380D02*
X119705619Y-61936380D01*
X120324666Y-62936380D02*
X120324666Y-61936380D01*
X120705619Y-61936380D01*
X120800857Y-61984000D01*
X120848476Y-62031619D01*
X120896095Y-62126857D01*
X120896095Y-62269714D01*
X120848476Y-62364952D01*
X120800857Y-62412571D01*
X120705619Y-62460190D01*
X120324666Y-62460190D01*
X121467523Y-62364952D02*
X121372285Y-62317333D01*
X121324666Y-62269714D01*
X121277047Y-62174476D01*
X121277047Y-62126857D01*
X121324666Y-62031619D01*
X121372285Y-61984000D01*
X121467523Y-61936380D01*
X121658000Y-61936380D01*
X121753238Y-61984000D01*
X121800857Y-62031619D01*
X121848476Y-62126857D01*
X121848476Y-62174476D01*
X121800857Y-62269714D01*
X121753238Y-62317333D01*
X121658000Y-62364952D01*
X121467523Y-62364952D01*
X121372285Y-62412571D01*
X121324666Y-62460190D01*
X121277047Y-62555428D01*
X121277047Y-62745904D01*
X121324666Y-62841142D01*
X121372285Y-62888761D01*
X121467523Y-62936380D01*
X121658000Y-62936380D01*
X121753238Y-62888761D01*
X121800857Y-62841142D01*
X121848476Y-62745904D01*
X121848476Y-62555428D01*
X121800857Y-62460190D01*
X121753238Y-62412571D01*
X121658000Y-62364952D01*
X122181809Y-61936380D02*
X122848476Y-61936380D01*
X122419904Y-62936380D01*
%TO.C,TP85*%
X124499904Y-54316380D02*
X125071333Y-54316380D01*
X124785619Y-55316380D02*
X124785619Y-54316380D01*
X125404666Y-55316380D02*
X125404666Y-54316380D01*
X125785619Y-54316380D01*
X125880857Y-54364000D01*
X125928476Y-54411619D01*
X125976095Y-54506857D01*
X125976095Y-54649714D01*
X125928476Y-54744952D01*
X125880857Y-54792571D01*
X125785619Y-54840190D01*
X125404666Y-54840190D01*
X126547523Y-54744952D02*
X126452285Y-54697333D01*
X126404666Y-54649714D01*
X126357047Y-54554476D01*
X126357047Y-54506857D01*
X126404666Y-54411619D01*
X126452285Y-54364000D01*
X126547523Y-54316380D01*
X126738000Y-54316380D01*
X126833238Y-54364000D01*
X126880857Y-54411619D01*
X126928476Y-54506857D01*
X126928476Y-54554476D01*
X126880857Y-54649714D01*
X126833238Y-54697333D01*
X126738000Y-54744952D01*
X126547523Y-54744952D01*
X126452285Y-54792571D01*
X126404666Y-54840190D01*
X126357047Y-54935428D01*
X126357047Y-55125904D01*
X126404666Y-55221142D01*
X126452285Y-55268761D01*
X126547523Y-55316380D01*
X126738000Y-55316380D01*
X126833238Y-55268761D01*
X126880857Y-55221142D01*
X126928476Y-55125904D01*
X126928476Y-54935428D01*
X126880857Y-54840190D01*
X126833238Y-54792571D01*
X126738000Y-54744952D01*
X127833238Y-54316380D02*
X127357047Y-54316380D01*
X127309428Y-54792571D01*
X127357047Y-54744952D01*
X127452285Y-54697333D01*
X127690380Y-54697333D01*
X127785619Y-54744952D01*
X127833238Y-54792571D01*
X127880857Y-54887809D01*
X127880857Y-55125904D01*
X127833238Y-55221142D01*
X127785619Y-55268761D01*
X127690380Y-55316380D01*
X127452285Y-55316380D01*
X127357047Y-55268761D01*
X127309428Y-55221142D01*
%TO.C,TP2*%
X184688095Y-132294380D02*
X185259523Y-132294380D01*
X184973809Y-133294380D02*
X184973809Y-132294380D01*
X185592857Y-133294380D02*
X185592857Y-132294380D01*
X185973809Y-132294380D01*
X186069047Y-132342000D01*
X186116666Y-132389619D01*
X186164285Y-132484857D01*
X186164285Y-132627714D01*
X186116666Y-132722952D01*
X186069047Y-132770571D01*
X185973809Y-132818190D01*
X185592857Y-132818190D01*
X186545238Y-132389619D02*
X186592857Y-132342000D01*
X186688095Y-132294380D01*
X186926190Y-132294380D01*
X187021428Y-132342000D01*
X187069047Y-132389619D01*
X187116666Y-132484857D01*
X187116666Y-132580095D01*
X187069047Y-132722952D01*
X186497619Y-133294380D01*
X187116666Y-133294380D01*
%TO.C,TP1*%
X189188095Y-127072380D02*
X189759523Y-127072380D01*
X189473809Y-128072380D02*
X189473809Y-127072380D01*
X190092857Y-128072380D02*
X190092857Y-127072380D01*
X190473809Y-127072380D01*
X190569047Y-127120000D01*
X190616666Y-127167619D01*
X190664285Y-127262857D01*
X190664285Y-127405714D01*
X190616666Y-127500952D01*
X190569047Y-127548571D01*
X190473809Y-127596190D01*
X190092857Y-127596190D01*
X191616666Y-128072380D02*
X191045238Y-128072380D01*
X191330952Y-128072380D02*
X191330952Y-127072380D01*
X191235714Y-127215238D01*
X191140476Y-127310476D01*
X191045238Y-127358095D01*
%TO.C,TP64*%
X187491904Y-101052380D02*
X188063333Y-101052380D01*
X187777619Y-102052380D02*
X187777619Y-101052380D01*
X188396666Y-102052380D02*
X188396666Y-101052380D01*
X188777619Y-101052380D01*
X188872857Y-101100000D01*
X188920476Y-101147619D01*
X188968095Y-101242857D01*
X188968095Y-101385714D01*
X188920476Y-101480952D01*
X188872857Y-101528571D01*
X188777619Y-101576190D01*
X188396666Y-101576190D01*
X189825238Y-101052380D02*
X189634761Y-101052380D01*
X189539523Y-101100000D01*
X189491904Y-101147619D01*
X189396666Y-101290476D01*
X189349047Y-101480952D01*
X189349047Y-101861904D01*
X189396666Y-101957142D01*
X189444285Y-102004761D01*
X189539523Y-102052380D01*
X189730000Y-102052380D01*
X189825238Y-102004761D01*
X189872857Y-101957142D01*
X189920476Y-101861904D01*
X189920476Y-101623809D01*
X189872857Y-101528571D01*
X189825238Y-101480952D01*
X189730000Y-101433333D01*
X189539523Y-101433333D01*
X189444285Y-101480952D01*
X189396666Y-101528571D01*
X189349047Y-101623809D01*
X190777619Y-101385714D02*
X190777619Y-102052380D01*
X190539523Y-101004761D02*
X190301428Y-101719047D01*
X190920476Y-101719047D01*
%TO.C,TP3*%
X179586095Y-127722380D02*
X180157523Y-127722380D01*
X179871809Y-128722380D02*
X179871809Y-127722380D01*
X180490857Y-128722380D02*
X180490857Y-127722380D01*
X180871809Y-127722380D01*
X180967047Y-127770000D01*
X181014666Y-127817619D01*
X181062285Y-127912857D01*
X181062285Y-128055714D01*
X181014666Y-128150952D01*
X180967047Y-128198571D01*
X180871809Y-128246190D01*
X180490857Y-128246190D01*
X181395619Y-127722380D02*
X182014666Y-127722380D01*
X181681333Y-128103333D01*
X181824190Y-128103333D01*
X181919428Y-128150952D01*
X181967047Y-128198571D01*
X182014666Y-128293809D01*
X182014666Y-128531904D01*
X181967047Y-128627142D01*
X181919428Y-128674761D01*
X181824190Y-128722380D01*
X181538476Y-128722380D01*
X181443238Y-128674761D01*
X181395619Y-128627142D01*
%TO.C,TP33*%
X104941904Y-117562380D02*
X105513333Y-117562380D01*
X105227619Y-118562380D02*
X105227619Y-117562380D01*
X105846666Y-118562380D02*
X105846666Y-117562380D01*
X106227619Y-117562380D01*
X106322857Y-117610000D01*
X106370476Y-117657619D01*
X106418095Y-117752857D01*
X106418095Y-117895714D01*
X106370476Y-117990952D01*
X106322857Y-118038571D01*
X106227619Y-118086190D01*
X105846666Y-118086190D01*
X106751428Y-117562380D02*
X107370476Y-117562380D01*
X107037142Y-117943333D01*
X107180000Y-117943333D01*
X107275238Y-117990952D01*
X107322857Y-118038571D01*
X107370476Y-118133809D01*
X107370476Y-118371904D01*
X107322857Y-118467142D01*
X107275238Y-118514761D01*
X107180000Y-118562380D01*
X106894285Y-118562380D01*
X106799047Y-118514761D01*
X106751428Y-118467142D01*
X107703809Y-117562380D02*
X108322857Y-117562380D01*
X107989523Y-117943333D01*
X108132380Y-117943333D01*
X108227619Y-117990952D01*
X108275238Y-118038571D01*
X108322857Y-118133809D01*
X108322857Y-118371904D01*
X108275238Y-118467142D01*
X108227619Y-118514761D01*
X108132380Y-118562380D01*
X107846666Y-118562380D01*
X107751428Y-118514761D01*
X107703809Y-118467142D01*
%TO.C,TP19*%
X147613904Y-124166380D02*
X148185333Y-124166380D01*
X147899619Y-125166380D02*
X147899619Y-124166380D01*
X148518666Y-125166380D02*
X148518666Y-124166380D01*
X148899619Y-124166380D01*
X148994857Y-124214000D01*
X149042476Y-124261619D01*
X149090095Y-124356857D01*
X149090095Y-124499714D01*
X149042476Y-124594952D01*
X148994857Y-124642571D01*
X148899619Y-124690190D01*
X148518666Y-124690190D01*
X150042476Y-125166380D02*
X149471047Y-125166380D01*
X149756761Y-125166380D02*
X149756761Y-124166380D01*
X149661523Y-124309238D01*
X149566285Y-124404476D01*
X149471047Y-124452095D01*
X150518666Y-125166380D02*
X150709142Y-125166380D01*
X150804380Y-125118761D01*
X150852000Y-125071142D01*
X150947238Y-124928285D01*
X150994857Y-124737809D01*
X150994857Y-124356857D01*
X150947238Y-124261619D01*
X150899619Y-124214000D01*
X150804380Y-124166380D01*
X150613904Y-124166380D01*
X150518666Y-124214000D01*
X150471047Y-124261619D01*
X150423428Y-124356857D01*
X150423428Y-124594952D01*
X150471047Y-124690190D01*
X150518666Y-124737809D01*
X150613904Y-124785428D01*
X150804380Y-124785428D01*
X150899619Y-124737809D01*
X150947238Y-124690190D01*
X150994857Y-124594952D01*
%TO.C,TP6*%
X160028095Y-126960380D02*
X160599523Y-126960380D01*
X160313809Y-127960380D02*
X160313809Y-126960380D01*
X160932857Y-127960380D02*
X160932857Y-126960380D01*
X161313809Y-126960380D01*
X161409047Y-127008000D01*
X161456666Y-127055619D01*
X161504285Y-127150857D01*
X161504285Y-127293714D01*
X161456666Y-127388952D01*
X161409047Y-127436571D01*
X161313809Y-127484190D01*
X160932857Y-127484190D01*
X162361428Y-126960380D02*
X162170952Y-126960380D01*
X162075714Y-127008000D01*
X162028095Y-127055619D01*
X161932857Y-127198476D01*
X161885238Y-127388952D01*
X161885238Y-127769904D01*
X161932857Y-127865142D01*
X161980476Y-127912761D01*
X162075714Y-127960380D01*
X162266190Y-127960380D01*
X162361428Y-127912761D01*
X162409047Y-127865142D01*
X162456666Y-127769904D01*
X162456666Y-127531809D01*
X162409047Y-127436571D01*
X162361428Y-127388952D01*
X162266190Y-127341333D01*
X162075714Y-127341333D01*
X161980476Y-127388952D01*
X161932857Y-127436571D01*
X161885238Y-127531809D01*
%TO.C,TP28*%
X104179904Y-126452380D02*
X104751333Y-126452380D01*
X104465619Y-127452380D02*
X104465619Y-126452380D01*
X105084666Y-127452380D02*
X105084666Y-126452380D01*
X105465619Y-126452380D01*
X105560857Y-126500000D01*
X105608476Y-126547619D01*
X105656095Y-126642857D01*
X105656095Y-126785714D01*
X105608476Y-126880952D01*
X105560857Y-126928571D01*
X105465619Y-126976190D01*
X105084666Y-126976190D01*
X106037047Y-126547619D02*
X106084666Y-126500000D01*
X106179904Y-126452380D01*
X106418000Y-126452380D01*
X106513238Y-126500000D01*
X106560857Y-126547619D01*
X106608476Y-126642857D01*
X106608476Y-126738095D01*
X106560857Y-126880952D01*
X105989428Y-127452380D01*
X106608476Y-127452380D01*
X107179904Y-126880952D02*
X107084666Y-126833333D01*
X107037047Y-126785714D01*
X106989428Y-126690476D01*
X106989428Y-126642857D01*
X107037047Y-126547619D01*
X107084666Y-126500000D01*
X107179904Y-126452380D01*
X107370380Y-126452380D01*
X107465619Y-126500000D01*
X107513238Y-126547619D01*
X107560857Y-126642857D01*
X107560857Y-126690476D01*
X107513238Y-126785714D01*
X107465619Y-126833333D01*
X107370380Y-126880952D01*
X107179904Y-126880952D01*
X107084666Y-126928571D01*
X107037047Y-126976190D01*
X106989428Y-127071428D01*
X106989428Y-127261904D01*
X107037047Y-127357142D01*
X107084666Y-127404761D01*
X107179904Y-127452380D01*
X107370380Y-127452380D01*
X107465619Y-127404761D01*
X107513238Y-127357142D01*
X107560857Y-127261904D01*
X107560857Y-127071428D01*
X107513238Y-126976190D01*
X107465619Y-126928571D01*
X107370380Y-126880952D01*
%TO.C,TP99*%
X98083904Y-66254380D02*
X98655333Y-66254380D01*
X98369619Y-67254380D02*
X98369619Y-66254380D01*
X98988666Y-67254380D02*
X98988666Y-66254380D01*
X99369619Y-66254380D01*
X99464857Y-66302000D01*
X99512476Y-66349619D01*
X99560095Y-66444857D01*
X99560095Y-66587714D01*
X99512476Y-66682952D01*
X99464857Y-66730571D01*
X99369619Y-66778190D01*
X98988666Y-66778190D01*
X100036285Y-67254380D02*
X100226761Y-67254380D01*
X100322000Y-67206761D01*
X100369619Y-67159142D01*
X100464857Y-67016285D01*
X100512476Y-66825809D01*
X100512476Y-66444857D01*
X100464857Y-66349619D01*
X100417238Y-66302000D01*
X100322000Y-66254380D01*
X100131523Y-66254380D01*
X100036285Y-66302000D01*
X99988666Y-66349619D01*
X99941047Y-66444857D01*
X99941047Y-66682952D01*
X99988666Y-66778190D01*
X100036285Y-66825809D01*
X100131523Y-66873428D01*
X100322000Y-66873428D01*
X100417238Y-66825809D01*
X100464857Y-66778190D01*
X100512476Y-66682952D01*
X100988666Y-67254380D02*
X101179142Y-67254380D01*
X101274380Y-67206761D01*
X101322000Y-67159142D01*
X101417238Y-67016285D01*
X101464857Y-66825809D01*
X101464857Y-66444857D01*
X101417238Y-66349619D01*
X101369619Y-66302000D01*
X101274380Y-66254380D01*
X101083904Y-66254380D01*
X100988666Y-66302000D01*
X100941047Y-66349619D01*
X100893428Y-66444857D01*
X100893428Y-66682952D01*
X100941047Y-66778190D01*
X100988666Y-66825809D01*
X101083904Y-66873428D01*
X101274380Y-66873428D01*
X101369619Y-66825809D01*
X101417238Y-66778190D01*
X101464857Y-66682952D01*
%TO.C,U7101*%
X153332380Y-133635476D02*
X154141904Y-133635476D01*
X154237142Y-133587857D01*
X154284761Y-133540238D01*
X154332380Y-133445000D01*
X154332380Y-133254523D01*
X154284761Y-133159285D01*
X154237142Y-133111666D01*
X154141904Y-133064047D01*
X153332380Y-133064047D01*
X153332380Y-132683095D02*
X153332380Y-132016428D01*
X154332380Y-132445000D01*
X154332380Y-131111666D02*
X154332380Y-131683095D01*
X154332380Y-131397380D02*
X153332380Y-131397380D01*
X153475238Y-131492619D01*
X153570476Y-131587857D01*
X153618095Y-131683095D01*
X153332380Y-130492619D02*
X153332380Y-130397380D01*
X153380000Y-130302142D01*
X153427619Y-130254523D01*
X153522857Y-130206904D01*
X153713333Y-130159285D01*
X153951428Y-130159285D01*
X154141904Y-130206904D01*
X154237142Y-130254523D01*
X154284761Y-130302142D01*
X154332380Y-130397380D01*
X154332380Y-130492619D01*
X154284761Y-130587857D01*
X154237142Y-130635476D01*
X154141904Y-130683095D01*
X153951428Y-130730714D01*
X153713333Y-130730714D01*
X153522857Y-130683095D01*
X153427619Y-130635476D01*
X153380000Y-130587857D01*
X153332380Y-130492619D01*
X154332380Y-129206904D02*
X154332380Y-129778333D01*
X154332380Y-129492619D02*
X153332380Y-129492619D01*
X153475238Y-129587857D01*
X153570476Y-129683095D01*
X153618095Y-129778333D01*
%TO.C,TP37*%
X95543904Y-115022380D02*
X96115333Y-115022380D01*
X95829619Y-116022380D02*
X95829619Y-115022380D01*
X96448666Y-116022380D02*
X96448666Y-115022380D01*
X96829619Y-115022380D01*
X96924857Y-115070000D01*
X96972476Y-115117619D01*
X97020095Y-115212857D01*
X97020095Y-115355714D01*
X96972476Y-115450952D01*
X96924857Y-115498571D01*
X96829619Y-115546190D01*
X96448666Y-115546190D01*
X97353428Y-115022380D02*
X97972476Y-115022380D01*
X97639142Y-115403333D01*
X97782000Y-115403333D01*
X97877238Y-115450952D01*
X97924857Y-115498571D01*
X97972476Y-115593809D01*
X97972476Y-115831904D01*
X97924857Y-115927142D01*
X97877238Y-115974761D01*
X97782000Y-116022380D01*
X97496285Y-116022380D01*
X97401047Y-115974761D01*
X97353428Y-115927142D01*
X98305809Y-115022380D02*
X98972476Y-115022380D01*
X98543904Y-116022380D01*
%TO.C,TP104*%
X79544936Y-72516409D02*
X79948997Y-72112348D01*
X80454073Y-73021485D02*
X79746966Y-72314378D01*
X80891806Y-72583752D02*
X80184699Y-71876646D01*
X80454073Y-71607272D01*
X80555088Y-71573600D01*
X80622432Y-71573600D01*
X80723447Y-71607272D01*
X80824462Y-71708287D01*
X80858134Y-71809302D01*
X80858134Y-71876646D01*
X80824462Y-71977661D01*
X80555088Y-72247035D01*
X81969302Y-71506256D02*
X81565241Y-71910317D01*
X81767272Y-71708287D02*
X81060165Y-71001180D01*
X81093836Y-71169539D01*
X81093836Y-71304226D01*
X81060165Y-71405241D01*
X81699928Y-70361417D02*
X81767272Y-70294073D01*
X81868287Y-70260401D01*
X81935630Y-70260401D01*
X82036646Y-70294073D01*
X82205004Y-70395088D01*
X82373363Y-70563447D01*
X82474378Y-70731806D01*
X82508050Y-70832821D01*
X82508050Y-70900165D01*
X82474378Y-71001180D01*
X82407035Y-71068523D01*
X82306020Y-71102195D01*
X82238676Y-71102195D01*
X82137661Y-71068523D01*
X81969302Y-70967508D01*
X81800943Y-70799149D01*
X81699928Y-70630791D01*
X81666256Y-70529775D01*
X81666256Y-70462432D01*
X81699928Y-70361417D01*
X82777424Y-69755325D02*
X83248829Y-70226730D01*
X82339691Y-69654310D02*
X82676409Y-70327745D01*
X83114142Y-69890012D01*
%TO.C,TP35*%
X110021904Y-117562380D02*
X110593333Y-117562380D01*
X110307619Y-118562380D02*
X110307619Y-117562380D01*
X110926666Y-118562380D02*
X110926666Y-117562380D01*
X111307619Y-117562380D01*
X111402857Y-117610000D01*
X111450476Y-117657619D01*
X111498095Y-117752857D01*
X111498095Y-117895714D01*
X111450476Y-117990952D01*
X111402857Y-118038571D01*
X111307619Y-118086190D01*
X110926666Y-118086190D01*
X111831428Y-117562380D02*
X112450476Y-117562380D01*
X112117142Y-117943333D01*
X112260000Y-117943333D01*
X112355238Y-117990952D01*
X112402857Y-118038571D01*
X112450476Y-118133809D01*
X112450476Y-118371904D01*
X112402857Y-118467142D01*
X112355238Y-118514761D01*
X112260000Y-118562380D01*
X111974285Y-118562380D01*
X111879047Y-118514761D01*
X111831428Y-118467142D01*
X113355238Y-117562380D02*
X112879047Y-117562380D01*
X112831428Y-118038571D01*
X112879047Y-117990952D01*
X112974285Y-117943333D01*
X113212380Y-117943333D01*
X113307619Y-117990952D01*
X113355238Y-118038571D01*
X113402857Y-118133809D01*
X113402857Y-118371904D01*
X113355238Y-118467142D01*
X113307619Y-118514761D01*
X113212380Y-118562380D01*
X112974285Y-118562380D01*
X112879047Y-118514761D01*
X112831428Y-118467142D01*
%TO.C,TP45*%
X87844380Y-116800095D02*
X87844380Y-116228666D01*
X88844380Y-116514380D02*
X87844380Y-116514380D01*
X88844380Y-115895333D02*
X87844380Y-115895333D01*
X87844380Y-115514380D01*
X87892000Y-115419142D01*
X87939619Y-115371523D01*
X88034857Y-115323904D01*
X88177714Y-115323904D01*
X88272952Y-115371523D01*
X88320571Y-115419142D01*
X88368190Y-115514380D01*
X88368190Y-115895333D01*
X88177714Y-114466761D02*
X88844380Y-114466761D01*
X87796761Y-114704857D02*
X88511047Y-114942952D01*
X88511047Y-114323904D01*
X87844380Y-113466761D02*
X87844380Y-113942952D01*
X88320571Y-113990571D01*
X88272952Y-113942952D01*
X88225333Y-113847714D01*
X88225333Y-113609619D01*
X88272952Y-113514380D01*
X88320571Y-113466761D01*
X88415809Y-113419142D01*
X88653904Y-113419142D01*
X88749142Y-113466761D01*
X88796761Y-113514380D01*
X88844380Y-113609619D01*
X88844380Y-113847714D01*
X88796761Y-113942952D01*
X88749142Y-113990571D01*
%TO.C,TP32*%
X115101904Y-117562380D02*
X115673333Y-117562380D01*
X115387619Y-118562380D02*
X115387619Y-117562380D01*
X116006666Y-118562380D02*
X116006666Y-117562380D01*
X116387619Y-117562380D01*
X116482857Y-117610000D01*
X116530476Y-117657619D01*
X116578095Y-117752857D01*
X116578095Y-117895714D01*
X116530476Y-117990952D01*
X116482857Y-118038571D01*
X116387619Y-118086190D01*
X116006666Y-118086190D01*
X116911428Y-117562380D02*
X117530476Y-117562380D01*
X117197142Y-117943333D01*
X117340000Y-117943333D01*
X117435238Y-117990952D01*
X117482857Y-118038571D01*
X117530476Y-118133809D01*
X117530476Y-118371904D01*
X117482857Y-118467142D01*
X117435238Y-118514761D01*
X117340000Y-118562380D01*
X117054285Y-118562380D01*
X116959047Y-118514761D01*
X116911428Y-118467142D01*
X117911428Y-117657619D02*
X117959047Y-117610000D01*
X118054285Y-117562380D01*
X118292380Y-117562380D01*
X118387619Y-117610000D01*
X118435238Y-117657619D01*
X118482857Y-117752857D01*
X118482857Y-117848095D01*
X118435238Y-117990952D01*
X117863809Y-118562380D01*
X118482857Y-118562380D01*
%TO.C,TP31*%
X96051904Y-131532380D02*
X96623333Y-131532380D01*
X96337619Y-132532380D02*
X96337619Y-131532380D01*
X96956666Y-132532380D02*
X96956666Y-131532380D01*
X97337619Y-131532380D01*
X97432857Y-131580000D01*
X97480476Y-131627619D01*
X97528095Y-131722857D01*
X97528095Y-131865714D01*
X97480476Y-131960952D01*
X97432857Y-132008571D01*
X97337619Y-132056190D01*
X96956666Y-132056190D01*
X97861428Y-131532380D02*
X98480476Y-131532380D01*
X98147142Y-131913333D01*
X98290000Y-131913333D01*
X98385238Y-131960952D01*
X98432857Y-132008571D01*
X98480476Y-132103809D01*
X98480476Y-132341904D01*
X98432857Y-132437142D01*
X98385238Y-132484761D01*
X98290000Y-132532380D01*
X98004285Y-132532380D01*
X97909047Y-132484761D01*
X97861428Y-132437142D01*
X99432857Y-132532380D02*
X98861428Y-132532380D01*
X99147142Y-132532380D02*
X99147142Y-131532380D01*
X99051904Y-131675238D01*
X98956666Y-131770476D01*
X98861428Y-131818095D01*
%TO.C,TP95*%
X77255904Y-79208380D02*
X77827333Y-79208380D01*
X77541619Y-80208380D02*
X77541619Y-79208380D01*
X78160666Y-80208380D02*
X78160666Y-79208380D01*
X78541619Y-79208380D01*
X78636857Y-79256000D01*
X78684476Y-79303619D01*
X78732095Y-79398857D01*
X78732095Y-79541714D01*
X78684476Y-79636952D01*
X78636857Y-79684571D01*
X78541619Y-79732190D01*
X78160666Y-79732190D01*
X79208285Y-80208380D02*
X79398761Y-80208380D01*
X79494000Y-80160761D01*
X79541619Y-80113142D01*
X79636857Y-79970285D01*
X79684476Y-79779809D01*
X79684476Y-79398857D01*
X79636857Y-79303619D01*
X79589238Y-79256000D01*
X79494000Y-79208380D01*
X79303523Y-79208380D01*
X79208285Y-79256000D01*
X79160666Y-79303619D01*
X79113047Y-79398857D01*
X79113047Y-79636952D01*
X79160666Y-79732190D01*
X79208285Y-79779809D01*
X79303523Y-79827428D01*
X79494000Y-79827428D01*
X79589238Y-79779809D01*
X79636857Y-79732190D01*
X79684476Y-79636952D01*
X80589238Y-79208380D02*
X80113047Y-79208380D01*
X80065428Y-79684571D01*
X80113047Y-79636952D01*
X80208285Y-79589333D01*
X80446380Y-79589333D01*
X80541619Y-79636952D01*
X80589238Y-79684571D01*
X80636857Y-79779809D01*
X80636857Y-80017904D01*
X80589238Y-80113142D01*
X80541619Y-80160761D01*
X80446380Y-80208380D01*
X80208285Y-80208380D01*
X80113047Y-80160761D01*
X80065428Y-80113142D01*
%TO.C,U7120*%
X169857380Y-87915476D02*
X170666904Y-87915476D01*
X170762142Y-87867857D01*
X170809761Y-87820238D01*
X170857380Y-87725000D01*
X170857380Y-87534523D01*
X170809761Y-87439285D01*
X170762142Y-87391666D01*
X170666904Y-87344047D01*
X169857380Y-87344047D01*
X169857380Y-86963095D02*
X169857380Y-86296428D01*
X170857380Y-86725000D01*
X170857380Y-85391666D02*
X170857380Y-85963095D01*
X170857380Y-85677380D02*
X169857380Y-85677380D01*
X170000238Y-85772619D01*
X170095476Y-85867857D01*
X170143095Y-85963095D01*
X169952619Y-85010714D02*
X169905000Y-84963095D01*
X169857380Y-84867857D01*
X169857380Y-84629761D01*
X169905000Y-84534523D01*
X169952619Y-84486904D01*
X170047857Y-84439285D01*
X170143095Y-84439285D01*
X170285952Y-84486904D01*
X170857380Y-85058333D01*
X170857380Y-84439285D01*
X169857380Y-83820238D02*
X169857380Y-83725000D01*
X169905000Y-83629761D01*
X169952619Y-83582142D01*
X170047857Y-83534523D01*
X170238333Y-83486904D01*
X170476428Y-83486904D01*
X170666904Y-83534523D01*
X170762142Y-83582142D01*
X170809761Y-83629761D01*
X170857380Y-83725000D01*
X170857380Y-83820238D01*
X170809761Y-83915476D01*
X170762142Y-83963095D01*
X170666904Y-84010714D01*
X170476428Y-84058333D01*
X170238333Y-84058333D01*
X170047857Y-84010714D01*
X169952619Y-83963095D01*
X169905000Y-83915476D01*
X169857380Y-83820238D01*
%TO.C,TP73*%
X195365904Y-87336380D02*
X195937333Y-87336380D01*
X195651619Y-88336380D02*
X195651619Y-87336380D01*
X196270666Y-88336380D02*
X196270666Y-87336380D01*
X196651619Y-87336380D01*
X196746857Y-87384000D01*
X196794476Y-87431619D01*
X196842095Y-87526857D01*
X196842095Y-87669714D01*
X196794476Y-87764952D01*
X196746857Y-87812571D01*
X196651619Y-87860190D01*
X196270666Y-87860190D01*
X197175428Y-87336380D02*
X197842095Y-87336380D01*
X197413523Y-88336380D01*
X198127809Y-87336380D02*
X198746857Y-87336380D01*
X198413523Y-87717333D01*
X198556380Y-87717333D01*
X198651619Y-87764952D01*
X198699238Y-87812571D01*
X198746857Y-87907809D01*
X198746857Y-88145904D01*
X198699238Y-88241142D01*
X198651619Y-88288761D01*
X198556380Y-88336380D01*
X198270666Y-88336380D01*
X198175428Y-88288761D01*
X198127809Y-88241142D01*
%TO.C,TP69*%
X164123904Y-72350380D02*
X164695333Y-72350380D01*
X164409619Y-73350380D02*
X164409619Y-72350380D01*
X165028666Y-73350380D02*
X165028666Y-72350380D01*
X165409619Y-72350380D01*
X165504857Y-72398000D01*
X165552476Y-72445619D01*
X165600095Y-72540857D01*
X165600095Y-72683714D01*
X165552476Y-72778952D01*
X165504857Y-72826571D01*
X165409619Y-72874190D01*
X165028666Y-72874190D01*
X166457238Y-72350380D02*
X166266761Y-72350380D01*
X166171523Y-72398000D01*
X166123904Y-72445619D01*
X166028666Y-72588476D01*
X165981047Y-72778952D01*
X165981047Y-73159904D01*
X166028666Y-73255142D01*
X166076285Y-73302761D01*
X166171523Y-73350380D01*
X166362000Y-73350380D01*
X166457238Y-73302761D01*
X166504857Y-73255142D01*
X166552476Y-73159904D01*
X166552476Y-72921809D01*
X166504857Y-72826571D01*
X166457238Y-72778952D01*
X166362000Y-72731333D01*
X166171523Y-72731333D01*
X166076285Y-72778952D01*
X166028666Y-72826571D01*
X165981047Y-72921809D01*
X167028666Y-73350380D02*
X167219142Y-73350380D01*
X167314380Y-73302761D01*
X167362000Y-73255142D01*
X167457238Y-73112285D01*
X167504857Y-72921809D01*
X167504857Y-72540857D01*
X167457238Y-72445619D01*
X167409619Y-72398000D01*
X167314380Y-72350380D01*
X167123904Y-72350380D01*
X167028666Y-72398000D01*
X166981047Y-72445619D01*
X166933428Y-72540857D01*
X166933428Y-72778952D01*
X166981047Y-72874190D01*
X167028666Y-72921809D01*
X167123904Y-72969428D01*
X167314380Y-72969428D01*
X167409619Y-72921809D01*
X167457238Y-72874190D01*
X167504857Y-72778952D01*
%TO.C,X2*%
X103812380Y-117019523D02*
X104812380Y-116352857D01*
X103812380Y-116352857D02*
X104812380Y-117019523D01*
X103907619Y-116019523D02*
X103860000Y-115971904D01*
X103812380Y-115876666D01*
X103812380Y-115638571D01*
X103860000Y-115543333D01*
X103907619Y-115495714D01*
X104002857Y-115448095D01*
X104098095Y-115448095D01*
X104240952Y-115495714D01*
X104812380Y-116067142D01*
X104812380Y-115448095D01*
%TO.C,U7109*%
X120327380Y-87925476D02*
X121136904Y-87925476D01*
X121232142Y-87877857D01*
X121279761Y-87830238D01*
X121327380Y-87735000D01*
X121327380Y-87544523D01*
X121279761Y-87449285D01*
X121232142Y-87401666D01*
X121136904Y-87354047D01*
X120327380Y-87354047D01*
X120327380Y-86973095D02*
X120327380Y-86306428D01*
X121327380Y-86735000D01*
X121327380Y-85401666D02*
X121327380Y-85973095D01*
X121327380Y-85687380D02*
X120327380Y-85687380D01*
X120470238Y-85782619D01*
X120565476Y-85877857D01*
X120613095Y-85973095D01*
X120327380Y-84782619D02*
X120327380Y-84687380D01*
X120375000Y-84592142D01*
X120422619Y-84544523D01*
X120517857Y-84496904D01*
X120708333Y-84449285D01*
X120946428Y-84449285D01*
X121136904Y-84496904D01*
X121232142Y-84544523D01*
X121279761Y-84592142D01*
X121327380Y-84687380D01*
X121327380Y-84782619D01*
X121279761Y-84877857D01*
X121232142Y-84925476D01*
X121136904Y-84973095D01*
X120946428Y-85020714D01*
X120708333Y-85020714D01*
X120517857Y-84973095D01*
X120422619Y-84925476D01*
X120375000Y-84877857D01*
X120327380Y-84782619D01*
X121327380Y-83973095D02*
X121327380Y-83782619D01*
X121279761Y-83687380D01*
X121232142Y-83639761D01*
X121089285Y-83544523D01*
X120898809Y-83496904D01*
X120517857Y-83496904D01*
X120422619Y-83544523D01*
X120375000Y-83592142D01*
X120327380Y-83687380D01*
X120327380Y-83877857D01*
X120375000Y-83973095D01*
X120422619Y-84020714D01*
X120517857Y-84068333D01*
X120755952Y-84068333D01*
X120851190Y-84020714D01*
X120898809Y-83973095D01*
X120946428Y-83877857D01*
X120946428Y-83687380D01*
X120898809Y-83592142D01*
X120851190Y-83544523D01*
X120755952Y-83496904D01*
%TO.C,TP61*%
X187920095Y-107227619D02*
X187348666Y-107227619D01*
X187634380Y-106227619D02*
X187634380Y-107227619D01*
X187015333Y-106227619D02*
X187015333Y-107227619D01*
X186634380Y-107227619D01*
X186539142Y-107180000D01*
X186491523Y-107132380D01*
X186443904Y-107037142D01*
X186443904Y-106894285D01*
X186491523Y-106799047D01*
X186539142Y-106751428D01*
X186634380Y-106703809D01*
X187015333Y-106703809D01*
X185586761Y-107227619D02*
X185777238Y-107227619D01*
X185872476Y-107180000D01*
X185920095Y-107132380D01*
X186015333Y-106989523D01*
X186062952Y-106799047D01*
X186062952Y-106418095D01*
X186015333Y-106322857D01*
X185967714Y-106275238D01*
X185872476Y-106227619D01*
X185682000Y-106227619D01*
X185586761Y-106275238D01*
X185539142Y-106322857D01*
X185491523Y-106418095D01*
X185491523Y-106656190D01*
X185539142Y-106751428D01*
X185586761Y-106799047D01*
X185682000Y-106846666D01*
X185872476Y-106846666D01*
X185967714Y-106799047D01*
X186015333Y-106751428D01*
X186062952Y-106656190D01*
X184539142Y-106227619D02*
X185110571Y-106227619D01*
X184824857Y-106227619D02*
X184824857Y-107227619D01*
X184920095Y-107084761D01*
X185015333Y-106989523D01*
X185110571Y-106941904D01*
%TO.C,TP23*%
X132881904Y-124674380D02*
X133453333Y-124674380D01*
X133167619Y-125674380D02*
X133167619Y-124674380D01*
X133786666Y-125674380D02*
X133786666Y-124674380D01*
X134167619Y-124674380D01*
X134262857Y-124722000D01*
X134310476Y-124769619D01*
X134358095Y-124864857D01*
X134358095Y-125007714D01*
X134310476Y-125102952D01*
X134262857Y-125150571D01*
X134167619Y-125198190D01*
X133786666Y-125198190D01*
X134739047Y-124769619D02*
X134786666Y-124722000D01*
X134881904Y-124674380D01*
X135120000Y-124674380D01*
X135215238Y-124722000D01*
X135262857Y-124769619D01*
X135310476Y-124864857D01*
X135310476Y-124960095D01*
X135262857Y-125102952D01*
X134691428Y-125674380D01*
X135310476Y-125674380D01*
X135643809Y-124674380D02*
X136262857Y-124674380D01*
X135929523Y-125055333D01*
X136072380Y-125055333D01*
X136167619Y-125102952D01*
X136215238Y-125150571D01*
X136262857Y-125245809D01*
X136262857Y-125483904D01*
X136215238Y-125579142D01*
X136167619Y-125626761D01*
X136072380Y-125674380D01*
X135786666Y-125674380D01*
X135691428Y-125626761D01*
X135643809Y-125579142D01*
%TO.C,TP88*%
X116117904Y-85050380D02*
X116689333Y-85050380D01*
X116403619Y-86050380D02*
X116403619Y-85050380D01*
X117022666Y-86050380D02*
X117022666Y-85050380D01*
X117403619Y-85050380D01*
X117498857Y-85098000D01*
X117546476Y-85145619D01*
X117594095Y-85240857D01*
X117594095Y-85383714D01*
X117546476Y-85478952D01*
X117498857Y-85526571D01*
X117403619Y-85574190D01*
X117022666Y-85574190D01*
X118165523Y-85478952D02*
X118070285Y-85431333D01*
X118022666Y-85383714D01*
X117975047Y-85288476D01*
X117975047Y-85240857D01*
X118022666Y-85145619D01*
X118070285Y-85098000D01*
X118165523Y-85050380D01*
X118356000Y-85050380D01*
X118451238Y-85098000D01*
X118498857Y-85145619D01*
X118546476Y-85240857D01*
X118546476Y-85288476D01*
X118498857Y-85383714D01*
X118451238Y-85431333D01*
X118356000Y-85478952D01*
X118165523Y-85478952D01*
X118070285Y-85526571D01*
X118022666Y-85574190D01*
X117975047Y-85669428D01*
X117975047Y-85859904D01*
X118022666Y-85955142D01*
X118070285Y-86002761D01*
X118165523Y-86050380D01*
X118356000Y-86050380D01*
X118451238Y-86002761D01*
X118498857Y-85955142D01*
X118546476Y-85859904D01*
X118546476Y-85669428D01*
X118498857Y-85574190D01*
X118451238Y-85526571D01*
X118356000Y-85478952D01*
X119117904Y-85478952D02*
X119022666Y-85431333D01*
X118975047Y-85383714D01*
X118927428Y-85288476D01*
X118927428Y-85240857D01*
X118975047Y-85145619D01*
X119022666Y-85098000D01*
X119117904Y-85050380D01*
X119308380Y-85050380D01*
X119403619Y-85098000D01*
X119451238Y-85145619D01*
X119498857Y-85240857D01*
X119498857Y-85288476D01*
X119451238Y-85383714D01*
X119403619Y-85431333D01*
X119308380Y-85478952D01*
X119117904Y-85478952D01*
X119022666Y-85526571D01*
X118975047Y-85574190D01*
X118927428Y-85669428D01*
X118927428Y-85859904D01*
X118975047Y-85955142D01*
X119022666Y-86002761D01*
X119117904Y-86050380D01*
X119308380Y-86050380D01*
X119403619Y-86002761D01*
X119451238Y-85955142D01*
X119498857Y-85859904D01*
X119498857Y-85669428D01*
X119451238Y-85574190D01*
X119403619Y-85526571D01*
X119308380Y-85478952D01*
%TO.C,TP59*%
X180633904Y-108164380D02*
X181205333Y-108164380D01*
X180919619Y-109164380D02*
X180919619Y-108164380D01*
X181538666Y-109164380D02*
X181538666Y-108164380D01*
X181919619Y-108164380D01*
X182014857Y-108212000D01*
X182062476Y-108259619D01*
X182110095Y-108354857D01*
X182110095Y-108497714D01*
X182062476Y-108592952D01*
X182014857Y-108640571D01*
X181919619Y-108688190D01*
X181538666Y-108688190D01*
X183014857Y-108164380D02*
X182538666Y-108164380D01*
X182491047Y-108640571D01*
X182538666Y-108592952D01*
X182633904Y-108545333D01*
X182872000Y-108545333D01*
X182967238Y-108592952D01*
X183014857Y-108640571D01*
X183062476Y-108735809D01*
X183062476Y-108973904D01*
X183014857Y-109069142D01*
X182967238Y-109116761D01*
X182872000Y-109164380D01*
X182633904Y-109164380D01*
X182538666Y-109116761D01*
X182491047Y-109069142D01*
X183538666Y-109164380D02*
X183729142Y-109164380D01*
X183824380Y-109116761D01*
X183872000Y-109069142D01*
X183967238Y-108926285D01*
X184014857Y-108735809D01*
X184014857Y-108354857D01*
X183967238Y-108259619D01*
X183919619Y-108212000D01*
X183824380Y-108164380D01*
X183633904Y-108164380D01*
X183538666Y-108212000D01*
X183491047Y-108259619D01*
X183443428Y-108354857D01*
X183443428Y-108592952D01*
X183491047Y-108688190D01*
X183538666Y-108735809D01*
X183633904Y-108783428D01*
X183824380Y-108783428D01*
X183919619Y-108735809D01*
X183967238Y-108688190D01*
X184014857Y-108592952D01*
%TO.C,TP16*%
X138977904Y-132040380D02*
X139549333Y-132040380D01*
X139263619Y-133040380D02*
X139263619Y-132040380D01*
X139882666Y-133040380D02*
X139882666Y-132040380D01*
X140263619Y-132040380D01*
X140358857Y-132088000D01*
X140406476Y-132135619D01*
X140454095Y-132230857D01*
X140454095Y-132373714D01*
X140406476Y-132468952D01*
X140358857Y-132516571D01*
X140263619Y-132564190D01*
X139882666Y-132564190D01*
X141406476Y-133040380D02*
X140835047Y-133040380D01*
X141120761Y-133040380D02*
X141120761Y-132040380D01*
X141025523Y-132183238D01*
X140930285Y-132278476D01*
X140835047Y-132326095D01*
X142263619Y-132040380D02*
X142073142Y-132040380D01*
X141977904Y-132088000D01*
X141930285Y-132135619D01*
X141835047Y-132278476D01*
X141787428Y-132468952D01*
X141787428Y-132849904D01*
X141835047Y-132945142D01*
X141882666Y-132992761D01*
X141977904Y-133040380D01*
X142168380Y-133040380D01*
X142263619Y-132992761D01*
X142311238Y-132945142D01*
X142358857Y-132849904D01*
X142358857Y-132611809D01*
X142311238Y-132516571D01*
X142263619Y-132468952D01*
X142168380Y-132421333D01*
X141977904Y-132421333D01*
X141882666Y-132468952D01*
X141835047Y-132516571D01*
X141787428Y-132611809D01*
%TO.C,TP82*%
X160059904Y-64984380D02*
X160631333Y-64984380D01*
X160345619Y-65984380D02*
X160345619Y-64984380D01*
X160964666Y-65984380D02*
X160964666Y-64984380D01*
X161345619Y-64984380D01*
X161440857Y-65032000D01*
X161488476Y-65079619D01*
X161536095Y-65174857D01*
X161536095Y-65317714D01*
X161488476Y-65412952D01*
X161440857Y-65460571D01*
X161345619Y-65508190D01*
X160964666Y-65508190D01*
X162107523Y-65412952D02*
X162012285Y-65365333D01*
X161964666Y-65317714D01*
X161917047Y-65222476D01*
X161917047Y-65174857D01*
X161964666Y-65079619D01*
X162012285Y-65032000D01*
X162107523Y-64984380D01*
X162298000Y-64984380D01*
X162393238Y-65032000D01*
X162440857Y-65079619D01*
X162488476Y-65174857D01*
X162488476Y-65222476D01*
X162440857Y-65317714D01*
X162393238Y-65365333D01*
X162298000Y-65412952D01*
X162107523Y-65412952D01*
X162012285Y-65460571D01*
X161964666Y-65508190D01*
X161917047Y-65603428D01*
X161917047Y-65793904D01*
X161964666Y-65889142D01*
X162012285Y-65936761D01*
X162107523Y-65984380D01*
X162298000Y-65984380D01*
X162393238Y-65936761D01*
X162440857Y-65889142D01*
X162488476Y-65793904D01*
X162488476Y-65603428D01*
X162440857Y-65508190D01*
X162393238Y-65460571D01*
X162298000Y-65412952D01*
X162869428Y-65079619D02*
X162917047Y-65032000D01*
X163012285Y-64984380D01*
X163250380Y-64984380D01*
X163345619Y-65032000D01*
X163393238Y-65079619D01*
X163440857Y-65174857D01*
X163440857Y-65270095D01*
X163393238Y-65412952D01*
X162821809Y-65984380D01*
X163440857Y-65984380D01*
%TO.C,TP79*%
X191809904Y-60412380D02*
X192381333Y-60412380D01*
X192095619Y-61412380D02*
X192095619Y-60412380D01*
X192714666Y-61412380D02*
X192714666Y-60412380D01*
X193095619Y-60412380D01*
X193190857Y-60460000D01*
X193238476Y-60507619D01*
X193286095Y-60602857D01*
X193286095Y-60745714D01*
X193238476Y-60840952D01*
X193190857Y-60888571D01*
X193095619Y-60936190D01*
X192714666Y-60936190D01*
X193619428Y-60412380D02*
X194286095Y-60412380D01*
X193857523Y-61412380D01*
X194714666Y-61412380D02*
X194905142Y-61412380D01*
X195000380Y-61364761D01*
X195048000Y-61317142D01*
X195143238Y-61174285D01*
X195190857Y-60983809D01*
X195190857Y-60602857D01*
X195143238Y-60507619D01*
X195095619Y-60460000D01*
X195000380Y-60412380D01*
X194809904Y-60412380D01*
X194714666Y-60460000D01*
X194667047Y-60507619D01*
X194619428Y-60602857D01*
X194619428Y-60840952D01*
X194667047Y-60936190D01*
X194714666Y-60983809D01*
X194809904Y-61031428D01*
X195000380Y-61031428D01*
X195095619Y-60983809D01*
X195143238Y-60936190D01*
X195190857Y-60840952D01*
%TO.C,TP10*%
X172251904Y-124420380D02*
X172823333Y-124420380D01*
X172537619Y-125420380D02*
X172537619Y-124420380D01*
X173156666Y-125420380D02*
X173156666Y-124420380D01*
X173537619Y-124420380D01*
X173632857Y-124468000D01*
X173680476Y-124515619D01*
X173728095Y-124610857D01*
X173728095Y-124753714D01*
X173680476Y-124848952D01*
X173632857Y-124896571D01*
X173537619Y-124944190D01*
X173156666Y-124944190D01*
X174680476Y-125420380D02*
X174109047Y-125420380D01*
X174394761Y-125420380D02*
X174394761Y-124420380D01*
X174299523Y-124563238D01*
X174204285Y-124658476D01*
X174109047Y-124706095D01*
X175299523Y-124420380D02*
X175394761Y-124420380D01*
X175490000Y-124468000D01*
X175537619Y-124515619D01*
X175585238Y-124610857D01*
X175632857Y-124801333D01*
X175632857Y-125039428D01*
X175585238Y-125229904D01*
X175537619Y-125325142D01*
X175490000Y-125372761D01*
X175394761Y-125420380D01*
X175299523Y-125420380D01*
X175204285Y-125372761D01*
X175156666Y-125325142D01*
X175109047Y-125229904D01*
X175061428Y-125039428D01*
X175061428Y-124801333D01*
X175109047Y-124610857D01*
X175156666Y-124515619D01*
X175204285Y-124468000D01*
X175299523Y-124420380D01*
%TO.C,U7115*%
X74592380Y-68855476D02*
X75401904Y-68855476D01*
X75497142Y-68807857D01*
X75544761Y-68760238D01*
X75592380Y-68665000D01*
X75592380Y-68474523D01*
X75544761Y-68379285D01*
X75497142Y-68331666D01*
X75401904Y-68284047D01*
X74592380Y-68284047D01*
X74592380Y-67903095D02*
X74592380Y-67236428D01*
X75592380Y-67665000D01*
X75592380Y-66331666D02*
X75592380Y-66903095D01*
X75592380Y-66617380D02*
X74592380Y-66617380D01*
X74735238Y-66712619D01*
X74830476Y-66807857D01*
X74878095Y-66903095D01*
X75592380Y-65379285D02*
X75592380Y-65950714D01*
X75592380Y-65665000D02*
X74592380Y-65665000D01*
X74735238Y-65760238D01*
X74830476Y-65855476D01*
X74878095Y-65950714D01*
X74592380Y-64474523D02*
X74592380Y-64950714D01*
X75068571Y-64998333D01*
X75020952Y-64950714D01*
X74973333Y-64855476D01*
X74973333Y-64617380D01*
X75020952Y-64522142D01*
X75068571Y-64474523D01*
X75163809Y-64426904D01*
X75401904Y-64426904D01*
X75497142Y-64474523D01*
X75544761Y-64522142D01*
X75592380Y-64617380D01*
X75592380Y-64855476D01*
X75544761Y-64950714D01*
X75497142Y-64998333D01*
%TO.C,X-TAL1*%
X109607380Y-74875357D02*
X110607380Y-74208690D01*
X109607380Y-74208690D02*
X110607380Y-74875357D01*
X110226428Y-73827738D02*
X110226428Y-73065833D01*
X109607380Y-72732500D02*
X109607380Y-72161071D01*
X110607380Y-72446785D02*
X109607380Y-72446785D01*
X110321666Y-71875357D02*
X110321666Y-71399166D01*
X110607380Y-71970595D02*
X109607380Y-71637261D01*
X110607380Y-71303928D01*
X110607380Y-70494404D02*
X110607380Y-70970595D01*
X109607380Y-70970595D01*
X110607380Y-69637261D02*
X110607380Y-70208690D01*
X110607380Y-69922976D02*
X109607380Y-69922976D01*
X109750238Y-70018214D01*
X109845476Y-70113452D01*
X109893095Y-70208690D01*
%TO.C,U7117*%
X145727380Y-103145476D02*
X146536904Y-103145476D01*
X146632142Y-103097857D01*
X146679761Y-103050238D01*
X146727380Y-102955000D01*
X146727380Y-102764523D01*
X146679761Y-102669285D01*
X146632142Y-102621666D01*
X146536904Y-102574047D01*
X145727380Y-102574047D01*
X145727380Y-102193095D02*
X145727380Y-101526428D01*
X146727380Y-101955000D01*
X146727380Y-100621666D02*
X146727380Y-101193095D01*
X146727380Y-100907380D02*
X145727380Y-100907380D01*
X145870238Y-101002619D01*
X145965476Y-101097857D01*
X146013095Y-101193095D01*
X146727380Y-99669285D02*
X146727380Y-100240714D01*
X146727380Y-99955000D02*
X145727380Y-99955000D01*
X145870238Y-100050238D01*
X145965476Y-100145476D01*
X146013095Y-100240714D01*
X145727380Y-99335952D02*
X145727380Y-98669285D01*
X146727380Y-99097857D01*
%TO.C,TP70*%
X170219904Y-65492380D02*
X170791333Y-65492380D01*
X170505619Y-66492380D02*
X170505619Y-65492380D01*
X171124666Y-66492380D02*
X171124666Y-65492380D01*
X171505619Y-65492380D01*
X171600857Y-65540000D01*
X171648476Y-65587619D01*
X171696095Y-65682857D01*
X171696095Y-65825714D01*
X171648476Y-65920952D01*
X171600857Y-65968571D01*
X171505619Y-66016190D01*
X171124666Y-66016190D01*
X172029428Y-65492380D02*
X172696095Y-65492380D01*
X172267523Y-66492380D01*
X173267523Y-65492380D02*
X173362761Y-65492380D01*
X173458000Y-65540000D01*
X173505619Y-65587619D01*
X173553238Y-65682857D01*
X173600857Y-65873333D01*
X173600857Y-66111428D01*
X173553238Y-66301904D01*
X173505619Y-66397142D01*
X173458000Y-66444761D01*
X173362761Y-66492380D01*
X173267523Y-66492380D01*
X173172285Y-66444761D01*
X173124666Y-66397142D01*
X173077047Y-66301904D01*
X173029428Y-66111428D01*
X173029428Y-65873333D01*
X173077047Y-65682857D01*
X173124666Y-65587619D01*
X173172285Y-65540000D01*
X173267523Y-65492380D01*
%TO.C,TP108*%
X82875714Y-52792380D02*
X83447142Y-52792380D01*
X83161428Y-53792380D02*
X83161428Y-52792380D01*
X83780476Y-53792380D02*
X83780476Y-52792380D01*
X84161428Y-52792380D01*
X84256666Y-52840000D01*
X84304285Y-52887619D01*
X84351904Y-52982857D01*
X84351904Y-53125714D01*
X84304285Y-53220952D01*
X84256666Y-53268571D01*
X84161428Y-53316190D01*
X83780476Y-53316190D01*
X85304285Y-53792380D02*
X84732857Y-53792380D01*
X85018571Y-53792380D02*
X85018571Y-52792380D01*
X84923333Y-52935238D01*
X84828095Y-53030476D01*
X84732857Y-53078095D01*
X85923333Y-52792380D02*
X86018571Y-52792380D01*
X86113809Y-52840000D01*
X86161428Y-52887619D01*
X86209047Y-52982857D01*
X86256666Y-53173333D01*
X86256666Y-53411428D01*
X86209047Y-53601904D01*
X86161428Y-53697142D01*
X86113809Y-53744761D01*
X86018571Y-53792380D01*
X85923333Y-53792380D01*
X85828095Y-53744761D01*
X85780476Y-53697142D01*
X85732857Y-53601904D01*
X85685238Y-53411428D01*
X85685238Y-53173333D01*
X85732857Y-52982857D01*
X85780476Y-52887619D01*
X85828095Y-52840000D01*
X85923333Y-52792380D01*
X86828095Y-53220952D02*
X86732857Y-53173333D01*
X86685238Y-53125714D01*
X86637619Y-53030476D01*
X86637619Y-52982857D01*
X86685238Y-52887619D01*
X86732857Y-52840000D01*
X86828095Y-52792380D01*
X87018571Y-52792380D01*
X87113809Y-52840000D01*
X87161428Y-52887619D01*
X87209047Y-52982857D01*
X87209047Y-53030476D01*
X87161428Y-53125714D01*
X87113809Y-53173333D01*
X87018571Y-53220952D01*
X86828095Y-53220952D01*
X86732857Y-53268571D01*
X86685238Y-53316190D01*
X86637619Y-53411428D01*
X86637619Y-53601904D01*
X86685238Y-53697142D01*
X86732857Y-53744761D01*
X86828095Y-53792380D01*
X87018571Y-53792380D01*
X87113809Y-53744761D01*
X87161428Y-53697142D01*
X87209047Y-53601904D01*
X87209047Y-53411428D01*
X87161428Y-53316190D01*
X87113809Y-53268571D01*
X87018571Y-53220952D01*
%TO.C,U7118*%
X145727380Y-118385476D02*
X146536904Y-118385476D01*
X146632142Y-118337857D01*
X146679761Y-118290238D01*
X146727380Y-118195000D01*
X146727380Y-118004523D01*
X146679761Y-117909285D01*
X146632142Y-117861666D01*
X146536904Y-117814047D01*
X145727380Y-117814047D01*
X145727380Y-117433095D02*
X145727380Y-116766428D01*
X146727380Y-117195000D01*
X146727380Y-115861666D02*
X146727380Y-116433095D01*
X146727380Y-116147380D02*
X145727380Y-116147380D01*
X145870238Y-116242619D01*
X145965476Y-116337857D01*
X146013095Y-116433095D01*
X146727380Y-114909285D02*
X146727380Y-115480714D01*
X146727380Y-115195000D02*
X145727380Y-115195000D01*
X145870238Y-115290238D01*
X145965476Y-115385476D01*
X146013095Y-115480714D01*
X146155952Y-114337857D02*
X146108333Y-114433095D01*
X146060714Y-114480714D01*
X145965476Y-114528333D01*
X145917857Y-114528333D01*
X145822619Y-114480714D01*
X145775000Y-114433095D01*
X145727380Y-114337857D01*
X145727380Y-114147380D01*
X145775000Y-114052142D01*
X145822619Y-114004523D01*
X145917857Y-113956904D01*
X145965476Y-113956904D01*
X146060714Y-114004523D01*
X146108333Y-114052142D01*
X146155952Y-114147380D01*
X146155952Y-114337857D01*
X146203571Y-114433095D01*
X146251190Y-114480714D01*
X146346428Y-114528333D01*
X146536904Y-114528333D01*
X146632142Y-114480714D01*
X146679761Y-114433095D01*
X146727380Y-114337857D01*
X146727380Y-114147380D01*
X146679761Y-114052142D01*
X146632142Y-114004523D01*
X146536904Y-113956904D01*
X146346428Y-113956904D01*
X146251190Y-114004523D01*
X146203571Y-114052142D01*
X146155952Y-114147380D01*
%TO.C,X5*%
X198580476Y-56177380D02*
X199247142Y-57177380D01*
X199247142Y-56177380D02*
X198580476Y-57177380D01*
X200104285Y-56177380D02*
X199628095Y-56177380D01*
X199580476Y-56653571D01*
X199628095Y-56605952D01*
X199723333Y-56558333D01*
X199961428Y-56558333D01*
X200056666Y-56605952D01*
X200104285Y-56653571D01*
X200151904Y-56748809D01*
X200151904Y-56986904D01*
X200104285Y-57082142D01*
X200056666Y-57129761D01*
X199961428Y-57177380D01*
X199723333Y-57177380D01*
X199628095Y-57129761D01*
X199580476Y-57082142D01*
%TO.C,TP41*%
X77001904Y-118324380D02*
X77573333Y-118324380D01*
X77287619Y-119324380D02*
X77287619Y-118324380D01*
X77906666Y-119324380D02*
X77906666Y-118324380D01*
X78287619Y-118324380D01*
X78382857Y-118372000D01*
X78430476Y-118419619D01*
X78478095Y-118514857D01*
X78478095Y-118657714D01*
X78430476Y-118752952D01*
X78382857Y-118800571D01*
X78287619Y-118848190D01*
X77906666Y-118848190D01*
X79335238Y-118657714D02*
X79335238Y-119324380D01*
X79097142Y-118276761D02*
X78859047Y-118991047D01*
X79478095Y-118991047D01*
X80382857Y-119324380D02*
X79811428Y-119324380D01*
X80097142Y-119324380D02*
X80097142Y-118324380D01*
X80001904Y-118467238D01*
X79906666Y-118562476D01*
X79811428Y-118610095D01*
%TO.C,TP80*%
X174029904Y-51522380D02*
X174601333Y-51522380D01*
X174315619Y-52522380D02*
X174315619Y-51522380D01*
X174934666Y-52522380D02*
X174934666Y-51522380D01*
X175315619Y-51522380D01*
X175410857Y-51570000D01*
X175458476Y-51617619D01*
X175506095Y-51712857D01*
X175506095Y-51855714D01*
X175458476Y-51950952D01*
X175410857Y-51998571D01*
X175315619Y-52046190D01*
X174934666Y-52046190D01*
X176077523Y-51950952D02*
X175982285Y-51903333D01*
X175934666Y-51855714D01*
X175887047Y-51760476D01*
X175887047Y-51712857D01*
X175934666Y-51617619D01*
X175982285Y-51570000D01*
X176077523Y-51522380D01*
X176268000Y-51522380D01*
X176363238Y-51570000D01*
X176410857Y-51617619D01*
X176458476Y-51712857D01*
X176458476Y-51760476D01*
X176410857Y-51855714D01*
X176363238Y-51903333D01*
X176268000Y-51950952D01*
X176077523Y-51950952D01*
X175982285Y-51998571D01*
X175934666Y-52046190D01*
X175887047Y-52141428D01*
X175887047Y-52331904D01*
X175934666Y-52427142D01*
X175982285Y-52474761D01*
X176077523Y-52522380D01*
X176268000Y-52522380D01*
X176363238Y-52474761D01*
X176410857Y-52427142D01*
X176458476Y-52331904D01*
X176458476Y-52141428D01*
X176410857Y-52046190D01*
X176363238Y-51998571D01*
X176268000Y-51950952D01*
X177077523Y-51522380D02*
X177172761Y-51522380D01*
X177268000Y-51570000D01*
X177315619Y-51617619D01*
X177363238Y-51712857D01*
X177410857Y-51903333D01*
X177410857Y-52141428D01*
X177363238Y-52331904D01*
X177315619Y-52427142D01*
X177268000Y-52474761D01*
X177172761Y-52522380D01*
X177077523Y-52522380D01*
X176982285Y-52474761D01*
X176934666Y-52427142D01*
X176887047Y-52331904D01*
X176839428Y-52141428D01*
X176839428Y-51903333D01*
X176887047Y-51712857D01*
X176934666Y-51617619D01*
X176982285Y-51570000D01*
X177077523Y-51522380D01*
%TO.C,TP94*%
X85383904Y-88352380D02*
X85955333Y-88352380D01*
X85669619Y-89352380D02*
X85669619Y-88352380D01*
X86288666Y-89352380D02*
X86288666Y-88352380D01*
X86669619Y-88352380D01*
X86764857Y-88400000D01*
X86812476Y-88447619D01*
X86860095Y-88542857D01*
X86860095Y-88685714D01*
X86812476Y-88780952D01*
X86764857Y-88828571D01*
X86669619Y-88876190D01*
X86288666Y-88876190D01*
X87336285Y-89352380D02*
X87526761Y-89352380D01*
X87622000Y-89304761D01*
X87669619Y-89257142D01*
X87764857Y-89114285D01*
X87812476Y-88923809D01*
X87812476Y-88542857D01*
X87764857Y-88447619D01*
X87717238Y-88400000D01*
X87622000Y-88352380D01*
X87431523Y-88352380D01*
X87336285Y-88400000D01*
X87288666Y-88447619D01*
X87241047Y-88542857D01*
X87241047Y-88780952D01*
X87288666Y-88876190D01*
X87336285Y-88923809D01*
X87431523Y-88971428D01*
X87622000Y-88971428D01*
X87717238Y-88923809D01*
X87764857Y-88876190D01*
X87812476Y-88780952D01*
X88669619Y-88685714D02*
X88669619Y-89352380D01*
X88431523Y-88304761D02*
X88193428Y-89019047D01*
X88812476Y-89019047D01*
%TO.C,TP30*%
X100369904Y-133310380D02*
X100941333Y-133310380D01*
X100655619Y-134310380D02*
X100655619Y-133310380D01*
X101274666Y-134310380D02*
X101274666Y-133310380D01*
X101655619Y-133310380D01*
X101750857Y-133358000D01*
X101798476Y-133405619D01*
X101846095Y-133500857D01*
X101846095Y-133643714D01*
X101798476Y-133738952D01*
X101750857Y-133786571D01*
X101655619Y-133834190D01*
X101274666Y-133834190D01*
X102179428Y-133310380D02*
X102798476Y-133310380D01*
X102465142Y-133691333D01*
X102608000Y-133691333D01*
X102703238Y-133738952D01*
X102750857Y-133786571D01*
X102798476Y-133881809D01*
X102798476Y-134119904D01*
X102750857Y-134215142D01*
X102703238Y-134262761D01*
X102608000Y-134310380D01*
X102322285Y-134310380D01*
X102227047Y-134262761D01*
X102179428Y-134215142D01*
X103417523Y-133310380D02*
X103512761Y-133310380D01*
X103608000Y-133358000D01*
X103655619Y-133405619D01*
X103703238Y-133500857D01*
X103750857Y-133691333D01*
X103750857Y-133929428D01*
X103703238Y-134119904D01*
X103655619Y-134215142D01*
X103608000Y-134262761D01*
X103512761Y-134310380D01*
X103417523Y-134310380D01*
X103322285Y-134262761D01*
X103274666Y-134215142D01*
X103227047Y-134119904D01*
X103179428Y-133929428D01*
X103179428Y-133691333D01*
X103227047Y-133500857D01*
X103274666Y-133405619D01*
X103322285Y-133358000D01*
X103417523Y-133310380D01*
%TO.C,TP21*%
X141009904Y-115022380D02*
X141581333Y-115022380D01*
X141295619Y-116022380D02*
X141295619Y-115022380D01*
X141914666Y-116022380D02*
X141914666Y-115022380D01*
X142295619Y-115022380D01*
X142390857Y-115070000D01*
X142438476Y-115117619D01*
X142486095Y-115212857D01*
X142486095Y-115355714D01*
X142438476Y-115450952D01*
X142390857Y-115498571D01*
X142295619Y-115546190D01*
X141914666Y-115546190D01*
X142867047Y-115117619D02*
X142914666Y-115070000D01*
X143009904Y-115022380D01*
X143248000Y-115022380D01*
X143343238Y-115070000D01*
X143390857Y-115117619D01*
X143438476Y-115212857D01*
X143438476Y-115308095D01*
X143390857Y-115450952D01*
X142819428Y-116022380D01*
X143438476Y-116022380D01*
X144390857Y-116022380D02*
X143819428Y-116022380D01*
X144105142Y-116022380D02*
X144105142Y-115022380D01*
X144009904Y-115165238D01*
X143914666Y-115260476D01*
X143819428Y-115308095D01*
%TO.C,U7106*%
X120307380Y-118385476D02*
X121116904Y-118385476D01*
X121212142Y-118337857D01*
X121259761Y-118290238D01*
X121307380Y-118195000D01*
X121307380Y-118004523D01*
X121259761Y-117909285D01*
X121212142Y-117861666D01*
X121116904Y-117814047D01*
X120307380Y-117814047D01*
X120307380Y-117433095D02*
X120307380Y-116766428D01*
X121307380Y-117195000D01*
X121307380Y-115861666D02*
X121307380Y-116433095D01*
X121307380Y-116147380D02*
X120307380Y-116147380D01*
X120450238Y-116242619D01*
X120545476Y-116337857D01*
X120593095Y-116433095D01*
X120307380Y-115242619D02*
X120307380Y-115147380D01*
X120355000Y-115052142D01*
X120402619Y-115004523D01*
X120497857Y-114956904D01*
X120688333Y-114909285D01*
X120926428Y-114909285D01*
X121116904Y-114956904D01*
X121212142Y-115004523D01*
X121259761Y-115052142D01*
X121307380Y-115147380D01*
X121307380Y-115242619D01*
X121259761Y-115337857D01*
X121212142Y-115385476D01*
X121116904Y-115433095D01*
X120926428Y-115480714D01*
X120688333Y-115480714D01*
X120497857Y-115433095D01*
X120402619Y-115385476D01*
X120355000Y-115337857D01*
X120307380Y-115242619D01*
X120307380Y-114052142D02*
X120307380Y-114242619D01*
X120355000Y-114337857D01*
X120402619Y-114385476D01*
X120545476Y-114480714D01*
X120735952Y-114528333D01*
X121116904Y-114528333D01*
X121212142Y-114480714D01*
X121259761Y-114433095D01*
X121307380Y-114337857D01*
X121307380Y-114147380D01*
X121259761Y-114052142D01*
X121212142Y-114004523D01*
X121116904Y-113956904D01*
X120878809Y-113956904D01*
X120783571Y-114004523D01*
X120735952Y-114052142D01*
X120688333Y-114147380D01*
X120688333Y-114337857D01*
X120735952Y-114433095D01*
X120783571Y-114480714D01*
X120878809Y-114528333D01*
%TO.C,TP97*%
X106973904Y-80732380D02*
X107545333Y-80732380D01*
X107259619Y-81732380D02*
X107259619Y-80732380D01*
X107878666Y-81732380D02*
X107878666Y-80732380D01*
X108259619Y-80732380D01*
X108354857Y-80780000D01*
X108402476Y-80827619D01*
X108450095Y-80922857D01*
X108450095Y-81065714D01*
X108402476Y-81160952D01*
X108354857Y-81208571D01*
X108259619Y-81256190D01*
X107878666Y-81256190D01*
X108926285Y-81732380D02*
X109116761Y-81732380D01*
X109212000Y-81684761D01*
X109259619Y-81637142D01*
X109354857Y-81494285D01*
X109402476Y-81303809D01*
X109402476Y-80922857D01*
X109354857Y-80827619D01*
X109307238Y-80780000D01*
X109212000Y-80732380D01*
X109021523Y-80732380D01*
X108926285Y-80780000D01*
X108878666Y-80827619D01*
X108831047Y-80922857D01*
X108831047Y-81160952D01*
X108878666Y-81256190D01*
X108926285Y-81303809D01*
X109021523Y-81351428D01*
X109212000Y-81351428D01*
X109307238Y-81303809D01*
X109354857Y-81256190D01*
X109402476Y-81160952D01*
X109735809Y-80732380D02*
X110402476Y-80732380D01*
X109973904Y-81732380D01*
%TO.C,U7119*%
X155222380Y-68870476D02*
X156031904Y-68870476D01*
X156127142Y-68822857D01*
X156174761Y-68775238D01*
X156222380Y-68680000D01*
X156222380Y-68489523D01*
X156174761Y-68394285D01*
X156127142Y-68346666D01*
X156031904Y-68299047D01*
X155222380Y-68299047D01*
X155222380Y-67918095D02*
X155222380Y-67251428D01*
X156222380Y-67680000D01*
X156222380Y-66346666D02*
X156222380Y-66918095D01*
X156222380Y-66632380D02*
X155222380Y-66632380D01*
X155365238Y-66727619D01*
X155460476Y-66822857D01*
X155508095Y-66918095D01*
X156222380Y-65394285D02*
X156222380Y-65965714D01*
X156222380Y-65680000D02*
X155222380Y-65680000D01*
X155365238Y-65775238D01*
X155460476Y-65870476D01*
X155508095Y-65965714D01*
X156222380Y-64918095D02*
X156222380Y-64727619D01*
X156174761Y-64632380D01*
X156127142Y-64584761D01*
X155984285Y-64489523D01*
X155793809Y-64441904D01*
X155412857Y-64441904D01*
X155317619Y-64489523D01*
X155270000Y-64537142D01*
X155222380Y-64632380D01*
X155222380Y-64822857D01*
X155270000Y-64918095D01*
X155317619Y-64965714D01*
X155412857Y-65013333D01*
X155650952Y-65013333D01*
X155746190Y-64965714D01*
X155793809Y-64918095D01*
X155841428Y-64822857D01*
X155841428Y-64632380D01*
X155793809Y-64537142D01*
X155746190Y-64489523D01*
X155650952Y-64441904D01*
%TO.C,TP14*%
X157519904Y-124420380D02*
X158091333Y-124420380D01*
X157805619Y-125420380D02*
X157805619Y-124420380D01*
X158424666Y-125420380D02*
X158424666Y-124420380D01*
X158805619Y-124420380D01*
X158900857Y-124468000D01*
X158948476Y-124515619D01*
X158996095Y-124610857D01*
X158996095Y-124753714D01*
X158948476Y-124848952D01*
X158900857Y-124896571D01*
X158805619Y-124944190D01*
X158424666Y-124944190D01*
X159948476Y-125420380D02*
X159377047Y-125420380D01*
X159662761Y-125420380D02*
X159662761Y-124420380D01*
X159567523Y-124563238D01*
X159472285Y-124658476D01*
X159377047Y-124706095D01*
X160805619Y-124753714D02*
X160805619Y-125420380D01*
X160567523Y-124372761D02*
X160329428Y-125087047D01*
X160948476Y-125087047D01*
%TO.C,U7110*%
X97447380Y-87905476D02*
X98256904Y-87905476D01*
X98352142Y-87857857D01*
X98399761Y-87810238D01*
X98447380Y-87715000D01*
X98447380Y-87524523D01*
X98399761Y-87429285D01*
X98352142Y-87381666D01*
X98256904Y-87334047D01*
X97447380Y-87334047D01*
X97447380Y-86953095D02*
X97447380Y-86286428D01*
X98447380Y-86715000D01*
X98447380Y-85381666D02*
X98447380Y-85953095D01*
X98447380Y-85667380D02*
X97447380Y-85667380D01*
X97590238Y-85762619D01*
X97685476Y-85857857D01*
X97733095Y-85953095D01*
X98447380Y-84429285D02*
X98447380Y-85000714D01*
X98447380Y-84715000D02*
X97447380Y-84715000D01*
X97590238Y-84810238D01*
X97685476Y-84905476D01*
X97733095Y-85000714D01*
X97447380Y-83810238D02*
X97447380Y-83715000D01*
X97495000Y-83619761D01*
X97542619Y-83572142D01*
X97637857Y-83524523D01*
X97828333Y-83476904D01*
X98066428Y-83476904D01*
X98256904Y-83524523D01*
X98352142Y-83572142D01*
X98399761Y-83619761D01*
X98447380Y-83715000D01*
X98447380Y-83810238D01*
X98399761Y-83905476D01*
X98352142Y-83953095D01*
X98256904Y-84000714D01*
X98066428Y-84048333D01*
X97828333Y-84048333D01*
X97637857Y-84000714D01*
X97542619Y-83953095D01*
X97495000Y-83905476D01*
X97447380Y-83810238D01*
%TO.C,TP67*%
X155233904Y-86574380D02*
X155805333Y-86574380D01*
X155519619Y-87574380D02*
X155519619Y-86574380D01*
X156138666Y-87574380D02*
X156138666Y-86574380D01*
X156519619Y-86574380D01*
X156614857Y-86622000D01*
X156662476Y-86669619D01*
X156710095Y-86764857D01*
X156710095Y-86907714D01*
X156662476Y-87002952D01*
X156614857Y-87050571D01*
X156519619Y-87098190D01*
X156138666Y-87098190D01*
X157567238Y-86574380D02*
X157376761Y-86574380D01*
X157281523Y-86622000D01*
X157233904Y-86669619D01*
X157138666Y-86812476D01*
X157091047Y-87002952D01*
X157091047Y-87383904D01*
X157138666Y-87479142D01*
X157186285Y-87526761D01*
X157281523Y-87574380D01*
X157472000Y-87574380D01*
X157567238Y-87526761D01*
X157614857Y-87479142D01*
X157662476Y-87383904D01*
X157662476Y-87145809D01*
X157614857Y-87050571D01*
X157567238Y-87002952D01*
X157472000Y-86955333D01*
X157281523Y-86955333D01*
X157186285Y-87002952D01*
X157138666Y-87050571D01*
X157091047Y-87145809D01*
X157995809Y-86574380D02*
X158662476Y-86574380D01*
X158233904Y-87574380D01*
%TO.C,U7107*%
X74587380Y-118385476D02*
X75396904Y-118385476D01*
X75492142Y-118337857D01*
X75539761Y-118290238D01*
X75587380Y-118195000D01*
X75587380Y-118004523D01*
X75539761Y-117909285D01*
X75492142Y-117861666D01*
X75396904Y-117814047D01*
X74587380Y-117814047D01*
X74587380Y-117433095D02*
X74587380Y-116766428D01*
X75587380Y-117195000D01*
X75587380Y-115861666D02*
X75587380Y-116433095D01*
X75587380Y-116147380D02*
X74587380Y-116147380D01*
X74730238Y-116242619D01*
X74825476Y-116337857D01*
X74873095Y-116433095D01*
X74587380Y-115242619D02*
X74587380Y-115147380D01*
X74635000Y-115052142D01*
X74682619Y-115004523D01*
X74777857Y-114956904D01*
X74968333Y-114909285D01*
X75206428Y-114909285D01*
X75396904Y-114956904D01*
X75492142Y-115004523D01*
X75539761Y-115052142D01*
X75587380Y-115147380D01*
X75587380Y-115242619D01*
X75539761Y-115337857D01*
X75492142Y-115385476D01*
X75396904Y-115433095D01*
X75206428Y-115480714D01*
X74968333Y-115480714D01*
X74777857Y-115433095D01*
X74682619Y-115385476D01*
X74635000Y-115337857D01*
X74587380Y-115242619D01*
X74587380Y-114575952D02*
X74587380Y-113909285D01*
X75587380Y-114337857D01*
%TO.C,TP96*%
X89193904Y-79970380D02*
X89765333Y-79970380D01*
X89479619Y-80970380D02*
X89479619Y-79970380D01*
X90098666Y-80970380D02*
X90098666Y-79970380D01*
X90479619Y-79970380D01*
X90574857Y-80018000D01*
X90622476Y-80065619D01*
X90670095Y-80160857D01*
X90670095Y-80303714D01*
X90622476Y-80398952D01*
X90574857Y-80446571D01*
X90479619Y-80494190D01*
X90098666Y-80494190D01*
X91146285Y-80970380D02*
X91336761Y-80970380D01*
X91432000Y-80922761D01*
X91479619Y-80875142D01*
X91574857Y-80732285D01*
X91622476Y-80541809D01*
X91622476Y-80160857D01*
X91574857Y-80065619D01*
X91527238Y-80018000D01*
X91432000Y-79970380D01*
X91241523Y-79970380D01*
X91146285Y-80018000D01*
X91098666Y-80065619D01*
X91051047Y-80160857D01*
X91051047Y-80398952D01*
X91098666Y-80494190D01*
X91146285Y-80541809D01*
X91241523Y-80589428D01*
X91432000Y-80589428D01*
X91527238Y-80541809D01*
X91574857Y-80494190D01*
X91622476Y-80398952D01*
X92479619Y-79970380D02*
X92289142Y-79970380D01*
X92193904Y-80018000D01*
X92146285Y-80065619D01*
X92051047Y-80208476D01*
X92003428Y-80398952D01*
X92003428Y-80779904D01*
X92051047Y-80875142D01*
X92098666Y-80922761D01*
X92193904Y-80970380D01*
X92384380Y-80970380D01*
X92479619Y-80922761D01*
X92527238Y-80875142D01*
X92574857Y-80779904D01*
X92574857Y-80541809D01*
X92527238Y-80446571D01*
X92479619Y-80398952D01*
X92384380Y-80351333D01*
X92193904Y-80351333D01*
X92098666Y-80398952D01*
X92051047Y-80446571D01*
X92003428Y-80541809D01*
%TO.C,TP100*%
X75255714Y-68286380D02*
X75827142Y-68286380D01*
X75541428Y-69286380D02*
X75541428Y-68286380D01*
X76160476Y-69286380D02*
X76160476Y-68286380D01*
X76541428Y-68286380D01*
X76636666Y-68334000D01*
X76684285Y-68381619D01*
X76731904Y-68476857D01*
X76731904Y-68619714D01*
X76684285Y-68714952D01*
X76636666Y-68762571D01*
X76541428Y-68810190D01*
X76160476Y-68810190D01*
X77684285Y-69286380D02*
X77112857Y-69286380D01*
X77398571Y-69286380D02*
X77398571Y-68286380D01*
X77303333Y-68429238D01*
X77208095Y-68524476D01*
X77112857Y-68572095D01*
X78303333Y-68286380D02*
X78398571Y-68286380D01*
X78493809Y-68334000D01*
X78541428Y-68381619D01*
X78589047Y-68476857D01*
X78636666Y-68667333D01*
X78636666Y-68905428D01*
X78589047Y-69095904D01*
X78541428Y-69191142D01*
X78493809Y-69238761D01*
X78398571Y-69286380D01*
X78303333Y-69286380D01*
X78208095Y-69238761D01*
X78160476Y-69191142D01*
X78112857Y-69095904D01*
X78065238Y-68905428D01*
X78065238Y-68667333D01*
X78112857Y-68476857D01*
X78160476Y-68381619D01*
X78208095Y-68334000D01*
X78303333Y-68286380D01*
X79255714Y-68286380D02*
X79350952Y-68286380D01*
X79446190Y-68334000D01*
X79493809Y-68381619D01*
X79541428Y-68476857D01*
X79589047Y-68667333D01*
X79589047Y-68905428D01*
X79541428Y-69095904D01*
X79493809Y-69191142D01*
X79446190Y-69238761D01*
X79350952Y-69286380D01*
X79255714Y-69286380D01*
X79160476Y-69238761D01*
X79112857Y-69191142D01*
X79065238Y-69095904D01*
X79017619Y-68905428D01*
X79017619Y-68667333D01*
X79065238Y-68476857D01*
X79112857Y-68381619D01*
X79160476Y-68334000D01*
X79255714Y-68286380D01*
%TO.C,TP48*%
X103671904Y-101814380D02*
X104243333Y-101814380D01*
X103957619Y-102814380D02*
X103957619Y-101814380D01*
X104576666Y-102814380D02*
X104576666Y-101814380D01*
X104957619Y-101814380D01*
X105052857Y-101862000D01*
X105100476Y-101909619D01*
X105148095Y-102004857D01*
X105148095Y-102147714D01*
X105100476Y-102242952D01*
X105052857Y-102290571D01*
X104957619Y-102338190D01*
X104576666Y-102338190D01*
X106005238Y-102147714D02*
X106005238Y-102814380D01*
X105767142Y-101766761D02*
X105529047Y-102481047D01*
X106148095Y-102481047D01*
X106671904Y-102242952D02*
X106576666Y-102195333D01*
X106529047Y-102147714D01*
X106481428Y-102052476D01*
X106481428Y-102004857D01*
X106529047Y-101909619D01*
X106576666Y-101862000D01*
X106671904Y-101814380D01*
X106862380Y-101814380D01*
X106957619Y-101862000D01*
X107005238Y-101909619D01*
X107052857Y-102004857D01*
X107052857Y-102052476D01*
X107005238Y-102147714D01*
X106957619Y-102195333D01*
X106862380Y-102242952D01*
X106671904Y-102242952D01*
X106576666Y-102290571D01*
X106529047Y-102338190D01*
X106481428Y-102433428D01*
X106481428Y-102623904D01*
X106529047Y-102719142D01*
X106576666Y-102766761D01*
X106671904Y-102814380D01*
X106862380Y-102814380D01*
X106957619Y-102766761D01*
X107005238Y-102719142D01*
X107052857Y-102623904D01*
X107052857Y-102433428D01*
X107005238Y-102338190D01*
X106957619Y-102290571D01*
X106862380Y-102242952D01*
%TO.C,TP106*%
X86685714Y-54062380D02*
X87257142Y-54062380D01*
X86971428Y-55062380D02*
X86971428Y-54062380D01*
X87590476Y-55062380D02*
X87590476Y-54062380D01*
X87971428Y-54062380D01*
X88066666Y-54110000D01*
X88114285Y-54157619D01*
X88161904Y-54252857D01*
X88161904Y-54395714D01*
X88114285Y-54490952D01*
X88066666Y-54538571D01*
X87971428Y-54586190D01*
X87590476Y-54586190D01*
X89114285Y-55062380D02*
X88542857Y-55062380D01*
X88828571Y-55062380D02*
X88828571Y-54062380D01*
X88733333Y-54205238D01*
X88638095Y-54300476D01*
X88542857Y-54348095D01*
X89733333Y-54062380D02*
X89828571Y-54062380D01*
X89923809Y-54110000D01*
X89971428Y-54157619D01*
X90019047Y-54252857D01*
X90066666Y-54443333D01*
X90066666Y-54681428D01*
X90019047Y-54871904D01*
X89971428Y-54967142D01*
X89923809Y-55014761D01*
X89828571Y-55062380D01*
X89733333Y-55062380D01*
X89638095Y-55014761D01*
X89590476Y-54967142D01*
X89542857Y-54871904D01*
X89495238Y-54681428D01*
X89495238Y-54443333D01*
X89542857Y-54252857D01*
X89590476Y-54157619D01*
X89638095Y-54110000D01*
X89733333Y-54062380D01*
X90923809Y-54062380D02*
X90733333Y-54062380D01*
X90638095Y-54110000D01*
X90590476Y-54157619D01*
X90495238Y-54300476D01*
X90447619Y-54490952D01*
X90447619Y-54871904D01*
X90495238Y-54967142D01*
X90542857Y-55014761D01*
X90638095Y-55062380D01*
X90828571Y-55062380D01*
X90923809Y-55014761D01*
X90971428Y-54967142D01*
X91019047Y-54871904D01*
X91019047Y-54633809D01*
X90971428Y-54538571D01*
X90923809Y-54490952D01*
X90828571Y-54443333D01*
X90638095Y-54443333D01*
X90542857Y-54490952D01*
X90495238Y-54538571D01*
X90447619Y-54633809D01*
%TO.C,TP74*%
X163450804Y-93483180D02*
X164022233Y-93483180D01*
X163736519Y-94483180D02*
X163736519Y-93483180D01*
X164355566Y-94483180D02*
X164355566Y-93483180D01*
X164736519Y-93483180D01*
X164831757Y-93530800D01*
X164879376Y-93578419D01*
X164926995Y-93673657D01*
X164926995Y-93816514D01*
X164879376Y-93911752D01*
X164831757Y-93959371D01*
X164736519Y-94006990D01*
X164355566Y-94006990D01*
X165260328Y-93483180D02*
X165926995Y-93483180D01*
X165498423Y-94483180D01*
X166736519Y-93816514D02*
X166736519Y-94483180D01*
X166498423Y-93435561D02*
X166260328Y-94149847D01*
X166879376Y-94149847D01*
D11*
%TO.C,X3*%
X196000662Y-112010000D02*
X196000662Y-111510000D01*
X196895000Y-101795000D02*
X209235000Y-101795000D01*
X196895000Y-141115000D02*
X196895000Y-101795000D01*
X196000662Y-111510000D02*
X196433675Y-111760000D01*
X209235000Y-141115000D02*
X196895000Y-141115000D01*
X196433675Y-111760000D02*
X196000662Y-112010000D01*
%TO.C,U7102*%
X126940000Y-128795000D02*
X126940000Y-130445000D01*
X152460000Y-128795000D02*
X126940000Y-128795000D01*
X152460000Y-134095000D02*
X152460000Y-128795000D01*
X126940000Y-132445000D02*
X126940000Y-134095000D01*
X126940000Y-134095000D02*
X152460000Y-134095000D01*
X126940000Y-132445000D02*
G75*
G03*
X126940000Y-130445000I0J1000000D01*
G01*
%TO.C,U7105*%
X76155000Y-132435000D02*
X76155000Y-134085000D01*
X76155000Y-134085000D02*
X96595000Y-134085000D01*
X96595000Y-128785000D02*
X76155000Y-128785000D01*
X96595000Y-134085000D02*
X96595000Y-128785000D01*
X76155000Y-128785000D02*
X76155000Y-130435000D01*
X76155000Y-132435000D02*
G75*
G03*
X76155000Y-130435000I0J1000000D01*
G01*
%TO.C,U7104*%
X121995000Y-128785000D02*
X101555000Y-128785000D01*
X121995000Y-134085000D02*
X121995000Y-128785000D01*
X101555000Y-132435000D02*
X101555000Y-134085000D01*
X101555000Y-128785000D02*
X101555000Y-130435000D01*
X101555000Y-134085000D02*
X121995000Y-134085000D01*
X101555000Y-132435000D02*
G75*
G03*
X101555000Y-130435000I0J1000000D01*
G01*
%TO.C,U7112*%
X76135000Y-88365000D02*
X94035000Y-88365000D01*
X94035000Y-83065000D02*
X76135000Y-83065000D01*
X76135000Y-83065000D02*
X76135000Y-84715000D01*
X76135000Y-86715000D02*
X76135000Y-88365000D01*
X94035000Y-88365000D02*
X94035000Y-83065000D01*
X76135000Y-86715000D02*
G75*
G03*
X76135000Y-84715000I0J1000000D01*
G01*
%TO.C,C9*%
X153247000Y-66308323D02*
X149831000Y-66308323D01*
X147349000Y-67548323D02*
X144698000Y-67548323D01*
X152811000Y-67108323D02*
X149831000Y-67108323D01*
X152269000Y-67788323D02*
X149831000Y-67788323D01*
X153174000Y-66468323D02*
X149831000Y-66468323D01*
X153614000Y-65028323D02*
X143566000Y-65028323D01*
X152379000Y-67668323D02*
X149831000Y-67668323D01*
X153655000Y-64667323D02*
X143525000Y-64667323D01*
X153508000Y-65548323D02*
X149831000Y-65548323D01*
X147349000Y-67788323D02*
X144911000Y-67788323D01*
X150332000Y-69068323D02*
X146848000Y-69068323D01*
X152515000Y-67508323D02*
X149831000Y-67508323D01*
X147349000Y-65828323D02*
X143753000Y-65828323D01*
X147349000Y-66108323D02*
X143852000Y-66108323D01*
X147349000Y-67588323D02*
X144732000Y-67588323D01*
X147349000Y-66428323D02*
X143987000Y-66428323D01*
X153401000Y-65908323D02*
X149831000Y-65908323D01*
X151420000Y-68508323D02*
X145760000Y-68508323D01*
X147349000Y-66508323D02*
X144026000Y-66508323D01*
X153640000Y-64827323D02*
X143540000Y-64827323D01*
X147349000Y-67628323D02*
X144766000Y-67628323D01*
X152610000Y-67388323D02*
X149831000Y-67388323D01*
X147349000Y-67508323D02*
X144665000Y-67508323D01*
X151965000Y-59287677D02*
X150965000Y-59287677D01*
X150100000Y-69148323D02*
X147080000Y-69148323D01*
X151590000Y-68388323D02*
X145590000Y-68388323D01*
X153667000Y-64467323D02*
X143513000Y-64467323D01*
X152700000Y-67268323D02*
X149831000Y-67268323D01*
X152306000Y-67748323D02*
X149831000Y-67748323D01*
X153668000Y-64427323D02*
X143512000Y-64427323D01*
X150879000Y-68828323D02*
X146301000Y-68828323D01*
X153373000Y-65988323D02*
X149831000Y-65988323D01*
X147349000Y-65548323D02*
X143672000Y-65548323D01*
X153670000Y-64347323D02*
X143510000Y-64347323D01*
X152985000Y-66828323D02*
X149831000Y-66828323D01*
X147349000Y-66268323D02*
X143916000Y-66268323D01*
X153427000Y-65828323D02*
X149831000Y-65828323D01*
X147349000Y-67988323D02*
X145112000Y-67988323D01*
X153344000Y-66068323D02*
X149831000Y-66068323D01*
X147349000Y-66228323D02*
X143900000Y-66228323D01*
X153440000Y-65788323D02*
X149831000Y-65788323D01*
X150799000Y-68868323D02*
X146381000Y-68868323D01*
X147349000Y-67748323D02*
X144874000Y-67748323D01*
X151535000Y-68428323D02*
X145645000Y-68428323D01*
X152191000Y-67868323D02*
X149831000Y-67868323D01*
X151169000Y-68668323D02*
X146011000Y-68668323D01*
X150715000Y-68908323D02*
X146465000Y-68908323D01*
X152151000Y-67908323D02*
X149831000Y-67908323D01*
X147349000Y-67028323D02*
X144317000Y-67028323D01*
X147349000Y-66188323D02*
X143883000Y-66188323D01*
X153280000Y-66228323D02*
X149831000Y-66228323D01*
X153546000Y-65388323D02*
X143634000Y-65388323D01*
X150436000Y-69028323D02*
X146744000Y-69028323D01*
X153580000Y-65228323D02*
X143600000Y-65228323D01*
X153052000Y-66708323D02*
X149831000Y-66708323D01*
X153620000Y-64988323D02*
X143560000Y-64988323D01*
X147349000Y-67708323D02*
X144837000Y-67708323D01*
X151235000Y-68628323D02*
X145945000Y-68628323D01*
X147349000Y-65948323D02*
X143793000Y-65948323D01*
X152728000Y-67228323D02*
X149831000Y-67228323D01*
X153030000Y-66748323D02*
X149831000Y-66748323D01*
X151696000Y-68308323D02*
X145484000Y-68308323D01*
X153211000Y-66388323D02*
X149831000Y-66388323D01*
X152547000Y-67468323D02*
X149831000Y-67468323D01*
X152026000Y-68028323D02*
X145154000Y-68028323D01*
X151844000Y-68188323D02*
X145336000Y-68188323D01*
X147349000Y-66668323D02*
X144107000Y-66668323D01*
X147349000Y-66828323D02*
X144195000Y-66828323D01*
X147349000Y-67188323D02*
X144424000Y-67188323D01*
X150955000Y-68788323D02*
X146225000Y-68788323D01*
X153608000Y-65068323D02*
X143572000Y-65068323D01*
X147349000Y-67228323D02*
X144452000Y-67228323D01*
X153387000Y-65948323D02*
X149831000Y-65948323D01*
X147349000Y-66348323D02*
X143951000Y-66348323D01*
X153648000Y-64747323D02*
X143532000Y-64747323D01*
X153464000Y-65708323D02*
X149831000Y-65708323D01*
X147349000Y-66948323D02*
X144267000Y-66948323D01*
X147349000Y-66028323D02*
X143822000Y-66028323D01*
X147349000Y-66708323D02*
X144128000Y-66708323D01*
X149189000Y-69348323D02*
X147991000Y-69348323D01*
X152756000Y-67188323D02*
X149831000Y-67188323D01*
X147349000Y-65708323D02*
X143716000Y-65708323D01*
X150220000Y-69108323D02*
X146960000Y-69108323D01*
X151299000Y-68588323D02*
X145881000Y-68588323D01*
X151796000Y-68228323D02*
X145384000Y-68228323D01*
X147349000Y-65868323D02*
X143766000Y-65868323D01*
X152448000Y-67588323D02*
X149831000Y-67588323D01*
X147349000Y-65628323D02*
X143693000Y-65628323D01*
X149820000Y-69228323D02*
X147360000Y-69228323D01*
X153297000Y-66188323D02*
X149831000Y-66188323D01*
X152784000Y-67148323D02*
X149831000Y-67148323D01*
X149968000Y-69188323D02*
X147212000Y-69188323D01*
X153414000Y-65868323D02*
X149831000Y-65868323D01*
X150534000Y-68988323D02*
X146646000Y-68988323D01*
X152961000Y-66868323D02*
X149831000Y-66868323D01*
X153487000Y-65628323D02*
X149831000Y-65628323D01*
X152068000Y-67988323D02*
X149831000Y-67988323D01*
X152414000Y-67628323D02*
X149831000Y-67628323D01*
X153518000Y-65508323D02*
X143662000Y-65508323D01*
X147349000Y-67908323D02*
X145029000Y-67908323D01*
X153669000Y-64387323D02*
X143511000Y-64387323D01*
X153537000Y-65428323D02*
X143643000Y-65428323D01*
X153154000Y-66508323D02*
X149831000Y-66508323D01*
X153229000Y-66348323D02*
X149831000Y-66348323D01*
X147349000Y-66628323D02*
X144086000Y-66628323D01*
X153313000Y-66148323D02*
X149831000Y-66148323D01*
X147349000Y-65788323D02*
X143740000Y-65788323D01*
X152579000Y-67428323D02*
X149831000Y-67428323D01*
X152670000Y-67308323D02*
X149831000Y-67308323D01*
X153670000Y-64267323D02*
X143510000Y-64267323D01*
X153358000Y-66028323D02*
X149831000Y-66028323D01*
X147349000Y-66388323D02*
X143969000Y-66388323D01*
X152230000Y-67828323D02*
X149831000Y-67828323D01*
X147349000Y-65908323D02*
X143779000Y-65908323D01*
X147349000Y-67428323D02*
X144601000Y-67428323D01*
X147349000Y-67348323D02*
X144540000Y-67348323D01*
X151029000Y-68748323D02*
X146151000Y-68748323D01*
X147349000Y-66588323D02*
X144065000Y-66588323D01*
X153665000Y-64507323D02*
X143515000Y-64507323D01*
X152913000Y-66948323D02*
X149831000Y-66948323D01*
X147349000Y-67068323D02*
X144343000Y-67068323D01*
X147349000Y-66788323D02*
X144173000Y-66788323D01*
X151891000Y-68148323D02*
X145289000Y-68148323D01*
X147349000Y-67868323D02*
X144989000Y-67868323D01*
X151479000Y-68468323D02*
X145701000Y-68468323D01*
X153670000Y-64307323D02*
X143510000Y-64307323D01*
X153135000Y-66548323D02*
X149831000Y-66548323D01*
X153572000Y-65268323D02*
X143608000Y-65268323D01*
X152888000Y-66988323D02*
X149831000Y-66988323D01*
X153497000Y-65588323D02*
X149831000Y-65588323D01*
X147349000Y-67268323D02*
X144480000Y-67268323D01*
X147349000Y-66068323D02*
X143836000Y-66068323D01*
X147349000Y-65748323D02*
X143728000Y-65748323D01*
X153528000Y-65468323D02*
X143652000Y-65468323D01*
X152937000Y-66908323D02*
X149831000Y-66908323D01*
X147349000Y-67468323D02*
X144633000Y-67468323D01*
X147349000Y-67108323D02*
X144369000Y-67108323D01*
X153452000Y-65748323D02*
X149831000Y-65748323D01*
X147349000Y-66148323D02*
X143867000Y-66148323D01*
X153094000Y-66628323D02*
X149831000Y-66628323D01*
X151982000Y-68068323D02*
X145198000Y-68068323D01*
X151360000Y-68548323D02*
X145820000Y-68548323D01*
X153635000Y-64867323D02*
X143545000Y-64867323D01*
X153663000Y-64547323D02*
X143517000Y-64547323D01*
X147349000Y-67308323D02*
X144510000Y-67308323D01*
X147349000Y-66908323D02*
X144243000Y-66908323D01*
X152110000Y-67948323D02*
X149831000Y-67948323D01*
X147349000Y-66988323D02*
X144292000Y-66988323D01*
X147349000Y-66308323D02*
X143933000Y-66308323D01*
X149652000Y-69268323D02*
X147528000Y-69268323D01*
X149452000Y-69308323D02*
X147728000Y-69308323D01*
X152343000Y-67708323D02*
X149831000Y-67708323D01*
X153652000Y-64707323D02*
X143528000Y-64707323D01*
X153193000Y-66428323D02*
X149831000Y-66428323D01*
X153555000Y-65348323D02*
X143625000Y-65348323D01*
X153073000Y-66668323D02*
X149831000Y-66668323D01*
X151465000Y-58787677D02*
X151465000Y-59787677D01*
X151937000Y-68108323D02*
X145243000Y-68108323D01*
X152837000Y-67068323D02*
X149831000Y-67068323D01*
X147349000Y-66748323D02*
X144150000Y-66748323D01*
X147349000Y-67388323D02*
X144570000Y-67388323D01*
X147349000Y-67148323D02*
X144396000Y-67148323D01*
X147349000Y-65588323D02*
X143683000Y-65588323D01*
X147349000Y-67668323D02*
X144801000Y-67668323D01*
X147349000Y-67828323D02*
X144950000Y-67828323D01*
X153660000Y-64587323D02*
X143520000Y-64587323D01*
X153264000Y-66268323D02*
X149831000Y-66268323D01*
X153475000Y-65668323D02*
X149831000Y-65668323D01*
X147349000Y-66468323D02*
X144006000Y-66468323D01*
X152863000Y-67028323D02*
X149831000Y-67028323D01*
X153601000Y-65108323D02*
X143579000Y-65108323D01*
X151644000Y-68348323D02*
X145536000Y-68348323D01*
X151100000Y-68708323D02*
X146080000Y-68708323D01*
X153115000Y-66588323D02*
X149831000Y-66588323D01*
X153658000Y-64627323D02*
X143522000Y-64627323D01*
X147349000Y-67948323D02*
X145070000Y-67948323D01*
X147349000Y-66868323D02*
X144219000Y-66868323D01*
X153007000Y-66788323D02*
X149831000Y-66788323D01*
X152482000Y-67548323D02*
X149831000Y-67548323D01*
X153328000Y-66108323D02*
X149831000Y-66108323D01*
X153564000Y-65308323D02*
X143616000Y-65308323D01*
X150627000Y-68948323D02*
X146553000Y-68948323D01*
X152640000Y-67348323D02*
X149831000Y-67348323D01*
X153587000Y-65188323D02*
X143593000Y-65188323D01*
X147349000Y-65988323D02*
X143807000Y-65988323D01*
X151746000Y-68268323D02*
X145434000Y-68268323D01*
X153625000Y-64947323D02*
X143555000Y-64947323D01*
X153594000Y-65148323D02*
X143586000Y-65148323D01*
X153630000Y-64907323D02*
X143550000Y-64907323D01*
X147349000Y-65668323D02*
X143705000Y-65668323D01*
X153644000Y-64787323D02*
X143536000Y-64787323D01*
X147349000Y-66548323D02*
X144045000Y-66548323D01*
X153710000Y-64267323D02*
G75*
G03*
X153710000Y-64267323I-5120000J0D01*
G01*
%TO.C,U7113*%
X98995000Y-98305000D02*
X98995000Y-99955000D01*
X116895000Y-98305000D02*
X98995000Y-98305000D01*
X98995000Y-103605000D02*
X116895000Y-103605000D01*
X98995000Y-101955000D02*
X98995000Y-103605000D01*
X116895000Y-103605000D02*
X116895000Y-98305000D01*
X98995000Y-101955000D02*
G75*
G03*
X98995000Y-99955000I0J1000000D01*
G01*
%TO.C,U7108*%
X94035000Y-98305000D02*
X76135000Y-98305000D01*
X94035000Y-103605000D02*
X94035000Y-98305000D01*
X76135000Y-103605000D02*
X94035000Y-103605000D01*
X76135000Y-98305000D02*
X76135000Y-99955000D01*
X76135000Y-101955000D02*
X76135000Y-103605000D01*
X76135000Y-101955000D02*
G75*
G03*
X76135000Y-99955000I0J1000000D01*
G01*
%TO.C,U7116*%
X147275000Y-86725000D02*
X147275000Y-88375000D01*
X147275000Y-88375000D02*
X167715000Y-88375000D01*
X167715000Y-88375000D02*
X167715000Y-83075000D01*
X147275000Y-83075000D02*
X147275000Y-84725000D01*
X167715000Y-83075000D02*
X147275000Y-83075000D01*
X147275000Y-86725000D02*
G75*
G03*
X147275000Y-84725000I0J1000000D01*
G01*
%TO.C,U7121*%
X191845000Y-103605000D02*
X191845000Y-98305000D01*
X171405000Y-103605000D02*
X191845000Y-103605000D01*
X191845000Y-98305000D02*
X171405000Y-98305000D01*
X171405000Y-98305000D02*
X171405000Y-99955000D01*
X171405000Y-101955000D02*
X171405000Y-103605000D01*
X171405000Y-101955000D02*
G75*
G03*
X171405000Y-99955000I0J1000000D01*
G01*
%TO.C,U7111*%
X139755000Y-98315000D02*
X121855000Y-98315000D01*
X139755000Y-103615000D02*
X139755000Y-98315000D01*
X121855000Y-101965000D02*
X121855000Y-103615000D01*
X121855000Y-98315000D02*
X121855000Y-99965000D01*
X121855000Y-103615000D02*
X139755000Y-103615000D01*
X121855000Y-101965000D02*
G75*
G03*
X121855000Y-99965000I0J1000000D01*
G01*
%TO.C,U7114*%
X119950000Y-69315000D02*
X137850000Y-69315000D01*
X137850000Y-69315000D02*
X137850000Y-64015000D01*
X137850000Y-64015000D02*
X119950000Y-64015000D01*
X119950000Y-64015000D02*
X119950000Y-65665000D01*
X119950000Y-67665000D02*
X119950000Y-69315000D01*
X119950000Y-67665000D02*
G75*
G03*
X119950000Y-65665000I0J1000000D01*
G01*
%TO.C,U7101*%
X154880000Y-134095000D02*
X180400000Y-134095000D01*
X154880000Y-132445000D02*
X154880000Y-134095000D01*
X180400000Y-128795000D02*
X154880000Y-128795000D01*
X180400000Y-134095000D02*
X180400000Y-128795000D01*
X154880000Y-128795000D02*
X154880000Y-130445000D01*
X154880000Y-132445000D02*
G75*
G03*
X154880000Y-130445000I0J1000000D01*
G01*
%TO.C,U7120*%
X171405000Y-88375000D02*
X191845000Y-88375000D01*
X171405000Y-86725000D02*
X171405000Y-88375000D01*
X171405000Y-83075000D02*
X171405000Y-84725000D01*
X191845000Y-83075000D02*
X171405000Y-83075000D01*
X191845000Y-88375000D02*
X191845000Y-83075000D01*
X171405000Y-86725000D02*
G75*
G03*
X171405000Y-84725000I0J1000000D01*
G01*
%TO.C,X2*%
X105360000Y-116210000D02*
X105360000Y-113610000D01*
X106690000Y-118810000D02*
X105360000Y-118810000D01*
X115640000Y-118810000D02*
X115640000Y-113610000D01*
X105360000Y-118810000D02*
X105360000Y-117480000D01*
X107960000Y-116210000D02*
X105360000Y-116210000D01*
X107960000Y-118810000D02*
X115640000Y-118810000D01*
X107960000Y-118810000D02*
X107960000Y-116210000D01*
X105360000Y-113610000D02*
X115640000Y-113610000D01*
%TO.C,U7109*%
X121875000Y-83085000D02*
X121875000Y-84735000D01*
X142315000Y-83085000D02*
X121875000Y-83085000D01*
X121875000Y-88385000D02*
X142315000Y-88385000D01*
X121875000Y-86735000D02*
X121875000Y-88385000D01*
X142315000Y-88385000D02*
X142315000Y-83085000D01*
X121875000Y-86735000D02*
G75*
G03*
X121875000Y-84735000I0J1000000D01*
G01*
%TO.C,U7115*%
X76140000Y-69315000D02*
X94040000Y-69315000D01*
X94040000Y-64015000D02*
X76140000Y-64015000D01*
X76140000Y-67665000D02*
X76140000Y-69315000D01*
X94040000Y-69315000D02*
X94040000Y-64015000D01*
X76140000Y-64015000D02*
X76140000Y-65665000D01*
X76140000Y-67665000D02*
G75*
G03*
X76140000Y-65665000I0J1000000D01*
G01*
%TO.C,X-TAL1*%
X102880000Y-72995000D02*
X102880000Y-73345000D01*
X102880000Y-73345000D02*
X102880000Y-73345000D01*
X109330000Y-73115000D02*
X100230000Y-73115000D01*
X109330000Y-72995000D02*
X109330000Y-73115000D01*
X108980000Y-72995000D02*
X108980000Y-63795000D01*
X100230000Y-73115000D02*
X100230000Y-72995000D01*
X100580000Y-63795000D02*
X100580000Y-72995000D01*
X100230000Y-72995000D02*
X109330000Y-72995000D01*
X106680000Y-72995000D02*
X106680000Y-73345000D01*
X108980000Y-63795000D02*
X100580000Y-63795000D01*
X106680000Y-73345000D02*
X106680000Y-73345000D01*
X100580000Y-72995000D02*
X108980000Y-72995000D01*
%TO.C,U7117*%
X147275000Y-101955000D02*
X147275000Y-103605000D01*
X167715000Y-98305000D02*
X147275000Y-98305000D01*
X167715000Y-103605000D02*
X167715000Y-98305000D01*
X147275000Y-98305000D02*
X147275000Y-99955000D01*
X147275000Y-103605000D02*
X167715000Y-103605000D01*
X147275000Y-101955000D02*
G75*
G03*
X147275000Y-99955000I0J1000000D01*
G01*
%TO.C,U7118*%
X147275000Y-113545000D02*
X147275000Y-115195000D01*
X147275000Y-117195000D02*
X147275000Y-118845000D01*
X167715000Y-118845000D02*
X167715000Y-113545000D01*
X147275000Y-118845000D02*
X167715000Y-118845000D01*
X167715000Y-113545000D02*
X147275000Y-113545000D01*
X147275000Y-117195000D02*
G75*
G03*
X147275000Y-115195000I0J1000000D01*
G01*
%TO.C,X5*%
X196790000Y-57725000D02*
X198120000Y-57725000D01*
X196790000Y-60325000D02*
X199390000Y-60325000D01*
X196790000Y-78165000D02*
X201990000Y-78165000D01*
X201990000Y-57725000D02*
X201990000Y-78165000D01*
X196790000Y-60325000D02*
X196790000Y-78165000D01*
X199390000Y-57725000D02*
X201990000Y-57725000D01*
X199390000Y-60325000D02*
X199390000Y-57725000D01*
X196790000Y-59055000D02*
X196790000Y-57725000D01*
%TO.C,U7106*%
X121855000Y-118845000D02*
X139755000Y-118845000D01*
X139755000Y-118845000D02*
X139755000Y-113545000D01*
X121855000Y-113545000D02*
X121855000Y-115195000D01*
X121855000Y-117195000D02*
X121855000Y-118845000D01*
X139755000Y-113545000D02*
X121855000Y-113545000D01*
X121855000Y-117195000D02*
G75*
G03*
X121855000Y-115195000I0J1000000D01*
G01*
%TO.C,U7119*%
X156770000Y-73140000D02*
X192450000Y-73140000D01*
X156770000Y-60220000D02*
X156770000Y-65680000D01*
X192450000Y-73140000D02*
X192450000Y-60220000D01*
X192450000Y-60220000D02*
X156770000Y-60220000D01*
X156770000Y-67680000D02*
X156770000Y-73140000D01*
X156770000Y-67680000D02*
G75*
G03*
X156770000Y-65680000I0J1000000D01*
G01*
%TO.C,U7110*%
X98995000Y-83065000D02*
X98995000Y-84715000D01*
X116895000Y-83065000D02*
X98995000Y-83065000D01*
X98995000Y-88365000D02*
X116895000Y-88365000D01*
X98995000Y-86715000D02*
X98995000Y-88365000D01*
X116895000Y-88365000D02*
X116895000Y-83065000D01*
X98995000Y-86715000D02*
G75*
G03*
X98995000Y-84715000I0J1000000D01*
G01*
%TO.C,U7107*%
X76135000Y-113545000D02*
X76135000Y-115195000D01*
X94035000Y-118845000D02*
X94035000Y-113545000D01*
X76135000Y-118845000D02*
X94035000Y-118845000D01*
X94035000Y-113545000D02*
X76135000Y-113545000D01*
X76135000Y-117195000D02*
X76135000Y-118845000D01*
X76135000Y-117195000D02*
G75*
G03*
X76135000Y-115195000I0J1000000D01*
G01*
%TD*%
M02*
