M48
; DRILL file {KiCad 6.0.2+dfsg-1} date Wed 31 Aug 2022 05:58:33 PM MST
; FORMAT={-:-/ absolute / inch / decimal}
; #@! TF.CreationDate,2022-08-31T17:58:33-07:00
; #@! TF.GenerationSoftware,Kicad,Pcbnew,6.0.2+dfsg-1
; #@! TF.FileFunction,Plated,1,2,PTH
FMAT,2
INCH
; #@! TA.AperFunction,Plated,PTH,ViaDrill
T1C0.0157
; #@! TA.AperFunction,Plated,PTH,ViaDrill
T2C0.0236
; #@! TA.AperFunction,Plated,PTH,ComponentDrill
T3C0.0315
; #@! TA.AperFunction,Plated,PTH,ComponentDrill
T4C0.0394
; #@! TA.AperFunction,Plated,PTH,ComponentDrill
T5C0.1260
%
G90
G05
T1
X2.9Y-2.55
X2.9Y-3.3
X2.9Y-3.9
X2.9Y-4.5
X2.9Y-5.1
X2.9983Y-4.0788
X3.0Y-3.95
X3.05Y-4.25
X3.15Y-3.625
X3.15Y-4.6
X3.25Y-4.325
X3.3Y-3.7
X3.3Y-4.925
X3.34Y-4.04
X3.35Y-3.05
X3.35Y-3.675
X3.35Y-4.3
X3.4Y-3.375
X3.4Y-4.85
X3.45Y-2.975
X3.45Y-3.625
X3.5Y-2.875
X3.5Y-5.15
X3.55Y-3.95
X3.6Y-3.575
X3.6Y-3.675
X3.65Y-4.2
X3.7Y-2.35
X3.75Y-2.4
X3.75Y-4.85
X3.775Y-4.15
X3.8Y-3.625
X3.825Y-2.625
X3.825Y-3.975
X3.825Y-4.6
X3.875Y-4.15
X3.9Y-4.85
X3.91Y-3.45
X3.95Y-4.35
X3.95Y-4.975
X3.9565Y-2.6965
X4.0Y-3.575
X4.0Y-4.6
X4.0Y-4.975
X4.04Y-3.14
X4.05Y-3.375
X4.1Y-3.05
X4.1Y-3.725
X4.125Y-3.375
X4.15Y-3.1
X4.2Y-3.45
X4.2Y-3.775
X4.2Y-5.525
X4.25Y-3.5807
X4.275Y-4.0
X4.3Y-3.7
X4.3Y-4.2
X4.3Y-5.2
X4.3Y-5.5075
X4.3435Y-2.6965
X4.35Y-3.725
X4.35Y-4.0
X4.4Y-4.243
X4.45Y-3.975
X4.475Y-5.2
X4.525Y-5.5
X4.6Y-4.575
X4.62Y-3.4
X4.625Y-3.05
X4.69Y-3.45
X4.7Y-4.975
X4.775Y-4.875
X4.85Y-3.725
X4.9Y-4.3175
X4.925Y-3.7
X4.95Y-3.45
X4.95Y-3.65
X4.95Y-4.2
X4.95Y-4.85
X4.975Y-2.25
X5.0Y-3.375
X5.0Y-3.975
X5.075Y-3.975
X5.15Y-3.65
X5.15Y-5.25
X5.175Y-5.4
X5.2Y-2.95
X5.2Y-4.2
X5.2Y-4.3
X5.25Y-3.375
X5.25Y-4.85
X5.275Y-2.625
X5.3Y-2.9
X5.3Y-3.65
X5.3Y-3.725
X5.35Y-2.875
X5.35Y-4.925
X5.3715Y-2.6965
X5.4Y-2.9
X5.45Y-2.825
X5.45Y-4.05
X5.45Y-4.575
X5.45Y-4.65
X5.575Y-2.4
X5.575Y-2.775
X5.6Y-3.15
X5.625Y-4.4
X5.65Y-3.0
X5.65Y-4.3
X5.65Y-5.15
X5.7Y-2.3
X5.7Y-3.7
X5.7Y-4.8
X5.75Y-3.225
X5.75Y-4.4
X5.75Y-5.425
X5.775Y-4.575
X5.775Y-4.85
X5.8Y-3.0
X5.85Y-5.2
X5.9Y-3.775
X5.95Y-2.95
X5.95Y-3.975
X5.95Y-4.9
X5.975Y-5.175
X6.0Y-3.05
X6.0Y-3.175
X6.0Y-5.425
X6.0006Y-3.7992
X6.05Y-2.55
X6.05Y-2.8575
X6.05Y-3.375
X6.1Y-2.9
X6.1Y-4.25
X6.1Y-5.2
X6.125Y-2.35
X6.2Y-4.2175
X6.2Y-4.85
X6.2Y-4.95
X6.2Y-5.4
X6.275Y-4.85
X6.3Y-4.2
X6.325Y-2.5
X6.325Y-4.35
X6.35Y-4.95
X6.375Y-2.64
X6.4Y-3.6
X6.4Y-4.2
X6.425Y-3.15
X6.5Y-4.25
X6.5Y-4.85
X6.5215Y-2.6965
X6.575Y-4.8
X6.625Y-2.55
X6.625Y-3.825
X6.6575Y-3.7
X6.675Y-2.5
X6.675Y-3.6
X6.675Y-3.825
X6.71Y-4.65
X6.725Y-4.4
X6.75Y-3.725
X6.75Y-5.2
X6.825Y-3.05
X6.85Y-4.575
X6.875Y-3.1
X6.875Y-4.75
X6.875Y-4.8
X6.925Y-4.95
X6.95Y-3.0
X6.95Y-4.3
X6.95Y-4.375
X7.025Y-2.4
X7.025Y-2.575
X7.03Y-4.65
X7.05Y-3.725
X7.05Y-5.175
X7.05Y-5.425
X7.075Y-2.375
X7.075Y-2.85
X7.1Y-3.15
X7.1Y-3.95
X7.125Y-2.425
X7.125Y-3.05
X7.15Y-3.375
X7.175Y-2.525
X7.175Y-4.875
X7.2Y-3.45
X7.2Y-5.425
X7.225Y-2.775
X7.225Y-4.575
X7.25Y-3.15
X7.25Y-4.05
X7.25Y-5.475
X7.29Y-4.65
X7.31Y-5.25
X7.3215Y-2.6965
X7.375Y-2.575
X7.45Y-3.675
X7.5Y-4.475
X7.5Y-4.575
X7.5Y-4.775
X7.5Y-4.95
X7.5Y-5.04
X7.525Y-2.425
X7.55Y-3.1
X7.55Y-3.95
X7.55Y-4.475
X7.625Y-2.7
X7.625Y-3.025
X7.625Y-3.45
X7.625Y-4.05
X7.625Y-4.65
X7.625Y-5.25
X7.7Y-3.1
X7.7Y-3.9
X7.753Y-4.8937
X7.76Y-3.22
X8.0Y-3.22
T2
X3.35Y-3.3
X3.55Y-5.1
X3.9701Y-3.3
X5.43Y-2.55
X5.4864Y-4.5
X5.5Y-3.9
X6.425Y-2.425
X6.8Y-3.3
X7.0Y-5.1
X7.125Y-5.1
X7.3Y-4.5
X7.375Y-5.15
X7.4Y-3.3
T3
X3.0498Y-3.2246
X3.0498Y-3.5246
X3.0498Y-3.8246
X3.0498Y-4.1246
X3.0498Y-4.4246
X3.0498Y-4.7246
X3.05Y-2.4746
X3.05Y-2.7746
X3.0506Y-5.0246
X3.0506Y-5.3246
X3.1498Y-3.2246
X3.1498Y-3.5246
X3.1498Y-3.8246
X3.1498Y-4.1246
X3.1498Y-4.4246
X3.1498Y-4.7246
X3.15Y-2.4746
X3.15Y-2.7746
X3.1506Y-5.0246
X3.1506Y-5.3246
X3.2498Y-3.2246
X3.2498Y-3.5246
X3.2498Y-3.8246
X3.2498Y-4.1246
X3.2498Y-4.4246
X3.2498Y-4.7246
X3.25Y-2.4746
X3.25Y-2.7746
X3.2506Y-5.0246
X3.2506Y-5.3246
X3.3498Y-3.2246
X3.3498Y-3.5246
X3.3498Y-3.8246
X3.3498Y-4.1246
X3.3498Y-4.4246
X3.3498Y-4.7246
X3.35Y-2.4746
X3.35Y-2.7746
X3.3506Y-5.0246
X3.3506Y-5.3246
X3.4498Y-3.2246
X3.4498Y-3.5246
X3.4498Y-3.8246
X3.4498Y-4.1246
X3.4498Y-4.4246
X3.4498Y-4.7246
X3.45Y-2.4746
X3.45Y-2.7746
X3.4506Y-5.0246
X3.4506Y-5.3246
X3.5498Y-3.2246
X3.5498Y-3.5246
X3.5498Y-3.8246
X3.5498Y-4.1246
X3.5498Y-4.4246
X3.5498Y-4.7246
X3.55Y-2.4746
X3.55Y-2.7746
X3.5506Y-5.0246
X3.5506Y-5.3246
X3.6498Y-3.2246
X3.6498Y-3.5246
X3.6498Y-3.8246
X3.6498Y-4.1246
X3.6498Y-4.4246
X3.6498Y-4.7246
X3.65Y-2.4746
X3.65Y-2.7746
X3.6506Y-5.0246
X3.6506Y-5.3246
X3.7506Y-5.0246
X3.7506Y-5.3246
X3.9498Y-3.2246
X3.9498Y-3.5246
X3.9498Y-3.8246
X3.9498Y-4.1246
X4.0498Y-3.2246
X4.0498Y-3.5246
X4.0498Y-3.8246
X4.0498Y-4.1246
X4.0504Y-2.925
X4.0506Y-5.0246
X4.0506Y-5.3246
X4.1498Y-3.2246
X4.1498Y-3.5246
X4.1498Y-3.8246
X4.1498Y-4.1246
X4.1506Y-5.0246
X4.1506Y-5.3246
X4.2Y-2.925
X4.2498Y-3.2246
X4.2498Y-3.5246
X4.2498Y-3.8246
X4.2498Y-4.1246
X4.2506Y-5.0246
X4.2506Y-5.3246
X4.3498Y-3.2246
X4.3498Y-3.5246
X4.3498Y-3.8246
X4.3498Y-4.1246
X4.3506Y-5.0246
X4.3506Y-5.3246
X4.4498Y-3.2246
X4.4498Y-3.5246
X4.4498Y-3.8246
X4.4498Y-4.1246
X4.4506Y-5.0246
X4.4506Y-5.3246
X4.5498Y-3.2246
X4.5498Y-3.5246
X4.5498Y-3.8246
X4.5498Y-4.1246
X4.5506Y-5.0246
X4.5506Y-5.3246
X4.6506Y-5.0246
X4.6506Y-5.3246
X4.7506Y-5.0246
X4.7506Y-5.3246
X4.7748Y-2.4746
X4.7748Y-2.7746
X4.8498Y-3.825
X4.8498Y-4.125
X4.8498Y-4.4246
X4.8498Y-4.7246
X4.8506Y-3.2254
X4.8506Y-3.5254
X4.8748Y-2.4746
X4.8748Y-2.7746
X4.9498Y-3.825
X4.9498Y-4.125
X4.9498Y-4.4246
X4.9498Y-4.7246
X4.9506Y-3.2254
X4.9506Y-3.5254
X4.9748Y-2.4746
X4.9748Y-2.7746
X5.0498Y-3.825
X5.0498Y-4.125
X5.0498Y-4.4246
X5.0498Y-4.7246
X5.05Y-5.025
X5.05Y-5.325
X5.0506Y-3.2254
X5.0506Y-3.5254
X5.0748Y-2.4746
X5.0748Y-2.7746
X5.1498Y-3.825
X5.1498Y-4.125
X5.1498Y-4.4246
X5.1498Y-4.7246
X5.15Y-5.025
X5.15Y-5.325
X5.1506Y-3.2254
X5.1506Y-3.5254
X5.1748Y-2.4746
X5.1748Y-2.7746
X5.2498Y-3.825
X5.2498Y-4.125
X5.2498Y-4.4246
X5.2498Y-4.7246
X5.25Y-5.025
X5.25Y-5.325
X5.2506Y-3.2254
X5.2506Y-3.5254
X5.2748Y-2.4746
X5.2748Y-2.7746
X5.3498Y-3.825
X5.3498Y-4.125
X5.3498Y-4.4246
X5.3498Y-4.7246
X5.35Y-5.025
X5.35Y-5.325
X5.3506Y-3.2254
X5.3506Y-3.5254
X5.3748Y-2.4746
X5.3748Y-2.7746
X5.4498Y-3.825
X5.4498Y-4.125
X5.4498Y-4.4246
X5.4498Y-4.7246
X5.45Y-5.025
X5.45Y-5.325
X5.4506Y-3.2254
X5.4506Y-3.5254
X5.55Y-5.025
X5.55Y-5.325
X5.5506Y-3.2254
X5.5506Y-3.5254
X5.65Y-5.025
X5.65Y-5.325
X5.75Y-5.025
X5.75Y-5.325
X5.85Y-5.025
X5.85Y-5.325
X5.8506Y-3.225
X5.8506Y-3.525
X5.8506Y-3.8246
X5.8506Y-4.1246
X5.8506Y-4.4246
X5.8506Y-4.7246
X5.95Y-5.025
X5.95Y-5.325
X5.9506Y-3.225
X5.9506Y-3.525
X5.9506Y-3.8246
X5.9506Y-4.1246
X5.9506Y-4.4246
X5.9506Y-4.7246
X6.0506Y-3.225
X6.0506Y-3.525
X6.0506Y-3.8246
X6.0506Y-4.1246
X6.0506Y-4.4246
X6.0506Y-4.7246
X6.15Y-5.025
X6.15Y-5.325
X6.1506Y-3.225
X6.1506Y-3.525
X6.1506Y-3.8246
X6.1506Y-4.1246
X6.1506Y-4.4246
X6.1506Y-4.7246
X6.2244Y-2.3252
X6.2244Y-2.9252
X6.25Y-5.025
X6.25Y-5.325
X6.2506Y-3.225
X6.2506Y-3.525
X6.2506Y-3.8246
X6.2506Y-4.1246
X6.2506Y-4.4246
X6.2506Y-4.7246
X6.3244Y-2.3252
X6.3244Y-2.9252
X6.35Y-5.025
X6.35Y-5.325
X6.3506Y-3.225
X6.3506Y-3.525
X6.3506Y-3.8246
X6.3506Y-4.1246
X6.3506Y-4.4246
X6.3506Y-4.7246
X6.4244Y-2.3252
X6.4244Y-2.9252
X6.45Y-5.025
X6.45Y-5.325
X6.4506Y-3.225
X6.4506Y-3.525
X6.4506Y-3.8246
X6.4506Y-4.1246
X6.4506Y-4.4246
X6.4506Y-4.7246
X6.5244Y-2.3252
X6.5244Y-2.9252
X6.55Y-5.025
X6.55Y-5.325
X6.5506Y-3.225
X6.5506Y-3.525
X6.5506Y-3.8246
X6.5506Y-4.1246
X6.5506Y-4.4246
X6.5506Y-4.7246
X6.6244Y-2.3252
X6.6244Y-2.9252
X6.65Y-5.025
X6.65Y-5.325
X6.7244Y-2.3252
X6.7244Y-2.9252
X6.75Y-5.025
X6.75Y-5.325
X6.8006Y-3.225
X6.8006Y-3.525
X6.8006Y-3.8246
X6.8006Y-4.1246
X6.8244Y-2.3252
X6.8244Y-2.9252
X6.85Y-5.025
X6.85Y-5.325
X6.9006Y-3.225
X6.9006Y-3.525
X6.9006Y-3.8246
X6.9006Y-4.1246
X6.9244Y-2.3252
X6.9244Y-2.9252
X6.95Y-5.025
X6.95Y-5.325
X7.0006Y-3.225
X7.0006Y-3.525
X7.0006Y-3.8246
X7.0006Y-4.1246
X7.0244Y-2.3252
X7.0244Y-2.9252
X7.05Y-5.025
X7.05Y-5.325
X7.1006Y-3.225
X7.1006Y-3.525
X7.1006Y-3.8246
X7.1006Y-4.1246
X7.1244Y-2.3252
X7.1244Y-2.9252
X7.2006Y-3.225
X7.2006Y-3.525
X7.2006Y-3.8246
X7.2006Y-4.1246
X7.2244Y-2.3252
X7.2244Y-2.9252
X7.3006Y-3.225
X7.3006Y-3.525
X7.3006Y-3.8246
X7.3006Y-4.1246
X7.3244Y-2.3252
X7.3244Y-2.9252
X7.4006Y-3.225
X7.4006Y-3.525
X7.4006Y-3.8246
X7.4006Y-4.1246
X7.4244Y-2.3252
X7.4244Y-2.9252
X7.5006Y-3.225
X7.5006Y-3.525
X7.5006Y-3.8246
X7.5006Y-4.1246
X7.5244Y-2.3252
X7.5244Y-2.9252
T4
X4.2004Y-4.5252
X4.2004Y-4.6252
X4.3004Y-4.5252
X4.3004Y-4.6252
X4.4004Y-4.5252
X4.4004Y-4.6252
X4.5004Y-4.5252
X4.5004Y-4.6252
X5.85Y-2.4318
X5.85Y-2.6286
X7.8Y-2.325
X7.8Y-2.425
X7.8Y-2.525
X7.8Y-2.625
X7.8Y-2.725
X7.8Y-2.825
X7.8Y-2.925
X7.8Y-3.025
X7.825Y-4.4
X7.825Y-4.5091
X7.825Y-4.6181
X7.825Y-4.7272
X7.825Y-4.8362
X7.825Y-4.9453
X7.825Y-5.0543
X7.825Y-5.1634
X7.9Y-2.325
X7.9Y-2.425
X7.9Y-2.525
X7.9Y-2.625
X7.9Y-2.725
X7.9Y-2.825
X7.9Y-2.925
X7.9Y-3.025
X7.9368Y-4.4545
X7.9368Y-4.5636
X7.9368Y-4.6726
X7.9368Y-4.7817
X7.9368Y-4.8907
X7.9368Y-4.9998
X7.9368Y-5.1089
T5
X7.8809Y-4.1262
X7.8809Y-5.4372
T0
M30
